<svg width="584" height="311" viewBox="0 0 584 311" fill="none" xmlns="http://www.w3.org/2000/svg">
<rect x="-0.448398" y="1.63675" width="60.5213" height="19.1176" rx="9.5588" transform="matrix(-0.868809 0.495148 0.495144 0.868811 277.517 81.4367)" fill="#EF5350" stroke="#EF5350" stroke-width="2.40001"/>
<rect x="-0.448398" y="1.63675" width="60.5213" height="19.1176" rx="9.5588" transform="matrix(-0.868809 0.495148 0.495144 0.868811 347.862 101.987)" fill="#FBBC04" stroke="#FBBC04" stroke-width="2.40001"/>
<rect x="0.448398" y="1.63675" width="60.5213" height="19.1176" rx="9.5588" transform="matrix(0.868809 0.495148 -0.495144 0.868811 236.022 101.543)" fill="#4285F4" stroke="#4285F4" stroke-width="2.40001"/>
<path d="M353.795 120.909C351.181 125.495 345.344 127.094 340.757 124.48L304.785 103.979C300.199 101.365 298.599 95.5282 301.213 90.9416C303.827 86.355 309.665 84.7558 314.251 87.3698L350.223 107.871C354.81 110.485 356.409 116.322 353.795 120.909Z" fill="#4CAF50" stroke="#4CAF50" stroke-width="2.40001"/>
<path d="M110.638 201.744C108.895 201.744 107.267 201.435 105.754 200.816C104.24 200.174 102.91 199.291 101.763 198.167C100.617 197.043 99.7221 195.736 99.08 194.245C98.4608 192.732 98.1512 191.103 98.1512 189.36C98.1512 187.64 98.4608 186.035 99.08 184.544C99.7221 183.054 100.605 181.758 101.729 180.657C102.875 179.533 104.206 178.662 105.719 178.043C107.233 177.424 108.861 177.114 110.604 177.114C111.82 177.114 113.001 177.286 114.147 177.63C115.317 177.974 116.372 178.456 117.312 179.075C118.252 179.694 119.021 180.405 119.617 181.208L117.209 183.719C116.521 183.054 115.81 182.503 115.076 182.068C114.365 181.632 113.631 181.299 112.874 181.07C112.118 180.841 111.361 180.726 110.604 180.726C109.366 180.726 108.219 180.944 107.164 181.38C106.132 181.815 105.215 182.423 104.412 183.203C103.632 183.983 103.025 184.9 102.589 185.955C102.153 186.987 101.935 188.122 101.935 189.36C101.935 190.553 102.165 191.688 102.623 192.766C103.082 193.821 103.713 194.75 104.515 195.552C105.341 196.355 106.281 196.986 107.336 197.444C108.414 197.903 109.549 198.132 110.742 198.132C111.636 198.132 112.485 198.006 113.287 197.754C114.09 197.479 114.801 197.1 115.42 196.619C116.039 196.137 116.521 195.587 116.865 194.968C117.209 194.325 117.381 193.649 117.381 192.938V192.25L117.897 192.732H110.535V189.051H121.199C121.245 189.303 121.28 189.555 121.302 189.808C121.325 190.037 121.337 190.266 121.337 190.496C121.36 190.702 121.371 190.908 121.371 191.115C121.371 192.697 121.096 194.142 120.546 195.449C119.995 196.734 119.227 197.846 118.241 198.786C117.278 199.726 116.142 200.46 114.835 200.988C113.551 201.492 112.152 201.744 110.638 201.744ZM131.713 201.744C129.947 201.744 128.365 201.343 126.966 200.54C125.59 199.715 124.5 198.603 123.698 197.204C122.895 195.782 122.494 194.165 122.494 192.353C122.494 190.541 122.895 188.936 123.698 187.537C124.5 186.115 125.59 185.003 126.966 184.2C128.365 183.375 129.947 182.962 131.713 182.962C133.456 182.962 135.015 183.375 136.391 184.2C137.79 185.003 138.891 186.115 139.694 187.537C140.496 188.936 140.898 190.541 140.898 192.353C140.898 194.165 140.496 195.782 139.694 197.204C138.891 198.603 137.79 199.715 136.391 200.54C135.015 201.343 133.456 201.744 131.713 201.744ZM131.713 198.511C132.791 198.511 133.754 198.247 134.602 197.72C135.451 197.169 136.116 196.435 136.598 195.518C137.079 194.578 137.309 193.523 137.286 192.353C137.309 191.161 137.079 190.106 136.598 189.188C136.116 188.248 135.451 187.514 134.602 186.987C133.754 186.459 132.791 186.196 131.713 186.196C130.635 186.196 129.66 186.471 128.789 187.021C127.94 187.549 127.275 188.283 126.794 189.223C126.312 190.14 126.083 191.184 126.106 192.353C126.083 193.523 126.312 194.578 126.794 195.518C127.275 196.435 127.94 197.169 128.789 197.72C129.66 198.247 130.635 198.511 131.713 198.511ZM151.157 201.744C149.391 201.744 147.809 201.343 146.41 200.54C145.034 199.715 143.944 198.603 143.142 197.204C142.339 195.782 141.938 194.165 141.938 192.353C141.938 190.541 142.339 188.936 143.142 187.537C143.944 186.115 145.034 185.003 146.41 184.2C147.809 183.375 149.391 182.962 151.157 182.962C152.9 182.962 154.459 183.375 155.835 184.2C157.234 185.003 158.335 186.115 159.138 187.537C159.94 188.936 160.342 190.541 160.342 192.353C160.342 194.165 159.94 195.782 159.138 197.204C158.335 198.603 157.234 199.715 155.835 200.54C154.459 201.343 152.9 201.744 151.157 201.744ZM151.157 198.511C152.235 198.511 153.198 198.247 154.047 197.72C154.895 197.169 155.56 196.435 156.042 195.518C156.523 194.578 156.753 193.523 156.73 192.353C156.753 191.161 156.523 190.106 156.042 189.188C155.56 188.248 154.895 187.514 154.047 186.987C153.198 186.459 152.235 186.196 151.157 186.196C150.079 186.196 149.104 186.471 148.233 187.021C147.384 187.549 146.719 188.283 146.238 189.223C145.756 190.14 145.527 191.184 145.55 192.353C145.527 193.523 145.756 194.578 146.238 195.518C146.719 196.435 147.384 197.169 148.233 197.72C149.104 198.247 150.079 198.511 151.157 198.511ZM170.567 209.312C169.282 209.312 167.998 209.106 166.714 208.693C165.452 208.303 164.432 207.787 163.652 207.145L164.959 204.393C165.418 204.737 165.957 205.035 166.576 205.288C167.195 205.563 167.849 205.769 168.537 205.907C169.225 206.067 169.902 206.148 170.567 206.148C171.828 206.148 172.883 205.941 173.731 205.528C174.58 205.116 175.222 204.508 175.658 203.705C176.094 202.903 176.311 201.905 176.311 200.712V197.238L176.69 197.479C176.575 198.19 176.197 198.878 175.555 199.543C174.935 200.185 174.156 200.712 173.215 201.125C172.275 201.538 171.312 201.744 170.326 201.744C168.606 201.744 167.069 201.343 165.716 200.54C164.386 199.715 163.331 198.603 162.551 197.204C161.772 195.782 161.382 194.165 161.382 192.353C161.382 190.541 161.76 188.936 162.517 187.537C163.297 186.115 164.352 185.003 165.682 184.2C167.035 183.375 168.548 182.962 170.223 182.962C170.911 182.962 171.576 183.054 172.218 183.237C172.86 183.398 173.456 183.639 174.007 183.96C174.557 184.258 175.05 184.59 175.486 184.957C175.922 185.324 176.277 185.714 176.552 186.127C176.827 186.54 176.999 186.929 177.068 187.296L176.311 187.572V183.34H179.855V200.3C179.855 201.744 179.637 203.017 179.201 204.118C178.788 205.242 178.181 206.182 177.378 206.939C176.575 207.719 175.6 208.303 174.454 208.693C173.307 209.106 172.011 209.312 170.567 209.312ZM170.704 198.476C171.828 198.476 172.826 198.213 173.697 197.685C174.568 197.158 175.245 196.435 175.727 195.518C176.208 194.601 176.449 193.546 176.449 192.353C176.449 191.161 176.197 190.106 175.692 189.188C175.211 188.248 174.534 187.514 173.663 186.987C172.814 186.459 171.828 186.196 170.704 186.196C169.603 186.196 168.617 186.471 167.746 187.021C166.897 187.549 166.221 188.283 165.716 189.223C165.235 190.14 164.994 191.184 164.994 192.353C164.994 193.523 165.235 194.578 165.716 195.518C166.221 196.435 166.897 197.158 167.746 197.685C168.617 198.213 169.603 198.476 170.704 198.476ZM183.171 201.4V175.944H186.715V201.4H183.171ZM198.108 201.744C196.251 201.744 194.599 201.355 193.155 200.575C191.733 199.772 190.609 198.683 189.783 197.307C188.981 195.931 188.579 194.348 188.579 192.56C188.579 191.138 188.809 189.842 189.267 188.672C189.726 187.503 190.357 186.494 191.159 185.645C191.985 184.774 192.96 184.109 194.083 183.65C195.23 183.168 196.468 182.928 197.799 182.928C198.968 182.928 200.058 183.157 201.067 183.616C202.076 184.051 202.947 184.659 203.681 185.439C204.438 186.219 205.011 187.147 205.401 188.225C205.814 189.28 206.009 190.438 205.986 191.7L205.951 193.213H191.194L190.403 190.392H202.89L202.374 190.977V190.152C202.305 189.395 202.053 188.718 201.617 188.122C201.181 187.526 200.631 187.056 199.966 186.712C199.301 186.368 198.578 186.196 197.799 186.196C196.56 186.196 195.517 186.436 194.668 186.918C193.82 187.377 193.178 188.065 192.742 188.982C192.306 189.876 192.088 190.989 192.088 192.319C192.088 193.58 192.352 194.681 192.879 195.621C193.407 196.539 194.152 197.25 195.115 197.754C196.079 198.259 197.191 198.511 198.452 198.511C199.347 198.511 200.172 198.362 200.929 198.064C201.709 197.766 202.546 197.227 203.44 196.447L205.229 198.958C204.679 199.508 204.002 199.99 203.199 200.403C202.42 200.816 201.583 201.148 200.688 201.4C199.817 201.63 198.957 201.744 198.108 201.744ZM216.932 201.4V177.32H226.358C228.078 177.32 229.626 177.607 231.002 178.18C232.401 178.754 233.593 179.579 234.58 180.657C235.566 181.735 236.322 183.008 236.85 184.476C237.377 185.943 237.641 187.572 237.641 189.36C237.641 191.149 237.377 192.789 236.85 194.28C236.322 195.747 235.566 197.02 234.58 198.098C233.616 199.153 232.435 199.967 231.036 200.54C229.637 201.114 228.078 201.4 226.358 201.4H216.932ZM220.647 198.201L220.544 197.823H226.186C227.401 197.823 228.479 197.628 229.42 197.238C230.383 196.848 231.185 196.298 231.828 195.587C232.493 194.853 232.997 193.959 233.341 192.904C233.685 191.849 233.857 190.668 233.857 189.36C233.857 188.053 233.685 186.884 233.341 185.852C232.997 184.797 232.493 183.902 231.828 183.168C231.162 182.435 230.36 181.873 229.42 181.483C228.479 181.093 227.401 180.898 226.186 180.898H220.441L220.647 180.588V198.201ZM248.479 201.744C246.621 201.744 244.97 201.355 243.525 200.575C242.103 199.772 240.98 198.683 240.154 197.307C239.351 195.931 238.95 194.348 238.95 192.56C238.95 191.138 239.179 189.842 239.638 188.672C240.097 187.503 240.727 186.494 241.53 185.645C242.356 184.774 243.33 184.109 244.454 183.65C245.601 183.168 246.839 182.928 248.169 182.928C249.339 182.928 250.428 183.157 251.437 183.616C252.446 184.051 253.318 184.659 254.052 185.439C254.808 186.219 255.382 187.147 255.772 188.225C256.184 189.28 256.379 190.438 256.356 191.7L256.322 193.213H241.564L240.773 190.392H253.26L252.744 190.977V190.152C252.676 189.395 252.423 188.718 251.988 188.122C251.552 187.526 251.001 187.056 250.336 186.712C249.671 186.368 248.949 186.196 248.169 186.196C246.931 186.196 245.887 186.436 245.039 186.918C244.19 187.377 243.548 188.065 243.112 188.982C242.677 189.876 242.459 190.989 242.459 192.319C242.459 193.58 242.723 194.681 243.25 195.621C243.777 196.539 244.523 197.25 245.486 197.754C246.449 198.259 247.561 198.511 248.823 198.511C249.717 198.511 250.543 198.362 251.3 198.064C252.079 197.766 252.916 197.227 253.811 196.447L255.6 198.958C255.049 199.508 254.373 199.99 253.57 200.403C252.79 200.816 251.953 201.148 251.059 201.4C250.187 201.63 249.327 201.744 248.479 201.744ZM264.068 201.4L256.431 183.34H260.25L265.754 196.86L265.1 197.169L270.982 183.34H274.629L266.614 201.4H264.068ZM284.075 201.744C282.217 201.744 280.566 201.355 279.121 200.575C277.699 199.772 276.576 198.683 275.75 197.307C274.947 195.931 274.546 194.348 274.546 192.56C274.546 191.138 274.775 189.842 275.234 188.672C275.693 187.503 276.323 186.494 277.126 185.645C277.952 184.774 278.926 184.109 280.05 183.65C281.197 183.168 282.435 182.928 283.765 182.928C284.935 182.928 286.024 183.157 287.033 183.616C288.042 184.051 288.914 184.659 289.648 185.439C290.404 186.219 290.978 187.147 291.368 188.225C291.78 189.28 291.975 190.438 291.952 191.7L291.918 193.213H277.16L276.369 190.392H288.856L288.34 190.977V190.152C288.272 189.395 288.019 188.718 287.584 188.122C287.148 187.526 286.597 187.056 285.932 186.712C285.267 186.368 284.545 186.196 283.765 186.196C282.527 186.196 281.483 186.436 280.635 186.918C279.786 187.377 279.144 188.065 278.708 188.982C278.273 189.876 278.055 190.989 278.055 192.319C278.055 193.58 278.319 194.681 278.846 195.621C279.373 196.539 280.119 197.25 281.082 197.754C282.045 198.259 283.157 198.511 284.419 198.511C285.313 198.511 286.139 198.362 286.896 198.064C287.675 197.766 288.512 197.227 289.407 196.447L291.196 198.958C290.645 199.508 289.969 199.99 289.166 200.403C288.386 200.816 287.549 201.148 286.655 201.4C285.783 201.63 284.923 201.744 284.075 201.744ZM294.152 201.4V175.944H297.695V201.4H294.152ZM308.779 201.744C307.013 201.744 305.431 201.343 304.032 200.54C302.656 199.715 301.567 198.603 300.764 197.204C299.961 195.782 299.56 194.165 299.56 192.353C299.56 190.541 299.961 188.936 300.764 187.537C301.567 186.115 302.656 185.003 304.032 184.2C305.431 183.375 307.013 182.962 308.779 182.962C310.522 182.962 312.082 183.375 313.458 184.2C314.857 185.003 315.957 186.115 316.76 187.537C317.563 188.936 317.964 190.541 317.964 192.353C317.964 194.165 317.563 195.782 316.76 197.204C315.957 198.603 314.857 199.715 313.458 200.54C312.082 201.343 310.522 201.744 308.779 201.744ZM308.779 198.511C309.857 198.511 310.82 198.247 311.669 197.72C312.517 197.169 313.182 196.435 313.664 195.518C314.146 194.578 314.375 193.523 314.352 192.353C314.375 191.161 314.146 190.106 313.664 189.188C313.182 188.248 312.517 187.514 311.669 186.987C310.82 186.459 309.857 186.196 308.779 186.196C307.701 186.196 306.727 186.471 305.855 187.021C305.007 187.549 304.342 188.283 303.86 189.223C303.378 190.14 303.149 191.184 303.172 192.353C303.149 193.523 303.378 194.578 303.86 195.518C304.342 196.435 305.007 197.169 305.855 197.72C306.727 198.247 307.701 198.511 308.779 198.511ZM320.105 208.968V183.34H323.682V187.468L323.132 187.159C323.27 186.471 323.66 185.817 324.302 185.198C324.944 184.556 325.724 184.04 326.641 183.65C327.581 183.237 328.544 183.031 329.53 183.031C331.159 183.031 332.604 183.432 333.865 184.235C335.126 185.037 336.124 186.138 336.858 187.537C337.592 188.936 337.959 190.541 337.959 192.353C337.959 194.142 337.592 195.747 336.858 197.169C336.147 198.568 335.161 199.68 333.899 200.506C332.638 201.309 331.216 201.71 329.634 201.71C328.579 201.71 327.558 201.504 326.572 201.091C325.586 200.655 324.749 200.105 324.061 199.44C323.373 198.775 322.949 198.087 322.788 197.376L323.682 196.894V208.968H320.105ZM329.049 198.442C330.104 198.442 331.044 198.178 331.87 197.651C332.695 197.123 333.349 196.401 333.831 195.484C334.312 194.566 334.553 193.523 334.553 192.353C334.553 191.184 334.312 190.152 333.831 189.257C333.372 188.34 332.73 187.617 331.904 187.09C331.079 186.563 330.127 186.299 329.049 186.299C327.971 186.299 327.019 186.563 326.194 187.09C325.368 187.595 324.714 188.305 324.233 189.223C323.751 190.14 323.51 191.184 323.51 192.353C323.51 193.523 323.751 194.566 324.233 195.484C324.714 196.401 325.368 197.123 326.194 197.651C327.019 198.178 327.971 198.442 329.049 198.442ZM348.515 201.744C346.657 201.744 345.006 201.355 343.561 200.575C342.139 199.772 341.015 198.683 340.19 197.307C339.387 195.931 338.986 194.348 338.986 192.56C338.986 191.138 339.215 189.842 339.674 188.672C340.132 187.503 340.763 186.494 341.566 185.645C342.391 184.774 343.366 184.109 344.49 183.65C345.636 183.168 346.875 182.928 348.205 182.928C349.375 182.928 350.464 183.157 351.473 183.616C352.482 184.051 353.353 184.659 354.087 185.439C354.844 186.219 355.417 187.147 355.807 188.225C356.22 189.28 356.415 190.438 356.392 191.7L356.358 193.213H341.6L340.809 190.392H353.296L352.78 190.977V190.152C352.711 189.395 352.459 188.718 352.023 188.122C351.588 187.526 351.037 187.056 350.372 186.712C349.707 186.368 348.985 186.196 348.205 186.196C346.967 186.196 345.923 186.436 345.074 186.918C344.226 187.377 343.584 188.065 343.148 188.982C342.712 189.876 342.494 190.989 342.494 192.319C342.494 193.58 342.758 194.681 343.286 195.621C343.813 196.539 344.558 197.25 345.522 197.754C346.485 198.259 347.597 198.511 348.859 198.511C349.753 198.511 350.579 198.362 351.335 198.064C352.115 197.766 352.952 197.227 353.847 196.447L355.635 198.958C355.085 199.508 354.408 199.99 353.606 200.403C352.826 200.816 351.989 201.148 351.095 201.4C350.223 201.63 349.363 201.744 348.515 201.744ZM358.523 201.4V183.34H362.1V189.016L361.756 187.64C362.009 186.769 362.433 185.978 363.029 185.267C363.648 184.556 364.348 183.994 365.128 183.581C365.93 183.168 366.756 182.962 367.604 182.962C367.994 182.962 368.361 182.996 368.705 183.065C369.072 183.134 369.359 183.214 369.565 183.306L368.636 187.159C368.361 187.044 368.052 186.952 367.708 186.884C367.387 186.792 367.065 186.746 366.744 186.746C366.125 186.746 365.529 186.872 364.956 187.124C364.405 187.354 363.912 187.686 363.476 188.122C363.064 188.535 362.731 189.028 362.479 189.601C362.227 190.152 362.1 190.759 362.1 191.424V201.4H358.523ZM390.26 201.744C388.517 201.744 386.889 201.435 385.375 200.816C383.862 200.174 382.532 199.291 381.385 198.167C380.238 197.043 379.344 195.736 378.702 194.245C378.082 192.732 377.773 191.103 377.773 189.36C377.773 187.64 378.082 186.035 378.702 184.544C379.344 183.054 380.227 181.758 381.35 180.657C382.497 179.533 383.827 178.662 385.341 178.043C386.855 177.424 388.483 177.114 390.226 177.114C391.441 177.114 392.622 177.286 393.769 177.63C394.939 177.974 395.993 178.456 396.934 179.075C397.874 179.694 398.642 180.405 399.239 181.208L396.831 183.719C396.143 183.054 395.432 182.503 394.698 182.068C393.987 181.632 393.253 181.299 392.496 181.07C391.739 180.841 390.983 180.726 390.226 180.726C388.987 180.726 387.841 180.944 386.786 181.38C385.754 181.815 384.836 182.423 384.034 183.203C383.254 183.983 382.646 184.9 382.21 185.955C381.775 186.987 381.557 188.122 381.557 189.36C381.557 190.553 381.786 191.688 382.245 192.766C382.704 193.821 383.334 194.75 384.137 195.552C384.962 196.355 385.903 196.986 386.958 197.444C388.036 197.903 389.171 198.132 390.363 198.132C391.258 198.132 392.106 198.006 392.909 197.754C393.712 197.479 394.423 197.1 395.042 196.619C395.661 196.137 396.143 195.587 396.487 194.968C396.831 194.325 397.003 193.649 397.003 192.938V192.25L397.519 192.732H390.157V189.051H400.821C400.867 189.303 400.901 189.555 400.924 189.808C400.947 190.037 400.959 190.266 400.959 190.496C400.981 190.702 400.993 190.908 400.993 191.115C400.993 192.697 400.718 194.142 400.167 195.449C399.617 196.734 398.849 197.846 397.863 198.786C396.899 199.726 395.764 200.46 394.457 200.988C393.173 201.492 391.774 201.744 390.26 201.744ZM403.216 201.4V183.34H406.794V189.016L406.45 187.64C406.702 186.769 407.126 185.978 407.722 185.267C408.342 184.556 409.041 183.994 409.821 183.581C410.624 183.168 411.449 182.962 412.298 182.962C412.688 182.962 413.054 182.996 413.398 183.065C413.765 183.134 414.052 183.214 414.258 183.306L413.33 187.159C413.054 187.044 412.745 186.952 412.401 186.884C412.08 186.792 411.759 186.746 411.438 186.746C410.818 186.746 410.222 186.872 409.649 187.124C409.098 187.354 408.605 187.686 408.17 188.122C407.757 188.535 407.424 189.028 407.172 189.601C406.92 190.152 406.794 190.759 406.794 191.424V201.4H403.216ZM422.716 201.744C420.95 201.744 419.368 201.343 417.969 200.54C416.593 199.715 415.503 198.603 414.701 197.204C413.898 195.782 413.497 194.165 413.497 192.353C413.497 190.541 413.898 188.936 414.701 187.537C415.503 186.115 416.593 185.003 417.969 184.2C419.368 183.375 420.95 182.962 422.716 182.962C424.459 182.962 426.018 183.375 427.394 184.2C428.793 185.003 429.894 186.115 430.697 187.537C431.5 188.936 431.901 190.541 431.901 192.353C431.901 194.165 431.5 195.782 430.697 197.204C429.894 198.603 428.793 199.715 427.394 200.54C426.018 201.343 424.459 201.744 422.716 201.744ZM422.716 198.511C423.794 198.511 424.757 198.247 425.606 197.72C426.454 197.169 427.119 196.435 427.601 195.518C428.082 194.578 428.312 193.523 428.289 192.353C428.312 191.161 428.082 190.106 427.601 189.188C427.119 188.248 426.454 187.514 425.606 186.987C424.757 186.459 423.794 186.196 422.716 186.196C421.638 186.196 420.664 186.471 419.792 187.021C418.944 187.549 418.278 188.283 417.797 189.223C417.315 190.14 417.086 191.184 417.109 192.353C417.086 193.523 417.315 194.578 417.797 195.518C418.278 196.435 418.944 197.169 419.792 197.72C420.664 198.247 421.638 198.511 422.716 198.511ZM440.371 201.744C439.087 201.744 437.963 201.446 437 200.85C436.06 200.254 435.326 199.417 434.799 198.339C434.294 197.261 434.042 195.977 434.042 194.486V183.34H437.585V193.523C437.585 194.578 437.745 195.495 438.067 196.275C438.411 197.032 438.892 197.616 439.511 198.029C440.153 198.442 440.922 198.648 441.816 198.648C442.481 198.648 443.089 198.545 443.639 198.339C444.19 198.11 444.66 197.8 445.05 197.41C445.463 197.02 445.784 196.55 446.013 196C446.242 195.449 446.357 194.853 446.357 194.211V183.34H449.9V201.4H446.357V197.616L446.976 197.204C446.701 198.052 446.231 198.82 445.566 199.508C444.924 200.196 444.155 200.747 443.261 201.16C442.367 201.55 441.403 201.744 440.371 201.744ZM453.15 208.968V183.34H456.728V187.468L456.177 187.159C456.315 186.471 456.705 185.817 457.347 185.198C457.989 184.556 458.769 184.04 459.686 183.65C460.626 183.237 461.589 183.031 462.576 183.031C464.204 183.031 465.649 183.432 466.91 184.235C468.171 185.037 469.169 186.138 469.903 187.537C470.637 188.936 471.004 190.541 471.004 192.353C471.004 194.142 470.637 195.747 469.903 197.169C469.192 198.568 468.206 199.68 466.944 200.506C465.683 201.309 464.261 201.71 462.679 201.71C461.624 201.71 460.603 201.504 459.617 201.091C458.631 200.655 457.794 200.105 457.106 199.44C456.418 198.775 455.994 198.087 455.833 197.376L456.728 196.894V208.968H453.15ZM462.094 198.442C463.149 198.442 464.089 198.178 464.915 197.651C465.74 197.123 466.394 196.401 466.876 195.484C467.357 194.566 467.598 193.523 467.598 192.353C467.598 191.184 467.357 190.152 466.876 189.257C466.417 188.34 465.775 187.617 464.949 187.09C464.124 186.563 463.172 186.299 462.094 186.299C461.016 186.299 460.064 186.563 459.239 187.09C458.413 187.595 457.76 188.305 457.278 189.223C456.796 190.14 456.556 191.184 456.556 192.353C456.556 193.523 456.796 194.566 457.278 195.484C457.76 196.401 458.413 197.123 459.239 197.651C460.064 198.178 461.016 198.442 462.094 198.442ZM479.152 201.744C477.638 201.744 476.273 201.481 475.058 200.953C473.842 200.426 472.833 199.646 472.031 198.614L474.439 196.55C475.127 197.353 475.872 197.938 476.675 198.304C477.5 198.648 478.429 198.82 479.461 198.82C479.874 198.82 480.252 198.775 480.596 198.683C480.963 198.568 481.273 198.408 481.525 198.201C481.8 197.995 482.007 197.754 482.144 197.479C482.282 197.181 482.351 196.86 482.351 196.516C482.351 195.919 482.133 195.438 481.697 195.071C481.468 194.91 481.101 194.738 480.596 194.555C480.115 194.348 479.484 194.142 478.704 193.936C477.374 193.592 476.285 193.202 475.436 192.766C474.588 192.33 473.934 191.837 473.476 191.287C473.132 190.851 472.879 190.381 472.719 189.876C472.558 189.349 472.478 188.776 472.478 188.156C472.478 187.4 472.638 186.712 472.96 186.092C473.304 185.45 473.762 184.9 474.336 184.441C474.932 183.96 475.62 183.593 476.4 183.34C477.202 183.088 478.051 182.962 478.945 182.962C479.794 182.962 480.631 183.077 481.456 183.306C482.305 183.535 483.085 183.868 483.796 184.304C484.506 184.739 485.103 185.255 485.584 185.852L483.555 188.088C483.119 187.652 482.637 187.273 482.11 186.952C481.605 186.608 481.089 186.345 480.562 186.161C480.034 185.978 479.553 185.886 479.117 185.886C478.636 185.886 478.2 185.932 477.81 186.024C477.42 186.115 477.088 186.253 476.812 186.436C476.56 186.62 476.365 186.849 476.228 187.124C476.09 187.4 476.021 187.709 476.021 188.053C476.044 188.351 476.113 188.638 476.228 188.913C476.365 189.165 476.549 189.383 476.778 189.567C477.03 189.75 477.409 189.945 477.913 190.152C478.418 190.358 479.06 190.553 479.84 190.736C480.986 191.035 481.926 191.367 482.66 191.734C483.417 192.078 484.013 192.479 484.449 192.938C484.908 193.374 485.229 193.878 485.412 194.452C485.596 195.025 485.688 195.667 485.688 196.378C485.688 197.41 485.389 198.339 484.793 199.164C484.22 199.967 483.44 200.598 482.454 201.056C481.468 201.515 480.367 201.744 479.152 201.744Z" fill="#666666"/>
<path d="M119.94 226.56C119.151 226.56 118.42 226.416 117.748 226.128C117.087 225.84 116.505 225.44 116.004 224.928C115.513 224.406 115.129 223.798 114.852 223.104C114.585 222.4 114.452 221.632 114.452 220.8C114.452 219.968 114.585 219.206 114.852 218.512C115.129 217.808 115.513 217.2 116.004 216.688C116.505 216.166 117.087 215.76 117.748 215.472C118.42 215.184 119.151 215.04 119.94 215.04C120.729 215.04 121.455 215.184 122.116 215.472C122.788 215.76 123.369 216.166 123.86 216.688C124.361 217.211 124.745 217.824 125.012 218.528C125.289 219.222 125.428 219.979 125.428 220.8C125.428 221.622 125.289 222.384 125.012 223.088C124.745 223.782 124.361 224.39 123.86 224.912C123.369 225.435 122.788 225.84 122.116 226.128C121.455 226.416 120.729 226.56 119.94 226.56ZM119.94 224.88C120.484 224.88 120.98 224.779 121.428 224.576C121.887 224.374 122.281 224.091 122.612 223.728C122.943 223.355 123.199 222.923 123.38 222.432C123.572 221.931 123.668 221.387 123.668 220.8C123.668 220.214 123.572 219.675 123.38 219.184C123.199 218.683 122.943 218.251 122.612 217.888C122.281 217.515 121.887 217.227 121.428 217.024C120.98 216.822 120.484 216.72 119.94 216.72C119.396 216.72 118.895 216.822 118.436 217.024C117.988 217.227 117.593 217.51 117.252 217.872C116.921 218.235 116.665 218.667 116.484 219.168C116.303 219.659 116.212 220.203 116.212 220.8C116.212 221.387 116.303 221.931 116.484 222.432C116.665 222.934 116.921 223.366 117.252 223.728C117.593 224.091 117.988 224.374 118.436 224.576C118.895 224.779 119.396 224.88 119.94 224.88ZM126.552 226.4V218H128.2V219.728L127.912 219.92C128.018 219.547 128.226 219.206 128.536 218.896C128.845 218.576 129.213 218.32 129.64 218.128C130.066 217.926 130.504 217.824 130.952 217.824C131.592 217.824 132.125 217.952 132.552 218.208C132.978 218.454 133.298 218.832 133.512 219.344C133.725 219.856 133.832 220.502 133.832 221.28V226.4H132.184V221.392C132.184 220.912 132.12 220.518 131.992 220.208C131.864 219.888 131.666 219.659 131.4 219.52C131.133 219.371 130.802 219.307 130.408 219.328C130.088 219.328 129.794 219.382 129.528 219.488C129.261 219.584 129.026 219.723 128.824 219.904C128.632 220.086 128.477 220.299 128.36 220.544C128.253 220.779 128.2 221.035 128.2 221.312V226.4H127.384C127.245 226.4 127.106 226.4 126.968 226.4C126.829 226.4 126.69 226.4 126.552 226.4ZM143.912 226.56C143.133 226.56 142.418 226.422 141.768 226.144C141.117 225.867 140.552 225.472 140.072 224.96C139.592 224.438 139.218 223.824 138.952 223.12C138.696 222.416 138.568 221.643 138.568 220.8C138.568 220 138.706 219.259 138.984 218.576C139.272 217.883 139.666 217.275 140.168 216.752C140.669 216.23 141.25 215.824 141.912 215.536C142.573 215.248 143.288 215.104 144.056 215.104C144.6 215.104 145.128 215.19 145.64 215.36C146.162 215.52 146.632 215.75 147.048 216.048C147.474 216.336 147.821 216.667 148.088 217.04L146.936 218.24C146.626 217.931 146.312 217.675 145.992 217.472C145.682 217.259 145.362 217.099 145.032 216.992C144.712 216.886 144.386 216.832 144.056 216.832C143.533 216.832 143.042 216.934 142.584 217.136C142.136 217.328 141.741 217.6 141.4 217.952C141.069 218.304 140.808 218.726 140.616 219.216C140.424 219.696 140.328 220.224 140.328 220.8C140.328 221.408 140.418 221.963 140.6 222.464C140.792 222.955 141.058 223.376 141.4 223.728C141.741 224.08 142.146 224.352 142.616 224.544C143.096 224.726 143.624 224.816 144.2 224.816C144.552 224.816 144.898 224.768 145.24 224.672C145.581 224.576 145.901 224.438 146.2 224.256C146.498 224.075 146.77 223.862 147.016 223.616L147.88 225.024C147.634 225.312 147.298 225.574 146.872 225.808C146.456 226.043 145.986 226.23 145.464 226.368C144.952 226.496 144.434 226.56 143.912 226.56ZM152.243 226.56C151.55 226.56 150.915 226.368 150.339 225.984C149.774 225.6 149.32 225.078 148.979 224.416C148.638 223.755 148.467 223.008 148.467 222.176C148.467 221.334 148.638 220.587 148.979 219.936C149.331 219.275 149.8 218.758 150.387 218.384C150.984 218.011 151.651 217.824 152.387 217.824C152.824 217.824 153.224 217.888 153.587 218.016C153.95 218.144 154.264 218.326 154.531 218.56C154.808 218.784 155.032 219.046 155.203 219.344C155.384 219.643 155.496 219.963 155.539 220.304L155.171 220.176V218H156.835V226.4H155.171V224.4L155.555 224.288C155.491 224.576 155.358 224.859 155.155 225.136C154.963 225.403 154.712 225.643 154.403 225.856C154.104 226.07 153.768 226.24 153.395 226.368C153.032 226.496 152.648 226.56 152.243 226.56ZM152.675 225.04C153.176 225.04 153.619 224.918 154.003 224.672C154.387 224.427 154.686 224.091 154.899 223.664C155.123 223.227 155.235 222.731 155.235 222.176C155.235 221.632 155.123 221.147 154.899 220.72C154.686 220.294 154.387 219.958 154.003 219.712C153.619 219.467 153.176 219.344 152.675 219.344C152.184 219.344 151.747 219.467 151.363 219.712C150.99 219.958 150.691 220.294 150.467 220.72C150.254 221.147 150.147 221.632 150.147 222.176C150.147 222.731 150.254 223.227 150.467 223.664C150.691 224.091 150.99 224.427 151.363 224.672C151.747 224.918 152.184 225.04 152.675 225.04ZM158.304 226.4V218H159.968V219.792L159.664 219.984C159.749 219.707 159.883 219.44 160.064 219.184C160.256 218.928 160.485 218.704 160.752 218.512C161.029 218.31 161.323 218.15 161.632 218.032C161.952 217.915 162.277 217.856 162.608 217.856C163.088 217.856 163.509 217.936 163.872 218.096C164.235 218.256 164.533 218.496 164.768 218.816C165.003 219.136 165.173 219.536 165.28 220.016L165.024 219.952L165.136 219.68C165.253 219.435 165.413 219.206 165.616 218.992C165.829 218.768 166.069 218.571 166.336 218.4C166.603 218.23 166.885 218.096 167.184 218C167.483 217.904 167.776 217.856 168.064 217.856C168.693 217.856 169.211 217.984 169.616 218.24C170.032 218.496 170.341 218.886 170.544 219.408C170.757 219.931 170.864 220.582 170.864 221.36V226.4H169.2V221.456C169.2 220.976 169.136 220.587 169.008 220.288C168.891 219.979 168.709 219.75 168.464 219.6C168.219 219.451 167.904 219.376 167.52 219.376C167.221 219.376 166.939 219.43 166.672 219.536C166.416 219.632 166.192 219.771 166 219.952C165.808 220.134 165.659 220.347 165.552 220.592C165.445 220.827 165.392 221.088 165.392 221.376V226.4H163.728V221.424C163.728 220.987 163.664 220.619 163.536 220.32C163.408 220.011 163.221 219.776 162.976 219.616C162.731 219.456 162.432 219.376 162.08 219.376C161.781 219.376 161.504 219.43 161.248 219.536C160.992 219.632 160.768 219.771 160.576 219.952C160.384 220.123 160.235 220.331 160.128 220.576C160.021 220.811 159.968 221.067 159.968 221.344V226.4H158.304ZM172.27 229.92V218H173.934V219.92L173.678 219.776C173.742 219.456 173.924 219.152 174.222 218.864C174.521 218.566 174.884 218.326 175.31 218.144C175.748 217.952 176.196 217.856 176.654 217.856C177.412 217.856 178.084 218.043 178.67 218.416C179.257 218.79 179.721 219.302 180.062 219.952C180.404 220.603 180.574 221.35 180.574 222.192C180.574 223.024 180.404 223.771 180.062 224.432C179.732 225.083 179.273 225.6 178.686 225.984C178.1 226.358 177.438 226.544 176.702 226.544C176.212 226.544 175.737 226.448 175.278 226.256C174.82 226.054 174.43 225.798 174.11 225.488C173.79 225.179 173.593 224.859 173.518 224.528L173.934 224.304V229.92H172.27ZM176.43 225.024C176.921 225.024 177.358 224.902 177.742 224.656C178.126 224.411 178.43 224.075 178.654 223.648C178.878 223.222 178.99 222.736 178.99 222.192C178.99 221.648 178.878 221.168 178.654 220.752C178.441 220.326 178.142 219.99 177.758 219.744C177.374 219.499 176.932 219.376 176.43 219.376C175.929 219.376 175.486 219.499 175.102 219.744C174.718 219.979 174.414 220.31 174.19 220.736C173.966 221.163 173.854 221.648 173.854 222.192C173.854 222.736 173.966 223.222 174.19 223.648C174.414 224.075 174.718 224.411 175.102 224.656C175.486 224.902 175.929 225.024 176.43 225.024ZM184.508 226.56C183.911 226.56 183.388 226.422 182.94 226.144C182.503 225.867 182.162 225.478 181.916 224.976C181.682 224.475 181.564 223.878 181.564 223.184V218H183.212V222.736C183.212 223.227 183.287 223.654 183.436 224.016C183.596 224.368 183.82 224.64 184.108 224.832C184.407 225.024 184.764 225.12 185.18 225.12C185.49 225.12 185.772 225.072 186.028 224.976C186.284 224.87 186.503 224.726 186.684 224.544C186.876 224.363 187.026 224.144 187.132 223.888C187.239 223.632 187.292 223.355 187.292 223.056V218H188.94V226.4H187.292V224.64L187.58 224.448C187.452 224.843 187.234 225.2 186.924 225.52C186.626 225.84 186.268 226.096 185.852 226.288C185.436 226.47 184.988 226.56 184.508 226.56ZM193.252 226.56C192.548 226.56 191.913 226.438 191.348 226.192C190.782 225.947 190.313 225.584 189.94 225.104L191.06 224.144C191.38 224.518 191.726 224.79 192.1 224.96C192.484 225.12 192.916 225.2 193.396 225.2C193.588 225.2 193.764 225.179 193.924 225.136C194.094 225.083 194.238 225.008 194.356 224.912C194.484 224.816 194.58 224.704 194.644 224.576C194.708 224.438 194.74 224.288 194.74 224.128C194.74 223.851 194.638 223.627 194.436 223.456C194.329 223.382 194.158 223.302 193.924 223.216C193.7 223.12 193.406 223.024 193.044 222.928C192.425 222.768 191.918 222.587 191.524 222.384C191.129 222.182 190.825 221.952 190.612 221.696C190.452 221.494 190.334 221.275 190.26 221.04C190.185 220.795 190.148 220.528 190.148 220.24C190.148 219.888 190.222 219.568 190.372 219.28C190.532 218.982 190.745 218.726 191.012 218.512C191.289 218.288 191.609 218.118 191.972 218C192.345 217.883 192.74 217.824 193.156 217.824C193.55 217.824 193.94 217.878 194.324 217.984C194.718 218.091 195.081 218.246 195.412 218.448C195.742 218.651 196.02 218.891 196.244 219.168L195.3 220.208C195.097 220.006 194.873 219.83 194.628 219.68C194.393 219.52 194.153 219.398 193.908 219.312C193.662 219.227 193.438 219.184 193.236 219.184C193.012 219.184 192.809 219.206 192.628 219.248C192.446 219.291 192.292 219.355 192.164 219.44C192.046 219.526 191.956 219.632 191.892 219.76C191.828 219.888 191.796 220.032 191.796 220.192C191.806 220.331 191.838 220.464 191.892 220.592C191.956 220.71 192.041 220.811 192.148 220.896C192.265 220.982 192.441 221.072 192.676 221.168C192.91 221.264 193.209 221.355 193.572 221.44C194.105 221.579 194.542 221.734 194.884 221.904C195.236 222.064 195.513 222.251 195.716 222.464C195.929 222.667 196.078 222.902 196.164 223.168C196.249 223.435 196.292 223.734 196.292 224.064C196.292 224.544 196.153 224.976 195.876 225.36C195.609 225.734 195.246 226.027 194.788 226.24C194.329 226.454 193.817 226.56 193.252 226.56Z" fill="#609CFF"/>
<path d="M202.608 222.944C202.214 222.944 201.851 222.848 201.52 222.656C201.19 222.464 200.923 222.203 200.72 221.872C200.528 221.542 200.432 221.179 200.432 220.784C200.432 220.379 200.528 220.011 200.72 219.68C200.912 219.35 201.174 219.088 201.504 218.896C201.835 218.694 202.203 218.592 202.608 218.592C203.014 218.592 203.382 218.694 203.712 218.896C204.043 219.088 204.304 219.35 204.496 219.68C204.699 220.011 204.8 220.379 204.8 220.784C204.8 221.179 204.699 221.542 204.496 221.872C204.304 222.203 204.043 222.464 203.712 222.656C203.382 222.848 203.014 222.944 202.608 222.944ZM209.824 226.4V215.2H211.376L218.224 224.368L217.968 224.512C217.925 224.246 217.888 223.958 217.856 223.648C217.824 223.328 217.792 222.992 217.76 222.64C217.739 222.278 217.717 221.899 217.696 221.504C217.685 221.099 217.675 220.678 217.664 220.24C217.653 219.803 217.648 219.35 217.648 218.88V215.2H219.376V226.4H217.792L211.056 217.568L211.232 217.344C211.285 217.995 211.328 218.55 211.36 219.008C211.403 219.456 211.435 219.84 211.456 220.16C211.488 220.47 211.509 220.726 211.52 220.928C211.531 221.12 211.536 221.28 211.536 221.408C211.547 221.536 211.552 221.648 211.552 221.744V226.4H209.824ZM224.528 226.56C223.834 226.56 223.2 226.368 222.624 225.984C222.058 225.6 221.605 225.078 221.264 224.416C220.922 223.755 220.752 223.008 220.752 222.176C220.752 221.334 220.922 220.587 221.264 219.936C221.616 219.275 222.085 218.758 222.672 218.384C223.269 218.011 223.936 217.824 224.672 217.824C225.109 217.824 225.509 217.888 225.872 218.016C226.234 218.144 226.549 218.326 226.816 218.56C227.093 218.784 227.317 219.046 227.488 219.344C227.669 219.643 227.781 219.963 227.824 220.304L227.456 220.176V218H229.12V226.4H227.456V224.4L227.84 224.288C227.776 224.576 227.642 224.859 227.44 225.136C227.248 225.403 226.997 225.643 226.688 225.856C226.389 226.07 226.053 226.24 225.68 226.368C225.317 226.496 224.933 226.56 224.528 226.56ZM224.96 225.04C225.461 225.04 225.904 224.918 226.288 224.672C226.672 224.427 226.97 224.091 227.184 223.664C227.408 223.227 227.52 222.731 227.52 222.176C227.52 221.632 227.408 221.147 227.184 220.72C226.97 220.294 226.672 219.958 226.288 219.712C225.904 219.467 225.461 219.344 224.96 219.344C224.469 219.344 224.032 219.467 223.648 219.712C223.274 219.958 222.976 220.294 222.752 220.72C222.538 221.147 222.432 221.632 222.432 222.176C222.432 222.731 222.538 223.227 222.752 223.664C222.976 224.091 223.274 224.427 223.648 224.672C224.032 224.918 224.469 225.04 224.96 225.04ZM231.661 226.4V215.856H233.309V226.4H231.661ZM229.917 219.6V218H235.261V219.6H229.917ZM236.233 226.4V218H237.881V226.4H236.233ZM237.033 216.144C236.681 216.144 236.409 216.054 236.217 215.872C236.025 215.691 235.929 215.435 235.929 215.104C235.929 214.795 236.025 214.544 236.217 214.352C236.42 214.16 236.692 214.064 237.033 214.064C237.385 214.064 237.657 214.155 237.849 214.336C238.041 214.518 238.137 214.774 238.137 215.104C238.137 215.414 238.036 215.664 237.833 215.856C237.641 216.048 237.375 216.144 237.033 216.144ZM243.39 226.56C242.569 226.56 241.833 226.374 241.182 226C240.542 225.616 240.036 225.099 239.662 224.448C239.289 223.787 239.102 223.035 239.102 222.192C239.102 221.35 239.289 220.603 239.662 219.952C240.036 219.291 240.542 218.774 241.182 218.4C241.833 218.016 242.569 217.824 243.39 217.824C244.201 217.824 244.926 218.016 245.566 218.4C246.217 218.774 246.729 219.291 247.102 219.952C247.476 220.603 247.662 221.35 247.662 222.192C247.662 223.035 247.476 223.787 247.102 224.448C246.729 225.099 246.217 225.616 245.566 226C244.926 226.374 244.201 226.56 243.39 226.56ZM243.39 225.056C243.892 225.056 244.34 224.934 244.734 224.688C245.129 224.432 245.438 224.091 245.662 223.664C245.886 223.227 245.993 222.736 245.982 222.192C245.993 221.638 245.886 221.147 245.662 220.72C245.438 220.283 245.129 219.942 244.734 219.696C244.34 219.451 243.892 219.328 243.39 219.328C242.889 219.328 242.436 219.456 242.03 219.712C241.636 219.958 241.326 220.299 241.102 220.736C240.878 221.163 240.772 221.648 240.782 222.192C240.772 222.736 240.878 223.227 241.102 223.664C241.326 224.091 241.636 224.432 242.03 224.688C242.436 224.934 242.889 225.056 243.39 225.056ZM248.658 226.4V218H250.306V219.728L250.018 219.92C250.125 219.547 250.333 219.206 250.642 218.896C250.951 218.576 251.319 218.32 251.746 218.128C252.173 217.926 252.61 217.824 253.058 217.824C253.698 217.824 254.231 217.952 254.658 218.208C255.085 218.454 255.405 218.832 255.618 219.344C255.831 219.856 255.938 220.502 255.938 221.28V226.4H254.29V221.392C254.29 220.912 254.226 220.518 254.098 220.208C253.97 219.888 253.773 219.659 253.506 219.52C253.239 219.371 252.909 219.307 252.514 219.328C252.194 219.328 251.901 219.382 251.634 219.488C251.367 219.584 251.133 219.723 250.93 219.904C250.738 220.086 250.583 220.299 250.466 220.544C250.359 220.779 250.306 221.035 250.306 221.312V226.4H249.49C249.351 226.4 249.213 226.4 249.074 226.4C248.935 226.4 248.797 226.4 248.658 226.4ZM260.606 226.56C259.912 226.56 259.278 226.368 258.702 225.984C258.136 225.6 257.683 225.078 257.342 224.416C257 223.755 256.83 223.008 256.83 222.176C256.83 221.334 257 220.587 257.342 219.936C257.694 219.275 258.163 218.758 258.75 218.384C259.347 218.011 260.014 217.824 260.75 217.824C261.187 217.824 261.587 217.888 261.95 218.016C262.312 218.144 262.627 218.326 262.894 218.56C263.171 218.784 263.395 219.046 263.566 219.344C263.747 219.643 263.859 219.963 263.902 220.304L263.534 220.176V218H265.198V226.4H263.534V224.4L263.918 224.288C263.854 224.576 263.72 224.859 263.518 225.136C263.326 225.403 263.075 225.643 262.766 225.856C262.467 226.07 262.131 226.24 261.758 226.368C261.395 226.496 261.011 226.56 260.606 226.56ZM261.038 225.04C261.539 225.04 261.982 224.918 262.366 224.672C262.75 224.427 263.048 224.091 263.262 223.664C263.486 223.227 263.598 222.731 263.598 222.176C263.598 221.632 263.486 221.147 263.262 220.72C263.048 220.294 262.75 219.958 262.366 219.712C261.982 219.467 261.539 219.344 261.038 219.344C260.547 219.344 260.11 219.467 259.726 219.712C259.352 219.958 259.054 220.294 258.83 220.72C258.616 221.147 258.51 221.632 258.51 222.176C258.51 222.731 258.616 223.227 258.83 223.664C259.054 224.091 259.352 224.427 259.726 224.672C260.11 224.918 260.547 225.04 261.038 225.04ZM266.731 226.4V214.56H268.379V226.4H266.731ZM274.015 226.4V215.2H275.743V226.4H274.015ZM274.783 221.632V219.968H280.559V221.632H274.783ZM274.783 216.864V215.2H281.279V216.864H274.783ZM285.965 226.56C285.144 226.56 284.408 226.374 283.757 226C283.117 225.616 282.611 225.099 282.237 224.448C281.864 223.787 281.677 223.035 281.677 222.192C281.677 221.35 281.864 220.603 282.237 219.952C282.611 219.291 283.117 218.774 283.757 218.4C284.408 218.016 285.144 217.824 285.965 217.824C286.776 217.824 287.501 218.016 288.141 218.4C288.792 218.774 289.304 219.291 289.677 219.952C290.051 220.603 290.237 221.35 290.237 222.192C290.237 223.035 290.051 223.787 289.677 224.448C289.304 225.099 288.792 225.616 288.141 226C287.501 226.374 286.776 226.56 285.965 226.56ZM285.965 225.056C286.467 225.056 286.915 224.934 287.309 224.688C287.704 224.432 288.013 224.091 288.237 223.664C288.461 223.227 288.568 222.736 288.557 222.192C288.568 221.638 288.461 221.147 288.237 220.72C288.013 220.283 287.704 219.942 287.309 219.696C286.915 219.451 286.467 219.328 285.965 219.328C285.464 219.328 285.011 219.456 284.605 219.712C284.211 219.958 283.901 220.299 283.677 220.736C283.453 221.163 283.347 221.648 283.357 222.192C283.347 222.736 283.453 223.227 283.677 223.664C283.901 224.091 284.211 224.432 284.605 224.688C285.011 224.934 285.464 225.056 285.965 225.056ZM291.233 226.4V218H292.897V220.64L292.737 220C292.855 219.595 293.052 219.227 293.329 218.896C293.617 218.566 293.943 218.304 294.305 218.112C294.679 217.92 295.063 217.824 295.457 217.824C295.639 217.824 295.809 217.84 295.969 217.872C296.14 217.904 296.273 217.942 296.369 217.984L295.937 219.776C295.809 219.723 295.665 219.68 295.505 219.648C295.356 219.606 295.207 219.584 295.057 219.584C294.769 219.584 294.492 219.643 294.225 219.76C293.969 219.867 293.74 220.022 293.537 220.224C293.345 220.416 293.191 220.646 293.073 220.912C292.956 221.168 292.897 221.451 292.897 221.76V226.4H291.233ZM300.447 226.56C299.583 226.56 298.815 226.379 298.143 226.016C297.482 225.643 296.959 225.136 296.575 224.496C296.202 223.856 296.015 223.12 296.015 222.288C296.015 221.627 296.122 221.024 296.335 220.48C296.548 219.936 296.842 219.467 297.215 219.072C297.599 218.667 298.052 218.358 298.575 218.144C299.108 217.92 299.684 217.808 300.303 217.808C300.847 217.808 301.354 217.915 301.823 218.128C302.292 218.331 302.698 218.614 303.039 218.976C303.391 219.339 303.658 219.771 303.839 220.272C304.031 220.763 304.122 221.302 304.111 221.888L304.095 222.592H297.231L296.863 221.28H302.671L302.431 221.552V221.168C302.399 220.816 302.282 220.502 302.079 220.224C301.876 219.947 301.62 219.728 301.311 219.568C301.002 219.408 300.666 219.328 300.303 219.328C299.727 219.328 299.242 219.44 298.847 219.664C298.452 219.878 298.154 220.198 297.951 220.624C297.748 221.04 297.647 221.558 297.647 222.176C297.647 222.763 297.77 223.275 298.015 223.712C298.26 224.139 298.607 224.47 299.055 224.704C299.503 224.939 300.02 225.056 300.607 225.056C301.023 225.056 301.407 224.987 301.759 224.848C302.122 224.71 302.511 224.459 302.927 224.096L303.759 225.264C303.503 225.52 303.188 225.744 302.815 225.936C302.452 226.128 302.063 226.283 301.647 226.4C301.242 226.507 300.842 226.56 300.447 226.56ZM305.102 226.4V218H306.75V219.728L306.462 219.92C306.569 219.547 306.777 219.206 307.086 218.896C307.395 218.576 307.763 218.32 308.19 218.128C308.617 217.926 309.054 217.824 309.502 217.824C310.142 217.824 310.675 217.952 311.102 218.208C311.529 218.454 311.849 218.832 312.062 219.344C312.275 219.856 312.382 220.502 312.382 221.28V226.4H310.734V221.392C310.734 220.912 310.67 220.518 310.542 220.208C310.414 219.888 310.217 219.659 309.95 219.52C309.683 219.371 309.353 219.307 308.958 219.328C308.638 219.328 308.345 219.382 308.078 219.488C307.811 219.584 307.577 219.723 307.374 219.904C307.182 220.086 307.027 220.299 306.91 220.544C306.803 220.779 306.75 221.035 306.75 221.312V226.4H305.934C305.795 226.4 305.657 226.4 305.518 226.4C305.379 226.4 305.241 226.4 305.102 226.4ZM316.618 226.56C315.914 226.56 315.279 226.438 314.714 226.192C314.148 225.947 313.679 225.584 313.306 225.104L314.426 224.144C314.746 224.518 315.092 224.79 315.466 224.96C315.85 225.12 316.282 225.2 316.762 225.2C316.954 225.2 317.13 225.179 317.29 225.136C317.46 225.083 317.604 225.008 317.722 224.912C317.85 224.816 317.946 224.704 318.01 224.576C318.074 224.438 318.106 224.288 318.106 224.128C318.106 223.851 318.004 223.627 317.802 223.456C317.695 223.382 317.524 223.302 317.29 223.216C317.066 223.12 316.772 223.024 316.41 222.928C315.791 222.768 315.284 222.587 314.89 222.384C314.495 222.182 314.191 221.952 313.978 221.696C313.818 221.494 313.7 221.275 313.626 221.04C313.551 220.795 313.514 220.528 313.514 220.24C313.514 219.888 313.588 219.568 313.738 219.28C313.898 218.982 314.111 218.726 314.378 218.512C314.655 218.288 314.975 218.118 315.338 218C315.711 217.883 316.106 217.824 316.522 217.824C316.916 217.824 317.306 217.878 317.69 217.984C318.084 218.091 318.447 218.246 318.778 218.448C319.108 218.651 319.386 218.891 319.61 219.168L318.666 220.208C318.463 220.006 318.239 219.83 317.994 219.68C317.759 219.52 317.519 219.398 317.274 219.312C317.028 219.227 316.804 219.184 316.602 219.184C316.378 219.184 316.175 219.206 315.994 219.248C315.812 219.291 315.658 219.355 315.53 219.44C315.412 219.526 315.322 219.632 315.258 219.76C315.194 219.888 315.162 220.032 315.162 220.192C315.172 220.331 315.204 220.464 315.258 220.592C315.322 220.71 315.407 220.811 315.514 220.896C315.631 220.982 315.807 221.072 316.042 221.168C316.276 221.264 316.575 221.355 316.938 221.44C317.471 221.579 317.908 221.734 318.25 221.904C318.602 222.064 318.879 222.251 319.082 222.464C319.295 222.667 319.444 222.902 319.53 223.168C319.615 223.435 319.658 223.734 319.658 224.064C319.658 224.544 319.519 224.976 319.242 225.36C318.975 225.734 318.612 226.027 318.154 226.24C317.695 226.454 317.183 226.56 316.618 226.56ZM320.946 226.4V218H322.594V226.4H320.946ZM321.746 216.144C321.394 216.144 321.122 216.054 320.93 215.872C320.738 215.691 320.642 215.435 320.642 215.104C320.642 214.795 320.738 214.544 320.93 214.352C321.133 214.16 321.405 214.064 321.746 214.064C322.098 214.064 322.37 214.155 322.562 214.336C322.754 214.518 322.85 214.774 322.85 215.104C322.85 215.414 322.749 215.664 322.546 215.856C322.354 216.048 322.087 216.144 321.746 216.144ZM327.895 226.56C327.116 226.56 326.418 226.368 325.799 225.984C325.191 225.6 324.706 225.078 324.343 224.416C323.991 223.755 323.815 223.014 323.815 222.192C323.815 221.371 323.991 220.63 324.343 219.968C324.706 219.307 325.191 218.784 325.799 218.4C326.418 218.016 327.116 217.824 327.895 217.824C328.642 217.824 329.319 217.979 329.927 218.288C330.546 218.587 331.015 218.998 331.335 219.52L330.423 220.64C330.252 220.395 330.034 220.171 329.767 219.968C329.5 219.766 329.218 219.606 328.919 219.488C328.62 219.371 328.332 219.312 328.055 219.312C327.543 219.312 327.084 219.44 326.679 219.696C326.284 219.942 325.97 220.283 325.735 220.72C325.5 221.158 325.383 221.648 325.383 222.192C325.383 222.736 325.506 223.227 325.751 223.664C325.996 224.091 326.322 224.432 326.727 224.688C327.132 224.944 327.58 225.072 328.071 225.072C328.359 225.072 328.636 225.024 328.903 224.928C329.18 224.832 329.447 224.688 329.703 224.496C329.959 224.304 330.199 224.07 330.423 223.792L331.335 224.912C330.994 225.392 330.503 225.787 329.863 226.096C329.234 226.406 328.578 226.56 327.895 226.56ZM339.646 226.56C339.038 226.56 338.473 226.48 337.95 226.32C337.438 226.16 336.969 225.92 336.542 225.6C336.126 225.27 335.753 224.864 335.422 224.384L336.606 223.024C337.129 223.771 337.63 224.288 338.11 224.576C338.59 224.864 339.161 225.008 339.822 225.008C340.227 225.008 340.595 224.944 340.926 224.816C341.257 224.688 341.518 224.512 341.71 224.288C341.902 224.064 341.998 223.808 341.998 223.52C341.998 223.328 341.966 223.147 341.902 222.976C341.838 222.806 341.737 222.651 341.598 222.512C341.47 222.374 341.299 222.246 341.086 222.128C340.883 222.011 340.643 221.91 340.366 221.824C340.089 221.728 339.769 221.648 339.406 221.584C338.83 221.467 338.329 221.312 337.902 221.12C337.475 220.928 337.118 220.688 336.83 220.4C336.542 220.112 336.329 219.787 336.19 219.424C336.051 219.051 335.982 218.635 335.982 218.176C335.982 217.728 336.078 217.312 336.27 216.928C336.473 216.544 336.745 216.214 337.086 215.936C337.438 215.648 337.849 215.43 338.318 215.28C338.787 215.12 339.294 215.04 339.838 215.04C340.414 215.04 340.942 215.115 341.422 215.264C341.902 215.414 342.329 215.638 342.702 215.936C343.075 216.224 343.385 216.582 343.63 217.008L342.414 218.208C342.201 217.856 341.961 217.563 341.694 217.328C341.427 217.083 341.134 216.902 340.814 216.784C340.494 216.656 340.153 216.592 339.79 216.592C339.374 216.592 339.011 216.656 338.702 216.784C338.393 216.912 338.147 217.094 337.966 217.328C337.795 217.552 337.71 217.819 337.71 218.128C337.71 218.352 337.753 218.56 337.838 218.752C337.923 218.934 338.051 219.099 338.222 219.248C338.403 219.387 338.643 219.515 338.942 219.632C339.241 219.739 339.598 219.835 340.014 219.92C340.601 220.048 341.123 220.214 341.582 220.416C342.041 220.608 342.43 220.838 342.75 221.104C343.07 221.371 343.31 221.67 343.47 222C343.641 222.331 343.726 222.688 343.726 223.072C343.726 223.787 343.561 224.406 343.23 224.928C342.899 225.451 342.43 225.856 341.822 226.144C341.214 226.422 340.489 226.56 339.646 226.56ZM348.526 226.56C347.748 226.56 347.049 226.368 346.43 225.984C345.822 225.6 345.337 225.078 344.974 224.416C344.622 223.755 344.446 223.014 344.446 222.192C344.446 221.371 344.622 220.63 344.974 219.968C345.337 219.307 345.822 218.784 346.43 218.4C347.049 218.016 347.748 217.824 348.526 217.824C349.273 217.824 349.95 217.979 350.558 218.288C351.177 218.587 351.646 218.998 351.966 219.52L351.054 220.64C350.884 220.395 350.665 220.171 350.398 219.968C350.132 219.766 349.849 219.606 349.55 219.488C349.252 219.371 348.964 219.312 348.686 219.312C348.174 219.312 347.716 219.44 347.31 219.696C346.916 219.942 346.601 220.283 346.366 220.72C346.132 221.158 346.014 221.648 346.014 222.192C346.014 222.736 346.137 223.227 346.382 223.664C346.628 224.091 346.953 224.432 347.358 224.688C347.764 224.944 348.212 225.072 348.702 225.072C348.99 225.072 349.268 225.024 349.534 224.928C349.812 224.832 350.078 224.688 350.334 224.496C350.59 224.304 350.83 224.07 351.054 223.792L351.966 224.912C351.625 225.392 351.134 225.787 350.494 226.096C349.865 226.406 349.209 226.56 348.526 226.56ZM352.993 226.4V218H354.641V226.4H352.993ZM353.793 216.144C353.441 216.144 353.169 216.054 352.977 215.872C352.785 215.691 352.689 215.435 352.689 215.104C352.689 214.795 352.785 214.544 352.977 214.352C353.18 214.16 353.452 214.064 353.793 214.064C354.145 214.064 354.417 214.155 354.609 214.336C354.801 214.518 354.897 214.774 354.897 215.104C354.897 215.414 354.796 215.664 354.593 215.856C354.401 216.048 354.134 216.144 353.793 216.144ZM360.294 226.56C359.43 226.56 358.662 226.379 357.99 226.016C357.329 225.643 356.806 225.136 356.422 224.496C356.049 223.856 355.862 223.12 355.862 222.288C355.862 221.627 355.969 221.024 356.182 220.48C356.395 219.936 356.689 219.467 357.062 219.072C357.446 218.667 357.899 218.358 358.422 218.144C358.955 217.92 359.531 217.808 360.15 217.808C360.694 217.808 361.201 217.915 361.67 218.128C362.139 218.331 362.545 218.614 362.886 218.976C363.238 219.339 363.505 219.771 363.686 220.272C363.878 220.763 363.969 221.302 363.958 221.888L363.942 222.592H357.078L356.71 221.28H362.518L362.278 221.552V221.168C362.246 220.816 362.129 220.502 361.926 220.224C361.723 219.947 361.467 219.728 361.158 219.568C360.849 219.408 360.513 219.328 360.15 219.328C359.574 219.328 359.089 219.44 358.694 219.664C358.299 219.878 358.001 220.198 357.798 220.624C357.595 221.04 357.494 221.558 357.494 222.176C357.494 222.763 357.617 223.275 357.862 223.712C358.107 224.139 358.454 224.47 358.902 224.704C359.35 224.939 359.867 225.056 360.454 225.056C360.87 225.056 361.254 224.987 361.606 224.848C361.969 224.71 362.358 224.459 362.774 224.096L363.606 225.264C363.35 225.52 363.035 225.744 362.662 225.936C362.299 226.128 361.91 226.283 361.494 226.4C361.089 226.507 360.689 226.56 360.294 226.56ZM364.949 226.4V218H366.597V219.728L366.309 219.92C366.416 219.547 366.624 219.206 366.933 218.896C367.242 218.576 367.61 218.32 368.037 218.128C368.464 217.926 368.901 217.824 369.349 217.824C369.989 217.824 370.522 217.952 370.949 218.208C371.376 218.454 371.696 218.832 371.909 219.344C372.122 219.856 372.229 220.502 372.229 221.28V226.4H370.581V221.392C370.581 220.912 370.517 220.518 370.389 220.208C370.261 219.888 370.064 219.659 369.797 219.52C369.53 219.371 369.2 219.307 368.805 219.328C368.485 219.328 368.192 219.382 367.925 219.488C367.658 219.584 367.424 219.723 367.221 219.904C367.029 220.086 366.874 220.299 366.757 220.544C366.65 220.779 366.597 221.035 366.597 221.312V226.4H365.781C365.642 226.4 365.504 226.4 365.365 226.4C365.226 226.4 365.088 226.4 364.949 226.4ZM377.233 226.56C376.454 226.56 375.755 226.368 375.137 225.984C374.529 225.6 374.043 225.078 373.681 224.416C373.329 223.755 373.153 223.014 373.153 222.192C373.153 221.371 373.329 220.63 373.681 219.968C374.043 219.307 374.529 218.784 375.137 218.4C375.755 218.016 376.454 217.824 377.233 217.824C377.979 217.824 378.657 217.979 379.265 218.288C379.883 218.587 380.353 218.998 380.673 219.52L379.761 220.64C379.59 220.395 379.371 220.171 379.105 219.968C378.838 219.766 378.555 219.606 378.257 219.488C377.958 219.371 377.67 219.312 377.393 219.312C376.881 219.312 376.422 219.44 376.017 219.696C375.622 219.942 375.307 220.283 375.073 220.72C374.838 221.158 374.721 221.648 374.721 222.192C374.721 222.736 374.843 223.227 375.089 223.664C375.334 224.091 375.659 224.432 376.065 224.688C376.47 224.944 376.918 225.072 377.409 225.072C377.697 225.072 377.974 225.024 378.241 224.928C378.518 224.832 378.785 224.688 379.041 224.496C379.297 224.304 379.537 224.07 379.761 223.792L380.673 224.912C380.331 225.392 379.841 225.787 379.201 226.096C378.571 226.406 377.915 226.56 377.233 226.56ZM385.347 226.56C384.483 226.56 383.715 226.379 383.043 226.016C382.382 225.643 381.859 225.136 381.475 224.496C381.102 223.856 380.915 223.12 380.915 222.288C380.915 221.627 381.022 221.024 381.235 220.48C381.449 219.936 381.742 219.467 382.115 219.072C382.499 218.667 382.953 218.358 383.475 218.144C384.009 217.92 384.585 217.808 385.203 217.808C385.747 217.808 386.254 217.915 386.723 218.128C387.193 218.331 387.598 218.614 387.939 218.976C388.291 219.339 388.558 219.771 388.739 220.272C388.931 220.763 389.022 221.302 389.011 221.888L388.995 222.592H382.131L381.763 221.28H387.571L387.331 221.552V221.168C387.299 220.816 387.182 220.502 386.979 220.224C386.777 219.947 386.521 219.728 386.211 219.568C385.902 219.408 385.566 219.328 385.203 219.328C384.627 219.328 384.142 219.44 383.747 219.664C383.353 219.878 383.054 220.198 382.851 220.624C382.649 221.04 382.547 221.558 382.547 222.176C382.547 222.763 382.67 223.275 382.915 223.712C383.161 224.139 383.507 224.47 383.955 224.704C384.403 224.939 384.921 225.056 385.507 225.056C385.923 225.056 386.307 224.987 386.659 224.848C387.022 224.71 387.411 224.459 387.827 224.096L388.659 225.264C388.403 225.52 388.089 225.744 387.715 225.936C387.353 226.128 386.963 226.283 386.547 226.4C386.142 226.507 385.742 226.56 385.347 226.56ZM392.802 226.56C392.098 226.56 391.464 226.438 390.898 226.192C390.333 225.947 389.864 225.584 389.49 225.104L390.61 224.144C390.93 224.518 391.277 224.79 391.65 224.96C392.034 225.12 392.466 225.2 392.946 225.2C393.138 225.2 393.314 225.179 393.474 225.136C393.645 225.083 393.789 225.008 393.906 224.912C394.034 224.816 394.13 224.704 394.194 224.576C394.258 224.438 394.29 224.288 394.29 224.128C394.29 223.851 394.189 223.627 393.986 223.456C393.88 223.382 393.709 223.302 393.474 223.216C393.25 223.12 392.957 223.024 392.594 222.928C391.976 222.768 391.469 222.587 391.074 222.384C390.68 222.182 390.376 221.952 390.162 221.696C390.002 221.494 389.885 221.275 389.81 221.04C389.736 220.795 389.698 220.528 389.698 220.24C389.698 219.888 389.773 219.568 389.922 219.28C390.082 218.982 390.296 218.726 390.562 218.512C390.84 218.288 391.16 218.118 391.522 218C391.896 217.883 392.29 217.824 392.706 217.824C393.101 217.824 393.49 217.878 393.874 217.984C394.269 218.091 394.632 218.246 394.962 218.448C395.293 218.651 395.57 218.891 395.794 219.168L394.85 220.208C394.648 220.006 394.424 219.83 394.178 219.68C393.944 219.52 393.704 219.398 393.458 219.312C393.213 219.227 392.989 219.184 392.786 219.184C392.562 219.184 392.36 219.206 392.178 219.248C391.997 219.291 391.842 219.355 391.714 219.44C391.597 219.526 391.506 219.632 391.442 219.76C391.378 219.888 391.346 220.032 391.346 220.192C391.357 220.331 391.389 220.464 391.442 220.592C391.506 220.71 391.592 220.811 391.698 220.896C391.816 220.982 391.992 221.072 392.226 221.168C392.461 221.264 392.76 221.355 393.122 221.44C393.656 221.579 394.093 221.734 394.434 221.904C394.786 222.064 395.064 222.251 395.266 222.464C395.48 222.667 395.629 222.902 395.714 223.168C395.8 223.435 395.842 223.734 395.842 224.064C395.842 224.544 395.704 224.976 395.426 225.36C395.16 225.734 394.797 226.027 394.338 226.24C393.88 226.454 393.368 226.56 392.802 226.56ZM405.311 226.496C404.447 226.496 403.674 226.31 402.991 225.936C402.308 225.552 401.77 225.03 401.375 224.368C400.991 223.696 400.799 222.939 400.799 222.096V215.184H402.527V221.952C402.527 222.496 402.655 222.987 402.911 223.424C403.167 223.851 403.503 224.192 403.919 224.448C404.346 224.704 404.81 224.832 405.311 224.832C405.844 224.832 406.324 224.704 406.751 224.448C407.188 224.192 407.535 223.851 407.791 223.424C408.047 222.987 408.175 222.496 408.175 221.952V215.184H409.823V222.096C409.823 222.939 409.626 223.696 409.231 224.368C408.847 225.03 408.314 225.552 407.631 225.936C406.948 226.31 406.175 226.496 405.311 226.496ZM411.587 226.4V218H413.235V219.728L412.947 219.92C413.053 219.547 413.261 219.206 413.571 218.896C413.88 218.576 414.248 218.32 414.675 218.128C415.101 217.926 415.539 217.824 415.987 217.824C416.627 217.824 417.16 217.952 417.587 218.208C418.013 218.454 418.333 218.832 418.547 219.344C418.76 219.856 418.867 220.502 418.867 221.28V226.4H417.219V221.392C417.219 220.912 417.155 220.518 417.027 220.208C416.899 219.888 416.701 219.659 416.435 219.52C416.168 219.371 415.837 219.307 415.443 219.328C415.123 219.328 414.829 219.382 414.563 219.488C414.296 219.584 414.061 219.723 413.859 219.904C413.667 220.086 413.512 220.299 413.395 220.544C413.288 220.779 413.235 221.035 413.235 221.312V226.4H412.419C412.28 226.4 412.141 226.4 412.003 226.4C411.864 226.4 411.725 226.4 411.587 226.4ZM420.574 226.4V218H422.222V226.4H420.574ZM421.374 216.144C421.022 216.144 420.75 216.054 420.558 215.872C420.366 215.691 420.27 215.435 420.27 215.104C420.27 214.795 420.366 214.544 420.558 214.352C420.761 214.16 421.033 214.064 421.374 214.064C421.726 214.064 421.998 214.155 422.19 214.336C422.382 214.518 422.478 214.774 422.478 215.104C422.478 215.414 422.377 215.664 422.174 215.856C421.982 216.048 421.716 216.144 421.374 216.144ZM426.707 226.4L423.155 218H424.931L427.491 224.288L427.187 224.432L429.923 218H431.619L427.891 226.4H426.707ZM436.013 226.56C435.149 226.56 434.381 226.379 433.709 226.016C433.048 225.643 432.525 225.136 432.141 224.496C431.768 223.856 431.581 223.12 431.581 222.288C431.581 221.627 431.688 221.024 431.901 220.48C432.114 219.936 432.408 219.467 432.781 219.072C433.165 218.667 433.618 218.358 434.141 218.144C434.674 217.92 435.25 217.808 435.869 217.808C436.413 217.808 436.92 217.915 437.389 218.128C437.858 218.331 438.264 218.614 438.605 218.976C438.957 219.339 439.224 219.771 439.405 220.272C439.597 220.763 439.688 221.302 439.677 221.888L439.661 222.592H432.797L432.429 221.28H438.237L437.997 221.552V221.168C437.965 220.816 437.848 220.502 437.645 220.224C437.442 219.947 437.186 219.728 436.877 219.568C436.568 219.408 436.232 219.328 435.869 219.328C435.293 219.328 434.808 219.44 434.413 219.664C434.018 219.878 433.72 220.198 433.517 220.624C433.314 221.04 433.213 221.558 433.213 222.176C433.213 222.763 433.336 223.275 433.581 223.712C433.826 224.139 434.173 224.47 434.621 224.704C435.069 224.939 435.586 225.056 436.173 225.056C436.589 225.056 436.973 224.987 437.325 224.848C437.688 224.71 438.077 224.459 438.493 224.096L439.325 225.264C439.069 225.52 438.754 225.744 438.381 225.936C438.018 226.128 437.629 226.283 437.213 226.4C436.808 226.507 436.408 226.56 436.013 226.56ZM440.668 226.4V218H442.332V220.64L442.172 220C442.289 219.595 442.487 219.227 442.764 218.896C443.052 218.566 443.377 218.304 443.74 218.112C444.113 217.92 444.497 217.824 444.892 217.824C445.073 217.824 445.244 217.84 445.404 217.872C445.575 217.904 445.708 217.942 445.804 217.984L445.372 219.776C445.244 219.723 445.1 219.68 444.94 219.648C444.791 219.606 444.641 219.584 444.492 219.584C444.204 219.584 443.927 219.643 443.66 219.76C443.404 219.867 443.175 220.022 442.972 220.224C442.78 220.416 442.625 220.646 442.508 220.912C442.391 221.168 442.332 221.451 442.332 221.76V226.4H440.668ZM449.121 226.56C448.417 226.56 447.782 226.438 447.217 226.192C446.652 225.947 446.182 225.584 445.809 225.104L446.929 224.144C447.249 224.518 447.596 224.79 447.969 224.96C448.353 225.12 448.785 225.2 449.265 225.2C449.457 225.2 449.633 225.179 449.793 225.136C449.964 225.083 450.108 225.008 450.225 224.912C450.353 224.816 450.449 224.704 450.513 224.576C450.577 224.438 450.609 224.288 450.609 224.128C450.609 223.851 450.508 223.627 450.305 223.456C450.199 223.382 450.028 223.302 449.793 223.216C449.569 223.12 449.276 223.024 448.913 222.928C448.295 222.768 447.788 222.587 447.393 222.384C446.998 222.182 446.694 221.952 446.481 221.696C446.321 221.494 446.204 221.275 446.129 221.04C446.054 220.795 446.017 220.528 446.017 220.24C446.017 219.888 446.092 219.568 446.241 219.28C446.401 218.982 446.614 218.726 446.881 218.512C447.158 218.288 447.478 218.118 447.841 218C448.215 217.883 448.609 217.824 449.025 217.824C449.42 217.824 449.809 217.878 450.193 217.984C450.588 218.091 450.951 218.246 451.281 218.448C451.612 218.651 451.889 218.891 452.113 219.168L451.169 220.208C450.967 220.006 450.743 219.83 450.497 219.68C450.263 219.52 450.023 219.398 449.777 219.312C449.532 219.227 449.308 219.184 449.105 219.184C448.881 219.184 448.679 219.206 448.497 219.248C448.316 219.291 448.161 219.355 448.033 219.44C447.916 219.526 447.825 219.632 447.761 219.76C447.697 219.888 447.665 220.032 447.665 220.192C447.676 220.331 447.708 220.464 447.761 220.592C447.825 220.71 447.91 220.811 448.017 220.896C448.135 220.982 448.311 221.072 448.545 221.168C448.78 221.264 449.079 221.355 449.441 221.44C449.975 221.579 450.412 221.734 450.753 221.904C451.105 222.064 451.383 222.251 451.585 222.464C451.799 222.667 451.948 222.902 452.033 223.168C452.119 223.435 452.161 223.734 452.161 224.064C452.161 224.544 452.023 224.976 451.745 225.36C451.479 225.734 451.116 226.027 450.657 226.24C450.199 226.454 449.687 226.56 449.121 226.56ZM453.449 226.4V218H455.097V226.4H453.449ZM454.249 216.144C453.897 216.144 453.625 216.054 453.433 215.872C453.241 215.691 453.145 215.435 453.145 215.104C453.145 214.795 453.241 214.544 453.433 214.352C453.636 214.16 453.908 214.064 454.249 214.064C454.601 214.064 454.873 214.155 455.065 214.336C455.257 214.518 455.353 214.774 455.353 215.104C455.353 215.414 455.252 215.664 455.049 215.856C454.857 216.048 454.591 216.144 454.249 216.144ZM457.871 226.4V215.856H459.519V226.4H457.871ZM456.127 219.6V218H461.471V219.6H456.127ZM463.579 230.08L465.275 226.16L465.291 227.472L461.099 218H463.019L465.643 224.176C465.697 224.283 465.761 224.448 465.835 224.672C465.91 224.886 465.974 225.099 466.027 225.312L465.611 225.408C465.697 225.184 465.777 224.96 465.851 224.736C465.937 224.512 466.017 224.288 466.091 224.064L468.283 218H470.235L466.779 226.4L465.355 230.08H463.579Z" fill="#666666"/>
</svg>
