<svg width="584" height="311" viewBox="0 0 584 311" fill="none" xmlns="http://www.w3.org/2000/svg">
<rect x="-0.448398" y="1.63675" width="60.5213" height="19.1176" rx="9.5588" transform="matrix(-0.868809 0.495148 0.495144 0.868811 277.517 81.4367)" fill="#EF5350" stroke="#EF5350" stroke-width="2.40001"/>
<rect x="-0.448398" y="1.63675" width="60.5213" height="19.1176" rx="9.5588" transform="matrix(-0.868809 0.495148 0.495144 0.868811 347.862 101.987)" fill="#FBBC04" stroke="#FBBC04" stroke-width="2.40001"/>
<rect x="0.448398" y="1.63675" width="60.5213" height="19.1176" rx="9.5588" transform="matrix(0.868809 0.495148 -0.495144 0.868811 236.022 101.543)" fill="#4285F4" stroke="#4285F4" stroke-width="2.40001"/>
<path d="M353.795 120.909C351.181 125.495 345.344 127.094 340.757 124.48L304.785 103.979C300.199 101.365 298.6 95.5282 301.213 90.9416C303.827 86.355 309.665 84.7558 314.251 87.3698L350.223 107.871C354.81 110.485 356.409 116.322 353.795 120.909Z" fill="#4CAF50" stroke="#4CAF50" stroke-width="2.40001"/>
<path d="M110.638 201.744C108.895 201.744 107.267 201.435 105.754 200.816C104.24 200.174 102.91 199.291 101.763 198.167C100.617 197.043 99.7221 195.736 99.08 194.245C98.4608 192.732 98.1512 191.103 98.1512 189.36C98.1512 187.64 98.4608 186.035 99.08 184.544C99.7221 183.054 100.605 181.758 101.729 180.657C102.875 179.533 104.206 178.662 105.719 178.043C107.233 177.424 108.861 177.114 110.604 177.114C111.82 177.114 113.001 177.286 114.147 177.63C115.317 177.974 116.372 178.456 117.312 179.075C118.252 179.694 119.021 180.405 119.617 181.208L117.209 183.719C116.521 183.054 115.81 182.503 115.076 182.068C114.365 181.632 113.631 181.299 112.874 181.07C112.118 180.841 111.361 180.726 110.604 180.726C109.366 180.726 108.219 180.944 107.164 181.38C106.132 181.815 105.215 182.423 104.412 183.203C103.632 183.983 103.025 184.9 102.589 185.955C102.153 186.987 101.935 188.122 101.935 189.36C101.935 190.553 102.165 191.688 102.623 192.766C103.082 193.821 103.713 194.75 104.515 195.552C105.341 196.355 106.281 196.986 107.336 197.444C108.414 197.903 109.549 198.132 110.742 198.132C111.636 198.132 112.485 198.006 113.287 197.754C114.09 197.479 114.801 197.1 115.42 196.619C116.039 196.137 116.521 195.587 116.865 194.968C117.209 194.325 117.381 193.649 117.381 192.938V192.25L117.897 192.732H110.535V189.051H121.199C121.245 189.303 121.28 189.555 121.302 189.808C121.325 190.037 121.337 190.266 121.337 190.496C121.36 190.702 121.371 190.908 121.371 191.115C121.371 192.697 121.096 194.142 120.546 195.449C119.995 196.734 119.227 197.846 118.241 198.786C117.278 199.726 116.142 200.46 114.835 200.988C113.551 201.492 112.152 201.744 110.638 201.744ZM131.713 201.744C129.947 201.744 128.365 201.343 126.966 200.54C125.59 199.715 124.5 198.603 123.698 197.204C122.895 195.782 122.494 194.165 122.494 192.353C122.494 190.541 122.895 188.936 123.698 187.537C124.5 186.115 125.59 185.003 126.966 184.2C128.365 183.375 129.947 182.962 131.713 182.962C133.456 182.962 135.015 183.375 136.391 184.2C137.79 185.003 138.891 186.115 139.694 187.537C140.496 188.936 140.898 190.541 140.898 192.353C140.898 194.165 140.496 195.782 139.694 197.204C138.891 198.603 137.79 199.715 136.391 200.54C135.015 201.343 133.456 201.744 131.713 201.744ZM131.713 198.511C132.791 198.511 133.754 198.247 134.602 197.72C135.451 197.169 136.116 196.435 136.598 195.518C137.079 194.578 137.309 193.523 137.286 192.353C137.309 191.161 137.079 190.106 136.598 189.188C136.116 188.248 135.451 187.514 134.602 186.987C133.754 186.459 132.791 186.196 131.713 186.196C130.635 186.196 129.66 186.471 128.789 187.021C127.94 187.549 127.275 188.283 126.794 189.223C126.312 190.14 126.083 191.184 126.106 192.353C126.083 193.523 126.312 194.578 126.794 195.518C127.275 196.435 127.94 197.169 128.789 197.72C129.66 198.247 130.635 198.511 131.713 198.511ZM151.157 201.744C149.391 201.744 147.809 201.343 146.41 200.54C145.034 199.715 143.944 198.603 143.142 197.204C142.339 195.782 141.938 194.165 141.938 192.353C141.938 190.541 142.339 188.936 143.142 187.537C143.944 186.115 145.034 185.003 146.41 184.2C147.809 183.375 149.391 182.962 151.157 182.962C152.9 182.962 154.459 183.375 155.835 184.2C157.234 185.003 158.335 186.115 159.138 187.537C159.94 188.936 160.342 190.541 160.342 192.353C160.342 194.165 159.94 195.782 159.138 197.204C158.335 198.603 157.234 199.715 155.835 200.54C154.459 201.343 152.9 201.744 151.157 201.744ZM151.157 198.511C152.235 198.511 153.198 198.247 154.047 197.72C154.895 197.169 155.56 196.435 156.042 195.518C156.523 194.578 156.753 193.523 156.73 192.353C156.753 191.161 156.523 190.106 156.042 189.188C155.56 188.248 154.895 187.514 154.047 186.987C153.198 186.459 152.235 186.196 151.157 186.196C150.079 186.196 149.104 186.471 148.233 187.021C147.384 187.549 146.719 188.283 146.238 189.223C145.756 190.14 145.527 191.184 145.55 192.353C145.527 193.523 145.756 194.578 146.238 195.518C146.719 196.435 147.384 197.169 148.233 197.72C149.104 198.247 150.079 198.511 151.157 198.511ZM170.567 209.312C169.282 209.312 167.998 209.106 166.714 208.693C165.452 208.303 164.432 207.787 163.652 207.145L164.959 204.393C165.418 204.737 165.957 205.035 166.576 205.288C167.195 205.563 167.849 205.769 168.537 205.907C169.225 206.067 169.902 206.148 170.567 206.148C171.828 206.148 172.883 205.941 173.731 205.528C174.58 205.116 175.222 204.508 175.658 203.705C176.094 202.903 176.311 201.905 176.311 200.712V197.238L176.69 197.479C176.575 198.19 176.197 198.878 175.555 199.543C174.935 200.185 174.156 200.712 173.215 201.125C172.275 201.538 171.312 201.744 170.326 201.744C168.606 201.744 167.069 201.343 165.716 200.54C164.386 199.715 163.331 198.603 162.551 197.204C161.772 195.782 161.382 194.165 161.382 192.353C161.382 190.541 161.76 188.936 162.517 187.537C163.297 186.115 164.352 185.003 165.682 184.2C167.035 183.375 168.548 182.962 170.223 182.962C170.911 182.962 171.576 183.054 172.218 183.237C172.86 183.398 173.456 183.639 174.007 183.96C174.557 184.258 175.05 184.59 175.486 184.957C175.922 185.324 176.277 185.714 176.552 186.127C176.827 186.54 176.999 186.929 177.068 187.296L176.311 187.572V183.34H179.855V200.3C179.855 201.744 179.637 203.017 179.201 204.118C178.788 205.242 178.181 206.182 177.378 206.939C176.575 207.719 175.6 208.303 174.454 208.693C173.307 209.106 172.011 209.312 170.567 209.312ZM170.704 198.476C171.828 198.476 172.826 198.213 173.697 197.685C174.568 197.158 175.245 196.435 175.727 195.518C176.208 194.601 176.449 193.546 176.449 192.353C176.449 191.161 176.197 190.106 175.692 189.188C175.211 188.248 174.534 187.514 173.663 186.987C172.814 186.459 171.828 186.196 170.704 186.196C169.603 186.196 168.617 186.471 167.746 187.021C166.897 187.549 166.221 188.283 165.716 189.223C165.235 190.14 164.994 191.184 164.994 192.353C164.994 193.523 165.235 194.578 165.716 195.518C166.221 196.435 166.897 197.158 167.746 197.685C168.617 198.213 169.603 198.476 170.704 198.476ZM183.171 201.4V175.944H186.715V201.4H183.171ZM198.108 201.744C196.251 201.744 194.599 201.355 193.155 200.575C191.733 199.772 190.609 198.683 189.783 197.307C188.981 195.931 188.579 194.348 188.579 192.56C188.579 191.138 188.809 189.842 189.267 188.672C189.726 187.503 190.357 186.494 191.159 185.645C191.985 184.774 192.96 184.109 194.083 183.65C195.23 183.168 196.468 182.928 197.799 182.928C198.968 182.928 200.058 183.157 201.067 183.616C202.076 184.051 202.947 184.659 203.681 185.439C204.438 186.219 205.011 187.147 205.401 188.225C205.814 189.28 206.009 190.438 205.986 191.7L205.951 193.213H191.194L190.403 190.392H202.89L202.374 190.977V190.152C202.305 189.395 202.053 188.718 201.617 188.122C201.181 187.526 200.631 187.056 199.966 186.712C199.301 186.368 198.578 186.196 197.799 186.196C196.56 186.196 195.517 186.436 194.668 186.918C193.82 187.377 193.178 188.065 192.742 188.982C192.306 189.876 192.088 190.989 192.088 192.319C192.088 193.58 192.352 194.681 192.879 195.621C193.407 196.539 194.152 197.25 195.115 197.754C196.079 198.259 197.191 198.511 198.452 198.511C199.347 198.511 200.172 198.362 200.929 198.064C201.709 197.766 202.546 197.227 203.44 196.447L205.229 198.958C204.679 199.508 204.002 199.99 203.199 200.403C202.42 200.816 201.583 201.148 200.688 201.4C199.817 201.63 198.957 201.744 198.108 201.744ZM216.932 201.4V177.32H226.358C228.078 177.32 229.626 177.607 231.002 178.18C232.401 178.754 233.593 179.579 234.58 180.657C235.566 181.735 236.322 183.008 236.85 184.476C237.377 185.943 237.641 187.572 237.641 189.36C237.641 191.149 237.377 192.789 236.85 194.28C236.322 195.747 235.566 197.02 234.58 198.098C233.616 199.153 232.435 199.967 231.036 200.54C229.637 201.114 228.078 201.4 226.358 201.4H216.932ZM220.647 198.201L220.544 197.823H226.186C227.401 197.823 228.479 197.628 229.42 197.238C230.383 196.848 231.185 196.298 231.828 195.587C232.493 194.853 232.997 193.959 233.341 192.904C233.685 191.849 233.857 190.668 233.857 189.36C233.857 188.053 233.685 186.884 233.341 185.852C232.997 184.797 232.493 183.902 231.828 183.168C231.162 182.435 230.36 181.873 229.42 181.483C228.479 181.093 227.401 180.898 226.186 180.898H220.441L220.647 180.588V198.201ZM248.479 201.744C246.621 201.744 244.97 201.355 243.525 200.575C242.103 199.772 240.98 198.683 240.154 197.307C239.351 195.931 238.95 194.348 238.95 192.56C238.95 191.138 239.179 189.842 239.638 188.672C240.097 187.503 240.727 186.494 241.53 185.645C242.356 184.774 243.33 184.109 244.454 183.65C245.601 183.168 246.839 182.928 248.169 182.928C249.339 182.928 250.428 183.157 251.437 183.616C252.446 184.051 253.318 184.659 254.052 185.439C254.808 186.219 255.382 187.147 255.772 188.225C256.184 189.28 256.379 190.438 256.356 191.7L256.322 193.213H241.564L240.773 190.392H253.26L252.744 190.977V190.152C252.676 189.395 252.423 188.718 251.988 188.122C251.552 187.526 251.001 187.056 250.336 186.712C249.671 186.368 248.949 186.196 248.169 186.196C246.931 186.196 245.887 186.436 245.039 186.918C244.19 187.377 243.548 188.065 243.112 188.982C242.677 189.876 242.459 190.989 242.459 192.319C242.459 193.58 242.723 194.681 243.25 195.621C243.777 196.539 244.523 197.25 245.486 197.754C246.449 198.259 247.561 198.511 248.823 198.511C249.717 198.511 250.543 198.362 251.3 198.064C252.079 197.766 252.916 197.227 253.811 196.447L255.6 198.958C255.049 199.508 254.373 199.99 253.57 200.403C252.79 200.816 251.953 201.148 251.059 201.4C250.187 201.63 249.327 201.744 248.479 201.744ZM264.068 201.4L256.431 183.34H260.25L265.754 196.86L265.1 197.169L270.982 183.34H274.629L266.614 201.4H264.068ZM284.075 201.744C282.217 201.744 280.566 201.355 279.121 200.575C277.699 199.772 276.576 198.683 275.75 197.307C274.947 195.931 274.546 194.348 274.546 192.56C274.546 191.138 274.775 189.842 275.234 188.672C275.693 187.503 276.323 186.494 277.126 185.645C277.952 184.774 278.926 184.109 280.05 183.65C281.197 183.168 282.435 182.928 283.765 182.928C284.935 182.928 286.024 183.157 287.033 183.616C288.042 184.051 288.914 184.659 289.648 185.439C290.404 186.219 290.978 187.147 291.368 188.225C291.78 189.28 291.975 190.438 291.952 191.7L291.918 193.213H277.16L276.369 190.392H288.856L288.34 190.977V190.152C288.272 189.395 288.019 188.718 287.584 188.122C287.148 187.526 286.597 187.056 285.932 186.712C285.267 186.368 284.545 186.196 283.765 186.196C282.527 186.196 281.483 186.436 280.635 186.918C279.786 187.377 279.144 188.065 278.708 188.982C278.273 189.876 278.055 190.989 278.055 192.319C278.055 193.58 278.319 194.681 278.846 195.621C279.373 196.539 280.119 197.25 281.082 197.754C282.045 198.259 283.157 198.511 284.419 198.511C285.313 198.511 286.139 198.362 286.896 198.064C287.675 197.766 288.512 197.227 289.407 196.447L291.196 198.958C290.645 199.508 289.969 199.99 289.166 200.403C288.386 200.816 287.549 201.148 286.655 201.4C285.783 201.63 284.923 201.744 284.075 201.744ZM294.152 201.4V175.944H297.695V201.4H294.152ZM308.779 201.744C307.013 201.744 305.431 201.343 304.032 200.54C302.656 199.715 301.567 198.603 300.764 197.204C299.961 195.782 299.56 194.165 299.56 192.353C299.56 190.541 299.961 188.936 300.764 187.537C301.567 186.115 302.656 185.003 304.032 184.2C305.431 183.375 307.013 182.962 308.779 182.962C310.522 182.962 312.082 183.375 313.458 184.2C314.857 185.003 315.957 186.115 316.76 187.537C317.563 188.936 317.964 190.541 317.964 192.353C317.964 194.165 317.563 195.782 316.76 197.204C315.957 198.603 314.857 199.715 313.458 200.54C312.082 201.343 310.522 201.744 308.779 201.744ZM308.779 198.511C309.857 198.511 310.82 198.247 311.669 197.72C312.517 197.169 313.182 196.435 313.664 195.518C314.146 194.578 314.375 193.523 314.352 192.353C314.375 191.161 314.146 190.106 313.664 189.188C313.182 188.248 312.517 187.514 311.669 186.987C310.82 186.459 309.857 186.196 308.779 186.196C307.701 186.196 306.727 186.471 305.855 187.021C305.007 187.549 304.342 188.283 303.86 189.223C303.378 190.14 303.149 191.184 303.172 192.353C303.149 193.523 303.378 194.578 303.86 195.518C304.342 196.435 305.007 197.169 305.855 197.72C306.727 198.247 307.701 198.511 308.779 198.511ZM320.105 208.968V183.34H323.682V187.468L323.132 187.159C323.27 186.471 323.66 185.817 324.302 185.198C324.944 184.556 325.724 184.04 326.641 183.65C327.581 183.237 328.544 183.031 329.53 183.031C331.159 183.031 332.604 183.432 333.865 184.235C335.126 185.037 336.124 186.138 336.858 187.537C337.592 188.936 337.959 190.541 337.959 192.353C337.959 194.142 337.592 195.747 336.858 197.169C336.147 198.568 335.161 199.68 333.899 200.506C332.638 201.309 331.216 201.71 329.634 201.71C328.579 201.71 327.558 201.504 326.572 201.091C325.586 200.655 324.749 200.105 324.061 199.44C323.373 198.775 322.949 198.087 322.788 197.376L323.682 196.894V208.968H320.105ZM329.049 198.442C330.104 198.442 331.044 198.178 331.87 197.651C332.695 197.123 333.349 196.401 333.831 195.484C334.312 194.566 334.553 193.523 334.553 192.353C334.553 191.184 334.312 190.152 333.831 189.257C333.372 188.34 332.73 187.617 331.904 187.09C331.079 186.563 330.127 186.299 329.049 186.299C327.971 186.299 327.019 186.563 326.194 187.09C325.368 187.595 324.714 188.305 324.233 189.223C323.751 190.14 323.51 191.184 323.51 192.353C323.51 193.523 323.751 194.566 324.233 195.484C324.714 196.401 325.368 197.123 326.194 197.651C327.019 198.178 327.971 198.442 329.049 198.442ZM348.515 201.744C346.657 201.744 345.006 201.355 343.561 200.575C342.139 199.772 341.015 198.683 340.19 197.307C339.387 195.931 338.986 194.348 338.986 192.56C338.986 191.138 339.215 189.842 339.674 188.672C340.132 187.503 340.763 186.494 341.566 185.645C342.391 184.774 343.366 184.109 344.49 183.65C345.636 183.168 346.875 182.928 348.205 182.928C349.375 182.928 350.464 183.157 351.473 183.616C352.482 184.051 353.353 184.659 354.087 185.439C354.844 186.219 355.417 187.147 355.807 188.225C356.22 189.28 356.415 190.438 356.392 191.7L356.358 193.213H341.6L340.809 190.392H353.296L352.78 190.977V190.152C352.711 189.395 352.459 188.718 352.023 188.122C351.588 187.526 351.037 187.056 350.372 186.712C349.707 186.368 348.985 186.196 348.205 186.196C346.967 186.196 345.923 186.436 345.074 186.918C344.226 187.377 343.584 188.065 343.148 188.982C342.712 189.876 342.494 190.989 342.494 192.319C342.494 193.58 342.758 194.681 343.286 195.621C343.813 196.539 344.558 197.25 345.522 197.754C346.485 198.259 347.597 198.511 348.859 198.511C349.753 198.511 350.579 198.362 351.335 198.064C352.115 197.766 352.952 197.227 353.847 196.447L355.635 198.958C355.085 199.508 354.408 199.99 353.606 200.403C352.826 200.816 351.989 201.148 351.095 201.4C350.223 201.63 349.363 201.744 348.515 201.744ZM358.523 201.4V183.34H362.1V189.016L361.756 187.64C362.009 186.769 362.433 185.978 363.029 185.267C363.648 184.556 364.348 183.994 365.128 183.581C365.93 183.168 366.756 182.962 367.604 182.962C367.994 182.962 368.361 182.996 368.705 183.065C369.072 183.134 369.359 183.214 369.565 183.306L368.636 187.159C368.361 187.044 368.052 186.952 367.708 186.884C367.387 186.792 367.065 186.746 366.744 186.746C366.125 186.746 365.529 186.872 364.956 187.124C364.405 187.354 363.912 187.686 363.476 188.122C363.064 188.535 362.731 189.028 362.479 189.601C362.227 190.152 362.1 190.759 362.1 191.424V201.4H358.523ZM390.26 201.744C388.517 201.744 386.889 201.435 385.375 200.816C383.862 200.174 382.532 199.291 381.385 198.167C380.238 197.043 379.344 195.736 378.702 194.245C378.082 192.732 377.773 191.103 377.773 189.36C377.773 187.64 378.082 186.035 378.702 184.544C379.344 183.054 380.227 181.758 381.35 180.657C382.497 179.533 383.827 178.662 385.341 178.043C386.855 177.424 388.483 177.114 390.226 177.114C391.441 177.114 392.622 177.286 393.769 177.63C394.939 177.974 395.993 178.456 396.934 179.075C397.874 179.694 398.642 180.405 399.239 181.208L396.831 183.719C396.143 183.054 395.432 182.503 394.698 182.068C393.987 181.632 393.253 181.299 392.496 181.07C391.739 180.841 390.983 180.726 390.226 180.726C388.987 180.726 387.841 180.944 386.786 181.38C385.754 181.815 384.836 182.423 384.034 183.203C383.254 183.983 382.646 184.9 382.21 185.955C381.775 186.987 381.557 188.122 381.557 189.36C381.557 190.553 381.786 191.688 382.245 192.766C382.704 193.821 383.334 194.75 384.137 195.552C384.962 196.355 385.903 196.986 386.958 197.444C388.036 197.903 389.171 198.132 390.363 198.132C391.258 198.132 392.106 198.006 392.909 197.754C393.712 197.479 394.423 197.1 395.042 196.619C395.661 196.137 396.143 195.587 396.487 194.968C396.831 194.325 397.003 193.649 397.003 192.938V192.25L397.519 192.732H390.157V189.051H400.821C400.867 189.303 400.901 189.555 400.924 189.808C400.947 190.037 400.959 190.266 400.959 190.496C400.981 190.702 400.993 190.908 400.993 191.115C400.993 192.697 400.718 194.142 400.167 195.449C399.617 196.734 398.849 197.846 397.863 198.786C396.899 199.726 395.764 200.46 394.457 200.988C393.173 201.492 391.774 201.744 390.26 201.744ZM403.216 201.4V183.34H406.794V189.016L406.45 187.64C406.702 186.769 407.126 185.978 407.722 185.267C408.342 184.556 409.041 183.994 409.821 183.581C410.624 183.168 411.449 182.962 412.298 182.962C412.688 182.962 413.054 182.996 413.398 183.065C413.765 183.134 414.052 183.214 414.258 183.306L413.33 187.159C413.054 187.044 412.745 186.952 412.401 186.884C412.08 186.792 411.759 186.746 411.438 186.746C410.818 186.746 410.222 186.872 409.649 187.124C409.098 187.354 408.605 187.686 408.17 188.122C407.757 188.535 407.424 189.028 407.172 189.601C406.92 190.152 406.794 190.759 406.794 191.424V201.4H403.216ZM422.716 201.744C420.95 201.744 419.368 201.343 417.969 200.54C416.593 199.715 415.503 198.603 414.701 197.204C413.898 195.782 413.497 194.165 413.497 192.353C413.497 190.541 413.898 188.936 414.701 187.537C415.503 186.115 416.593 185.003 417.969 184.2C419.368 183.375 420.95 182.962 422.716 182.962C424.459 182.962 426.018 183.375 427.394 184.2C428.793 185.003 429.894 186.115 430.697 187.537C431.5 188.936 431.901 190.541 431.901 192.353C431.901 194.165 431.5 195.782 430.697 197.204C429.894 198.603 428.793 199.715 427.394 200.54C426.018 201.343 424.459 201.744 422.716 201.744ZM422.716 198.511C423.794 198.511 424.757 198.247 425.606 197.72C426.454 197.169 427.119 196.435 427.601 195.518C428.082 194.578 428.312 193.523 428.289 192.353C428.312 191.161 428.082 190.106 427.601 189.188C427.119 188.248 426.454 187.514 425.606 186.987C424.757 186.459 423.794 186.196 422.716 186.196C421.638 186.196 420.664 186.471 419.792 187.021C418.944 187.549 418.278 188.283 417.797 189.223C417.315 190.14 417.086 191.184 417.109 192.353C417.086 193.523 417.315 194.578 417.797 195.518C418.278 196.435 418.944 197.169 419.792 197.72C420.664 198.247 421.638 198.511 422.716 198.511ZM440.371 201.744C439.087 201.744 437.963 201.446 437 200.85C436.06 200.254 435.326 199.417 434.799 198.339C434.294 197.261 434.042 195.977 434.042 194.486V183.34H437.585V193.523C437.585 194.578 437.745 195.495 438.067 196.275C438.411 197.032 438.892 197.616 439.511 198.029C440.153 198.442 440.922 198.648 441.816 198.648C442.481 198.648 443.089 198.545 443.639 198.339C444.19 198.11 444.66 197.8 445.05 197.41C445.463 197.02 445.784 196.55 446.013 196C446.242 195.449 446.357 194.853 446.357 194.211V183.34H449.9V201.4H446.357V197.616L446.976 197.204C446.701 198.052 446.231 198.82 445.566 199.508C444.924 200.196 444.155 200.747 443.261 201.16C442.367 201.55 441.403 201.744 440.371 201.744ZM453.15 208.968V183.34H456.728V187.468L456.177 187.159C456.315 186.471 456.705 185.817 457.347 185.198C457.989 184.556 458.769 184.04 459.686 183.65C460.626 183.237 461.589 183.031 462.576 183.031C464.204 183.031 465.649 183.432 466.91 184.235C468.171 185.037 469.169 186.138 469.903 187.537C470.637 188.936 471.004 190.541 471.004 192.353C471.004 194.142 470.637 195.747 469.903 197.169C469.192 198.568 468.206 199.68 466.944 200.506C465.683 201.309 464.261 201.71 462.679 201.71C461.624 201.71 460.603 201.504 459.617 201.091C458.631 200.655 457.794 200.105 457.106 199.44C456.418 198.775 455.994 198.087 455.833 197.376L456.728 196.894V208.968H453.15ZM462.094 198.442C463.149 198.442 464.089 198.178 464.915 197.651C465.74 197.123 466.394 196.401 466.876 195.484C467.357 194.566 467.598 193.523 467.598 192.353C467.598 191.184 467.357 190.152 466.876 189.257C466.417 188.34 465.775 187.617 464.949 187.09C464.124 186.563 463.172 186.299 462.094 186.299C461.016 186.299 460.064 186.563 459.239 187.09C458.413 187.595 457.76 188.305 457.278 189.223C456.796 190.14 456.556 191.184 456.556 192.353C456.556 193.523 456.796 194.566 457.278 195.484C457.76 196.401 458.413 197.123 459.239 197.651C460.064 198.178 461.016 198.442 462.094 198.442ZM479.152 201.744C477.638 201.744 476.273 201.481 475.058 200.953C473.842 200.426 472.833 199.646 472.031 198.614L474.439 196.55C475.127 197.353 475.872 197.938 476.675 198.304C477.5 198.648 478.429 198.82 479.461 198.82C479.874 198.82 480.252 198.775 480.596 198.683C480.963 198.568 481.273 198.408 481.525 198.201C481.8 197.995 482.007 197.754 482.144 197.479C482.282 197.181 482.351 196.86 482.351 196.516C482.351 195.919 482.133 195.438 481.697 195.071C481.468 194.91 481.101 194.738 480.596 194.555C480.115 194.348 479.484 194.142 478.704 193.936C477.374 193.592 476.285 193.202 475.436 192.766C474.588 192.33 473.934 191.837 473.476 191.287C473.132 190.851 472.879 190.381 472.719 189.876C472.558 189.349 472.478 188.776 472.478 188.156C472.478 187.4 472.638 186.712 472.96 186.092C473.304 185.45 473.762 184.9 474.336 184.441C474.932 183.96 475.62 183.593 476.4 183.34C477.202 183.088 478.051 182.962 478.945 182.962C479.794 182.962 480.631 183.077 481.456 183.306C482.305 183.535 483.085 183.868 483.796 184.304C484.506 184.739 485.103 185.255 485.584 185.852L483.555 188.088C483.119 187.652 482.637 187.273 482.11 186.952C481.605 186.608 481.089 186.345 480.562 186.161C480.034 185.978 479.553 185.886 479.117 185.886C478.636 185.886 478.2 185.932 477.81 186.024C477.42 186.115 477.088 186.253 476.812 186.436C476.56 186.62 476.365 186.849 476.228 187.124C476.09 187.4 476.021 187.709 476.021 188.053C476.044 188.351 476.113 188.638 476.228 188.913C476.365 189.165 476.549 189.383 476.778 189.567C477.03 189.75 477.409 189.945 477.913 190.152C478.418 190.358 479.06 190.553 479.84 190.736C480.986 191.035 481.926 191.367 482.66 191.734C483.417 192.078 484.013 192.479 484.449 192.938C484.908 193.374 485.229 193.878 485.412 194.452C485.596 195.025 485.688 195.667 485.688 196.378C485.688 197.41 485.389 198.339 484.793 199.164C484.22 199.967 483.44 200.598 482.454 201.056C481.468 201.515 480.367 201.744 479.152 201.744Z" fill="#666666"/>
<path d="M125.232 226.56C124.443 226.56 123.712 226.416 123.04 226.128C122.379 225.84 121.797 225.44 121.296 224.928C120.805 224.406 120.421 223.798 120.144 223.104C119.877 222.4 119.744 221.632 119.744 220.8C119.744 219.968 119.877 219.206 120.144 218.512C120.421 217.808 120.805 217.2 121.296 216.688C121.797 216.166 122.379 215.76 123.04 215.472C123.712 215.184 124.443 215.04 125.232 215.04C126.021 215.04 126.747 215.184 127.408 215.472C128.08 215.76 128.661 216.166 129.152 216.688C129.653 217.211 130.037 217.824 130.304 218.528C130.581 219.222 130.72 219.979 130.72 220.8C130.72 221.622 130.581 222.384 130.304 223.088C130.037 223.782 129.653 224.39 129.152 224.912C128.661 225.435 128.08 225.84 127.408 226.128C126.747 226.416 126.021 226.56 125.232 226.56ZM125.232 224.88C125.776 224.88 126.272 224.779 126.72 224.576C127.179 224.374 127.573 224.091 127.904 223.728C128.235 223.355 128.491 222.923 128.672 222.432C128.864 221.931 128.96 221.387 128.96 220.8C128.96 220.214 128.864 219.675 128.672 219.184C128.491 218.683 128.235 218.251 127.904 217.888C127.573 217.515 127.179 217.227 126.72 217.024C126.272 216.822 125.776 216.72 125.232 216.72C124.688 216.72 124.187 216.822 123.728 217.024C123.28 217.227 122.885 217.51 122.544 217.872C122.213 218.235 121.957 218.667 121.776 219.168C121.595 219.659 121.504 220.203 121.504 220.8C121.504 221.387 121.595 221.931 121.776 222.432C121.957 222.934 122.213 223.366 122.544 223.728C122.885 224.091 123.28 224.374 123.728 224.576C124.187 224.779 124.688 224.88 125.232 224.88ZM131.844 226.4V218H133.492V219.728L133.204 219.92C133.31 219.547 133.518 219.206 133.828 218.896C134.137 218.576 134.505 218.32 134.932 218.128C135.358 217.926 135.796 217.824 136.244 217.824C136.884 217.824 137.417 217.952 137.844 218.208C138.27 218.454 138.59 218.832 138.804 219.344C139.017 219.856 139.124 220.502 139.124 221.28V226.4H137.476V221.392C137.476 220.912 137.412 220.518 137.284 220.208C137.156 219.888 136.958 219.659 136.692 219.52C136.425 219.371 136.094 219.307 135.7 219.328C135.38 219.328 135.086 219.382 134.82 219.488C134.553 219.584 134.318 219.723 134.116 219.904C133.924 220.086 133.769 220.299 133.652 220.544C133.545 220.779 133.492 221.035 133.492 221.312V226.4H132.676C132.537 226.4 132.398 226.4 132.26 226.4C132.121 226.4 131.982 226.4 131.844 226.4ZM149.204 226.56C148.425 226.56 147.71 226.422 147.06 226.144C146.409 225.867 145.844 225.472 145.364 224.96C144.884 224.438 144.51 223.824 144.244 223.12C143.988 222.416 143.86 221.643 143.86 220.8C143.86 220 143.998 219.259 144.276 218.576C144.564 217.883 144.958 217.275 145.46 216.752C145.961 216.23 146.542 215.824 147.204 215.536C147.865 215.248 148.58 215.104 149.348 215.104C149.892 215.104 150.42 215.19 150.932 215.36C151.454 215.52 151.924 215.75 152.34 216.048C152.766 216.336 153.113 216.667 153.38 217.04L152.228 218.24C151.918 217.931 151.604 217.675 151.284 217.472C150.974 217.259 150.654 217.099 150.324 216.992C150.004 216.886 149.678 216.832 149.348 216.832C148.825 216.832 148.334 216.934 147.876 217.136C147.428 217.328 147.033 217.6 146.692 217.952C146.361 218.304 146.1 218.726 145.908 219.216C145.716 219.696 145.62 220.224 145.62 220.8C145.62 221.408 145.71 221.963 145.892 222.464C146.084 222.955 146.35 223.376 146.692 223.728C147.033 224.08 147.438 224.352 147.908 224.544C148.388 224.726 148.916 224.816 149.492 224.816C149.844 224.816 150.19 224.768 150.532 224.672C150.873 224.576 151.193 224.438 151.492 224.256C151.79 224.075 152.062 223.862 152.308 223.616L153.172 225.024C152.926 225.312 152.59 225.574 152.164 225.808C151.748 226.043 151.278 226.23 150.756 226.368C150.244 226.496 149.726 226.56 149.204 226.56ZM157.535 226.56C156.842 226.56 156.207 226.368 155.631 225.984C155.066 225.6 154.613 225.078 154.271 224.416C153.93 223.755 153.759 223.008 153.759 222.176C153.759 221.334 153.93 220.587 154.271 219.936C154.623 219.275 155.093 218.758 155.679 218.384C156.277 218.011 156.943 217.824 157.679 217.824C158.117 217.824 158.517 217.888 158.879 218.016C159.242 218.144 159.557 218.326 159.823 218.56C160.101 218.784 160.325 219.046 160.495 219.344C160.677 219.643 160.789 219.963 160.831 220.304L160.463 220.176V218H162.127V226.4H160.463V224.4L160.847 224.288C160.783 224.576 160.65 224.859 160.447 225.136C160.255 225.403 160.005 225.643 159.695 225.856C159.397 226.07 159.061 226.24 158.687 226.368C158.325 226.496 157.941 226.56 157.535 226.56ZM157.967 225.04C158.469 225.04 158.911 224.918 159.295 224.672C159.679 224.427 159.978 224.091 160.191 223.664C160.415 223.227 160.527 222.731 160.527 222.176C160.527 221.632 160.415 221.147 160.191 220.72C159.978 220.294 159.679 219.958 159.295 219.712C158.911 219.467 158.469 219.344 157.967 219.344C157.477 219.344 157.039 219.467 156.655 219.712C156.282 219.958 155.983 220.294 155.759 220.72C155.546 221.147 155.439 221.632 155.439 222.176C155.439 222.731 155.546 223.227 155.759 223.664C155.983 224.091 156.282 224.427 156.655 224.672C157.039 224.918 157.477 225.04 157.967 225.04ZM163.596 226.4V218H165.26V219.792L164.956 219.984C165.042 219.707 165.175 219.44 165.356 219.184C165.548 218.928 165.778 218.704 166.044 218.512C166.322 218.31 166.615 218.15 166.924 218.032C167.244 217.915 167.57 217.856 167.9 217.856C168.38 217.856 168.802 217.936 169.164 218.096C169.527 218.256 169.826 218.496 170.06 218.816C170.295 219.136 170.466 219.536 170.572 220.016L170.316 219.952L170.428 219.68C170.546 219.435 170.706 219.206 170.908 218.992C171.122 218.768 171.362 218.571 171.628 218.4C171.895 218.23 172.178 218.096 172.476 218C172.775 217.904 173.068 217.856 173.356 217.856C173.986 217.856 174.503 217.984 174.908 218.24C175.324 218.496 175.634 218.886 175.836 219.408C176.05 219.931 176.156 220.582 176.156 221.36V226.4H174.492V221.456C174.492 220.976 174.428 220.587 174.3 220.288C174.183 219.979 174.002 219.75 173.756 219.6C173.511 219.451 173.196 219.376 172.812 219.376C172.514 219.376 172.231 219.43 171.964 219.536C171.708 219.632 171.484 219.771 171.292 219.952C171.1 220.134 170.951 220.347 170.844 220.592C170.738 220.827 170.684 221.088 170.684 221.376V226.4H169.02V221.424C169.02 220.987 168.956 220.619 168.828 220.32C168.7 220.011 168.514 219.776 168.268 219.616C168.023 219.456 167.724 219.376 167.372 219.376C167.074 219.376 166.796 219.43 166.54 219.536C166.284 219.632 166.06 219.771 165.868 219.952C165.676 220.123 165.527 220.331 165.42 220.576C165.314 220.811 165.26 221.067 165.26 221.344V226.4H163.596ZM177.563 229.92V218H179.227V219.92L178.971 219.776C179.035 219.456 179.216 219.152 179.515 218.864C179.813 218.566 180.176 218.326 180.603 218.144C181.04 217.952 181.488 217.856 181.947 217.856C182.704 217.856 183.376 218.043 183.963 218.416C184.549 218.79 185.013 219.302 185.355 219.952C185.696 220.603 185.867 221.35 185.867 222.192C185.867 223.024 185.696 223.771 185.355 224.432C185.024 225.083 184.565 225.6 183.979 225.984C183.392 226.358 182.731 226.544 181.995 226.544C181.504 226.544 181.029 226.448 180.571 226.256C180.112 226.054 179.723 225.798 179.403 225.488C179.083 225.179 178.885 224.859 178.811 224.528L179.227 224.304V229.92H177.563ZM181.723 225.024C182.213 225.024 182.651 224.902 183.035 224.656C183.419 224.411 183.723 224.075 183.947 223.648C184.171 223.222 184.283 222.736 184.283 222.192C184.283 221.648 184.171 221.168 183.947 220.752C183.733 220.326 183.435 219.99 183.051 219.744C182.667 219.499 182.224 219.376 181.723 219.376C181.221 219.376 180.779 219.499 180.395 219.744C180.011 219.979 179.707 220.31 179.483 220.736C179.259 221.163 179.147 221.648 179.147 222.192C179.147 222.736 179.259 223.222 179.483 223.648C179.707 224.075 180.011 224.411 180.395 224.656C180.779 224.902 181.221 225.024 181.723 225.024ZM189.8 226.56C189.203 226.56 188.68 226.422 188.232 226.144C187.795 225.867 187.454 225.478 187.208 224.976C186.974 224.475 186.856 223.878 186.856 223.184V218H188.504V222.736C188.504 223.227 188.579 223.654 188.728 224.016C188.888 224.368 189.112 224.64 189.4 224.832C189.699 225.024 190.056 225.12 190.472 225.12C190.782 225.12 191.064 225.072 191.32 224.976C191.576 224.87 191.795 224.726 191.976 224.544C192.168 224.363 192.318 224.144 192.424 223.888C192.531 223.632 192.584 223.355 192.584 223.056V218H194.232V226.4H192.584V224.64L192.872 224.448C192.744 224.843 192.526 225.2 192.216 225.52C191.918 225.84 191.56 226.096 191.144 226.288C190.728 226.47 190.28 226.56 189.8 226.56ZM198.544 226.56C197.84 226.56 197.205 226.438 196.64 226.192C196.075 225.947 195.605 225.584 195.232 225.104L196.352 224.144C196.672 224.518 197.019 224.79 197.392 224.96C197.776 225.12 198.208 225.2 198.688 225.2C198.88 225.2 199.056 225.179 199.216 225.136C199.387 225.083 199.531 225.008 199.648 224.912C199.776 224.816 199.872 224.704 199.936 224.576C200 224.438 200.032 224.288 200.032 224.128C200.032 223.851 199.931 223.627 199.728 223.456C199.621 223.382 199.451 223.302 199.216 223.216C198.992 223.12 198.699 223.024 198.336 222.928C197.717 222.768 197.211 222.587 196.816 222.384C196.421 222.182 196.117 221.952 195.904 221.696C195.744 221.494 195.627 221.275 195.552 221.04C195.477 220.795 195.44 220.528 195.44 220.24C195.44 219.888 195.515 219.568 195.664 219.28C195.824 218.982 196.037 218.726 196.304 218.512C196.581 218.288 196.901 218.118 197.264 218C197.637 217.883 198.032 217.824 198.448 217.824C198.843 217.824 199.232 217.878 199.616 217.984C200.011 218.091 200.373 218.246 200.704 218.448C201.035 218.651 201.312 218.891 201.536 219.168L200.592 220.208C200.389 220.006 200.165 219.83 199.92 219.68C199.685 219.52 199.445 219.398 199.2 219.312C198.955 219.227 198.731 219.184 198.528 219.184C198.304 219.184 198.101 219.206 197.92 219.248C197.739 219.291 197.584 219.355 197.456 219.44C197.339 219.526 197.248 219.632 197.184 219.76C197.12 219.888 197.088 220.032 197.088 220.192C197.099 220.331 197.131 220.464 197.184 220.592C197.248 220.71 197.333 220.811 197.44 220.896C197.557 220.982 197.733 221.072 197.968 221.168C198.203 221.264 198.501 221.355 198.864 221.44C199.397 221.579 199.835 221.734 200.176 221.904C200.528 222.064 200.805 222.251 201.008 222.464C201.221 222.667 201.371 222.902 201.456 223.168C201.541 223.435 201.584 223.734 201.584 224.064C201.584 224.544 201.445 224.976 201.168 225.36C200.901 225.734 200.539 226.027 200.08 226.24C199.621 226.454 199.109 226.56 198.544 226.56Z" fill="#609CFF"/>
<path d="M207.901 222.944C207.506 222.944 207.143 222.848 206.813 222.656C206.482 222.464 206.215 222.203 206.013 221.872C205.821 221.542 205.725 221.179 205.725 220.784C205.725 220.379 205.821 220.011 206.013 219.68C206.205 219.35 206.466 219.088 206.797 218.896C207.127 218.694 207.495 218.592 207.901 218.592C208.306 218.592 208.674 218.694 209.005 218.896C209.335 219.088 209.597 219.35 209.789 219.68C209.991 220.011 210.093 220.379 210.093 220.784C210.093 221.179 209.991 221.542 209.789 221.872C209.597 222.203 209.335 222.464 209.005 222.656C208.674 222.848 208.306 222.944 207.901 222.944ZM220.124 226.56C219.314 226.56 218.556 226.416 217.852 226.128C217.148 225.83 216.53 225.419 215.996 224.896C215.463 224.374 215.047 223.766 214.748 223.072C214.46 222.368 214.316 221.611 214.316 220.8C214.316 220 214.46 219.254 214.748 218.56C215.047 217.867 215.458 217.264 215.98 216.752C216.514 216.23 217.132 215.824 217.836 215.536C218.54 215.248 219.298 215.104 220.108 215.104C220.674 215.104 221.223 215.184 221.756 215.344C222.3 215.504 222.791 215.728 223.228 216.016C223.666 216.304 224.023 216.635 224.3 217.008L223.18 218.176C222.86 217.867 222.53 217.611 222.188 217.408C221.858 217.206 221.516 217.051 221.164 216.944C220.812 216.838 220.46 216.784 220.108 216.784C219.532 216.784 218.999 216.886 218.508 217.088C218.028 217.291 217.602 217.574 217.228 217.936C216.866 218.299 216.583 218.726 216.38 219.216C216.178 219.696 216.076 220.224 216.076 220.8C216.076 221.355 216.183 221.883 216.396 222.384C216.61 222.875 216.903 223.307 217.276 223.68C217.66 224.054 218.098 224.347 218.588 224.56C219.09 224.774 219.618 224.88 220.172 224.88C220.588 224.88 220.983 224.822 221.356 224.704C221.73 224.576 222.06 224.4 222.348 224.176C222.636 223.952 222.86 223.696 223.02 223.408C223.18 223.11 223.26 222.795 223.26 222.464V222.144L223.5 222.368H220.076V220.656H225.036C225.058 220.774 225.074 220.891 225.084 221.008C225.095 221.115 225.1 221.222 225.1 221.328C225.111 221.424 225.116 221.52 225.116 221.616C225.116 222.352 224.988 223.024 224.732 223.632C224.476 224.23 224.119 224.747 223.66 225.184C223.212 225.622 222.684 225.963 222.076 226.208C221.479 226.443 220.828 226.56 220.124 226.56ZM229.094 226.56C228.497 226.56 227.974 226.422 227.526 226.144C227.089 225.867 226.748 225.478 226.502 224.976C226.268 224.475 226.15 223.878 226.15 223.184V218H227.798V222.736C227.798 223.227 227.873 223.654 228.022 224.016C228.182 224.368 228.406 224.64 228.694 224.832C228.993 225.024 229.35 225.12 229.766 225.12C230.076 225.12 230.358 225.072 230.614 224.976C230.87 224.87 231.089 224.726 231.27 224.544C231.462 224.363 231.612 224.144 231.718 223.888C231.825 223.632 231.878 223.355 231.878 223.056V218H233.526V226.4H231.878V224.64L232.166 224.448C232.038 224.843 231.82 225.2 231.51 225.52C231.212 225.84 230.854 226.096 230.438 226.288C230.022 226.47 229.574 226.56 229.094 226.56ZM235.038 226.4V218H236.702V220.64L236.542 220C236.659 219.595 236.856 219.227 237.134 218.896C237.422 218.566 237.747 218.304 238.11 218.112C238.483 217.92 238.867 217.824 239.262 217.824C239.443 217.824 239.614 217.84 239.774 217.872C239.944 217.904 240.078 217.942 240.174 217.984L239.742 219.776C239.614 219.723 239.47 219.68 239.31 219.648C239.16 219.606 239.011 219.584 238.862 219.584C238.574 219.584 238.296 219.643 238.03 219.76C237.774 219.867 237.544 220.022 237.342 220.224C237.15 220.416 236.995 220.646 236.878 220.912C236.76 221.168 236.702 221.451 236.702 221.76V226.4H235.038ZM243.635 226.56C243.038 226.56 242.515 226.422 242.067 226.144C241.63 225.867 241.288 225.478 241.043 224.976C240.808 224.475 240.691 223.878 240.691 223.184V218H242.339V222.736C242.339 223.227 242.414 223.654 242.563 224.016C242.723 224.368 242.947 224.64 243.235 224.832C243.534 225.024 243.891 225.12 244.307 225.12C244.616 225.12 244.899 225.072 245.155 224.976C245.411 224.87 245.63 224.726 245.811 224.544C246.003 224.363 246.152 224.144 246.259 223.888C246.366 223.632 246.419 223.355 246.419 223.056V218H248.067V226.4H246.419V224.64L246.707 224.448C246.579 224.843 246.36 225.2 246.051 225.52C245.752 225.84 245.395 226.096 244.979 226.288C244.563 226.47 244.115 226.56 243.635 226.56ZM253.679 226.4V215.2H255.231L262.079 224.368L261.823 224.512C261.78 224.246 261.743 223.958 261.711 223.648C261.679 223.328 261.647 222.992 261.615 222.64C261.594 222.278 261.572 221.899 261.551 221.504C261.54 221.099 261.53 220.678 261.519 220.24C261.508 219.803 261.503 219.35 261.503 218.88V215.2H263.231V226.4H261.647L254.911 217.568L255.087 217.344C255.14 217.995 255.183 218.55 255.215 219.008C255.257 219.456 255.289 219.84 255.311 220.16C255.343 220.47 255.364 220.726 255.375 220.928C255.386 221.12 255.391 221.28 255.391 221.408C255.402 221.536 255.407 221.648 255.407 221.744V226.4H253.679ZM268.382 226.56C267.689 226.56 267.054 226.368 266.478 225.984C265.913 225.6 265.46 225.078 265.118 224.416C264.777 223.755 264.606 223.008 264.606 222.176C264.606 221.334 264.777 220.587 265.118 219.936C265.47 219.275 265.94 218.758 266.526 218.384C267.124 218.011 267.79 217.824 268.526 217.824C268.964 217.824 269.364 217.888 269.726 218.016C270.089 218.144 270.404 218.326 270.67 218.56C270.948 218.784 271.172 219.046 271.342 219.344C271.524 219.643 271.636 219.963 271.678 220.304L271.31 220.176V218H272.974V226.4H271.31V224.4L271.694 224.288C271.63 224.576 271.497 224.859 271.294 225.136C271.102 225.403 270.852 225.643 270.542 225.856C270.244 226.07 269.908 226.24 269.534 226.368C269.172 226.496 268.788 226.56 268.382 226.56ZM268.814 225.04C269.316 225.04 269.758 224.918 270.142 224.672C270.526 224.427 270.825 224.091 271.038 223.664C271.262 223.227 271.374 222.731 271.374 222.176C271.374 221.632 271.262 221.147 271.038 220.72C270.825 220.294 270.526 219.958 270.142 219.712C269.758 219.467 269.316 219.344 268.814 219.344C268.324 219.344 267.886 219.467 267.502 219.712C267.129 219.958 266.83 220.294 266.606 220.72C266.393 221.147 266.286 221.632 266.286 222.176C266.286 222.731 266.393 223.227 266.606 223.664C266.83 224.091 267.129 224.427 267.502 224.672C267.886 224.918 268.324 225.04 268.814 225.04ZM274.475 226.4V218H276.123V219.728L275.835 219.92C275.942 219.547 276.15 219.206 276.459 218.896C276.769 218.576 277.137 218.32 277.563 218.128C277.99 217.926 278.427 217.824 278.875 217.824C279.515 217.824 280.049 217.952 280.475 218.208C280.902 218.454 281.222 218.832 281.435 219.344C281.649 219.856 281.755 220.502 281.755 221.28V226.4H280.107V221.392C280.107 220.912 280.043 220.518 279.915 220.208C279.787 219.888 279.59 219.659 279.323 219.52C279.057 219.371 278.726 219.307 278.331 219.328C278.011 219.328 277.718 219.382 277.451 219.488C277.185 219.584 276.95 219.723 276.747 219.904C276.555 220.086 276.401 220.299 276.283 220.544C276.177 220.779 276.123 221.035 276.123 221.312V226.4H275.307C275.169 226.4 275.03 226.4 274.891 226.4C274.753 226.4 274.614 226.4 274.475 226.4ZM286.423 226.56C285.73 226.56 285.095 226.368 284.519 225.984C283.954 225.6 283.5 225.078 283.159 224.416C282.818 223.755 282.647 223.008 282.647 222.176C282.647 221.334 282.818 220.587 283.159 219.936C283.511 219.275 283.98 218.758 284.567 218.384C285.164 218.011 285.831 217.824 286.567 217.824C287.004 217.824 287.404 217.888 287.767 218.016C288.13 218.144 288.444 218.326 288.711 218.56C288.988 218.784 289.212 219.046 289.383 219.344C289.564 219.643 289.676 219.963 289.719 220.304L289.351 220.176V218H291.015V226.4H289.351V224.4L289.735 224.288C289.671 224.576 289.538 224.859 289.335 225.136C289.143 225.403 288.892 225.643 288.583 225.856C288.284 226.07 287.948 226.24 287.575 226.368C287.212 226.496 286.828 226.56 286.423 226.56ZM286.855 225.04C287.356 225.04 287.799 224.918 288.183 224.672C288.567 224.427 288.866 224.091 289.079 223.664C289.303 223.227 289.415 222.731 289.415 222.176C289.415 221.632 289.303 221.147 289.079 220.72C288.866 220.294 288.567 219.958 288.183 219.712C287.799 219.467 287.356 219.344 286.855 219.344C286.364 219.344 285.927 219.467 285.543 219.712C285.17 219.958 284.871 220.294 284.647 220.72C284.434 221.147 284.327 221.632 284.327 222.176C284.327 222.731 284.434 223.227 284.647 223.664C284.871 224.091 285.17 224.427 285.543 224.672C285.927 224.918 286.364 225.04 286.855 225.04ZM294.02 223.776L293.94 221.984L297.956 218H300.18L294.02 223.776ZM292.516 226.4V214.56H294.164V226.4H292.516ZM298.18 226.4L295.012 222.704L296.18 221.632L300.292 226.4H298.18ZM304.494 226.4V224.8H306.302V216.8H304.494V215.2H309.838V216.8H308.03V224.8H309.838V226.4H304.494ZM311.335 226.4V218H312.983V219.728L312.695 219.92C312.802 219.547 313.01 219.206 313.319 218.896C313.628 218.576 313.996 218.32 314.423 218.128C314.85 217.926 315.287 217.824 315.735 217.824C316.375 217.824 316.908 217.952 317.335 218.208C317.762 218.454 318.082 218.832 318.295 219.344C318.508 219.856 318.615 220.502 318.615 221.28V226.4H316.967V221.392C316.967 220.912 316.903 220.518 316.775 220.208C316.647 219.888 316.45 219.659 316.183 219.52C315.916 219.371 315.586 219.307 315.191 219.328C314.871 219.328 314.578 219.382 314.311 219.488C314.044 219.584 313.81 219.723 313.607 219.904C313.415 220.086 313.26 220.299 313.143 220.544C313.036 220.779 312.983 221.035 312.983 221.312V226.4H312.167C312.028 226.4 311.89 226.4 311.751 226.4C311.612 226.4 311.474 226.4 311.335 226.4ZM322.851 226.56C322.147 226.56 321.512 226.438 320.947 226.192C320.381 225.947 319.912 225.584 319.539 225.104L320.659 224.144C320.979 224.518 321.325 224.79 321.699 224.96C322.083 225.12 322.515 225.2 322.995 225.2C323.187 225.2 323.363 225.179 323.523 225.136C323.693 225.083 323.837 225.008 323.955 224.912C324.083 224.816 324.179 224.704 324.243 224.576C324.307 224.438 324.339 224.288 324.339 224.128C324.339 223.851 324.237 223.627 324.035 223.456C323.928 223.382 323.757 223.302 323.523 223.216C323.299 223.12 323.005 223.024 322.643 222.928C322.024 222.768 321.517 222.587 321.123 222.384C320.728 222.182 320.424 221.952 320.211 221.696C320.051 221.494 319.933 221.275 319.859 221.04C319.784 220.795 319.747 220.528 319.747 220.24C319.747 219.888 319.821 219.568 319.971 219.28C320.131 218.982 320.344 218.726 320.611 218.512C320.888 218.288 321.208 218.118 321.571 218C321.944 217.883 322.339 217.824 322.755 217.824C323.149 217.824 323.539 217.878 323.923 217.984C324.317 218.091 324.68 218.246 325.011 218.448C325.341 218.651 325.619 218.891 325.843 219.168L324.899 220.208C324.696 220.006 324.472 219.83 324.227 219.68C323.992 219.52 323.752 219.398 323.507 219.312C323.261 219.227 323.037 219.184 322.835 219.184C322.611 219.184 322.408 219.206 322.227 219.248C322.045 219.291 321.891 219.355 321.763 219.44C321.645 219.526 321.555 219.632 321.491 219.76C321.427 219.888 321.395 220.032 321.395 220.192C321.405 220.331 321.437 220.464 321.491 220.592C321.555 220.71 321.64 220.811 321.747 220.896C321.864 220.982 322.04 221.072 322.275 221.168C322.509 221.264 322.808 221.355 323.171 221.44C323.704 221.579 324.141 221.734 324.483 221.904C324.835 222.064 325.112 222.251 325.315 222.464C325.528 222.667 325.677 222.902 325.763 223.168C325.848 223.435 325.891 223.734 325.891 224.064C325.891 224.544 325.752 224.976 325.475 225.36C325.208 225.734 324.845 226.027 324.387 226.24C323.928 226.454 323.416 226.56 322.851 226.56ZM327.947 226.4V215.856H329.595V226.4H327.947ZM326.203 219.6V218H331.547V219.6H326.203ZM332.519 226.4V218H334.167V226.4H332.519ZM333.319 216.144C332.967 216.144 332.695 216.054 332.503 215.872C332.311 215.691 332.215 215.435 332.215 215.104C332.215 214.795 332.311 214.544 332.503 214.352C332.706 214.16 332.978 214.064 333.319 214.064C333.671 214.064 333.943 214.155 334.135 214.336C334.327 214.518 334.423 214.774 334.423 215.104C334.423 215.414 334.322 215.664 334.119 215.856C333.927 216.048 333.661 216.144 333.319 216.144ZM336.941 226.4V215.856H338.589V226.4H336.941ZM335.197 219.6V218H340.541V219.6H335.197ZM344.185 226.56C343.588 226.56 343.065 226.422 342.617 226.144C342.18 225.867 341.839 225.478 341.593 224.976C341.359 224.475 341.241 223.878 341.241 223.184V218H342.889V222.736C342.889 223.227 342.964 223.654 343.113 224.016C343.273 224.368 343.497 224.64 343.785 224.832C344.084 225.024 344.441 225.12 344.857 225.12C345.167 225.12 345.449 225.072 345.705 224.976C345.961 224.87 346.18 224.726 346.361 224.544C346.553 224.363 346.703 224.144 346.809 223.888C346.916 223.632 346.969 223.355 346.969 223.056V218H348.617V226.4H346.969V224.64L347.257 224.448C347.129 224.843 346.911 225.2 346.601 225.52C346.303 225.84 345.945 226.096 345.529 226.288C345.113 226.47 344.665 226.56 344.185 226.56ZM351.169 226.4V215.856H352.817V226.4H351.169ZM349.425 219.6V218H354.769V219.6H349.425ZM359.311 226.56C358.447 226.56 357.679 226.379 357.007 226.016C356.346 225.643 355.823 225.136 355.439 224.496C355.066 223.856 354.879 223.12 354.879 222.288C354.879 221.627 354.986 221.024 355.199 220.48C355.413 219.936 355.706 219.467 356.079 219.072C356.463 218.667 356.917 218.358 357.439 218.144C357.973 217.92 358.549 217.808 359.167 217.808C359.711 217.808 360.218 217.915 360.687 218.128C361.157 218.331 361.562 218.614 361.903 218.976C362.255 219.339 362.522 219.771 362.703 220.272C362.895 220.763 362.986 221.302 362.975 221.888L362.959 222.592H356.095L355.727 221.28H361.535L361.295 221.552V221.168C361.263 220.816 361.146 220.502 360.943 220.224C360.741 219.947 360.485 219.728 360.175 219.568C359.866 219.408 359.53 219.328 359.167 219.328C358.591 219.328 358.106 219.44 357.711 219.664C357.317 219.878 357.018 220.198 356.815 220.624C356.613 221.04 356.511 221.558 356.511 222.176C356.511 222.763 356.634 223.275 356.879 223.712C357.125 224.139 357.471 224.47 357.919 224.704C358.367 224.939 358.885 225.056 359.471 225.056C359.887 225.056 360.271 224.987 360.623 224.848C360.986 224.71 361.375 224.459 361.791 224.096L362.623 225.264C362.367 225.52 362.053 225.744 361.679 225.936C361.317 226.128 360.927 226.283 360.511 226.4C360.106 226.507 359.706 226.56 359.311 226.56ZM371.427 226.56C370.605 226.56 369.869 226.374 369.219 226C368.579 225.616 368.072 225.099 367.699 224.448C367.325 223.787 367.139 223.035 367.139 222.192C367.139 221.35 367.325 220.603 367.699 219.952C368.072 219.291 368.579 218.774 369.219 218.4C369.869 218.016 370.605 217.824 371.427 217.824C372.237 217.824 372.963 218.016 373.603 218.4C374.253 218.774 374.765 219.291 375.139 219.952C375.512 220.603 375.699 221.35 375.699 222.192C375.699 223.035 375.512 223.787 375.139 224.448C374.765 225.099 374.253 225.616 373.603 226C372.963 226.374 372.237 226.56 371.427 226.56ZM371.427 225.056C371.928 225.056 372.376 224.934 372.771 224.688C373.165 224.432 373.475 224.091 373.699 223.664C373.923 223.227 374.029 222.736 374.019 222.192C374.029 221.638 373.923 221.147 373.699 220.72C373.475 220.283 373.165 219.942 372.771 219.696C372.376 219.451 371.928 219.328 371.427 219.328C370.925 219.328 370.472 219.456 370.067 219.712C369.672 219.958 369.363 220.299 369.139 220.736C368.915 221.163 368.808 221.648 368.819 222.192C368.808 222.736 368.915 223.227 369.139 223.664C369.363 224.091 369.672 224.432 370.067 224.688C370.472 224.934 370.925 225.056 371.427 225.056ZM377.294 226.4V217.056C377.294 216.576 377.401 216.15 377.614 215.776C377.827 215.403 378.121 215.11 378.494 214.896C378.867 214.683 379.299 214.576 379.79 214.576C380.131 214.576 380.451 214.64 380.75 214.768C381.049 214.896 381.289 215.067 381.47 215.28L380.91 216.544C380.771 216.416 380.617 216.315 380.446 216.24C380.286 216.155 380.131 216.112 379.982 216.112C379.758 216.112 379.566 216.15 379.406 216.224C379.257 216.288 379.145 216.395 379.07 216.544C378.995 216.683 378.958 216.854 378.958 217.056V226.4H378.126C377.987 226.4 377.849 226.4 377.71 226.4C377.571 226.4 377.433 226.4 377.294 226.4ZM375.95 219.664V218.144H380.942V219.664H375.95ZM388.092 226.4V216.864H384.956V215.2H393.052V216.864H389.82V226.4H388.092ZM396.293 226.56C395.429 226.56 394.661 226.379 393.989 226.016C393.327 225.643 392.805 225.136 392.421 224.496C392.047 223.856 391.861 223.12 391.861 222.288C391.861 221.627 391.967 221.024 392.181 220.48C392.394 219.936 392.687 219.467 393.061 219.072C393.445 218.667 393.898 218.358 394.421 218.144C394.954 217.92 395.53 217.808 396.149 217.808C396.693 217.808 397.199 217.915 397.669 218.128C398.138 218.331 398.543 218.614 398.885 218.976C399.237 219.339 399.503 219.771 399.685 220.272C399.877 220.763 399.967 221.302 399.957 221.888L399.941 222.592H393.077L392.709 221.28H398.517L398.277 221.552V221.168C398.245 220.816 398.127 220.502 397.925 220.224C397.722 219.947 397.466 219.728 397.157 219.568C396.847 219.408 396.511 219.328 396.149 219.328C395.573 219.328 395.087 219.44 394.693 219.664C394.298 219.878 393.999 220.198 393.797 220.624C393.594 221.04 393.493 221.558 393.493 222.176C393.493 222.763 393.615 223.275 393.861 223.712C394.106 224.139 394.453 224.47 394.901 224.704C395.349 224.939 395.866 225.056 396.453 225.056C396.869 225.056 397.253 224.987 397.605 224.848C397.967 224.71 398.357 224.459 398.773 224.096L399.605 225.264C399.349 225.52 399.034 225.744 398.661 225.936C398.298 226.128 397.909 226.283 397.493 226.4C397.087 226.507 396.687 226.56 396.293 226.56ZM404.516 226.56C403.737 226.56 403.038 226.368 402.42 225.984C401.812 225.6 401.326 225.078 400.964 224.416C400.612 223.755 400.436 223.014 400.436 222.192C400.436 221.371 400.612 220.63 400.964 219.968C401.326 219.307 401.812 218.784 402.42 218.4C403.038 218.016 403.737 217.824 404.516 217.824C405.262 217.824 405.94 217.979 406.548 218.288C407.166 218.587 407.636 218.998 407.956 219.52L407.044 220.64C406.873 220.395 406.654 220.171 406.388 219.968C406.121 219.766 405.838 219.606 405.54 219.488C405.241 219.371 404.953 219.312 404.676 219.312C404.164 219.312 403.705 219.44 403.3 219.696C402.905 219.942 402.59 220.283 402.356 220.72C402.121 221.158 402.004 221.648 402.004 222.192C402.004 222.736 402.126 223.227 402.372 223.664C402.617 224.091 402.942 224.432 403.348 224.688C403.753 224.944 404.201 225.072 404.692 225.072C404.98 225.072 405.257 225.024 405.524 224.928C405.801 224.832 406.068 224.688 406.324 224.496C406.58 224.304 406.82 224.07 407.044 223.792L407.956 224.912C407.614 225.392 407.124 225.787 406.484 226.096C405.854 226.406 405.198 226.56 404.516 226.56ZM408.71 226.4V214.56H410.358V219.728L410.07 219.92C410.177 219.547 410.385 219.206 410.694 218.896C411.003 218.576 411.371 218.32 411.798 218.128C412.225 217.926 412.662 217.824 413.11 217.824C413.75 217.824 414.283 217.952 414.71 218.208C415.137 218.454 415.457 218.832 415.67 219.344C415.883 219.856 415.99 220.502 415.99 221.28V226.4H414.342V221.392C414.342 220.912 414.278 220.518 414.15 220.208C414.022 219.888 413.825 219.659 413.558 219.52C413.291 219.371 412.961 219.307 412.566 219.328C412.246 219.328 411.953 219.382 411.686 219.488C411.419 219.584 411.185 219.723 410.982 219.904C410.79 220.086 410.635 220.299 410.518 220.544C410.411 220.779 410.358 221.035 410.358 221.312V226.4H409.542C409.403 226.4 409.265 226.4 409.126 226.4C408.987 226.4 408.849 226.4 408.71 226.4ZM417.426 226.4V218H419.074V219.728L418.786 219.92C418.892 219.547 419.1 219.206 419.41 218.896C419.719 218.576 420.087 218.32 420.514 218.128C420.94 217.926 421.378 217.824 421.826 217.824C422.466 217.824 422.999 217.952 423.426 218.208C423.852 218.454 424.172 218.832 424.386 219.344C424.599 219.856 424.706 220.502 424.706 221.28V226.4H423.058V221.392C423.058 220.912 422.994 220.518 422.866 220.208C422.738 219.888 422.54 219.659 422.274 219.52C422.007 219.371 421.676 219.307 421.282 219.328C420.962 219.328 420.668 219.382 420.402 219.488C420.135 219.584 419.9 219.723 419.698 219.904C419.506 220.086 419.351 220.299 419.234 220.544C419.127 220.779 419.074 221.035 419.074 221.312V226.4H418.258C418.119 226.4 417.98 226.4 417.842 226.4C417.703 226.4 417.564 226.4 417.426 226.4ZM429.917 226.56C429.096 226.56 428.36 226.374 427.709 226C427.069 225.616 426.563 225.099 426.189 224.448C425.816 223.787 425.629 223.035 425.629 222.192C425.629 221.35 425.816 220.603 426.189 219.952C426.563 219.291 427.069 218.774 427.709 218.4C428.36 218.016 429.096 217.824 429.917 217.824C430.728 217.824 431.453 218.016 432.093 218.4C432.744 218.774 433.256 219.291 433.629 219.952C434.003 220.603 434.189 221.35 434.189 222.192C434.189 223.035 434.003 223.787 433.629 224.448C433.256 225.099 432.744 225.616 432.093 226C431.453 226.374 430.728 226.56 429.917 226.56ZM429.917 225.056C430.419 225.056 430.867 224.934 431.261 224.688C431.656 224.432 431.965 224.091 432.189 223.664C432.413 223.227 432.52 222.736 432.509 222.192C432.52 221.638 432.413 221.147 432.189 220.72C431.965 220.283 431.656 219.942 431.261 219.696C430.867 219.451 430.419 219.328 429.917 219.328C429.416 219.328 428.963 219.456 428.557 219.712C428.163 219.958 427.853 220.299 427.629 220.736C427.405 221.163 427.299 221.648 427.309 222.192C427.299 222.736 427.405 223.227 427.629 223.664C427.853 224.091 428.163 224.432 428.557 224.688C428.963 224.934 429.416 225.056 429.917 225.056ZM435.217 226.4V214.56H436.865V226.4H435.217ZM442.021 226.56C441.199 226.56 440.463 226.374 439.813 226C439.173 225.616 438.666 225.099 438.293 224.448C437.919 223.787 437.733 223.035 437.733 222.192C437.733 221.35 437.919 220.603 438.293 219.952C438.666 219.291 439.173 218.774 439.813 218.4C440.463 218.016 441.199 217.824 442.021 217.824C442.831 217.824 443.557 218.016 444.197 218.4C444.847 218.774 445.359 219.291 445.733 219.952C446.106 220.603 446.293 221.35 446.293 222.192C446.293 223.035 446.106 223.787 445.733 224.448C445.359 225.099 444.847 225.616 444.197 226C443.557 226.374 442.831 226.56 442.021 226.56ZM442.021 225.056C442.522 225.056 442.97 224.934 443.365 224.688C443.759 224.432 444.069 224.091 444.293 223.664C444.517 223.227 444.623 222.736 444.613 222.192C444.623 221.638 444.517 221.147 444.293 220.72C444.069 220.283 443.759 219.942 443.365 219.696C442.97 219.451 442.522 219.328 442.021 219.328C441.519 219.328 441.066 219.456 440.661 219.712C440.266 219.958 439.957 220.299 439.733 220.736C439.509 221.163 439.402 221.648 439.413 222.192C439.402 222.736 439.509 223.227 439.733 223.664C439.957 224.091 440.266 224.432 440.661 224.688C441.066 224.934 441.519 225.056 442.021 225.056ZM451.048 230.08C450.451 230.08 449.854 229.984 449.256 229.792C448.67 229.611 448.195 229.371 447.832 229.072L448.44 227.792C448.654 227.952 448.904 228.091 449.192 228.208C449.48 228.336 449.784 228.432 450.104 228.496C450.424 228.571 450.739 228.608 451.048 228.608C451.635 228.608 452.126 228.512 452.52 228.32C452.915 228.128 453.214 227.846 453.416 227.472C453.619 227.099 453.72 226.635 453.72 226.08V224.464L453.896 224.576C453.843 224.907 453.667 225.227 453.368 225.536C453.08 225.835 452.718 226.08 452.28 226.272C451.843 226.464 451.395 226.56 450.936 226.56C450.136 226.56 449.422 226.374 448.792 226C448.174 225.616 447.683 225.099 447.32 224.448C446.958 223.787 446.776 223.035 446.776 222.192C446.776 221.35 446.952 220.603 447.304 219.952C447.667 219.291 448.158 218.774 448.776 218.4C449.406 218.016 450.11 217.824 450.888 217.824C451.208 217.824 451.518 217.867 451.816 217.952C452.115 218.027 452.392 218.139 452.648 218.288C452.904 218.427 453.134 218.582 453.336 218.752C453.539 218.923 453.704 219.104 453.832 219.296C453.96 219.488 454.04 219.67 454.072 219.84L453.72 219.968V218H455.368V225.888C455.368 226.56 455.267 227.152 455.064 227.664C454.872 228.187 454.59 228.624 454.216 228.976C453.843 229.339 453.39 229.611 452.856 229.792C452.323 229.984 451.72 230.08 451.048 230.08ZM451.112 225.04C451.635 225.04 452.099 224.918 452.504 224.672C452.91 224.427 453.224 224.091 453.448 223.664C453.672 223.238 453.784 222.747 453.784 222.192C453.784 221.638 453.667 221.147 453.432 220.72C453.208 220.283 452.894 219.942 452.488 219.696C452.094 219.451 451.635 219.328 451.112 219.328C450.6 219.328 450.142 219.456 449.736 219.712C449.342 219.958 449.027 220.299 448.792 220.736C448.568 221.163 448.456 221.648 448.456 222.192C448.456 222.736 448.568 223.227 448.792 223.664C449.027 224.091 449.342 224.427 449.736 224.672C450.142 224.918 450.6 225.04 451.112 225.04ZM458.287 230.08L459.983 226.16L459.999 227.472L455.807 218H457.727L460.351 224.176C460.404 224.283 460.468 224.448 460.543 224.672C460.618 224.886 460.682 225.099 460.735 225.312L460.319 225.408C460.404 225.184 460.484 224.96 460.559 224.736C460.644 224.512 460.724 224.288 460.799 224.064L462.991 218H464.943L461.487 226.4L460.063 230.08H458.287Z" fill="#666666"/>
</svg>
