<svg width="584" height="311" viewBox="0 0 584 311" fill="none" xmlns="http://www.w3.org/2000/svg">
<rect x="-0.448398" y="1.63675" width="60.5213" height="19.1176" rx="9.5588" transform="matrix(-0.868809 0.495148 0.495144 0.868811 277.517 81.4367)" fill="#EF5350" stroke="#EF5350" stroke-width="2.40001"/>
<rect x="-0.448398" y="1.63675" width="60.5213" height="19.1176" rx="9.5588" transform="matrix(-0.868809 0.495148 0.495144 0.868811 347.862 101.987)" fill="#FBBC04" stroke="#FBBC04" stroke-width="2.40001"/>
<rect x="0.448398" y="1.63675" width="60.5213" height="19.1176" rx="9.5588" transform="matrix(0.868809 0.495148 -0.495144 0.868811 236.022 101.543)" fill="#4285F4" stroke="#4285F4" stroke-width="2.40001"/>
<path d="M353.795 120.909C351.181 125.495 345.344 127.094 340.757 124.48L304.785 103.979C300.199 101.365 298.6 95.5282 301.213 90.9416C303.827 86.355 309.665 84.7558 314.251 87.3698L350.223 107.871C354.81 110.485 356.409 116.322 353.795 120.909Z" fill="#4CAF50" stroke="#4CAF50" stroke-width="2.40001"/>
<path d="M110.638 201.744C108.895 201.744 107.267 201.435 105.754 200.816C104.24 200.174 102.91 199.291 101.763 198.167C100.617 197.043 99.7221 195.736 99.08 194.245C98.4608 192.732 98.1512 191.103 98.1512 189.36C98.1512 187.64 98.4608 186.035 99.08 184.544C99.7221 183.054 100.605 181.758 101.729 180.657C102.875 179.533 104.206 178.662 105.719 178.043C107.233 177.424 108.861 177.114 110.604 177.114C111.82 177.114 113.001 177.286 114.147 177.63C115.317 177.974 116.372 178.456 117.312 179.075C118.252 179.694 119.021 180.405 119.617 181.208L117.209 183.719C116.521 183.054 115.81 182.503 115.076 182.068C114.365 181.632 113.631 181.299 112.874 181.07C112.118 180.841 111.361 180.726 110.604 180.726C109.366 180.726 108.219 180.944 107.164 181.38C106.132 181.815 105.215 182.423 104.412 183.203C103.632 183.983 103.025 184.9 102.589 185.955C102.153 186.987 101.935 188.122 101.935 189.36C101.935 190.553 102.165 191.688 102.623 192.766C103.082 193.821 103.713 194.75 104.515 195.552C105.341 196.355 106.281 196.986 107.336 197.444C108.414 197.903 109.549 198.132 110.742 198.132C111.636 198.132 112.485 198.006 113.287 197.754C114.09 197.479 114.801 197.1 115.42 196.619C116.039 196.137 116.521 195.587 116.865 194.968C117.209 194.325 117.381 193.649 117.381 192.938V192.25L117.897 192.732H110.535V189.051H121.199C121.245 189.303 121.28 189.555 121.302 189.808C121.325 190.037 121.337 190.266 121.337 190.496C121.36 190.702 121.371 190.908 121.371 191.115C121.371 192.697 121.096 194.142 120.546 195.449C119.995 196.734 119.227 197.846 118.241 198.786C117.278 199.726 116.142 200.46 114.835 200.988C113.551 201.492 112.152 201.744 110.638 201.744ZM131.713 201.744C129.947 201.744 128.365 201.343 126.966 200.54C125.59 199.715 124.5 198.603 123.698 197.204C122.895 195.782 122.494 194.165 122.494 192.353C122.494 190.541 122.895 188.936 123.698 187.537C124.5 186.115 125.59 185.003 126.966 184.2C128.365 183.375 129.947 182.962 131.713 182.962C133.456 182.962 135.015 183.375 136.391 184.2C137.79 185.003 138.891 186.115 139.694 187.537C140.496 188.936 140.898 190.541 140.898 192.353C140.898 194.165 140.496 195.782 139.694 197.204C138.891 198.603 137.79 199.715 136.391 200.54C135.015 201.343 133.456 201.744 131.713 201.744ZM131.713 198.511C132.791 198.511 133.754 198.247 134.602 197.72C135.451 197.169 136.116 196.435 136.598 195.518C137.079 194.578 137.309 193.523 137.286 192.353C137.309 191.161 137.079 190.106 136.598 189.188C136.116 188.248 135.451 187.514 134.602 186.987C133.754 186.459 132.791 186.196 131.713 186.196C130.635 186.196 129.66 186.471 128.789 187.021C127.94 187.549 127.275 188.283 126.794 189.223C126.312 190.14 126.083 191.184 126.106 192.353C126.083 193.523 126.312 194.578 126.794 195.518C127.275 196.435 127.94 197.169 128.789 197.72C129.66 198.247 130.635 198.511 131.713 198.511ZM151.157 201.744C149.391 201.744 147.809 201.343 146.41 200.54C145.034 199.715 143.944 198.603 143.142 197.204C142.339 195.782 141.938 194.165 141.938 192.353C141.938 190.541 142.339 188.936 143.142 187.537C143.944 186.115 145.034 185.003 146.41 184.2C147.809 183.375 149.391 182.962 151.157 182.962C152.9 182.962 154.459 183.375 155.835 184.2C157.234 185.003 158.335 186.115 159.138 187.537C159.94 188.936 160.342 190.541 160.342 192.353C160.342 194.165 159.94 195.782 159.138 197.204C158.335 198.603 157.234 199.715 155.835 200.54C154.459 201.343 152.9 201.744 151.157 201.744ZM151.157 198.511C152.235 198.511 153.198 198.247 154.047 197.72C154.895 197.169 155.56 196.435 156.042 195.518C156.523 194.578 156.753 193.523 156.73 192.353C156.753 191.161 156.523 190.106 156.042 189.188C155.56 188.248 154.895 187.514 154.047 186.987C153.198 186.459 152.235 186.196 151.157 186.196C150.079 186.196 149.104 186.471 148.233 187.021C147.384 187.549 146.719 188.283 146.238 189.223C145.756 190.14 145.527 191.184 145.55 192.353C145.527 193.523 145.756 194.578 146.238 195.518C146.719 196.435 147.384 197.169 148.233 197.72C149.104 198.247 150.079 198.511 151.157 198.511ZM170.567 209.312C169.282 209.312 167.998 209.106 166.714 208.693C165.452 208.303 164.432 207.787 163.652 207.145L164.959 204.393C165.418 204.737 165.957 205.035 166.576 205.288C167.195 205.563 167.849 205.769 168.537 205.907C169.225 206.067 169.902 206.148 170.567 206.148C171.828 206.148 172.883 205.941 173.731 205.528C174.58 205.116 175.222 204.508 175.658 203.705C176.094 202.903 176.311 201.905 176.311 200.712V197.238L176.69 197.479C176.575 198.19 176.197 198.878 175.555 199.543C174.935 200.185 174.156 200.712 173.215 201.125C172.275 201.538 171.312 201.744 170.326 201.744C168.606 201.744 167.069 201.343 165.716 200.54C164.386 199.715 163.331 198.603 162.551 197.204C161.772 195.782 161.382 194.165 161.382 192.353C161.382 190.541 161.76 188.936 162.517 187.537C163.297 186.115 164.352 185.003 165.682 184.2C167.035 183.375 168.548 182.962 170.223 182.962C170.911 182.962 171.576 183.054 172.218 183.237C172.86 183.398 173.456 183.639 174.007 183.96C174.557 184.258 175.05 184.59 175.486 184.957C175.922 185.324 176.277 185.714 176.552 186.127C176.827 186.54 176.999 186.929 177.068 187.296L176.311 187.572V183.34H179.855V200.3C179.855 201.744 179.637 203.017 179.201 204.118C178.788 205.242 178.181 206.182 177.378 206.939C176.575 207.719 175.6 208.303 174.454 208.693C173.307 209.106 172.011 209.312 170.567 209.312ZM170.704 198.476C171.828 198.476 172.826 198.213 173.697 197.685C174.568 197.158 175.245 196.435 175.727 195.518C176.208 194.601 176.449 193.546 176.449 192.353C176.449 191.161 176.197 190.106 175.692 189.188C175.211 188.248 174.534 187.514 173.663 186.987C172.814 186.459 171.828 186.196 170.704 186.196C169.603 186.196 168.617 186.471 167.746 187.021C166.897 187.549 166.221 188.283 165.716 189.223C165.235 190.14 164.994 191.184 164.994 192.353C164.994 193.523 165.235 194.578 165.716 195.518C166.221 196.435 166.897 197.158 167.746 197.685C168.617 198.213 169.603 198.476 170.704 198.476ZM183.171 201.4V175.944H186.715V201.4H183.171ZM198.108 201.744C196.251 201.744 194.599 201.355 193.155 200.575C191.733 199.772 190.609 198.683 189.783 197.307C188.981 195.931 188.579 194.348 188.579 192.56C188.579 191.138 188.809 189.842 189.267 188.672C189.726 187.503 190.357 186.494 191.159 185.645C191.985 184.774 192.96 184.109 194.083 183.65C195.23 183.168 196.468 182.928 197.799 182.928C198.968 182.928 200.058 183.157 201.067 183.616C202.076 184.051 202.947 184.659 203.681 185.439C204.438 186.219 205.011 187.147 205.401 188.225C205.814 189.28 206.009 190.438 205.986 191.7L205.951 193.213H191.194L190.403 190.392H202.89L202.374 190.977V190.152C202.305 189.395 202.053 188.718 201.617 188.122C201.181 187.526 200.631 187.056 199.966 186.712C199.301 186.368 198.578 186.196 197.799 186.196C196.56 186.196 195.517 186.436 194.668 186.918C193.82 187.377 193.178 188.065 192.742 188.982C192.306 189.876 192.088 190.989 192.088 192.319C192.088 193.58 192.352 194.681 192.879 195.621C193.407 196.539 194.152 197.25 195.115 197.754C196.079 198.259 197.191 198.511 198.452 198.511C199.347 198.511 200.172 198.362 200.929 198.064C201.709 197.766 202.546 197.227 203.44 196.447L205.229 198.958C204.679 199.508 204.002 199.99 203.199 200.403C202.42 200.816 201.583 201.148 200.688 201.4C199.817 201.63 198.957 201.744 198.108 201.744ZM216.932 201.4V177.32H226.358C228.078 177.32 229.626 177.607 231.002 178.18C232.401 178.754 233.593 179.579 234.58 180.657C235.566 181.735 236.322 183.008 236.85 184.476C237.377 185.943 237.641 187.572 237.641 189.36C237.641 191.149 237.377 192.789 236.85 194.28C236.322 195.747 235.566 197.02 234.58 198.098C233.616 199.153 232.435 199.967 231.036 200.54C229.637 201.114 228.078 201.4 226.358 201.4H216.932ZM220.647 198.201L220.544 197.823H226.186C227.401 197.823 228.479 197.628 229.42 197.238C230.383 196.848 231.185 196.298 231.828 195.587C232.493 194.853 232.997 193.959 233.341 192.904C233.685 191.849 233.857 190.668 233.857 189.36C233.857 188.053 233.685 186.884 233.341 185.852C232.997 184.797 232.493 183.902 231.828 183.168C231.162 182.435 230.36 181.873 229.42 181.483C228.479 181.093 227.401 180.898 226.186 180.898H220.441L220.647 180.588V198.201ZM248.479 201.744C246.621 201.744 244.97 201.355 243.525 200.575C242.103 199.772 240.98 198.683 240.154 197.307C239.351 195.931 238.95 194.348 238.95 192.56C238.95 191.138 239.179 189.842 239.638 188.672C240.097 187.503 240.727 186.494 241.53 185.645C242.356 184.774 243.33 184.109 244.454 183.65C245.601 183.168 246.839 182.928 248.169 182.928C249.339 182.928 250.428 183.157 251.437 183.616C252.446 184.051 253.318 184.659 254.052 185.439C254.808 186.219 255.382 187.147 255.772 188.225C256.184 189.28 256.379 190.438 256.356 191.7L256.322 193.213H241.564L240.773 190.392H253.26L252.744 190.977V190.152C252.676 189.395 252.423 188.718 251.988 188.122C251.552 187.526 251.001 187.056 250.336 186.712C249.671 186.368 248.949 186.196 248.169 186.196C246.931 186.196 245.887 186.436 245.039 186.918C244.19 187.377 243.548 188.065 243.112 188.982C242.677 189.876 242.459 190.989 242.459 192.319C242.459 193.58 242.723 194.681 243.25 195.621C243.777 196.539 244.523 197.25 245.486 197.754C246.449 198.259 247.561 198.511 248.823 198.511C249.717 198.511 250.543 198.362 251.3 198.064C252.079 197.766 252.916 197.227 253.811 196.447L255.6 198.958C255.049 199.508 254.373 199.99 253.57 200.403C252.79 200.816 251.953 201.148 251.059 201.4C250.187 201.63 249.327 201.744 248.479 201.744ZM264.068 201.4L256.431 183.34H260.25L265.754 196.86L265.1 197.169L270.982 183.34H274.629L266.614 201.4H264.068ZM284.075 201.744C282.217 201.744 280.566 201.355 279.121 200.575C277.699 199.772 276.576 198.683 275.75 197.307C274.947 195.931 274.546 194.348 274.546 192.56C274.546 191.138 274.775 189.842 275.234 188.672C275.693 187.503 276.323 186.494 277.126 185.645C277.952 184.774 278.926 184.109 280.05 183.65C281.197 183.168 282.435 182.928 283.765 182.928C284.935 182.928 286.024 183.157 287.033 183.616C288.042 184.051 288.914 184.659 289.648 185.439C290.404 186.219 290.978 187.147 291.368 188.225C291.78 189.28 291.975 190.438 291.952 191.7L291.918 193.213H277.16L276.369 190.392H288.856L288.34 190.977V190.152C288.272 189.395 288.019 188.718 287.584 188.122C287.148 187.526 286.597 187.056 285.932 186.712C285.267 186.368 284.545 186.196 283.765 186.196C282.527 186.196 281.483 186.436 280.635 186.918C279.786 187.377 279.144 188.065 278.708 188.982C278.273 189.876 278.055 190.989 278.055 192.319C278.055 193.58 278.319 194.681 278.846 195.621C279.373 196.539 280.119 197.25 281.082 197.754C282.045 198.259 283.157 198.511 284.419 198.511C285.313 198.511 286.139 198.362 286.896 198.064C287.675 197.766 288.512 197.227 289.407 196.447L291.196 198.958C290.645 199.508 289.969 199.99 289.166 200.403C288.386 200.816 287.549 201.148 286.655 201.4C285.783 201.63 284.923 201.744 284.075 201.744ZM294.152 201.4V175.944H297.695V201.4H294.152ZM308.779 201.744C307.013 201.744 305.431 201.343 304.032 200.54C302.656 199.715 301.567 198.603 300.764 197.204C299.961 195.782 299.56 194.165 299.56 192.353C299.56 190.541 299.961 188.936 300.764 187.537C301.567 186.115 302.656 185.003 304.032 184.2C305.431 183.375 307.013 182.962 308.779 182.962C310.522 182.962 312.082 183.375 313.458 184.2C314.857 185.003 315.957 186.115 316.76 187.537C317.563 188.936 317.964 190.541 317.964 192.353C317.964 194.165 317.563 195.782 316.76 197.204C315.957 198.603 314.857 199.715 313.458 200.54C312.082 201.343 310.522 201.744 308.779 201.744ZM308.779 198.511C309.857 198.511 310.82 198.247 311.669 197.72C312.517 197.169 313.182 196.435 313.664 195.518C314.146 194.578 314.375 193.523 314.352 192.353C314.375 191.161 314.146 190.106 313.664 189.188C313.182 188.248 312.517 187.514 311.669 186.987C310.82 186.459 309.857 186.196 308.779 186.196C307.701 186.196 306.727 186.471 305.855 187.021C305.007 187.549 304.342 188.283 303.86 189.223C303.378 190.14 303.149 191.184 303.172 192.353C303.149 193.523 303.378 194.578 303.86 195.518C304.342 196.435 305.007 197.169 305.855 197.72C306.727 198.247 307.701 198.511 308.779 198.511ZM320.105 208.968V183.34H323.682V187.468L323.132 187.159C323.27 186.471 323.66 185.817 324.302 185.198C324.944 184.556 325.724 184.04 326.641 183.65C327.581 183.237 328.544 183.031 329.53 183.031C331.159 183.031 332.604 183.432 333.865 184.235C335.126 185.037 336.124 186.138 336.858 187.537C337.592 188.936 337.959 190.541 337.959 192.353C337.959 194.142 337.592 195.747 336.858 197.169C336.147 198.568 335.161 199.68 333.899 200.506C332.638 201.309 331.216 201.71 329.634 201.71C328.579 201.71 327.558 201.504 326.572 201.091C325.586 200.655 324.749 200.105 324.061 199.44C323.373 198.775 322.949 198.087 322.788 197.376L323.682 196.894V208.968H320.105ZM329.049 198.442C330.104 198.442 331.044 198.178 331.87 197.651C332.695 197.123 333.349 196.401 333.831 195.484C334.312 194.566 334.553 193.523 334.553 192.353C334.553 191.184 334.312 190.152 333.831 189.257C333.372 188.34 332.73 187.617 331.904 187.09C331.079 186.563 330.127 186.299 329.049 186.299C327.971 186.299 327.019 186.563 326.194 187.09C325.368 187.595 324.714 188.305 324.233 189.223C323.751 190.14 323.51 191.184 323.51 192.353C323.51 193.523 323.751 194.566 324.233 195.484C324.714 196.401 325.368 197.123 326.194 197.651C327.019 198.178 327.971 198.442 329.049 198.442ZM348.515 201.744C346.657 201.744 345.006 201.355 343.561 200.575C342.139 199.772 341.015 198.683 340.19 197.307C339.387 195.931 338.986 194.348 338.986 192.56C338.986 191.138 339.215 189.842 339.674 188.672C340.132 187.503 340.763 186.494 341.566 185.645C342.391 184.774 343.366 184.109 344.49 183.65C345.636 183.168 346.875 182.928 348.205 182.928C349.375 182.928 350.464 183.157 351.473 183.616C352.482 184.051 353.353 184.659 354.087 185.439C354.844 186.219 355.417 187.147 355.807 188.225C356.22 189.28 356.415 190.438 356.392 191.7L356.358 193.213H341.6L340.809 190.392H353.296L352.78 190.977V190.152C352.711 189.395 352.459 188.718 352.023 188.122C351.588 187.526 351.037 187.056 350.372 186.712C349.707 186.368 348.985 186.196 348.205 186.196C346.967 186.196 345.923 186.436 345.074 186.918C344.226 187.377 343.584 188.065 343.148 188.982C342.712 189.876 342.494 190.989 342.494 192.319C342.494 193.58 342.758 194.681 343.286 195.621C343.813 196.539 344.558 197.25 345.522 197.754C346.485 198.259 347.597 198.511 348.859 198.511C349.753 198.511 350.579 198.362 351.335 198.064C352.115 197.766 352.952 197.227 353.847 196.447L355.635 198.958C355.085 199.508 354.408 199.99 353.606 200.403C352.826 200.816 351.989 201.148 351.095 201.4C350.223 201.63 349.363 201.744 348.515 201.744ZM358.523 201.4V183.34H362.1V189.016L361.756 187.64C362.009 186.769 362.433 185.978 363.029 185.267C363.648 184.556 364.348 183.994 365.128 183.581C365.93 183.168 366.756 182.962 367.604 182.962C367.994 182.962 368.361 182.996 368.705 183.065C369.072 183.134 369.359 183.214 369.565 183.306L368.636 187.159C368.361 187.044 368.052 186.952 367.708 186.884C367.387 186.792 367.065 186.746 366.744 186.746C366.125 186.746 365.529 186.872 364.956 187.124C364.405 187.354 363.912 187.686 363.476 188.122C363.064 188.535 362.731 189.028 362.479 189.601C362.227 190.152 362.1 190.759 362.1 191.424V201.4H358.523ZM390.26 201.744C388.517 201.744 386.889 201.435 385.375 200.816C383.862 200.174 382.532 199.291 381.385 198.167C380.238 197.043 379.344 195.736 378.702 194.245C378.082 192.732 377.773 191.103 377.773 189.36C377.773 187.64 378.082 186.035 378.702 184.544C379.344 183.054 380.227 181.758 381.35 180.657C382.497 179.533 383.827 178.662 385.341 178.043C386.855 177.424 388.483 177.114 390.226 177.114C391.441 177.114 392.622 177.286 393.769 177.63C394.939 177.974 395.993 178.456 396.934 179.075C397.874 179.694 398.642 180.405 399.239 181.208L396.831 183.719C396.143 183.054 395.432 182.503 394.698 182.068C393.987 181.632 393.253 181.299 392.496 181.07C391.739 180.841 390.983 180.726 390.226 180.726C388.987 180.726 387.841 180.944 386.786 181.38C385.754 181.815 384.836 182.423 384.034 183.203C383.254 183.983 382.646 184.9 382.21 185.955C381.775 186.987 381.557 188.122 381.557 189.36C381.557 190.553 381.786 191.688 382.245 192.766C382.704 193.821 383.334 194.75 384.137 195.552C384.962 196.355 385.903 196.986 386.958 197.444C388.036 197.903 389.171 198.132 390.363 198.132C391.258 198.132 392.106 198.006 392.909 197.754C393.712 197.479 394.423 197.1 395.042 196.619C395.661 196.137 396.143 195.587 396.487 194.968C396.831 194.325 397.003 193.649 397.003 192.938V192.25L397.519 192.732H390.157V189.051H400.821C400.867 189.303 400.901 189.555 400.924 189.808C400.947 190.037 400.959 190.266 400.959 190.496C400.981 190.702 400.993 190.908 400.993 191.115C400.993 192.697 400.718 194.142 400.167 195.449C399.617 196.734 398.849 197.846 397.863 198.786C396.899 199.726 395.764 200.46 394.457 200.988C393.173 201.492 391.774 201.744 390.26 201.744ZM403.216 201.4V183.34H406.794V189.016L406.45 187.64C406.702 186.769 407.126 185.978 407.722 185.267C408.342 184.556 409.041 183.994 409.821 183.581C410.624 183.168 411.449 182.962 412.298 182.962C412.688 182.962 413.054 182.996 413.398 183.065C413.765 183.134 414.052 183.214 414.258 183.306L413.33 187.159C413.054 187.044 412.745 186.952 412.401 186.884C412.08 186.792 411.759 186.746 411.438 186.746C410.818 186.746 410.222 186.872 409.649 187.124C409.098 187.354 408.605 187.686 408.17 188.122C407.757 188.535 407.424 189.028 407.172 189.601C406.92 190.152 406.794 190.759 406.794 191.424V201.4H403.216ZM422.716 201.744C420.95 201.744 419.368 201.343 417.969 200.54C416.593 199.715 415.503 198.603 414.701 197.204C413.898 195.782 413.497 194.165 413.497 192.353C413.497 190.541 413.898 188.936 414.701 187.537C415.503 186.115 416.593 185.003 417.969 184.2C419.368 183.375 420.95 182.962 422.716 182.962C424.459 182.962 426.018 183.375 427.394 184.2C428.793 185.003 429.894 186.115 430.697 187.537C431.5 188.936 431.901 190.541 431.901 192.353C431.901 194.165 431.5 195.782 430.697 197.204C429.894 198.603 428.793 199.715 427.394 200.54C426.018 201.343 424.459 201.744 422.716 201.744ZM422.716 198.511C423.794 198.511 424.757 198.247 425.606 197.72C426.454 197.169 427.119 196.435 427.601 195.518C428.082 194.578 428.312 193.523 428.289 192.353C428.312 191.161 428.082 190.106 427.601 189.188C427.119 188.248 426.454 187.514 425.606 186.987C424.757 186.459 423.794 186.196 422.716 186.196C421.638 186.196 420.664 186.471 419.792 187.021C418.944 187.549 418.278 188.283 417.797 189.223C417.315 190.14 417.086 191.184 417.109 192.353C417.086 193.523 417.315 194.578 417.797 195.518C418.278 196.435 418.944 197.169 419.792 197.72C420.664 198.247 421.638 198.511 422.716 198.511ZM440.371 201.744C439.087 201.744 437.963 201.446 437 200.85C436.06 200.254 435.326 199.417 434.799 198.339C434.294 197.261 434.042 195.977 434.042 194.486V183.34H437.585V193.523C437.585 194.578 437.745 195.495 438.067 196.275C438.411 197.032 438.892 197.616 439.511 198.029C440.153 198.442 440.922 198.648 441.816 198.648C442.481 198.648 443.089 198.545 443.639 198.339C444.19 198.11 444.66 197.8 445.05 197.41C445.463 197.02 445.784 196.55 446.013 196C446.242 195.449 446.357 194.853 446.357 194.211V183.34H449.9V201.4H446.357V197.616L446.976 197.204C446.701 198.052 446.231 198.82 445.566 199.508C444.924 200.196 444.155 200.747 443.261 201.16C442.367 201.55 441.403 201.744 440.371 201.744ZM453.15 208.968V183.34H456.728V187.468L456.177 187.159C456.315 186.471 456.705 185.817 457.347 185.198C457.989 184.556 458.769 184.04 459.686 183.65C460.626 183.237 461.589 183.031 462.576 183.031C464.204 183.031 465.649 183.432 466.91 184.235C468.171 185.037 469.169 186.138 469.903 187.537C470.637 188.936 471.004 190.541 471.004 192.353C471.004 194.142 470.637 195.747 469.903 197.169C469.192 198.568 468.206 199.68 466.944 200.506C465.683 201.309 464.261 201.71 462.679 201.71C461.624 201.71 460.603 201.504 459.617 201.091C458.631 200.655 457.794 200.105 457.106 199.44C456.418 198.775 455.994 198.087 455.833 197.376L456.728 196.894V208.968H453.15ZM462.094 198.442C463.149 198.442 464.089 198.178 464.915 197.651C465.74 197.123 466.394 196.401 466.876 195.484C467.357 194.566 467.598 193.523 467.598 192.353C467.598 191.184 467.357 190.152 466.876 189.257C466.417 188.34 465.775 187.617 464.949 187.09C464.124 186.563 463.172 186.299 462.094 186.299C461.016 186.299 460.064 186.563 459.239 187.09C458.413 187.595 457.76 188.305 457.278 189.223C456.796 190.14 456.556 191.184 456.556 192.353C456.556 193.523 456.796 194.566 457.278 195.484C457.76 196.401 458.413 197.123 459.239 197.651C460.064 198.178 461.016 198.442 462.094 198.442ZM479.152 201.744C477.638 201.744 476.273 201.481 475.058 200.953C473.842 200.426 472.833 199.646 472.031 198.614L474.439 196.55C475.127 197.353 475.872 197.938 476.675 198.304C477.5 198.648 478.429 198.82 479.461 198.82C479.874 198.82 480.252 198.775 480.596 198.683C480.963 198.568 481.273 198.408 481.525 198.201C481.8 197.995 482.007 197.754 482.144 197.479C482.282 197.181 482.351 196.86 482.351 196.516C482.351 195.919 482.133 195.438 481.697 195.071C481.468 194.91 481.101 194.738 480.596 194.555C480.115 194.348 479.484 194.142 478.704 193.936C477.374 193.592 476.285 193.202 475.436 192.766C474.588 192.33 473.934 191.837 473.476 191.287C473.132 190.851 472.879 190.381 472.719 189.876C472.558 189.349 472.478 188.776 472.478 188.156C472.478 187.4 472.638 186.712 472.96 186.092C473.304 185.45 473.762 184.9 474.336 184.441C474.932 183.96 475.62 183.593 476.4 183.34C477.202 183.088 478.051 182.962 478.945 182.962C479.794 182.962 480.631 183.077 481.456 183.306C482.305 183.535 483.085 183.868 483.796 184.304C484.506 184.739 485.103 185.255 485.584 185.852L483.555 188.088C483.119 187.652 482.637 187.273 482.11 186.952C481.605 186.608 481.089 186.345 480.562 186.161C480.034 185.978 479.553 185.886 479.117 185.886C478.636 185.886 478.2 185.932 477.81 186.024C477.42 186.115 477.088 186.253 476.812 186.436C476.56 186.62 476.365 186.849 476.228 187.124C476.09 187.4 476.021 187.709 476.021 188.053C476.044 188.351 476.113 188.638 476.228 188.913C476.365 189.165 476.549 189.383 476.778 189.567C477.03 189.75 477.409 189.945 477.913 190.152C478.418 190.358 479.06 190.553 479.84 190.736C480.986 191.035 481.926 191.367 482.66 191.734C483.417 192.078 484.013 192.479 484.449 192.938C484.908 193.374 485.229 193.878 485.412 194.452C485.596 195.025 485.688 195.667 485.688 196.378C485.688 197.41 485.389 198.339 484.793 199.164C484.22 199.967 483.44 200.598 482.454 201.056C481.468 201.515 480.367 201.744 479.152 201.744Z" fill="#666666"/>
<path d="M125.632 226.56C124.843 226.56 124.112 226.416 123.44 226.128C122.779 225.84 122.197 225.44 121.696 224.928C121.205 224.406 120.821 223.798 120.544 223.104C120.277 222.4 120.144 221.632 120.144 220.8C120.144 219.968 120.277 219.206 120.544 218.512C120.821 217.808 121.205 217.2 121.696 216.688C122.197 216.166 122.779 215.76 123.44 215.472C124.112 215.184 124.843 215.04 125.632 215.04C126.421 215.04 127.147 215.184 127.808 215.472C128.48 215.76 129.061 216.166 129.552 216.688C130.053 217.211 130.437 217.824 130.704 218.528C130.981 219.222 131.12 219.979 131.12 220.8C131.12 221.622 130.981 222.384 130.704 223.088C130.437 223.782 130.053 224.39 129.552 224.912C129.061 225.435 128.48 225.84 127.808 226.128C127.147 226.416 126.421 226.56 125.632 226.56ZM125.632 224.88C126.176 224.88 126.672 224.779 127.12 224.576C127.579 224.374 127.973 224.091 128.304 223.728C128.635 223.355 128.891 222.923 129.072 222.432C129.264 221.931 129.36 221.387 129.36 220.8C129.36 220.214 129.264 219.675 129.072 219.184C128.891 218.683 128.635 218.251 128.304 217.888C127.973 217.515 127.579 217.227 127.12 217.024C126.672 216.822 126.176 216.72 125.632 216.72C125.088 216.72 124.587 216.822 124.128 217.024C123.68 217.227 123.285 217.51 122.944 217.872C122.613 218.235 122.357 218.667 122.176 219.168C121.995 219.659 121.904 220.203 121.904 220.8C121.904 221.387 121.995 221.931 122.176 222.432C122.357 222.934 122.613 223.366 122.944 223.728C123.285 224.091 123.68 224.374 124.128 224.576C124.587 224.779 125.088 224.88 125.632 224.88ZM132.244 226.4V218H133.892V219.728L133.604 219.92C133.71 219.547 133.918 219.206 134.228 218.896C134.537 218.576 134.905 218.32 135.332 218.128C135.758 217.926 136.196 217.824 136.644 217.824C137.284 217.824 137.817 217.952 138.244 218.208C138.67 218.454 138.99 218.832 139.204 219.344C139.417 219.856 139.524 220.502 139.524 221.28V226.4H137.876V221.392C137.876 220.912 137.812 220.518 137.684 220.208C137.556 219.888 137.358 219.659 137.092 219.52C136.825 219.371 136.494 219.307 136.1 219.328C135.78 219.328 135.486 219.382 135.22 219.488C134.953 219.584 134.718 219.723 134.516 219.904C134.324 220.086 134.169 220.299 134.052 220.544C133.945 220.779 133.892 221.035 133.892 221.312V226.4H133.076C132.937 226.4 132.798 226.4 132.66 226.4C132.521 226.4 132.382 226.4 132.244 226.4ZM149.604 226.56C148.825 226.56 148.11 226.422 147.46 226.144C146.809 225.867 146.244 225.472 145.764 224.96C145.284 224.438 144.91 223.824 144.644 223.12C144.388 222.416 144.26 221.643 144.26 220.8C144.26 220 144.398 219.259 144.676 218.576C144.964 217.883 145.358 217.275 145.86 216.752C146.361 216.23 146.942 215.824 147.604 215.536C148.265 215.248 148.98 215.104 149.748 215.104C150.292 215.104 150.82 215.19 151.332 215.36C151.854 215.52 152.324 215.75 152.74 216.048C153.166 216.336 153.513 216.667 153.78 217.04L152.628 218.24C152.318 217.931 152.004 217.675 151.684 217.472C151.374 217.259 151.054 217.099 150.724 216.992C150.404 216.886 150.078 216.832 149.748 216.832C149.225 216.832 148.734 216.934 148.276 217.136C147.828 217.328 147.433 217.6 147.092 217.952C146.761 218.304 146.5 218.726 146.308 219.216C146.116 219.696 146.02 220.224 146.02 220.8C146.02 221.408 146.11 221.963 146.292 222.464C146.484 222.955 146.75 223.376 147.092 223.728C147.433 224.08 147.838 224.352 148.308 224.544C148.788 224.726 149.316 224.816 149.892 224.816C150.244 224.816 150.59 224.768 150.932 224.672C151.273 224.576 151.593 224.438 151.892 224.256C152.19 224.075 152.462 223.862 152.708 223.616L153.572 225.024C153.326 225.312 152.99 225.574 152.564 225.808C152.148 226.043 151.678 226.23 151.156 226.368C150.644 226.496 150.126 226.56 149.604 226.56ZM157.935 226.56C157.242 226.56 156.607 226.368 156.031 225.984C155.466 225.6 155.013 225.078 154.671 224.416C154.33 223.755 154.159 223.008 154.159 222.176C154.159 221.334 154.33 220.587 154.671 219.936C155.023 219.275 155.493 218.758 156.079 218.384C156.677 218.011 157.343 217.824 158.079 217.824C158.517 217.824 158.917 217.888 159.279 218.016C159.642 218.144 159.957 218.326 160.223 218.56C160.501 218.784 160.725 219.046 160.895 219.344C161.077 219.643 161.189 219.963 161.231 220.304L160.863 220.176V218H162.527V226.4H160.863V224.4L161.247 224.288C161.183 224.576 161.05 224.859 160.847 225.136C160.655 225.403 160.405 225.643 160.095 225.856C159.797 226.07 159.461 226.24 159.087 226.368C158.725 226.496 158.341 226.56 157.935 226.56ZM158.367 225.04C158.869 225.04 159.311 224.918 159.695 224.672C160.079 224.427 160.378 224.091 160.591 223.664C160.815 223.227 160.927 222.731 160.927 222.176C160.927 221.632 160.815 221.147 160.591 220.72C160.378 220.294 160.079 219.958 159.695 219.712C159.311 219.467 158.869 219.344 158.367 219.344C157.877 219.344 157.439 219.467 157.055 219.712C156.682 219.958 156.383 220.294 156.159 220.72C155.946 221.147 155.839 221.632 155.839 222.176C155.839 222.731 155.946 223.227 156.159 223.664C156.383 224.091 156.682 224.427 157.055 224.672C157.439 224.918 157.877 225.04 158.367 225.04ZM163.996 226.4V218H165.66V219.792L165.356 219.984C165.442 219.707 165.575 219.44 165.756 219.184C165.948 218.928 166.178 218.704 166.444 218.512C166.722 218.31 167.015 218.15 167.324 218.032C167.644 217.915 167.97 217.856 168.3 217.856C168.78 217.856 169.202 217.936 169.564 218.096C169.927 218.256 170.226 218.496 170.46 218.816C170.695 219.136 170.866 219.536 170.972 220.016L170.716 219.952L170.828 219.68C170.946 219.435 171.106 219.206 171.308 218.992C171.522 218.768 171.762 218.571 172.028 218.4C172.295 218.23 172.578 218.096 172.876 218C173.175 217.904 173.468 217.856 173.756 217.856C174.386 217.856 174.903 217.984 175.308 218.24C175.724 218.496 176.034 218.886 176.236 219.408C176.45 219.931 176.556 220.582 176.556 221.36V226.4H174.892V221.456C174.892 220.976 174.828 220.587 174.7 220.288C174.583 219.979 174.402 219.75 174.156 219.6C173.911 219.451 173.596 219.376 173.212 219.376C172.914 219.376 172.631 219.43 172.364 219.536C172.108 219.632 171.884 219.771 171.692 219.952C171.5 220.134 171.351 220.347 171.244 220.592C171.138 220.827 171.084 221.088 171.084 221.376V226.4H169.42V221.424C169.42 220.987 169.356 220.619 169.228 220.32C169.1 220.011 168.914 219.776 168.668 219.616C168.423 219.456 168.124 219.376 167.772 219.376C167.474 219.376 167.196 219.43 166.94 219.536C166.684 219.632 166.46 219.771 166.268 219.952C166.076 220.123 165.927 220.331 165.82 220.576C165.714 220.811 165.66 221.067 165.66 221.344V226.4H163.996ZM177.963 229.92V218H179.627V219.92L179.371 219.776C179.435 219.456 179.616 219.152 179.915 218.864C180.213 218.566 180.576 218.326 181.003 218.144C181.44 217.952 181.888 217.856 182.347 217.856C183.104 217.856 183.776 218.043 184.363 218.416C184.949 218.79 185.413 219.302 185.755 219.952C186.096 220.603 186.267 221.35 186.267 222.192C186.267 223.024 186.096 223.771 185.755 224.432C185.424 225.083 184.965 225.6 184.379 225.984C183.792 226.358 183.131 226.544 182.395 226.544C181.904 226.544 181.429 226.448 180.971 226.256C180.512 226.054 180.123 225.798 179.803 225.488C179.483 225.179 179.285 224.859 179.211 224.528L179.627 224.304V229.92H177.963ZM182.123 225.024C182.613 225.024 183.051 224.902 183.435 224.656C183.819 224.411 184.123 224.075 184.347 223.648C184.571 223.222 184.683 222.736 184.683 222.192C184.683 221.648 184.571 221.168 184.347 220.752C184.133 220.326 183.835 219.99 183.451 219.744C183.067 219.499 182.624 219.376 182.123 219.376C181.621 219.376 181.179 219.499 180.795 219.744C180.411 219.979 180.107 220.31 179.883 220.736C179.659 221.163 179.547 221.648 179.547 222.192C179.547 222.736 179.659 223.222 179.883 223.648C180.107 224.075 180.411 224.411 180.795 224.656C181.179 224.902 181.621 225.024 182.123 225.024ZM190.2 226.56C189.603 226.56 189.08 226.422 188.632 226.144C188.195 225.867 187.854 225.478 187.608 224.976C187.374 224.475 187.256 223.878 187.256 223.184V218H188.904V222.736C188.904 223.227 188.979 223.654 189.128 224.016C189.288 224.368 189.512 224.64 189.8 224.832C190.099 225.024 190.456 225.12 190.872 225.12C191.182 225.12 191.464 225.072 191.72 224.976C191.976 224.87 192.195 224.726 192.376 224.544C192.568 224.363 192.718 224.144 192.824 223.888C192.931 223.632 192.984 223.355 192.984 223.056V218H194.632V226.4H192.984V224.64L193.272 224.448C193.144 224.843 192.926 225.2 192.616 225.52C192.318 225.84 191.96 226.096 191.544 226.288C191.128 226.47 190.68 226.56 190.2 226.56ZM198.944 226.56C198.24 226.56 197.605 226.438 197.04 226.192C196.475 225.947 196.005 225.584 195.632 225.104L196.752 224.144C197.072 224.518 197.419 224.79 197.792 224.96C198.176 225.12 198.608 225.2 199.088 225.2C199.28 225.2 199.456 225.179 199.616 225.136C199.787 225.083 199.931 225.008 200.048 224.912C200.176 224.816 200.272 224.704 200.336 224.576C200.4 224.438 200.432 224.288 200.432 224.128C200.432 223.851 200.331 223.627 200.128 223.456C200.021 223.382 199.851 223.302 199.616 223.216C199.392 223.12 199.099 223.024 198.736 222.928C198.117 222.768 197.611 222.587 197.216 222.384C196.821 222.182 196.517 221.952 196.304 221.696C196.144 221.494 196.027 221.275 195.952 221.04C195.877 220.795 195.84 220.528 195.84 220.24C195.84 219.888 195.915 219.568 196.064 219.28C196.224 218.982 196.437 218.726 196.704 218.512C196.981 218.288 197.301 218.118 197.664 218C198.037 217.883 198.432 217.824 198.848 217.824C199.243 217.824 199.632 217.878 200.016 217.984C200.411 218.091 200.773 218.246 201.104 218.448C201.435 218.651 201.712 218.891 201.936 219.168L200.992 220.208C200.789 220.006 200.565 219.83 200.32 219.68C200.085 219.52 199.845 219.398 199.6 219.312C199.355 219.227 199.131 219.184 198.928 219.184C198.704 219.184 198.501 219.206 198.32 219.248C198.139 219.291 197.984 219.355 197.856 219.44C197.739 219.526 197.648 219.632 197.584 219.76C197.52 219.888 197.488 220.032 197.488 220.192C197.499 220.331 197.531 220.464 197.584 220.592C197.648 220.71 197.733 220.811 197.84 220.896C197.957 220.982 198.133 221.072 198.368 221.168C198.603 221.264 198.901 221.355 199.264 221.44C199.797 221.579 200.235 221.734 200.576 221.904C200.928 222.064 201.205 222.251 201.408 222.464C201.621 222.667 201.771 222.902 201.856 223.168C201.941 223.435 201.984 223.734 201.984 224.064C201.984 224.544 201.845 224.976 201.568 225.36C201.301 225.734 200.939 226.027 200.48 226.24C200.021 226.454 199.509 226.56 198.944 226.56Z" fill="#609CFF"/>
<path d="M208.301 222.944C207.906 222.944 207.543 222.848 207.213 222.656C206.882 222.464 206.615 222.203 206.413 221.872C206.221 221.542 206.125 221.179 206.125 220.784C206.125 220.379 206.221 220.011 206.413 219.68C206.605 219.35 206.866 219.088 207.197 218.896C207.527 218.694 207.895 218.592 208.301 218.592C208.706 218.592 209.074 218.694 209.405 218.896C209.735 219.088 209.997 219.35 210.189 219.68C210.391 220.011 210.493 220.379 210.493 220.784C210.493 221.179 210.391 221.542 210.189 221.872C209.997 222.203 209.735 222.464 209.405 222.656C209.074 222.848 208.706 222.944 208.301 222.944ZM218.812 226.4L214.332 215.2H216.3L218.972 222C219.1 222.331 219.212 222.63 219.308 222.896C219.415 223.163 219.506 223.408 219.58 223.632C219.655 223.846 219.724 224.048 219.788 224.24C219.852 224.432 219.916 224.624 219.98 224.816L219.564 224.832C219.639 224.576 219.719 224.31 219.804 224.032C219.89 223.755 219.986 223.451 220.092 223.12C220.21 222.79 220.348 222.416 220.508 222L222.988 215.2H225.004L220.492 226.4H218.812ZM226.01 226.4V218H227.658V226.4H226.01ZM226.81 216.144C226.458 216.144 226.186 216.054 225.994 215.872C225.802 215.691 225.706 215.435 225.706 215.104C225.706 214.795 225.802 214.544 225.994 214.352C226.196 214.16 226.468 214.064 226.81 214.064C227.162 214.064 227.434 214.155 227.626 214.336C227.818 214.518 227.914 214.774 227.914 215.104C227.914 215.414 227.812 215.664 227.61 215.856C227.418 216.048 227.151 216.144 226.81 216.144ZM232.895 226.56C232.127 226.56 231.439 226.374 230.831 226C230.234 225.616 229.759 225.099 229.407 224.448C229.055 223.787 228.879 223.035 228.879 222.192C228.879 221.35 229.05 220.603 229.391 219.952C229.743 219.291 230.218 218.774 230.815 218.4C231.412 218.016 232.09 217.824 232.847 217.824C233.263 217.824 233.663 217.894 234.047 218.032C234.442 218.16 234.794 218.342 235.103 218.576C235.412 218.8 235.652 219.051 235.823 219.328C236.004 219.595 236.095 219.867 236.095 220.144L235.615 220.176V214.56H237.263V226.4H235.615V224.4H235.935C235.935 224.656 235.85 224.912 235.679 225.168C235.508 225.414 235.279 225.643 234.991 225.856C234.714 226.07 234.388 226.24 234.015 226.368C233.652 226.496 233.279 226.56 232.895 226.56ZM233.119 225.136C233.62 225.136 234.063 225.008 234.447 224.752C234.831 224.496 235.13 224.15 235.343 223.712C235.567 223.264 235.679 222.758 235.679 222.192C235.679 221.627 235.567 221.126 235.343 220.688C235.13 220.24 234.831 219.888 234.447 219.632C234.063 219.376 233.62 219.248 233.119 219.248C232.618 219.248 232.175 219.376 231.791 219.632C231.407 219.888 231.103 220.24 230.879 220.688C230.666 221.126 230.559 221.627 230.559 222.192C230.559 222.758 230.666 223.264 230.879 223.712C231.103 224.15 231.407 224.496 231.791 224.752C232.175 225.008 232.618 225.136 233.119 225.136ZM240.14 230.08L241.836 226.16L241.852 227.472L237.66 218H239.58L242.204 224.176C242.257 224.283 242.321 224.448 242.396 224.672C242.47 224.886 242.534 225.099 242.588 225.312L242.172 225.408C242.257 225.184 242.337 224.96 242.412 224.736C242.497 224.512 242.577 224.288 242.652 224.064L244.844 218H246.796L243.34 226.4L241.916 230.08H240.14ZM250.304 226.56C249.611 226.56 248.976 226.368 248.4 225.984C247.835 225.6 247.382 225.078 247.04 224.416C246.699 223.755 246.528 223.008 246.528 222.176C246.528 221.334 246.699 220.587 247.04 219.936C247.392 219.275 247.862 218.758 248.448 218.384C249.046 218.011 249.712 217.824 250.448 217.824C250.886 217.824 251.286 217.888 251.648 218.016C252.011 218.144 252.326 218.326 252.592 218.56C252.87 218.784 253.094 219.046 253.264 219.344C253.446 219.643 253.558 219.963 253.6 220.304L253.232 220.176V218H254.896V226.4H253.232V224.4L253.616 224.288C253.552 224.576 253.419 224.859 253.216 225.136C253.024 225.403 252.774 225.643 252.464 225.856C252.166 226.07 251.83 226.24 251.456 226.368C251.094 226.496 250.71 226.56 250.304 226.56ZM250.736 225.04C251.238 225.04 251.68 224.918 252.064 224.672C252.448 224.427 252.747 224.091 252.96 223.664C253.184 223.227 253.296 222.731 253.296 222.176C253.296 221.632 253.184 221.147 252.96 220.72C252.747 220.294 252.448 219.958 252.064 219.712C251.68 219.467 251.238 219.344 250.736 219.344C250.246 219.344 249.808 219.467 249.424 219.712C249.051 219.958 248.752 220.294 248.528 220.72C248.315 221.147 248.208 221.632 248.208 222.176C248.208 222.731 248.315 223.227 248.528 223.664C248.752 224.091 249.051 224.427 249.424 224.672C249.808 224.918 250.246 225.04 250.736 225.04ZM256.429 226.4V214.56H258.077V226.4H256.429ZM262.689 226.56C261.995 226.56 261.361 226.368 260.785 225.984C260.219 225.6 259.766 225.078 259.425 224.416C259.083 223.755 258.913 223.008 258.913 222.176C258.913 221.334 259.083 220.587 259.425 219.936C259.777 219.275 260.246 218.758 260.833 218.384C261.43 218.011 262.097 217.824 262.833 217.824C263.27 217.824 263.67 217.888 264.033 218.016C264.395 218.144 264.71 218.326 264.977 218.56C265.254 218.784 265.478 219.046 265.649 219.344C265.83 219.643 265.942 219.963 265.985 220.304L265.617 220.176V218H267.281V226.4H265.617V224.4L266.001 224.288C265.937 224.576 265.803 224.859 265.601 225.136C265.409 225.403 265.158 225.643 264.849 225.856C264.55 226.07 264.214 226.24 263.841 226.368C263.478 226.496 263.094 226.56 262.689 226.56ZM263.121 225.04C263.622 225.04 264.065 224.918 264.449 224.672C264.833 224.427 265.131 224.091 265.345 223.664C265.569 223.227 265.681 222.731 265.681 222.176C265.681 221.632 265.569 221.147 265.345 220.72C265.131 220.294 264.833 219.958 264.449 219.712C264.065 219.467 263.622 219.344 263.121 219.344C262.63 219.344 262.193 219.467 261.809 219.712C261.435 219.958 261.137 220.294 260.913 220.72C260.699 221.147 260.593 221.632 260.593 222.176C260.593 222.731 260.699 223.227 260.913 223.664C261.137 224.091 261.435 224.427 261.809 224.672C262.193 224.918 262.63 225.04 263.121 225.04ZM268.782 226.4V218H270.43V219.728L270.142 219.92C270.248 219.547 270.456 219.206 270.766 218.896C271.075 218.576 271.443 218.32 271.87 218.128C272.296 217.926 272.734 217.824 273.182 217.824C273.822 217.824 274.355 217.952 274.782 218.208C275.208 218.454 275.528 218.832 275.742 219.344C275.955 219.856 276.062 220.502 276.062 221.28V226.4H274.414V221.392C274.414 220.912 274.35 220.518 274.222 220.208C274.094 219.888 273.896 219.659 273.63 219.52C273.363 219.371 273.032 219.307 272.638 219.328C272.318 219.328 272.024 219.382 271.758 219.488C271.491 219.584 271.256 219.723 271.054 219.904C270.862 220.086 270.707 220.299 270.59 220.544C270.483 220.779 270.43 221.035 270.43 221.312V226.4H269.614C269.475 226.4 269.336 226.4 269.198 226.4C269.059 226.4 268.92 226.4 268.782 226.4ZM279.001 223.776L278.921 221.984L282.937 218H285.161L279.001 223.776ZM277.497 226.4V214.56H279.145V226.4H277.497ZM283.161 226.4L279.993 222.704L281.161 221.632L285.273 226.4H283.161ZM288.664 226.56C287.97 226.56 287.336 226.368 286.76 225.984C286.194 225.6 285.741 225.078 285.4 224.416C285.058 223.755 284.888 223.008 284.888 222.176C284.888 221.334 285.058 220.587 285.4 219.936C285.752 219.275 286.221 218.758 286.808 218.384C287.405 218.011 288.072 217.824 288.808 217.824C289.245 217.824 289.645 217.888 290.008 218.016C290.37 218.144 290.685 218.326 290.952 218.56C291.229 218.784 291.453 219.046 291.624 219.344C291.805 219.643 291.917 219.963 291.96 220.304L291.592 220.176V218H293.256V226.4H291.592V224.4L291.976 224.288C291.912 224.576 291.778 224.859 291.576 225.136C291.384 225.403 291.133 225.643 290.824 225.856C290.525 226.07 290.189 226.24 289.816 226.368C289.453 226.496 289.069 226.56 288.664 226.56ZM289.096 225.04C289.597 225.04 290.04 224.918 290.424 224.672C290.808 224.427 291.106 224.091 291.32 223.664C291.544 223.227 291.656 222.731 291.656 222.176C291.656 221.632 291.544 221.147 291.32 220.72C291.106 220.294 290.808 219.958 290.424 219.712C290.04 219.467 289.597 219.344 289.096 219.344C288.605 219.344 288.168 219.467 287.784 219.712C287.41 219.958 287.112 220.294 286.888 220.72C286.674 221.147 286.568 221.632 286.568 222.176C286.568 222.731 286.674 223.227 286.888 223.664C287.112 224.091 287.41 224.427 287.784 224.672C288.168 224.918 288.605 225.04 289.096 225.04ZM294.757 226.4V218H296.421V220.64L296.261 220C296.378 219.595 296.575 219.227 296.853 218.896C297.141 218.566 297.466 218.304 297.829 218.112C298.202 217.92 298.586 217.824 298.981 217.824C299.162 217.824 299.333 217.84 299.493 217.872C299.663 217.904 299.797 217.942 299.893 217.984L299.461 219.776C299.333 219.723 299.189 219.68 299.029 219.648C298.879 219.606 298.73 219.584 298.581 219.584C298.293 219.584 298.015 219.643 297.749 219.76C297.493 219.867 297.263 220.022 297.061 220.224C296.869 220.416 296.714 220.646 296.597 220.912C296.479 221.168 296.421 221.451 296.421 221.76V226.4H294.757ZM304.094 226.4V224.8H305.902V216.8H304.094V215.2H309.438V216.8H307.63V224.8H309.438V226.4H304.094ZM310.935 226.4V218H312.583V219.728L312.295 219.92C312.402 219.547 312.61 219.206 312.919 218.896C313.228 218.576 313.596 218.32 314.023 218.128C314.45 217.926 314.887 217.824 315.335 217.824C315.975 217.824 316.508 217.952 316.935 218.208C317.362 218.454 317.682 218.832 317.895 219.344C318.108 219.856 318.215 220.502 318.215 221.28V226.4H316.567V221.392C316.567 220.912 316.503 220.518 316.375 220.208C316.247 219.888 316.05 219.659 315.783 219.52C315.516 219.371 315.186 219.307 314.791 219.328C314.471 219.328 314.178 219.382 313.911 219.488C313.644 219.584 313.41 219.723 313.207 219.904C313.015 220.086 312.86 220.299 312.743 220.544C312.636 220.779 312.583 221.035 312.583 221.312V226.4H311.767C311.628 226.4 311.49 226.4 311.351 226.4C311.212 226.4 311.074 226.4 310.935 226.4ZM322.451 226.56C321.747 226.56 321.112 226.438 320.547 226.192C319.981 225.947 319.512 225.584 319.139 225.104L320.259 224.144C320.579 224.518 320.925 224.79 321.299 224.96C321.683 225.12 322.115 225.2 322.595 225.2C322.787 225.2 322.963 225.179 323.123 225.136C323.293 225.083 323.437 225.008 323.555 224.912C323.683 224.816 323.779 224.704 323.843 224.576C323.907 224.438 323.939 224.288 323.939 224.128C323.939 223.851 323.837 223.627 323.635 223.456C323.528 223.382 323.357 223.302 323.123 223.216C322.899 223.12 322.605 223.024 322.243 222.928C321.624 222.768 321.117 222.587 320.723 222.384C320.328 222.182 320.024 221.952 319.811 221.696C319.651 221.494 319.533 221.275 319.459 221.04C319.384 220.795 319.347 220.528 319.347 220.24C319.347 219.888 319.421 219.568 319.571 219.28C319.731 218.982 319.944 218.726 320.211 218.512C320.488 218.288 320.808 218.118 321.171 218C321.544 217.883 321.939 217.824 322.355 217.824C322.749 217.824 323.139 217.878 323.523 217.984C323.917 218.091 324.28 218.246 324.611 218.448C324.941 218.651 325.219 218.891 325.443 219.168L324.499 220.208C324.296 220.006 324.072 219.83 323.827 219.68C323.592 219.52 323.352 219.398 323.107 219.312C322.861 219.227 322.637 219.184 322.435 219.184C322.211 219.184 322.008 219.206 321.827 219.248C321.645 219.291 321.491 219.355 321.363 219.44C321.245 219.526 321.155 219.632 321.091 219.76C321.027 219.888 320.995 220.032 320.995 220.192C321.005 220.331 321.037 220.464 321.091 220.592C321.155 220.71 321.24 220.811 321.347 220.896C321.464 220.982 321.64 221.072 321.875 221.168C322.109 221.264 322.408 221.355 322.771 221.44C323.304 221.579 323.741 221.734 324.083 221.904C324.435 222.064 324.712 222.251 324.915 222.464C325.128 222.667 325.277 222.902 325.363 223.168C325.448 223.435 325.491 223.734 325.491 224.064C325.491 224.544 325.352 224.976 325.075 225.36C324.808 225.734 324.445 226.027 323.987 226.24C323.528 226.454 323.016 226.56 322.451 226.56ZM327.547 226.4V215.856H329.195V226.4H327.547ZM325.803 219.6V218H331.147V219.6H325.803ZM332.119 226.4V218H333.767V226.4H332.119ZM332.919 216.144C332.567 216.144 332.295 216.054 332.103 215.872C331.911 215.691 331.815 215.435 331.815 215.104C331.815 214.795 331.911 214.544 332.103 214.352C332.306 214.16 332.578 214.064 332.919 214.064C333.271 214.064 333.543 214.155 333.735 214.336C333.927 214.518 334.023 214.774 334.023 215.104C334.023 215.414 333.922 215.664 333.719 215.856C333.527 216.048 333.261 216.144 332.919 216.144ZM336.541 226.4V215.856H338.189V226.4H336.541ZM334.797 219.6V218H340.141V219.6H334.797ZM343.785 226.56C343.188 226.56 342.665 226.422 342.217 226.144C341.78 225.867 341.439 225.478 341.193 224.976C340.959 224.475 340.841 223.878 340.841 223.184V218H342.489V222.736C342.489 223.227 342.564 223.654 342.713 224.016C342.873 224.368 343.097 224.64 343.385 224.832C343.684 225.024 344.041 225.12 344.457 225.12C344.767 225.12 345.049 225.072 345.305 224.976C345.561 224.87 345.78 224.726 345.961 224.544C346.153 224.363 346.303 224.144 346.409 223.888C346.516 223.632 346.569 223.355 346.569 223.056V218H348.217V226.4H346.569V224.64L346.857 224.448C346.729 224.843 346.511 225.2 346.201 225.52C345.903 225.84 345.545 226.096 345.129 226.288C344.713 226.47 344.265 226.56 343.785 226.56ZM350.769 226.4V215.856H352.417V226.4H350.769ZM349.025 219.6V218H354.369V219.6H349.025ZM358.911 226.56C358.047 226.56 357.279 226.379 356.607 226.016C355.946 225.643 355.423 225.136 355.039 224.496C354.666 223.856 354.479 223.12 354.479 222.288C354.479 221.627 354.586 221.024 354.799 220.48C355.013 219.936 355.306 219.467 355.679 219.072C356.063 218.667 356.517 218.358 357.039 218.144C357.573 217.92 358.149 217.808 358.767 217.808C359.311 217.808 359.818 217.915 360.287 218.128C360.757 218.331 361.162 218.614 361.503 218.976C361.855 219.339 362.122 219.771 362.303 220.272C362.495 220.763 362.586 221.302 362.575 221.888L362.559 222.592H355.695L355.327 221.28H361.135L360.895 221.552V221.168C360.863 220.816 360.746 220.502 360.543 220.224C360.341 219.947 360.085 219.728 359.775 219.568C359.466 219.408 359.13 219.328 358.767 219.328C358.191 219.328 357.706 219.44 357.311 219.664C356.917 219.878 356.618 220.198 356.415 220.624C356.213 221.04 356.111 221.558 356.111 222.176C356.111 222.763 356.234 223.275 356.479 223.712C356.725 224.139 357.071 224.47 357.519 224.704C357.967 224.939 358.485 225.056 359.071 225.056C359.487 225.056 359.871 224.987 360.223 224.848C360.586 224.71 360.975 224.459 361.391 224.096L362.223 225.264C361.967 225.52 361.653 225.744 361.279 225.936C360.917 226.128 360.527 226.283 360.111 226.4C359.706 226.507 359.306 226.56 358.911 226.56ZM371.027 226.56C370.205 226.56 369.469 226.374 368.819 226C368.179 225.616 367.672 225.099 367.299 224.448C366.925 223.787 366.739 223.035 366.739 222.192C366.739 221.35 366.925 220.603 367.299 219.952C367.672 219.291 368.179 218.774 368.819 218.4C369.469 218.016 370.205 217.824 371.027 217.824C371.837 217.824 372.563 218.016 373.203 218.4C373.853 218.774 374.365 219.291 374.739 219.952C375.112 220.603 375.299 221.35 375.299 222.192C375.299 223.035 375.112 223.787 374.739 224.448C374.365 225.099 373.853 225.616 373.203 226C372.563 226.374 371.837 226.56 371.027 226.56ZM371.027 225.056C371.528 225.056 371.976 224.934 372.371 224.688C372.765 224.432 373.075 224.091 373.299 223.664C373.523 223.227 373.629 222.736 373.619 222.192C373.629 221.638 373.523 221.147 373.299 220.72C373.075 220.283 372.765 219.942 372.371 219.696C371.976 219.451 371.528 219.328 371.027 219.328C370.525 219.328 370.072 219.456 369.667 219.712C369.272 219.958 368.963 220.299 368.739 220.736C368.515 221.163 368.408 221.648 368.419 222.192C368.408 222.736 368.515 223.227 368.739 223.664C368.963 224.091 369.272 224.432 369.667 224.688C370.072 224.934 370.525 225.056 371.027 225.056ZM376.894 226.4V217.056C376.894 216.576 377.001 216.15 377.214 215.776C377.427 215.403 377.721 215.11 378.094 214.896C378.467 214.683 378.899 214.576 379.39 214.576C379.731 214.576 380.051 214.64 380.35 214.768C380.649 214.896 380.889 215.067 381.07 215.28L380.51 216.544C380.371 216.416 380.217 216.315 380.046 216.24C379.886 216.155 379.731 216.112 379.582 216.112C379.358 216.112 379.166 216.15 379.006 216.224C378.857 216.288 378.745 216.395 378.67 216.544C378.595 216.683 378.558 216.854 378.558 217.056V226.4H377.726C377.587 226.4 377.449 226.4 377.31 226.4C377.171 226.4 377.033 226.4 376.894 226.4ZM375.55 219.664V218.144H380.542V219.664H375.55ZM387.692 226.4V216.864H384.556V215.2H392.652V216.864H389.42V226.4H387.692ZM395.893 226.56C395.029 226.56 394.261 226.379 393.589 226.016C392.927 225.643 392.405 225.136 392.021 224.496C391.647 223.856 391.461 223.12 391.461 222.288C391.461 221.627 391.567 221.024 391.781 220.48C391.994 219.936 392.287 219.467 392.661 219.072C393.045 218.667 393.498 218.358 394.021 218.144C394.554 217.92 395.13 217.808 395.749 217.808C396.293 217.808 396.799 217.915 397.269 218.128C397.738 218.331 398.143 218.614 398.485 218.976C398.837 219.339 399.103 219.771 399.285 220.272C399.477 220.763 399.567 221.302 399.557 221.888L399.541 222.592H392.677L392.309 221.28H398.117L397.877 221.552V221.168C397.845 220.816 397.727 220.502 397.525 220.224C397.322 219.947 397.066 219.728 396.757 219.568C396.447 219.408 396.111 219.328 395.749 219.328C395.173 219.328 394.687 219.44 394.293 219.664C393.898 219.878 393.599 220.198 393.397 220.624C393.194 221.04 393.093 221.558 393.093 222.176C393.093 222.763 393.215 223.275 393.461 223.712C393.706 224.139 394.053 224.47 394.501 224.704C394.949 224.939 395.466 225.056 396.053 225.056C396.469 225.056 396.853 224.987 397.205 224.848C397.567 224.71 397.957 224.459 398.373 224.096L399.205 225.264C398.949 225.52 398.634 225.744 398.261 225.936C397.898 226.128 397.509 226.283 397.093 226.4C396.687 226.507 396.287 226.56 395.893 226.56ZM404.116 226.56C403.337 226.56 402.638 226.368 402.02 225.984C401.412 225.6 400.926 225.078 400.564 224.416C400.212 223.755 400.036 223.014 400.036 222.192C400.036 221.371 400.212 220.63 400.564 219.968C400.926 219.307 401.412 218.784 402.02 218.4C402.638 218.016 403.337 217.824 404.116 217.824C404.862 217.824 405.54 217.979 406.148 218.288C406.766 218.587 407.236 218.998 407.556 219.52L406.644 220.64C406.473 220.395 406.254 220.171 405.988 219.968C405.721 219.766 405.438 219.606 405.14 219.488C404.841 219.371 404.553 219.312 404.276 219.312C403.764 219.312 403.305 219.44 402.9 219.696C402.505 219.942 402.19 220.283 401.956 220.72C401.721 221.158 401.604 221.648 401.604 222.192C401.604 222.736 401.726 223.227 401.972 223.664C402.217 224.091 402.542 224.432 402.948 224.688C403.353 224.944 403.801 225.072 404.292 225.072C404.58 225.072 404.857 225.024 405.124 224.928C405.401 224.832 405.668 224.688 405.924 224.496C406.18 224.304 406.42 224.07 406.644 223.792L407.556 224.912C407.214 225.392 406.724 225.787 406.084 226.096C405.454 226.406 404.798 226.56 404.116 226.56ZM408.31 226.4V214.56H409.958V219.728L409.67 219.92C409.777 219.547 409.985 219.206 410.294 218.896C410.603 218.576 410.971 218.32 411.398 218.128C411.825 217.926 412.262 217.824 412.71 217.824C413.35 217.824 413.883 217.952 414.31 218.208C414.737 218.454 415.057 218.832 415.27 219.344C415.483 219.856 415.59 220.502 415.59 221.28V226.4H413.942V221.392C413.942 220.912 413.878 220.518 413.75 220.208C413.622 219.888 413.425 219.659 413.158 219.52C412.891 219.371 412.561 219.307 412.166 219.328C411.846 219.328 411.553 219.382 411.286 219.488C411.019 219.584 410.785 219.723 410.582 219.904C410.39 220.086 410.235 220.299 410.118 220.544C410.011 220.779 409.958 221.035 409.958 221.312V226.4H409.142C409.003 226.4 408.865 226.4 408.726 226.4C408.587 226.4 408.449 226.4 408.31 226.4ZM417.026 226.4V218H418.674V219.728L418.386 219.92C418.492 219.547 418.7 219.206 419.01 218.896C419.319 218.576 419.687 218.32 420.114 218.128C420.54 217.926 420.978 217.824 421.426 217.824C422.066 217.824 422.599 217.952 423.026 218.208C423.452 218.454 423.772 218.832 423.986 219.344C424.199 219.856 424.306 220.502 424.306 221.28V226.4H422.658V221.392C422.658 220.912 422.594 220.518 422.466 220.208C422.338 219.888 422.14 219.659 421.874 219.52C421.607 219.371 421.276 219.307 420.882 219.328C420.562 219.328 420.268 219.382 420.002 219.488C419.735 219.584 419.5 219.723 419.298 219.904C419.106 220.086 418.951 220.299 418.834 220.544C418.727 220.779 418.674 221.035 418.674 221.312V226.4H417.858C417.719 226.4 417.58 226.4 417.442 226.4C417.303 226.4 417.164 226.4 417.026 226.4ZM429.517 226.56C428.696 226.56 427.96 226.374 427.309 226C426.669 225.616 426.163 225.099 425.789 224.448C425.416 223.787 425.229 223.035 425.229 222.192C425.229 221.35 425.416 220.603 425.789 219.952C426.163 219.291 426.669 218.774 427.309 218.4C427.96 218.016 428.696 217.824 429.517 217.824C430.328 217.824 431.053 218.016 431.693 218.4C432.344 218.774 432.856 219.291 433.229 219.952C433.603 220.603 433.789 221.35 433.789 222.192C433.789 223.035 433.603 223.787 433.229 224.448C432.856 225.099 432.344 225.616 431.693 226C431.053 226.374 430.328 226.56 429.517 226.56ZM429.517 225.056C430.019 225.056 430.467 224.934 430.861 224.688C431.256 224.432 431.565 224.091 431.789 223.664C432.013 223.227 432.12 222.736 432.109 222.192C432.12 221.638 432.013 221.147 431.789 220.72C431.565 220.283 431.256 219.942 430.861 219.696C430.467 219.451 430.019 219.328 429.517 219.328C429.016 219.328 428.563 219.456 428.157 219.712C427.763 219.958 427.453 220.299 427.229 220.736C427.005 221.163 426.899 221.648 426.909 222.192C426.899 222.736 427.005 223.227 427.229 223.664C427.453 224.091 427.763 224.432 428.157 224.688C428.563 224.934 429.016 225.056 429.517 225.056ZM434.817 226.4V214.56H436.465V226.4H434.817ZM441.621 226.56C440.799 226.56 440.063 226.374 439.413 226C438.773 225.616 438.266 225.099 437.893 224.448C437.519 223.787 437.333 223.035 437.333 222.192C437.333 221.35 437.519 220.603 437.893 219.952C438.266 219.291 438.773 218.774 439.413 218.4C440.063 218.016 440.799 217.824 441.621 217.824C442.431 217.824 443.157 218.016 443.797 218.4C444.447 218.774 444.959 219.291 445.333 219.952C445.706 220.603 445.893 221.35 445.893 222.192C445.893 223.035 445.706 223.787 445.333 224.448C444.959 225.099 444.447 225.616 443.797 226C443.157 226.374 442.431 226.56 441.621 226.56ZM441.621 225.056C442.122 225.056 442.57 224.934 442.965 224.688C443.359 224.432 443.669 224.091 443.893 223.664C444.117 223.227 444.223 222.736 444.213 222.192C444.223 221.638 444.117 221.147 443.893 220.72C443.669 220.283 443.359 219.942 442.965 219.696C442.57 219.451 442.122 219.328 441.621 219.328C441.119 219.328 440.666 219.456 440.261 219.712C439.866 219.958 439.557 220.299 439.333 220.736C439.109 221.163 439.002 221.648 439.013 222.192C439.002 222.736 439.109 223.227 439.333 223.664C439.557 224.091 439.866 224.432 440.261 224.688C440.666 224.934 441.119 225.056 441.621 225.056ZM450.648 230.08C450.051 230.08 449.454 229.984 448.856 229.792C448.27 229.611 447.795 229.371 447.432 229.072L448.04 227.792C448.254 227.952 448.504 228.091 448.792 228.208C449.08 228.336 449.384 228.432 449.704 228.496C450.024 228.571 450.339 228.608 450.648 228.608C451.235 228.608 451.726 228.512 452.12 228.32C452.515 228.128 452.814 227.846 453.016 227.472C453.219 227.099 453.32 226.635 453.32 226.08V224.464L453.496 224.576C453.443 224.907 453.267 225.227 452.968 225.536C452.68 225.835 452.318 226.08 451.88 226.272C451.443 226.464 450.995 226.56 450.536 226.56C449.736 226.56 449.022 226.374 448.392 226C447.774 225.616 447.283 225.099 446.92 224.448C446.558 223.787 446.376 223.035 446.376 222.192C446.376 221.35 446.552 220.603 446.904 219.952C447.267 219.291 447.758 218.774 448.376 218.4C449.006 218.016 449.71 217.824 450.488 217.824C450.808 217.824 451.118 217.867 451.416 217.952C451.715 218.027 451.992 218.139 452.248 218.288C452.504 218.427 452.734 218.582 452.936 218.752C453.139 218.923 453.304 219.104 453.432 219.296C453.56 219.488 453.64 219.67 453.672 219.84L453.32 219.968V218H454.968V225.888C454.968 226.56 454.867 227.152 454.664 227.664C454.472 228.187 454.19 228.624 453.816 228.976C453.443 229.339 452.99 229.611 452.456 229.792C451.923 229.984 451.32 230.08 450.648 230.08ZM450.712 225.04C451.235 225.04 451.699 224.918 452.104 224.672C452.51 224.427 452.824 224.091 453.048 223.664C453.272 223.238 453.384 222.747 453.384 222.192C453.384 221.638 453.267 221.147 453.032 220.72C452.808 220.283 452.494 219.942 452.088 219.696C451.694 219.451 451.235 219.328 450.712 219.328C450.2 219.328 449.742 219.456 449.336 219.712C448.942 219.958 448.627 220.299 448.392 220.736C448.168 221.163 448.056 221.648 448.056 222.192C448.056 222.736 448.168 223.227 448.392 223.664C448.627 224.091 448.942 224.427 449.336 224.672C449.742 224.918 450.2 225.04 450.712 225.04ZM457.887 230.08L459.583 226.16L459.599 227.472L455.407 218H457.327L459.951 224.176C460.004 224.283 460.068 224.448 460.143 224.672C460.218 224.886 460.282 225.099 460.335 225.312L459.919 225.408C460.004 225.184 460.084 224.96 460.159 224.736C460.244 224.512 460.324 224.288 460.399 224.064L462.591 218H464.543L461.087 226.4L459.663 230.08H457.887Z" fill="#666666"/>
</svg>
