<svg width="584" height="311" viewBox="0 0 584 311" fill="none" xmlns="http://www.w3.org/2000/svg">
<rect x="-0.448398" y="1.63675" width="60.5213" height="19.1176" rx="9.5588" transform="matrix(-0.868809 0.495148 0.495144 0.868811 277.517 81.4367)" fill="#EF5350" stroke="#EF5350" stroke-width="2.40001"/>
<rect x="-0.448398" y="1.63675" width="60.5213" height="19.1176" rx="9.5588" transform="matrix(-0.868809 0.495148 0.495144 0.868811 347.862 101.987)" fill="#FBBC04" stroke="#FBBC04" stroke-width="2.40001"/>
<rect x="0.448398" y="1.63675" width="60.5213" height="19.1176" rx="9.5588" transform="matrix(0.868809 0.495148 -0.495144 0.868811 236.022 101.543)" fill="#4285F4" stroke="#4285F4" stroke-width="2.40001"/>
<path d="M353.795 120.909C351.181 125.495 345.344 127.094 340.757 124.48L304.785 103.979C300.199 101.365 298.6 95.5282 301.213 90.9416C303.827 86.355 309.665 84.7558 314.251 87.3698L350.223 107.871C354.81 110.485 356.409 116.322 353.795 120.909Z" fill="#4CAF50" stroke="#4CAF50" stroke-width="2.40001"/>
<path d="M110.638 201.744C108.895 201.744 107.267 201.435 105.754 200.816C104.24 200.174 102.91 199.291 101.763 198.167C100.617 197.043 99.7221 195.736 99.08 194.245C98.4608 192.732 98.1512 191.103 98.1512 189.36C98.1512 187.64 98.4608 186.035 99.08 184.544C99.7221 183.054 100.605 181.758 101.729 180.657C102.875 179.533 104.206 178.662 105.719 178.043C107.233 177.424 108.861 177.114 110.604 177.114C111.82 177.114 113.001 177.286 114.147 177.63C115.317 177.974 116.372 178.456 117.312 179.075C118.252 179.694 119.021 180.405 119.617 181.208L117.209 183.719C116.521 183.054 115.81 182.503 115.076 182.068C114.365 181.632 113.631 181.299 112.874 181.07C112.118 180.841 111.361 180.726 110.604 180.726C109.366 180.726 108.219 180.944 107.164 181.38C106.132 181.815 105.215 182.423 104.412 183.203C103.632 183.983 103.025 184.9 102.589 185.955C102.153 186.987 101.935 188.122 101.935 189.36C101.935 190.553 102.165 191.688 102.623 192.766C103.082 193.821 103.713 194.75 104.515 195.552C105.341 196.355 106.281 196.986 107.336 197.444C108.414 197.903 109.549 198.132 110.742 198.132C111.636 198.132 112.485 198.006 113.287 197.754C114.09 197.479 114.801 197.1 115.42 196.619C116.039 196.137 116.521 195.587 116.865 194.968C117.209 194.325 117.381 193.649 117.381 192.938V192.25L117.897 192.732H110.535V189.051H121.199C121.245 189.303 121.28 189.555 121.302 189.808C121.325 190.037 121.337 190.266 121.337 190.496C121.36 190.702 121.371 190.908 121.371 191.115C121.371 192.697 121.096 194.142 120.546 195.449C119.995 196.734 119.227 197.846 118.241 198.786C117.278 199.726 116.142 200.46 114.835 200.988C113.551 201.492 112.152 201.744 110.638 201.744ZM131.713 201.744C129.947 201.744 128.365 201.343 126.966 200.54C125.59 199.715 124.5 198.603 123.698 197.204C122.895 195.782 122.494 194.165 122.494 192.353C122.494 190.541 122.895 188.936 123.698 187.537C124.5 186.115 125.59 185.003 126.966 184.2C128.365 183.375 129.947 182.962 131.713 182.962C133.456 182.962 135.015 183.375 136.391 184.2C137.79 185.003 138.891 186.115 139.694 187.537C140.496 188.936 140.898 190.541 140.898 192.353C140.898 194.165 140.496 195.782 139.694 197.204C138.891 198.603 137.79 199.715 136.391 200.54C135.015 201.343 133.456 201.744 131.713 201.744ZM131.713 198.511C132.791 198.511 133.754 198.247 134.602 197.72C135.451 197.169 136.116 196.435 136.598 195.518C137.079 194.578 137.309 193.523 137.286 192.353C137.309 191.161 137.079 190.106 136.598 189.188C136.116 188.248 135.451 187.514 134.602 186.987C133.754 186.459 132.791 186.196 131.713 186.196C130.635 186.196 129.66 186.471 128.789 187.021C127.94 187.549 127.275 188.283 126.794 189.223C126.312 190.14 126.083 191.184 126.106 192.353C126.083 193.523 126.312 194.578 126.794 195.518C127.275 196.435 127.94 197.169 128.789 197.72C129.66 198.247 130.635 198.511 131.713 198.511ZM151.157 201.744C149.391 201.744 147.809 201.343 146.41 200.54C145.034 199.715 143.944 198.603 143.142 197.204C142.339 195.782 141.938 194.165 141.938 192.353C141.938 190.541 142.339 188.936 143.142 187.537C143.944 186.115 145.034 185.003 146.41 184.2C147.809 183.375 149.391 182.962 151.157 182.962C152.9 182.962 154.459 183.375 155.835 184.2C157.234 185.003 158.335 186.115 159.138 187.537C159.94 188.936 160.342 190.541 160.342 192.353C160.342 194.165 159.94 195.782 159.138 197.204C158.335 198.603 157.234 199.715 155.835 200.54C154.459 201.343 152.9 201.744 151.157 201.744ZM151.157 198.511C152.235 198.511 153.198 198.247 154.047 197.72C154.895 197.169 155.56 196.435 156.042 195.518C156.523 194.578 156.753 193.523 156.73 192.353C156.753 191.161 156.523 190.106 156.042 189.188C155.56 188.248 154.895 187.514 154.047 186.987C153.198 186.459 152.235 186.196 151.157 186.196C150.079 186.196 149.104 186.471 148.233 187.021C147.384 187.549 146.719 188.283 146.238 189.223C145.756 190.14 145.527 191.184 145.55 192.353C145.527 193.523 145.756 194.578 146.238 195.518C146.719 196.435 147.384 197.169 148.233 197.72C149.104 198.247 150.079 198.511 151.157 198.511ZM170.567 209.312C169.282 209.312 167.998 209.106 166.714 208.693C165.452 208.303 164.432 207.787 163.652 207.145L164.959 204.393C165.418 204.737 165.957 205.035 166.576 205.288C167.195 205.563 167.849 205.769 168.537 205.907C169.225 206.067 169.902 206.148 170.567 206.148C171.828 206.148 172.883 205.941 173.731 205.528C174.58 205.116 175.222 204.508 175.658 203.705C176.094 202.903 176.311 201.905 176.311 200.712V197.238L176.69 197.479C176.575 198.19 176.197 198.878 175.555 199.543C174.935 200.185 174.156 200.712 173.215 201.125C172.275 201.538 171.312 201.744 170.326 201.744C168.606 201.744 167.069 201.343 165.716 200.54C164.386 199.715 163.331 198.603 162.551 197.204C161.772 195.782 161.382 194.165 161.382 192.353C161.382 190.541 161.76 188.936 162.517 187.537C163.297 186.115 164.352 185.003 165.682 184.2C167.035 183.375 168.548 182.962 170.223 182.962C170.911 182.962 171.576 183.054 172.218 183.237C172.86 183.398 173.456 183.639 174.007 183.96C174.557 184.258 175.05 184.59 175.486 184.957C175.922 185.324 176.277 185.714 176.552 186.127C176.827 186.54 176.999 186.929 177.068 187.296L176.311 187.572V183.34H179.855V200.3C179.855 201.744 179.637 203.017 179.201 204.118C178.788 205.242 178.181 206.182 177.378 206.939C176.575 207.719 175.6 208.303 174.454 208.693C173.307 209.106 172.011 209.312 170.567 209.312ZM170.704 198.476C171.828 198.476 172.826 198.213 173.697 197.685C174.568 197.158 175.245 196.435 175.727 195.518C176.208 194.601 176.449 193.546 176.449 192.353C176.449 191.161 176.197 190.106 175.692 189.188C175.211 188.248 174.534 187.514 173.663 186.987C172.814 186.459 171.828 186.196 170.704 186.196C169.603 186.196 168.617 186.471 167.746 187.021C166.897 187.549 166.221 188.283 165.716 189.223C165.235 190.14 164.994 191.184 164.994 192.353C164.994 193.523 165.235 194.578 165.716 195.518C166.221 196.435 166.897 197.158 167.746 197.685C168.617 198.213 169.603 198.476 170.704 198.476ZM183.171 201.4V175.944H186.715V201.4H183.171ZM198.108 201.744C196.251 201.744 194.599 201.355 193.155 200.575C191.733 199.772 190.609 198.683 189.783 197.307C188.981 195.931 188.579 194.348 188.579 192.56C188.579 191.138 188.809 189.842 189.267 188.672C189.726 187.503 190.357 186.494 191.159 185.645C191.985 184.774 192.96 184.109 194.083 183.65C195.23 183.168 196.468 182.928 197.799 182.928C198.968 182.928 200.058 183.157 201.067 183.616C202.076 184.051 202.947 184.659 203.681 185.439C204.438 186.219 205.011 187.147 205.401 188.225C205.814 189.28 206.009 190.438 205.986 191.7L205.951 193.213H191.194L190.403 190.392H202.89L202.374 190.977V190.152C202.305 189.395 202.053 188.718 201.617 188.122C201.181 187.526 200.631 187.056 199.966 186.712C199.301 186.368 198.578 186.196 197.799 186.196C196.56 186.196 195.517 186.436 194.668 186.918C193.82 187.377 193.178 188.065 192.742 188.982C192.306 189.876 192.088 190.989 192.088 192.319C192.088 193.58 192.352 194.681 192.879 195.621C193.407 196.539 194.152 197.25 195.115 197.754C196.079 198.259 197.191 198.511 198.452 198.511C199.347 198.511 200.172 198.362 200.929 198.064C201.709 197.766 202.546 197.227 203.44 196.447L205.229 198.958C204.679 199.508 204.002 199.99 203.199 200.403C202.42 200.816 201.583 201.148 200.688 201.4C199.817 201.63 198.957 201.744 198.108 201.744ZM216.932 201.4V177.32H226.358C228.078 177.32 229.626 177.607 231.002 178.18C232.401 178.754 233.593 179.579 234.58 180.657C235.566 181.735 236.322 183.008 236.85 184.476C237.377 185.943 237.641 187.572 237.641 189.36C237.641 191.149 237.377 192.789 236.85 194.28C236.322 195.747 235.566 197.02 234.58 198.098C233.616 199.153 232.435 199.967 231.036 200.54C229.637 201.114 228.078 201.4 226.358 201.4H216.932ZM220.647 198.201L220.544 197.823H226.186C227.401 197.823 228.479 197.628 229.42 197.238C230.383 196.848 231.185 196.298 231.828 195.587C232.493 194.853 232.997 193.959 233.341 192.904C233.685 191.849 233.857 190.668 233.857 189.36C233.857 188.053 233.685 186.884 233.341 185.852C232.997 184.797 232.493 183.902 231.828 183.168C231.162 182.435 230.36 181.873 229.42 181.483C228.479 181.093 227.401 180.898 226.186 180.898H220.441L220.647 180.588V198.201ZM248.479 201.744C246.621 201.744 244.97 201.355 243.525 200.575C242.103 199.772 240.98 198.683 240.154 197.307C239.351 195.931 238.95 194.348 238.95 192.56C238.95 191.138 239.179 189.842 239.638 188.672C240.097 187.503 240.727 186.494 241.53 185.645C242.356 184.774 243.33 184.109 244.454 183.65C245.601 183.168 246.839 182.928 248.169 182.928C249.339 182.928 250.428 183.157 251.437 183.616C252.446 184.051 253.318 184.659 254.052 185.439C254.808 186.219 255.382 187.147 255.772 188.225C256.184 189.28 256.379 190.438 256.356 191.7L256.322 193.213H241.564L240.773 190.392H253.26L252.744 190.977V190.152C252.676 189.395 252.423 188.718 251.988 188.122C251.552 187.526 251.001 187.056 250.336 186.712C249.671 186.368 248.949 186.196 248.169 186.196C246.931 186.196 245.887 186.436 245.039 186.918C244.19 187.377 243.548 188.065 243.112 188.982C242.677 189.876 242.459 190.989 242.459 192.319C242.459 193.58 242.723 194.681 243.25 195.621C243.777 196.539 244.523 197.25 245.486 197.754C246.449 198.259 247.561 198.511 248.823 198.511C249.717 198.511 250.543 198.362 251.3 198.064C252.079 197.766 252.916 197.227 253.811 196.447L255.6 198.958C255.049 199.508 254.373 199.99 253.57 200.403C252.79 200.816 251.953 201.148 251.059 201.4C250.187 201.63 249.327 201.744 248.479 201.744ZM264.068 201.4L256.431 183.34H260.25L265.754 196.86L265.1 197.169L270.982 183.34H274.629L266.614 201.4H264.068ZM284.075 201.744C282.217 201.744 280.566 201.355 279.121 200.575C277.699 199.772 276.576 198.683 275.75 197.307C274.947 195.931 274.546 194.348 274.546 192.56C274.546 191.138 274.775 189.842 275.234 188.672C275.693 187.503 276.323 186.494 277.126 185.645C277.952 184.774 278.926 184.109 280.05 183.65C281.197 183.168 282.435 182.928 283.765 182.928C284.935 182.928 286.024 183.157 287.033 183.616C288.042 184.051 288.914 184.659 289.648 185.439C290.404 186.219 290.978 187.147 291.368 188.225C291.78 189.28 291.975 190.438 291.952 191.7L291.918 193.213H277.16L276.369 190.392H288.856L288.34 190.977V190.152C288.272 189.395 288.019 188.718 287.584 188.122C287.148 187.526 286.597 187.056 285.932 186.712C285.267 186.368 284.545 186.196 283.765 186.196C282.527 186.196 281.483 186.436 280.635 186.918C279.786 187.377 279.144 188.065 278.708 188.982C278.273 189.876 278.055 190.989 278.055 192.319C278.055 193.58 278.319 194.681 278.846 195.621C279.373 196.539 280.119 197.25 281.082 197.754C282.045 198.259 283.157 198.511 284.419 198.511C285.313 198.511 286.139 198.362 286.896 198.064C287.675 197.766 288.512 197.227 289.407 196.447L291.196 198.958C290.645 199.508 289.969 199.99 289.166 200.403C288.386 200.816 287.549 201.148 286.655 201.4C285.783 201.63 284.923 201.744 284.075 201.744ZM294.152 201.4V175.944H297.695V201.4H294.152ZM308.779 201.744C307.013 201.744 305.431 201.343 304.032 200.54C302.656 199.715 301.567 198.603 300.764 197.204C299.961 195.782 299.56 194.165 299.56 192.353C299.56 190.541 299.961 188.936 300.764 187.537C301.567 186.115 302.656 185.003 304.032 184.2C305.431 183.375 307.013 182.962 308.779 182.962C310.522 182.962 312.082 183.375 313.458 184.2C314.857 185.003 315.957 186.115 316.76 187.537C317.563 188.936 317.964 190.541 317.964 192.353C317.964 194.165 317.563 195.782 316.76 197.204C315.957 198.603 314.857 199.715 313.458 200.54C312.082 201.343 310.522 201.744 308.779 201.744ZM308.779 198.511C309.857 198.511 310.82 198.247 311.669 197.72C312.517 197.169 313.182 196.435 313.664 195.518C314.146 194.578 314.375 193.523 314.352 192.353C314.375 191.161 314.146 190.106 313.664 189.188C313.182 188.248 312.517 187.514 311.669 186.987C310.82 186.459 309.857 186.196 308.779 186.196C307.701 186.196 306.727 186.471 305.855 187.021C305.007 187.549 304.342 188.283 303.86 189.223C303.378 190.14 303.149 191.184 303.172 192.353C303.149 193.523 303.378 194.578 303.86 195.518C304.342 196.435 305.007 197.169 305.855 197.72C306.727 198.247 307.701 198.511 308.779 198.511ZM320.105 208.968V183.34H323.682V187.468L323.132 187.159C323.27 186.471 323.66 185.817 324.302 185.198C324.944 184.556 325.724 184.04 326.641 183.65C327.581 183.237 328.544 183.031 329.53 183.031C331.159 183.031 332.604 183.432 333.865 184.235C335.126 185.037 336.124 186.138 336.858 187.537C337.592 188.936 337.959 190.541 337.959 192.353C337.959 194.142 337.592 195.747 336.858 197.169C336.147 198.568 335.161 199.68 333.899 200.506C332.638 201.309 331.216 201.71 329.634 201.71C328.579 201.71 327.558 201.504 326.572 201.091C325.586 200.655 324.749 200.105 324.061 199.44C323.373 198.775 322.949 198.087 322.788 197.376L323.682 196.894V208.968H320.105ZM329.049 198.442C330.104 198.442 331.044 198.178 331.87 197.651C332.695 197.123 333.349 196.401 333.831 195.484C334.312 194.566 334.553 193.523 334.553 192.353C334.553 191.184 334.312 190.152 333.831 189.257C333.372 188.34 332.73 187.617 331.904 187.09C331.079 186.563 330.127 186.299 329.049 186.299C327.971 186.299 327.019 186.563 326.194 187.09C325.368 187.595 324.714 188.305 324.233 189.223C323.751 190.14 323.51 191.184 323.51 192.353C323.51 193.523 323.751 194.566 324.233 195.484C324.714 196.401 325.368 197.123 326.194 197.651C327.019 198.178 327.971 198.442 329.049 198.442ZM348.515 201.744C346.657 201.744 345.006 201.355 343.561 200.575C342.139 199.772 341.015 198.683 340.19 197.307C339.387 195.931 338.986 194.348 338.986 192.56C338.986 191.138 339.215 189.842 339.674 188.672C340.132 187.503 340.763 186.494 341.566 185.645C342.391 184.774 343.366 184.109 344.49 183.65C345.636 183.168 346.875 182.928 348.205 182.928C349.375 182.928 350.464 183.157 351.473 183.616C352.482 184.051 353.353 184.659 354.087 185.439C354.844 186.219 355.417 187.147 355.807 188.225C356.22 189.28 356.415 190.438 356.392 191.7L356.358 193.213H341.6L340.809 190.392H353.296L352.78 190.977V190.152C352.711 189.395 352.459 188.718 352.023 188.122C351.588 187.526 351.037 187.056 350.372 186.712C349.707 186.368 348.985 186.196 348.205 186.196C346.967 186.196 345.923 186.436 345.074 186.918C344.226 187.377 343.584 188.065 343.148 188.982C342.712 189.876 342.494 190.989 342.494 192.319C342.494 193.58 342.758 194.681 343.286 195.621C343.813 196.539 344.558 197.25 345.522 197.754C346.485 198.259 347.597 198.511 348.859 198.511C349.753 198.511 350.579 198.362 351.335 198.064C352.115 197.766 352.952 197.227 353.847 196.447L355.635 198.958C355.085 199.508 354.408 199.99 353.606 200.403C352.826 200.816 351.989 201.148 351.095 201.4C350.223 201.63 349.363 201.744 348.515 201.744ZM358.523 201.4V183.34H362.1V189.016L361.756 187.64C362.009 186.769 362.433 185.978 363.029 185.267C363.648 184.556 364.348 183.994 365.128 183.581C365.93 183.168 366.756 182.962 367.604 182.962C367.994 182.962 368.361 182.996 368.705 183.065C369.072 183.134 369.359 183.214 369.565 183.306L368.636 187.159C368.361 187.044 368.052 186.952 367.708 186.884C367.387 186.792 367.065 186.746 366.744 186.746C366.125 186.746 365.529 186.872 364.956 187.124C364.405 187.354 363.912 187.686 363.476 188.122C363.064 188.535 362.731 189.028 362.479 189.601C362.227 190.152 362.1 190.759 362.1 191.424V201.4H358.523ZM390.26 201.744C388.517 201.744 386.889 201.435 385.375 200.816C383.862 200.174 382.532 199.291 381.385 198.167C380.238 197.043 379.344 195.736 378.702 194.245C378.082 192.732 377.773 191.103 377.773 189.36C377.773 187.64 378.082 186.035 378.702 184.544C379.344 183.054 380.227 181.758 381.35 180.657C382.497 179.533 383.827 178.662 385.341 178.043C386.855 177.424 388.483 177.114 390.226 177.114C391.441 177.114 392.622 177.286 393.769 177.63C394.939 177.974 395.993 178.456 396.934 179.075C397.874 179.694 398.642 180.405 399.239 181.208L396.831 183.719C396.143 183.054 395.432 182.503 394.698 182.068C393.987 181.632 393.253 181.299 392.496 181.07C391.739 180.841 390.983 180.726 390.226 180.726C388.987 180.726 387.841 180.944 386.786 181.38C385.754 181.815 384.836 182.423 384.034 183.203C383.254 183.983 382.646 184.9 382.21 185.955C381.775 186.987 381.557 188.122 381.557 189.36C381.557 190.553 381.786 191.688 382.245 192.766C382.704 193.821 383.334 194.75 384.137 195.552C384.962 196.355 385.903 196.986 386.958 197.444C388.036 197.903 389.171 198.132 390.363 198.132C391.258 198.132 392.106 198.006 392.909 197.754C393.712 197.479 394.423 197.1 395.042 196.619C395.661 196.137 396.143 195.587 396.487 194.968C396.831 194.325 397.003 193.649 397.003 192.938V192.25L397.519 192.732H390.157V189.051H400.821C400.867 189.303 400.901 189.555 400.924 189.808C400.947 190.037 400.959 190.266 400.959 190.496C400.981 190.702 400.993 190.908 400.993 191.115C400.993 192.697 400.718 194.142 400.167 195.449C399.617 196.734 398.849 197.846 397.863 198.786C396.899 199.726 395.764 200.46 394.457 200.988C393.173 201.492 391.774 201.744 390.26 201.744ZM403.216 201.4V183.34H406.794V189.016L406.45 187.64C406.702 186.769 407.126 185.978 407.722 185.267C408.342 184.556 409.041 183.994 409.821 183.581C410.624 183.168 411.449 182.962 412.298 182.962C412.688 182.962 413.054 182.996 413.398 183.065C413.765 183.134 414.052 183.214 414.258 183.306L413.33 187.159C413.054 187.044 412.745 186.952 412.401 186.884C412.08 186.792 411.759 186.746 411.438 186.746C410.818 186.746 410.222 186.872 409.649 187.124C409.098 187.354 408.605 187.686 408.17 188.122C407.757 188.535 407.424 189.028 407.172 189.601C406.92 190.152 406.794 190.759 406.794 191.424V201.4H403.216ZM422.716 201.744C420.95 201.744 419.368 201.343 417.969 200.54C416.593 199.715 415.503 198.603 414.701 197.204C413.898 195.782 413.497 194.165 413.497 192.353C413.497 190.541 413.898 188.936 414.701 187.537C415.503 186.115 416.593 185.003 417.969 184.2C419.368 183.375 420.95 182.962 422.716 182.962C424.459 182.962 426.018 183.375 427.394 184.2C428.793 185.003 429.894 186.115 430.697 187.537C431.5 188.936 431.901 190.541 431.901 192.353C431.901 194.165 431.5 195.782 430.697 197.204C429.894 198.603 428.793 199.715 427.394 200.54C426.018 201.343 424.459 201.744 422.716 201.744ZM422.716 198.511C423.794 198.511 424.757 198.247 425.606 197.72C426.454 197.169 427.119 196.435 427.601 195.518C428.082 194.578 428.312 193.523 428.289 192.353C428.312 191.161 428.082 190.106 427.601 189.188C427.119 188.248 426.454 187.514 425.606 186.987C424.757 186.459 423.794 186.196 422.716 186.196C421.638 186.196 420.664 186.471 419.792 187.021C418.944 187.549 418.278 188.283 417.797 189.223C417.315 190.14 417.086 191.184 417.109 192.353C417.086 193.523 417.315 194.578 417.797 195.518C418.278 196.435 418.944 197.169 419.792 197.72C420.664 198.247 421.638 198.511 422.716 198.511ZM440.371 201.744C439.087 201.744 437.963 201.446 437 200.85C436.06 200.254 435.326 199.417 434.799 198.339C434.294 197.261 434.042 195.977 434.042 194.486V183.34H437.585V193.523C437.585 194.578 437.745 195.495 438.067 196.275C438.411 197.032 438.892 197.616 439.511 198.029C440.153 198.442 440.922 198.648 441.816 198.648C442.481 198.648 443.089 198.545 443.639 198.339C444.19 198.11 444.66 197.8 445.05 197.41C445.463 197.02 445.784 196.55 446.013 196C446.242 195.449 446.357 194.853 446.357 194.211V183.34H449.9V201.4H446.357V197.616L446.976 197.204C446.701 198.052 446.231 198.82 445.566 199.508C444.924 200.196 444.155 200.747 443.261 201.16C442.367 201.55 441.403 201.744 440.371 201.744ZM453.15 208.968V183.34H456.728V187.468L456.177 187.159C456.315 186.471 456.705 185.817 457.347 185.198C457.989 184.556 458.769 184.04 459.686 183.65C460.626 183.237 461.589 183.031 462.576 183.031C464.204 183.031 465.649 183.432 466.91 184.235C468.171 185.037 469.169 186.138 469.903 187.537C470.637 188.936 471.004 190.541 471.004 192.353C471.004 194.142 470.637 195.747 469.903 197.169C469.192 198.568 468.206 199.68 466.944 200.506C465.683 201.309 464.261 201.71 462.679 201.71C461.624 201.71 460.603 201.504 459.617 201.091C458.631 200.655 457.794 200.105 457.106 199.44C456.418 198.775 455.994 198.087 455.833 197.376L456.728 196.894V208.968H453.15ZM462.094 198.442C463.149 198.442 464.089 198.178 464.915 197.651C465.74 197.123 466.394 196.401 466.876 195.484C467.357 194.566 467.598 193.523 467.598 192.353C467.598 191.184 467.357 190.152 466.876 189.257C466.417 188.34 465.775 187.617 464.949 187.09C464.124 186.563 463.172 186.299 462.094 186.299C461.016 186.299 460.064 186.563 459.239 187.09C458.413 187.595 457.76 188.305 457.278 189.223C456.796 190.14 456.556 191.184 456.556 192.353C456.556 193.523 456.796 194.566 457.278 195.484C457.76 196.401 458.413 197.123 459.239 197.651C460.064 198.178 461.016 198.442 462.094 198.442ZM479.152 201.744C477.638 201.744 476.273 201.481 475.058 200.953C473.842 200.426 472.833 199.646 472.031 198.614L474.439 196.55C475.127 197.353 475.872 197.938 476.675 198.304C477.5 198.648 478.429 198.82 479.461 198.82C479.874 198.82 480.252 198.775 480.596 198.683C480.963 198.568 481.273 198.408 481.525 198.201C481.8 197.995 482.007 197.754 482.144 197.479C482.282 197.181 482.351 196.86 482.351 196.516C482.351 195.919 482.133 195.438 481.697 195.071C481.468 194.91 481.101 194.738 480.596 194.555C480.115 194.348 479.484 194.142 478.704 193.936C477.374 193.592 476.285 193.202 475.436 192.766C474.588 192.33 473.934 191.837 473.476 191.287C473.132 190.851 472.879 190.381 472.719 189.876C472.558 189.349 472.478 188.776 472.478 188.156C472.478 187.4 472.638 186.712 472.96 186.092C473.304 185.45 473.762 184.9 474.336 184.441C474.932 183.96 475.62 183.593 476.4 183.34C477.202 183.088 478.051 182.962 478.945 182.962C479.794 182.962 480.631 183.077 481.456 183.306C482.305 183.535 483.085 183.868 483.796 184.304C484.506 184.739 485.103 185.255 485.584 185.852L483.555 188.088C483.119 187.652 482.637 187.273 482.11 186.952C481.605 186.608 481.089 186.345 480.562 186.161C480.034 185.978 479.553 185.886 479.117 185.886C478.636 185.886 478.2 185.932 477.81 186.024C477.42 186.115 477.088 186.253 476.812 186.436C476.56 186.62 476.365 186.849 476.228 187.124C476.09 187.4 476.021 187.709 476.021 188.053C476.044 188.351 476.113 188.638 476.228 188.913C476.365 189.165 476.549 189.383 476.778 189.567C477.03 189.75 477.409 189.945 477.913 190.152C478.418 190.358 479.06 190.553 479.84 190.736C480.986 191.035 481.926 191.367 482.66 191.734C483.417 192.078 484.013 192.479 484.449 192.938C484.908 193.374 485.229 193.878 485.412 194.452C485.596 195.025 485.688 195.667 485.688 196.378C485.688 197.41 485.389 198.339 484.793 199.164C484.22 199.967 483.44 200.598 482.454 201.056C481.468 201.515 480.367 201.744 479.152 201.744Z" fill="#666666"/>
<path d="M185.976 226.56C185.187 226.56 184.456 226.416 183.784 226.128C183.123 225.84 182.541 225.44 182.04 224.928C181.549 224.406 181.165 223.798 180.888 223.104C180.621 222.4 180.488 221.632 180.488 220.8C180.488 219.968 180.621 219.206 180.888 218.512C181.165 217.808 181.549 217.2 182.04 216.688C182.541 216.166 183.123 215.76 183.784 215.472C184.456 215.184 185.187 215.04 185.976 215.04C186.765 215.04 187.491 215.184 188.152 215.472C188.824 215.76 189.405 216.166 189.896 216.688C190.397 217.211 190.781 217.824 191.048 218.528C191.325 219.222 191.464 219.979 191.464 220.8C191.464 221.622 191.325 222.384 191.048 223.088C190.781 223.782 190.397 224.39 189.896 224.912C189.405 225.435 188.824 225.84 188.152 226.128C187.491 226.416 186.765 226.56 185.976 226.56ZM185.976 224.88C186.52 224.88 187.016 224.779 187.464 224.576C187.923 224.374 188.317 224.091 188.648 223.728C188.979 223.355 189.235 222.923 189.416 222.432C189.608 221.931 189.704 221.387 189.704 220.8C189.704 220.214 189.608 219.675 189.416 219.184C189.235 218.683 188.979 218.251 188.648 217.888C188.317 217.515 187.923 217.227 187.464 217.024C187.016 216.822 186.52 216.72 185.976 216.72C185.432 216.72 184.931 216.822 184.472 217.024C184.024 217.227 183.629 217.51 183.288 217.872C182.957 218.235 182.701 218.667 182.52 219.168C182.339 219.659 182.248 220.203 182.248 220.8C182.248 221.387 182.339 221.931 182.52 222.432C182.701 222.934 182.957 223.366 183.288 223.728C183.629 224.091 184.024 224.374 184.472 224.576C184.931 224.779 185.432 224.88 185.976 224.88ZM192.588 226.4V218H194.236V219.728L193.948 219.92C194.054 219.547 194.262 219.206 194.572 218.896C194.881 218.576 195.249 218.32 195.676 218.128C196.102 217.926 196.54 217.824 196.988 217.824C197.628 217.824 198.161 217.952 198.588 218.208C199.014 218.454 199.334 218.832 199.548 219.344C199.761 219.856 199.868 220.502 199.868 221.28V226.4H198.22V221.392C198.22 220.912 198.156 220.518 198.028 220.208C197.9 219.888 197.702 219.659 197.436 219.52C197.169 219.371 196.838 219.307 196.444 219.328C196.124 219.328 195.83 219.382 195.564 219.488C195.297 219.584 195.062 219.723 194.86 219.904C194.668 220.086 194.513 220.299 194.396 220.544C194.289 220.779 194.236 221.035 194.236 221.312V226.4H193.42C193.281 226.4 193.142 226.4 193.004 226.4C192.865 226.4 192.726 226.4 192.588 226.4ZM209.948 226.56C209.169 226.56 208.454 226.422 207.804 226.144C207.153 225.867 206.588 225.472 206.108 224.96C205.628 224.438 205.254 223.824 204.988 223.12C204.732 222.416 204.604 221.643 204.604 220.8C204.604 220 204.742 219.259 205.02 218.576C205.308 217.883 205.702 217.275 206.204 216.752C206.705 216.23 207.286 215.824 207.948 215.536C208.609 215.248 209.324 215.104 210.092 215.104C210.636 215.104 211.164 215.19 211.676 215.36C212.198 215.52 212.668 215.75 213.084 216.048C213.51 216.336 213.857 216.667 214.124 217.04L212.972 218.24C212.662 217.931 212.348 217.675 212.028 217.472C211.718 217.259 211.398 217.099 211.068 216.992C210.748 216.886 210.422 216.832 210.092 216.832C209.569 216.832 209.078 216.934 208.62 217.136C208.172 217.328 207.777 217.6 207.436 217.952C207.105 218.304 206.844 218.726 206.652 219.216C206.46 219.696 206.364 220.224 206.364 220.8C206.364 221.408 206.454 221.963 206.636 222.464C206.828 222.955 207.094 223.376 207.436 223.728C207.777 224.08 208.182 224.352 208.652 224.544C209.132 224.726 209.66 224.816 210.236 224.816C210.588 224.816 210.934 224.768 211.276 224.672C211.617 224.576 211.937 224.438 212.236 224.256C212.534 224.075 212.806 223.862 213.052 223.616L213.916 225.024C213.67 225.312 213.334 225.574 212.908 225.808C212.492 226.043 212.022 226.23 211.5 226.368C210.988 226.496 210.47 226.56 209.948 226.56ZM218.279 226.56C217.586 226.56 216.951 226.368 216.375 225.984C215.81 225.6 215.356 225.078 215.015 224.416C214.674 223.755 214.503 223.008 214.503 222.176C214.503 221.334 214.674 220.587 215.015 219.936C215.367 219.275 215.836 218.758 216.423 218.384C217.02 218.011 217.687 217.824 218.423 217.824C218.86 217.824 219.26 217.888 219.623 218.016C219.986 218.144 220.3 218.326 220.567 218.56C220.844 218.784 221.068 219.046 221.239 219.344C221.42 219.643 221.532 219.963 221.575 220.304L221.207 220.176V218H222.871V226.4H221.207V224.4L221.591 224.288C221.527 224.576 221.394 224.859 221.191 225.136C220.999 225.403 220.748 225.643 220.439 225.856C220.14 226.07 219.804 226.24 219.431 226.368C219.068 226.496 218.684 226.56 218.279 226.56ZM218.711 225.04C219.212 225.04 219.655 224.918 220.039 224.672C220.423 224.427 220.722 224.091 220.935 223.664C221.159 223.227 221.271 222.731 221.271 222.176C221.271 221.632 221.159 221.147 220.935 220.72C220.722 220.294 220.423 219.958 220.039 219.712C219.655 219.467 219.212 219.344 218.711 219.344C218.22 219.344 217.783 219.467 217.399 219.712C217.026 219.958 216.727 220.294 216.503 220.72C216.29 221.147 216.183 221.632 216.183 222.176C216.183 222.731 216.29 223.227 216.503 223.664C216.727 224.091 217.026 224.427 217.399 224.672C217.783 224.918 218.22 225.04 218.711 225.04ZM224.34 226.4V218H226.004V219.792L225.7 219.984C225.785 219.707 225.919 219.44 226.1 219.184C226.292 218.928 226.521 218.704 226.788 218.512C227.065 218.31 227.359 218.15 227.668 218.032C227.988 217.915 228.313 217.856 228.644 217.856C229.124 217.856 229.545 217.936 229.908 218.096C230.271 218.256 230.569 218.496 230.804 218.816C231.039 219.136 231.209 219.536 231.316 220.016L231.06 219.952L231.172 219.68C231.289 219.435 231.449 219.206 231.652 218.992C231.865 218.768 232.105 218.571 232.372 218.4C232.639 218.23 232.921 218.096 233.22 218C233.519 217.904 233.812 217.856 234.1 217.856C234.729 217.856 235.247 217.984 235.652 218.24C236.068 218.496 236.377 218.886 236.58 219.408C236.793 219.931 236.9 220.582 236.9 221.36V226.4H235.236V221.456C235.236 220.976 235.172 220.587 235.044 220.288C234.927 219.979 234.745 219.75 234.5 219.6C234.255 219.451 233.94 219.376 233.556 219.376C233.257 219.376 232.975 219.43 232.708 219.536C232.452 219.632 232.228 219.771 232.036 219.952C231.844 220.134 231.695 220.347 231.588 220.592C231.481 220.827 231.428 221.088 231.428 221.376V226.4H229.764V221.424C229.764 220.987 229.7 220.619 229.572 220.32C229.444 220.011 229.257 219.776 229.012 219.616C228.767 219.456 228.468 219.376 228.116 219.376C227.817 219.376 227.54 219.43 227.284 219.536C227.028 219.632 226.804 219.771 226.612 219.952C226.42 220.123 226.271 220.331 226.164 220.576C226.057 220.811 226.004 221.067 226.004 221.344V226.4H224.34ZM238.307 229.92V218H239.971V219.92L239.715 219.776C239.779 219.456 239.96 219.152 240.259 218.864C240.557 218.566 240.92 218.326 241.347 218.144C241.784 217.952 242.232 217.856 242.691 217.856C243.448 217.856 244.12 218.043 244.707 218.416C245.293 218.79 245.757 219.302 246.099 219.952C246.44 220.603 246.611 221.35 246.611 222.192C246.611 223.024 246.44 223.771 246.099 224.432C245.768 225.083 245.309 225.6 244.723 225.984C244.136 226.358 243.475 226.544 242.739 226.544C242.248 226.544 241.773 226.448 241.315 226.256C240.856 226.054 240.467 225.798 240.147 225.488C239.827 225.179 239.629 224.859 239.555 224.528L239.971 224.304V229.92H238.307ZM242.467 225.024C242.957 225.024 243.395 224.902 243.779 224.656C244.163 224.411 244.467 224.075 244.691 223.648C244.915 223.222 245.027 222.736 245.027 222.192C245.027 221.648 244.915 221.168 244.691 220.752C244.477 220.326 244.179 219.99 243.795 219.744C243.411 219.499 242.968 219.376 242.467 219.376C241.965 219.376 241.523 219.499 241.139 219.744C240.755 219.979 240.451 220.31 240.227 220.736C240.003 221.163 239.891 221.648 239.891 222.192C239.891 222.736 240.003 223.222 240.227 223.648C240.451 224.075 240.755 224.411 241.139 224.656C241.523 224.902 241.965 225.024 242.467 225.024ZM250.544 226.56C249.947 226.56 249.424 226.422 248.976 226.144C248.539 225.867 248.198 225.478 247.952 224.976C247.718 224.475 247.6 223.878 247.6 223.184V218H249.248V222.736C249.248 223.227 249.323 223.654 249.472 224.016C249.632 224.368 249.856 224.64 250.144 224.832C250.443 225.024 250.8 225.12 251.216 225.12C251.526 225.12 251.808 225.072 252.064 224.976C252.32 224.87 252.539 224.726 252.72 224.544C252.912 224.363 253.062 224.144 253.168 223.888C253.275 223.632 253.328 223.355 253.328 223.056V218H254.976V226.4H253.328V224.64L253.616 224.448C253.488 224.843 253.27 225.2 252.96 225.52C252.662 225.84 252.304 226.096 251.888 226.288C251.472 226.47 251.024 226.56 250.544 226.56ZM259.288 226.56C258.584 226.56 257.949 226.438 257.384 226.192C256.819 225.947 256.349 225.584 255.976 225.104L257.096 224.144C257.416 224.518 257.763 224.79 258.136 224.96C258.52 225.12 258.952 225.2 259.432 225.2C259.624 225.2 259.8 225.179 259.96 225.136C260.131 225.083 260.275 225.008 260.392 224.912C260.52 224.816 260.616 224.704 260.68 224.576C260.744 224.438 260.776 224.288 260.776 224.128C260.776 223.851 260.675 223.627 260.472 223.456C260.365 223.382 260.195 223.302 259.96 223.216C259.736 223.12 259.443 223.024 259.08 222.928C258.461 222.768 257.955 222.587 257.56 222.384C257.165 222.182 256.861 221.952 256.648 221.696C256.488 221.494 256.371 221.275 256.296 221.04C256.221 220.795 256.184 220.528 256.184 220.24C256.184 219.888 256.259 219.568 256.408 219.28C256.568 218.982 256.781 218.726 257.048 218.512C257.325 218.288 257.645 218.118 258.008 218C258.381 217.883 258.776 217.824 259.192 217.824C259.587 217.824 259.976 217.878 260.36 217.984C260.755 218.091 261.117 218.246 261.448 218.448C261.779 218.651 262.056 218.891 262.28 219.168L261.336 220.208C261.133 220.006 260.909 219.83 260.664 219.68C260.429 219.52 260.189 219.398 259.944 219.312C259.699 219.227 259.475 219.184 259.272 219.184C259.048 219.184 258.845 219.206 258.664 219.248C258.483 219.291 258.328 219.355 258.2 219.44C258.083 219.526 257.992 219.632 257.928 219.76C257.864 219.888 257.832 220.032 257.832 220.192C257.843 220.331 257.875 220.464 257.928 220.592C257.992 220.71 258.077 220.811 258.184 220.896C258.301 220.982 258.477 221.072 258.712 221.168C258.947 221.264 259.245 221.355 259.608 221.44C260.141 221.579 260.579 221.734 260.92 221.904C261.272 222.064 261.549 222.251 261.752 222.464C261.965 222.667 262.115 222.902 262.2 223.168C262.285 223.435 262.328 223.734 262.328 224.064C262.328 224.544 262.189 224.976 261.912 225.36C261.645 225.734 261.283 226.027 260.824 226.24C260.365 226.454 259.853 226.56 259.288 226.56Z" fill="#609CFF"/>
<path d="M268.645 222.944C268.25 222.944 267.887 222.848 267.556 222.656C267.226 222.464 266.959 222.203 266.756 221.872C266.564 221.542 266.468 221.179 266.468 220.784C266.468 220.379 266.564 220.011 266.756 219.68C266.948 219.35 267.21 219.088 267.54 218.896C267.871 218.694 268.239 218.592 268.645 218.592C269.05 218.592 269.418 218.694 269.749 218.896C270.079 219.088 270.341 219.35 270.533 219.68C270.735 220.011 270.837 220.379 270.837 220.784C270.837 221.179 270.735 221.542 270.533 221.872C270.341 222.203 270.079 222.464 269.749 222.656C269.418 222.848 269.05 222.944 268.645 222.944ZM275.444 226.4V224.8H277.252V216.8H275.444V215.2H280.788V216.8H278.98V224.8H280.788V226.4H275.444ZM282.701 226.4V215.2H284.397L288.477 221.84L287.661 221.824L291.789 215.2H293.389V226.4H291.661V221.808C291.661 220.848 291.682 219.984 291.725 219.216C291.778 218.448 291.863 217.686 291.981 216.928L292.205 217.52L288.541 223.184H287.485L283.933 217.584L284.109 216.928C284.226 217.643 284.306 218.379 284.349 219.136C284.402 219.883 284.429 220.774 284.429 221.808V226.4H282.701ZM299.185 226.56C298.577 226.56 298.012 226.48 297.489 226.32C296.977 226.16 296.508 225.92 296.081 225.6C295.665 225.27 295.292 224.864 294.961 224.384L296.145 223.024C296.668 223.771 297.169 224.288 297.649 224.576C298.129 224.864 298.7 225.008 299.361 225.008C299.766 225.008 300.134 224.944 300.465 224.816C300.796 224.688 301.057 224.512 301.249 224.288C301.441 224.064 301.537 223.808 301.537 223.52C301.537 223.328 301.505 223.147 301.441 222.976C301.377 222.806 301.276 222.651 301.137 222.512C301.009 222.374 300.838 222.246 300.625 222.128C300.422 222.011 300.182 221.91 299.905 221.824C299.628 221.728 299.308 221.648 298.945 221.584C298.369 221.467 297.868 221.312 297.441 221.12C297.014 220.928 296.657 220.688 296.369 220.4C296.081 220.112 295.868 219.787 295.729 219.424C295.59 219.051 295.521 218.635 295.521 218.176C295.521 217.728 295.617 217.312 295.809 216.928C296.012 216.544 296.284 216.214 296.625 215.936C296.977 215.648 297.388 215.43 297.857 215.28C298.326 215.12 298.833 215.04 299.377 215.04C299.953 215.04 300.481 215.115 300.961 215.264C301.441 215.414 301.868 215.638 302.241 215.936C302.614 216.224 302.924 216.582 303.169 217.008L301.953 218.208C301.74 217.856 301.5 217.563 301.233 217.328C300.966 217.083 300.673 216.902 300.353 216.784C300.033 216.656 299.692 216.592 299.329 216.592C298.913 216.592 298.55 216.656 298.241 216.784C297.932 216.912 297.686 217.094 297.505 217.328C297.334 217.552 297.249 217.819 297.249 218.128C297.249 218.352 297.292 218.56 297.377 218.752C297.462 218.934 297.59 219.099 297.761 219.248C297.942 219.387 298.182 219.515 298.481 219.632C298.78 219.739 299.137 219.835 299.553 219.92C300.14 220.048 300.662 220.214 301.121 220.416C301.58 220.608 301.969 220.838 302.289 221.104C302.609 221.371 302.849 221.67 303.009 222C303.18 222.331 303.265 222.688 303.265 223.072C303.265 223.787 303.1 224.406 302.769 224.928C302.438 225.451 301.969 225.856 301.361 226.144C300.753 226.422 300.028 226.56 299.185 226.56ZM304.913 226.4V215.2H311.969V216.864H306.641V224.736H311.969V226.4H304.913ZM305.697 221.488V219.824H311.089V221.488H305.697ZM318.486 226.56C317.707 226.56 316.992 226.422 316.341 226.144C315.691 225.867 315.125 225.472 314.645 224.96C314.165 224.438 313.792 223.824 313.525 223.12C313.269 222.416 313.141 221.643 313.141 220.8C313.141 220 313.28 219.259 313.557 218.576C313.845 217.883 314.24 217.275 314.741 216.752C315.243 216.23 315.824 215.824 316.486 215.536C317.147 215.248 317.862 215.104 318.63 215.104C319.174 215.104 319.702 215.19 320.214 215.36C320.736 215.52 321.206 215.75 321.622 216.048C322.048 216.336 322.395 216.667 322.662 217.04L321.51 218.24C321.2 217.931 320.886 217.675 320.566 217.472C320.256 217.259 319.936 217.099 319.606 216.992C319.286 216.886 318.96 216.832 318.63 216.832C318.107 216.832 317.616 216.934 317.158 217.136C316.71 217.328 316.315 217.6 315.973 217.952C315.643 218.304 315.381 218.726 315.189 219.216C314.997 219.696 314.901 220.224 314.901 220.8C314.901 221.408 314.992 221.963 315.173 222.464C315.365 222.955 315.632 223.376 315.973 223.728C316.315 224.08 316.72 224.352 317.19 224.544C317.67 224.726 318.198 224.816 318.774 224.816C319.126 224.816 319.472 224.768 319.814 224.672C320.155 224.576 320.475 224.438 320.774 224.256C321.072 224.075 321.344 223.862 321.59 223.616L322.454 225.024C322.208 225.312 321.872 225.574 321.446 225.808C321.03 226.043 320.56 226.23 320.038 226.368C319.526 226.496 319.008 226.56 318.486 226.56ZM332.693 226.56C331.883 226.56 331.125 226.416 330.421 226.128C329.717 225.83 329.099 225.419 328.565 224.896C328.032 224.374 327.616 223.766 327.317 223.072C327.029 222.368 326.885 221.611 326.885 220.8C326.885 220 327.029 219.254 327.317 218.56C327.616 217.867 328.027 217.264 328.549 216.752C329.083 216.23 329.701 215.824 330.405 215.536C331.109 215.248 331.867 215.104 332.677 215.104C333.243 215.104 333.792 215.184 334.325 215.344C334.869 215.504 335.36 215.728 335.797 216.016C336.235 216.304 336.592 216.635 336.869 217.008L335.749 218.176C335.429 217.867 335.099 217.611 334.757 217.408C334.427 217.206 334.085 217.051 333.733 216.944C333.381 216.838 333.029 216.784 332.677 216.784C332.101 216.784 331.568 216.886 331.077 217.088C330.597 217.291 330.171 217.574 329.797 217.936C329.435 218.299 329.152 218.726 328.949 219.216C328.747 219.696 328.645 220.224 328.645 220.8C328.645 221.355 328.752 221.883 328.965 222.384C329.179 222.875 329.472 223.307 329.845 223.68C330.229 224.054 330.667 224.347 331.157 224.56C331.659 224.774 332.187 224.88 332.741 224.88C333.157 224.88 333.552 224.822 333.925 224.704C334.299 224.576 334.629 224.4 334.917 224.176C335.205 223.952 335.429 223.696 335.589 223.408C335.749 223.11 335.829 222.795 335.829 222.464V222.144L336.069 222.368H332.645V220.656H337.605C337.627 220.774 337.643 220.891 337.653 221.008C337.664 221.115 337.669 221.222 337.669 221.328C337.68 221.424 337.685 221.52 337.685 221.616C337.685 222.352 337.557 223.024 337.301 223.632C337.045 224.23 336.688 224.747 336.229 225.184C335.781 225.622 335.253 225.963 334.645 226.208C334.048 226.443 333.397 226.56 332.693 226.56ZM338.719 226.4V214.56H340.367V219.728L340.079 219.92C340.186 219.547 340.394 219.206 340.703 218.896C341.013 218.576 341.381 218.32 341.807 218.128C342.234 217.926 342.671 217.824 343.119 217.824C343.759 217.824 344.293 217.952 344.719 218.208C345.146 218.454 345.466 218.832 345.679 219.344C345.893 219.856 345.999 220.502 345.999 221.28V226.4H344.351V221.392C344.351 220.912 344.287 220.518 344.159 220.208C344.031 219.888 343.834 219.659 343.567 219.52C343.301 219.371 342.97 219.307 342.575 219.328C342.255 219.328 341.962 219.382 341.695 219.488C341.429 219.584 341.194 219.723 340.991 219.904C340.799 220.086 340.645 220.299 340.527 220.544C340.421 220.779 340.367 221.035 340.367 221.312V226.4H339.551C339.413 226.4 339.274 226.4 339.135 226.4C338.997 226.4 338.858 226.4 338.719 226.4ZM350.667 226.56C349.974 226.56 349.339 226.368 348.763 225.984C348.198 225.6 347.744 225.078 347.403 224.416C347.062 223.755 346.891 223.008 346.891 222.176C346.891 221.334 347.062 220.587 347.403 219.936C347.755 219.275 348.224 218.758 348.811 218.384C349.408 218.011 350.075 217.824 350.811 217.824C351.248 217.824 351.648 217.888 352.011 218.016C352.374 218.144 352.688 218.326 352.955 218.56C353.232 218.784 353.456 219.046 353.627 219.344C353.808 219.643 353.92 219.963 353.963 220.304L353.595 220.176V218H355.259V226.4H353.595V224.4L353.979 224.288C353.915 224.576 353.782 224.859 353.579 225.136C353.387 225.403 353.136 225.643 352.827 225.856C352.528 226.07 352.192 226.24 351.819 226.368C351.456 226.496 351.072 226.56 350.667 226.56ZM351.099 225.04C351.6 225.04 352.043 224.918 352.427 224.672C352.811 224.427 353.11 224.091 353.323 223.664C353.547 223.227 353.659 222.731 353.659 222.176C353.659 221.632 353.547 221.147 353.323 220.72C353.11 220.294 352.811 219.958 352.427 219.712C352.043 219.467 351.6 219.344 351.099 219.344C350.608 219.344 350.171 219.467 349.787 219.712C349.414 219.958 349.115 220.294 348.891 220.72C348.678 221.147 348.571 221.632 348.571 222.176C348.571 222.731 348.678 223.227 348.891 223.664C349.115 224.091 349.414 224.427 349.787 224.672C350.171 224.918 350.608 225.04 351.099 225.04ZM356.408 226.4V225.024L360.744 219.232V219.424H356.408V218H362.536V219.344L358.264 225.056L358.2 224.976H362.632V226.4H356.408ZM363.982 226.4V218H365.63V226.4H363.982ZM364.782 216.144C364.43 216.144 364.158 216.054 363.966 215.872C363.774 215.691 363.678 215.435 363.678 215.104C363.678 214.795 363.774 214.544 363.966 214.352C364.169 214.16 364.441 214.064 364.782 214.064C365.134 214.064 365.406 214.155 365.598 214.336C365.79 214.518 365.886 214.774 365.886 215.104C365.886 215.414 365.785 215.664 365.582 215.856C365.39 216.048 365.123 216.144 364.782 216.144ZM370.595 226.56C369.902 226.56 369.267 226.368 368.691 225.984C368.126 225.6 367.672 225.078 367.331 224.416C366.99 223.755 366.819 223.008 366.819 222.176C366.819 221.334 366.99 220.587 367.331 219.936C367.683 219.275 368.152 218.758 368.739 218.384C369.336 218.011 370.003 217.824 370.739 217.824C371.176 217.824 371.576 217.888 371.939 218.016C372.302 218.144 372.616 218.326 372.883 218.56C373.16 218.784 373.384 219.046 373.555 219.344C373.736 219.643 373.848 219.963 373.891 220.304L373.523 220.176V218H375.187V226.4H373.523V224.4L373.907 224.288C373.843 224.576 373.71 224.859 373.507 225.136C373.315 225.403 373.064 225.643 372.755 225.856C372.456 226.07 372.12 226.24 371.747 226.368C371.384 226.496 371 226.56 370.595 226.56ZM371.027 225.04C371.528 225.04 371.971 224.918 372.355 224.672C372.739 224.427 373.038 224.091 373.251 223.664C373.475 223.227 373.587 222.731 373.587 222.176C373.587 221.632 373.475 221.147 373.251 220.72C373.038 220.294 372.739 219.958 372.355 219.712C371.971 219.467 371.528 219.344 371.027 219.344C370.536 219.344 370.099 219.467 369.715 219.712C369.342 219.958 369.043 220.294 368.819 220.72C368.606 221.147 368.499 221.632 368.499 222.176C368.499 222.731 368.606 223.227 368.819 223.664C369.043 224.091 369.342 224.427 369.715 224.672C370.099 224.918 370.536 225.04 371.027 225.04ZM381.104 226.56C380.742 226.56 380.379 226.502 380.016 226.384C379.664 226.267 379.339 226.112 379.04 225.92C378.752 225.718 378.507 225.499 378.304 225.264C378.112 225.019 377.984 224.774 377.92 224.528L378.336 224.304V226.352H376.688V214.56H378.336V219.92L378.08 219.776C378.134 219.531 378.251 219.296 378.432 219.072C378.614 218.838 378.843 218.63 379.12 218.448C379.408 218.256 379.718 218.107 380.048 218C380.379 217.883 380.715 217.824 381.056 217.824C381.814 217.824 382.486 218.011 383.072 218.384C383.659 218.758 384.123 219.275 384.464 219.936C384.806 220.587 384.976 221.334 384.976 222.176C384.976 223.019 384.806 223.771 384.464 224.432C384.134 225.094 383.675 225.616 383.088 226C382.502 226.374 381.84 226.56 381.104 226.56ZM380.832 225.056C381.323 225.056 381.76 224.934 382.144 224.688C382.528 224.432 382.832 224.091 383.056 223.664C383.28 223.227 383.392 222.731 383.392 222.176C383.392 221.632 383.28 221.147 383.056 220.72C382.843 220.283 382.544 219.942 382.16 219.696C381.776 219.451 381.334 219.328 380.832 219.328C380.331 219.328 379.888 219.451 379.504 219.696C379.12 219.942 378.816 220.283 378.592 220.72C378.368 221.147 378.256 221.632 378.256 222.176C378.256 222.731 378.368 223.227 378.592 223.664C378.816 224.091 379.12 224.432 379.504 224.688C379.888 224.934 380.331 225.056 380.832 225.056ZM389.198 226.56C388.505 226.56 387.87 226.368 387.294 225.984C386.729 225.6 386.276 225.078 385.934 224.416C385.593 223.755 385.422 223.008 385.422 222.176C385.422 221.334 385.593 220.587 385.934 219.936C386.286 219.275 386.756 218.758 387.342 218.384C387.94 218.011 388.606 217.824 389.342 217.824C389.78 217.824 390.18 217.888 390.542 218.016C390.905 218.144 391.22 218.326 391.486 218.56C391.764 218.784 391.988 219.046 392.158 219.344C392.34 219.643 392.452 219.963 392.494 220.304L392.126 220.176V218H393.79V226.4H392.126V224.4L392.51 224.288C392.446 224.576 392.313 224.859 392.11 225.136C391.918 225.403 391.668 225.643 391.358 225.856C391.06 226.07 390.724 226.24 390.35 226.368C389.988 226.496 389.604 226.56 389.198 226.56ZM389.63 225.04C390.132 225.04 390.574 224.918 390.958 224.672C391.342 224.427 391.641 224.091 391.854 223.664C392.078 223.227 392.19 222.731 392.19 222.176C392.19 221.632 392.078 221.147 391.854 220.72C391.641 220.294 391.342 219.958 390.958 219.712C390.574 219.467 390.132 219.344 389.63 219.344C389.14 219.344 388.702 219.467 388.318 219.712C387.945 219.958 387.646 220.294 387.422 220.72C387.209 221.147 387.102 221.632 387.102 222.176C387.102 222.731 387.209 223.227 387.422 223.664C387.646 224.091 387.945 224.427 388.318 224.672C388.702 224.918 389.14 225.04 389.63 225.04ZM398.795 226.56C398.027 226.56 397.339 226.374 396.731 226C396.134 225.616 395.659 225.099 395.307 224.448C394.955 223.787 394.779 223.035 394.779 222.192C394.779 221.35 394.95 220.603 395.291 219.952C395.643 219.291 396.118 218.774 396.715 218.4C397.313 218.016 397.99 217.824 398.747 217.824C399.163 217.824 399.563 217.894 399.947 218.032C400.342 218.16 400.694 218.342 401.003 218.576C401.313 218.8 401.553 219.051 401.723 219.328C401.905 219.595 401.995 219.867 401.995 220.144L401.515 220.176V214.56H403.163V226.4H401.515V224.4H401.835C401.835 224.656 401.75 224.912 401.579 225.168C401.409 225.414 401.179 225.643 400.891 225.856C400.614 226.07 400.289 226.24 399.915 226.368C399.553 226.496 399.179 226.56 398.795 226.56ZM399.019 225.136C399.521 225.136 399.963 225.008 400.347 224.752C400.731 224.496 401.03 224.15 401.243 223.712C401.467 223.264 401.579 222.758 401.579 222.192C401.579 221.627 401.467 221.126 401.243 220.688C401.03 220.24 400.731 219.888 400.347 219.632C399.963 219.376 399.521 219.248 399.019 219.248C398.518 219.248 398.075 219.376 397.691 219.632C397.307 219.888 397.003 220.24 396.779 220.688C396.566 221.126 396.459 221.627 396.459 222.192C396.459 222.758 396.566 223.264 396.779 223.712C397.003 224.15 397.307 224.496 397.691 224.752C398.075 225.008 398.518 225.136 399.019 225.136Z" fill="#666666"/>
</svg>
