<svg width="584" height="311" viewBox="0 0 584 311" fill="none" xmlns="http://www.w3.org/2000/svg">
<rect x="-0.448398" y="1.63675" width="60.5213" height="19.1176" rx="9.5588" transform="matrix(-0.868809 0.495148 0.495144 0.868811 277.517 81.4367)" fill="#EF5350" stroke="#EF5350" stroke-width="2.40001"/>
<rect x="-0.448398" y="1.63675" width="60.5213" height="19.1176" rx="9.5588" transform="matrix(-0.868809 0.495148 0.495144 0.868811 347.862 101.987)" fill="#FBBC04" stroke="#FBBC04" stroke-width="2.40001"/>
<rect x="0.448398" y="1.63675" width="60.5213" height="19.1176" rx="9.5588" transform="matrix(0.868809 0.495148 -0.495144 0.868811 236.022 101.543)" fill="#4285F4" stroke="#4285F4" stroke-width="2.40001"/>
<path d="M353.795 120.909C351.181 125.495 345.344 127.094 340.757 124.48L304.785 103.979C300.199 101.365 298.6 95.5282 301.213 90.9416C303.827 86.355 309.665 84.7558 314.251 87.3698L350.223 107.871C354.81 110.485 356.409 116.322 353.795 120.909Z" fill="#4CAF50" stroke="#4CAF50" stroke-width="2.40001"/>
<path d="M110.638 201.744C108.895 201.744 107.267 201.435 105.754 200.816C104.24 200.174 102.91 199.291 101.763 198.167C100.617 197.043 99.7221 195.736 99.08 194.245C98.4608 192.732 98.1512 191.103 98.1512 189.36C98.1512 187.64 98.4608 186.035 99.08 184.544C99.7221 183.054 100.605 181.758 101.729 180.657C102.875 179.533 104.206 178.662 105.719 178.043C107.233 177.424 108.861 177.114 110.604 177.114C111.82 177.114 113.001 177.286 114.147 177.63C115.317 177.974 116.372 178.456 117.312 179.075C118.252 179.694 119.021 180.405 119.617 181.208L117.209 183.719C116.521 183.054 115.81 182.503 115.076 182.068C114.365 181.632 113.631 181.299 112.874 181.07C112.118 180.841 111.361 180.726 110.604 180.726C109.366 180.726 108.219 180.944 107.164 181.38C106.132 181.815 105.215 182.423 104.412 183.203C103.632 183.983 103.025 184.9 102.589 185.955C102.153 186.987 101.935 188.122 101.935 189.36C101.935 190.553 102.165 191.688 102.623 192.766C103.082 193.821 103.713 194.75 104.515 195.552C105.341 196.355 106.281 196.986 107.336 197.444C108.414 197.903 109.549 198.132 110.742 198.132C111.636 198.132 112.485 198.006 113.287 197.754C114.09 197.479 114.801 197.1 115.42 196.619C116.039 196.137 116.521 195.587 116.865 194.968C117.209 194.325 117.381 193.649 117.381 192.938V192.25L117.897 192.732H110.535V189.051H121.199C121.245 189.303 121.28 189.555 121.302 189.808C121.325 190.037 121.337 190.266 121.337 190.496C121.36 190.702 121.371 190.908 121.371 191.115C121.371 192.697 121.096 194.142 120.546 195.449C119.995 196.734 119.227 197.846 118.241 198.786C117.278 199.726 116.142 200.46 114.835 200.988C113.551 201.492 112.152 201.744 110.638 201.744ZM131.713 201.744C129.947 201.744 128.365 201.343 126.966 200.54C125.59 199.715 124.5 198.603 123.698 197.204C122.895 195.782 122.494 194.165 122.494 192.353C122.494 190.541 122.895 188.936 123.698 187.537C124.5 186.115 125.59 185.003 126.966 184.2C128.365 183.375 129.947 182.962 131.713 182.962C133.456 182.962 135.015 183.375 136.391 184.2C137.79 185.003 138.891 186.115 139.694 187.537C140.496 188.936 140.898 190.541 140.898 192.353C140.898 194.165 140.496 195.782 139.694 197.204C138.891 198.603 137.79 199.715 136.391 200.54C135.015 201.343 133.456 201.744 131.713 201.744ZM131.713 198.511C132.791 198.511 133.754 198.247 134.602 197.72C135.451 197.169 136.116 196.435 136.598 195.518C137.079 194.578 137.309 193.523 137.286 192.353C137.309 191.161 137.079 190.106 136.598 189.188C136.116 188.248 135.451 187.514 134.602 186.987C133.754 186.459 132.791 186.196 131.713 186.196C130.635 186.196 129.66 186.471 128.789 187.021C127.94 187.549 127.275 188.283 126.794 189.223C126.312 190.14 126.083 191.184 126.106 192.353C126.083 193.523 126.312 194.578 126.794 195.518C127.275 196.435 127.94 197.169 128.789 197.72C129.66 198.247 130.635 198.511 131.713 198.511ZM151.157 201.744C149.391 201.744 147.809 201.343 146.41 200.54C145.034 199.715 143.944 198.603 143.142 197.204C142.339 195.782 141.938 194.165 141.938 192.353C141.938 190.541 142.339 188.936 143.142 187.537C143.944 186.115 145.034 185.003 146.41 184.2C147.809 183.375 149.391 182.962 151.157 182.962C152.9 182.962 154.459 183.375 155.835 184.2C157.234 185.003 158.335 186.115 159.138 187.537C159.94 188.936 160.342 190.541 160.342 192.353C160.342 194.165 159.94 195.782 159.138 197.204C158.335 198.603 157.234 199.715 155.835 200.54C154.459 201.343 152.9 201.744 151.157 201.744ZM151.157 198.511C152.235 198.511 153.198 198.247 154.047 197.72C154.895 197.169 155.56 196.435 156.042 195.518C156.523 194.578 156.753 193.523 156.73 192.353C156.753 191.161 156.523 190.106 156.042 189.188C155.56 188.248 154.895 187.514 154.047 186.987C153.198 186.459 152.235 186.196 151.157 186.196C150.079 186.196 149.104 186.471 148.233 187.021C147.384 187.549 146.719 188.283 146.238 189.223C145.756 190.14 145.527 191.184 145.55 192.353C145.527 193.523 145.756 194.578 146.238 195.518C146.719 196.435 147.384 197.169 148.233 197.72C149.104 198.247 150.079 198.511 151.157 198.511ZM170.567 209.312C169.282 209.312 167.998 209.106 166.714 208.693C165.452 208.303 164.432 207.787 163.652 207.145L164.959 204.393C165.418 204.737 165.957 205.035 166.576 205.288C167.195 205.563 167.849 205.769 168.537 205.907C169.225 206.067 169.902 206.148 170.567 206.148C171.828 206.148 172.883 205.941 173.731 205.528C174.58 205.116 175.222 204.508 175.658 203.705C176.094 202.903 176.311 201.905 176.311 200.712V197.238L176.69 197.479C176.575 198.19 176.197 198.878 175.555 199.543C174.935 200.185 174.156 200.712 173.215 201.125C172.275 201.538 171.312 201.744 170.326 201.744C168.606 201.744 167.069 201.343 165.716 200.54C164.386 199.715 163.331 198.603 162.551 197.204C161.772 195.782 161.382 194.165 161.382 192.353C161.382 190.541 161.76 188.936 162.517 187.537C163.297 186.115 164.352 185.003 165.682 184.2C167.035 183.375 168.548 182.962 170.223 182.962C170.911 182.962 171.576 183.054 172.218 183.237C172.86 183.398 173.456 183.639 174.007 183.96C174.557 184.258 175.05 184.59 175.486 184.957C175.922 185.324 176.277 185.714 176.552 186.127C176.827 186.54 176.999 186.929 177.068 187.296L176.311 187.572V183.34H179.855V200.3C179.855 201.744 179.637 203.017 179.201 204.118C178.788 205.242 178.181 206.182 177.378 206.939C176.575 207.719 175.6 208.303 174.454 208.693C173.307 209.106 172.011 209.312 170.567 209.312ZM170.704 198.476C171.828 198.476 172.826 198.213 173.697 197.685C174.568 197.158 175.245 196.435 175.727 195.518C176.208 194.601 176.449 193.546 176.449 192.353C176.449 191.161 176.197 190.106 175.692 189.188C175.211 188.248 174.534 187.514 173.663 186.987C172.814 186.459 171.828 186.196 170.704 186.196C169.603 186.196 168.617 186.471 167.746 187.021C166.897 187.549 166.221 188.283 165.716 189.223C165.235 190.14 164.994 191.184 164.994 192.353C164.994 193.523 165.235 194.578 165.716 195.518C166.221 196.435 166.897 197.158 167.746 197.685C168.617 198.213 169.603 198.476 170.704 198.476ZM183.171 201.4V175.944H186.715V201.4H183.171ZM198.108 201.744C196.251 201.744 194.599 201.355 193.155 200.575C191.733 199.772 190.609 198.683 189.783 197.307C188.981 195.931 188.579 194.348 188.579 192.56C188.579 191.138 188.809 189.842 189.267 188.672C189.726 187.503 190.357 186.494 191.159 185.645C191.985 184.774 192.96 184.109 194.083 183.65C195.23 183.168 196.468 182.928 197.799 182.928C198.968 182.928 200.058 183.157 201.067 183.616C202.076 184.051 202.947 184.659 203.681 185.439C204.438 186.219 205.011 187.147 205.401 188.225C205.814 189.28 206.009 190.438 205.986 191.7L205.951 193.213H191.194L190.403 190.392H202.89L202.374 190.977V190.152C202.305 189.395 202.053 188.718 201.617 188.122C201.181 187.526 200.631 187.056 199.966 186.712C199.301 186.368 198.578 186.196 197.799 186.196C196.56 186.196 195.517 186.436 194.668 186.918C193.82 187.377 193.178 188.065 192.742 188.982C192.306 189.876 192.088 190.989 192.088 192.319C192.088 193.58 192.352 194.681 192.879 195.621C193.407 196.539 194.152 197.25 195.115 197.754C196.079 198.259 197.191 198.511 198.452 198.511C199.347 198.511 200.172 198.362 200.929 198.064C201.709 197.766 202.546 197.227 203.44 196.447L205.229 198.958C204.679 199.508 204.002 199.99 203.199 200.403C202.42 200.816 201.583 201.148 200.688 201.4C199.817 201.63 198.957 201.744 198.108 201.744ZM216.932 201.4V177.32H226.358C228.078 177.32 229.626 177.607 231.002 178.18C232.401 178.754 233.593 179.579 234.58 180.657C235.566 181.735 236.322 183.008 236.85 184.476C237.377 185.943 237.641 187.572 237.641 189.36C237.641 191.149 237.377 192.789 236.85 194.28C236.322 195.747 235.566 197.02 234.58 198.098C233.616 199.153 232.435 199.967 231.036 200.54C229.637 201.114 228.078 201.4 226.358 201.4H216.932ZM220.647 198.201L220.544 197.823H226.186C227.401 197.823 228.479 197.628 229.42 197.238C230.383 196.848 231.185 196.298 231.828 195.587C232.493 194.853 232.997 193.959 233.341 192.904C233.685 191.849 233.857 190.668 233.857 189.36C233.857 188.053 233.685 186.884 233.341 185.852C232.997 184.797 232.493 183.902 231.828 183.168C231.162 182.435 230.36 181.873 229.42 181.483C228.479 181.093 227.401 180.898 226.186 180.898H220.441L220.647 180.588V198.201ZM248.479 201.744C246.621 201.744 244.97 201.355 243.525 200.575C242.103 199.772 240.98 198.683 240.154 197.307C239.351 195.931 238.95 194.348 238.95 192.56C238.95 191.138 239.179 189.842 239.638 188.672C240.097 187.503 240.727 186.494 241.53 185.645C242.356 184.774 243.33 184.109 244.454 183.65C245.601 183.168 246.839 182.928 248.169 182.928C249.339 182.928 250.428 183.157 251.437 183.616C252.446 184.051 253.318 184.659 254.052 185.439C254.808 186.219 255.382 187.147 255.772 188.225C256.184 189.28 256.379 190.438 256.356 191.7L256.322 193.213H241.564L240.773 190.392H253.26L252.744 190.977V190.152C252.676 189.395 252.423 188.718 251.988 188.122C251.552 187.526 251.001 187.056 250.336 186.712C249.671 186.368 248.949 186.196 248.169 186.196C246.931 186.196 245.887 186.436 245.039 186.918C244.19 187.377 243.548 188.065 243.112 188.982C242.677 189.876 242.459 190.989 242.459 192.319C242.459 193.58 242.723 194.681 243.25 195.621C243.777 196.539 244.523 197.25 245.486 197.754C246.449 198.259 247.561 198.511 248.823 198.511C249.717 198.511 250.543 198.362 251.3 198.064C252.079 197.766 252.916 197.227 253.811 196.447L255.6 198.958C255.049 199.508 254.373 199.99 253.57 200.403C252.79 200.816 251.953 201.148 251.059 201.4C250.187 201.63 249.327 201.744 248.479 201.744ZM264.068 201.4L256.431 183.34H260.25L265.754 196.86L265.1 197.169L270.982 183.34H274.629L266.614 201.4H264.068ZM284.075 201.744C282.217 201.744 280.566 201.355 279.121 200.575C277.699 199.772 276.576 198.683 275.75 197.307C274.947 195.931 274.546 194.348 274.546 192.56C274.546 191.138 274.775 189.842 275.234 188.672C275.693 187.503 276.323 186.494 277.126 185.645C277.952 184.774 278.926 184.109 280.05 183.65C281.197 183.168 282.435 182.928 283.765 182.928C284.935 182.928 286.024 183.157 287.033 183.616C288.042 184.051 288.914 184.659 289.648 185.439C290.404 186.219 290.978 187.147 291.368 188.225C291.78 189.28 291.975 190.438 291.952 191.7L291.918 193.213H277.16L276.369 190.392H288.856L288.34 190.977V190.152C288.272 189.395 288.019 188.718 287.584 188.122C287.148 187.526 286.597 187.056 285.932 186.712C285.267 186.368 284.545 186.196 283.765 186.196C282.527 186.196 281.483 186.436 280.635 186.918C279.786 187.377 279.144 188.065 278.708 188.982C278.273 189.876 278.055 190.989 278.055 192.319C278.055 193.58 278.319 194.681 278.846 195.621C279.373 196.539 280.119 197.25 281.082 197.754C282.045 198.259 283.157 198.511 284.419 198.511C285.313 198.511 286.139 198.362 286.896 198.064C287.675 197.766 288.512 197.227 289.407 196.447L291.196 198.958C290.645 199.508 289.969 199.99 289.166 200.403C288.386 200.816 287.549 201.148 286.655 201.4C285.783 201.63 284.923 201.744 284.075 201.744ZM294.152 201.4V175.944H297.695V201.4H294.152ZM308.779 201.744C307.013 201.744 305.431 201.343 304.032 200.54C302.656 199.715 301.567 198.603 300.764 197.204C299.961 195.782 299.56 194.165 299.56 192.353C299.56 190.541 299.961 188.936 300.764 187.537C301.567 186.115 302.656 185.003 304.032 184.2C305.431 183.375 307.013 182.962 308.779 182.962C310.522 182.962 312.082 183.375 313.458 184.2C314.857 185.003 315.957 186.115 316.76 187.537C317.563 188.936 317.964 190.541 317.964 192.353C317.964 194.165 317.563 195.782 316.76 197.204C315.957 198.603 314.857 199.715 313.458 200.54C312.082 201.343 310.522 201.744 308.779 201.744ZM308.779 198.511C309.857 198.511 310.82 198.247 311.669 197.72C312.517 197.169 313.182 196.435 313.664 195.518C314.146 194.578 314.375 193.523 314.352 192.353C314.375 191.161 314.146 190.106 313.664 189.188C313.182 188.248 312.517 187.514 311.669 186.987C310.82 186.459 309.857 186.196 308.779 186.196C307.701 186.196 306.727 186.471 305.855 187.021C305.007 187.549 304.342 188.283 303.86 189.223C303.378 190.14 303.149 191.184 303.172 192.353C303.149 193.523 303.378 194.578 303.86 195.518C304.342 196.435 305.007 197.169 305.855 197.72C306.727 198.247 307.701 198.511 308.779 198.511ZM320.105 208.968V183.34H323.682V187.468L323.132 187.159C323.27 186.471 323.66 185.817 324.302 185.198C324.944 184.556 325.724 184.04 326.641 183.65C327.581 183.237 328.544 183.031 329.53 183.031C331.159 183.031 332.604 183.432 333.865 184.235C335.126 185.037 336.124 186.138 336.858 187.537C337.592 188.936 337.959 190.541 337.959 192.353C337.959 194.142 337.592 195.747 336.858 197.169C336.147 198.568 335.161 199.68 333.899 200.506C332.638 201.309 331.216 201.71 329.634 201.71C328.579 201.71 327.558 201.504 326.572 201.091C325.586 200.655 324.749 200.105 324.061 199.44C323.373 198.775 322.949 198.087 322.788 197.376L323.682 196.894V208.968H320.105ZM329.049 198.442C330.104 198.442 331.044 198.178 331.87 197.651C332.695 197.123 333.349 196.401 333.831 195.484C334.312 194.566 334.553 193.523 334.553 192.353C334.553 191.184 334.312 190.152 333.831 189.257C333.372 188.34 332.73 187.617 331.904 187.09C331.079 186.563 330.127 186.299 329.049 186.299C327.971 186.299 327.019 186.563 326.194 187.09C325.368 187.595 324.714 188.305 324.233 189.223C323.751 190.14 323.51 191.184 323.51 192.353C323.51 193.523 323.751 194.566 324.233 195.484C324.714 196.401 325.368 197.123 326.194 197.651C327.019 198.178 327.971 198.442 329.049 198.442ZM348.515 201.744C346.657 201.744 345.006 201.355 343.561 200.575C342.139 199.772 341.015 198.683 340.19 197.307C339.387 195.931 338.986 194.348 338.986 192.56C338.986 191.138 339.215 189.842 339.674 188.672C340.132 187.503 340.763 186.494 341.566 185.645C342.391 184.774 343.366 184.109 344.49 183.65C345.636 183.168 346.875 182.928 348.205 182.928C349.375 182.928 350.464 183.157 351.473 183.616C352.482 184.051 353.353 184.659 354.087 185.439C354.844 186.219 355.417 187.147 355.807 188.225C356.22 189.28 356.415 190.438 356.392 191.7L356.358 193.213H341.6L340.809 190.392H353.296L352.78 190.977V190.152C352.711 189.395 352.459 188.718 352.023 188.122C351.588 187.526 351.037 187.056 350.372 186.712C349.707 186.368 348.985 186.196 348.205 186.196C346.967 186.196 345.923 186.436 345.074 186.918C344.226 187.377 343.584 188.065 343.148 188.982C342.712 189.876 342.494 190.989 342.494 192.319C342.494 193.58 342.758 194.681 343.286 195.621C343.813 196.539 344.558 197.25 345.522 197.754C346.485 198.259 347.597 198.511 348.859 198.511C349.753 198.511 350.579 198.362 351.335 198.064C352.115 197.766 352.952 197.227 353.847 196.447L355.635 198.958C355.085 199.508 354.408 199.99 353.606 200.403C352.826 200.816 351.989 201.148 351.095 201.4C350.223 201.63 349.363 201.744 348.515 201.744ZM358.523 201.4V183.34H362.1V189.016L361.756 187.64C362.009 186.769 362.433 185.978 363.029 185.267C363.648 184.556 364.348 183.994 365.128 183.581C365.93 183.168 366.756 182.962 367.604 182.962C367.994 182.962 368.361 182.996 368.705 183.065C369.072 183.134 369.359 183.214 369.565 183.306L368.636 187.159C368.361 187.044 368.052 186.952 367.708 186.884C367.387 186.792 367.065 186.746 366.744 186.746C366.125 186.746 365.529 186.872 364.956 187.124C364.405 187.354 363.912 187.686 363.476 188.122C363.064 188.535 362.731 189.028 362.479 189.601C362.227 190.152 362.1 190.759 362.1 191.424V201.4H358.523ZM390.26 201.744C388.517 201.744 386.889 201.435 385.375 200.816C383.862 200.174 382.532 199.291 381.385 198.167C380.238 197.043 379.344 195.736 378.702 194.245C378.082 192.732 377.773 191.103 377.773 189.36C377.773 187.64 378.082 186.035 378.702 184.544C379.344 183.054 380.227 181.758 381.35 180.657C382.497 179.533 383.827 178.662 385.341 178.043C386.855 177.424 388.483 177.114 390.226 177.114C391.441 177.114 392.622 177.286 393.769 177.63C394.939 177.974 395.993 178.456 396.934 179.075C397.874 179.694 398.642 180.405 399.239 181.208L396.831 183.719C396.143 183.054 395.432 182.503 394.698 182.068C393.987 181.632 393.253 181.299 392.496 181.07C391.739 180.841 390.983 180.726 390.226 180.726C388.987 180.726 387.841 180.944 386.786 181.38C385.754 181.815 384.836 182.423 384.034 183.203C383.254 183.983 382.646 184.9 382.21 185.955C381.775 186.987 381.557 188.122 381.557 189.36C381.557 190.553 381.786 191.688 382.245 192.766C382.704 193.821 383.334 194.75 384.137 195.552C384.962 196.355 385.903 196.986 386.958 197.444C388.036 197.903 389.171 198.132 390.363 198.132C391.258 198.132 392.106 198.006 392.909 197.754C393.712 197.479 394.423 197.1 395.042 196.619C395.661 196.137 396.143 195.587 396.487 194.968C396.831 194.325 397.003 193.649 397.003 192.938V192.25L397.519 192.732H390.157V189.051H400.821C400.867 189.303 400.901 189.555 400.924 189.808C400.947 190.037 400.959 190.266 400.959 190.496C400.981 190.702 400.993 190.908 400.993 191.115C400.993 192.697 400.718 194.142 400.167 195.449C399.617 196.734 398.849 197.846 397.863 198.786C396.899 199.726 395.764 200.46 394.457 200.988C393.173 201.492 391.774 201.744 390.26 201.744ZM403.216 201.4V183.34H406.794V189.016L406.45 187.64C406.702 186.769 407.126 185.978 407.722 185.267C408.342 184.556 409.041 183.994 409.821 183.581C410.624 183.168 411.449 182.962 412.298 182.962C412.688 182.962 413.054 182.996 413.398 183.065C413.765 183.134 414.052 183.214 414.258 183.306L413.33 187.159C413.054 187.044 412.745 186.952 412.401 186.884C412.08 186.792 411.759 186.746 411.438 186.746C410.818 186.746 410.222 186.872 409.649 187.124C409.098 187.354 408.605 187.686 408.17 188.122C407.757 188.535 407.424 189.028 407.172 189.601C406.92 190.152 406.794 190.759 406.794 191.424V201.4H403.216ZM422.716 201.744C420.95 201.744 419.368 201.343 417.969 200.54C416.593 199.715 415.503 198.603 414.701 197.204C413.898 195.782 413.497 194.165 413.497 192.353C413.497 190.541 413.898 188.936 414.701 187.537C415.503 186.115 416.593 185.003 417.969 184.2C419.368 183.375 420.95 182.962 422.716 182.962C424.459 182.962 426.018 183.375 427.394 184.2C428.793 185.003 429.894 186.115 430.697 187.537C431.5 188.936 431.901 190.541 431.901 192.353C431.901 194.165 431.5 195.782 430.697 197.204C429.894 198.603 428.793 199.715 427.394 200.54C426.018 201.343 424.459 201.744 422.716 201.744ZM422.716 198.511C423.794 198.511 424.757 198.247 425.606 197.72C426.454 197.169 427.119 196.435 427.601 195.518C428.082 194.578 428.312 193.523 428.289 192.353C428.312 191.161 428.082 190.106 427.601 189.188C427.119 188.248 426.454 187.514 425.606 186.987C424.757 186.459 423.794 186.196 422.716 186.196C421.638 186.196 420.664 186.471 419.792 187.021C418.944 187.549 418.278 188.283 417.797 189.223C417.315 190.14 417.086 191.184 417.109 192.353C417.086 193.523 417.315 194.578 417.797 195.518C418.278 196.435 418.944 197.169 419.792 197.72C420.664 198.247 421.638 198.511 422.716 198.511ZM440.371 201.744C439.087 201.744 437.963 201.446 437 200.85C436.06 200.254 435.326 199.417 434.799 198.339C434.294 197.261 434.042 195.977 434.042 194.486V183.34H437.585V193.523C437.585 194.578 437.745 195.495 438.067 196.275C438.411 197.032 438.892 197.616 439.511 198.029C440.153 198.442 440.922 198.648 441.816 198.648C442.481 198.648 443.089 198.545 443.639 198.339C444.19 198.11 444.66 197.8 445.05 197.41C445.463 197.02 445.784 196.55 446.013 196C446.242 195.449 446.357 194.853 446.357 194.211V183.34H449.9V201.4H446.357V197.616L446.976 197.204C446.701 198.052 446.231 198.82 445.566 199.508C444.924 200.196 444.155 200.747 443.261 201.16C442.367 201.55 441.403 201.744 440.371 201.744ZM453.15 208.968V183.34H456.728V187.468L456.177 187.159C456.315 186.471 456.705 185.817 457.347 185.198C457.989 184.556 458.769 184.04 459.686 183.65C460.626 183.237 461.589 183.031 462.576 183.031C464.204 183.031 465.649 183.432 466.91 184.235C468.171 185.037 469.169 186.138 469.903 187.537C470.637 188.936 471.004 190.541 471.004 192.353C471.004 194.142 470.637 195.747 469.903 197.169C469.192 198.568 468.206 199.68 466.944 200.506C465.683 201.309 464.261 201.71 462.679 201.71C461.624 201.71 460.603 201.504 459.617 201.091C458.631 200.655 457.794 200.105 457.106 199.44C456.418 198.775 455.994 198.087 455.833 197.376L456.728 196.894V208.968H453.15ZM462.094 198.442C463.149 198.442 464.089 198.178 464.915 197.651C465.74 197.123 466.394 196.401 466.876 195.484C467.357 194.566 467.598 193.523 467.598 192.353C467.598 191.184 467.357 190.152 466.876 189.257C466.417 188.34 465.775 187.617 464.949 187.09C464.124 186.563 463.172 186.299 462.094 186.299C461.016 186.299 460.064 186.563 459.239 187.09C458.413 187.595 457.76 188.305 457.278 189.223C456.796 190.14 456.556 191.184 456.556 192.353C456.556 193.523 456.796 194.566 457.278 195.484C457.76 196.401 458.413 197.123 459.239 197.651C460.064 198.178 461.016 198.442 462.094 198.442ZM479.152 201.744C477.638 201.744 476.273 201.481 475.058 200.953C473.842 200.426 472.833 199.646 472.031 198.614L474.439 196.55C475.127 197.353 475.872 197.938 476.675 198.304C477.5 198.648 478.429 198.82 479.461 198.82C479.874 198.82 480.252 198.775 480.596 198.683C480.963 198.568 481.273 198.408 481.525 198.201C481.8 197.995 482.007 197.754 482.144 197.479C482.282 197.181 482.351 196.86 482.351 196.516C482.351 195.919 482.133 195.438 481.697 195.071C481.468 194.91 481.101 194.738 480.596 194.555C480.115 194.348 479.484 194.142 478.704 193.936C477.374 193.592 476.285 193.202 475.436 192.766C474.588 192.33 473.934 191.837 473.476 191.287C473.132 190.851 472.879 190.381 472.719 189.876C472.558 189.349 472.478 188.776 472.478 188.156C472.478 187.4 472.638 186.712 472.96 186.092C473.304 185.45 473.762 184.9 474.336 184.441C474.932 183.96 475.62 183.593 476.4 183.34C477.202 183.088 478.051 182.962 478.945 182.962C479.794 182.962 480.631 183.077 481.456 183.306C482.305 183.535 483.085 183.868 483.796 184.304C484.506 184.739 485.103 185.255 485.584 185.852L483.555 188.088C483.119 187.652 482.637 187.273 482.11 186.952C481.605 186.608 481.089 186.345 480.562 186.161C480.034 185.978 479.553 185.886 479.117 185.886C478.636 185.886 478.2 185.932 477.81 186.024C477.42 186.115 477.088 186.253 476.812 186.436C476.56 186.62 476.365 186.849 476.228 187.124C476.09 187.4 476.021 187.709 476.021 188.053C476.044 188.351 476.113 188.638 476.228 188.913C476.365 189.165 476.549 189.383 476.778 189.567C477.03 189.75 477.409 189.945 477.913 190.152C478.418 190.358 479.06 190.553 479.84 190.736C480.986 191.035 481.926 191.367 482.66 191.734C483.417 192.078 484.013 192.479 484.449 192.938C484.908 193.374 485.229 193.878 485.412 194.452C485.596 195.025 485.688 195.667 485.688 196.378C485.688 197.41 485.389 198.339 484.793 199.164C484.22 199.967 483.44 200.598 482.454 201.056C481.468 201.515 480.367 201.744 479.152 201.744Z" fill="#666666"/>
<path d="M75.557 226.56C74.7677 226.56 74.037 226.416 73.365 226.128C72.7037 225.84 72.1223 225.44 71.621 224.928C71.1303 224.406 70.7463 223.798 70.469 223.104C70.2023 222.4 70.069 221.632 70.069 220.8C70.069 219.968 70.2023 219.206 70.469 218.512C70.7463 217.808 71.1303 217.2 71.621 216.688C72.1223 216.166 72.7037 215.76 73.365 215.472C74.037 215.184 74.7677 215.04 75.557 215.04C76.3463 215.04 77.0717 215.184 77.733 215.472C78.405 215.76 78.9863 216.166 79.477 216.688C79.9783 217.211 80.3623 217.824 80.629 218.528C80.9063 219.222 81.045 219.979 81.045 220.8C81.045 221.622 80.9063 222.384 80.629 223.088C80.3623 223.782 79.9783 224.39 79.477 224.912C78.9863 225.435 78.405 225.84 77.733 226.128C77.0717 226.416 76.3463 226.56 75.557 226.56ZM75.557 224.88C76.101 224.88 76.597 224.779 77.045 224.576C77.5037 224.374 77.8983 224.091 78.229 223.728C78.5597 223.355 78.8157 222.923 78.997 222.432C79.189 221.931 79.285 221.387 79.285 220.8C79.285 220.214 79.189 219.675 78.997 219.184C78.8157 218.683 78.5597 218.251 78.229 217.888C77.8983 217.515 77.5037 217.227 77.045 217.024C76.597 216.822 76.101 216.72 75.557 216.72C75.013 216.72 74.5117 216.822 74.053 217.024C73.605 217.227 73.2103 217.51 72.869 217.872C72.5383 218.235 72.2823 218.667 72.101 219.168C71.9197 219.659 71.829 220.203 71.829 220.8C71.829 221.387 71.9197 221.931 72.101 222.432C72.2823 222.934 72.5383 223.366 72.869 223.728C73.2103 224.091 73.605 224.374 74.053 224.576C74.5117 224.779 75.013 224.88 75.557 224.88ZM82.1686 226.4V218H83.8166V219.728L83.5286 219.92C83.6353 219.547 83.8433 219.206 84.1526 218.896C84.462 218.576 84.83 218.32 85.2566 218.128C85.6833 217.926 86.1206 217.824 86.5686 217.824C87.2087 217.824 87.742 217.952 88.1687 218.208C88.5953 218.454 88.9153 218.832 89.1287 219.344C89.342 219.856 89.4487 220.502 89.4487 221.28V226.4H87.8007V221.392C87.8007 220.912 87.7367 220.518 87.6087 220.208C87.4807 219.888 87.2833 219.659 87.0167 219.52C86.75 219.371 86.4193 219.307 86.0246 219.328C85.7046 219.328 85.4113 219.382 85.1446 219.488C84.878 219.584 84.6433 219.723 84.4406 219.904C84.2486 220.086 84.094 220.299 83.9766 220.544C83.87 220.779 83.8166 221.035 83.8166 221.312V226.4H83.0006C82.862 226.4 82.7233 226.4 82.5846 226.4C82.446 226.4 82.3073 226.4 82.1686 226.4ZM99.5287 226.56C98.75 226.56 98.0353 226.422 97.3847 226.144C96.734 225.867 96.1687 225.472 95.6887 224.96C95.2087 224.438 94.8353 223.824 94.5687 223.12C94.3127 222.416 94.1847 221.643 94.1847 220.8C94.1847 220 94.3233 219.259 94.6007 218.576C94.8887 217.883 95.2833 217.275 95.7847 216.752C96.286 216.23 96.8673 215.824 97.5287 215.536C98.19 215.248 98.9047 215.104 99.6727 215.104C100.217 215.104 100.745 215.19 101.257 215.36C101.779 215.52 102.249 215.75 102.665 216.048C103.091 216.336 103.438 216.667 103.705 217.04L102.553 218.24C102.243 217.931 101.929 217.675 101.609 217.472C101.299 217.259 100.979 217.099 100.649 216.992C100.329 216.886 100.003 216.832 99.6727 216.832C99.15 216.832 98.6593 216.934 98.2007 217.136C97.7527 217.328 97.358 217.6 97.0167 217.952C96.686 218.304 96.4247 218.726 96.2327 219.216C96.0407 219.696 95.9447 220.224 95.9447 220.8C95.9447 221.408 96.0353 221.963 96.2167 222.464C96.4087 222.955 96.6753 223.376 97.0167 223.728C97.358 224.08 97.7633 224.352 98.2327 224.544C98.7127 224.726 99.2407 224.816 99.8167 224.816C100.169 224.816 100.515 224.768 100.857 224.672C101.198 224.576 101.518 224.438 101.817 224.256C102.115 224.075 102.387 223.862 102.633 223.616L103.497 225.024C103.251 225.312 102.915 225.574 102.489 225.808C102.073 226.043 101.603 226.23 101.081 226.368C100.569 226.496 100.051 226.56 99.5287 226.56ZM107.86 226.56C107.167 226.56 106.532 226.368 105.956 225.984C105.391 225.6 104.937 225.078 104.596 224.416C104.255 223.755 104.084 223.008 104.084 222.176C104.084 221.334 104.255 220.587 104.596 219.936C104.948 219.275 105.417 218.758 106.004 218.384C106.601 218.011 107.268 217.824 108.004 217.824C108.441 217.824 108.841 217.888 109.204 218.016C109.567 218.144 109.881 218.326 110.148 218.56C110.425 218.784 110.649 219.046 110.82 219.344C111.001 219.643 111.113 219.963 111.156 220.304L110.788 220.176V218H112.452V226.4H110.788V224.4L111.172 224.288C111.108 224.576 110.975 224.859 110.772 225.136C110.58 225.403 110.329 225.643 110.02 225.856C109.721 226.07 109.385 226.24 109.012 226.368C108.649 226.496 108.265 226.56 107.86 226.56ZM108.292 225.04C108.793 225.04 109.236 224.918 109.62 224.672C110.004 224.427 110.303 224.091 110.516 223.664C110.74 223.227 110.852 222.731 110.852 222.176C110.852 221.632 110.74 221.147 110.516 220.72C110.303 220.294 110.004 219.958 109.62 219.712C109.236 219.467 108.793 219.344 108.292 219.344C107.801 219.344 107.364 219.467 106.98 219.712C106.607 219.958 106.308 220.294 106.084 220.72C105.871 221.147 105.764 221.632 105.764 222.176C105.764 222.731 105.871 223.227 106.084 223.664C106.308 224.091 106.607 224.427 106.98 224.672C107.364 224.918 107.801 225.04 108.292 225.04ZM113.921 226.4V218H115.585V219.792L115.281 219.984C115.366 219.707 115.5 219.44 115.681 219.184C115.873 218.928 116.102 218.704 116.369 218.512C116.646 218.31 116.94 218.15 117.249 218.032C117.569 217.915 117.894 217.856 118.225 217.856C118.705 217.856 119.126 217.936 119.489 218.096C119.852 218.256 120.15 218.496 120.385 218.816C120.62 219.136 120.79 219.536 120.897 220.016L120.641 219.952L120.753 219.68C120.87 219.435 121.03 219.206 121.233 218.992C121.446 218.768 121.686 218.571 121.953 218.4C122.22 218.23 122.502 218.096 122.801 218C123.1 217.904 123.393 217.856 123.681 217.856C124.31 217.856 124.828 217.984 125.233 218.24C125.649 218.496 125.958 218.886 126.161 219.408C126.374 219.931 126.481 220.582 126.481 221.36V226.4H124.817V221.456C124.817 220.976 124.753 220.587 124.625 220.288C124.508 219.979 124.326 219.75 124.081 219.6C123.836 219.451 123.521 219.376 123.137 219.376C122.838 219.376 122.556 219.43 122.289 219.536C122.033 219.632 121.809 219.771 121.617 219.952C121.425 220.134 121.276 220.347 121.169 220.592C121.062 220.827 121.009 221.088 121.009 221.376V226.4H119.345V221.424C119.345 220.987 119.281 220.619 119.153 220.32C119.025 220.011 118.838 219.776 118.593 219.616C118.348 219.456 118.049 219.376 117.697 219.376C117.398 219.376 117.121 219.43 116.865 219.536C116.609 219.632 116.385 219.771 116.193 219.952C116.001 220.123 115.852 220.331 115.745 220.576C115.638 220.811 115.585 221.067 115.585 221.344V226.4H113.921ZM127.888 229.92V218H129.552V219.92L129.296 219.776C129.36 219.456 129.541 219.152 129.84 218.864C130.138 218.566 130.501 218.326 130.928 218.144C131.365 217.952 131.813 217.856 132.272 217.856C133.029 217.856 133.701 218.043 134.288 218.416C134.874 218.79 135.338 219.302 135.68 219.952C136.021 220.603 136.192 221.35 136.192 222.192C136.192 223.024 136.021 223.771 135.68 224.432C135.349 225.083 134.89 225.6 134.304 225.984C133.717 226.358 133.056 226.544 132.32 226.544C131.829 226.544 131.354 226.448 130.896 226.256C130.437 226.054 130.048 225.798 129.728 225.488C129.408 225.179 129.21 224.859 129.136 224.528L129.552 224.304V229.92H127.888ZM132.048 225.024C132.538 225.024 132.976 224.902 133.36 224.656C133.744 224.411 134.048 224.075 134.272 223.648C134.496 223.222 134.608 222.736 134.608 222.192C134.608 221.648 134.496 221.168 134.272 220.752C134.058 220.326 133.76 219.99 133.376 219.744C132.992 219.499 132.549 219.376 132.048 219.376C131.546 219.376 131.104 219.499 130.72 219.744C130.336 219.979 130.032 220.31 129.808 220.736C129.584 221.163 129.472 221.648 129.472 222.192C129.472 222.736 129.584 223.222 129.808 223.648C130.032 224.075 130.336 224.411 130.72 224.656C131.104 224.902 131.546 225.024 132.048 225.024ZM140.125 226.56C139.528 226.56 139.005 226.422 138.557 226.144C138.12 225.867 137.779 225.478 137.533 224.976C137.299 224.475 137.181 223.878 137.181 223.184V218H138.829V222.736C138.829 223.227 138.904 223.654 139.053 224.016C139.213 224.368 139.437 224.64 139.725 224.832C140.024 225.024 140.381 225.12 140.797 225.12C141.107 225.12 141.389 225.072 141.645 224.976C141.901 224.87 142.12 224.726 142.301 224.544C142.493 224.363 142.643 224.144 142.749 223.888C142.856 223.632 142.909 223.355 142.909 223.056V218H144.557V226.4H142.909V224.64L143.197 224.448C143.069 224.843 142.851 225.2 142.541 225.52C142.243 225.84 141.885 226.096 141.469 226.288C141.053 226.47 140.605 226.56 140.125 226.56ZM148.869 226.56C148.165 226.56 147.53 226.438 146.965 226.192C146.399 225.947 145.93 225.584 145.557 225.104L146.677 224.144C146.997 224.518 147.343 224.79 147.717 224.96C148.101 225.12 148.533 225.2 149.013 225.2C149.205 225.2 149.381 225.179 149.541 225.136C149.711 225.083 149.855 225.008 149.973 224.912C150.101 224.816 150.197 224.704 150.261 224.576C150.325 224.438 150.357 224.288 150.357 224.128C150.357 223.851 150.255 223.627 150.053 223.456C149.946 223.382 149.775 223.302 149.541 223.216C149.317 223.12 149.023 223.024 148.661 222.928C148.042 222.768 147.535 222.587 147.141 222.384C146.746 222.182 146.442 221.952 146.229 221.696C146.069 221.494 145.951 221.275 145.877 221.04C145.802 220.795 145.765 220.528 145.765 220.24C145.765 219.888 145.839 219.568 145.989 219.28C146.149 218.982 146.362 218.726 146.629 218.512C146.906 218.288 147.226 218.118 147.589 218C147.962 217.883 148.357 217.824 148.773 217.824C149.167 217.824 149.557 217.878 149.941 217.984C150.335 218.091 150.698 218.246 151.029 218.448C151.359 218.651 151.637 218.891 151.861 219.168L150.917 220.208C150.714 220.006 150.49 219.83 150.245 219.68C150.01 219.52 149.77 219.398 149.525 219.312C149.279 219.227 149.055 219.184 148.853 219.184C148.629 219.184 148.426 219.206 148.245 219.248C148.063 219.291 147.909 219.355 147.781 219.44C147.663 219.526 147.573 219.632 147.509 219.76C147.445 219.888 147.413 220.032 147.413 220.192C147.423 220.331 147.455 220.464 147.509 220.592C147.573 220.71 147.658 220.811 147.765 220.896C147.882 220.982 148.058 221.072 148.293 221.168C148.527 221.264 148.826 221.355 149.189 221.44C149.722 221.579 150.159 221.734 150.501 221.904C150.853 222.064 151.13 222.251 151.333 222.464C151.546 222.667 151.695 222.902 151.781 223.168C151.866 223.435 151.909 223.734 151.909 224.064C151.909 224.544 151.77 224.976 151.493 225.36C151.226 225.734 150.863 226.027 150.405 226.24C149.946 226.454 149.434 226.56 148.869 226.56Z" fill="#609CFF"/>
<path d="M158.225 222.944C157.831 222.944 157.468 222.848 157.137 222.656C156.807 222.464 156.54 222.203 156.337 221.872C156.145 221.542 156.049 221.179 156.049 220.784C156.049 220.379 156.145 220.011 156.337 219.68C156.529 219.35 156.791 219.088 157.121 218.896C157.452 218.694 157.82 218.592 158.225 218.592C158.631 218.592 158.999 218.694 159.329 218.896C159.66 219.088 159.921 219.35 160.113 219.68C160.316 220.011 160.417 220.379 160.417 220.784C160.417 221.179 160.316 221.542 160.113 221.872C159.921 222.203 159.66 222.464 159.329 222.656C158.999 222.848 158.631 222.944 158.225 222.944ZM164.273 226.4L168.609 215.2H170.369L174.673 226.4H172.833L170.273 219.648C170.241 219.574 170.177 219.392 170.081 219.104C169.996 218.816 169.894 218.496 169.777 218.144C169.66 217.792 169.553 217.472 169.457 217.184C169.361 216.886 169.297 216.694 169.265 216.608L169.633 216.592C169.569 216.774 169.489 217.003 169.393 217.28C169.308 217.558 169.212 217.851 169.105 218.16C169.009 218.47 168.913 218.763 168.817 219.04C168.721 219.307 168.641 219.531 168.577 219.712L166.033 226.4H164.273ZM166.193 223.616L166.833 221.952H171.921L172.657 223.616H166.193ZM175.396 226.4V218H177.06V219.792L176.756 219.984C176.842 219.707 176.975 219.44 177.156 219.184C177.348 218.928 177.578 218.704 177.844 218.512C178.122 218.31 178.415 218.15 178.724 218.032C179.044 217.915 179.37 217.856 179.7 217.856C180.18 217.856 180.602 217.936 180.964 218.096C181.327 218.256 181.626 218.496 181.86 218.816C182.095 219.136 182.266 219.536 182.372 220.016L182.116 219.952L182.228 219.68C182.346 219.435 182.506 219.206 182.708 218.992C182.922 218.768 183.162 218.571 183.428 218.4C183.695 218.23 183.978 218.096 184.276 218C184.575 217.904 184.868 217.856 185.156 217.856C185.786 217.856 186.303 217.984 186.708 218.24C187.124 218.496 187.434 218.886 187.636 219.408C187.85 219.931 187.956 220.582 187.956 221.36V226.4H186.292V221.456C186.292 220.976 186.228 220.587 186.1 220.288C185.983 219.979 185.802 219.75 185.556 219.6C185.311 219.451 184.996 219.376 184.612 219.376C184.314 219.376 184.031 219.43 183.764 219.536C183.508 219.632 183.284 219.771 183.092 219.952C182.9 220.134 182.751 220.347 182.644 220.592C182.538 220.827 182.484 221.088 182.484 221.376V226.4H180.82V221.424C180.82 220.987 180.756 220.619 180.628 220.32C180.5 220.011 180.314 219.776 180.068 219.616C179.823 219.456 179.524 219.376 179.172 219.376C178.874 219.376 178.596 219.43 178.34 219.536C178.084 219.632 177.86 219.771 177.668 219.952C177.476 220.123 177.327 220.331 177.22 220.576C177.114 220.811 177.06 221.067 177.06 221.344V226.4H175.396ZM193.779 226.56C193.416 226.56 193.053 226.502 192.691 226.384C192.339 226.267 192.013 226.112 191.715 225.92C191.427 225.718 191.181 225.499 190.979 225.264C190.787 225.019 190.659 224.774 190.595 224.528L191.011 224.304V226.352H189.363V214.56H191.011V219.92L190.755 219.776C190.808 219.531 190.925 219.296 191.107 219.072C191.288 218.838 191.517 218.63 191.795 218.448C192.083 218.256 192.392 218.107 192.723 218C193.053 217.883 193.389 217.824 193.731 217.824C194.488 217.824 195.16 218.011 195.747 218.384C196.333 218.758 196.797 219.275 197.139 219.936C197.48 220.587 197.651 221.334 197.651 222.176C197.651 223.019 197.48 223.771 197.139 224.432C196.808 225.094 196.349 225.616 195.763 226C195.176 226.374 194.515 226.56 193.779 226.56ZM193.507 225.056C193.997 225.056 194.435 224.934 194.819 224.688C195.203 224.432 195.507 224.091 195.731 223.664C195.955 223.227 196.067 222.731 196.067 222.176C196.067 221.632 195.955 221.147 195.731 220.72C195.517 220.283 195.219 219.942 194.835 219.696C194.451 219.451 194.008 219.328 193.507 219.328C193.005 219.328 192.563 219.451 192.179 219.696C191.795 219.942 191.491 220.283 191.267 220.72C191.043 221.147 190.931 221.632 190.931 222.176C190.931 222.731 191.043 223.227 191.267 223.664C191.491 224.091 191.795 224.432 192.179 224.688C192.563 224.934 193.005 225.056 193.507 225.056ZM202.561 226.56C201.697 226.56 200.929 226.379 200.257 226.016C199.595 225.643 199.073 225.136 198.689 224.496C198.315 223.856 198.129 223.12 198.129 222.288C198.129 221.627 198.235 221.024 198.449 220.48C198.662 219.936 198.955 219.467 199.329 219.072C199.713 218.667 200.166 218.358 200.689 218.144C201.222 217.92 201.798 217.808 202.417 217.808C202.961 217.808 203.467 217.915 203.937 218.128C204.406 218.331 204.812 218.614 205.153 218.976C205.505 219.339 205.772 219.771 205.953 220.272C206.145 220.763 206.236 221.302 206.225 221.888L206.209 222.592H199.345L198.977 221.28H204.785L204.545 221.552V221.168C204.513 220.816 204.396 220.502 204.193 220.224C203.99 219.947 203.734 219.728 203.425 219.568C203.115 219.408 202.779 219.328 202.417 219.328C201.841 219.328 201.355 219.44 200.961 219.664C200.566 219.878 200.267 220.198 200.065 220.624C199.862 221.04 199.761 221.558 199.761 222.176C199.761 222.763 199.883 223.275 200.129 223.712C200.374 224.139 200.721 224.47 201.169 224.704C201.617 224.939 202.134 225.056 202.721 225.056C203.137 225.056 203.521 224.987 203.873 224.848C204.236 224.71 204.625 224.459 205.041 224.096L205.873 225.264C205.617 225.52 205.302 225.744 204.929 225.936C204.566 226.128 204.177 226.283 203.761 226.4C203.355 226.507 202.955 226.56 202.561 226.56ZM210.72 226.56C209.952 226.56 209.264 226.374 208.656 226C208.059 225.616 207.584 225.099 207.232 224.448C206.88 223.787 206.704 223.035 206.704 222.192C206.704 221.35 206.875 220.603 207.216 219.952C207.568 219.291 208.043 218.774 208.64 218.4C209.237 218.016 209.915 217.824 210.672 217.824C211.088 217.824 211.488 217.894 211.872 218.032C212.267 218.16 212.619 218.342 212.928 218.576C213.237 218.8 213.477 219.051 213.648 219.328C213.829 219.595 213.92 219.867 213.92 220.144L213.44 220.176V214.56H215.088V226.4H213.44V224.4H213.76C213.76 224.656 213.675 224.912 213.504 225.168C213.333 225.414 213.104 225.643 212.816 225.856C212.539 226.07 212.213 226.24 211.84 226.368C211.477 226.496 211.104 226.56 210.72 226.56ZM210.944 225.136C211.445 225.136 211.888 225.008 212.272 224.752C212.656 224.496 212.955 224.15 213.168 223.712C213.392 223.264 213.504 222.758 213.504 222.192C213.504 221.627 213.392 221.126 213.168 220.688C212.955 220.24 212.656 219.888 212.272 219.632C211.888 219.376 211.445 219.248 210.944 219.248C210.443 219.248 210 219.376 209.616 219.632C209.232 219.888 208.928 220.24 208.704 220.688C208.491 221.126 208.384 221.627 208.384 222.192C208.384 222.758 208.491 223.264 208.704 223.712C208.928 224.15 209.232 224.496 209.616 224.752C210 225.008 210.443 225.136 210.944 225.136ZM218.061 223.776L217.981 221.984L221.997 218H224.221L218.061 223.776ZM216.556 226.4V214.56H218.205V226.4H216.556ZM222.221 226.4L219.053 222.704L220.221 221.632L224.333 226.4H222.221ZM227.723 226.56C227.03 226.56 226.395 226.368 225.819 225.984C225.254 225.6 224.8 225.078 224.459 224.416C224.118 223.755 223.947 223.008 223.947 222.176C223.947 221.334 224.118 220.587 224.459 219.936C224.811 219.275 225.28 218.758 225.867 218.384C226.464 218.011 227.131 217.824 227.867 217.824C228.304 217.824 228.704 217.888 229.067 218.016C229.43 218.144 229.744 218.326 230.011 218.56C230.288 218.784 230.512 219.046 230.683 219.344C230.864 219.643 230.976 219.963 231.019 220.304L230.651 220.176V218H232.315V226.4H230.651V224.4L231.035 224.288C230.971 224.576 230.838 224.859 230.635 225.136C230.443 225.403 230.192 225.643 229.883 225.856C229.584 226.07 229.248 226.24 228.875 226.368C228.512 226.496 228.128 226.56 227.723 226.56ZM228.155 225.04C228.656 225.04 229.099 224.918 229.483 224.672C229.867 224.427 230.166 224.091 230.379 223.664C230.603 223.227 230.715 222.731 230.715 222.176C230.715 221.632 230.603 221.147 230.379 220.72C230.166 220.294 229.867 219.958 229.483 219.712C229.099 219.467 228.656 219.344 228.155 219.344C227.664 219.344 227.227 219.467 226.843 219.712C226.47 219.958 226.171 220.294 225.947 220.72C225.734 221.147 225.627 221.632 225.627 222.176C225.627 222.731 225.734 223.227 225.947 223.664C226.171 224.091 226.47 224.427 226.843 224.672C227.227 224.918 227.664 225.04 228.155 225.04ZM233.816 226.4V218H235.48V220.64L235.32 220C235.437 219.595 235.635 219.227 235.912 218.896C236.2 218.566 236.525 218.304 236.888 218.112C237.261 217.92 237.645 217.824 238.04 217.824C238.221 217.824 238.392 217.84 238.552 217.872C238.723 217.904 238.856 217.942 238.952 217.984L238.52 219.776C238.392 219.723 238.248 219.68 238.088 219.648C237.939 219.606 237.789 219.584 237.64 219.584C237.352 219.584 237.075 219.643 236.808 219.76C236.552 219.867 236.323 220.022 236.12 220.224C235.928 220.416 235.773 220.646 235.656 220.912C235.539 221.168 235.48 221.451 235.48 221.76V226.4H233.816ZM243.153 226.4V224.8H244.961V216.8H243.153V215.2H248.497V216.8H246.689V224.8H248.497V226.4H243.153ZM249.994 226.4V218H251.642V219.728L251.354 219.92C251.461 219.547 251.669 219.206 251.978 218.896C252.287 218.576 252.655 218.32 253.082 218.128C253.509 217.926 253.946 217.824 254.394 217.824C255.034 217.824 255.567 217.952 255.994 218.208C256.421 218.454 256.741 218.832 256.954 219.344C257.167 219.856 257.274 220.502 257.274 221.28V226.4H255.626V221.392C255.626 220.912 255.562 220.518 255.434 220.208C255.306 219.888 255.109 219.659 254.842 219.52C254.575 219.371 254.245 219.307 253.85 219.328C253.53 219.328 253.237 219.382 252.97 219.488C252.703 219.584 252.469 219.723 252.266 219.904C252.074 220.086 251.919 220.299 251.802 220.544C251.695 220.779 251.642 221.035 251.642 221.312V226.4H250.826C250.687 226.4 250.549 226.4 250.41 226.4C250.271 226.4 250.133 226.4 249.994 226.4ZM261.51 226.56C260.806 226.56 260.171 226.438 259.606 226.192C259.04 225.947 258.571 225.584 258.198 225.104L259.318 224.144C259.638 224.518 259.984 224.79 260.358 224.96C260.742 225.12 261.174 225.2 261.654 225.2C261.846 225.2 262.022 225.179 262.182 225.136C262.352 225.083 262.496 225.008 262.614 224.912C262.742 224.816 262.838 224.704 262.902 224.576C262.966 224.438 262.998 224.288 262.998 224.128C262.998 223.851 262.896 223.627 262.694 223.456C262.587 223.382 262.416 223.302 262.182 223.216C261.958 223.12 261.664 223.024 261.302 222.928C260.683 222.768 260.176 222.587 259.782 222.384C259.387 222.182 259.083 221.952 258.87 221.696C258.71 221.494 258.592 221.275 258.518 221.04C258.443 220.795 258.406 220.528 258.406 220.24C258.406 219.888 258.48 219.568 258.63 219.28C258.79 218.982 259.003 218.726 259.27 218.512C259.547 218.288 259.867 218.118 260.23 218C260.603 217.883 260.998 217.824 261.414 217.824C261.808 217.824 262.198 217.878 262.582 217.984C262.976 218.091 263.339 218.246 263.67 218.448C264 218.651 264.278 218.891 264.502 219.168L263.558 220.208C263.355 220.006 263.131 219.83 262.886 219.68C262.651 219.52 262.411 219.398 262.166 219.312C261.92 219.227 261.696 219.184 261.494 219.184C261.27 219.184 261.067 219.206 260.886 219.248C260.704 219.291 260.55 219.355 260.422 219.44C260.304 219.526 260.214 219.632 260.15 219.76C260.086 219.888 260.054 220.032 260.054 220.192C260.064 220.331 260.096 220.464 260.15 220.592C260.214 220.71 260.299 220.811 260.406 220.896C260.523 220.982 260.699 221.072 260.934 221.168C261.168 221.264 261.467 221.355 261.83 221.44C262.363 221.579 262.8 221.734 263.142 221.904C263.494 222.064 263.771 222.251 263.974 222.464C264.187 222.667 264.336 222.902 264.422 223.168C264.507 223.435 264.55 223.734 264.55 224.064C264.55 224.544 264.411 224.976 264.134 225.36C263.867 225.734 263.504 226.027 263.046 226.24C262.587 226.454 262.075 226.56 261.51 226.56ZM266.606 226.4V215.856H268.254V226.4H266.606ZM264.862 219.6V218H270.206V219.6H264.862ZM271.179 226.4V218H272.827V226.4H271.179ZM271.979 216.144C271.627 216.144 271.355 216.054 271.163 215.872C270.971 215.691 270.875 215.435 270.875 215.104C270.875 214.795 270.971 214.544 271.163 214.352C271.365 214.16 271.637 214.064 271.979 214.064C272.331 214.064 272.603 214.155 272.795 214.336C272.987 214.518 273.083 214.774 273.083 215.104C273.083 215.414 272.981 215.664 272.779 215.856C272.587 216.048 272.32 216.144 271.979 216.144ZM275.6 226.4V215.856H277.248V226.4H275.6ZM273.856 219.6V218H279.2V219.6H273.856ZM282.844 226.56C282.247 226.56 281.724 226.422 281.276 226.144C280.839 225.867 280.498 225.478 280.252 224.976C280.018 224.475 279.9 223.878 279.9 223.184V218H281.548V222.736C281.548 223.227 281.623 223.654 281.772 224.016C281.932 224.368 282.156 224.64 282.444 224.832C282.743 225.024 283.1 225.12 283.516 225.12C283.826 225.12 284.108 225.072 284.364 224.976C284.62 224.87 284.839 224.726 285.02 224.544C285.212 224.363 285.362 224.144 285.468 223.888C285.575 223.632 285.628 223.355 285.628 223.056V218H287.276V226.4H285.628V224.64L285.916 224.448C285.788 224.843 285.57 225.2 285.26 225.52C284.962 225.84 284.604 226.096 284.188 226.288C283.772 226.47 283.324 226.56 282.844 226.56ZM289.828 226.4V215.856H291.476V226.4H289.828ZM288.084 219.6V218H293.428V219.6H288.084ZM297.97 226.56C297.106 226.56 296.338 226.379 295.666 226.016C295.005 225.643 294.482 225.136 294.098 224.496C293.725 223.856 293.538 223.12 293.538 222.288C293.538 221.627 293.645 221.024 293.858 220.48C294.072 219.936 294.365 219.467 294.738 219.072C295.122 218.667 295.576 218.358 296.098 218.144C296.632 217.92 297.208 217.808 297.826 217.808C298.37 217.808 298.877 217.915 299.346 218.128C299.816 218.331 300.221 218.614 300.562 218.976C300.914 219.339 301.181 219.771 301.362 220.272C301.554 220.763 301.645 221.302 301.634 221.888L301.618 222.592H294.754L294.386 221.28H300.194L299.954 221.552V221.168C299.922 220.816 299.805 220.502 299.602 220.224C299.4 219.947 299.144 219.728 298.834 219.568C298.525 219.408 298.189 219.328 297.826 219.328C297.25 219.328 296.765 219.44 296.37 219.664C295.976 219.878 295.677 220.198 295.474 220.624C295.272 221.04 295.17 221.558 295.17 222.176C295.17 222.763 295.293 223.275 295.538 223.712C295.784 224.139 296.13 224.47 296.578 224.704C297.026 224.939 297.544 225.056 298.13 225.056C298.546 225.056 298.93 224.987 299.282 224.848C299.645 224.71 300.034 224.459 300.45 224.096L301.282 225.264C301.026 225.52 300.712 225.744 300.338 225.936C299.976 226.128 299.586 226.283 299.17 226.4C298.765 226.507 298.365 226.56 297.97 226.56ZM311.414 226.56C310.625 226.56 309.894 226.416 309.222 226.128C308.561 225.84 307.979 225.44 307.478 224.928C306.987 224.406 306.603 223.798 306.326 223.104C306.059 222.4 305.926 221.632 305.926 220.8C305.926 219.968 306.059 219.206 306.326 218.512C306.603 217.808 306.987 217.2 307.478 216.688C307.979 216.166 308.561 215.76 309.222 215.472C309.894 215.184 310.625 215.04 311.414 215.04C312.203 215.04 312.929 215.184 313.59 215.472C314.262 215.76 314.843 216.166 315.334 216.688C315.835 217.211 316.219 217.824 316.486 218.528C316.763 219.222 316.902 219.979 316.902 220.8C316.902 221.622 316.763 222.384 316.486 223.088C316.219 223.782 315.835 224.39 315.334 224.912C314.843 225.435 314.262 225.84 313.59 226.128C312.929 226.416 312.203 226.56 311.414 226.56ZM311.414 224.88C311.958 224.88 312.454 224.779 312.902 224.576C313.361 224.374 313.755 224.091 314.086 223.728C314.417 223.355 314.673 222.923 314.854 222.432C315.046 221.931 315.142 221.387 315.142 220.8C315.142 220.214 315.046 219.675 314.854 219.184C314.673 218.683 314.417 218.251 314.086 217.888C313.755 217.515 313.361 217.227 312.902 217.024C312.454 216.822 311.958 216.72 311.414 216.72C310.87 216.72 310.369 216.822 309.91 217.024C309.462 217.227 309.067 217.51 308.726 217.872C308.395 218.235 308.139 218.667 307.958 219.168C307.777 219.659 307.686 220.203 307.686 220.8C307.686 221.387 307.777 221.931 307.958 222.432C308.139 222.934 308.395 223.366 308.726 223.728C309.067 224.091 309.462 224.374 309.91 224.576C310.369 224.779 310.87 224.88 311.414 224.88ZM318.938 226.4V217.056C318.938 216.576 319.044 216.15 319.258 215.776C319.471 215.403 319.764 215.11 320.138 214.896C320.511 214.683 320.943 214.576 321.434 214.576C321.775 214.576 322.095 214.64 322.394 214.768C322.692 214.896 322.932 215.067 323.114 215.28L322.554 216.544C322.415 216.416 322.26 216.315 322.09 216.24C321.93 216.155 321.775 216.112 321.626 216.112C321.402 216.112 321.21 216.15 321.05 216.224C320.9 216.288 320.788 216.395 320.714 216.544C320.639 216.683 320.602 216.854 320.602 217.056V226.4H319.77C319.631 226.4 319.492 226.4 319.354 226.4C319.215 226.4 319.076 226.4 318.938 226.4ZM317.594 219.664V218.144H322.586V219.664H317.594ZM329.735 226.4V216.864H326.599V215.2H334.695V216.864H331.463V226.4H329.735ZM337.936 226.56C337.072 226.56 336.304 226.379 335.632 226.016C334.971 225.643 334.448 225.136 334.064 224.496C333.691 223.856 333.504 223.12 333.504 222.288C333.504 221.627 333.611 221.024 333.824 220.48C334.038 219.936 334.331 219.467 334.704 219.072C335.088 218.667 335.542 218.358 336.064 218.144C336.598 217.92 337.174 217.808 337.792 217.808C338.336 217.808 338.843 217.915 339.312 218.128C339.782 218.331 340.187 218.614 340.528 218.976C340.88 219.339 341.147 219.771 341.328 220.272C341.52 220.763 341.611 221.302 341.6 221.888L341.584 222.592H334.72L334.352 221.28H340.16L339.92 221.552V221.168C339.888 220.816 339.771 220.502 339.568 220.224C339.366 219.947 339.11 219.728 338.8 219.568C338.491 219.408 338.155 219.328 337.792 219.328C337.216 219.328 336.731 219.44 336.336 219.664C335.942 219.878 335.643 220.198 335.44 220.624C335.238 221.04 335.136 221.558 335.136 222.176C335.136 222.763 335.259 223.275 335.504 223.712C335.75 224.139 336.096 224.47 336.544 224.704C336.992 224.939 337.51 225.056 338.096 225.056C338.512 225.056 338.896 224.987 339.248 224.848C339.611 224.71 340 224.459 340.416 224.096L341.248 225.264C340.992 225.52 340.678 225.744 340.304 225.936C339.942 226.128 339.552 226.283 339.136 226.4C338.731 226.507 338.331 226.56 337.936 226.56ZM346.159 226.56C345.381 226.56 344.682 226.368 344.063 225.984C343.455 225.6 342.97 225.078 342.607 224.416C342.255 223.755 342.079 223.014 342.079 222.192C342.079 221.371 342.255 220.63 342.607 219.968C342.97 219.307 343.455 218.784 344.063 218.4C344.682 218.016 345.381 217.824 346.159 217.824C346.906 217.824 347.583 217.979 348.191 218.288C348.81 218.587 349.279 218.998 349.599 219.52L348.687 220.64C348.517 220.395 348.298 220.171 348.031 219.968C347.765 219.766 347.482 219.606 347.183 219.488C346.885 219.371 346.597 219.312 346.319 219.312C345.807 219.312 345.349 219.44 344.943 219.696C344.549 219.942 344.234 220.283 343.999 220.72C343.765 221.158 343.647 221.648 343.647 222.192C343.647 222.736 343.77 223.227 344.015 223.664C344.261 224.091 344.586 224.432 344.991 224.688C345.397 224.944 345.845 225.072 346.335 225.072C346.623 225.072 346.901 225.024 347.167 224.928C347.445 224.832 347.711 224.688 347.967 224.496C348.223 224.304 348.463 224.07 348.687 223.792L349.599 224.912C349.258 225.392 348.767 225.787 348.127 226.096C347.498 226.406 346.842 226.56 346.159 226.56ZM350.354 226.4V214.56H352.002V219.728L351.714 219.92C351.82 219.547 352.028 219.206 352.338 218.896C352.647 218.576 353.015 218.32 353.442 218.128C353.868 217.926 354.306 217.824 354.754 217.824C355.394 217.824 355.927 217.952 356.354 218.208C356.78 218.454 357.1 218.832 357.314 219.344C357.527 219.856 357.634 220.502 357.634 221.28V226.4H355.986V221.392C355.986 220.912 355.922 220.518 355.794 220.208C355.666 219.888 355.468 219.659 355.202 219.52C354.935 219.371 354.604 219.307 354.21 219.328C353.89 219.328 353.596 219.382 353.33 219.488C353.063 219.584 352.828 219.723 352.626 219.904C352.434 220.086 352.279 220.299 352.162 220.544C352.055 220.779 352.002 221.035 352.002 221.312V226.4H351.186C351.047 226.4 350.908 226.4 350.77 226.4C350.631 226.4 350.492 226.4 350.354 226.4ZM359.069 226.4V218H360.717V219.728L360.429 219.92C360.536 219.547 360.744 219.206 361.053 218.896C361.363 218.576 361.731 218.32 362.157 218.128C362.584 217.926 363.021 217.824 363.469 217.824C364.109 217.824 364.643 217.952 365.069 218.208C365.496 218.454 365.816 218.832 366.029 219.344C366.243 219.856 366.349 220.502 366.349 221.28V226.4H364.701V221.392C364.701 220.912 364.637 220.518 364.509 220.208C364.381 219.888 364.184 219.659 363.917 219.52C363.651 219.371 363.32 219.307 362.925 219.328C362.605 219.328 362.312 219.382 362.045 219.488C361.779 219.584 361.544 219.723 361.341 219.904C361.149 220.086 360.995 220.299 360.877 220.544C360.771 220.779 360.717 221.035 360.717 221.312V226.4H359.901C359.763 226.4 359.624 226.4 359.485 226.4C359.347 226.4 359.208 226.4 359.069 226.4ZM371.561 226.56C370.74 226.56 370.004 226.374 369.353 226C368.713 225.616 368.206 225.099 367.833 224.448C367.46 223.787 367.273 223.035 367.273 222.192C367.273 221.35 367.46 220.603 367.833 219.952C368.206 219.291 368.713 218.774 369.353 218.4C370.004 218.016 370.74 217.824 371.561 217.824C372.372 217.824 373.097 218.016 373.737 218.4C374.388 218.774 374.9 219.291 375.273 219.952C375.646 220.603 375.833 221.35 375.833 222.192C375.833 223.035 375.646 223.787 375.273 224.448C374.9 225.099 374.388 225.616 373.737 226C373.097 226.374 372.372 226.56 371.561 226.56ZM371.561 225.056C372.062 225.056 372.51 224.934 372.905 224.688C373.3 224.432 373.609 224.091 373.833 223.664C374.057 223.227 374.164 222.736 374.153 222.192C374.164 221.638 374.057 221.147 373.833 220.72C373.609 220.283 373.3 219.942 372.905 219.696C372.51 219.451 372.062 219.328 371.561 219.328C371.06 219.328 370.606 219.456 370.201 219.712C369.806 219.958 369.497 220.299 369.273 220.736C369.049 221.163 368.942 221.648 368.953 222.192C368.942 222.736 369.049 223.227 369.273 223.664C369.497 224.091 369.806 224.432 370.201 224.688C370.606 224.934 371.06 225.056 371.561 225.056ZM376.861 226.4V214.56H378.509V226.4H376.861ZM383.664 226.56C382.843 226.56 382.107 226.374 381.456 226C380.816 225.616 380.309 225.099 379.936 224.448C379.563 223.787 379.376 223.035 379.376 222.192C379.376 221.35 379.563 220.603 379.936 219.952C380.309 219.291 380.816 218.774 381.456 218.4C382.107 218.016 382.843 217.824 383.664 217.824C384.475 217.824 385.2 218.016 385.84 218.4C386.491 218.774 387.003 219.291 387.376 219.952C387.75 220.603 387.936 221.35 387.936 222.192C387.936 223.035 387.75 223.787 387.376 224.448C387.003 225.099 386.491 225.616 385.84 226C385.2 226.374 384.475 226.56 383.664 226.56ZM383.664 225.056C384.165 225.056 384.613 224.934 385.008 224.688C385.403 224.432 385.712 224.091 385.936 223.664C386.16 223.227 386.267 222.736 386.256 222.192C386.267 221.638 386.16 221.147 385.936 220.72C385.712 220.283 385.403 219.942 385.008 219.696C384.613 219.451 384.165 219.328 383.664 219.328C383.163 219.328 382.709 219.456 382.304 219.712C381.909 219.958 381.6 220.299 381.376 220.736C381.152 221.163 381.045 221.648 381.056 222.192C381.045 222.736 381.152 223.227 381.376 223.664C381.6 224.091 381.909 224.432 382.304 224.688C382.709 224.934 383.163 225.056 383.664 225.056ZM392.692 230.08C392.095 230.08 391.497 229.984 390.9 229.792C390.313 229.611 389.839 229.371 389.476 229.072L390.084 227.792C390.297 227.952 390.548 228.091 390.836 228.208C391.124 228.336 391.428 228.432 391.748 228.496C392.068 228.571 392.383 228.608 392.692 228.608C393.279 228.608 393.769 228.512 394.164 228.32C394.559 228.128 394.857 227.846 395.06 227.472C395.263 227.099 395.364 226.635 395.364 226.08V224.464L395.54 224.576C395.487 224.907 395.311 225.227 395.012 225.536C394.724 225.835 394.361 226.08 393.924 226.272C393.487 226.464 393.039 226.56 392.58 226.56C391.78 226.56 391.065 226.374 390.436 226C389.817 225.616 389.327 225.099 388.964 224.448C388.601 223.787 388.42 223.035 388.42 222.192C388.42 221.35 388.596 220.603 388.948 219.952C389.311 219.291 389.801 218.774 390.42 218.4C391.049 218.016 391.753 217.824 392.532 217.824C392.852 217.824 393.161 217.867 393.46 217.952C393.759 218.027 394.036 218.139 394.292 218.288C394.548 218.427 394.777 218.582 394.98 218.752C395.183 218.923 395.348 219.104 395.476 219.296C395.604 219.488 395.684 219.67 395.716 219.84L395.364 219.968V218H397.012V225.888C397.012 226.56 396.911 227.152 396.708 227.664C396.516 228.187 396.233 228.624 395.86 228.976C395.487 229.339 395.033 229.611 394.5 229.792C393.967 229.984 393.364 230.08 392.692 230.08ZM392.756 225.04C393.279 225.04 393.743 224.918 394.148 224.672C394.553 224.427 394.868 224.091 395.092 223.664C395.316 223.238 395.428 222.747 395.428 222.192C395.428 221.638 395.311 221.147 395.076 220.72C394.852 220.283 394.537 219.942 394.132 219.696C393.737 219.451 393.279 219.328 392.756 219.328C392.244 219.328 391.785 219.456 391.38 219.712C390.985 219.958 390.671 220.299 390.436 220.736C390.212 221.163 390.1 221.648 390.1 222.192C390.1 222.736 390.212 223.227 390.436 223.664C390.671 224.091 390.985 224.427 391.38 224.672C391.785 224.918 392.244 225.04 392.756 225.04ZM399.931 230.08L401.627 226.16L401.643 227.472L397.451 218H399.371L401.995 224.176C402.048 224.283 402.112 224.448 402.187 224.672C402.261 224.886 402.325 225.099 402.379 225.312L401.963 225.408C402.048 225.184 402.128 224.96 402.203 224.736C402.288 224.512 402.368 224.288 402.443 224.064L404.635 218H406.587L403.131 226.4L401.707 230.08H399.931ZM411.616 226.4V217.056C411.616 216.576 411.723 216.15 411.936 215.776C412.149 215.403 412.443 215.11 412.816 214.896C413.189 214.683 413.621 214.576 414.112 214.576C414.453 214.576 414.773 214.64 415.072 214.768C415.371 214.896 415.611 215.067 415.792 215.28L415.232 216.544C415.093 216.416 414.939 216.315 414.768 216.24C414.608 216.155 414.453 216.112 414.304 216.112C414.08 216.112 413.888 216.15 413.728 216.224C413.579 216.288 413.467 216.395 413.392 216.544C413.317 216.683 413.28 216.854 413.28 217.056V226.4H412.448C412.309 226.4 412.171 226.4 412.032 226.4C411.893 226.4 411.755 226.4 411.616 226.4ZM410.272 219.664V218.144H415.264V219.664H410.272ZM419.649 226.56C418.827 226.56 418.091 226.374 417.441 226C416.801 225.616 416.294 225.099 415.921 224.448C415.547 223.787 415.361 223.035 415.361 222.192C415.361 221.35 415.547 220.603 415.921 219.952C416.294 219.291 416.801 218.774 417.441 218.4C418.091 218.016 418.827 217.824 419.649 217.824C420.459 217.824 421.185 218.016 421.825 218.4C422.475 218.774 422.987 219.291 423.361 219.952C423.734 220.603 423.921 221.35 423.921 222.192C423.921 223.035 423.734 223.787 423.361 224.448C422.987 225.099 422.475 225.616 421.825 226C421.185 226.374 420.459 226.56 419.649 226.56ZM419.649 225.056C420.15 225.056 420.598 224.934 420.993 224.688C421.387 224.432 421.697 224.091 421.921 223.664C422.145 223.227 422.251 222.736 422.241 222.192C422.251 221.638 422.145 221.147 421.921 220.72C421.697 220.283 421.387 219.942 420.993 219.696C420.598 219.451 420.15 219.328 419.649 219.328C419.147 219.328 418.694 219.456 418.289 219.712C417.894 219.958 417.585 220.299 417.361 220.736C417.137 221.163 417.03 221.648 417.041 222.192C417.03 222.736 417.137 223.227 417.361 223.664C417.585 224.091 417.894 224.432 418.289 224.688C418.694 224.934 419.147 225.056 419.649 225.056ZM424.916 226.4V218H426.58V220.64L426.42 220C426.538 219.595 426.735 219.227 427.012 218.896C427.3 218.566 427.626 218.304 427.988 218.112C428.362 217.92 428.746 217.824 429.14 217.824C429.322 217.824 429.492 217.84 429.652 217.872C429.823 217.904 429.956 217.942 430.052 217.984L429.62 219.776C429.492 219.723 429.348 219.68 429.188 219.648C429.039 219.606 428.89 219.584 428.74 219.584C428.452 219.584 428.175 219.643 427.908 219.76C427.652 219.867 427.423 220.022 427.22 220.224C427.028 220.416 426.874 220.646 426.756 220.912C426.639 221.168 426.58 221.451 426.58 221.76V226.4H424.916ZM434.67 226.4V215.2H439.054C439.854 215.2 440.574 215.334 441.214 215.6C441.865 215.867 442.419 216.251 442.878 216.752C443.337 217.254 443.689 217.846 443.934 218.528C444.179 219.211 444.302 219.968 444.302 220.8C444.302 221.632 444.179 222.395 443.934 223.088C443.689 223.771 443.337 224.363 442.878 224.864C442.43 225.355 441.881 225.734 441.23 226C440.579 226.267 439.854 226.4 439.054 226.4H434.67ZM436.398 224.912L436.35 224.736H438.974C439.539 224.736 440.041 224.646 440.478 224.464C440.926 224.283 441.299 224.027 441.598 223.696C441.907 223.355 442.142 222.939 442.302 222.448C442.462 221.958 442.542 221.408 442.542 220.8C442.542 220.192 442.462 219.648 442.302 219.168C442.142 218.678 441.907 218.262 441.598 217.92C441.289 217.579 440.915 217.318 440.478 217.136C440.041 216.955 439.539 216.864 438.974 216.864H436.302L436.398 216.72V224.912ZM445.695 226.4V218H447.343V226.4H445.695ZM446.495 216.144C446.143 216.144 445.871 216.054 445.679 215.872C445.487 215.691 445.391 215.435 445.391 215.104C445.391 214.795 445.487 214.544 445.679 214.352C445.881 214.16 446.153 214.064 446.495 214.064C446.847 214.064 447.119 214.155 447.311 214.336C447.503 214.518 447.599 214.774 447.599 215.104C447.599 215.414 447.497 215.664 447.295 215.856C447.103 216.048 446.836 216.144 446.495 216.144ZM451.828 226.4L448.276 218H450.052L452.612 224.288L452.308 224.432L455.044 218H456.74L453.012 226.4H451.828ZM458.856 230.08L460.552 226.16L460.568 227.472L456.376 218H458.296L460.92 224.176C460.973 224.283 461.037 224.448 461.112 224.672C461.186 224.886 461.25 225.099 461.304 225.312L460.888 225.408C460.973 225.184 461.053 224.96 461.128 224.736C461.213 224.512 461.293 224.288 461.368 224.064L463.56 218H465.512L462.056 226.4L460.632 230.08H458.856ZM469.02 226.56C468.327 226.56 467.692 226.368 467.116 225.984C466.551 225.6 466.098 225.078 465.756 224.416C465.415 223.755 465.244 223.008 465.244 222.176C465.244 221.334 465.415 220.587 465.756 219.936C466.108 219.275 466.578 218.758 467.164 218.384C467.762 218.011 468.428 217.824 469.164 217.824C469.602 217.824 470.002 217.888 470.364 218.016C470.727 218.144 471.042 218.326 471.308 218.56C471.586 218.784 471.81 219.046 471.98 219.344C472.162 219.643 472.274 219.963 472.316 220.304L471.948 220.176V218H473.612V226.4H471.948V224.4L472.332 224.288C472.268 224.576 472.135 224.859 471.932 225.136C471.74 225.403 471.49 225.643 471.18 225.856C470.882 226.07 470.546 226.24 470.172 226.368C469.81 226.496 469.426 226.56 469.02 226.56ZM469.452 225.04C469.954 225.04 470.396 224.918 470.78 224.672C471.164 224.427 471.463 224.091 471.676 223.664C471.9 223.227 472.012 222.731 472.012 222.176C472.012 221.632 471.9 221.147 471.676 220.72C471.463 220.294 471.164 219.958 470.78 219.712C470.396 219.467 469.954 219.344 469.452 219.344C468.962 219.344 468.524 219.467 468.14 219.712C467.767 219.958 467.468 220.294 467.244 220.72C467.031 221.147 466.924 221.632 466.924 222.176C466.924 222.731 467.031 223.227 467.244 223.664C467.468 224.091 467.767 224.427 468.14 224.672C468.524 224.918 468.962 225.04 469.452 225.04ZM475.113 226.4V218H476.761V219.728L476.473 219.92C476.58 219.547 476.788 219.206 477.097 218.896C477.407 218.576 477.775 218.32 478.201 218.128C478.628 217.926 479.065 217.824 479.513 217.824C480.153 217.824 480.687 217.952 481.113 218.208C481.54 218.454 481.86 218.832 482.073 219.344C482.287 219.856 482.393 220.502 482.393 221.28V226.4H480.745V221.392C480.745 220.912 480.681 220.518 480.553 220.208C480.425 219.888 480.228 219.659 479.961 219.52C479.695 219.371 479.364 219.307 478.969 219.328C478.649 219.328 478.356 219.382 478.089 219.488C477.823 219.584 477.588 219.723 477.385 219.904C477.193 220.086 477.039 220.299 476.921 220.544C476.815 220.779 476.761 221.035 476.761 221.312V226.4H475.945C475.807 226.4 475.668 226.4 475.529 226.4C475.391 226.4 475.252 226.4 475.113 226.4ZM487.589 230.08C486.992 230.08 486.394 229.984 485.797 229.792C485.21 229.611 484.736 229.371 484.373 229.072L484.981 227.792C485.194 227.952 485.445 228.091 485.733 228.208C486.021 228.336 486.325 228.432 486.645 228.496C486.965 228.571 487.28 228.608 487.589 228.608C488.176 228.608 488.666 228.512 489.061 228.32C489.456 228.128 489.754 227.846 489.957 227.472C490.16 227.099 490.261 226.635 490.261 226.08V224.464L490.437 224.576C490.384 224.907 490.208 225.227 489.909 225.536C489.621 225.835 489.258 226.08 488.821 226.272C488.384 226.464 487.936 226.56 487.477 226.56C486.677 226.56 485.962 226.374 485.333 226C484.714 225.616 484.224 225.099 483.861 224.448C483.498 223.787 483.317 223.035 483.317 222.192C483.317 221.35 483.493 220.603 483.845 219.952C484.208 219.291 484.698 218.774 485.317 218.4C485.946 218.016 486.65 217.824 487.429 217.824C487.749 217.824 488.058 217.867 488.357 217.952C488.656 218.027 488.933 218.139 489.189 218.288C489.445 218.427 489.674 218.582 489.877 218.752C490.08 218.923 490.245 219.104 490.373 219.296C490.501 219.488 490.581 219.67 490.613 219.84L490.261 219.968V218H491.909V225.888C491.909 226.56 491.808 227.152 491.605 227.664C491.413 228.187 491.13 228.624 490.757 228.976C490.384 229.339 489.93 229.611 489.397 229.792C488.864 229.984 488.261 230.08 487.589 230.08ZM487.653 225.04C488.176 225.04 488.64 224.918 489.045 224.672C489.45 224.427 489.765 224.091 489.989 223.664C490.213 223.238 490.325 222.747 490.325 222.192C490.325 221.638 490.208 221.147 489.973 220.72C489.749 220.283 489.434 219.942 489.029 219.696C488.634 219.451 488.176 219.328 487.653 219.328C487.141 219.328 486.682 219.456 486.277 219.712C485.882 219.958 485.568 220.299 485.333 220.736C485.109 221.163 484.997 221.648 484.997 222.192C484.997 222.736 485.109 223.227 485.333 223.664C485.568 224.091 485.882 224.427 486.277 224.672C486.682 224.918 487.141 225.04 487.653 225.04ZM492.568 229.552L491.944 228.288C492.36 228.288 492.701 228.214 492.968 228.064C493.245 227.926 493.453 227.712 493.592 227.424C493.731 227.147 493.8 226.8 493.8 226.384V218H495.448V226.784C495.448 227.328 495.325 227.808 495.08 228.224C494.845 228.64 494.509 228.966 494.072 229.2C493.645 229.435 493.144 229.552 492.568 229.552ZM494.664 216.144C494.312 216.144 494.04 216.054 493.848 215.872C493.656 215.691 493.56 215.435 493.56 215.104C493.56 214.795 493.656 214.544 493.848 214.352C494.051 214.16 494.323 214.064 494.664 214.064C495.016 214.064 495.288 214.155 495.48 214.336C495.672 214.518 495.768 214.774 495.768 215.104C495.768 215.414 495.667 215.664 495.464 215.856C495.272 216.048 495.005 216.144 494.664 216.144ZM500.242 226.56C499.549 226.56 498.914 226.368 498.338 225.984C497.773 225.6 497.32 225.078 496.978 224.416C496.637 223.755 496.466 223.008 496.466 222.176C496.466 221.334 496.637 220.587 496.978 219.936C497.33 219.275 497.8 218.758 498.386 218.384C498.984 218.011 499.65 217.824 500.386 217.824C500.824 217.824 501.224 217.888 501.586 218.016C501.949 218.144 502.264 218.326 502.53 218.56C502.808 218.784 503.032 219.046 503.202 219.344C503.384 219.643 503.496 219.963 503.538 220.304L503.17 220.176V218H504.834V226.4H503.17V224.4L503.554 224.288C503.49 224.576 503.357 224.859 503.154 225.136C502.962 225.403 502.712 225.643 502.402 225.856C502.104 226.07 501.768 226.24 501.394 226.368C501.032 226.496 500.648 226.56 500.242 226.56ZM500.674 225.04C501.176 225.04 501.618 224.918 502.002 224.672C502.386 224.427 502.685 224.091 502.898 223.664C503.122 223.227 503.234 222.731 503.234 222.176C503.234 221.632 503.122 221.147 502.898 220.72C502.685 220.294 502.386 219.958 502.002 219.712C501.618 219.467 501.176 219.344 500.674 219.344C500.184 219.344 499.746 219.467 499.362 219.712C498.989 219.958 498.69 220.294 498.466 220.72C498.253 221.147 498.146 221.632 498.146 222.176C498.146 222.731 498.253 223.227 498.466 223.664C498.69 224.091 498.989 224.427 499.362 224.672C499.746 224.918 500.184 225.04 500.674 225.04ZM506.335 226.4V218H507.983V219.728L507.695 219.92C507.802 219.547 508.01 219.206 508.319 218.896C508.629 218.576 508.997 218.32 509.423 218.128C509.85 217.926 510.287 217.824 510.735 217.824C511.375 217.824 511.909 217.952 512.335 218.208C512.762 218.454 513.082 218.832 513.295 219.344C513.509 219.856 513.615 220.502 513.615 221.28V226.4H511.967V221.392C511.967 220.912 511.903 220.518 511.775 220.208C511.647 219.888 511.45 219.659 511.183 219.52C510.917 219.371 510.586 219.307 510.191 219.328C509.871 219.328 509.578 219.382 509.311 219.488C509.045 219.584 508.81 219.723 508.607 219.904C508.415 220.086 508.261 220.299 508.143 220.544C508.037 220.779 507.983 221.035 507.983 221.312V226.4H507.167C507.029 226.4 506.89 226.4 506.751 226.4C506.613 226.4 506.474 226.4 506.335 226.4Z" fill="#666666"/>
</svg>
