<svg width="584" height="311" viewBox="0 0 584 311" fill="none" xmlns="http://www.w3.org/2000/svg">
<rect x="-0.448398" y="1.63675" width="60.5213" height="19.1176" rx="9.5588" transform="matrix(-0.868809 0.495148 0.495144 0.868811 277.517 81.4367)" fill="#EF5350" stroke="#EF5350" stroke-width="2.40001"/>
<rect x="-0.448398" y="1.63675" width="60.5213" height="19.1176" rx="9.5588" transform="matrix(-0.868809 0.495148 0.495144 0.868811 347.862 101.987)" fill="#FBBC04" stroke="#FBBC04" stroke-width="2.40001"/>
<rect x="0.448398" y="1.63675" width="60.5213" height="19.1176" rx="9.5588" transform="matrix(0.868809 0.495148 -0.495144 0.868811 236.022 101.543)" fill="#4285F4" stroke="#4285F4" stroke-width="2.40001"/>
<path d="M353.795 120.909C351.181 125.495 345.344 127.094 340.757 124.48L304.785 103.979C300.199 101.365 298.599 95.5282 301.213 90.9416C303.827 86.355 309.665 84.7558 314.251 87.3698L350.223 107.871C354.81 110.485 356.409 116.322 353.795 120.909Z" fill="#4CAF50" stroke="#4CAF50" stroke-width="2.40001"/>
<path d="M110.638 201.744C108.895 201.744 107.267 201.435 105.754 200.816C104.24 200.174 102.91 199.291 101.763 198.167C100.617 197.043 99.7221 195.736 99.08 194.245C98.4608 192.732 98.1512 191.103 98.1512 189.36C98.1512 187.64 98.4608 186.035 99.08 184.544C99.7221 183.054 100.605 181.758 101.729 180.657C102.875 179.533 104.206 178.662 105.719 178.043C107.233 177.424 108.861 177.114 110.604 177.114C111.82 177.114 113.001 177.286 114.147 177.63C115.317 177.974 116.372 178.456 117.312 179.075C118.252 179.694 119.021 180.405 119.617 181.208L117.209 183.719C116.521 183.054 115.81 182.503 115.076 182.068C114.365 181.632 113.631 181.299 112.874 181.07C112.118 180.841 111.361 180.726 110.604 180.726C109.366 180.726 108.219 180.944 107.164 181.38C106.132 181.815 105.215 182.423 104.412 183.203C103.632 183.983 103.025 184.9 102.589 185.955C102.153 186.987 101.935 188.122 101.935 189.36C101.935 190.553 102.165 191.688 102.623 192.766C103.082 193.821 103.713 194.75 104.515 195.552C105.341 196.355 106.281 196.986 107.336 197.444C108.414 197.903 109.549 198.132 110.742 198.132C111.636 198.132 112.485 198.006 113.287 197.754C114.09 197.479 114.801 197.1 115.42 196.619C116.039 196.137 116.521 195.587 116.865 194.968C117.209 194.325 117.381 193.649 117.381 192.938V192.25L117.897 192.732H110.535V189.051H121.199C121.245 189.303 121.28 189.555 121.302 189.808C121.325 190.037 121.337 190.266 121.337 190.496C121.36 190.702 121.371 190.908 121.371 191.115C121.371 192.697 121.096 194.142 120.546 195.449C119.995 196.734 119.227 197.846 118.241 198.786C117.278 199.726 116.142 200.46 114.835 200.988C113.551 201.492 112.152 201.744 110.638 201.744ZM131.713 201.744C129.947 201.744 128.365 201.343 126.966 200.54C125.59 199.715 124.5 198.603 123.698 197.204C122.895 195.782 122.494 194.165 122.494 192.353C122.494 190.541 122.895 188.936 123.698 187.537C124.5 186.115 125.59 185.003 126.966 184.2C128.365 183.375 129.947 182.962 131.713 182.962C133.456 182.962 135.015 183.375 136.391 184.2C137.79 185.003 138.891 186.115 139.694 187.537C140.496 188.936 140.898 190.541 140.898 192.353C140.898 194.165 140.496 195.782 139.694 197.204C138.891 198.603 137.79 199.715 136.391 200.54C135.015 201.343 133.456 201.744 131.713 201.744ZM131.713 198.511C132.791 198.511 133.754 198.247 134.602 197.72C135.451 197.169 136.116 196.435 136.598 195.518C137.079 194.578 137.309 193.523 137.286 192.353C137.309 191.161 137.079 190.106 136.598 189.188C136.116 188.248 135.451 187.514 134.602 186.987C133.754 186.459 132.791 186.196 131.713 186.196C130.635 186.196 129.66 186.471 128.789 187.021C127.94 187.549 127.275 188.283 126.794 189.223C126.312 190.14 126.083 191.184 126.106 192.353C126.083 193.523 126.312 194.578 126.794 195.518C127.275 196.435 127.94 197.169 128.789 197.72C129.66 198.247 130.635 198.511 131.713 198.511ZM151.157 201.744C149.391 201.744 147.809 201.343 146.41 200.54C145.034 199.715 143.944 198.603 143.142 197.204C142.339 195.782 141.938 194.165 141.938 192.353C141.938 190.541 142.339 188.936 143.142 187.537C143.944 186.115 145.034 185.003 146.41 184.2C147.809 183.375 149.391 182.962 151.157 182.962C152.9 182.962 154.459 183.375 155.835 184.2C157.234 185.003 158.335 186.115 159.138 187.537C159.94 188.936 160.342 190.541 160.342 192.353C160.342 194.165 159.94 195.782 159.138 197.204C158.335 198.603 157.234 199.715 155.835 200.54C154.459 201.343 152.9 201.744 151.157 201.744ZM151.157 198.511C152.235 198.511 153.198 198.247 154.047 197.72C154.895 197.169 155.56 196.435 156.042 195.518C156.523 194.578 156.753 193.523 156.73 192.353C156.753 191.161 156.523 190.106 156.042 189.188C155.56 188.248 154.895 187.514 154.047 186.987C153.198 186.459 152.235 186.196 151.157 186.196C150.079 186.196 149.104 186.471 148.233 187.021C147.384 187.549 146.719 188.283 146.238 189.223C145.756 190.14 145.527 191.184 145.55 192.353C145.527 193.523 145.756 194.578 146.238 195.518C146.719 196.435 147.384 197.169 148.233 197.72C149.104 198.247 150.079 198.511 151.157 198.511ZM170.567 209.312C169.282 209.312 167.998 209.106 166.714 208.693C165.452 208.303 164.432 207.787 163.652 207.145L164.959 204.393C165.418 204.737 165.957 205.035 166.576 205.288C167.195 205.563 167.849 205.769 168.537 205.907C169.225 206.067 169.902 206.148 170.567 206.148C171.828 206.148 172.883 205.941 173.731 205.528C174.58 205.116 175.222 204.508 175.658 203.705C176.094 202.903 176.311 201.905 176.311 200.712V197.238L176.69 197.479C176.575 198.19 176.197 198.878 175.555 199.543C174.935 200.185 174.156 200.712 173.215 201.125C172.275 201.538 171.312 201.744 170.326 201.744C168.606 201.744 167.069 201.343 165.716 200.54C164.386 199.715 163.331 198.603 162.551 197.204C161.772 195.782 161.382 194.165 161.382 192.353C161.382 190.541 161.76 188.936 162.517 187.537C163.297 186.115 164.352 185.003 165.682 184.2C167.035 183.375 168.548 182.962 170.223 182.962C170.911 182.962 171.576 183.054 172.218 183.237C172.86 183.398 173.456 183.639 174.007 183.96C174.557 184.258 175.05 184.59 175.486 184.957C175.922 185.324 176.277 185.714 176.552 186.127C176.827 186.54 176.999 186.929 177.068 187.296L176.311 187.572V183.34H179.855V200.3C179.855 201.744 179.637 203.017 179.201 204.118C178.788 205.242 178.181 206.182 177.378 206.939C176.575 207.719 175.6 208.303 174.454 208.693C173.307 209.106 172.011 209.312 170.567 209.312ZM170.704 198.476C171.828 198.476 172.826 198.213 173.697 197.685C174.568 197.158 175.245 196.435 175.727 195.518C176.208 194.601 176.449 193.546 176.449 192.353C176.449 191.161 176.197 190.106 175.692 189.188C175.211 188.248 174.534 187.514 173.663 186.987C172.814 186.459 171.828 186.196 170.704 186.196C169.603 186.196 168.617 186.471 167.746 187.021C166.897 187.549 166.221 188.283 165.716 189.223C165.235 190.14 164.994 191.184 164.994 192.353C164.994 193.523 165.235 194.578 165.716 195.518C166.221 196.435 166.897 197.158 167.746 197.685C168.617 198.213 169.603 198.476 170.704 198.476ZM183.171 201.4V175.944H186.715V201.4H183.171ZM198.108 201.744C196.251 201.744 194.599 201.355 193.155 200.575C191.733 199.772 190.609 198.683 189.783 197.307C188.981 195.931 188.579 194.348 188.579 192.56C188.579 191.138 188.809 189.842 189.267 188.672C189.726 187.503 190.357 186.494 191.159 185.645C191.985 184.774 192.96 184.109 194.083 183.65C195.23 183.168 196.468 182.928 197.799 182.928C198.968 182.928 200.058 183.157 201.067 183.616C202.076 184.051 202.947 184.659 203.681 185.439C204.438 186.219 205.011 187.147 205.401 188.225C205.814 189.28 206.009 190.438 205.986 191.7L205.951 193.213H191.194L190.403 190.392H202.89L202.374 190.977V190.152C202.305 189.395 202.053 188.718 201.617 188.122C201.181 187.526 200.631 187.056 199.966 186.712C199.301 186.368 198.578 186.196 197.799 186.196C196.56 186.196 195.517 186.436 194.668 186.918C193.82 187.377 193.178 188.065 192.742 188.982C192.306 189.876 192.088 190.989 192.088 192.319C192.088 193.58 192.352 194.681 192.879 195.621C193.407 196.539 194.152 197.25 195.115 197.754C196.079 198.259 197.191 198.511 198.452 198.511C199.347 198.511 200.172 198.362 200.929 198.064C201.709 197.766 202.546 197.227 203.44 196.447L205.229 198.958C204.679 199.508 204.002 199.99 203.199 200.403C202.42 200.816 201.583 201.148 200.688 201.4C199.817 201.63 198.957 201.744 198.108 201.744ZM216.932 201.4V177.32H226.358C228.078 177.32 229.626 177.607 231.002 178.18C232.401 178.754 233.593 179.579 234.58 180.657C235.566 181.735 236.322 183.008 236.85 184.476C237.377 185.943 237.641 187.572 237.641 189.36C237.641 191.149 237.377 192.789 236.85 194.28C236.322 195.747 235.566 197.02 234.58 198.098C233.616 199.153 232.435 199.967 231.036 200.54C229.637 201.114 228.078 201.4 226.358 201.4H216.932ZM220.647 198.201L220.544 197.823H226.186C227.401 197.823 228.479 197.628 229.42 197.238C230.383 196.848 231.185 196.298 231.828 195.587C232.493 194.853 232.997 193.959 233.341 192.904C233.685 191.849 233.857 190.668 233.857 189.36C233.857 188.053 233.685 186.884 233.341 185.852C232.997 184.797 232.493 183.902 231.828 183.168C231.162 182.435 230.36 181.873 229.42 181.483C228.479 181.093 227.401 180.898 226.186 180.898H220.441L220.647 180.588V198.201ZM248.479 201.744C246.621 201.744 244.97 201.355 243.525 200.575C242.103 199.772 240.98 198.683 240.154 197.307C239.351 195.931 238.95 194.348 238.95 192.56C238.95 191.138 239.179 189.842 239.638 188.672C240.097 187.503 240.727 186.494 241.53 185.645C242.356 184.774 243.33 184.109 244.454 183.65C245.601 183.168 246.839 182.928 248.169 182.928C249.339 182.928 250.428 183.157 251.437 183.616C252.446 184.051 253.318 184.659 254.052 185.439C254.808 186.219 255.382 187.147 255.772 188.225C256.184 189.28 256.379 190.438 256.356 191.7L256.322 193.213H241.564L240.773 190.392H253.26L252.744 190.977V190.152C252.676 189.395 252.423 188.718 251.988 188.122C251.552 187.526 251.001 187.056 250.336 186.712C249.671 186.368 248.949 186.196 248.169 186.196C246.931 186.196 245.887 186.436 245.039 186.918C244.19 187.377 243.548 188.065 243.112 188.982C242.677 189.876 242.459 190.989 242.459 192.319C242.459 193.58 242.723 194.681 243.25 195.621C243.777 196.539 244.523 197.25 245.486 197.754C246.449 198.259 247.561 198.511 248.823 198.511C249.717 198.511 250.543 198.362 251.3 198.064C252.079 197.766 252.916 197.227 253.811 196.447L255.6 198.958C255.049 199.508 254.373 199.99 253.57 200.403C252.79 200.816 251.953 201.148 251.059 201.4C250.187 201.63 249.327 201.744 248.479 201.744ZM264.068 201.4L256.431 183.34H260.25L265.754 196.86L265.1 197.169L270.982 183.34H274.629L266.614 201.4H264.068ZM284.075 201.744C282.217 201.744 280.566 201.355 279.121 200.575C277.699 199.772 276.576 198.683 275.75 197.307C274.947 195.931 274.546 194.348 274.546 192.56C274.546 191.138 274.775 189.842 275.234 188.672C275.693 187.503 276.323 186.494 277.126 185.645C277.952 184.774 278.926 184.109 280.05 183.65C281.197 183.168 282.435 182.928 283.765 182.928C284.935 182.928 286.024 183.157 287.033 183.616C288.042 184.051 288.914 184.659 289.648 185.439C290.404 186.219 290.978 187.147 291.368 188.225C291.78 189.28 291.975 190.438 291.952 191.7L291.918 193.213H277.16L276.369 190.392H288.856L288.34 190.977V190.152C288.272 189.395 288.019 188.718 287.584 188.122C287.148 187.526 286.597 187.056 285.932 186.712C285.267 186.368 284.545 186.196 283.765 186.196C282.527 186.196 281.483 186.436 280.635 186.918C279.786 187.377 279.144 188.065 278.708 188.982C278.273 189.876 278.055 190.989 278.055 192.319C278.055 193.58 278.319 194.681 278.846 195.621C279.373 196.539 280.119 197.25 281.082 197.754C282.045 198.259 283.157 198.511 284.419 198.511C285.313 198.511 286.139 198.362 286.896 198.064C287.675 197.766 288.512 197.227 289.407 196.447L291.196 198.958C290.645 199.508 289.969 199.99 289.166 200.403C288.386 200.816 287.549 201.148 286.655 201.4C285.783 201.63 284.923 201.744 284.075 201.744ZM294.152 201.4V175.944H297.695V201.4H294.152ZM308.779 201.744C307.013 201.744 305.431 201.343 304.032 200.54C302.656 199.715 301.567 198.603 300.764 197.204C299.961 195.782 299.56 194.165 299.56 192.353C299.56 190.541 299.961 188.936 300.764 187.537C301.567 186.115 302.656 185.003 304.032 184.2C305.431 183.375 307.013 182.962 308.779 182.962C310.522 182.962 312.082 183.375 313.458 184.2C314.857 185.003 315.957 186.115 316.76 187.537C317.563 188.936 317.964 190.541 317.964 192.353C317.964 194.165 317.563 195.782 316.76 197.204C315.957 198.603 314.857 199.715 313.458 200.54C312.082 201.343 310.522 201.744 308.779 201.744ZM308.779 198.511C309.857 198.511 310.82 198.247 311.669 197.72C312.517 197.169 313.182 196.435 313.664 195.518C314.146 194.578 314.375 193.523 314.352 192.353C314.375 191.161 314.146 190.106 313.664 189.188C313.182 188.248 312.517 187.514 311.669 186.987C310.82 186.459 309.857 186.196 308.779 186.196C307.701 186.196 306.727 186.471 305.855 187.021C305.007 187.549 304.342 188.283 303.86 189.223C303.378 190.14 303.149 191.184 303.172 192.353C303.149 193.523 303.378 194.578 303.86 195.518C304.342 196.435 305.007 197.169 305.855 197.72C306.727 198.247 307.701 198.511 308.779 198.511ZM320.105 208.968V183.34H323.682V187.468L323.132 187.159C323.27 186.471 323.66 185.817 324.302 185.198C324.944 184.556 325.724 184.04 326.641 183.65C327.581 183.237 328.544 183.031 329.53 183.031C331.159 183.031 332.604 183.432 333.865 184.235C335.126 185.037 336.124 186.138 336.858 187.537C337.592 188.936 337.959 190.541 337.959 192.353C337.959 194.142 337.592 195.747 336.858 197.169C336.147 198.568 335.161 199.68 333.899 200.506C332.638 201.309 331.216 201.71 329.634 201.71C328.579 201.71 327.558 201.504 326.572 201.091C325.586 200.655 324.749 200.105 324.061 199.44C323.373 198.775 322.949 198.087 322.788 197.376L323.682 196.894V208.968H320.105ZM329.049 198.442C330.104 198.442 331.044 198.178 331.87 197.651C332.695 197.123 333.349 196.401 333.831 195.484C334.312 194.566 334.553 193.523 334.553 192.353C334.553 191.184 334.312 190.152 333.831 189.257C333.372 188.34 332.73 187.617 331.904 187.09C331.079 186.563 330.127 186.299 329.049 186.299C327.971 186.299 327.019 186.563 326.194 187.09C325.368 187.595 324.714 188.305 324.233 189.223C323.751 190.14 323.51 191.184 323.51 192.353C323.51 193.523 323.751 194.566 324.233 195.484C324.714 196.401 325.368 197.123 326.194 197.651C327.019 198.178 327.971 198.442 329.049 198.442ZM348.515 201.744C346.657 201.744 345.006 201.355 343.561 200.575C342.139 199.772 341.015 198.683 340.19 197.307C339.387 195.931 338.986 194.348 338.986 192.56C338.986 191.138 339.215 189.842 339.674 188.672C340.132 187.503 340.763 186.494 341.566 185.645C342.391 184.774 343.366 184.109 344.49 183.65C345.636 183.168 346.875 182.928 348.205 182.928C349.375 182.928 350.464 183.157 351.473 183.616C352.482 184.051 353.353 184.659 354.087 185.439C354.844 186.219 355.417 187.147 355.807 188.225C356.22 189.28 356.415 190.438 356.392 191.7L356.358 193.213H341.6L340.809 190.392H353.296L352.78 190.977V190.152C352.711 189.395 352.459 188.718 352.023 188.122C351.588 187.526 351.037 187.056 350.372 186.712C349.707 186.368 348.985 186.196 348.205 186.196C346.967 186.196 345.923 186.436 345.074 186.918C344.226 187.377 343.584 188.065 343.148 188.982C342.712 189.876 342.494 190.989 342.494 192.319C342.494 193.58 342.758 194.681 343.286 195.621C343.813 196.539 344.558 197.25 345.522 197.754C346.485 198.259 347.597 198.511 348.859 198.511C349.753 198.511 350.579 198.362 351.335 198.064C352.115 197.766 352.952 197.227 353.847 196.447L355.635 198.958C355.085 199.508 354.408 199.99 353.606 200.403C352.826 200.816 351.989 201.148 351.095 201.4C350.223 201.63 349.363 201.744 348.515 201.744ZM358.523 201.4V183.34H362.1V189.016L361.756 187.64C362.009 186.769 362.433 185.978 363.029 185.267C363.648 184.556 364.348 183.994 365.128 183.581C365.93 183.168 366.756 182.962 367.604 182.962C367.994 182.962 368.361 182.996 368.705 183.065C369.072 183.134 369.359 183.214 369.565 183.306L368.636 187.159C368.361 187.044 368.052 186.952 367.708 186.884C367.387 186.792 367.065 186.746 366.744 186.746C366.125 186.746 365.529 186.872 364.956 187.124C364.405 187.354 363.912 187.686 363.476 188.122C363.064 188.535 362.731 189.028 362.479 189.601C362.227 190.152 362.1 190.759 362.1 191.424V201.4H358.523ZM390.26 201.744C388.517 201.744 386.889 201.435 385.375 200.816C383.862 200.174 382.532 199.291 381.385 198.167C380.238 197.043 379.344 195.736 378.702 194.245C378.082 192.732 377.773 191.103 377.773 189.36C377.773 187.64 378.082 186.035 378.702 184.544C379.344 183.054 380.227 181.758 381.35 180.657C382.497 179.533 383.827 178.662 385.341 178.043C386.855 177.424 388.483 177.114 390.226 177.114C391.441 177.114 392.622 177.286 393.769 177.63C394.939 177.974 395.993 178.456 396.934 179.075C397.874 179.694 398.642 180.405 399.239 181.208L396.831 183.719C396.143 183.054 395.432 182.503 394.698 182.068C393.987 181.632 393.253 181.299 392.496 181.07C391.739 180.841 390.983 180.726 390.226 180.726C388.987 180.726 387.841 180.944 386.786 181.38C385.754 181.815 384.836 182.423 384.034 183.203C383.254 183.983 382.646 184.9 382.21 185.955C381.775 186.987 381.557 188.122 381.557 189.36C381.557 190.553 381.786 191.688 382.245 192.766C382.704 193.821 383.334 194.75 384.137 195.552C384.962 196.355 385.903 196.986 386.958 197.444C388.036 197.903 389.171 198.132 390.363 198.132C391.258 198.132 392.106 198.006 392.909 197.754C393.712 197.479 394.423 197.1 395.042 196.619C395.661 196.137 396.143 195.587 396.487 194.968C396.831 194.325 397.003 193.649 397.003 192.938V192.25L397.519 192.732H390.157V189.051H400.821C400.867 189.303 400.901 189.555 400.924 189.808C400.947 190.037 400.959 190.266 400.959 190.496C400.981 190.702 400.993 190.908 400.993 191.115C400.993 192.697 400.718 194.142 400.167 195.449C399.617 196.734 398.849 197.846 397.863 198.786C396.899 199.726 395.764 200.46 394.457 200.988C393.173 201.492 391.774 201.744 390.26 201.744ZM403.216 201.4V183.34H406.794V189.016L406.45 187.64C406.702 186.769 407.126 185.978 407.722 185.267C408.342 184.556 409.041 183.994 409.821 183.581C410.624 183.168 411.449 182.962 412.298 182.962C412.688 182.962 413.054 182.996 413.398 183.065C413.765 183.134 414.052 183.214 414.258 183.306L413.33 187.159C413.054 187.044 412.745 186.952 412.401 186.884C412.08 186.792 411.759 186.746 411.438 186.746C410.818 186.746 410.222 186.872 409.649 187.124C409.098 187.354 408.605 187.686 408.17 188.122C407.757 188.535 407.424 189.028 407.172 189.601C406.92 190.152 406.794 190.759 406.794 191.424V201.4H403.216ZM422.716 201.744C420.95 201.744 419.368 201.343 417.969 200.54C416.593 199.715 415.503 198.603 414.701 197.204C413.898 195.782 413.497 194.165 413.497 192.353C413.497 190.541 413.898 188.936 414.701 187.537C415.503 186.115 416.593 185.003 417.969 184.2C419.368 183.375 420.95 182.962 422.716 182.962C424.459 182.962 426.018 183.375 427.394 184.2C428.793 185.003 429.894 186.115 430.697 187.537C431.5 188.936 431.901 190.541 431.901 192.353C431.901 194.165 431.5 195.782 430.697 197.204C429.894 198.603 428.793 199.715 427.394 200.54C426.018 201.343 424.459 201.744 422.716 201.744ZM422.716 198.511C423.794 198.511 424.757 198.247 425.606 197.72C426.454 197.169 427.119 196.435 427.601 195.518C428.082 194.578 428.312 193.523 428.289 192.353C428.312 191.161 428.082 190.106 427.601 189.188C427.119 188.248 426.454 187.514 425.606 186.987C424.757 186.459 423.794 186.196 422.716 186.196C421.638 186.196 420.664 186.471 419.792 187.021C418.944 187.549 418.278 188.283 417.797 189.223C417.315 190.14 417.086 191.184 417.109 192.353C417.086 193.523 417.315 194.578 417.797 195.518C418.278 196.435 418.944 197.169 419.792 197.72C420.664 198.247 421.638 198.511 422.716 198.511ZM440.371 201.744C439.087 201.744 437.963 201.446 437 200.85C436.06 200.254 435.326 199.417 434.799 198.339C434.294 197.261 434.042 195.977 434.042 194.486V183.34H437.585V193.523C437.585 194.578 437.745 195.495 438.067 196.275C438.411 197.032 438.892 197.616 439.511 198.029C440.153 198.442 440.922 198.648 441.816 198.648C442.481 198.648 443.089 198.545 443.639 198.339C444.19 198.11 444.66 197.8 445.05 197.41C445.463 197.02 445.784 196.55 446.013 196C446.242 195.449 446.357 194.853 446.357 194.211V183.34H449.9V201.4H446.357V197.616L446.976 197.204C446.701 198.052 446.231 198.82 445.566 199.508C444.924 200.196 444.155 200.747 443.261 201.16C442.367 201.55 441.403 201.744 440.371 201.744ZM453.15 208.968V183.34H456.728V187.468L456.177 187.159C456.315 186.471 456.705 185.817 457.347 185.198C457.989 184.556 458.769 184.04 459.686 183.65C460.626 183.237 461.589 183.031 462.576 183.031C464.204 183.031 465.649 183.432 466.91 184.235C468.171 185.037 469.169 186.138 469.903 187.537C470.637 188.936 471.004 190.541 471.004 192.353C471.004 194.142 470.637 195.747 469.903 197.169C469.192 198.568 468.206 199.68 466.944 200.506C465.683 201.309 464.261 201.71 462.679 201.71C461.624 201.71 460.603 201.504 459.617 201.091C458.631 200.655 457.794 200.105 457.106 199.44C456.418 198.775 455.994 198.087 455.833 197.376L456.728 196.894V208.968H453.15ZM462.094 198.442C463.149 198.442 464.089 198.178 464.915 197.651C465.74 197.123 466.394 196.401 466.876 195.484C467.357 194.566 467.598 193.523 467.598 192.353C467.598 191.184 467.357 190.152 466.876 189.257C466.417 188.34 465.775 187.617 464.949 187.09C464.124 186.563 463.172 186.299 462.094 186.299C461.016 186.299 460.064 186.563 459.239 187.09C458.413 187.595 457.76 188.305 457.278 189.223C456.796 190.14 456.556 191.184 456.556 192.353C456.556 193.523 456.796 194.566 457.278 195.484C457.76 196.401 458.413 197.123 459.239 197.651C460.064 198.178 461.016 198.442 462.094 198.442ZM479.152 201.744C477.638 201.744 476.273 201.481 475.058 200.953C473.842 200.426 472.833 199.646 472.031 198.614L474.439 196.55C475.127 197.353 475.872 197.938 476.675 198.304C477.5 198.648 478.429 198.82 479.461 198.82C479.874 198.82 480.252 198.775 480.596 198.683C480.963 198.568 481.273 198.408 481.525 198.201C481.8 197.995 482.007 197.754 482.144 197.479C482.282 197.181 482.351 196.86 482.351 196.516C482.351 195.919 482.133 195.438 481.697 195.071C481.468 194.91 481.101 194.738 480.596 194.555C480.115 194.348 479.484 194.142 478.704 193.936C477.374 193.592 476.285 193.202 475.436 192.766C474.588 192.33 473.934 191.837 473.476 191.287C473.132 190.851 472.879 190.381 472.719 189.876C472.558 189.349 472.478 188.776 472.478 188.156C472.478 187.4 472.638 186.712 472.96 186.092C473.304 185.45 473.762 184.9 474.336 184.441C474.932 183.96 475.62 183.593 476.4 183.34C477.202 183.088 478.051 182.962 478.945 182.962C479.794 182.962 480.631 183.077 481.456 183.306C482.305 183.535 483.085 183.868 483.796 184.304C484.506 184.739 485.103 185.255 485.584 185.852L483.555 188.088C483.119 187.652 482.637 187.273 482.11 186.952C481.605 186.608 481.089 186.345 480.562 186.161C480.034 185.978 479.553 185.886 479.117 185.886C478.636 185.886 478.2 185.932 477.81 186.024C477.42 186.115 477.088 186.253 476.812 186.436C476.56 186.62 476.365 186.849 476.228 187.124C476.09 187.4 476.021 187.709 476.021 188.053C476.044 188.351 476.113 188.638 476.228 188.913C476.365 189.165 476.549 189.383 476.778 189.567C477.03 189.75 477.409 189.945 477.913 190.152C478.418 190.358 479.06 190.553 479.84 190.736C480.986 191.035 481.926 191.367 482.66 191.734C483.417 192.078 484.013 192.479 484.449 192.938C484.908 193.374 485.229 193.878 485.412 194.452C485.596 195.025 485.688 195.667 485.688 196.378C485.688 197.41 485.389 198.339 484.793 199.164C484.22 199.967 483.44 200.598 482.454 201.056C481.468 201.515 480.367 201.744 479.152 201.744Z" fill="#666666"/>
<path d="M137.652 226.56C136.863 226.56 136.132 226.416 135.46 226.128C134.799 225.84 134.218 225.44 133.716 224.928C133.226 224.406 132.842 223.798 132.564 223.104C132.298 222.4 132.164 221.632 132.164 220.8C132.164 219.968 132.298 219.206 132.564 218.512C132.842 217.808 133.226 217.2 133.716 216.688C134.218 216.166 134.799 215.76 135.46 215.472C136.132 215.184 136.863 215.04 137.652 215.04C138.442 215.04 139.167 215.184 139.828 215.472C140.5 215.76 141.082 216.166 141.572 216.688C142.074 217.211 142.458 217.824 142.724 218.528C143.002 219.222 143.14 219.979 143.14 220.8C143.14 221.622 143.002 222.384 142.724 223.088C142.458 223.782 142.074 224.39 141.572 224.912C141.082 225.435 140.5 225.84 139.828 226.128C139.167 226.416 138.442 226.56 137.652 226.56ZM137.652 224.88C138.196 224.88 138.692 224.779 139.14 224.576C139.599 224.374 139.994 224.091 140.324 223.728C140.655 223.355 140.911 222.923 141.092 222.432C141.284 221.931 141.38 221.387 141.38 220.8C141.38 220.214 141.284 219.675 141.092 219.184C140.911 218.683 140.655 218.251 140.324 217.888C139.994 217.515 139.599 217.227 139.14 217.024C138.692 216.822 138.196 216.72 137.652 216.72C137.108 216.72 136.607 216.822 136.148 217.024C135.7 217.227 135.306 217.51 134.964 217.872C134.634 218.235 134.378 218.667 134.196 219.168C134.015 219.659 133.924 220.203 133.924 220.8C133.924 221.387 134.015 221.931 134.196 222.432C134.378 222.934 134.634 223.366 134.964 223.728C135.306 224.091 135.7 224.374 136.148 224.576C136.607 224.779 137.108 224.88 137.652 224.88ZM144.264 226.4V218H145.912V219.728L145.624 219.92C145.731 219.547 145.939 219.206 146.248 218.896C146.557 218.576 146.925 218.32 147.352 218.128C147.779 217.926 148.216 217.824 148.664 217.824C149.304 217.824 149.837 217.952 150.264 218.208C150.691 218.454 151.011 218.832 151.224 219.344C151.437 219.856 151.544 220.502 151.544 221.28V226.4H149.896V221.392C149.896 220.912 149.832 220.518 149.704 220.208C149.576 219.888 149.379 219.659 149.112 219.52C148.845 219.371 148.515 219.307 148.12 219.328C147.8 219.328 147.507 219.382 147.24 219.488C146.973 219.584 146.739 219.723 146.536 219.904C146.344 220.086 146.189 220.299 146.072 220.544C145.965 220.779 145.912 221.035 145.912 221.312V226.4H145.096C144.957 226.4 144.819 226.4 144.68 226.4C144.541 226.4 144.403 226.4 144.264 226.4ZM161.624 226.56C160.845 226.56 160.131 226.422 159.48 226.144C158.829 225.867 158.264 225.472 157.784 224.96C157.304 224.438 156.931 223.824 156.664 223.12C156.408 222.416 156.28 221.643 156.28 220.8C156.28 220 156.419 219.259 156.696 218.576C156.984 217.883 157.379 217.275 157.88 216.752C158.381 216.23 158.963 215.824 159.624 215.536C160.285 215.248 161 215.104 161.768 215.104C162.312 215.104 162.84 215.19 163.352 215.36C163.875 215.52 164.344 215.75 164.76 216.048C165.187 216.336 165.534 216.667 165.8 217.04L164.648 218.24C164.339 217.931 164.024 217.675 163.704 217.472C163.395 217.259 163.075 217.099 162.744 216.992C162.424 216.886 162.099 216.832 161.768 216.832C161.245 216.832 160.755 216.934 160.296 217.136C159.848 217.328 159.453 217.6 159.112 217.952C158.781 218.304 158.52 218.726 158.328 219.216C158.136 219.696 158.04 220.224 158.04 220.8C158.04 221.408 158.131 221.963 158.312 222.464C158.504 222.955 158.771 223.376 159.112 223.728C159.453 224.08 159.859 224.352 160.328 224.544C160.808 224.726 161.336 224.816 161.912 224.816C162.264 224.816 162.611 224.768 162.952 224.672C163.294 224.576 163.614 224.438 163.912 224.256C164.211 224.075 164.483 223.862 164.728 223.616L165.592 225.024C165.347 225.312 165.011 225.574 164.584 225.808C164.168 226.043 163.699 226.23 163.176 226.368C162.664 226.496 162.147 226.56 161.624 226.56ZM169.956 226.56C169.262 226.56 168.628 226.368 168.052 225.984C167.486 225.6 167.033 225.078 166.692 224.416C166.35 223.755 166.18 223.008 166.18 222.176C166.18 221.334 166.35 220.587 166.692 219.936C167.044 219.275 167.513 218.758 168.1 218.384C168.697 218.011 169.364 217.824 170.1 217.824C170.537 217.824 170.937 217.888 171.3 218.016C171.662 218.144 171.977 218.326 172.244 218.56C172.521 218.784 172.745 219.046 172.916 219.344C173.097 219.643 173.209 219.963 173.252 220.304L172.884 220.176V218H174.548V226.4H172.884V224.4L173.268 224.288C173.204 224.576 173.07 224.859 172.868 225.136C172.676 225.403 172.425 225.643 172.116 225.856C171.817 226.07 171.481 226.24 171.108 226.368C170.745 226.496 170.361 226.56 169.956 226.56ZM170.388 225.04C170.889 225.04 171.332 224.918 171.716 224.672C172.1 224.427 172.398 224.091 172.612 223.664C172.836 223.227 172.948 222.731 172.948 222.176C172.948 221.632 172.836 221.147 172.612 220.72C172.398 220.294 172.1 219.958 171.716 219.712C171.332 219.467 170.889 219.344 170.388 219.344C169.897 219.344 169.46 219.467 169.076 219.712C168.702 219.958 168.404 220.294 168.18 220.72C167.966 221.147 167.86 221.632 167.86 222.176C167.86 222.731 167.966 223.227 168.18 223.664C168.404 224.091 168.702 224.427 169.076 224.672C169.46 224.918 169.897 225.04 170.388 225.04ZM176.017 226.4V218H177.681V219.792L177.377 219.984C177.462 219.707 177.595 219.44 177.777 219.184C177.969 218.928 178.198 218.704 178.465 218.512C178.742 218.31 179.035 218.15 179.345 218.032C179.665 217.915 179.99 217.856 180.321 217.856C180.801 217.856 181.222 217.936 181.585 218.096C181.947 218.256 182.246 218.496 182.481 218.816C182.715 219.136 182.886 219.536 182.993 220.016L182.737 219.952L182.849 219.68C182.966 219.435 183.126 219.206 183.329 218.992C183.542 218.768 183.782 218.571 184.049 218.4C184.315 218.23 184.598 218.096 184.897 218C185.195 217.904 185.489 217.856 185.777 217.856C186.406 217.856 186.923 217.984 187.329 218.24C187.745 218.496 188.054 218.886 188.257 219.408C188.47 219.931 188.577 220.582 188.577 221.36V226.4H186.913V221.456C186.913 220.976 186.849 220.587 186.721 220.288C186.603 219.979 186.422 219.75 186.177 219.6C185.931 219.451 185.617 219.376 185.233 219.376C184.934 219.376 184.651 219.43 184.385 219.536C184.129 219.632 183.905 219.771 183.713 219.952C183.521 220.134 183.371 220.347 183.265 220.592C183.158 220.827 183.105 221.088 183.105 221.376V226.4H181.441V221.424C181.441 220.987 181.377 220.619 181.249 220.32C181.121 220.011 180.934 219.776 180.689 219.616C180.443 219.456 180.145 219.376 179.793 219.376C179.494 219.376 179.217 219.43 178.961 219.536C178.705 219.632 178.481 219.771 178.289 219.952C178.097 220.123 177.947 220.331 177.841 220.576C177.734 220.811 177.681 221.067 177.681 221.344V226.4H176.017ZM189.983 229.92V218H191.647V219.92L191.391 219.776C191.455 219.456 191.636 219.152 191.935 218.864C192.234 218.566 192.596 218.326 193.023 218.144C193.46 217.952 193.908 217.856 194.367 217.856C195.124 217.856 195.796 218.043 196.383 218.416C196.97 218.79 197.434 219.302 197.775 219.952C198.116 220.603 198.287 221.35 198.287 222.192C198.287 223.024 198.116 223.771 197.775 224.432C197.444 225.083 196.986 225.6 196.399 225.984C195.812 226.358 195.151 226.544 194.415 226.544C193.924 226.544 193.45 226.448 192.991 226.256C192.532 226.054 192.143 225.798 191.823 225.488C191.503 225.179 191.306 224.859 191.231 224.528L191.647 224.304V229.92H189.983ZM194.143 225.024C194.634 225.024 195.071 224.902 195.455 224.656C195.839 224.411 196.143 224.075 196.367 223.648C196.591 223.222 196.703 222.736 196.703 222.192C196.703 221.648 196.591 221.168 196.367 220.752C196.154 220.326 195.855 219.99 195.471 219.744C195.087 219.499 194.644 219.376 194.143 219.376C193.642 219.376 193.199 219.499 192.815 219.744C192.431 219.979 192.127 220.31 191.903 220.736C191.679 221.163 191.567 221.648 191.567 222.192C191.567 222.736 191.679 223.222 191.903 223.648C192.127 224.075 192.431 224.411 192.815 224.656C193.199 224.902 193.642 225.024 194.143 225.024ZM202.221 226.56C201.623 226.56 201.101 226.422 200.653 226.144C200.215 225.867 199.874 225.478 199.629 224.976C199.394 224.475 199.277 223.878 199.277 223.184V218H200.925V222.736C200.925 223.227 200.999 223.654 201.149 224.016C201.309 224.368 201.533 224.64 201.821 224.832C202.119 225.024 202.477 225.12 202.893 225.12C203.202 225.12 203.485 225.072 203.741 224.976C203.997 224.87 204.215 224.726 204.397 224.544C204.589 224.363 204.738 224.144 204.845 223.888C204.951 223.632 205.005 223.355 205.005 223.056V218H206.653V226.4H205.005V224.64L205.293 224.448C205.165 224.843 204.946 225.2 204.637 225.52C204.338 225.84 203.981 226.096 203.565 226.288C203.149 226.47 202.701 226.56 202.221 226.56ZM210.964 226.56C210.26 226.56 209.626 226.438 209.06 226.192C208.495 225.947 208.026 225.584 207.652 225.104L208.772 224.144C209.092 224.518 209.439 224.79 209.812 224.96C210.196 225.12 210.628 225.2 211.108 225.2C211.3 225.2 211.476 225.179 211.636 225.136C211.807 225.083 211.951 225.008 212.068 224.912C212.196 224.816 212.292 224.704 212.356 224.576C212.42 224.438 212.452 224.288 212.452 224.128C212.452 223.851 212.351 223.627 212.148 223.456C212.042 223.382 211.871 223.302 211.636 223.216C211.412 223.12 211.119 223.024 210.756 222.928C210.138 222.768 209.631 222.587 209.236 222.384C208.842 222.182 208.538 221.952 208.324 221.696C208.164 221.494 208.047 221.275 207.972 221.04C207.898 220.795 207.86 220.528 207.86 220.24C207.86 219.888 207.935 219.568 208.084 219.28C208.244 218.982 208.458 218.726 208.724 218.512C209.002 218.288 209.322 218.118 209.684 218C210.058 217.883 210.452 217.824 210.868 217.824C211.263 217.824 211.652 217.878 212.036 217.984C212.431 218.091 212.794 218.246 213.124 218.448C213.455 218.651 213.732 218.891 213.956 219.168L213.012 220.208C212.81 220.006 212.586 219.83 212.34 219.68C212.106 219.52 211.866 219.398 211.62 219.312C211.375 219.227 211.151 219.184 210.948 219.184C210.724 219.184 210.522 219.206 210.34 219.248C210.159 219.291 210.004 219.355 209.876 219.44C209.759 219.526 209.668 219.632 209.604 219.76C209.54 219.888 209.508 220.032 209.508 220.192C209.519 220.331 209.551 220.464 209.604 220.592C209.668 220.71 209.754 220.811 209.86 220.896C209.978 220.982 210.154 221.072 210.388 221.168C210.623 221.264 210.922 221.355 211.284 221.44C211.818 221.579 212.255 221.734 212.596 221.904C212.948 222.064 213.226 222.251 213.428 222.464C213.642 222.667 213.791 222.902 213.876 223.168C213.962 223.435 214.004 223.734 214.004 224.064C214.004 224.544 213.866 224.976 213.588 225.36C213.322 225.734 212.959 226.027 212.5 226.24C212.042 226.454 211.53 226.56 210.964 226.56Z" fill="#609CFF"/>
<path d="M220.321 222.944C219.926 222.944 219.564 222.848 219.233 222.656C218.902 222.464 218.636 222.203 218.433 221.872C218.241 221.542 218.145 221.179 218.145 220.784C218.145 220.379 218.241 220.011 218.433 219.68C218.625 219.35 218.886 219.088 219.217 218.896C219.548 218.694 219.916 218.592 220.321 218.592C220.726 218.592 221.094 218.694 221.425 218.896C221.756 219.088 222.017 219.35 222.209 219.68C222.412 220.011 222.513 220.379 222.513 220.784C222.513 221.179 222.412 221.542 222.209 221.872C222.017 222.203 221.756 222.464 221.425 222.656C221.094 222.848 220.726 222.944 220.321 222.944ZM227.537 226.4V215.2H231.921C232.721 215.2 233.441 215.334 234.081 215.6C234.731 215.867 235.286 216.251 235.745 216.752C236.203 217.254 236.555 217.846 236.801 218.528C237.046 219.211 237.169 219.968 237.169 220.8C237.169 221.632 237.046 222.395 236.801 223.088C236.555 223.771 236.203 224.363 235.745 224.864C235.297 225.355 234.747 225.734 234.097 226C233.446 226.267 232.721 226.4 231.921 226.4H227.537ZM229.265 224.912L229.217 224.736H231.841C232.406 224.736 232.907 224.646 233.345 224.464C233.793 224.283 234.166 224.027 234.465 223.696C234.774 223.355 235.009 222.939 235.169 222.448C235.329 221.958 235.409 221.408 235.409 220.8C235.409 220.192 235.329 219.648 235.169 219.168C235.009 218.678 234.774 218.262 234.465 217.92C234.155 217.579 233.782 217.318 233.345 217.136C232.907 216.955 232.406 216.864 231.841 216.864H229.169L229.265 216.72V224.912ZM238.289 226.4V218H239.953V220.64L239.793 220C239.911 219.595 240.108 219.227 240.385 218.896C240.673 218.566 240.999 218.304 241.361 218.112C241.735 217.92 242.119 217.824 242.513 217.824C242.695 217.824 242.865 217.84 243.025 217.872C243.196 217.904 243.329 217.942 243.425 217.984L242.993 219.776C242.865 219.723 242.721 219.68 242.561 219.648C242.412 219.606 242.263 219.584 242.113 219.584C241.825 219.584 241.548 219.643 241.281 219.76C241.025 219.867 240.796 220.022 240.593 220.224C240.401 220.416 240.247 220.646 240.129 220.912C240.012 221.168 239.953 221.451 239.953 221.76V226.4H238.289ZM242.786 226.576C242.434 226.576 242.162 226.475 241.97 226.272C241.778 226.059 241.682 225.76 241.682 225.376C241.682 225.024 241.784 224.736 241.986 224.512C242.189 224.288 242.456 224.176 242.786 224.176C243.138 224.176 243.41 224.283 243.602 224.496C243.794 224.699 243.89 224.992 243.89 225.376C243.89 225.728 243.789 226.016 243.586 226.24C243.384 226.464 243.117 226.576 242.786 226.576ZM249.055 226.4V215.2H253.727C254.442 215.2 255.045 215.307 255.535 215.52C256.026 215.734 256.394 216.054 256.639 216.48C256.895 216.896 257.023 217.408 257.023 218.016C257.023 218.624 256.853 219.142 256.511 219.568C256.181 219.995 255.717 220.288 255.119 220.448V220.128C255.621 220.235 256.058 220.427 256.431 220.704C256.805 220.971 257.093 221.307 257.295 221.712C257.509 222.118 257.615 222.582 257.615 223.104C257.615 223.638 257.53 224.112 257.359 224.528C257.199 224.934 256.954 225.275 256.623 225.552C256.303 225.83 255.914 226.043 255.455 226.192C254.997 226.331 254.474 226.4 253.887 226.4H249.055ZM250.783 224.736H253.791C254.229 224.736 254.597 224.672 254.895 224.544C255.205 224.416 255.439 224.23 255.599 223.984C255.77 223.728 255.855 223.424 255.855 223.072C255.855 222.742 255.765 222.459 255.583 222.224C255.413 221.99 255.167 221.814 254.847 221.696C254.527 221.568 254.149 221.504 253.711 221.504H250.783V224.736ZM250.783 219.84H253.631C253.951 219.84 254.234 219.776 254.479 219.648C254.735 219.52 254.933 219.344 255.071 219.12C255.221 218.896 255.295 218.64 255.295 218.352C255.295 217.872 255.135 217.504 254.815 217.248C254.495 216.992 254.037 216.864 253.439 216.864H250.783V219.84ZM259.402 226.576C259.05 226.576 258.778 226.475 258.586 226.272C258.394 226.059 258.298 225.76 258.298 225.376C258.298 225.024 258.399 224.736 258.602 224.512C258.805 224.288 259.071 224.176 259.402 224.176C259.754 224.176 260.026 224.283 260.218 224.496C260.41 224.699 260.506 224.992 260.506 225.376C260.506 225.728 260.405 226.016 260.202 226.24C259.999 226.464 259.733 226.576 259.402 226.576ZM270.215 226.56C269.436 226.56 268.722 226.422 268.071 226.144C267.42 225.867 266.855 225.472 266.375 224.96C265.895 224.438 265.522 223.824 265.255 223.12C264.999 222.416 264.871 221.643 264.871 220.8C264.871 220 265.01 219.259 265.287 218.576C265.575 217.883 265.97 217.275 266.471 216.752C266.972 216.23 267.554 215.824 268.215 215.536C268.876 215.248 269.591 215.104 270.359 215.104C270.903 215.104 271.431 215.19 271.943 215.36C272.466 215.52 272.935 215.75 273.351 216.048C273.778 216.336 274.124 216.667 274.391 217.04L273.239 218.24C272.93 217.931 272.615 217.675 272.295 217.472C271.986 217.259 271.666 217.099 271.335 216.992C271.015 216.886 270.69 216.832 270.359 216.832C269.836 216.832 269.346 216.934 268.887 217.136C268.439 217.328 268.044 217.6 267.703 217.952C267.372 218.304 267.111 218.726 266.919 219.216C266.727 219.696 266.631 220.224 266.631 220.8C266.631 221.408 266.722 221.963 266.903 222.464C267.095 222.955 267.362 223.376 267.703 223.728C268.044 224.08 268.45 224.352 268.919 224.544C269.399 224.726 269.927 224.816 270.503 224.816C270.855 224.816 271.202 224.768 271.543 224.672C271.884 224.576 272.204 224.438 272.503 224.256C272.802 224.075 273.074 223.862 273.319 223.616L274.183 225.024C273.938 225.312 273.602 225.574 273.175 225.808C272.759 226.043 272.29 226.23 271.767 226.368C271.255 226.496 270.738 226.56 270.215 226.56ZM275.986 226.576C275.634 226.576 275.362 226.475 275.17 226.272C274.978 226.059 274.882 225.76 274.882 225.376C274.882 225.024 274.984 224.736 275.186 224.512C275.389 224.288 275.656 224.176 275.986 224.176C276.338 224.176 276.61 224.283 276.802 224.496C276.994 224.699 277.09 224.992 277.09 225.376C277.09 225.728 276.989 226.016 276.786 226.24C276.584 226.464 276.317 226.576 275.986 226.576ZM282.255 226.4V215.2H287.023C287.663 215.2 288.25 215.36 288.783 215.68C289.327 215.99 289.759 216.416 290.079 216.96C290.399 217.494 290.559 218.096 290.559 218.768C290.559 219.376 290.399 219.942 290.079 220.464C289.759 220.987 289.333 221.408 288.799 221.728C288.266 222.038 287.674 222.192 287.023 222.192H283.983V226.4H282.255ZM288.911 226.4L286.063 221.344L287.839 220.944L291.007 226.416L288.911 226.4ZM283.983 220.528H287.183C287.493 220.528 287.77 220.454 288.015 220.304C288.261 220.144 288.453 219.931 288.591 219.664C288.73 219.387 288.799 219.083 288.799 218.752C288.799 218.379 288.709 218.054 288.527 217.776C288.357 217.488 288.111 217.264 287.791 217.104C287.482 216.944 287.13 216.864 286.735 216.864H283.983V220.528ZM295.628 226.56C294.807 226.56 294.071 226.374 293.42 226C292.78 225.616 292.273 225.099 291.9 224.448C291.527 223.787 291.34 223.035 291.34 222.192C291.34 221.35 291.527 220.603 291.9 219.952C292.273 219.291 292.78 218.774 293.42 218.4C294.071 218.016 294.807 217.824 295.628 217.824C296.439 217.824 297.164 218.016 297.804 218.4C298.455 218.774 298.967 219.291 299.34 219.952C299.713 220.603 299.9 221.35 299.9 222.192C299.9 223.035 299.713 223.787 299.34 224.448C298.967 225.099 298.455 225.616 297.804 226C297.164 226.374 296.439 226.56 295.628 226.56ZM295.628 225.056C296.129 225.056 296.577 224.934 296.972 224.688C297.367 224.432 297.676 224.091 297.9 223.664C298.124 223.227 298.231 222.736 298.22 222.192C298.231 221.638 298.124 221.147 297.9 220.72C297.676 220.283 297.367 219.942 296.972 219.696C296.577 219.451 296.129 219.328 295.628 219.328C295.127 219.328 294.673 219.456 294.268 219.712C293.873 219.958 293.564 220.299 293.34 220.736C293.116 221.163 293.009 221.648 293.02 222.192C293.009 222.736 293.116 223.227 293.34 223.664C293.564 224.091 293.873 224.432 294.268 224.688C294.673 224.934 295.127 225.056 295.628 225.056ZM301.991 230.08L303.687 226.16L303.703 227.472L299.511 218H301.431L304.055 224.176C304.109 224.283 304.173 224.448 304.247 224.672C304.322 224.886 304.386 225.099 304.439 225.312L304.023 225.408C304.109 225.184 304.189 224.96 304.263 224.736C304.349 224.512 304.429 224.288 304.503 224.064L306.695 218H308.647L305.191 226.4L303.767 230.08H301.991ZM313.181 226.4V215.2H320.237V216.864H314.909V224.736H320.237V226.4H313.181ZM313.965 221.488V219.824H319.357V221.488H313.965ZM321.793 226.4V218H323.441V219.728L323.153 219.92C323.259 219.547 323.467 219.206 323.777 218.896C324.086 218.576 324.454 218.32 324.881 218.128C325.307 217.926 325.745 217.824 326.193 217.824C326.833 217.824 327.366 217.952 327.793 218.208C328.219 218.454 328.539 218.832 328.753 219.344C328.966 219.856 329.073 220.502 329.073 221.28V226.4H327.425V221.392C327.425 220.912 327.361 220.518 327.233 220.208C327.105 219.888 326.907 219.659 326.641 219.52C326.374 219.371 326.043 219.307 325.649 219.328C325.329 219.328 325.035 219.382 324.769 219.488C324.502 219.584 324.267 219.723 324.065 219.904C323.873 220.086 323.718 220.299 323.601 220.544C323.494 220.779 323.441 221.035 323.441 221.312V226.4H322.625C322.486 226.4 322.347 226.4 322.209 226.4C322.07 226.4 321.931 226.4 321.793 226.4ZM334.268 230.08C333.671 230.08 333.074 229.984 332.476 229.792C331.89 229.611 331.415 229.371 331.052 229.072L331.66 227.792C331.874 227.952 332.124 228.091 332.412 228.208C332.7 228.336 333.004 228.432 333.324 228.496C333.644 228.571 333.959 228.608 334.268 228.608C334.855 228.608 335.346 228.512 335.74 228.32C336.135 228.128 336.434 227.846 336.636 227.472C336.839 227.099 336.94 226.635 336.94 226.08V224.464L337.116 224.576C337.063 224.907 336.887 225.227 336.588 225.536C336.3 225.835 335.938 226.08 335.5 226.272C335.063 226.464 334.615 226.56 334.156 226.56C333.356 226.56 332.642 226.374 332.012 226C331.394 225.616 330.903 225.099 330.54 224.448C330.178 223.787 329.996 223.035 329.996 222.192C329.996 221.35 330.172 220.603 330.524 219.952C330.887 219.291 331.378 218.774 331.996 218.4C332.626 218.016 333.33 217.824 334.108 217.824C334.428 217.824 334.738 217.867 335.036 217.952C335.335 218.027 335.612 218.139 335.868 218.288C336.124 218.427 336.354 218.582 336.556 218.752C336.759 218.923 336.924 219.104 337.052 219.296C337.18 219.488 337.26 219.67 337.292 219.84L336.94 219.968V218H338.588V225.888C338.588 226.56 338.487 227.152 338.284 227.664C338.092 228.187 337.81 228.624 337.436 228.976C337.063 229.339 336.61 229.611 336.076 229.792C335.543 229.984 334.94 230.08 334.268 230.08ZM334.332 225.04C334.855 225.04 335.319 224.918 335.724 224.672C336.13 224.427 336.444 224.091 336.668 223.664C336.892 223.238 337.004 222.747 337.004 222.192C337.004 221.638 336.887 221.147 336.652 220.72C336.428 220.283 336.114 219.942 335.708 219.696C335.314 219.451 334.855 219.328 334.332 219.328C333.82 219.328 333.362 219.456 332.956 219.712C332.562 219.958 332.247 220.299 332.012 220.736C331.788 221.163 331.676 221.648 331.676 222.192C331.676 222.736 331.788 223.227 332.012 223.664C332.247 224.091 332.562 224.427 332.956 224.672C333.362 224.918 333.82 225.04 334.332 225.04ZM340.371 226.4V218H342.019V226.4H340.371ZM341.171 216.144C340.819 216.144 340.547 216.054 340.355 215.872C340.163 215.691 340.067 215.435 340.067 215.104C340.067 214.795 340.163 214.544 340.355 214.352C340.558 214.16 340.83 214.064 341.171 214.064C341.523 214.064 341.795 214.155 341.987 214.336C342.179 214.518 342.275 214.774 342.275 215.104C342.275 215.414 342.174 215.664 341.971 215.856C341.779 216.048 341.512 216.144 341.171 216.144ZM343.752 226.4V218H345.4V219.728L345.112 219.92C345.219 219.547 345.427 219.206 345.736 218.896C346.045 218.576 346.413 218.32 346.84 218.128C347.267 217.926 347.704 217.824 348.152 217.824C348.792 217.824 349.325 217.952 349.752 218.208C350.179 218.454 350.499 218.832 350.712 219.344C350.925 219.856 351.032 220.502 351.032 221.28V226.4H349.384V221.392C349.384 220.912 349.32 220.518 349.192 220.208C349.064 219.888 348.867 219.659 348.6 219.52C348.333 219.371 348.003 219.307 347.608 219.328C347.288 219.328 346.995 219.382 346.728 219.488C346.461 219.584 346.227 219.723 346.024 219.904C345.832 220.086 345.677 220.299 345.56 220.544C345.453 220.779 345.4 221.035 345.4 221.312V226.4H344.584C344.445 226.4 344.307 226.4 344.168 226.4C344.029 226.4 343.891 226.4 343.752 226.4ZM356.388 226.56C355.524 226.56 354.756 226.379 354.084 226.016C353.422 225.643 352.9 225.136 352.516 224.496C352.142 223.856 351.956 223.12 351.956 222.288C351.956 221.627 352.062 221.024 352.276 220.48C352.489 219.936 352.782 219.467 353.156 219.072C353.54 218.667 353.993 218.358 354.516 218.144C355.049 217.92 355.625 217.808 356.244 217.808C356.788 217.808 357.294 217.915 357.764 218.128C358.233 218.331 358.638 218.614 358.98 218.976C359.332 219.339 359.598 219.771 359.78 220.272C359.972 220.763 360.062 221.302 360.052 221.888L360.036 222.592H353.172L352.804 221.28H358.612L358.372 221.552V221.168C358.34 220.816 358.222 220.502 358.02 220.224C357.817 219.947 357.561 219.728 357.252 219.568C356.942 219.408 356.606 219.328 356.244 219.328C355.668 219.328 355.182 219.44 354.788 219.664C354.393 219.878 354.094 220.198 353.892 220.624C353.689 221.04 353.588 221.558 353.588 222.176C353.588 222.763 353.71 223.275 353.956 223.712C354.201 224.139 354.548 224.47 354.996 224.704C355.444 224.939 355.961 225.056 356.548 225.056C356.964 225.056 357.348 224.987 357.7 224.848C358.062 224.71 358.452 224.459 358.868 224.096L359.7 225.264C359.444 225.52 359.129 225.744 358.756 225.936C358.393 226.128 358.004 226.283 357.588 226.4C357.182 226.507 356.782 226.56 356.388 226.56ZM364.963 226.56C364.099 226.56 363.331 226.379 362.659 226.016C361.997 225.643 361.475 225.136 361.091 224.496C360.717 223.856 360.531 223.12 360.531 222.288C360.531 221.627 360.637 221.024 360.851 220.48C361.064 219.936 361.357 219.467 361.731 219.072C362.115 218.667 362.568 218.358 363.091 218.144C363.624 217.92 364.2 217.808 364.819 217.808C365.363 217.808 365.869 217.915 366.339 218.128C366.808 218.331 367.213 218.614 367.555 218.976C367.907 219.339 368.173 219.771 368.355 220.272C368.547 220.763 368.637 221.302 368.627 221.888L368.611 222.592H361.747L361.379 221.28H367.187L366.947 221.552V221.168C366.915 220.816 366.797 220.502 366.595 220.224C366.392 219.947 366.136 219.728 365.827 219.568C365.517 219.408 365.181 219.328 364.819 219.328C364.243 219.328 363.757 219.44 363.363 219.664C362.968 219.878 362.669 220.198 362.467 220.624C362.264 221.04 362.163 221.558 362.163 222.176C362.163 222.763 362.285 223.275 362.531 223.712C362.776 224.139 363.123 224.47 363.571 224.704C364.019 224.939 364.536 225.056 365.123 225.056C365.539 225.056 365.923 224.987 366.275 224.848C366.637 224.71 367.027 224.459 367.443 224.096L368.275 225.264C368.019 225.52 367.704 225.744 367.331 225.936C366.968 226.128 366.579 226.283 366.163 226.4C365.757 226.507 365.357 226.56 364.963 226.56ZM369.618 226.4V218H371.282V220.64L371.122 220C371.239 219.595 371.436 219.227 371.714 218.896C372.002 218.566 372.327 218.304 372.69 218.112C373.063 217.92 373.447 217.824 373.842 217.824C374.023 217.824 374.194 217.84 374.354 217.872C374.525 217.904 374.658 217.942 374.754 217.984L374.322 219.776C374.194 219.723 374.05 219.68 373.89 219.648C373.741 219.606 373.591 219.584 373.442 219.584C373.154 219.584 372.876 219.643 372.61 219.76C372.354 219.867 372.124 220.022 371.922 220.224C371.73 220.416 371.575 220.646 371.458 220.912C371.34 221.168 371.282 221.451 371.282 221.76V226.4H369.618ZM375.543 226.4V218H377.191V226.4H375.543ZM376.343 216.144C375.991 216.144 375.719 216.054 375.527 215.872C375.335 215.691 375.239 215.435 375.239 215.104C375.239 214.795 375.335 214.544 375.527 214.352C375.73 214.16 376.002 214.064 376.343 214.064C376.695 214.064 376.967 214.155 377.159 214.336C377.351 214.518 377.447 214.774 377.447 215.104C377.447 215.414 377.346 215.664 377.143 215.856C376.951 216.048 376.684 216.144 376.343 216.144ZM378.924 226.4V218H380.572V219.728L380.284 219.92C380.391 219.547 380.599 219.206 380.908 218.896C381.217 218.576 381.585 218.32 382.012 218.128C382.439 217.926 382.876 217.824 383.324 217.824C383.964 217.824 384.497 217.952 384.924 218.208C385.351 218.454 385.671 218.832 385.884 219.344C386.097 219.856 386.204 220.502 386.204 221.28V226.4H384.556V221.392C384.556 220.912 384.492 220.518 384.364 220.208C384.236 219.888 384.039 219.659 383.772 219.52C383.505 219.371 383.175 219.307 382.78 219.328C382.46 219.328 382.167 219.382 381.9 219.488C381.633 219.584 381.399 219.723 381.196 219.904C381.004 220.086 380.849 220.299 380.732 220.544C380.625 220.779 380.572 221.035 380.572 221.312V226.4H379.756C379.617 226.4 379.479 226.4 379.34 226.4C379.201 226.4 379.063 226.4 378.924 226.4ZM391.4 230.08C390.802 230.08 390.205 229.984 389.608 229.792C389.021 229.611 388.546 229.371 388.184 229.072L388.792 227.792C389.005 227.952 389.256 228.091 389.544 228.208C389.832 228.336 390.136 228.432 390.456 228.496C390.776 228.571 391.09 228.608 391.4 228.608C391.986 228.608 392.477 228.512 392.872 228.32C393.266 228.128 393.565 227.846 393.768 227.472C393.97 227.099 394.072 226.635 394.072 226.08V224.464L394.248 224.576C394.194 224.907 394.018 225.227 393.72 225.536C393.432 225.835 393.069 226.08 392.632 226.272C392.194 226.464 391.746 226.56 391.288 226.56C390.488 226.56 389.773 226.374 389.144 226C388.525 225.616 388.034 225.099 387.672 224.448C387.309 223.787 387.128 223.035 387.128 222.192C387.128 221.35 387.304 220.603 387.656 219.952C388.018 219.291 388.509 218.774 389.128 218.4C389.757 218.016 390.461 217.824 391.24 217.824C391.56 217.824 391.869 217.867 392.168 217.952C392.466 218.027 392.744 218.139 393 218.288C393.256 218.427 393.485 218.582 393.688 218.752C393.89 218.923 394.056 219.104 394.184 219.296C394.312 219.488 394.392 219.67 394.424 219.84L394.072 219.968V218H395.72V225.888C395.72 226.56 395.618 227.152 395.416 227.664C395.224 228.187 394.941 228.624 394.568 228.976C394.194 229.339 393.741 229.611 393.208 229.792C392.674 229.984 392.072 230.08 391.4 230.08ZM391.464 225.04C391.986 225.04 392.45 224.918 392.856 224.672C393.261 224.427 393.576 224.091 393.8 223.664C394.024 223.238 394.136 222.747 394.136 222.192C394.136 221.638 394.018 221.147 393.784 220.72C393.56 220.283 393.245 219.942 392.84 219.696C392.445 219.451 391.986 219.328 391.464 219.328C390.952 219.328 390.493 219.456 390.088 219.712C389.693 219.958 389.378 220.299 389.144 220.736C388.92 221.163 388.808 221.648 388.808 222.192C388.808 222.736 388.92 223.227 389.144 223.664C389.378 224.091 389.693 224.427 390.088 224.672C390.493 224.918 390.952 225.04 391.464 225.04ZM405.875 226.56C405.096 226.56 404.381 226.422 403.731 226.144C403.08 225.867 402.515 225.472 402.035 224.96C401.555 224.438 401.181 223.824 400.915 223.12C400.659 222.416 400.531 221.643 400.531 220.8C400.531 220 400.669 219.259 400.947 218.576C401.235 217.883 401.629 217.275 402.131 216.752C402.632 216.23 403.213 215.824 403.875 215.536C404.536 215.248 405.251 215.104 406.019 215.104C406.563 215.104 407.091 215.19 407.603 215.36C408.125 215.52 408.595 215.75 409.011 216.048C409.437 216.336 409.784 216.667 410.051 217.04L408.899 218.24C408.589 217.931 408.275 217.675 407.955 217.472C407.645 217.259 407.325 217.099 406.995 216.992C406.675 216.886 406.349 216.832 406.019 216.832C405.496 216.832 405.005 216.934 404.547 217.136C404.099 217.328 403.704 217.6 403.363 217.952C403.032 218.304 402.771 218.726 402.579 219.216C402.387 219.696 402.291 220.224 402.291 220.8C402.291 221.408 402.381 221.963 402.563 222.464C402.755 222.955 403.021 223.376 403.363 223.728C403.704 224.08 404.109 224.352 404.579 224.544C405.059 224.726 405.587 224.816 406.163 224.816C406.515 224.816 406.861 224.768 407.203 224.672C407.544 224.576 407.864 224.438 408.163 224.256C408.461 224.075 408.733 223.862 408.979 223.616L409.843 225.024C409.597 225.312 409.261 225.574 408.835 225.808C408.419 226.043 407.949 226.23 407.427 226.368C406.915 226.496 406.397 226.56 405.875 226.56ZM414.75 226.56C413.929 226.56 413.193 226.374 412.542 226C411.902 225.616 411.396 225.099 411.022 224.448C410.649 223.787 410.462 223.035 410.462 222.192C410.462 221.35 410.649 220.603 411.022 219.952C411.396 219.291 411.902 218.774 412.542 218.4C413.193 218.016 413.929 217.824 414.75 217.824C415.561 217.824 416.286 218.016 416.926 218.4C417.577 218.774 418.089 219.291 418.462 219.952C418.836 220.603 419.022 221.35 419.022 222.192C419.022 223.035 418.836 223.787 418.462 224.448C418.089 225.099 417.577 225.616 416.926 226C416.286 226.374 415.561 226.56 414.75 226.56ZM414.75 225.056C415.252 225.056 415.7 224.934 416.094 224.688C416.489 224.432 416.798 224.091 417.022 223.664C417.246 223.227 417.353 222.736 417.342 222.192C417.353 221.638 417.246 221.147 417.022 220.72C416.798 220.283 416.489 219.942 416.094 219.696C415.7 219.451 415.252 219.328 414.75 219.328C414.249 219.328 413.796 219.456 413.39 219.712C412.996 219.958 412.686 220.299 412.462 220.736C412.238 221.163 412.132 221.648 412.142 222.192C412.132 222.736 412.238 223.227 412.462 223.664C412.686 224.091 412.996 224.432 413.39 224.688C413.796 224.934 414.249 225.056 414.75 225.056ZM420.05 226.4V214.56H421.698V226.4H420.05ZM423.266 226.4V214.56H424.914V226.4H423.266ZM430.213 226.56C429.349 226.56 428.581 226.379 427.909 226.016C427.248 225.643 426.725 225.136 426.341 224.496C425.968 223.856 425.781 223.12 425.781 222.288C425.781 221.627 425.888 221.024 426.101 220.48C426.314 219.936 426.608 219.467 426.981 219.072C427.365 218.667 427.818 218.358 428.341 218.144C428.874 217.92 429.45 217.808 430.069 217.808C430.613 217.808 431.12 217.915 431.589 218.128C432.058 218.331 432.464 218.614 432.805 218.976C433.157 219.339 433.424 219.771 433.605 220.272C433.797 220.763 433.888 221.302 433.877 221.888L433.861 222.592H426.997L426.629 221.28H432.437L432.197 221.552V221.168C432.165 220.816 432.048 220.502 431.845 220.224C431.642 219.947 431.386 219.728 431.077 219.568C430.768 219.408 430.432 219.328 430.069 219.328C429.493 219.328 429.008 219.44 428.613 219.664C428.218 219.878 427.92 220.198 427.717 220.624C427.514 221.04 427.413 221.558 427.413 222.176C427.413 222.763 427.536 223.275 427.781 223.712C428.026 224.139 428.373 224.47 428.821 224.704C429.269 224.939 429.786 225.056 430.373 225.056C430.789 225.056 431.173 224.987 431.525 224.848C431.888 224.71 432.277 224.459 432.693 224.096L433.525 225.264C433.269 225.52 432.954 225.744 432.581 225.936C432.218 226.128 431.829 226.283 431.413 226.4C431.008 226.507 430.608 226.56 430.213 226.56ZM438.55 230.08C437.953 230.08 437.355 229.984 436.758 229.792C436.171 229.611 435.697 229.371 435.334 229.072L435.942 227.792C436.155 227.952 436.406 228.091 436.694 228.208C436.982 228.336 437.286 228.432 437.606 228.496C437.926 228.571 438.241 228.608 438.55 228.608C439.137 228.608 439.627 228.512 440.022 228.32C440.417 228.128 440.715 227.846 440.918 227.472C441.121 227.099 441.222 226.635 441.222 226.08V224.464L441.398 224.576C441.345 224.907 441.169 225.227 440.87 225.536C440.582 225.835 440.219 226.08 439.782 226.272C439.345 226.464 438.897 226.56 438.438 226.56C437.638 226.56 436.923 226.374 436.294 226C435.675 225.616 435.185 225.099 434.822 224.448C434.459 223.787 434.278 223.035 434.278 222.192C434.278 221.35 434.454 220.603 434.806 219.952C435.169 219.291 435.659 218.774 436.278 218.4C436.907 218.016 437.611 217.824 438.39 217.824C438.71 217.824 439.019 217.867 439.318 217.952C439.617 218.027 439.894 218.139 440.15 218.288C440.406 218.427 440.635 218.582 440.838 218.752C441.041 218.923 441.206 219.104 441.334 219.296C441.462 219.488 441.542 219.67 441.574 219.84L441.222 219.968V218H442.87V225.888C442.87 226.56 442.769 227.152 442.566 227.664C442.374 228.187 442.091 228.624 441.718 228.976C441.345 229.339 440.891 229.611 440.358 229.792C439.825 229.984 439.222 230.08 438.55 230.08ZM438.614 225.04C439.137 225.04 439.601 224.918 440.006 224.672C440.411 224.427 440.726 224.091 440.95 223.664C441.174 223.238 441.286 222.747 441.286 222.192C441.286 221.638 441.169 221.147 440.934 220.72C440.71 220.283 440.395 219.942 439.99 219.696C439.595 219.451 439.137 219.328 438.614 219.328C438.102 219.328 437.643 219.456 437.238 219.712C436.843 219.958 436.529 220.299 436.294 220.736C436.07 221.163 435.958 221.648 435.958 222.192C435.958 222.736 436.07 223.227 436.294 223.664C436.529 224.091 436.843 224.427 437.238 224.672C437.643 224.918 438.102 225.04 438.614 225.04ZM448.301 226.56C447.437 226.56 446.669 226.379 445.997 226.016C445.335 225.643 444.813 225.136 444.429 224.496C444.055 223.856 443.869 223.12 443.869 222.288C443.869 221.627 443.975 221.024 444.189 220.48C444.402 219.936 444.695 219.467 445.069 219.072C445.453 218.667 445.906 218.358 446.429 218.144C446.962 217.92 447.538 217.808 448.157 217.808C448.701 217.808 449.207 217.915 449.677 218.128C450.146 218.331 450.551 218.614 450.893 218.976C451.245 219.339 451.511 219.771 451.693 220.272C451.885 220.763 451.975 221.302 451.965 221.888L451.949 222.592H445.085L444.717 221.28H450.525L450.285 221.552V221.168C450.253 220.816 450.135 220.502 449.933 220.224C449.73 219.947 449.474 219.728 449.165 219.568C448.855 219.408 448.519 219.328 448.157 219.328C447.581 219.328 447.095 219.44 446.701 219.664C446.306 219.878 446.007 220.198 445.805 220.624C445.602 221.04 445.501 221.558 445.501 222.176C445.501 222.763 445.623 223.275 445.869 223.712C446.114 224.139 446.461 224.47 446.909 224.704C447.357 224.939 447.874 225.056 448.461 225.056C448.877 225.056 449.261 224.987 449.613 224.848C449.975 224.71 450.365 224.459 450.781 224.096L451.613 225.264C451.357 225.52 451.042 225.744 450.669 225.936C450.306 226.128 449.917 226.283 449.501 226.4C449.095 226.507 448.695 226.56 448.301 226.56Z" fill="#666666"/>
</svg>
