<svg width="584" height="311" viewBox="0 0 584 311" fill="none" xmlns="http://www.w3.org/2000/svg">
<rect x="-0.448398" y="1.63675" width="60.5213" height="19.1176" rx="9.5588" transform="matrix(-0.868809 0.495148 0.495144 0.868811 277.517 81.4367)" fill="#EF5350" stroke="#EF5350" stroke-width="2.40001"/>
<rect x="-0.448398" y="1.63675" width="60.5213" height="19.1176" rx="9.5588" transform="matrix(-0.868809 0.495148 0.495144 0.868811 347.862 101.987)" fill="#FBBC04" stroke="#FBBC04" stroke-width="2.40001"/>
<rect x="0.448398" y="1.63675" width="60.5213" height="19.1176" rx="9.5588" transform="matrix(0.868809 0.495148 -0.495144 0.868811 236.022 101.543)" fill="#4285F4" stroke="#4285F4" stroke-width="2.40001"/>
<path d="M353.795 120.909C351.181 125.495 345.344 127.094 340.757 124.48L304.785 103.979C300.199 101.365 298.6 95.5282 301.213 90.9416C303.827 86.355 309.665 84.7558 314.251 87.3698L350.223 107.871C354.81 110.485 356.409 116.322 353.795 120.909Z" fill="#4CAF50" stroke="#4CAF50" stroke-width="2.40001"/>
<path d="M110.638 201.744C108.895 201.744 107.267 201.435 105.754 200.816C104.24 200.174 102.91 199.291 101.763 198.167C100.617 197.043 99.7221 195.736 99.08 194.245C98.4608 192.732 98.1512 191.103 98.1512 189.36C98.1512 187.64 98.4608 186.035 99.08 184.544C99.7221 183.054 100.605 181.758 101.729 180.657C102.875 179.533 104.206 178.662 105.719 178.043C107.233 177.424 108.861 177.114 110.604 177.114C111.82 177.114 113.001 177.286 114.147 177.63C115.317 177.974 116.372 178.456 117.312 179.075C118.252 179.694 119.021 180.405 119.617 181.208L117.209 183.719C116.521 183.054 115.81 182.503 115.076 182.068C114.365 181.632 113.631 181.299 112.874 181.07C112.118 180.841 111.361 180.726 110.604 180.726C109.366 180.726 108.219 180.944 107.164 181.38C106.132 181.815 105.215 182.423 104.412 183.203C103.632 183.983 103.025 184.9 102.589 185.955C102.153 186.987 101.935 188.122 101.935 189.36C101.935 190.553 102.165 191.688 102.623 192.766C103.082 193.821 103.713 194.75 104.515 195.552C105.341 196.355 106.281 196.986 107.336 197.444C108.414 197.903 109.549 198.132 110.742 198.132C111.636 198.132 112.485 198.006 113.287 197.754C114.09 197.479 114.801 197.1 115.42 196.619C116.039 196.137 116.521 195.587 116.865 194.968C117.209 194.325 117.381 193.649 117.381 192.938V192.25L117.897 192.732H110.535V189.051H121.199C121.245 189.303 121.28 189.555 121.302 189.808C121.325 190.037 121.337 190.266 121.337 190.496C121.36 190.702 121.371 190.908 121.371 191.115C121.371 192.697 121.096 194.142 120.546 195.449C119.995 196.734 119.227 197.846 118.241 198.786C117.278 199.726 116.142 200.46 114.835 200.988C113.551 201.492 112.152 201.744 110.638 201.744ZM131.713 201.744C129.947 201.744 128.365 201.343 126.966 200.54C125.59 199.715 124.5 198.603 123.698 197.204C122.895 195.782 122.494 194.165 122.494 192.353C122.494 190.541 122.895 188.936 123.698 187.537C124.5 186.115 125.59 185.003 126.966 184.2C128.365 183.375 129.947 182.962 131.713 182.962C133.456 182.962 135.015 183.375 136.391 184.2C137.79 185.003 138.891 186.115 139.694 187.537C140.496 188.936 140.898 190.541 140.898 192.353C140.898 194.165 140.496 195.782 139.694 197.204C138.891 198.603 137.79 199.715 136.391 200.54C135.015 201.343 133.456 201.744 131.713 201.744ZM131.713 198.511C132.791 198.511 133.754 198.247 134.602 197.72C135.451 197.169 136.116 196.435 136.598 195.518C137.079 194.578 137.309 193.523 137.286 192.353C137.309 191.161 137.079 190.106 136.598 189.188C136.116 188.248 135.451 187.514 134.602 186.987C133.754 186.459 132.791 186.196 131.713 186.196C130.635 186.196 129.66 186.471 128.789 187.021C127.94 187.549 127.275 188.283 126.794 189.223C126.312 190.14 126.083 191.184 126.106 192.353C126.083 193.523 126.312 194.578 126.794 195.518C127.275 196.435 127.94 197.169 128.789 197.72C129.66 198.247 130.635 198.511 131.713 198.511ZM151.157 201.744C149.391 201.744 147.809 201.343 146.41 200.54C145.034 199.715 143.944 198.603 143.142 197.204C142.339 195.782 141.938 194.165 141.938 192.353C141.938 190.541 142.339 188.936 143.142 187.537C143.944 186.115 145.034 185.003 146.41 184.2C147.809 183.375 149.391 182.962 151.157 182.962C152.9 182.962 154.459 183.375 155.835 184.2C157.234 185.003 158.335 186.115 159.138 187.537C159.94 188.936 160.342 190.541 160.342 192.353C160.342 194.165 159.94 195.782 159.138 197.204C158.335 198.603 157.234 199.715 155.835 200.54C154.459 201.343 152.9 201.744 151.157 201.744ZM151.157 198.511C152.235 198.511 153.198 198.247 154.047 197.72C154.895 197.169 155.56 196.435 156.042 195.518C156.523 194.578 156.753 193.523 156.73 192.353C156.753 191.161 156.523 190.106 156.042 189.188C155.56 188.248 154.895 187.514 154.047 186.987C153.198 186.459 152.235 186.196 151.157 186.196C150.079 186.196 149.104 186.471 148.233 187.021C147.384 187.549 146.719 188.283 146.238 189.223C145.756 190.14 145.527 191.184 145.55 192.353C145.527 193.523 145.756 194.578 146.238 195.518C146.719 196.435 147.384 197.169 148.233 197.72C149.104 198.247 150.079 198.511 151.157 198.511ZM170.567 209.312C169.282 209.312 167.998 209.106 166.714 208.693C165.452 208.303 164.432 207.787 163.652 207.145L164.959 204.393C165.418 204.737 165.957 205.035 166.576 205.288C167.195 205.563 167.849 205.769 168.537 205.907C169.225 206.067 169.902 206.148 170.567 206.148C171.828 206.148 172.883 205.941 173.731 205.528C174.58 205.116 175.222 204.508 175.658 203.705C176.094 202.903 176.311 201.905 176.311 200.712V197.238L176.69 197.479C176.575 198.19 176.197 198.878 175.555 199.543C174.935 200.185 174.156 200.712 173.215 201.125C172.275 201.538 171.312 201.744 170.326 201.744C168.606 201.744 167.069 201.343 165.716 200.54C164.386 199.715 163.331 198.603 162.551 197.204C161.772 195.782 161.382 194.165 161.382 192.353C161.382 190.541 161.76 188.936 162.517 187.537C163.297 186.115 164.352 185.003 165.682 184.2C167.035 183.375 168.548 182.962 170.223 182.962C170.911 182.962 171.576 183.054 172.218 183.237C172.86 183.398 173.456 183.639 174.007 183.96C174.557 184.258 175.05 184.59 175.486 184.957C175.922 185.324 176.277 185.714 176.552 186.127C176.827 186.54 176.999 186.929 177.068 187.296L176.311 187.572V183.34H179.855V200.3C179.855 201.744 179.637 203.017 179.201 204.118C178.788 205.242 178.181 206.182 177.378 206.939C176.575 207.719 175.6 208.303 174.454 208.693C173.307 209.106 172.011 209.312 170.567 209.312ZM170.704 198.476C171.828 198.476 172.826 198.213 173.697 197.685C174.568 197.158 175.245 196.435 175.727 195.518C176.208 194.601 176.449 193.546 176.449 192.353C176.449 191.161 176.197 190.106 175.692 189.188C175.211 188.248 174.534 187.514 173.663 186.987C172.814 186.459 171.828 186.196 170.704 186.196C169.603 186.196 168.617 186.471 167.746 187.021C166.897 187.549 166.221 188.283 165.716 189.223C165.235 190.14 164.994 191.184 164.994 192.353C164.994 193.523 165.235 194.578 165.716 195.518C166.221 196.435 166.897 197.158 167.746 197.685C168.617 198.213 169.603 198.476 170.704 198.476ZM183.171 201.4V175.944H186.715V201.4H183.171ZM198.108 201.744C196.251 201.744 194.599 201.355 193.155 200.575C191.733 199.772 190.609 198.683 189.783 197.307C188.981 195.931 188.579 194.348 188.579 192.56C188.579 191.138 188.809 189.842 189.267 188.672C189.726 187.503 190.357 186.494 191.159 185.645C191.985 184.774 192.96 184.109 194.083 183.65C195.23 183.168 196.468 182.928 197.799 182.928C198.968 182.928 200.058 183.157 201.067 183.616C202.076 184.051 202.947 184.659 203.681 185.439C204.438 186.219 205.011 187.147 205.401 188.225C205.814 189.28 206.009 190.438 205.986 191.7L205.951 193.213H191.194L190.403 190.392H202.89L202.374 190.977V190.152C202.305 189.395 202.053 188.718 201.617 188.122C201.181 187.526 200.631 187.056 199.966 186.712C199.301 186.368 198.578 186.196 197.799 186.196C196.56 186.196 195.517 186.436 194.668 186.918C193.82 187.377 193.178 188.065 192.742 188.982C192.306 189.876 192.088 190.989 192.088 192.319C192.088 193.58 192.352 194.681 192.879 195.621C193.407 196.539 194.152 197.25 195.115 197.754C196.079 198.259 197.191 198.511 198.452 198.511C199.347 198.511 200.172 198.362 200.929 198.064C201.709 197.766 202.546 197.227 203.44 196.447L205.229 198.958C204.679 199.508 204.002 199.99 203.199 200.403C202.42 200.816 201.583 201.148 200.688 201.4C199.817 201.63 198.957 201.744 198.108 201.744ZM216.932 201.4V177.32H226.358C228.078 177.32 229.626 177.607 231.002 178.18C232.401 178.754 233.593 179.579 234.58 180.657C235.566 181.735 236.322 183.008 236.85 184.476C237.377 185.943 237.641 187.572 237.641 189.36C237.641 191.149 237.377 192.789 236.85 194.28C236.322 195.747 235.566 197.02 234.58 198.098C233.616 199.153 232.435 199.967 231.036 200.54C229.637 201.114 228.078 201.4 226.358 201.4H216.932ZM220.647 198.201L220.544 197.823H226.186C227.401 197.823 228.479 197.628 229.42 197.238C230.383 196.848 231.185 196.298 231.828 195.587C232.493 194.853 232.997 193.959 233.341 192.904C233.685 191.849 233.857 190.668 233.857 189.36C233.857 188.053 233.685 186.884 233.341 185.852C232.997 184.797 232.493 183.902 231.828 183.168C231.162 182.435 230.36 181.873 229.42 181.483C228.479 181.093 227.401 180.898 226.186 180.898H220.441L220.647 180.588V198.201ZM248.479 201.744C246.621 201.744 244.97 201.355 243.525 200.575C242.103 199.772 240.98 198.683 240.154 197.307C239.351 195.931 238.95 194.348 238.95 192.56C238.95 191.138 239.179 189.842 239.638 188.672C240.097 187.503 240.727 186.494 241.53 185.645C242.356 184.774 243.33 184.109 244.454 183.65C245.601 183.168 246.839 182.928 248.169 182.928C249.339 182.928 250.428 183.157 251.437 183.616C252.446 184.051 253.318 184.659 254.052 185.439C254.808 186.219 255.382 187.147 255.772 188.225C256.184 189.28 256.379 190.438 256.356 191.7L256.322 193.213H241.564L240.773 190.392H253.26L252.744 190.977V190.152C252.676 189.395 252.423 188.718 251.988 188.122C251.552 187.526 251.001 187.056 250.336 186.712C249.671 186.368 248.949 186.196 248.169 186.196C246.931 186.196 245.887 186.436 245.039 186.918C244.19 187.377 243.548 188.065 243.112 188.982C242.677 189.876 242.459 190.989 242.459 192.319C242.459 193.58 242.723 194.681 243.25 195.621C243.777 196.539 244.523 197.25 245.486 197.754C246.449 198.259 247.561 198.511 248.823 198.511C249.717 198.511 250.543 198.362 251.3 198.064C252.079 197.766 252.916 197.227 253.811 196.447L255.6 198.958C255.049 199.508 254.373 199.99 253.57 200.403C252.79 200.816 251.953 201.148 251.059 201.4C250.187 201.63 249.327 201.744 248.479 201.744ZM264.068 201.4L256.431 183.34H260.25L265.754 196.86L265.1 197.169L270.982 183.34H274.629L266.614 201.4H264.068ZM284.075 201.744C282.217 201.744 280.566 201.355 279.121 200.575C277.699 199.772 276.576 198.683 275.75 197.307C274.947 195.931 274.546 194.348 274.546 192.56C274.546 191.138 274.775 189.842 275.234 188.672C275.693 187.503 276.323 186.494 277.126 185.645C277.952 184.774 278.926 184.109 280.05 183.65C281.197 183.168 282.435 182.928 283.765 182.928C284.935 182.928 286.024 183.157 287.033 183.616C288.042 184.051 288.914 184.659 289.648 185.439C290.404 186.219 290.978 187.147 291.368 188.225C291.78 189.28 291.975 190.438 291.952 191.7L291.918 193.213H277.16L276.369 190.392H288.856L288.34 190.977V190.152C288.272 189.395 288.019 188.718 287.584 188.122C287.148 187.526 286.597 187.056 285.932 186.712C285.267 186.368 284.545 186.196 283.765 186.196C282.527 186.196 281.483 186.436 280.635 186.918C279.786 187.377 279.144 188.065 278.708 188.982C278.273 189.876 278.055 190.989 278.055 192.319C278.055 193.58 278.319 194.681 278.846 195.621C279.373 196.539 280.119 197.25 281.082 197.754C282.045 198.259 283.157 198.511 284.419 198.511C285.313 198.511 286.139 198.362 286.896 198.064C287.675 197.766 288.512 197.227 289.407 196.447L291.196 198.958C290.645 199.508 289.969 199.99 289.166 200.403C288.386 200.816 287.549 201.148 286.655 201.4C285.783 201.63 284.923 201.744 284.075 201.744ZM294.152 201.4V175.944H297.695V201.4H294.152ZM308.779 201.744C307.013 201.744 305.431 201.343 304.032 200.54C302.656 199.715 301.567 198.603 300.764 197.204C299.961 195.782 299.56 194.165 299.56 192.353C299.56 190.541 299.961 188.936 300.764 187.537C301.567 186.115 302.656 185.003 304.032 184.2C305.431 183.375 307.013 182.962 308.779 182.962C310.522 182.962 312.082 183.375 313.458 184.2C314.857 185.003 315.957 186.115 316.76 187.537C317.563 188.936 317.964 190.541 317.964 192.353C317.964 194.165 317.563 195.782 316.76 197.204C315.957 198.603 314.857 199.715 313.458 200.54C312.082 201.343 310.522 201.744 308.779 201.744ZM308.779 198.511C309.857 198.511 310.82 198.247 311.669 197.72C312.517 197.169 313.182 196.435 313.664 195.518C314.146 194.578 314.375 193.523 314.352 192.353C314.375 191.161 314.146 190.106 313.664 189.188C313.182 188.248 312.517 187.514 311.669 186.987C310.82 186.459 309.857 186.196 308.779 186.196C307.701 186.196 306.727 186.471 305.855 187.021C305.007 187.549 304.342 188.283 303.86 189.223C303.378 190.14 303.149 191.184 303.172 192.353C303.149 193.523 303.378 194.578 303.86 195.518C304.342 196.435 305.007 197.169 305.855 197.72C306.727 198.247 307.701 198.511 308.779 198.511ZM320.105 208.968V183.34H323.682V187.468L323.132 187.159C323.27 186.471 323.66 185.817 324.302 185.198C324.944 184.556 325.724 184.04 326.641 183.65C327.581 183.237 328.544 183.031 329.53 183.031C331.159 183.031 332.604 183.432 333.865 184.235C335.126 185.037 336.124 186.138 336.858 187.537C337.592 188.936 337.959 190.541 337.959 192.353C337.959 194.142 337.592 195.747 336.858 197.169C336.147 198.568 335.161 199.68 333.899 200.506C332.638 201.309 331.216 201.71 329.634 201.71C328.579 201.71 327.558 201.504 326.572 201.091C325.586 200.655 324.749 200.105 324.061 199.44C323.373 198.775 322.949 198.087 322.788 197.376L323.682 196.894V208.968H320.105ZM329.049 198.442C330.104 198.442 331.044 198.178 331.87 197.651C332.695 197.123 333.349 196.401 333.831 195.484C334.312 194.566 334.553 193.523 334.553 192.353C334.553 191.184 334.312 190.152 333.831 189.257C333.372 188.34 332.73 187.617 331.904 187.09C331.079 186.563 330.127 186.299 329.049 186.299C327.971 186.299 327.019 186.563 326.194 187.09C325.368 187.595 324.714 188.305 324.233 189.223C323.751 190.14 323.51 191.184 323.51 192.353C323.51 193.523 323.751 194.566 324.233 195.484C324.714 196.401 325.368 197.123 326.194 197.651C327.019 198.178 327.971 198.442 329.049 198.442ZM348.515 201.744C346.657 201.744 345.006 201.355 343.561 200.575C342.139 199.772 341.015 198.683 340.19 197.307C339.387 195.931 338.986 194.348 338.986 192.56C338.986 191.138 339.215 189.842 339.674 188.672C340.132 187.503 340.763 186.494 341.566 185.645C342.391 184.774 343.366 184.109 344.49 183.65C345.636 183.168 346.875 182.928 348.205 182.928C349.375 182.928 350.464 183.157 351.473 183.616C352.482 184.051 353.353 184.659 354.087 185.439C354.844 186.219 355.417 187.147 355.807 188.225C356.22 189.28 356.415 190.438 356.392 191.7L356.358 193.213H341.6L340.809 190.392H353.296L352.78 190.977V190.152C352.711 189.395 352.459 188.718 352.023 188.122C351.588 187.526 351.037 187.056 350.372 186.712C349.707 186.368 348.985 186.196 348.205 186.196C346.967 186.196 345.923 186.436 345.074 186.918C344.226 187.377 343.584 188.065 343.148 188.982C342.712 189.876 342.494 190.989 342.494 192.319C342.494 193.58 342.758 194.681 343.286 195.621C343.813 196.539 344.558 197.25 345.522 197.754C346.485 198.259 347.597 198.511 348.859 198.511C349.753 198.511 350.579 198.362 351.335 198.064C352.115 197.766 352.952 197.227 353.847 196.447L355.635 198.958C355.085 199.508 354.408 199.99 353.606 200.403C352.826 200.816 351.989 201.148 351.095 201.4C350.223 201.63 349.363 201.744 348.515 201.744ZM358.523 201.4V183.34H362.1V189.016L361.756 187.64C362.009 186.769 362.433 185.978 363.029 185.267C363.648 184.556 364.348 183.994 365.128 183.581C365.93 183.168 366.756 182.962 367.604 182.962C367.994 182.962 368.361 182.996 368.705 183.065C369.072 183.134 369.359 183.214 369.565 183.306L368.636 187.159C368.361 187.044 368.052 186.952 367.708 186.884C367.387 186.792 367.065 186.746 366.744 186.746C366.125 186.746 365.529 186.872 364.956 187.124C364.405 187.354 363.912 187.686 363.476 188.122C363.064 188.535 362.731 189.028 362.479 189.601C362.227 190.152 362.1 190.759 362.1 191.424V201.4H358.523ZM390.26 201.744C388.517 201.744 386.889 201.435 385.375 200.816C383.862 200.174 382.532 199.291 381.385 198.167C380.238 197.043 379.344 195.736 378.702 194.245C378.082 192.732 377.773 191.103 377.773 189.36C377.773 187.64 378.082 186.035 378.702 184.544C379.344 183.054 380.227 181.758 381.35 180.657C382.497 179.533 383.827 178.662 385.341 178.043C386.855 177.424 388.483 177.114 390.226 177.114C391.441 177.114 392.622 177.286 393.769 177.63C394.939 177.974 395.993 178.456 396.934 179.075C397.874 179.694 398.642 180.405 399.239 181.208L396.831 183.719C396.143 183.054 395.432 182.503 394.698 182.068C393.987 181.632 393.253 181.299 392.496 181.07C391.739 180.841 390.983 180.726 390.226 180.726C388.987 180.726 387.841 180.944 386.786 181.38C385.754 181.815 384.836 182.423 384.034 183.203C383.254 183.983 382.646 184.9 382.21 185.955C381.775 186.987 381.557 188.122 381.557 189.36C381.557 190.553 381.786 191.688 382.245 192.766C382.704 193.821 383.334 194.75 384.137 195.552C384.962 196.355 385.903 196.986 386.958 197.444C388.036 197.903 389.171 198.132 390.363 198.132C391.258 198.132 392.106 198.006 392.909 197.754C393.712 197.479 394.423 197.1 395.042 196.619C395.661 196.137 396.143 195.587 396.487 194.968C396.831 194.325 397.003 193.649 397.003 192.938V192.25L397.519 192.732H390.157V189.051H400.821C400.867 189.303 400.901 189.555 400.924 189.808C400.947 190.037 400.959 190.266 400.959 190.496C400.981 190.702 400.993 190.908 400.993 191.115C400.993 192.697 400.718 194.142 400.167 195.449C399.617 196.734 398.849 197.846 397.863 198.786C396.899 199.726 395.764 200.46 394.457 200.988C393.173 201.492 391.774 201.744 390.26 201.744ZM403.216 201.4V183.34H406.794V189.016L406.45 187.64C406.702 186.769 407.126 185.978 407.722 185.267C408.342 184.556 409.041 183.994 409.821 183.581C410.624 183.168 411.449 182.962 412.298 182.962C412.688 182.962 413.054 182.996 413.398 183.065C413.765 183.134 414.052 183.214 414.258 183.306L413.33 187.159C413.054 187.044 412.745 186.952 412.401 186.884C412.08 186.792 411.759 186.746 411.438 186.746C410.818 186.746 410.222 186.872 409.649 187.124C409.098 187.354 408.605 187.686 408.17 188.122C407.757 188.535 407.424 189.028 407.172 189.601C406.92 190.152 406.794 190.759 406.794 191.424V201.4H403.216ZM422.716 201.744C420.95 201.744 419.368 201.343 417.969 200.54C416.593 199.715 415.503 198.603 414.701 197.204C413.898 195.782 413.497 194.165 413.497 192.353C413.497 190.541 413.898 188.936 414.701 187.537C415.503 186.115 416.593 185.003 417.969 184.2C419.368 183.375 420.95 182.962 422.716 182.962C424.459 182.962 426.018 183.375 427.394 184.2C428.793 185.003 429.894 186.115 430.697 187.537C431.5 188.936 431.901 190.541 431.901 192.353C431.901 194.165 431.5 195.782 430.697 197.204C429.894 198.603 428.793 199.715 427.394 200.54C426.018 201.343 424.459 201.744 422.716 201.744ZM422.716 198.511C423.794 198.511 424.757 198.247 425.606 197.72C426.454 197.169 427.119 196.435 427.601 195.518C428.082 194.578 428.312 193.523 428.289 192.353C428.312 191.161 428.082 190.106 427.601 189.188C427.119 188.248 426.454 187.514 425.606 186.987C424.757 186.459 423.794 186.196 422.716 186.196C421.638 186.196 420.664 186.471 419.792 187.021C418.944 187.549 418.278 188.283 417.797 189.223C417.315 190.14 417.086 191.184 417.109 192.353C417.086 193.523 417.315 194.578 417.797 195.518C418.278 196.435 418.944 197.169 419.792 197.72C420.664 198.247 421.638 198.511 422.716 198.511ZM440.371 201.744C439.087 201.744 437.963 201.446 437 200.85C436.06 200.254 435.326 199.417 434.799 198.339C434.294 197.261 434.042 195.977 434.042 194.486V183.34H437.585V193.523C437.585 194.578 437.745 195.495 438.067 196.275C438.411 197.032 438.892 197.616 439.511 198.029C440.153 198.442 440.922 198.648 441.816 198.648C442.481 198.648 443.089 198.545 443.639 198.339C444.19 198.11 444.66 197.8 445.05 197.41C445.463 197.02 445.784 196.55 446.013 196C446.242 195.449 446.357 194.853 446.357 194.211V183.34H449.9V201.4H446.357V197.616L446.976 197.204C446.701 198.052 446.231 198.82 445.566 199.508C444.924 200.196 444.155 200.747 443.261 201.16C442.367 201.55 441.403 201.744 440.371 201.744ZM453.15 208.968V183.34H456.728V187.468L456.177 187.159C456.315 186.471 456.705 185.817 457.347 185.198C457.989 184.556 458.769 184.04 459.686 183.65C460.626 183.237 461.589 183.031 462.576 183.031C464.204 183.031 465.649 183.432 466.91 184.235C468.171 185.037 469.169 186.138 469.903 187.537C470.637 188.936 471.004 190.541 471.004 192.353C471.004 194.142 470.637 195.747 469.903 197.169C469.192 198.568 468.206 199.68 466.944 200.506C465.683 201.309 464.261 201.71 462.679 201.71C461.624 201.71 460.603 201.504 459.617 201.091C458.631 200.655 457.794 200.105 457.106 199.44C456.418 198.775 455.994 198.087 455.833 197.376L456.728 196.894V208.968H453.15ZM462.094 198.442C463.149 198.442 464.089 198.178 464.915 197.651C465.74 197.123 466.394 196.401 466.876 195.484C467.357 194.566 467.598 193.523 467.598 192.353C467.598 191.184 467.357 190.152 466.876 189.257C466.417 188.34 465.775 187.617 464.949 187.09C464.124 186.563 463.172 186.299 462.094 186.299C461.016 186.299 460.064 186.563 459.239 187.09C458.413 187.595 457.76 188.305 457.278 189.223C456.796 190.14 456.556 191.184 456.556 192.353C456.556 193.523 456.796 194.566 457.278 195.484C457.76 196.401 458.413 197.123 459.239 197.651C460.064 198.178 461.016 198.442 462.094 198.442ZM479.152 201.744C477.638 201.744 476.273 201.481 475.058 200.953C473.842 200.426 472.833 199.646 472.031 198.614L474.439 196.55C475.127 197.353 475.872 197.938 476.675 198.304C477.5 198.648 478.429 198.82 479.461 198.82C479.874 198.82 480.252 198.775 480.596 198.683C480.963 198.568 481.273 198.408 481.525 198.201C481.8 197.995 482.007 197.754 482.144 197.479C482.282 197.181 482.351 196.86 482.351 196.516C482.351 195.919 482.133 195.438 481.697 195.071C481.468 194.91 481.101 194.738 480.596 194.555C480.115 194.348 479.484 194.142 478.704 193.936C477.374 193.592 476.285 193.202 475.436 192.766C474.588 192.33 473.934 191.837 473.476 191.287C473.132 190.851 472.879 190.381 472.719 189.876C472.558 189.349 472.478 188.776 472.478 188.156C472.478 187.4 472.638 186.712 472.96 186.092C473.304 185.45 473.762 184.9 474.336 184.441C474.932 183.96 475.62 183.593 476.4 183.34C477.202 183.088 478.051 182.962 478.945 182.962C479.794 182.962 480.631 183.077 481.456 183.306C482.305 183.535 483.085 183.868 483.796 184.304C484.506 184.739 485.103 185.255 485.584 185.852L483.555 188.088C483.119 187.652 482.637 187.273 482.11 186.952C481.605 186.608 481.089 186.345 480.562 186.161C480.034 185.978 479.553 185.886 479.117 185.886C478.636 185.886 478.2 185.932 477.81 186.024C477.42 186.115 477.088 186.253 476.812 186.436C476.56 186.62 476.365 186.849 476.228 187.124C476.09 187.4 476.021 187.709 476.021 188.053C476.044 188.351 476.113 188.638 476.228 188.913C476.365 189.165 476.549 189.383 476.778 189.567C477.03 189.75 477.409 189.945 477.913 190.152C478.418 190.358 479.06 190.553 479.84 190.736C480.986 191.035 481.926 191.367 482.66 191.734C483.417 192.078 484.013 192.479 484.449 192.938C484.908 193.374 485.229 193.878 485.412 194.452C485.596 195.025 485.688 195.667 485.688 196.378C485.688 197.41 485.389 198.339 484.793 199.164C484.22 199.967 483.44 200.598 482.454 201.056C481.468 201.515 480.367 201.744 479.152 201.744Z" fill="#666666"/>
<path d="M137.284 226.56C136.494 226.56 135.764 226.416 135.092 226.128C134.43 225.84 133.849 225.44 133.348 224.928C132.857 224.406 132.473 223.798 132.196 223.104C131.929 222.4 131.796 221.632 131.796 220.8C131.796 219.968 131.929 219.206 132.196 218.512C132.473 217.808 132.857 217.2 133.348 216.688C133.849 216.166 134.43 215.76 135.092 215.472C135.764 215.184 136.494 215.04 137.284 215.04C138.073 215.04 138.798 215.184 139.46 215.472C140.132 215.76 140.713 216.166 141.204 216.688C141.705 217.211 142.089 217.824 142.356 218.528C142.633 219.222 142.772 219.979 142.772 220.8C142.772 221.622 142.633 222.384 142.356 223.088C142.089 223.782 141.705 224.39 141.204 224.912C140.713 225.435 140.132 225.84 139.46 226.128C138.798 226.416 138.073 226.56 137.284 226.56ZM137.284 224.88C137.828 224.88 138.324 224.779 138.772 224.576C139.23 224.374 139.625 224.091 139.956 223.728C140.286 223.355 140.542 222.923 140.724 222.432C140.916 221.931 141.012 221.387 141.012 220.8C141.012 220.214 140.916 219.675 140.724 219.184C140.542 218.683 140.286 218.251 139.956 217.888C139.625 217.515 139.23 217.227 138.772 217.024C138.324 216.822 137.828 216.72 137.284 216.72C136.74 216.72 136.238 216.822 135.78 217.024C135.332 217.227 134.937 217.51 134.596 217.872C134.265 218.235 134.009 218.667 133.828 219.168C133.646 219.659 133.556 220.203 133.556 220.8C133.556 221.387 133.646 221.931 133.828 222.432C134.009 222.934 134.265 223.366 134.596 223.728C134.937 224.091 135.332 224.374 135.78 224.576C136.238 224.779 136.74 224.88 137.284 224.88ZM143.895 226.4V218H145.543V219.728L145.255 219.92C145.362 219.547 145.57 219.206 145.879 218.896C146.189 218.576 146.557 218.32 146.983 218.128C147.41 217.926 147.847 217.824 148.295 217.824C148.935 217.824 149.469 217.952 149.895 218.208C150.322 218.454 150.642 218.832 150.855 219.344C151.069 219.856 151.175 220.502 151.175 221.28V226.4H149.527V221.392C149.527 220.912 149.463 220.518 149.335 220.208C149.207 219.888 149.01 219.659 148.743 219.52C148.477 219.371 148.146 219.307 147.751 219.328C147.431 219.328 147.138 219.382 146.871 219.488C146.605 219.584 146.37 219.723 146.167 219.904C145.975 220.086 145.821 220.299 145.703 220.544C145.597 220.779 145.543 221.035 145.543 221.312V226.4H144.727C144.589 226.4 144.45 226.4 144.311 226.4C144.173 226.4 144.034 226.4 143.895 226.4ZM161.255 226.56C160.477 226.56 159.762 226.422 159.111 226.144C158.461 225.867 157.895 225.472 157.415 224.96C156.935 224.438 156.562 223.824 156.295 223.12C156.039 222.416 155.911 221.643 155.911 220.8C155.911 220 156.05 219.259 156.327 218.576C156.615 217.883 157.01 217.275 157.511 216.752C158.013 216.23 158.594 215.824 159.255 215.536C159.917 215.248 160.631 215.104 161.399 215.104C161.943 215.104 162.471 215.19 162.983 215.36C163.506 215.52 163.975 215.75 164.391 216.048C164.818 216.336 165.165 216.667 165.431 217.04L164.279 218.24C163.97 217.931 163.655 217.675 163.335 217.472C163.026 217.259 162.706 217.099 162.375 216.992C162.055 216.886 161.73 216.832 161.399 216.832C160.877 216.832 160.386 216.934 159.927 217.136C159.479 217.328 159.085 217.6 158.743 217.952C158.413 218.304 158.151 218.726 157.959 219.216C157.767 219.696 157.671 220.224 157.671 220.8C157.671 221.408 157.762 221.963 157.943 222.464C158.135 222.955 158.402 223.376 158.743 223.728C159.085 224.08 159.49 224.352 159.959 224.544C160.439 224.726 160.967 224.816 161.543 224.816C161.895 224.816 162.242 224.768 162.583 224.672C162.925 224.576 163.245 224.438 163.543 224.256C163.842 224.075 164.114 223.862 164.359 223.616L165.223 225.024C164.978 225.312 164.642 225.574 164.215 225.808C163.799 226.043 163.33 226.23 162.807 226.368C162.295 226.496 161.778 226.56 161.255 226.56ZM169.587 226.56C168.893 226.56 168.259 226.368 167.683 225.984C167.117 225.6 166.664 225.078 166.323 224.416C165.981 223.755 165.811 223.008 165.811 222.176C165.811 221.334 165.981 220.587 166.323 219.936C166.675 219.275 167.144 218.758 167.731 218.384C168.328 218.011 168.995 217.824 169.731 217.824C170.168 217.824 170.568 217.888 170.931 218.016C171.293 218.144 171.608 218.326 171.875 218.56C172.152 218.784 172.376 219.046 172.547 219.344C172.728 219.643 172.84 219.963 172.883 220.304L172.515 220.176V218H174.179V226.4H172.515V224.4L172.899 224.288C172.835 224.576 172.701 224.859 172.499 225.136C172.307 225.403 172.056 225.643 171.747 225.856C171.448 226.07 171.112 226.24 170.739 226.368C170.376 226.496 169.992 226.56 169.587 226.56ZM170.019 225.04C170.52 225.04 170.963 224.918 171.347 224.672C171.731 224.427 172.029 224.091 172.243 223.664C172.467 223.227 172.579 222.731 172.579 222.176C172.579 221.632 172.467 221.147 172.243 220.72C172.029 220.294 171.731 219.958 171.347 219.712C170.963 219.467 170.52 219.344 170.019 219.344C169.528 219.344 169.091 219.467 168.707 219.712C168.333 219.958 168.035 220.294 167.811 220.72C167.597 221.147 167.491 221.632 167.491 222.176C167.491 222.731 167.597 223.227 167.811 223.664C168.035 224.091 168.333 224.427 168.707 224.672C169.091 224.918 169.528 225.04 170.019 225.04ZM175.648 226.4V218H177.312V219.792L177.008 219.984C177.093 219.707 177.226 219.44 177.408 219.184C177.6 218.928 177.829 218.704 178.096 218.512C178.373 218.31 178.666 218.15 178.976 218.032C179.296 217.915 179.621 217.856 179.952 217.856C180.432 217.856 180.853 217.936 181.216 218.096C181.578 218.256 181.877 218.496 182.112 218.816C182.346 219.136 182.517 219.536 182.624 220.016L182.368 219.952L182.48 219.68C182.597 219.435 182.757 219.206 182.96 218.992C183.173 218.768 183.413 218.571 183.68 218.4C183.947 218.23 184.229 218.096 184.528 218C184.827 217.904 185.12 217.856 185.408 217.856C186.037 217.856 186.555 217.984 186.96 218.24C187.376 218.496 187.685 218.886 187.888 219.408C188.101 219.931 188.208 220.582 188.208 221.36V226.4H186.544V221.456C186.544 220.976 186.48 220.587 186.352 220.288C186.235 219.979 186.053 219.75 185.808 219.6C185.563 219.451 185.248 219.376 184.864 219.376C184.565 219.376 184.283 219.43 184.016 219.536C183.76 219.632 183.536 219.771 183.344 219.952C183.152 220.134 183.002 220.347 182.896 220.592C182.789 220.827 182.736 221.088 182.736 221.376V226.4H181.072V221.424C181.072 220.987 181.008 220.619 180.88 220.32C180.752 220.011 180.565 219.776 180.32 219.616C180.074 219.456 179.776 219.376 179.424 219.376C179.125 219.376 178.848 219.43 178.592 219.536C178.336 219.632 178.112 219.771 177.92 219.952C177.728 220.123 177.578 220.331 177.472 220.576C177.365 220.811 177.312 221.067 177.312 221.344V226.4H175.648ZM189.614 229.92V218H191.278V219.92L191.022 219.776C191.086 219.456 191.268 219.152 191.566 218.864C191.865 218.566 192.228 218.326 192.654 218.144C193.092 217.952 193.54 217.856 193.998 217.856C194.756 217.856 195.428 218.043 196.014 218.416C196.601 218.79 197.065 219.302 197.406 219.952C197.748 220.603 197.918 221.35 197.918 222.192C197.918 223.024 197.748 223.771 197.406 224.432C197.076 225.083 196.617 225.6 196.03 225.984C195.444 226.358 194.782 226.544 194.046 226.544C193.556 226.544 193.081 226.448 192.622 226.256C192.164 226.054 191.774 225.798 191.454 225.488C191.134 225.179 190.937 224.859 190.862 224.528L191.278 224.304V229.92H189.614ZM193.774 225.024C194.265 225.024 194.702 224.902 195.086 224.656C195.47 224.411 195.774 224.075 195.998 223.648C196.222 223.222 196.334 222.736 196.334 222.192C196.334 221.648 196.222 221.168 195.998 220.752C195.785 220.326 195.486 219.99 195.102 219.744C194.718 219.499 194.276 219.376 193.774 219.376C193.273 219.376 192.83 219.499 192.446 219.744C192.062 219.979 191.758 220.31 191.534 220.736C191.31 221.163 191.198 221.648 191.198 222.192C191.198 222.736 191.31 223.222 191.534 223.648C191.758 224.075 192.062 224.411 192.446 224.656C192.83 224.902 193.273 225.024 193.774 225.024ZM201.852 226.56C201.255 226.56 200.732 226.422 200.284 226.144C199.847 225.867 199.505 225.478 199.26 224.976C199.025 224.475 198.908 223.878 198.908 223.184V218H200.556V222.736C200.556 223.227 200.631 223.654 200.78 224.016C200.94 224.368 201.164 224.64 201.452 224.832C201.751 225.024 202.108 225.12 202.524 225.12C202.833 225.12 203.116 225.072 203.372 224.976C203.628 224.87 203.847 224.726 204.028 224.544C204.22 224.363 204.369 224.144 204.476 223.888C204.583 223.632 204.636 223.355 204.636 223.056V218H206.284V226.4H204.636V224.64L204.924 224.448C204.796 224.843 204.577 225.2 204.268 225.52C203.969 225.84 203.612 226.096 203.196 226.288C202.78 226.47 202.332 226.56 201.852 226.56ZM210.596 226.56C209.892 226.56 209.257 226.438 208.692 226.192C208.126 225.947 207.657 225.584 207.284 225.104L208.404 224.144C208.724 224.518 209.07 224.79 209.444 224.96C209.828 225.12 210.26 225.2 210.74 225.2C210.932 225.2 211.108 225.179 211.268 225.136C211.438 225.083 211.582 225.008 211.7 224.912C211.828 224.816 211.924 224.704 211.988 224.576C212.052 224.438 212.084 224.288 212.084 224.128C212.084 223.851 211.982 223.627 211.78 223.456C211.673 223.382 211.502 223.302 211.268 223.216C211.044 223.12 210.75 223.024 210.388 222.928C209.769 222.768 209.262 222.587 208.868 222.384C208.473 222.182 208.169 221.952 207.956 221.696C207.796 221.494 207.678 221.275 207.604 221.04C207.529 220.795 207.492 220.528 207.492 220.24C207.492 219.888 207.566 219.568 207.716 219.28C207.876 218.982 208.089 218.726 208.356 218.512C208.633 218.288 208.953 218.118 209.316 218C209.689 217.883 210.084 217.824 210.5 217.824C210.894 217.824 211.284 217.878 211.668 217.984C212.062 218.091 212.425 218.246 212.756 218.448C213.086 218.651 213.364 218.891 213.588 219.168L212.644 220.208C212.441 220.006 212.217 219.83 211.972 219.68C211.737 219.52 211.497 219.398 211.252 219.312C211.006 219.227 210.782 219.184 210.58 219.184C210.356 219.184 210.153 219.206 209.972 219.248C209.79 219.291 209.636 219.355 209.508 219.44C209.39 219.526 209.3 219.632 209.236 219.76C209.172 219.888 209.14 220.032 209.14 220.192C209.15 220.331 209.182 220.464 209.236 220.592C209.3 220.71 209.385 220.811 209.492 220.896C209.609 220.982 209.785 221.072 210.02 221.168C210.254 221.264 210.553 221.355 210.916 221.44C211.449 221.579 211.886 221.734 212.228 221.904C212.58 222.064 212.857 222.251 213.06 222.464C213.273 222.667 213.422 222.902 213.508 223.168C213.593 223.435 213.636 223.734 213.636 224.064C213.636 224.544 213.497 224.976 213.22 225.36C212.953 225.734 212.59 226.027 212.132 226.24C211.673 226.454 211.161 226.56 210.596 226.56Z" fill="#609CFF"/>
<path d="M219.952 222.944C219.558 222.944 219.195 222.848 218.864 222.656C218.534 222.464 218.267 222.203 218.064 221.872C217.872 221.542 217.776 221.179 217.776 220.784C217.776 220.379 217.872 220.011 218.064 219.68C218.256 219.35 218.518 219.088 218.848 218.896C219.179 218.694 219.547 218.592 219.952 218.592C220.358 218.592 220.726 218.694 221.056 218.896C221.387 219.088 221.648 219.35 221.84 219.68C222.043 220.011 222.144 220.379 222.144 220.784C222.144 221.179 222.043 221.542 221.84 221.872C221.648 222.203 221.387 222.464 221.056 222.656C220.726 222.848 220.358 222.944 219.952 222.944ZM234.48 226.4V215.2H236.208V226.4H234.48ZM227.168 226.4V215.2H228.896V226.4H227.168ZM227.92 221.648V219.984H235.248V221.648H227.92ZM242.044 226.56C241.18 226.56 240.412 226.379 239.74 226.016C239.078 225.643 238.556 225.136 238.172 224.496C237.798 223.856 237.612 223.12 237.612 222.288C237.612 221.627 237.718 221.024 237.932 220.48C238.145 219.936 238.438 219.467 238.812 219.072C239.196 218.667 239.649 218.358 240.172 218.144C240.705 217.92 241.281 217.808 241.9 217.808C242.444 217.808 242.95 217.915 243.42 218.128C243.889 218.331 244.294 218.614 244.636 218.976C244.988 219.339 245.254 219.771 245.436 220.272C245.628 220.763 245.718 221.302 245.708 221.888L245.692 222.592H238.828L238.46 221.28H244.268L244.028 221.552V221.168C243.996 220.816 243.878 220.502 243.676 220.224C243.473 219.947 243.217 219.728 242.908 219.568C242.598 219.408 242.262 219.328 241.9 219.328C241.324 219.328 240.838 219.44 240.444 219.664C240.049 219.878 239.75 220.198 239.548 220.624C239.345 221.04 239.244 221.558 239.244 222.176C239.244 222.763 239.366 223.275 239.612 223.712C239.857 224.139 240.204 224.47 240.652 224.704C241.1 224.939 241.617 225.056 242.204 225.056C242.62 225.056 243.004 224.987 243.356 224.848C243.718 224.71 244.108 224.459 244.524 224.096L245.356 225.264C245.1 225.52 244.785 225.744 244.412 225.936C244.049 226.128 243.66 226.283 243.244 226.4C242.838 226.507 242.438 226.56 242.044 226.56ZM246.699 226.4V218H248.363V220.64L248.203 220C248.32 219.595 248.517 219.227 248.795 218.896C249.083 218.566 249.408 218.304 249.771 218.112C250.144 217.92 250.528 217.824 250.923 217.824C251.104 217.824 251.275 217.84 251.435 217.872C251.605 217.904 251.739 217.942 251.835 217.984L251.403 219.776C251.275 219.723 251.131 219.68 250.971 219.648C250.821 219.606 250.672 219.584 250.523 219.584C250.235 219.584 249.957 219.643 249.691 219.76C249.435 219.867 249.205 220.022 249.003 220.224C248.811 220.416 248.656 220.646 248.539 220.912C248.421 221.168 248.363 221.451 248.363 221.76V226.4H246.699ZM252.624 226.4V218H254.272V226.4H252.624ZM253.424 216.144C253.072 216.144 252.8 216.054 252.608 215.872C252.416 215.691 252.32 215.435 252.32 215.104C252.32 214.795 252.416 214.544 252.608 214.352C252.811 214.16 253.083 214.064 253.424 214.064C253.776 214.064 254.048 214.155 254.24 214.336C254.432 214.518 254.528 214.774 254.528 215.104C254.528 215.414 254.427 215.664 254.224 215.856C254.032 216.048 253.765 216.144 253.424 216.144ZM257.045 226.4V215.856H258.693V226.4H257.045ZM255.301 219.6V218H260.645V219.6H255.301ZM264.5 226.56C263.806 226.56 263.172 226.368 262.596 225.984C262.03 225.6 261.577 225.078 261.236 224.416C260.894 223.755 260.724 223.008 260.724 222.176C260.724 221.334 260.894 220.587 261.236 219.936C261.588 219.275 262.057 218.758 262.644 218.384C263.241 218.011 263.908 217.824 264.644 217.824C265.081 217.824 265.481 217.888 265.844 218.016C266.206 218.144 266.521 218.326 266.788 218.56C267.065 218.784 267.289 219.046 267.46 219.344C267.641 219.643 267.753 219.963 267.796 220.304L267.428 220.176V218H269.092V226.4H267.428V224.4L267.812 224.288C267.748 224.576 267.614 224.859 267.412 225.136C267.22 225.403 266.969 225.643 266.66 225.856C266.361 226.07 266.025 226.24 265.652 226.368C265.289 226.496 264.905 226.56 264.5 226.56ZM264.932 225.04C265.433 225.04 265.876 224.918 266.26 224.672C266.644 224.427 266.942 224.091 267.156 223.664C267.38 223.227 267.492 222.731 267.492 222.176C267.492 221.632 267.38 221.147 267.156 220.72C266.942 220.294 266.644 219.958 266.26 219.712C265.876 219.467 265.433 219.344 264.932 219.344C264.441 219.344 264.004 219.467 263.62 219.712C263.246 219.958 262.948 220.294 262.724 220.72C262.51 221.147 262.404 221.632 262.404 222.176C262.404 222.731 262.51 223.227 262.724 223.664C262.948 224.091 263.246 224.427 263.62 224.672C264.004 224.918 264.441 225.04 264.932 225.04ZM274.353 230.08C273.755 230.08 273.158 229.984 272.561 229.792C271.974 229.611 271.499 229.371 271.137 229.072L271.745 227.792C271.958 227.952 272.209 228.091 272.497 228.208C272.785 228.336 273.089 228.432 273.409 228.496C273.729 228.571 274.043 228.608 274.353 228.608C274.939 228.608 275.43 228.512 275.825 228.32C276.219 228.128 276.518 227.846 276.721 227.472C276.923 227.099 277.025 226.635 277.025 226.08V224.464L277.201 224.576C277.147 224.907 276.971 225.227 276.673 225.536C276.385 225.835 276.022 226.08 275.585 226.272C275.147 226.464 274.699 226.56 274.241 226.56C273.441 226.56 272.726 226.374 272.097 226C271.478 225.616 270.987 225.099 270.625 224.448C270.262 223.787 270.081 223.035 270.081 222.192C270.081 221.35 270.257 220.603 270.609 219.952C270.971 219.291 271.462 218.774 272.081 218.4C272.71 218.016 273.414 217.824 274.193 217.824C274.513 217.824 274.822 217.867 275.121 217.952C275.419 218.027 275.697 218.139 275.953 218.288C276.209 218.427 276.438 218.582 276.641 218.752C276.843 218.923 277.009 219.104 277.137 219.296C277.265 219.488 277.345 219.67 277.377 219.84L277.025 219.968V218H278.673V225.888C278.673 226.56 278.571 227.152 278.369 227.664C278.177 228.187 277.894 228.624 277.521 228.976C277.147 229.339 276.694 229.611 276.161 229.792C275.627 229.984 275.025 230.08 274.353 230.08ZM274.417 225.04C274.939 225.04 275.403 224.918 275.809 224.672C276.214 224.427 276.529 224.091 276.753 223.664C276.977 223.238 277.089 222.747 277.089 222.192C277.089 221.638 276.971 221.147 276.737 220.72C276.513 220.283 276.198 219.942 275.793 219.696C275.398 219.451 274.939 219.328 274.417 219.328C273.905 219.328 273.446 219.456 273.041 219.712C272.646 219.958 272.331 220.299 272.097 220.736C271.873 221.163 271.761 221.648 271.761 222.192C271.761 222.736 271.873 223.227 272.097 223.664C272.331 224.091 272.646 224.427 273.041 224.672C273.446 224.918 273.905 225.04 274.417 225.04ZM284.103 226.56C283.239 226.56 282.471 226.379 281.799 226.016C281.138 225.643 280.615 225.136 280.231 224.496C279.858 223.856 279.671 223.12 279.671 222.288C279.671 221.627 279.778 221.024 279.991 220.48C280.205 219.936 280.498 219.467 280.871 219.072C281.255 218.667 281.709 218.358 282.231 218.144C282.765 217.92 283.341 217.808 283.959 217.808C284.503 217.808 285.01 217.915 285.479 218.128C285.949 218.331 286.354 218.614 286.695 218.976C287.047 219.339 287.314 219.771 287.495 220.272C287.687 220.763 287.778 221.302 287.767 221.888L287.751 222.592H280.887L280.519 221.28H286.327L286.087 221.552V221.168C286.055 220.816 285.938 220.502 285.735 220.224C285.533 219.947 285.277 219.728 284.967 219.568C284.658 219.408 284.322 219.328 283.959 219.328C283.383 219.328 282.898 219.44 282.503 219.664C282.109 219.878 281.81 220.198 281.607 220.624C281.405 221.04 281.303 221.558 281.303 222.176C281.303 222.763 281.426 223.275 281.671 223.712C281.917 224.139 282.263 224.47 282.711 224.704C283.159 224.939 283.677 225.056 284.263 225.056C284.679 225.056 285.063 224.987 285.415 224.848C285.778 224.71 286.167 224.459 286.583 224.096L287.415 225.264C287.159 225.52 286.845 225.744 286.471 225.936C286.109 226.128 285.719 226.283 285.303 226.4C284.898 226.507 284.498 226.56 284.103 226.56ZM292.443 226.4V224.8H294.251V216.8H292.443V215.2H297.787V216.8H295.979V224.8H297.787V226.4H292.443ZM299.283 226.4V218H300.931V219.728L300.643 219.92C300.75 219.547 300.958 219.206 301.267 218.896C301.577 218.576 301.945 218.32 302.371 218.128C302.798 217.926 303.235 217.824 303.683 217.824C304.323 217.824 304.857 217.952 305.283 218.208C305.71 218.454 306.03 218.832 306.243 219.344C306.457 219.856 306.563 220.502 306.563 221.28V226.4H304.915V221.392C304.915 220.912 304.851 220.518 304.723 220.208C304.595 219.888 304.398 219.659 304.131 219.52C303.865 219.371 303.534 219.307 303.139 219.328C302.819 219.328 302.526 219.382 302.259 219.488C301.993 219.584 301.758 219.723 301.555 219.904C301.363 220.086 301.209 220.299 301.091 220.544C300.985 220.779 300.931 221.035 300.931 221.312V226.4H300.115C299.977 226.4 299.838 226.4 299.699 226.4C299.561 226.4 299.422 226.4 299.283 226.4ZM310.799 226.56C310.095 226.56 309.46 226.438 308.895 226.192C308.33 225.947 307.86 225.584 307.487 225.104L308.607 224.144C308.927 224.518 309.274 224.79 309.647 224.96C310.031 225.12 310.463 225.2 310.943 225.2C311.135 225.2 311.311 225.179 311.471 225.136C311.642 225.083 311.786 225.008 311.903 224.912C312.031 224.816 312.127 224.704 312.191 224.576C312.255 224.438 312.287 224.288 312.287 224.128C312.287 223.851 312.186 223.627 311.983 223.456C311.876 223.382 311.706 223.302 311.471 223.216C311.247 223.12 310.954 223.024 310.591 222.928C309.972 222.768 309.466 222.587 309.071 222.384C308.676 222.182 308.372 221.952 308.159 221.696C307.999 221.494 307.882 221.275 307.807 221.04C307.732 220.795 307.695 220.528 307.695 220.24C307.695 219.888 307.77 219.568 307.919 219.28C308.079 218.982 308.292 218.726 308.559 218.512C308.836 218.288 309.156 218.118 309.519 218C309.892 217.883 310.287 217.824 310.703 217.824C311.098 217.824 311.487 217.878 311.871 217.984C312.266 218.091 312.628 218.246 312.959 218.448C313.29 218.651 313.567 218.891 313.791 219.168L312.847 220.208C312.644 220.006 312.42 219.83 312.175 219.68C311.94 219.52 311.7 219.398 311.455 219.312C311.21 219.227 310.986 219.184 310.783 219.184C310.559 219.184 310.356 219.206 310.175 219.248C309.994 219.291 309.839 219.355 309.711 219.44C309.594 219.526 309.503 219.632 309.439 219.76C309.375 219.888 309.343 220.032 309.343 220.192C309.354 220.331 309.386 220.464 309.439 220.592C309.503 220.71 309.588 220.811 309.695 220.896C309.812 220.982 309.988 221.072 310.223 221.168C310.458 221.264 310.756 221.355 311.119 221.44C311.652 221.579 312.09 221.734 312.431 221.904C312.783 222.064 313.06 222.251 313.263 222.464C313.476 222.667 313.626 222.902 313.711 223.168C313.796 223.435 313.839 223.734 313.839 224.064C313.839 224.544 313.7 224.976 313.423 225.36C313.156 225.734 312.794 226.027 312.335 226.24C311.876 226.454 311.364 226.56 310.799 226.56ZM315.895 226.4V215.856H317.543V226.4H315.895ZM314.151 219.6V218H319.495V219.6H314.151ZM320.468 226.4V218H322.116V226.4H320.468ZM321.268 216.144C320.916 216.144 320.644 216.054 320.452 215.872C320.26 215.691 320.164 215.435 320.164 215.104C320.164 214.795 320.26 214.544 320.452 214.352C320.654 214.16 320.926 214.064 321.268 214.064C321.62 214.064 321.892 214.155 322.084 214.336C322.276 214.518 322.372 214.774 322.372 215.104C322.372 215.414 322.27 215.664 322.068 215.856C321.876 216.048 321.609 216.144 321.268 216.144ZM324.889 226.4V215.856H326.537V226.4H324.889ZM323.145 219.6V218H328.489V219.6H323.145ZM332.134 226.56C331.536 226.56 331.014 226.422 330.566 226.144C330.128 225.867 329.787 225.478 329.542 224.976C329.307 224.475 329.19 223.878 329.19 223.184V218H330.838V222.736C330.838 223.227 330.912 223.654 331.062 224.016C331.222 224.368 331.446 224.64 331.734 224.832C332.032 225.024 332.39 225.12 332.806 225.12C333.115 225.12 333.398 225.072 333.654 224.976C333.91 224.87 334.128 224.726 334.31 224.544C334.502 224.363 334.651 224.144 334.758 223.888C334.864 223.632 334.918 223.355 334.918 223.056V218H336.566V226.4H334.918V224.64L335.206 224.448C335.078 224.843 334.859 225.2 334.55 225.52C334.251 225.84 333.894 226.096 333.478 226.288C333.062 226.47 332.614 226.56 332.134 226.56ZM339.117 226.4V215.856H340.765V226.4H339.117ZM337.373 219.6V218H342.717V219.6H337.373ZM347.26 226.56C346.396 226.56 345.628 226.379 344.956 226.016C344.294 225.643 343.772 225.136 343.388 224.496C343.014 223.856 342.828 223.12 342.828 222.288C342.828 221.627 342.934 221.024 343.148 220.48C343.361 219.936 343.654 219.467 344.028 219.072C344.412 218.667 344.865 218.358 345.388 218.144C345.921 217.92 346.497 217.808 347.116 217.808C347.66 217.808 348.166 217.915 348.636 218.128C349.105 218.331 349.51 218.614 349.852 218.976C350.204 219.339 350.47 219.771 350.652 220.272C350.844 220.763 350.934 221.302 350.924 221.888L350.908 222.592H344.044L343.676 221.28H349.484L349.244 221.552V221.168C349.212 220.816 349.094 220.502 348.892 220.224C348.689 219.947 348.433 219.728 348.124 219.568C347.814 219.408 347.478 219.328 347.116 219.328C346.54 219.328 346.054 219.44 345.66 219.664C345.265 219.878 344.966 220.198 344.764 220.624C344.561 221.04 344.46 221.558 344.46 222.176C344.46 222.763 344.582 223.275 344.828 223.712C345.073 224.139 345.42 224.47 345.868 224.704C346.316 224.939 346.833 225.056 347.42 225.056C347.836 225.056 348.22 224.987 348.572 224.848C348.934 224.71 349.324 224.459 349.74 224.096L350.572 225.264C350.316 225.52 350.001 225.744 349.628 225.936C349.265 226.128 348.876 226.283 348.46 226.4C348.054 226.507 347.654 226.56 347.26 226.56ZM359.375 226.56C358.554 226.56 357.818 226.374 357.167 226C356.527 225.616 356.02 225.099 355.647 224.448C355.274 223.787 355.087 223.035 355.087 222.192C355.087 221.35 355.274 220.603 355.647 219.952C356.02 219.291 356.527 218.774 357.167 218.4C357.818 218.016 358.554 217.824 359.375 217.824C360.186 217.824 360.911 218.016 361.551 218.4C362.202 218.774 362.714 219.291 363.087 219.952C363.46 220.603 363.647 221.35 363.647 222.192C363.647 223.035 363.46 223.787 363.087 224.448C362.714 225.099 362.202 225.616 361.551 226C360.911 226.374 360.186 226.56 359.375 226.56ZM359.375 225.056C359.876 225.056 360.324 224.934 360.719 224.688C361.114 224.432 361.423 224.091 361.647 223.664C361.871 223.227 361.978 222.736 361.967 222.192C361.978 221.638 361.871 221.147 361.647 220.72C361.423 220.283 361.114 219.942 360.719 219.696C360.324 219.451 359.876 219.328 359.375 219.328C358.874 219.328 358.42 219.456 358.015 219.712C357.62 219.958 357.311 220.299 357.087 220.736C356.863 221.163 356.756 221.648 356.767 222.192C356.756 222.736 356.863 223.227 357.087 223.664C357.311 224.091 357.62 224.432 358.015 224.688C358.42 224.934 358.874 225.056 359.375 225.056ZM365.242 226.4V217.056C365.242 216.576 365.349 216.15 365.562 215.776C365.776 215.403 366.069 215.11 366.442 214.896C366.816 214.683 367.248 214.576 367.738 214.576C368.08 214.576 368.4 214.64 368.698 214.768C368.997 214.896 369.237 215.067 369.418 215.28L368.858 216.544C368.72 216.416 368.565 216.315 368.394 216.24C368.234 216.155 368.08 216.112 367.93 216.112C367.706 216.112 367.514 216.15 367.354 216.224C367.205 216.288 367.093 216.395 367.018 216.544C366.944 216.683 366.906 216.854 366.906 217.056V226.4H366.074C365.936 226.4 365.797 226.4 365.658 226.4C365.52 226.4 365.381 226.4 365.242 226.4ZM363.898 219.664V218.144H368.89V219.664H363.898ZM376.04 226.4V216.864H372.904V215.2H381V216.864H377.768V226.4H376.04ZM384.241 226.56C383.377 226.56 382.609 226.379 381.937 226.016C381.276 225.643 380.753 225.136 380.369 224.496C379.996 223.856 379.809 223.12 379.809 222.288C379.809 221.627 379.916 221.024 380.129 220.48C380.342 219.936 380.636 219.467 381.009 219.072C381.393 218.667 381.846 218.358 382.369 218.144C382.902 217.92 383.478 217.808 384.097 217.808C384.641 217.808 385.148 217.915 385.617 218.128C386.086 218.331 386.492 218.614 386.833 218.976C387.185 219.339 387.452 219.771 387.633 220.272C387.825 220.763 387.916 221.302 387.905 221.888L387.889 222.592H381.025L380.657 221.28H386.465L386.225 221.552V221.168C386.193 220.816 386.076 220.502 385.873 220.224C385.67 219.947 385.414 219.728 385.105 219.568C384.796 219.408 384.46 219.328 384.097 219.328C383.521 219.328 383.036 219.44 382.641 219.664C382.246 219.878 381.948 220.198 381.745 220.624C381.542 221.04 381.441 221.558 381.441 222.176C381.441 222.763 381.564 223.275 381.809 223.712C382.054 224.139 382.401 224.47 382.849 224.704C383.297 224.939 383.814 225.056 384.401 225.056C384.817 225.056 385.201 224.987 385.553 224.848C385.916 224.71 386.305 224.459 386.721 224.096L387.553 225.264C387.297 225.52 386.982 225.744 386.609 225.936C386.246 226.128 385.857 226.283 385.441 226.4C385.036 226.507 384.636 226.56 384.241 226.56ZM392.464 226.56C391.685 226.56 390.987 226.368 390.368 225.984C389.76 225.6 389.275 225.078 388.912 224.416C388.56 223.755 388.384 223.014 388.384 222.192C388.384 221.371 388.56 220.63 388.912 219.968C389.275 219.307 389.76 218.784 390.368 218.4C390.987 218.016 391.685 217.824 392.464 217.824C393.211 217.824 393.888 217.979 394.496 218.288C395.115 218.587 395.584 218.998 395.904 219.52L394.992 220.64C394.821 220.395 394.603 220.171 394.336 219.968C394.069 219.766 393.787 219.606 393.488 219.488C393.189 219.371 392.901 219.312 392.624 219.312C392.112 219.312 391.653 219.44 391.248 219.696C390.853 219.942 390.539 220.283 390.304 220.72C390.069 221.158 389.952 221.648 389.952 222.192C389.952 222.736 390.075 223.227 390.32 223.664C390.565 224.091 390.891 224.432 391.296 224.688C391.701 224.944 392.149 225.072 392.64 225.072C392.928 225.072 393.205 225.024 393.472 224.928C393.749 224.832 394.016 224.688 394.272 224.496C394.528 224.304 394.768 224.07 394.992 223.792L395.904 224.912C395.563 225.392 395.072 225.787 394.432 226.096C393.803 226.406 393.147 226.56 392.464 226.56ZM396.659 226.4V214.56H398.307V219.728L398.019 219.92C398.125 219.547 398.333 219.206 398.643 218.896C398.952 218.576 399.32 218.32 399.747 218.128C400.173 217.926 400.611 217.824 401.059 217.824C401.699 217.824 402.232 217.952 402.659 218.208C403.085 218.454 403.405 218.832 403.619 219.344C403.832 219.856 403.939 220.502 403.939 221.28V226.4H402.291V221.392C402.291 220.912 402.227 220.518 402.099 220.208C401.971 219.888 401.773 219.659 401.507 219.52C401.24 219.371 400.909 219.307 400.515 219.328C400.195 219.328 399.901 219.382 399.635 219.488C399.368 219.584 399.133 219.723 398.931 219.904C398.739 220.086 398.584 220.299 398.467 220.544C398.36 220.779 398.307 221.035 398.307 221.312V226.4H397.491C397.352 226.4 397.213 226.4 397.075 226.4C396.936 226.4 396.797 226.4 396.659 226.4ZM405.374 226.4V218H407.022V219.728L406.734 219.92C406.841 219.547 407.049 219.206 407.358 218.896C407.668 218.576 408.036 218.32 408.462 218.128C408.889 217.926 409.326 217.824 409.774 217.824C410.414 217.824 410.948 217.952 411.374 218.208C411.801 218.454 412.121 218.832 412.334 219.344C412.548 219.856 412.654 220.502 412.654 221.28V226.4H411.006V221.392C411.006 220.912 410.942 220.518 410.814 220.208C410.686 219.888 410.489 219.659 410.222 219.52C409.956 219.371 409.625 219.307 409.23 219.328C408.91 219.328 408.617 219.382 408.35 219.488C408.084 219.584 407.849 219.723 407.646 219.904C407.454 220.086 407.3 220.299 407.182 220.544C407.076 220.779 407.022 221.035 407.022 221.312V226.4H406.206C406.068 226.4 405.929 226.4 405.79 226.4C405.652 226.4 405.513 226.4 405.374 226.4ZM417.866 226.56C417.044 226.56 416.308 226.374 415.658 226C415.018 225.616 414.511 225.099 414.138 224.448C413.764 223.787 413.578 223.035 413.578 222.192C413.578 221.35 413.764 220.603 414.138 219.952C414.511 219.291 415.018 218.774 415.658 218.4C416.308 218.016 417.044 217.824 417.866 217.824C418.676 217.824 419.402 218.016 420.042 218.4C420.692 218.774 421.204 219.291 421.578 219.952C421.951 220.603 422.138 221.35 422.138 222.192C422.138 223.035 421.951 223.787 421.578 224.448C421.204 225.099 420.692 225.616 420.042 226C419.402 226.374 418.676 226.56 417.866 226.56ZM417.866 225.056C418.367 225.056 418.815 224.934 419.21 224.688C419.604 224.432 419.914 224.091 420.138 223.664C420.362 223.227 420.468 222.736 420.458 222.192C420.468 221.638 420.362 221.147 420.138 220.72C419.914 220.283 419.604 219.942 419.21 219.696C418.815 219.451 418.367 219.328 417.866 219.328C417.364 219.328 416.911 219.456 416.506 219.712C416.111 219.958 415.802 220.299 415.578 220.736C415.354 221.163 415.247 221.648 415.258 222.192C415.247 222.736 415.354 223.227 415.578 223.664C415.802 224.091 416.111 224.432 416.506 224.688C416.911 224.934 417.364 225.056 417.866 225.056ZM423.166 226.4V214.56H424.814V226.4H423.166ZM429.969 226.56C429.148 226.56 428.412 226.374 427.761 226C427.121 225.616 426.614 225.099 426.241 224.448C425.868 223.787 425.681 223.035 425.681 222.192C425.681 221.35 425.868 220.603 426.241 219.952C426.614 219.291 427.121 218.774 427.761 218.4C428.412 218.016 429.148 217.824 429.969 217.824C430.78 217.824 431.505 218.016 432.145 218.4C432.796 218.774 433.308 219.291 433.681 219.952C434.054 220.603 434.241 221.35 434.241 222.192C434.241 223.035 434.054 223.787 433.681 224.448C433.308 225.099 432.796 225.616 432.145 226C431.505 226.374 430.78 226.56 429.969 226.56ZM429.969 225.056C430.47 225.056 430.918 224.934 431.313 224.688C431.708 224.432 432.017 224.091 432.241 223.664C432.465 223.227 432.572 222.736 432.561 222.192C432.572 221.638 432.465 221.147 432.241 220.72C432.017 220.283 431.708 219.942 431.313 219.696C430.918 219.451 430.47 219.328 429.969 219.328C429.468 219.328 429.014 219.456 428.609 219.712C428.214 219.958 427.905 220.299 427.681 220.736C427.457 221.163 427.35 221.648 427.361 222.192C427.35 222.736 427.457 223.227 427.681 223.664C427.905 224.091 428.214 224.432 428.609 224.688C429.014 224.934 429.468 225.056 429.969 225.056ZM438.997 230.08C438.399 230.08 437.802 229.984 437.205 229.792C436.618 229.611 436.143 229.371 435.781 229.072L436.389 227.792C436.602 227.952 436.853 228.091 437.141 228.208C437.429 228.336 437.733 228.432 438.053 228.496C438.373 228.571 438.687 228.608 438.997 228.608C439.583 228.608 440.074 228.512 440.469 228.32C440.863 228.128 441.162 227.846 441.365 227.472C441.567 227.099 441.669 226.635 441.669 226.08V224.464L441.845 224.576C441.791 224.907 441.615 225.227 441.317 225.536C441.029 225.835 440.666 226.08 440.229 226.272C439.791 226.464 439.343 226.56 438.885 226.56C438.085 226.56 437.37 226.374 436.741 226C436.122 225.616 435.631 225.099 435.269 224.448C434.906 223.787 434.725 223.035 434.725 222.192C434.725 221.35 434.901 220.603 435.253 219.952C435.615 219.291 436.106 218.774 436.725 218.4C437.354 218.016 438.058 217.824 438.837 217.824C439.157 217.824 439.466 217.867 439.765 217.952C440.063 218.027 440.341 218.139 440.597 218.288C440.853 218.427 441.082 218.582 441.285 218.752C441.487 218.923 441.653 219.104 441.781 219.296C441.909 219.488 441.989 219.67 442.021 219.84L441.669 219.968V218H443.317V225.888C443.317 226.56 443.215 227.152 443.013 227.664C442.821 228.187 442.538 228.624 442.165 228.976C441.791 229.339 441.338 229.611 440.805 229.792C440.271 229.984 439.669 230.08 438.997 230.08ZM439.061 225.04C439.583 225.04 440.047 224.918 440.453 224.672C440.858 224.427 441.173 224.091 441.397 223.664C441.621 223.238 441.733 222.747 441.733 222.192C441.733 221.638 441.615 221.147 441.381 220.72C441.157 220.283 440.842 219.942 440.437 219.696C440.042 219.451 439.583 219.328 439.061 219.328C438.549 219.328 438.09 219.456 437.685 219.712C437.29 219.958 436.975 220.299 436.741 220.736C436.517 221.163 436.405 221.648 436.405 222.192C436.405 222.736 436.517 223.227 436.741 223.664C436.975 224.091 437.29 224.427 437.685 224.672C438.09 224.918 438.549 225.04 439.061 225.04ZM446.235 230.08L447.931 226.16L447.947 227.472L443.755 218H445.675L448.299 224.176C448.353 224.283 448.417 224.448 448.491 224.672C448.566 224.886 448.63 225.099 448.683 225.312L448.267 225.408C448.353 225.184 448.433 224.96 448.507 224.736C448.593 224.512 448.673 224.288 448.747 224.064L450.939 218H452.891L449.435 226.4L448.011 230.08H446.235Z" fill="#666666"/>
</svg>
