<svg width="584" height="311" viewBox="0 0 584 311" fill="none" xmlns="http://www.w3.org/2000/svg">
<rect x="-0.448398" y="1.63675" width="60.5213" height="19.1176" rx="9.5588" transform="matrix(-0.868809 0.495148 0.495144 0.868811 277.517 81.4367)" fill="#EF5350" stroke="#EF5350" stroke-width="2.40001"/>
<rect x="-0.448398" y="1.63675" width="60.5213" height="19.1176" rx="9.5588" transform="matrix(-0.868809 0.495148 0.495144 0.868811 347.862 101.988)" fill="#FBBC04" stroke="#FBBC04" stroke-width="2.40001"/>
<rect x="0.448398" y="1.63675" width="60.5213" height="19.1176" rx="9.5588" transform="matrix(0.868809 0.495148 -0.495144 0.868811 236.022 101.543)" fill="#4285F4" stroke="#4285F4" stroke-width="2.40001"/>
<path d="M340.757 124.48L304.785 103.979C300.199 101.365 298.6 95.5277 301.214 90.9411C303.827 86.3545 309.665 84.7553 314.251 87.3693L350.223 107.87C354.81 110.484 356.409 116.321 353.795 120.908C351.181 125.495 345.344 127.094 340.757 124.48Z" fill="#4CAF50" stroke="#4CAF50" stroke-width="2.40001"/>
<path d="M110.638 201.744C108.895 201.744 107.267 201.435 105.754 200.816C104.24 200.173 102.91 199.291 101.763 198.167C100.617 197.043 99.7221 195.736 99.08 194.245C98.4608 192.732 98.1512 191.103 98.1512 189.36C98.1512 187.64 98.4608 186.035 99.08 184.544C99.7221 183.054 100.605 181.758 101.729 180.657C102.875 179.533 104.206 178.662 105.719 178.043C107.233 177.424 108.861 177.114 110.604 177.114C111.82 177.114 113.001 177.286 114.147 177.63C115.317 177.974 116.372 178.456 117.312 179.075C118.252 179.694 119.021 180.405 119.617 181.208L117.209 183.719C116.521 183.054 115.81 182.503 115.076 182.068C114.365 181.632 113.631 181.299 112.874 181.07C112.118 180.841 111.361 180.726 110.604 180.726C109.366 180.726 108.219 180.944 107.164 181.38C106.132 181.815 105.215 182.423 104.412 183.203C103.632 183.982 103.025 184.9 102.589 185.955C102.153 186.987 101.935 188.122 101.935 189.36C101.935 190.553 102.165 191.688 102.623 192.766C103.082 193.821 103.713 194.75 104.515 195.552C105.341 196.355 106.281 196.986 107.336 197.444C108.414 197.903 109.549 198.132 110.742 198.132C111.636 198.132 112.485 198.006 113.287 197.754C114.09 197.479 114.801 197.1 115.42 196.619C116.039 196.137 116.521 195.587 116.865 194.968C117.209 194.325 117.381 193.649 117.381 192.938V192.25L117.897 192.732H110.535V189.051H121.199C121.245 189.303 121.28 189.555 121.302 189.808C121.325 190.037 121.337 190.266 121.337 190.496C121.36 190.702 121.371 190.908 121.371 191.115C121.371 192.697 121.096 194.142 120.546 195.449C119.995 196.733 119.227 197.846 118.241 198.786C117.278 199.726 116.142 200.46 114.835 200.988C113.551 201.492 112.152 201.744 110.638 201.744ZM131.713 201.744C129.947 201.744 128.365 201.343 126.966 200.54C125.59 199.715 124.5 198.603 123.698 197.204C122.895 195.782 122.494 194.165 122.494 192.353C122.494 190.541 122.895 188.936 123.698 187.537C124.5 186.115 125.59 185.003 126.966 184.2C128.365 183.375 129.947 182.962 131.713 182.962C133.456 182.962 135.015 183.375 136.391 184.2C137.79 185.003 138.891 186.115 139.694 187.537C140.496 188.936 140.898 190.541 140.898 192.353C140.898 194.165 140.496 195.782 139.694 197.204C138.891 198.603 137.79 199.715 136.391 200.54C135.015 201.343 133.456 201.744 131.713 201.744ZM131.713 198.511C132.791 198.511 133.754 198.247 134.602 197.72C135.451 197.169 136.116 196.435 136.598 195.518C137.079 194.578 137.309 193.523 137.286 192.353C137.309 191.161 137.079 190.106 136.598 189.188C136.116 188.248 135.451 187.514 134.602 186.987C133.754 186.459 132.791 186.196 131.713 186.196C130.635 186.196 129.66 186.471 128.789 187.021C127.94 187.549 127.275 188.282 126.794 189.223C126.312 190.14 126.083 191.184 126.106 192.353C126.083 193.523 126.312 194.578 126.794 195.518C127.275 196.435 127.94 197.169 128.789 197.72C129.66 198.247 130.635 198.511 131.713 198.511ZM151.157 201.744C149.391 201.744 147.809 201.343 146.41 200.54C145.034 199.715 143.944 198.603 143.142 197.204C142.339 195.782 141.938 194.165 141.938 192.353C141.938 190.541 142.339 188.936 143.142 187.537C143.944 186.115 145.034 185.003 146.41 184.2C147.809 183.375 149.391 182.962 151.157 182.962C152.9 182.962 154.459 183.375 155.835 184.2C157.234 185.003 158.335 186.115 159.138 187.537C159.94 188.936 160.342 190.541 160.342 192.353C160.342 194.165 159.94 195.782 159.138 197.204C158.335 198.603 157.234 199.715 155.835 200.54C154.459 201.343 152.9 201.744 151.157 201.744ZM151.157 198.511C152.235 198.511 153.198 198.247 154.047 197.72C154.895 197.169 155.56 196.435 156.042 195.518C156.523 194.578 156.753 193.523 156.73 192.353C156.753 191.161 156.523 190.106 156.042 189.188C155.56 188.248 154.895 187.514 154.047 186.987C153.198 186.459 152.235 186.196 151.157 186.196C150.079 186.196 149.104 186.471 148.233 187.021C147.384 187.549 146.719 188.282 146.238 189.223C145.756 190.14 145.527 191.184 145.55 192.353C145.527 193.523 145.756 194.578 146.238 195.518C146.719 196.435 147.384 197.169 148.233 197.72C149.104 198.247 150.079 198.511 151.157 198.511ZM170.567 209.312C169.282 209.312 167.998 209.106 166.714 208.693C165.452 208.303 164.432 207.787 163.652 207.145L164.959 204.393C165.418 204.737 165.957 205.035 166.576 205.288C167.195 205.563 167.849 205.769 168.537 205.907C169.225 206.067 169.902 206.148 170.567 206.148C171.828 206.148 172.883 205.941 173.731 205.528C174.58 205.116 175.222 204.508 175.658 203.705C176.094 202.903 176.311 201.905 176.311 200.712V197.238L176.69 197.479C176.575 198.19 176.197 198.878 175.555 199.543C174.935 200.185 174.156 200.712 173.215 201.125C172.275 201.538 171.312 201.744 170.326 201.744C168.606 201.744 167.069 201.343 165.716 200.54C164.386 199.715 163.331 198.603 162.551 197.204C161.772 195.782 161.382 194.165 161.382 192.353C161.382 190.541 161.76 188.936 162.517 187.537C163.297 186.115 164.352 185.003 165.682 184.2C167.035 183.375 168.548 182.962 170.223 182.962C170.911 182.962 171.576 183.054 172.218 183.237C172.86 183.398 173.456 183.638 174.007 183.96C174.557 184.258 175.05 184.59 175.486 184.957C175.922 185.324 176.277 185.714 176.552 186.127C176.827 186.54 176.999 186.929 177.068 187.296L176.311 187.572V183.34H179.855V200.3C179.855 201.744 179.637 203.017 179.201 204.118C178.788 205.242 178.181 206.182 177.378 206.939C176.575 207.719 175.6 208.303 174.454 208.693C173.307 209.106 172.011 209.312 170.567 209.312ZM170.704 198.476C171.828 198.476 172.826 198.213 173.697 197.685C174.568 197.158 175.245 196.435 175.727 195.518C176.208 194.601 176.449 193.546 176.449 192.353C176.449 191.161 176.197 190.106 175.692 189.188C175.211 188.248 174.534 187.514 173.663 186.987C172.814 186.459 171.828 186.196 170.704 186.196C169.603 186.196 168.617 186.471 167.746 187.021C166.897 187.549 166.221 188.282 165.716 189.223C165.235 190.14 164.994 191.184 164.994 192.353C164.994 193.523 165.235 194.578 165.716 195.518C166.221 196.435 166.897 197.158 167.746 197.685C168.617 198.213 169.603 198.476 170.704 198.476ZM183.171 201.4V175.944H186.715V201.4H183.171ZM198.108 201.744C196.251 201.744 194.599 201.355 193.155 200.575C191.733 199.772 190.609 198.683 189.783 197.307C188.981 195.931 188.579 194.348 188.579 192.56C188.579 191.138 188.809 189.842 189.267 188.672C189.726 187.503 190.357 186.494 191.159 185.645C191.985 184.774 192.96 184.109 194.083 183.65C195.23 183.168 196.468 182.928 197.799 182.928C198.968 182.928 200.058 183.157 201.067 183.616C202.076 184.051 202.947 184.659 203.681 185.439C204.438 186.218 205.011 187.147 205.401 188.225C205.814 189.28 206.009 190.438 205.986 191.7L205.951 193.213H191.194L190.403 190.392H202.89L202.374 190.977V190.152C202.305 189.395 202.053 188.718 201.617 188.122C201.181 187.526 200.631 187.056 199.966 186.712C199.301 186.368 198.578 186.196 197.799 186.196C196.56 186.196 195.517 186.436 194.668 186.918C193.82 187.377 193.178 188.065 192.742 188.982C192.306 189.876 192.088 190.989 192.088 192.319C192.088 193.58 192.352 194.681 192.879 195.621C193.407 196.539 194.152 197.249 195.115 197.754C196.079 198.259 197.191 198.511 198.452 198.511C199.347 198.511 200.172 198.362 200.929 198.064C201.709 197.765 202.546 197.227 203.44 196.447L205.229 198.958C204.679 199.508 204.002 199.99 203.199 200.403C202.42 200.816 201.583 201.148 200.688 201.4C199.817 201.63 198.957 201.744 198.108 201.744ZM216.932 201.4V177.32H226.358C228.078 177.32 229.626 177.607 231.002 178.18C232.401 178.754 233.593 179.579 234.58 180.657C235.566 181.735 236.322 183.008 236.85 184.476C237.377 185.943 237.641 187.572 237.641 189.36C237.641 191.149 237.377 192.789 236.85 194.28C236.322 195.747 235.566 197.02 234.58 198.098C233.616 199.153 232.435 199.967 231.036 200.54C229.637 201.114 228.078 201.4 226.358 201.4H216.932ZM220.647 198.201L220.544 197.823H226.186C227.401 197.823 228.479 197.628 229.42 197.238C230.383 196.848 231.185 196.298 231.828 195.587C232.493 194.853 232.997 193.959 233.341 192.904C233.685 191.849 233.857 190.668 233.857 189.36C233.857 188.053 233.685 186.884 233.341 185.852C232.997 184.797 232.493 183.902 231.828 183.168C231.162 182.434 230.36 181.873 229.42 181.483C228.479 181.093 227.401 180.898 226.186 180.898H220.441L220.647 180.588V198.201ZM248.479 201.744C246.621 201.744 244.97 201.355 243.525 200.575C242.103 199.772 240.98 198.683 240.154 197.307C239.351 195.931 238.95 194.348 238.95 192.56C238.95 191.138 239.179 189.842 239.638 188.672C240.097 187.503 240.727 186.494 241.53 185.645C242.356 184.774 243.33 184.109 244.454 183.65C245.601 183.168 246.839 182.928 248.169 182.928C249.339 182.928 250.428 183.157 251.437 183.616C252.446 184.051 253.318 184.659 254.052 185.439C254.808 186.218 255.382 187.147 255.772 188.225C256.184 189.28 256.379 190.438 256.356 191.7L256.322 193.213H241.564L240.773 190.392H253.26L252.744 190.977V190.152C252.676 189.395 252.423 188.718 251.988 188.122C251.552 187.526 251.001 187.056 250.336 186.712C249.671 186.368 248.949 186.196 248.169 186.196C246.931 186.196 245.887 186.436 245.039 186.918C244.19 187.377 243.548 188.065 243.112 188.982C242.677 189.876 242.459 190.989 242.459 192.319C242.459 193.58 242.723 194.681 243.25 195.621C243.777 196.539 244.523 197.249 245.486 197.754C246.449 198.259 247.561 198.511 248.823 198.511C249.717 198.511 250.543 198.362 251.3 198.064C252.079 197.765 252.916 197.227 253.811 196.447L255.6 198.958C255.049 199.508 254.373 199.99 253.57 200.403C252.79 200.816 251.953 201.148 251.059 201.4C250.187 201.63 249.327 201.744 248.479 201.744ZM264.068 201.4L256.431 183.34H260.25L265.754 196.86L265.1 197.169L270.982 183.34H274.629L266.614 201.4H264.068ZM284.075 201.744C282.217 201.744 280.566 201.355 279.121 200.575C277.699 199.772 276.576 198.683 275.75 197.307C274.947 195.931 274.546 194.348 274.546 192.56C274.546 191.138 274.775 189.842 275.234 188.672C275.693 187.503 276.323 186.494 277.126 185.645C277.952 184.774 278.926 184.109 280.05 183.65C281.197 183.168 282.435 182.928 283.765 182.928C284.935 182.928 286.024 183.157 287.033 183.616C288.042 184.051 288.914 184.659 289.648 185.439C290.404 186.218 290.978 187.147 291.368 188.225C291.78 189.28 291.975 190.438 291.952 191.7L291.918 193.213H277.16L276.369 190.392H288.856L288.34 190.977V190.152C288.272 189.395 288.019 188.718 287.584 188.122C287.148 187.526 286.597 187.056 285.932 186.712C285.267 186.368 284.545 186.196 283.765 186.196C282.527 186.196 281.483 186.436 280.635 186.918C279.786 187.377 279.144 188.065 278.708 188.982C278.273 189.876 278.055 190.989 278.055 192.319C278.055 193.58 278.319 194.681 278.846 195.621C279.373 196.539 280.119 197.249 281.082 197.754C282.045 198.259 283.157 198.511 284.419 198.511C285.313 198.511 286.139 198.362 286.896 198.064C287.675 197.765 288.512 197.227 289.407 196.447L291.196 198.958C290.645 199.508 289.969 199.99 289.166 200.403C288.386 200.816 287.549 201.148 286.655 201.4C285.783 201.63 284.923 201.744 284.075 201.744ZM294.152 201.4V175.944H297.695V201.4H294.152ZM308.779 201.744C307.013 201.744 305.431 201.343 304.032 200.54C302.656 199.715 301.567 198.603 300.764 197.204C299.961 195.782 299.56 194.165 299.56 192.353C299.56 190.541 299.961 188.936 300.764 187.537C301.567 186.115 302.656 185.003 304.032 184.2C305.431 183.375 307.013 182.962 308.779 182.962C310.522 182.962 312.082 183.375 313.458 184.2C314.857 185.003 315.957 186.115 316.76 187.537C317.563 188.936 317.964 190.541 317.964 192.353C317.964 194.165 317.563 195.782 316.76 197.204C315.957 198.603 314.857 199.715 313.458 200.54C312.082 201.343 310.522 201.744 308.779 201.744ZM308.779 198.511C309.857 198.511 310.82 198.247 311.669 197.72C312.517 197.169 313.182 196.435 313.664 195.518C314.146 194.578 314.375 193.523 314.352 192.353C314.375 191.161 314.146 190.106 313.664 189.188C313.182 188.248 312.517 187.514 311.669 186.987C310.82 186.459 309.857 186.196 308.779 186.196C307.701 186.196 306.727 186.471 305.855 187.021C305.007 187.549 304.342 188.282 303.86 189.223C303.378 190.14 303.149 191.184 303.172 192.353C303.149 193.523 303.378 194.578 303.86 195.518C304.342 196.435 305.007 197.169 305.855 197.72C306.727 198.247 307.701 198.511 308.779 198.511ZM320.105 208.968V183.34H323.682V187.468L323.132 187.159C323.27 186.471 323.66 185.817 324.302 185.198C324.944 184.556 325.724 184.04 326.641 183.65C327.581 183.237 328.544 183.031 329.53 183.031C331.159 183.031 332.604 183.432 333.865 184.235C335.126 185.037 336.124 186.138 336.858 187.537C337.592 188.936 337.959 190.541 337.959 192.353C337.959 194.142 337.592 195.747 336.858 197.169C336.147 198.568 335.161 199.68 333.899 200.506C332.638 201.309 331.216 201.71 329.634 201.71C328.579 201.71 327.558 201.504 326.572 201.091C325.586 200.655 324.749 200.105 324.061 199.44C323.373 198.775 322.949 198.087 322.788 197.376L323.682 196.894V208.968H320.105ZM329.049 198.442C330.104 198.442 331.044 198.178 331.87 197.651C332.695 197.123 333.349 196.401 333.831 195.484C334.312 194.566 334.553 193.523 334.553 192.353C334.553 191.184 334.312 190.152 333.831 189.257C333.372 188.34 332.73 187.617 331.904 187.09C331.079 186.562 330.127 186.299 329.049 186.299C327.971 186.299 327.019 186.562 326.194 187.09C325.368 187.594 324.714 188.305 324.233 189.223C323.751 190.14 323.51 191.184 323.51 192.353C323.51 193.523 323.751 194.566 324.233 195.484C324.714 196.401 325.368 197.123 326.194 197.651C327.019 198.178 327.971 198.442 329.049 198.442ZM348.515 201.744C346.657 201.744 345.006 201.355 343.561 200.575C342.139 199.772 341.015 198.683 340.19 197.307C339.387 195.931 338.986 194.348 338.986 192.56C338.986 191.138 339.215 189.842 339.674 188.672C340.132 187.503 340.763 186.494 341.566 185.645C342.391 184.774 343.366 184.109 344.49 183.65C345.636 183.168 346.875 182.928 348.205 182.928C349.375 182.928 350.464 183.157 351.473 183.616C352.482 184.051 353.353 184.659 354.087 185.439C354.844 186.218 355.417 187.147 355.807 188.225C356.22 189.28 356.415 190.438 356.392 191.7L356.358 193.213H341.6L340.809 190.392H353.296L352.78 190.977V190.152C352.711 189.395 352.459 188.718 352.023 188.122C351.588 187.526 351.037 187.056 350.372 186.712C349.707 186.368 348.985 186.196 348.205 186.196C346.967 186.196 345.923 186.436 345.074 186.918C344.226 187.377 343.584 188.065 343.148 188.982C342.712 189.876 342.494 190.989 342.494 192.319C342.494 193.58 342.758 194.681 343.286 195.621C343.813 196.539 344.558 197.249 345.522 197.754C346.485 198.259 347.597 198.511 348.859 198.511C349.753 198.511 350.579 198.362 351.335 198.064C352.115 197.765 352.952 197.227 353.847 196.447L355.635 198.958C355.085 199.508 354.408 199.99 353.606 200.403C352.826 200.816 351.989 201.148 351.095 201.4C350.223 201.63 349.363 201.744 348.515 201.744ZM358.523 201.4V183.34H362.1V189.016L361.756 187.64C362.009 186.769 362.433 185.978 363.029 185.267C363.648 184.556 364.348 183.994 365.128 183.581C365.93 183.168 366.756 182.962 367.604 182.962C367.994 182.962 368.361 182.996 368.705 183.065C369.072 183.134 369.359 183.214 369.565 183.306L368.636 187.159C368.361 187.044 368.052 186.952 367.708 186.884C367.387 186.792 367.065 186.746 366.744 186.746C366.125 186.746 365.529 186.872 364.956 187.124C364.405 187.354 363.912 187.686 363.476 188.122C363.064 188.535 362.731 189.028 362.479 189.601C362.227 190.152 362.1 190.759 362.1 191.424V201.4H358.523ZM390.26 201.744C388.517 201.744 386.889 201.435 385.375 200.816C383.862 200.173 382.532 199.291 381.385 198.167C380.238 197.043 379.344 195.736 378.702 194.245C378.082 192.732 377.773 191.103 377.773 189.36C377.773 187.64 378.082 186.035 378.702 184.544C379.344 183.054 380.227 181.758 381.35 180.657C382.497 179.533 383.827 178.662 385.341 178.043C386.855 177.424 388.483 177.114 390.226 177.114C391.441 177.114 392.622 177.286 393.769 177.63C394.939 177.974 395.993 178.456 396.934 179.075C397.874 179.694 398.642 180.405 399.239 181.208L396.831 183.719C396.143 183.054 395.432 182.503 394.698 182.068C393.987 181.632 393.253 181.299 392.496 181.07C391.739 180.841 390.983 180.726 390.226 180.726C388.987 180.726 387.841 180.944 386.786 181.38C385.754 181.815 384.836 182.423 384.034 183.203C383.254 183.982 382.646 184.9 382.21 185.955C381.775 186.987 381.557 188.122 381.557 189.36C381.557 190.553 381.786 191.688 382.245 192.766C382.704 193.821 383.334 194.75 384.137 195.552C384.962 196.355 385.903 196.986 386.958 197.444C388.036 197.903 389.171 198.132 390.363 198.132C391.258 198.132 392.106 198.006 392.909 197.754C393.712 197.479 394.423 197.1 395.042 196.619C395.661 196.137 396.143 195.587 396.487 194.968C396.831 194.325 397.003 193.649 397.003 192.938V192.25L397.519 192.732H390.157V189.051H400.821C400.867 189.303 400.901 189.555 400.924 189.808C400.947 190.037 400.959 190.266 400.959 190.496C400.981 190.702 400.993 190.908 400.993 191.115C400.993 192.697 400.718 194.142 400.167 195.449C399.617 196.733 398.849 197.846 397.863 198.786C396.899 199.726 395.764 200.46 394.457 200.988C393.173 201.492 391.774 201.744 390.26 201.744ZM403.216 201.4V183.34H406.794V189.016L406.45 187.64C406.702 186.769 407.126 185.978 407.722 185.267C408.342 184.556 409.041 183.994 409.821 183.581C410.624 183.168 411.449 182.962 412.298 182.962C412.688 182.962 413.054 182.996 413.398 183.065C413.765 183.134 414.052 183.214 414.258 183.306L413.33 187.159C413.054 187.044 412.745 186.952 412.401 186.884C412.08 186.792 411.759 186.746 411.438 186.746C410.818 186.746 410.222 186.872 409.649 187.124C409.098 187.354 408.605 187.686 408.17 188.122C407.757 188.535 407.424 189.028 407.172 189.601C406.92 190.152 406.794 190.759 406.794 191.424V201.4H403.216ZM422.716 201.744C420.95 201.744 419.368 201.343 417.969 200.54C416.593 199.715 415.503 198.603 414.701 197.204C413.898 195.782 413.497 194.165 413.497 192.353C413.497 190.541 413.898 188.936 414.701 187.537C415.503 186.115 416.593 185.003 417.969 184.2C419.368 183.375 420.95 182.962 422.716 182.962C424.459 182.962 426.018 183.375 427.394 184.2C428.793 185.003 429.894 186.115 430.697 187.537C431.5 188.936 431.901 190.541 431.901 192.353C431.901 194.165 431.5 195.782 430.697 197.204C429.894 198.603 428.793 199.715 427.394 200.54C426.018 201.343 424.459 201.744 422.716 201.744ZM422.716 198.511C423.794 198.511 424.757 198.247 425.606 197.72C426.454 197.169 427.119 196.435 427.601 195.518C428.082 194.578 428.312 193.523 428.289 192.353C428.312 191.161 428.082 190.106 427.601 189.188C427.119 188.248 426.454 187.514 425.606 186.987C424.757 186.459 423.794 186.196 422.716 186.196C421.638 186.196 420.664 186.471 419.792 187.021C418.944 187.549 418.278 188.282 417.797 189.223C417.315 190.14 417.086 191.184 417.109 192.353C417.086 193.523 417.315 194.578 417.797 195.518C418.278 196.435 418.944 197.169 419.792 197.72C420.664 198.247 421.638 198.511 422.716 198.511ZM440.371 201.744C439.087 201.744 437.963 201.446 437 200.85C436.06 200.254 435.326 199.417 434.799 198.339C434.294 197.261 434.042 195.977 434.042 194.486V183.34H437.585V193.523C437.585 194.578 437.745 195.495 438.067 196.275C438.411 197.032 438.892 197.616 439.511 198.029C440.153 198.442 440.922 198.648 441.816 198.648C442.481 198.648 443.089 198.545 443.639 198.339C444.19 198.109 444.66 197.8 445.05 197.41C445.463 197.02 445.784 196.55 446.013 196C446.242 195.449 446.357 194.853 446.357 194.211V183.34H449.9V201.4H446.357V197.616L446.976 197.204C446.701 198.052 446.231 198.82 445.566 199.508C444.924 200.196 444.155 200.747 443.261 201.16C442.367 201.549 441.403 201.744 440.371 201.744ZM453.15 208.968V183.34H456.728V187.468L456.177 187.159C456.315 186.471 456.705 185.817 457.347 185.198C457.989 184.556 458.769 184.04 459.686 183.65C460.626 183.237 461.589 183.031 462.576 183.031C464.204 183.031 465.649 183.432 466.91 184.235C468.171 185.037 469.169 186.138 469.903 187.537C470.637 188.936 471.004 190.541 471.004 192.353C471.004 194.142 470.637 195.747 469.903 197.169C469.192 198.568 468.206 199.68 466.944 200.506C465.683 201.309 464.261 201.71 462.679 201.71C461.624 201.71 460.603 201.504 459.617 201.091C458.631 200.655 457.794 200.105 457.106 199.44C456.418 198.775 455.994 198.087 455.833 197.376L456.728 196.894V208.968H453.15ZM462.094 198.442C463.149 198.442 464.089 198.178 464.915 197.651C465.74 197.123 466.394 196.401 466.876 195.484C467.357 194.566 467.598 193.523 467.598 192.353C467.598 191.184 467.357 190.152 466.876 189.257C466.417 188.34 465.775 187.617 464.949 187.09C464.124 186.562 463.172 186.299 462.094 186.299C461.016 186.299 460.064 186.562 459.239 187.09C458.413 187.594 457.76 188.305 457.278 189.223C456.796 190.14 456.556 191.184 456.556 192.353C456.556 193.523 456.796 194.566 457.278 195.484C457.76 196.401 458.413 197.123 459.239 197.651C460.064 198.178 461.016 198.442 462.094 198.442ZM479.152 201.744C477.638 201.744 476.273 201.481 475.058 200.953C473.842 200.426 472.833 199.646 472.031 198.614L474.439 196.55C475.127 197.353 475.872 197.937 476.675 198.304C477.5 198.648 478.429 198.82 479.461 198.82C479.874 198.82 480.252 198.775 480.596 198.683C480.963 198.568 481.273 198.408 481.525 198.201C481.8 197.995 482.007 197.754 482.144 197.479C482.282 197.181 482.351 196.86 482.351 196.516C482.351 195.919 482.133 195.438 481.697 195.071C481.468 194.91 481.101 194.738 480.596 194.555C480.115 194.348 479.484 194.142 478.704 193.936C477.374 193.592 476.285 193.202 475.436 192.766C474.588 192.33 473.934 191.837 473.476 191.287C473.132 190.851 472.879 190.381 472.719 189.876C472.558 189.349 472.478 188.776 472.478 188.156C472.478 187.4 472.638 186.712 472.96 186.092C473.304 185.45 473.762 184.9 474.336 184.441C474.932 183.96 475.62 183.593 476.4 183.34C477.202 183.088 478.051 182.962 478.945 182.962C479.794 182.962 480.631 183.077 481.456 183.306C482.305 183.535 483.085 183.868 483.796 184.304C484.506 184.739 485.103 185.255 485.584 185.852L483.555 188.088C483.119 187.652 482.637 187.273 482.11 186.952C481.605 186.608 481.089 186.345 480.562 186.161C480.034 185.978 479.553 185.886 479.117 185.886C478.636 185.886 478.2 185.932 477.81 186.024C477.42 186.115 477.088 186.253 476.812 186.436C476.56 186.62 476.365 186.849 476.228 187.124C476.09 187.4 476.021 187.709 476.021 188.053C476.044 188.351 476.113 188.638 476.228 188.913C476.365 189.165 476.549 189.383 476.778 189.567C477.03 189.75 477.409 189.945 477.913 190.152C478.418 190.358 479.06 190.553 479.84 190.736C480.986 191.034 481.926 191.367 482.66 191.734C483.417 192.078 484.013 192.479 484.449 192.938C484.908 193.374 485.229 193.878 485.412 194.452C485.596 195.025 485.688 195.667 485.688 196.378C485.688 197.41 485.389 198.339 484.793 199.164C484.22 199.967 483.44 200.598 482.454 201.056C481.468 201.515 480.367 201.744 479.152 201.744Z" fill="#666666"/>
<path d="M166.507 226.56C165.718 226.56 164.987 226.416 164.315 226.128C163.654 225.84 163.073 225.44 162.571 224.928C162.081 224.406 161.697 223.798 161.419 223.104C161.153 222.4 161.019 221.632 161.019 220.8C161.019 219.968 161.153 219.206 161.419 218.512C161.697 217.808 162.081 217.2 162.571 216.688C163.073 216.166 163.654 215.76 164.315 215.472C164.987 215.184 165.718 215.04 166.507 215.04C167.297 215.04 168.022 215.184 168.683 215.472C169.355 215.76 169.937 216.166 170.427 216.688C170.929 217.211 171.313 217.824 171.579 218.528C171.857 219.222 171.995 219.979 171.995 220.8C171.995 221.622 171.857 222.384 171.579 223.088C171.313 223.782 170.929 224.39 170.427 224.912C169.937 225.435 169.355 225.84 168.683 226.128C168.022 226.416 167.297 226.56 166.507 226.56ZM166.507 224.88C167.051 224.88 167.547 224.779 167.995 224.576C168.454 224.374 168.849 224.091 169.179 223.728C169.51 223.355 169.766 222.923 169.947 222.432C170.139 221.931 170.235 221.387 170.235 220.8C170.235 220.214 170.139 219.675 169.947 219.184C169.766 218.683 169.51 218.251 169.179 217.888C168.849 217.515 168.454 217.227 167.995 217.024C167.547 216.822 167.051 216.72 166.507 216.72C165.963 216.72 165.462 216.822 165.003 217.024C164.555 217.227 164.161 217.51 163.819 217.872C163.489 218.235 163.233 218.667 163.051 219.168C162.87 219.659 162.779 220.203 162.779 220.8C162.779 221.387 162.87 221.931 163.051 222.432C163.233 222.934 163.489 223.366 163.819 223.728C164.161 224.091 164.555 224.374 165.003 224.576C165.462 224.779 165.963 224.88 166.507 224.88ZM173.119 226.4V218H174.767V219.728L174.479 219.92C174.586 219.547 174.794 219.206 175.103 218.896C175.412 218.576 175.78 218.32 176.207 218.128C176.634 217.926 177.071 217.824 177.519 217.824C178.159 217.824 178.692 217.952 179.119 218.208C179.546 218.454 179.866 218.832 180.079 219.344C180.292 219.856 180.399 220.502 180.399 221.28V226.4H178.751V221.392C178.751 220.912 178.687 220.518 178.559 220.208C178.431 219.888 178.234 219.659 177.967 219.52C177.7 219.371 177.37 219.307 176.975 219.328C176.655 219.328 176.362 219.382 176.095 219.488C175.828 219.584 175.594 219.723 175.391 219.904C175.199 220.086 175.044 220.299 174.927 220.544C174.82 220.779 174.767 221.035 174.767 221.312V226.4H173.951C173.812 226.4 173.674 226.4 173.535 226.4C173.396 226.4 173.258 226.4 173.119 226.4ZM190.479 226.56C189.7 226.56 188.986 226.422 188.335 226.144C187.684 225.867 187.119 225.472 186.639 224.96C186.159 224.438 185.786 223.824 185.519 223.12C185.263 222.416 185.135 221.643 185.135 220.8C185.135 220 185.274 219.259 185.551 218.576C185.839 217.883 186.234 217.275 186.735 216.752C187.236 216.23 187.818 215.824 188.479 215.536C189.14 215.248 189.855 215.104 190.623 215.104C191.167 215.104 191.695 215.19 192.207 215.36C192.73 215.52 193.199 215.75 193.615 216.048C194.042 216.336 194.388 216.667 194.655 217.04L193.503 218.24C193.194 217.931 192.879 217.675 192.559 217.472C192.25 217.259 191.93 217.099 191.599 216.992C191.279 216.886 190.954 216.832 190.623 216.832C190.1 216.832 189.61 216.934 189.151 217.136C188.703 217.328 188.308 217.6 187.967 217.952C187.636 218.304 187.375 218.726 187.183 219.216C186.991 219.696 186.895 220.224 186.895 220.8C186.895 221.408 186.986 221.963 187.167 222.464C187.359 222.955 187.626 223.376 187.967 223.728C188.308 224.08 188.714 224.352 189.183 224.544C189.663 224.726 190.191 224.816 190.767 224.816C191.119 224.816 191.466 224.768 191.807 224.672C192.148 224.576 192.468 224.438 192.767 224.256C193.066 224.075 193.338 223.862 193.583 223.616L194.447 225.024C194.202 225.312 193.866 225.574 193.439 225.808C193.023 226.043 192.554 226.23 192.031 226.368C191.519 226.496 191.002 226.56 190.479 226.56ZM198.81 226.56C198.117 226.56 197.482 226.368 196.906 225.984C196.341 225.6 195.888 225.078 195.546 224.416C195.205 223.755 195.034 223.008 195.034 222.176C195.034 221.334 195.205 220.587 195.546 219.936C195.898 219.275 196.368 218.758 196.954 218.384C197.552 218.011 198.218 217.824 198.954 217.824C199.392 217.824 199.792 217.888 200.154 218.016C200.517 218.144 200.832 218.326 201.098 218.56C201.376 218.784 201.6 219.046 201.77 219.344C201.952 219.643 202.064 219.963 202.106 220.304L201.738 220.176V218H203.402V226.4H201.738V224.4L202.122 224.288C202.058 224.576 201.925 224.859 201.722 225.136C201.53 225.403 201.28 225.643 200.97 225.856C200.672 226.07 200.336 226.24 199.962 226.368C199.6 226.496 199.216 226.56 198.81 226.56ZM199.242 225.04C199.744 225.04 200.186 224.918 200.57 224.672C200.954 224.427 201.253 224.091 201.466 223.664C201.69 223.227 201.802 222.731 201.802 222.176C201.802 221.632 201.69 221.147 201.466 220.72C201.253 220.294 200.954 219.958 200.57 219.712C200.186 219.467 199.744 219.344 199.242 219.344C198.752 219.344 198.314 219.467 197.93 219.712C197.557 219.958 197.258 220.294 197.034 220.72C196.821 221.147 196.714 221.632 196.714 222.176C196.714 222.731 196.821 223.227 197.034 223.664C197.258 224.091 197.557 224.427 197.93 224.672C198.314 224.918 198.752 225.04 199.242 225.04ZM204.871 226.4V218H206.535V219.792L206.231 219.984C206.317 219.707 206.45 219.44 206.631 219.184C206.823 218.928 207.053 218.704 207.319 218.512C207.597 218.31 207.89 218.15 208.199 218.032C208.519 217.915 208.845 217.856 209.175 217.856C209.655 217.856 210.077 217.936 210.439 218.096C210.802 218.256 211.101 218.496 211.335 218.816C211.57 219.136 211.741 219.536 211.847 220.016L211.591 219.952L211.703 219.68C211.821 219.435 211.981 219.206 212.183 218.992C212.397 218.768 212.637 218.571 212.903 218.4C213.17 218.23 213.453 218.096 213.751 218C214.05 217.904 214.343 217.856 214.631 217.856C215.261 217.856 215.778 217.984 216.183 218.24C216.599 218.496 216.909 218.886 217.111 219.408C217.325 219.931 217.431 220.582 217.431 221.36V226.4H215.767V221.456C215.767 220.976 215.703 220.587 215.575 220.288C215.458 219.979 215.277 219.75 215.031 219.6C214.786 219.451 214.471 219.376 214.087 219.376C213.789 219.376 213.506 219.43 213.239 219.536C212.983 219.632 212.759 219.771 212.567 219.952C212.375 220.134 212.226 220.347 212.119 220.592C212.013 220.827 211.959 221.088 211.959 221.376V226.4H210.295V221.424C210.295 220.987 210.231 220.619 210.103 220.32C209.975 220.011 209.789 219.776 209.543 219.616C209.298 219.456 208.999 219.376 208.647 219.376C208.349 219.376 208.071 219.43 207.815 219.536C207.559 219.632 207.335 219.771 207.143 219.952C206.951 220.123 206.802 220.331 206.695 220.576C206.589 220.811 206.535 221.067 206.535 221.344V226.4H204.871ZM218.838 229.92V218H220.502V219.92L220.246 219.776C220.31 219.456 220.491 219.152 220.79 218.864C221.088 218.566 221.451 218.326 221.878 218.144C222.315 217.952 222.763 217.856 223.222 217.856C223.979 217.856 224.651 218.043 225.238 218.416C225.824 218.79 226.288 219.302 226.63 219.952C226.971 220.603 227.142 221.35 227.142 222.192C227.142 223.024 226.971 223.771 226.63 224.432C226.299 225.083 225.84 225.6 225.254 225.984C224.667 226.358 224.006 226.544 223.27 226.544C222.779 226.544 222.304 226.448 221.846 226.256C221.387 226.054 220.998 225.798 220.678 225.488C220.358 225.179 220.16 224.859 220.086 224.528L220.502 224.304V229.92H218.838ZM222.998 225.024C223.488 225.024 223.926 224.902 224.31 224.656C224.694 224.411 224.998 224.075 225.222 223.648C225.446 223.222 225.558 222.736 225.558 222.192C225.558 221.648 225.446 221.168 225.222 220.752C225.008 220.326 224.71 219.99 224.326 219.744C223.942 219.499 223.499 219.376 222.998 219.376C222.496 219.376 222.054 219.499 221.67 219.744C221.286 219.979 220.982 220.31 220.758 220.736C220.534 221.163 220.422 221.648 220.422 222.192C220.422 222.736 220.534 223.222 220.758 223.648C220.982 224.075 221.286 224.411 221.67 224.656C222.054 224.902 222.496 225.024 222.998 225.024ZM231.076 226.56C230.478 226.56 229.956 226.422 229.508 226.144C229.07 225.867 228.729 225.478 228.484 224.976C228.249 224.475 228.132 223.878 228.132 223.184V218H229.78V222.736C229.78 223.227 229.854 223.654 230.004 224.016C230.164 224.368 230.388 224.64 230.676 224.832C230.974 225.024 231.332 225.12 231.748 225.12C232.057 225.12 232.34 225.072 232.596 224.976C232.852 224.87 233.07 224.726 233.252 224.544C233.444 224.363 233.593 224.144 233.7 223.888C233.806 223.632 233.86 223.355 233.86 223.056V218H235.508V226.4H233.86V224.64L234.148 224.448C234.02 224.843 233.801 225.2 233.492 225.52C233.193 225.84 232.836 226.096 232.42 226.288C232.004 226.47 231.556 226.56 231.076 226.56ZM239.819 226.56C239.115 226.56 238.48 226.438 237.915 226.192C237.35 225.947 236.88 225.584 236.507 225.104L237.627 224.144C237.947 224.518 238.294 224.79 238.667 224.96C239.051 225.12 239.483 225.2 239.963 225.2C240.155 225.2 240.331 225.179 240.491 225.136C240.662 225.083 240.806 225.008 240.923 224.912C241.051 224.816 241.147 224.704 241.211 224.576C241.275 224.438 241.307 224.288 241.307 224.128C241.307 223.851 241.206 223.627 241.003 223.456C240.896 223.382 240.726 223.302 240.491 223.216C240.267 223.12 239.974 223.024 239.611 222.928C238.992 222.768 238.486 222.587 238.091 222.384C237.696 222.182 237.392 221.952 237.179 221.696C237.019 221.494 236.902 221.275 236.827 221.04C236.752 220.795 236.715 220.528 236.715 220.24C236.715 219.888 236.79 219.568 236.939 219.28C237.099 218.982 237.312 218.726 237.579 218.512C237.856 218.288 238.176 218.118 238.539 218C238.912 217.883 239.307 217.824 239.723 217.824C240.118 217.824 240.507 217.878 240.891 217.984C241.286 218.091 241.648 218.246 241.979 218.448C242.31 218.651 242.587 218.891 242.811 219.168L241.867 220.208C241.664 220.006 241.44 219.83 241.195 219.68C240.96 219.52 240.72 219.398 240.475 219.312C240.23 219.227 240.006 219.184 239.803 219.184C239.579 219.184 239.376 219.206 239.195 219.248C239.014 219.291 238.859 219.355 238.731 219.44C238.614 219.526 238.523 219.632 238.459 219.76C238.395 219.888 238.363 220.032 238.363 220.192C238.374 220.331 238.406 220.464 238.459 220.592C238.523 220.71 238.608 220.811 238.715 220.896C238.832 220.982 239.008 221.072 239.243 221.168C239.478 221.264 239.776 221.355 240.139 221.44C240.672 221.579 241.11 221.734 241.451 221.904C241.803 222.064 242.08 222.251 242.283 222.464C242.496 222.667 242.646 222.902 242.731 223.168C242.816 223.435 242.859 223.734 242.859 224.064C242.859 224.544 242.72 224.976 242.443 225.36C242.176 225.734 241.814 226.027 241.355 226.24C240.896 226.454 240.384 226.56 239.819 226.56Z" fill="#609CFF"/>
<path d="M249.176 222.944C248.781 222.944 248.418 222.848 248.088 222.656C247.757 222.464 247.49 222.203 247.288 221.872C247.096 221.542 247 221.179 247 220.784C247 220.379 247.096 220.011 247.288 219.68C247.48 219.35 247.741 219.088 248.072 218.896C248.402 218.694 248.77 218.592 249.176 218.592C249.581 218.592 249.949 218.694 250.28 218.896C250.61 219.088 250.872 219.35 251.064 219.68C251.266 220.011 251.368 220.379 251.368 220.784C251.368 221.179 251.266 221.542 251.064 221.872C250.872 222.203 250.61 222.464 250.28 222.656C249.949 222.848 249.581 222.944 249.176 222.944ZM262.604 226.56C262.241 226.56 261.894 226.512 261.564 226.416C261.233 226.32 260.924 226.182 260.636 226C260.358 225.819 260.108 225.606 259.884 225.36C259.66 225.104 259.468 224.827 259.308 224.528L260.396 223.392C260.62 223.712 260.822 223.968 261.004 224.16C261.196 224.352 261.377 224.502 261.548 224.608C261.718 224.715 261.889 224.79 262.06 224.832C262.23 224.864 262.412 224.88 262.604 224.88C262.988 224.88 263.324 224.795 263.612 224.624C263.9 224.443 264.124 224.198 264.284 223.888C264.444 223.579 264.524 223.227 264.524 222.832V216.8H262.476V215.2H267.98V216.8H266.252V222.992C266.252 223.504 266.161 223.979 265.98 224.416C265.809 224.843 265.558 225.216 265.228 225.536C264.908 225.856 264.524 226.107 264.076 226.288C263.638 226.47 263.148 226.56 262.604 226.56ZM269.125 226.4V224.8H270.933V216.8H269.125V215.2H274.469V216.8H272.661V224.8H274.469V226.4H269.125ZM279.838 226.56C279.23 226.56 278.665 226.48 278.142 226.32C277.63 226.16 277.161 225.92 276.734 225.6C276.318 225.27 275.945 224.864 275.614 224.384L276.798 223.024C277.321 223.771 277.822 224.288 278.302 224.576C278.782 224.864 279.353 225.008 280.014 225.008C280.419 225.008 280.787 224.944 281.118 224.816C281.449 224.688 281.71 224.512 281.902 224.288C282.094 224.064 282.19 223.808 282.19 223.52C282.19 223.328 282.158 223.147 282.094 222.976C282.03 222.806 281.929 222.651 281.79 222.512C281.662 222.374 281.491 222.246 281.278 222.128C281.075 222.011 280.835 221.91 280.558 221.824C280.281 221.728 279.961 221.648 279.598 221.584C279.022 221.467 278.521 221.312 278.094 221.12C277.667 220.928 277.31 220.688 277.022 220.4C276.734 220.112 276.521 219.787 276.382 219.424C276.243 219.051 276.174 218.635 276.174 218.176C276.174 217.728 276.27 217.312 276.462 216.928C276.665 216.544 276.937 216.214 277.278 215.936C277.63 215.648 278.041 215.43 278.51 215.28C278.979 215.12 279.486 215.04 280.03 215.04C280.606 215.04 281.134 215.115 281.614 215.264C282.094 215.414 282.521 215.638 282.894 215.936C283.267 216.224 283.577 216.582 283.822 217.008L282.606 218.208C282.393 217.856 282.153 217.563 281.886 217.328C281.619 217.083 281.326 216.902 281.006 216.784C280.686 216.656 280.345 216.592 279.982 216.592C279.566 216.592 279.203 216.656 278.894 216.784C278.585 216.912 278.339 217.094 278.158 217.328C277.987 217.552 277.902 217.819 277.902 218.128C277.902 218.352 277.945 218.56 278.03 218.752C278.115 218.934 278.243 219.099 278.414 219.248C278.595 219.387 278.835 219.515 279.134 219.632C279.433 219.739 279.79 219.835 280.206 219.92C280.793 220.048 281.315 220.214 281.774 220.416C282.233 220.608 282.622 220.838 282.942 221.104C283.262 221.371 283.502 221.67 283.662 222C283.833 222.331 283.918 222.688 283.918 223.072C283.918 223.787 283.753 224.406 283.422 224.928C283.091 225.451 282.622 225.856 282.014 226.144C281.406 226.422 280.681 226.56 279.838 226.56ZM293.603 226.496C292.739 226.496 291.965 226.31 291.283 225.936C290.6 225.552 290.061 225.03 289.667 224.368C289.283 223.696 289.091 222.939 289.091 222.096V215.184H290.819V221.952C290.819 222.496 290.947 222.987 291.203 223.424C291.459 223.851 291.795 224.192 292.211 224.448C292.637 224.704 293.101 224.832 293.603 224.832C294.136 224.832 294.616 224.704 295.043 224.448C295.48 224.192 295.827 223.851 296.083 223.424C296.339 222.987 296.467 222.496 296.467 221.952V215.184H298.115V222.096C298.115 222.939 297.917 223.696 297.523 224.368C297.139 225.03 296.605 225.552 295.923 225.936C295.24 226.31 294.467 226.496 293.603 226.496ZM299.879 226.4V218H301.527V219.728L301.239 219.92C301.345 219.547 301.553 219.206 301.863 218.896C302.172 218.576 302.54 218.32 302.967 218.128C303.393 217.926 303.831 217.824 304.279 217.824C304.919 217.824 305.452 217.952 305.879 218.208C306.305 218.454 306.625 218.832 306.839 219.344C307.052 219.856 307.159 220.502 307.159 221.28V226.4H305.511V221.392C305.511 220.912 305.447 220.518 305.319 220.208C305.191 219.888 304.993 219.659 304.727 219.52C304.46 219.371 304.129 219.307 303.735 219.328C303.415 219.328 303.121 219.382 302.855 219.488C302.588 219.584 302.353 219.723 302.151 219.904C301.959 220.086 301.804 220.299 301.687 220.544C301.58 220.779 301.527 221.035 301.527 221.312V226.4H300.711C300.572 226.4 300.433 226.4 300.295 226.4C300.156 226.4 300.017 226.4 299.879 226.4ZM308.866 226.4V218H310.514V226.4H308.866ZM309.666 216.144C309.314 216.144 309.042 216.054 308.85 215.872C308.658 215.691 308.562 215.435 308.562 215.104C308.562 214.795 308.658 214.544 308.85 214.352C309.053 214.16 309.325 214.064 309.666 214.064C310.018 214.064 310.29 214.155 310.482 214.336C310.674 214.518 310.77 214.774 310.77 215.104C310.77 215.414 310.669 215.664 310.466 215.856C310.274 216.048 310.008 216.144 309.666 216.144ZM314.999 226.4L311.447 218H313.223L315.783 224.288L315.479 224.432L318.215 218H319.911L316.183 226.4H314.999ZM324.305 226.56C323.441 226.56 322.673 226.379 322.001 226.016C321.34 225.643 320.817 225.136 320.433 224.496C320.06 223.856 319.873 223.12 319.873 222.288C319.873 221.627 319.98 221.024 320.193 220.48C320.406 219.936 320.7 219.467 321.073 219.072C321.457 218.667 321.91 218.358 322.433 218.144C322.966 217.92 323.542 217.808 324.161 217.808C324.705 217.808 325.212 217.915 325.681 218.128C326.15 218.331 326.556 218.614 326.897 218.976C327.249 219.339 327.516 219.771 327.697 220.272C327.889 220.763 327.98 221.302 327.969 221.888L327.953 222.592H321.089L320.721 221.28H326.529L326.289 221.552V221.168C326.257 220.816 326.14 220.502 325.937 220.224C325.734 219.947 325.478 219.728 325.169 219.568C324.86 219.408 324.524 219.328 324.161 219.328C323.585 219.328 323.1 219.44 322.705 219.664C322.31 219.878 322.012 220.198 321.809 220.624C321.606 221.04 321.505 221.558 321.505 222.176C321.505 222.763 321.628 223.275 321.873 223.712C322.118 224.139 322.465 224.47 322.913 224.704C323.361 224.939 323.878 225.056 324.465 225.056C324.881 225.056 325.265 224.987 325.617 224.848C325.98 224.71 326.369 224.459 326.785 224.096L327.617 225.264C327.361 225.52 327.046 225.744 326.673 225.936C326.31 226.128 325.921 226.283 325.505 226.4C325.1 226.507 324.7 226.56 324.305 226.56ZM328.96 226.4V218H330.624V220.64L330.464 220C330.581 219.595 330.779 219.227 331.056 218.896C331.344 218.566 331.669 218.304 332.032 218.112C332.405 217.92 332.789 217.824 333.184 217.824C333.365 217.824 333.536 217.84 333.696 217.872C333.867 217.904 334 217.942 334.096 217.984L333.664 219.776C333.536 219.723 333.392 219.68 333.232 219.648C333.083 219.606 332.933 219.584 332.784 219.584C332.496 219.584 332.219 219.643 331.952 219.76C331.696 219.867 331.467 220.022 331.264 220.224C331.072 220.416 330.917 220.646 330.8 220.912C330.683 221.168 330.624 221.451 330.624 221.76V226.4H328.96ZM337.413 226.56C336.709 226.56 336.074 226.438 335.509 226.192C334.944 225.947 334.474 225.584 334.101 225.104L335.221 224.144C335.541 224.518 335.888 224.79 336.261 224.96C336.645 225.12 337.077 225.2 337.557 225.2C337.749 225.2 337.925 225.179 338.085 225.136C338.256 225.083 338.4 225.008 338.517 224.912C338.645 224.816 338.741 224.704 338.805 224.576C338.869 224.438 338.901 224.288 338.901 224.128C338.901 223.851 338.8 223.627 338.597 223.456C338.49 223.382 338.32 223.302 338.085 223.216C337.861 223.12 337.568 223.024 337.205 222.928C336.586 222.768 336.08 222.587 335.685 222.384C335.29 222.182 334.986 221.952 334.773 221.696C334.613 221.494 334.496 221.275 334.421 221.04C334.346 220.795 334.309 220.528 334.309 220.24C334.309 219.888 334.384 219.568 334.533 219.28C334.693 218.982 334.906 218.726 335.173 218.512C335.45 218.288 335.77 218.118 336.133 218C336.506 217.883 336.901 217.824 337.317 217.824C337.712 217.824 338.101 217.878 338.485 217.984C338.88 218.091 339.242 218.246 339.573 218.448C339.904 218.651 340.181 218.891 340.405 219.168L339.461 220.208C339.258 220.006 339.034 219.83 338.789 219.68C338.554 219.52 338.314 219.398 338.069 219.312C337.824 219.227 337.6 219.184 337.397 219.184C337.173 219.184 336.97 219.206 336.789 219.248C336.608 219.291 336.453 219.355 336.325 219.44C336.208 219.526 336.117 219.632 336.053 219.76C335.989 219.888 335.957 220.032 335.957 220.192C335.968 220.331 336 220.464 336.053 220.592C336.117 220.71 336.202 220.811 336.309 220.896C336.426 220.982 336.602 221.072 336.837 221.168C337.072 221.264 337.37 221.355 337.733 221.44C338.266 221.579 338.704 221.734 339.045 221.904C339.397 222.064 339.674 222.251 339.877 222.464C340.09 222.667 340.24 222.902 340.325 223.168C340.41 223.435 340.453 223.734 340.453 224.064C340.453 224.544 340.314 224.976 340.037 225.36C339.77 225.734 339.408 226.027 338.949 226.24C338.49 226.454 337.978 226.56 337.413 226.56ZM341.741 226.4V218H343.389V226.4H341.741ZM342.541 216.144C342.189 216.144 341.917 216.054 341.725 215.872C341.533 215.691 341.437 215.435 341.437 215.104C341.437 214.795 341.533 214.544 341.725 214.352C341.928 214.16 342.2 214.064 342.541 214.064C342.893 214.064 343.165 214.155 343.357 214.336C343.549 214.518 343.645 214.774 343.645 215.104C343.645 215.414 343.544 215.664 343.341 215.856C343.149 216.048 342.883 216.144 342.541 216.144ZM346.162 226.4V215.856H347.81V226.4H346.162ZM344.418 219.6V218H349.762V219.6H344.418ZM351.871 230.08L353.567 226.16L353.583 227.472L349.391 218H351.311L353.935 224.176C353.988 224.283 354.052 224.448 354.127 224.672C354.202 224.886 354.266 225.099 354.319 225.312L353.903 225.408C353.988 225.184 354.068 224.96 354.143 224.736C354.228 224.512 354.308 224.288 354.383 224.064L356.575 218H358.527L355.071 226.4L353.647 230.08H351.871ZM362.9 229.264L362.292 228.528C362.666 228.315 362.97 228.07 363.204 227.792C363.439 227.515 363.556 227.275 363.556 227.072C363.556 226.966 363.53 226.859 363.476 226.752C363.423 226.656 363.311 226.518 363.14 226.336C362.927 226.134 362.788 225.963 362.724 225.824C362.66 225.686 362.628 225.536 362.628 225.376C362.628 225.12 362.719 224.918 362.9 224.768C363.082 224.608 363.316 224.528 363.604 224.528C363.871 224.528 364.111 224.608 364.324 224.768C364.548 224.918 364.719 225.131 364.836 225.408C364.964 225.675 365.028 225.984 365.028 226.336C365.028 226.656 364.975 226.966 364.868 227.264C364.762 227.563 364.612 227.84 364.42 228.096C364.228 228.352 364.004 228.582 363.748 228.784C363.492 228.987 363.21 229.147 362.9 229.264ZM371.65 223.008L371.554 221.072L377.426 215.2H379.698L371.65 223.008ZM370.21 226.4V215.2H371.938V226.4H370.21ZM377.634 226.4L373.346 220.672L374.626 219.568L379.794 226.4H377.634ZM383.77 226.56C382.949 226.56 382.213 226.374 381.562 226C380.922 225.616 380.416 225.099 380.042 224.448C379.669 223.787 379.482 223.035 379.482 222.192C379.482 221.35 379.669 220.603 380.042 219.952C380.416 219.291 380.922 218.774 381.562 218.4C382.213 218.016 382.949 217.824 383.77 217.824C384.581 217.824 385.306 218.016 385.946 218.4C386.597 218.774 387.109 219.291 387.482 219.952C387.856 220.603 388.042 221.35 388.042 222.192C388.042 223.035 387.856 223.787 387.482 224.448C387.109 225.099 386.597 225.616 385.946 226C385.306 226.374 384.581 226.56 383.77 226.56ZM383.77 225.056C384.272 225.056 384.72 224.934 385.114 224.688C385.509 224.432 385.818 224.091 386.042 223.664C386.266 223.227 386.373 222.736 386.362 222.192C386.373 221.638 386.266 221.147 386.042 220.72C385.818 220.283 385.509 219.942 385.114 219.696C384.72 219.451 384.272 219.328 383.77 219.328C383.269 219.328 382.816 219.456 382.41 219.712C382.016 219.958 381.706 220.299 381.482 220.736C381.258 221.163 381.152 221.648 381.162 222.192C381.152 222.736 381.258 223.227 381.482 223.664C381.706 224.091 382.016 224.432 382.41 224.688C382.816 224.934 383.269 225.056 383.77 225.056ZM389.07 226.4V214.56H390.718V226.4H389.07ZM393.758 223.776L393.678 221.984L397.694 218H399.918L393.758 223.776ZM392.254 226.4V214.56H393.902V226.4H392.254ZM397.918 226.4L394.75 222.704L395.918 221.632L400.03 226.4H397.918ZM403.42 226.56C402.727 226.56 402.092 226.368 401.516 225.984C400.951 225.6 400.498 225.078 400.156 224.416C399.815 223.755 399.644 223.008 399.644 222.176C399.644 221.334 399.815 220.587 400.156 219.936C400.508 219.275 400.978 218.758 401.564 218.384C402.162 218.011 402.828 217.824 403.564 217.824C404.002 217.824 404.402 217.888 404.764 218.016C405.127 218.144 405.442 218.326 405.708 218.56C405.986 218.784 406.21 219.046 406.38 219.344C406.562 219.643 406.674 219.963 406.716 220.304L406.348 220.176V218H408.012V226.4H406.348V224.4L406.732 224.288C406.668 224.576 406.535 224.859 406.332 225.136C406.14 225.403 405.89 225.643 405.58 225.856C405.282 226.07 404.946 226.24 404.572 226.368C404.21 226.496 403.826 226.56 403.42 226.56ZM403.852 225.04C404.354 225.04 404.796 224.918 405.18 224.672C405.564 224.427 405.863 224.091 406.076 223.664C406.3 223.227 406.412 222.731 406.412 222.176C406.412 221.632 406.3 221.147 406.076 220.72C405.863 220.294 405.564 219.958 405.18 219.712C404.796 219.467 404.354 219.344 403.852 219.344C403.362 219.344 402.924 219.467 402.54 219.712C402.167 219.958 401.868 220.294 401.644 220.72C401.431 221.147 401.324 221.632 401.324 222.176C401.324 222.731 401.431 223.227 401.644 223.664C401.868 224.091 402.167 224.427 402.54 224.672C402.924 224.918 403.362 225.04 403.852 225.04ZM410.553 226.4V215.856H412.201V226.4H410.553ZM408.809 219.6V218H414.153V219.6H408.809ZM418.008 226.56C417.314 226.56 416.68 226.368 416.104 225.984C415.538 225.6 415.085 225.078 414.744 224.416C414.402 223.755 414.232 223.008 414.232 222.176C414.232 221.334 414.402 220.587 414.744 219.936C415.096 219.275 415.565 218.758 416.152 218.384C416.749 218.011 417.416 217.824 418.152 217.824C418.589 217.824 418.989 217.888 419.352 218.016C419.714 218.144 420.029 218.326 420.296 218.56C420.573 218.784 420.797 219.046 420.968 219.344C421.149 219.643 421.261 219.963 421.304 220.304L420.936 220.176V218H422.6V226.4H420.936V224.4L421.32 224.288C421.256 224.576 421.122 224.859 420.92 225.136C420.728 225.403 420.477 225.643 420.168 225.856C419.869 226.07 419.533 226.24 419.16 226.368C418.797 226.496 418.413 226.56 418.008 226.56ZM418.44 225.04C418.941 225.04 419.384 224.918 419.768 224.672C420.152 224.427 420.45 224.091 420.664 223.664C420.888 223.227 421 222.731 421 222.176C421 221.632 420.888 221.147 420.664 220.72C420.45 220.294 420.152 219.958 419.768 219.712C419.384 219.467 418.941 219.344 418.44 219.344C417.949 219.344 417.512 219.467 417.128 219.712C416.754 219.958 416.456 220.294 416.232 220.72C416.018 221.147 415.912 221.632 415.912 222.176C415.912 222.731 416.018 223.227 416.232 223.664C416.456 224.091 416.754 224.427 417.128 224.672C417.512 224.918 417.949 225.04 418.44 225.04Z" fill="#666666"/>
</svg>
