<svg width="584" height="311" viewBox="0 0 584 311" fill="none" xmlns="http://www.w3.org/2000/svg">
<rect x="-0.448398" y="1.63675" width="60.5213" height="19.1176" rx="9.5588" transform="matrix(-0.868809 0.495148 0.495144 0.868811 277.517 81.4367)" fill="#EF5350" stroke="#EF5350" stroke-width="2.40001"/>
<rect x="-0.448398" y="1.63675" width="60.5213" height="19.1176" rx="9.5588" transform="matrix(-0.868809 0.495148 0.495144 0.868811 347.862 101.987)" fill="#FBBC04" stroke="#FBBC04" stroke-width="2.40001"/>
<rect x="0.448398" y="1.63675" width="60.5213" height="19.1176" rx="9.5588" transform="matrix(0.868809 0.495148 -0.495144 0.868811 236.022 101.543)" fill="#4285F4" stroke="#4285F4" stroke-width="2.40001"/>
<path d="M353.795 120.909C351.181 125.495 345.344 127.094 340.757 124.48L304.785 103.979C300.199 101.365 298.6 95.5282 301.214 90.9416C303.827 86.355 309.665 84.7558 314.251 87.3698L350.223 107.871C354.81 110.485 356.409 116.322 353.795 120.909Z" fill="#4CAF50" stroke="#4CAF50" stroke-width="2.40001"/>
<path d="M110.638 201.744C108.895 201.744 107.267 201.435 105.754 200.816C104.24 200.174 102.91 199.291 101.763 198.167C100.617 197.043 99.7221 195.736 99.08 194.245C98.4608 192.732 98.1512 191.103 98.1512 189.36C98.1512 187.64 98.4608 186.035 99.08 184.544C99.7221 183.054 100.605 181.758 101.729 180.657C102.875 179.533 104.206 178.662 105.719 178.043C107.233 177.424 108.861 177.114 110.604 177.114C111.82 177.114 113.001 177.286 114.147 177.63C115.317 177.974 116.372 178.456 117.312 179.075C118.252 179.694 119.021 180.405 119.617 181.208L117.209 183.719C116.521 183.054 115.81 182.503 115.076 182.068C114.365 181.632 113.631 181.299 112.874 181.07C112.118 180.841 111.361 180.726 110.604 180.726C109.366 180.726 108.219 180.944 107.164 181.38C106.132 181.815 105.215 182.423 104.412 183.203C103.632 183.983 103.025 184.9 102.589 185.955C102.153 186.987 101.935 188.122 101.935 189.36C101.935 190.553 102.165 191.688 102.623 192.766C103.082 193.821 103.713 194.75 104.515 195.552C105.341 196.355 106.281 196.986 107.336 197.444C108.414 197.903 109.549 198.132 110.742 198.132C111.636 198.132 112.485 198.006 113.287 197.754C114.09 197.479 114.801 197.1 115.42 196.619C116.039 196.137 116.521 195.587 116.865 194.968C117.209 194.325 117.381 193.649 117.381 192.938V192.25L117.897 192.732H110.535V189.051H121.199C121.245 189.303 121.28 189.555 121.302 189.808C121.325 190.037 121.337 190.266 121.337 190.496C121.36 190.702 121.371 190.908 121.371 191.115C121.371 192.697 121.096 194.142 120.546 195.449C119.995 196.734 119.227 197.846 118.241 198.786C117.278 199.726 116.142 200.46 114.835 200.988C113.551 201.492 112.152 201.744 110.638 201.744ZM131.713 201.744C129.947 201.744 128.365 201.343 126.966 200.54C125.59 199.715 124.5 198.603 123.698 197.204C122.895 195.782 122.494 194.165 122.494 192.353C122.494 190.541 122.895 188.936 123.698 187.537C124.5 186.115 125.59 185.003 126.966 184.2C128.365 183.375 129.947 182.962 131.713 182.962C133.456 182.962 135.015 183.375 136.391 184.2C137.79 185.003 138.891 186.115 139.694 187.537C140.496 188.936 140.898 190.541 140.898 192.353C140.898 194.165 140.496 195.782 139.694 197.204C138.891 198.603 137.79 199.715 136.391 200.54C135.015 201.343 133.456 201.744 131.713 201.744ZM131.713 198.511C132.791 198.511 133.754 198.247 134.602 197.72C135.451 197.169 136.116 196.435 136.598 195.518C137.079 194.578 137.309 193.523 137.286 192.353C137.309 191.161 137.079 190.106 136.598 189.188C136.116 188.248 135.451 187.514 134.602 186.987C133.754 186.459 132.791 186.196 131.713 186.196C130.635 186.196 129.66 186.471 128.789 187.021C127.94 187.549 127.275 188.283 126.794 189.223C126.312 190.14 126.083 191.184 126.106 192.353C126.083 193.523 126.312 194.578 126.794 195.518C127.275 196.435 127.94 197.169 128.789 197.72C129.66 198.247 130.635 198.511 131.713 198.511ZM151.157 201.744C149.391 201.744 147.809 201.343 146.41 200.54C145.034 199.715 143.944 198.603 143.142 197.204C142.339 195.782 141.938 194.165 141.938 192.353C141.938 190.541 142.339 188.936 143.142 187.537C143.944 186.115 145.034 185.003 146.41 184.2C147.809 183.375 149.391 182.962 151.157 182.962C152.9 182.962 154.459 183.375 155.835 184.2C157.234 185.003 158.335 186.115 159.138 187.537C159.94 188.936 160.342 190.541 160.342 192.353C160.342 194.165 159.94 195.782 159.138 197.204C158.335 198.603 157.234 199.715 155.835 200.54C154.459 201.343 152.9 201.744 151.157 201.744ZM151.157 198.511C152.235 198.511 153.198 198.247 154.047 197.72C154.895 197.169 155.56 196.435 156.042 195.518C156.523 194.578 156.753 193.523 156.73 192.353C156.753 191.161 156.523 190.106 156.042 189.188C155.56 188.248 154.895 187.514 154.047 186.987C153.198 186.459 152.235 186.196 151.157 186.196C150.079 186.196 149.104 186.471 148.233 187.021C147.384 187.549 146.719 188.283 146.238 189.223C145.756 190.14 145.527 191.184 145.55 192.353C145.527 193.523 145.756 194.578 146.238 195.518C146.719 196.435 147.384 197.169 148.233 197.72C149.104 198.247 150.079 198.511 151.157 198.511ZM170.567 209.312C169.282 209.312 167.998 209.106 166.714 208.693C165.452 208.303 164.432 207.787 163.652 207.145L164.959 204.393C165.418 204.737 165.957 205.035 166.576 205.288C167.195 205.563 167.849 205.769 168.537 205.907C169.225 206.067 169.902 206.148 170.567 206.148C171.828 206.148 172.883 205.941 173.731 205.528C174.58 205.116 175.222 204.508 175.658 203.705C176.094 202.903 176.311 201.905 176.311 200.712V197.238L176.69 197.479C176.575 198.19 176.197 198.878 175.555 199.543C174.935 200.185 174.156 200.712 173.215 201.125C172.275 201.538 171.312 201.744 170.326 201.744C168.606 201.744 167.069 201.343 165.716 200.54C164.386 199.715 163.331 198.603 162.551 197.204C161.772 195.782 161.382 194.165 161.382 192.353C161.382 190.541 161.76 188.936 162.517 187.537C163.297 186.115 164.352 185.003 165.682 184.2C167.035 183.375 168.548 182.962 170.223 182.962C170.911 182.962 171.576 183.054 172.218 183.237C172.86 183.398 173.456 183.639 174.007 183.96C174.557 184.258 175.05 184.59 175.486 184.957C175.922 185.324 176.277 185.714 176.552 186.127C176.827 186.54 176.999 186.929 177.068 187.296L176.311 187.572V183.34H179.855V200.3C179.855 201.744 179.637 203.017 179.201 204.118C178.788 205.242 178.181 206.182 177.378 206.939C176.575 207.719 175.6 208.303 174.454 208.693C173.307 209.106 172.011 209.312 170.567 209.312ZM170.704 198.476C171.828 198.476 172.826 198.213 173.697 197.685C174.568 197.158 175.245 196.435 175.727 195.518C176.208 194.601 176.449 193.546 176.449 192.353C176.449 191.161 176.197 190.106 175.692 189.188C175.211 188.248 174.534 187.514 173.663 186.987C172.814 186.459 171.828 186.196 170.704 186.196C169.603 186.196 168.617 186.471 167.746 187.021C166.897 187.549 166.221 188.283 165.716 189.223C165.235 190.14 164.994 191.184 164.994 192.353C164.994 193.523 165.235 194.578 165.716 195.518C166.221 196.435 166.897 197.158 167.746 197.685C168.617 198.213 169.603 198.476 170.704 198.476ZM183.171 201.4V175.944H186.715V201.4H183.171ZM198.108 201.744C196.251 201.744 194.599 201.355 193.155 200.575C191.733 199.772 190.609 198.683 189.783 197.307C188.981 195.931 188.579 194.348 188.579 192.56C188.579 191.138 188.809 189.842 189.267 188.672C189.726 187.503 190.357 186.494 191.159 185.645C191.985 184.774 192.96 184.109 194.083 183.65C195.23 183.168 196.468 182.928 197.799 182.928C198.968 182.928 200.058 183.157 201.067 183.616C202.076 184.051 202.947 184.659 203.681 185.439C204.438 186.219 205.011 187.147 205.401 188.225C205.814 189.28 206.009 190.438 205.986 191.7L205.951 193.213H191.194L190.403 190.392H202.89L202.374 190.977V190.152C202.305 189.395 202.053 188.718 201.617 188.122C201.181 187.526 200.631 187.056 199.966 186.712C199.301 186.368 198.578 186.196 197.799 186.196C196.56 186.196 195.517 186.436 194.668 186.918C193.82 187.377 193.178 188.065 192.742 188.982C192.306 189.876 192.088 190.989 192.088 192.319C192.088 193.58 192.352 194.681 192.879 195.621C193.407 196.539 194.152 197.25 195.115 197.754C196.079 198.259 197.191 198.511 198.452 198.511C199.347 198.511 200.172 198.362 200.929 198.064C201.709 197.766 202.546 197.227 203.44 196.447L205.229 198.958C204.679 199.508 204.002 199.99 203.199 200.403C202.42 200.816 201.583 201.148 200.688 201.4C199.817 201.63 198.957 201.744 198.108 201.744ZM216.932 201.4V177.32H226.358C228.078 177.32 229.626 177.607 231.002 178.18C232.401 178.754 233.593 179.579 234.58 180.657C235.566 181.735 236.322 183.008 236.85 184.476C237.377 185.943 237.641 187.572 237.641 189.36C237.641 191.149 237.377 192.789 236.85 194.28C236.322 195.747 235.566 197.02 234.58 198.098C233.616 199.153 232.435 199.967 231.036 200.54C229.637 201.114 228.078 201.4 226.358 201.4H216.932ZM220.647 198.201L220.544 197.823H226.186C227.401 197.823 228.479 197.628 229.42 197.238C230.383 196.848 231.185 196.298 231.828 195.587C232.493 194.853 232.997 193.959 233.341 192.904C233.685 191.849 233.857 190.668 233.857 189.36C233.857 188.053 233.685 186.884 233.341 185.852C232.997 184.797 232.493 183.902 231.828 183.168C231.162 182.435 230.36 181.873 229.42 181.483C228.479 181.093 227.401 180.898 226.186 180.898H220.441L220.647 180.588V198.201ZM248.479 201.744C246.621 201.744 244.97 201.355 243.525 200.575C242.103 199.772 240.98 198.683 240.154 197.307C239.351 195.931 238.95 194.348 238.95 192.56C238.95 191.138 239.179 189.842 239.638 188.672C240.097 187.503 240.727 186.494 241.53 185.645C242.356 184.774 243.33 184.109 244.454 183.65C245.601 183.168 246.839 182.928 248.169 182.928C249.339 182.928 250.428 183.157 251.437 183.616C252.446 184.051 253.318 184.659 254.052 185.439C254.808 186.219 255.382 187.147 255.772 188.225C256.184 189.28 256.379 190.438 256.356 191.7L256.322 193.213H241.564L240.773 190.392H253.26L252.744 190.977V190.152C252.676 189.395 252.423 188.718 251.988 188.122C251.552 187.526 251.001 187.056 250.336 186.712C249.671 186.368 248.949 186.196 248.169 186.196C246.931 186.196 245.887 186.436 245.039 186.918C244.19 187.377 243.548 188.065 243.112 188.982C242.677 189.876 242.459 190.989 242.459 192.319C242.459 193.58 242.723 194.681 243.25 195.621C243.777 196.539 244.523 197.25 245.486 197.754C246.449 198.259 247.561 198.511 248.823 198.511C249.717 198.511 250.543 198.362 251.3 198.064C252.079 197.766 252.916 197.227 253.811 196.447L255.6 198.958C255.049 199.508 254.373 199.99 253.57 200.403C252.79 200.816 251.953 201.148 251.059 201.4C250.187 201.63 249.327 201.744 248.479 201.744ZM264.068 201.4L256.431 183.34H260.25L265.754 196.86L265.1 197.169L270.982 183.34H274.629L266.614 201.4H264.068ZM284.075 201.744C282.217 201.744 280.566 201.355 279.121 200.575C277.699 199.772 276.576 198.683 275.75 197.307C274.947 195.931 274.546 194.348 274.546 192.56C274.546 191.138 274.775 189.842 275.234 188.672C275.693 187.503 276.323 186.494 277.126 185.645C277.952 184.774 278.926 184.109 280.05 183.65C281.197 183.168 282.435 182.928 283.765 182.928C284.935 182.928 286.024 183.157 287.033 183.616C288.042 184.051 288.914 184.659 289.648 185.439C290.404 186.219 290.978 187.147 291.368 188.225C291.78 189.28 291.975 190.438 291.952 191.7L291.918 193.213H277.16L276.369 190.392H288.856L288.34 190.977V190.152C288.272 189.395 288.019 188.718 287.584 188.122C287.148 187.526 286.597 187.056 285.932 186.712C285.267 186.368 284.545 186.196 283.765 186.196C282.527 186.196 281.483 186.436 280.635 186.918C279.786 187.377 279.144 188.065 278.708 188.982C278.273 189.876 278.055 190.989 278.055 192.319C278.055 193.58 278.319 194.681 278.846 195.621C279.373 196.539 280.119 197.25 281.082 197.754C282.045 198.259 283.157 198.511 284.419 198.511C285.313 198.511 286.139 198.362 286.896 198.064C287.675 197.766 288.512 197.227 289.407 196.447L291.196 198.958C290.645 199.508 289.969 199.99 289.166 200.403C288.386 200.816 287.549 201.148 286.655 201.4C285.783 201.63 284.923 201.744 284.075 201.744ZM294.152 201.4V175.944H297.695V201.4H294.152ZM308.779 201.744C307.013 201.744 305.431 201.343 304.032 200.54C302.656 199.715 301.567 198.603 300.764 197.204C299.961 195.782 299.56 194.165 299.56 192.353C299.56 190.541 299.961 188.936 300.764 187.537C301.567 186.115 302.656 185.003 304.032 184.2C305.431 183.375 307.013 182.962 308.779 182.962C310.522 182.962 312.082 183.375 313.458 184.2C314.857 185.003 315.957 186.115 316.76 187.537C317.563 188.936 317.964 190.541 317.964 192.353C317.964 194.165 317.563 195.782 316.76 197.204C315.957 198.603 314.857 199.715 313.458 200.54C312.082 201.343 310.522 201.744 308.779 201.744ZM308.779 198.511C309.857 198.511 310.82 198.247 311.669 197.72C312.517 197.169 313.182 196.435 313.664 195.518C314.146 194.578 314.375 193.523 314.352 192.353C314.375 191.161 314.146 190.106 313.664 189.188C313.182 188.248 312.517 187.514 311.669 186.987C310.82 186.459 309.857 186.196 308.779 186.196C307.701 186.196 306.727 186.471 305.855 187.021C305.007 187.549 304.342 188.283 303.86 189.223C303.378 190.14 303.149 191.184 303.172 192.353C303.149 193.523 303.378 194.578 303.86 195.518C304.342 196.435 305.007 197.169 305.855 197.72C306.727 198.247 307.701 198.511 308.779 198.511ZM320.105 208.968V183.34H323.682V187.468L323.132 187.159C323.27 186.471 323.66 185.817 324.302 185.198C324.944 184.556 325.724 184.04 326.641 183.65C327.581 183.237 328.544 183.031 329.53 183.031C331.159 183.031 332.604 183.432 333.865 184.235C335.126 185.037 336.124 186.138 336.858 187.537C337.592 188.936 337.959 190.541 337.959 192.353C337.959 194.142 337.592 195.747 336.858 197.169C336.147 198.568 335.161 199.68 333.899 200.506C332.638 201.309 331.216 201.71 329.634 201.71C328.579 201.71 327.558 201.504 326.572 201.091C325.586 200.655 324.749 200.105 324.061 199.44C323.373 198.775 322.949 198.087 322.788 197.376L323.682 196.894V208.968H320.105ZM329.049 198.442C330.104 198.442 331.044 198.178 331.87 197.651C332.695 197.123 333.349 196.401 333.831 195.484C334.312 194.566 334.553 193.523 334.553 192.353C334.553 191.184 334.312 190.152 333.831 189.257C333.372 188.34 332.73 187.617 331.904 187.09C331.079 186.563 330.127 186.299 329.049 186.299C327.971 186.299 327.019 186.563 326.194 187.09C325.368 187.595 324.714 188.305 324.233 189.223C323.751 190.14 323.51 191.184 323.51 192.353C323.51 193.523 323.751 194.566 324.233 195.484C324.714 196.401 325.368 197.123 326.194 197.651C327.019 198.178 327.971 198.442 329.049 198.442ZM348.515 201.744C346.657 201.744 345.006 201.355 343.561 200.575C342.139 199.772 341.015 198.683 340.19 197.307C339.387 195.931 338.986 194.348 338.986 192.56C338.986 191.138 339.215 189.842 339.674 188.672C340.132 187.503 340.763 186.494 341.566 185.645C342.391 184.774 343.366 184.109 344.49 183.65C345.636 183.168 346.875 182.928 348.205 182.928C349.375 182.928 350.464 183.157 351.473 183.616C352.482 184.051 353.353 184.659 354.087 185.439C354.844 186.219 355.417 187.147 355.807 188.225C356.22 189.28 356.415 190.438 356.392 191.7L356.358 193.213H341.6L340.809 190.392H353.296L352.78 190.977V190.152C352.711 189.395 352.459 188.718 352.023 188.122C351.588 187.526 351.037 187.056 350.372 186.712C349.707 186.368 348.985 186.196 348.205 186.196C346.967 186.196 345.923 186.436 345.074 186.918C344.226 187.377 343.584 188.065 343.148 188.982C342.712 189.876 342.494 190.989 342.494 192.319C342.494 193.58 342.758 194.681 343.286 195.621C343.813 196.539 344.558 197.25 345.522 197.754C346.485 198.259 347.597 198.511 348.859 198.511C349.753 198.511 350.579 198.362 351.335 198.064C352.115 197.766 352.952 197.227 353.847 196.447L355.635 198.958C355.085 199.508 354.408 199.99 353.606 200.403C352.826 200.816 351.989 201.148 351.095 201.4C350.223 201.63 349.363 201.744 348.515 201.744ZM358.523 201.4V183.34H362.1V189.016L361.756 187.64C362.009 186.769 362.433 185.978 363.029 185.267C363.648 184.556 364.348 183.994 365.128 183.581C365.93 183.168 366.756 182.962 367.604 182.962C367.994 182.962 368.361 182.996 368.705 183.065C369.072 183.134 369.359 183.214 369.565 183.306L368.636 187.159C368.361 187.044 368.052 186.952 367.708 186.884C367.387 186.792 367.065 186.746 366.744 186.746C366.125 186.746 365.529 186.872 364.956 187.124C364.405 187.354 363.912 187.686 363.476 188.122C363.064 188.535 362.731 189.028 362.479 189.601C362.227 190.152 362.1 190.759 362.1 191.424V201.4H358.523ZM390.26 201.744C388.517 201.744 386.889 201.435 385.375 200.816C383.862 200.174 382.532 199.291 381.385 198.167C380.238 197.043 379.344 195.736 378.702 194.245C378.082 192.732 377.773 191.103 377.773 189.36C377.773 187.64 378.082 186.035 378.702 184.544C379.344 183.054 380.227 181.758 381.35 180.657C382.497 179.533 383.827 178.662 385.341 178.043C386.855 177.424 388.483 177.114 390.226 177.114C391.441 177.114 392.622 177.286 393.769 177.63C394.939 177.974 395.993 178.456 396.934 179.075C397.874 179.694 398.642 180.405 399.239 181.208L396.831 183.719C396.143 183.054 395.432 182.503 394.698 182.068C393.987 181.632 393.253 181.299 392.496 181.07C391.739 180.841 390.983 180.726 390.226 180.726C388.987 180.726 387.841 180.944 386.786 181.38C385.754 181.815 384.836 182.423 384.034 183.203C383.254 183.983 382.646 184.9 382.21 185.955C381.775 186.987 381.557 188.122 381.557 189.36C381.557 190.553 381.786 191.688 382.245 192.766C382.704 193.821 383.334 194.75 384.137 195.552C384.962 196.355 385.903 196.986 386.958 197.444C388.036 197.903 389.171 198.132 390.363 198.132C391.258 198.132 392.106 198.006 392.909 197.754C393.712 197.479 394.423 197.1 395.042 196.619C395.661 196.137 396.143 195.587 396.487 194.968C396.831 194.325 397.003 193.649 397.003 192.938V192.25L397.519 192.732H390.157V189.051H400.821C400.867 189.303 400.901 189.555 400.924 189.808C400.947 190.037 400.959 190.266 400.959 190.496C400.981 190.702 400.993 190.908 400.993 191.115C400.993 192.697 400.718 194.142 400.167 195.449C399.617 196.734 398.849 197.846 397.863 198.786C396.899 199.726 395.764 200.46 394.457 200.988C393.173 201.492 391.774 201.744 390.26 201.744ZM403.216 201.4V183.34H406.794V189.016L406.45 187.64C406.702 186.769 407.126 185.978 407.722 185.267C408.342 184.556 409.041 183.994 409.821 183.581C410.624 183.168 411.449 182.962 412.298 182.962C412.688 182.962 413.054 182.996 413.398 183.065C413.765 183.134 414.052 183.214 414.258 183.306L413.33 187.159C413.054 187.044 412.745 186.952 412.401 186.884C412.08 186.792 411.759 186.746 411.438 186.746C410.818 186.746 410.222 186.872 409.649 187.124C409.098 187.354 408.605 187.686 408.17 188.122C407.757 188.535 407.424 189.028 407.172 189.601C406.92 190.152 406.794 190.759 406.794 191.424V201.4H403.216ZM422.716 201.744C420.95 201.744 419.368 201.343 417.969 200.54C416.593 199.715 415.503 198.603 414.701 197.204C413.898 195.782 413.497 194.165 413.497 192.353C413.497 190.541 413.898 188.936 414.701 187.537C415.503 186.115 416.593 185.003 417.969 184.2C419.368 183.375 420.95 182.962 422.716 182.962C424.459 182.962 426.018 183.375 427.394 184.2C428.793 185.003 429.894 186.115 430.697 187.537C431.5 188.936 431.901 190.541 431.901 192.353C431.901 194.165 431.5 195.782 430.697 197.204C429.894 198.603 428.793 199.715 427.394 200.54C426.018 201.343 424.459 201.744 422.716 201.744ZM422.716 198.511C423.794 198.511 424.757 198.247 425.606 197.72C426.454 197.169 427.119 196.435 427.601 195.518C428.082 194.578 428.312 193.523 428.289 192.353C428.312 191.161 428.082 190.106 427.601 189.188C427.119 188.248 426.454 187.514 425.606 186.987C424.757 186.459 423.794 186.196 422.716 186.196C421.638 186.196 420.664 186.471 419.792 187.021C418.944 187.549 418.278 188.283 417.797 189.223C417.315 190.14 417.086 191.184 417.109 192.353C417.086 193.523 417.315 194.578 417.797 195.518C418.278 196.435 418.944 197.169 419.792 197.72C420.664 198.247 421.638 198.511 422.716 198.511ZM440.371 201.744C439.087 201.744 437.963 201.446 437 200.85C436.06 200.254 435.326 199.417 434.799 198.339C434.294 197.261 434.042 195.977 434.042 194.486V183.34H437.585V193.523C437.585 194.578 437.745 195.495 438.067 196.275C438.411 197.032 438.892 197.616 439.511 198.029C440.153 198.442 440.922 198.648 441.816 198.648C442.481 198.648 443.089 198.545 443.639 198.339C444.19 198.11 444.66 197.8 445.05 197.41C445.463 197.02 445.784 196.55 446.013 196C446.242 195.449 446.357 194.853 446.357 194.211V183.34H449.9V201.4H446.357V197.616L446.976 197.204C446.701 198.052 446.231 198.82 445.566 199.508C444.924 200.196 444.155 200.747 443.261 201.16C442.367 201.55 441.403 201.744 440.371 201.744ZM453.15 208.968V183.34H456.728V187.468L456.177 187.159C456.315 186.471 456.705 185.817 457.347 185.198C457.989 184.556 458.769 184.04 459.686 183.65C460.626 183.237 461.589 183.031 462.576 183.031C464.204 183.031 465.649 183.432 466.91 184.235C468.171 185.037 469.169 186.138 469.903 187.537C470.637 188.936 471.004 190.541 471.004 192.353C471.004 194.142 470.637 195.747 469.903 197.169C469.192 198.568 468.206 199.68 466.944 200.506C465.683 201.309 464.261 201.71 462.679 201.71C461.624 201.71 460.603 201.504 459.617 201.091C458.631 200.655 457.794 200.105 457.106 199.44C456.418 198.775 455.994 198.087 455.833 197.376L456.728 196.894V208.968H453.15ZM462.094 198.442C463.149 198.442 464.089 198.178 464.915 197.651C465.74 197.123 466.394 196.401 466.876 195.484C467.357 194.566 467.598 193.523 467.598 192.353C467.598 191.184 467.357 190.152 466.876 189.257C466.417 188.34 465.775 187.617 464.949 187.09C464.124 186.563 463.172 186.299 462.094 186.299C461.016 186.299 460.064 186.563 459.239 187.09C458.413 187.595 457.76 188.305 457.278 189.223C456.796 190.14 456.556 191.184 456.556 192.353C456.556 193.523 456.796 194.566 457.278 195.484C457.76 196.401 458.413 197.123 459.239 197.651C460.064 198.178 461.016 198.442 462.094 198.442ZM479.152 201.744C477.638 201.744 476.273 201.481 475.058 200.953C473.842 200.426 472.833 199.646 472.031 198.614L474.439 196.55C475.127 197.353 475.872 197.938 476.675 198.304C477.5 198.648 478.429 198.82 479.461 198.82C479.874 198.82 480.252 198.775 480.596 198.683C480.963 198.568 481.273 198.408 481.525 198.201C481.8 197.995 482.007 197.754 482.144 197.479C482.282 197.181 482.351 196.86 482.351 196.516C482.351 195.919 482.133 195.438 481.697 195.071C481.468 194.91 481.101 194.738 480.596 194.555C480.115 194.348 479.484 194.142 478.704 193.936C477.374 193.592 476.285 193.202 475.436 192.766C474.588 192.33 473.934 191.837 473.476 191.287C473.132 190.851 472.879 190.381 472.719 189.876C472.558 189.349 472.478 188.776 472.478 188.156C472.478 187.4 472.638 186.712 472.96 186.092C473.304 185.45 473.762 184.9 474.336 184.441C474.932 183.96 475.62 183.593 476.4 183.34C477.202 183.088 478.051 182.962 478.945 182.962C479.794 182.962 480.631 183.077 481.456 183.306C482.305 183.535 483.085 183.868 483.796 184.304C484.506 184.739 485.103 185.255 485.584 185.852L483.555 188.088C483.119 187.652 482.637 187.273 482.11 186.952C481.605 186.608 481.089 186.345 480.562 186.161C480.034 185.978 479.553 185.886 479.117 185.886C478.636 185.886 478.2 185.932 477.81 186.024C477.42 186.115 477.088 186.253 476.812 186.436C476.56 186.62 476.365 186.849 476.228 187.124C476.09 187.4 476.021 187.709 476.021 188.053C476.044 188.351 476.113 188.638 476.228 188.913C476.365 189.165 476.549 189.383 476.778 189.567C477.03 189.75 477.409 189.945 477.913 190.152C478.418 190.358 479.06 190.553 479.84 190.736C480.986 191.035 481.926 191.367 482.66 191.734C483.417 192.078 484.013 192.479 484.449 192.938C484.908 193.374 485.229 193.878 485.412 194.452C485.596 195.025 485.688 195.667 485.688 196.378C485.688 197.41 485.389 198.339 484.793 199.164C484.22 199.967 483.44 200.598 482.454 201.056C481.468 201.515 480.367 201.744 479.152 201.744Z" fill="#666666"/>
<path d="M143.538 226.56C142.749 226.56 142.018 226.416 141.346 226.128C140.685 225.84 140.104 225.44 139.602 224.928C139.112 224.406 138.728 223.798 138.45 223.104C138.184 222.4 138.05 221.632 138.05 220.8C138.05 219.968 138.184 219.206 138.45 218.512C138.728 217.808 139.112 217.2 139.602 216.688C140.104 216.166 140.685 215.76 141.346 215.472C142.018 215.184 142.749 215.04 143.538 215.04C144.328 215.04 145.053 215.184 145.714 215.472C146.386 215.76 146.968 216.166 147.458 216.688C147.96 217.211 148.344 217.824 148.61 218.528C148.888 219.222 149.026 219.979 149.026 220.8C149.026 221.622 148.888 222.384 148.61 223.088C148.344 223.782 147.96 224.39 147.458 224.912C146.968 225.435 146.386 225.84 145.714 226.128C145.053 226.416 144.328 226.56 143.538 226.56ZM143.538 224.88C144.082 224.88 144.578 224.779 145.026 224.576C145.485 224.374 145.88 224.091 146.21 223.728C146.541 223.355 146.797 222.923 146.978 222.432C147.17 221.931 147.266 221.387 147.266 220.8C147.266 220.214 147.17 219.675 146.978 219.184C146.797 218.683 146.541 218.251 146.21 217.888C145.88 217.515 145.485 217.227 145.026 217.024C144.578 216.822 144.082 216.72 143.538 216.72C142.994 216.72 142.493 216.822 142.034 217.024C141.586 217.227 141.192 217.51 140.85 217.872C140.52 218.235 140.264 218.667 140.082 219.168C139.901 219.659 139.81 220.203 139.81 220.8C139.81 221.387 139.901 221.931 140.082 222.432C140.264 222.934 140.52 223.366 140.85 223.728C141.192 224.091 141.586 224.374 142.034 224.576C142.493 224.779 142.994 224.88 143.538 224.88ZM150.15 226.4V218H151.798V219.728L151.51 219.92C151.617 219.547 151.825 219.206 152.134 218.896C152.443 218.576 152.811 218.32 153.238 218.128C153.665 217.926 154.102 217.824 154.55 217.824C155.19 217.824 155.723 217.952 156.15 218.208C156.577 218.454 156.897 218.832 157.11 219.344C157.323 219.856 157.43 220.502 157.43 221.28V226.4H155.782V221.392C155.782 220.912 155.718 220.518 155.59 220.208C155.462 219.888 155.265 219.659 154.998 219.52C154.731 219.371 154.401 219.307 154.006 219.328C153.686 219.328 153.393 219.382 153.126 219.488C152.859 219.584 152.625 219.723 152.422 219.904C152.23 220.086 152.075 220.299 151.958 220.544C151.851 220.779 151.798 221.035 151.798 221.312V226.4H150.982C150.843 226.4 150.705 226.4 150.566 226.4C150.427 226.4 150.289 226.4 150.15 226.4ZM167.51 226.56C166.731 226.56 166.017 226.422 165.366 226.144C164.715 225.867 164.15 225.472 163.67 224.96C163.19 224.438 162.817 223.824 162.55 223.12C162.294 222.416 162.166 221.643 162.166 220.8C162.166 220 162.305 219.259 162.582 218.576C162.87 217.883 163.265 217.275 163.766 216.752C164.267 216.23 164.849 215.824 165.51 215.536C166.171 215.248 166.886 215.104 167.654 215.104C168.198 215.104 168.726 215.19 169.238 215.36C169.761 215.52 170.23 215.75 170.646 216.048C171.073 216.336 171.419 216.667 171.686 217.04L170.534 218.24C170.225 217.931 169.91 217.675 169.59 217.472C169.281 217.259 168.961 217.099 168.63 216.992C168.31 216.886 167.985 216.832 167.654 216.832C167.131 216.832 166.641 216.934 166.182 217.136C165.734 217.328 165.339 217.6 164.998 217.952C164.667 218.304 164.406 218.726 164.214 219.216C164.022 219.696 163.926 220.224 163.926 220.8C163.926 221.408 164.017 221.963 164.198 222.464C164.39 222.955 164.657 223.376 164.998 223.728C165.339 224.08 165.745 224.352 166.214 224.544C166.694 224.726 167.222 224.816 167.798 224.816C168.15 224.816 168.497 224.768 168.838 224.672C169.179 224.576 169.499 224.438 169.798 224.256C170.097 224.075 170.369 223.862 170.614 223.616L171.478 225.024C171.233 225.312 170.897 225.574 170.47 225.808C170.054 226.043 169.585 226.23 169.062 226.368C168.55 226.496 168.033 226.56 167.51 226.56ZM175.842 226.56C175.148 226.56 174.514 226.368 173.938 225.984C173.372 225.6 172.919 225.078 172.578 224.416C172.236 223.755 172.066 223.008 172.066 222.176C172.066 221.334 172.236 220.587 172.578 219.936C172.93 219.275 173.399 218.758 173.986 218.384C174.583 218.011 175.25 217.824 175.986 217.824C176.423 217.824 176.823 217.888 177.186 218.016C177.548 218.144 177.863 218.326 178.13 218.56C178.407 218.784 178.631 219.046 178.802 219.344C178.983 219.643 179.095 219.963 179.138 220.304L178.77 220.176V218H180.434V226.4H178.77V224.4L179.154 224.288C179.09 224.576 178.956 224.859 178.754 225.136C178.562 225.403 178.311 225.643 178.002 225.856C177.703 226.07 177.367 226.24 176.994 226.368C176.631 226.496 176.247 226.56 175.842 226.56ZM176.274 225.04C176.775 225.04 177.218 224.918 177.602 224.672C177.986 224.427 178.284 224.091 178.498 223.664C178.722 223.227 178.834 222.731 178.834 222.176C178.834 221.632 178.722 221.147 178.498 220.72C178.284 220.294 177.986 219.958 177.602 219.712C177.218 219.467 176.775 219.344 176.274 219.344C175.783 219.344 175.346 219.467 174.962 219.712C174.588 219.958 174.29 220.294 174.066 220.72C173.852 221.147 173.746 221.632 173.746 222.176C173.746 222.731 173.852 223.227 174.066 223.664C174.29 224.091 174.588 224.427 174.962 224.672C175.346 224.918 175.783 225.04 176.274 225.04ZM181.903 226.4V218H183.567V219.792L183.263 219.984C183.348 219.707 183.481 219.44 183.663 219.184C183.855 218.928 184.084 218.704 184.351 218.512C184.628 218.31 184.921 218.15 185.231 218.032C185.551 217.915 185.876 217.856 186.207 217.856C186.687 217.856 187.108 217.936 187.471 218.096C187.833 218.256 188.132 218.496 188.367 218.816C188.601 219.136 188.772 219.536 188.879 220.016L188.623 219.952L188.735 219.68C188.852 219.435 189.012 219.206 189.215 218.992C189.428 218.768 189.668 218.571 189.935 218.4C190.201 218.23 190.484 218.096 190.783 218C191.081 217.904 191.375 217.856 191.663 217.856C192.292 217.856 192.809 217.984 193.215 218.24C193.631 218.496 193.94 218.886 194.143 219.408C194.356 219.931 194.463 220.582 194.463 221.36V226.4H192.799V221.456C192.799 220.976 192.735 220.587 192.607 220.288C192.489 219.979 192.308 219.75 192.063 219.6C191.817 219.451 191.503 219.376 191.119 219.376C190.82 219.376 190.537 219.43 190.271 219.536C190.015 219.632 189.791 219.771 189.599 219.952C189.407 220.134 189.257 220.347 189.151 220.592C189.044 220.827 188.991 221.088 188.991 221.376V226.4H187.327V221.424C187.327 220.987 187.263 220.619 187.135 220.32C187.007 220.011 186.82 219.776 186.575 219.616C186.329 219.456 186.031 219.376 185.679 219.376C185.38 219.376 185.103 219.43 184.847 219.536C184.591 219.632 184.367 219.771 184.175 219.952C183.983 220.123 183.833 220.331 183.727 220.576C183.62 220.811 183.567 221.067 183.567 221.344V226.4H181.903ZM195.869 229.92V218H197.533V219.92L197.277 219.776C197.341 219.456 197.522 219.152 197.821 218.864C198.12 218.566 198.482 218.326 198.909 218.144C199.346 217.952 199.794 217.856 200.253 217.856C201.01 217.856 201.682 218.043 202.269 218.416C202.856 218.79 203.32 219.302 203.661 219.952C204.002 220.603 204.173 221.35 204.173 222.192C204.173 223.024 204.002 223.771 203.661 224.432C203.33 225.083 202.872 225.6 202.285 225.984C201.698 226.358 201.037 226.544 200.301 226.544C199.81 226.544 199.336 226.448 198.877 226.256C198.418 226.054 198.029 225.798 197.709 225.488C197.389 225.179 197.192 224.859 197.117 224.528L197.533 224.304V229.92H195.869ZM200.029 225.024C200.52 225.024 200.957 224.902 201.341 224.656C201.725 224.411 202.029 224.075 202.253 223.648C202.477 223.222 202.589 222.736 202.589 222.192C202.589 221.648 202.477 221.168 202.253 220.752C202.04 220.326 201.741 219.99 201.357 219.744C200.973 219.499 200.53 219.376 200.029 219.376C199.528 219.376 199.085 219.499 198.701 219.744C198.317 219.979 198.013 220.31 197.789 220.736C197.565 221.163 197.453 221.648 197.453 222.192C197.453 222.736 197.565 223.222 197.789 223.648C198.013 224.075 198.317 224.411 198.701 224.656C199.085 224.902 199.528 225.024 200.029 225.024ZM208.107 226.56C207.509 226.56 206.987 226.422 206.539 226.144C206.101 225.867 205.76 225.478 205.515 224.976C205.28 224.475 205.163 223.878 205.163 223.184V218H206.811V222.736C206.811 223.227 206.885 223.654 207.035 224.016C207.195 224.368 207.419 224.64 207.707 224.832C208.005 225.024 208.363 225.12 208.779 225.12C209.088 225.12 209.371 225.072 209.627 224.976C209.883 224.87 210.101 224.726 210.283 224.544C210.475 224.363 210.624 224.144 210.731 223.888C210.837 223.632 210.891 223.355 210.891 223.056V218H212.539V226.4H210.891V224.64L211.179 224.448C211.051 224.843 210.832 225.2 210.523 225.52C210.224 225.84 209.867 226.096 209.451 226.288C209.035 226.47 208.587 226.56 208.107 226.56ZM216.85 226.56C216.146 226.56 215.512 226.438 214.946 226.192C214.381 225.947 213.912 225.584 213.538 225.104L214.658 224.144C214.978 224.518 215.325 224.79 215.698 224.96C216.082 225.12 216.514 225.2 216.994 225.2C217.186 225.2 217.362 225.179 217.522 225.136C217.693 225.083 217.837 225.008 217.954 224.912C218.082 224.816 218.178 224.704 218.242 224.576C218.306 224.438 218.338 224.288 218.338 224.128C218.338 223.851 218.237 223.627 218.034 223.456C217.928 223.382 217.757 223.302 217.522 223.216C217.298 223.12 217.005 223.024 216.642 222.928C216.024 222.768 215.517 222.587 215.122 222.384C214.728 222.182 214.424 221.952 214.21 221.696C214.05 221.494 213.933 221.275 213.858 221.04C213.784 220.795 213.746 220.528 213.746 220.24C213.746 219.888 213.821 219.568 213.97 219.28C214.13 218.982 214.344 218.726 214.61 218.512C214.888 218.288 215.208 218.118 215.57 218C215.944 217.883 216.338 217.824 216.754 217.824C217.149 217.824 217.538 217.878 217.922 217.984C218.317 218.091 218.68 218.246 219.01 218.448C219.341 218.651 219.618 218.891 219.842 219.168L218.898 220.208C218.696 220.006 218.472 219.83 218.226 219.68C217.992 219.52 217.752 219.398 217.506 219.312C217.261 219.227 217.037 219.184 216.834 219.184C216.61 219.184 216.408 219.206 216.226 219.248C216.045 219.291 215.89 219.355 215.762 219.44C215.645 219.526 215.554 219.632 215.49 219.76C215.426 219.888 215.394 220.032 215.394 220.192C215.405 220.331 215.437 220.464 215.49 220.592C215.554 220.71 215.64 220.811 215.746 220.896C215.864 220.982 216.04 221.072 216.274 221.168C216.509 221.264 216.808 221.355 217.17 221.44C217.704 221.579 218.141 221.734 218.482 221.904C218.834 222.064 219.112 222.251 219.314 222.464C219.528 222.667 219.677 222.902 219.762 223.168C219.848 223.435 219.89 223.734 219.89 224.064C219.89 224.544 219.752 224.976 219.474 225.36C219.208 225.734 218.845 226.027 218.386 226.24C217.928 226.454 217.416 226.56 216.85 226.56Z" fill="#609CFF"/>
<path d="M226.207 222.944C225.812 222.944 225.45 222.848 225.119 222.656C224.788 222.464 224.522 222.203 224.319 221.872C224.127 221.542 224.031 221.179 224.031 220.784C224.031 220.379 224.127 220.011 224.319 219.68C224.511 219.35 224.772 219.088 225.103 218.896C225.434 218.694 225.802 218.592 226.207 218.592C226.612 218.592 226.98 218.694 227.311 218.896C227.642 219.088 227.903 219.35 228.095 219.68C228.298 220.011 228.399 220.379 228.399 220.784C228.399 221.179 228.298 221.542 228.095 221.872C227.903 222.203 227.642 222.464 227.311 222.656C226.98 222.848 226.612 222.944 226.207 222.944ZM233.423 226.4V215.2H238.095C238.809 215.2 239.412 215.307 239.903 215.52C240.393 215.734 240.761 216.054 241.007 216.48C241.263 216.896 241.391 217.408 241.391 218.016C241.391 218.624 241.22 219.142 240.879 219.568C240.548 219.995 240.084 220.288 239.487 220.448V220.128C239.988 220.235 240.425 220.427 240.799 220.704C241.172 220.971 241.46 221.307 241.663 221.712C241.876 222.118 241.983 222.582 241.983 223.104C241.983 223.638 241.897 224.112 241.727 224.528C241.567 224.934 241.321 225.275 240.991 225.552C240.671 225.83 240.281 226.043 239.823 226.192C239.364 226.331 238.841 226.4 238.255 226.4H233.423ZM235.151 224.736H238.159C238.596 224.736 238.964 224.672 239.263 224.544C239.572 224.416 239.807 224.23 239.967 223.984C240.137 223.728 240.223 223.424 240.223 223.072C240.223 222.742 240.132 222.459 239.951 222.224C239.78 221.99 239.535 221.814 239.215 221.696C238.895 221.568 238.516 221.504 238.079 221.504H235.151V224.736ZM235.151 219.84H237.999C238.319 219.84 238.601 219.776 238.847 219.648C239.103 219.52 239.3 219.344 239.439 219.12C239.588 218.896 239.663 218.64 239.663 218.352C239.663 217.872 239.503 217.504 239.183 217.248C238.863 216.992 238.404 216.864 237.807 216.864H235.151V219.84ZM247.002 226.56C246.138 226.56 245.37 226.379 244.698 226.016C244.036 225.643 243.514 225.136 243.13 224.496C242.756 223.856 242.57 223.12 242.57 222.288C242.57 221.627 242.676 221.024 242.89 220.48C243.103 219.936 243.396 219.467 243.77 219.072C244.154 218.667 244.607 218.358 245.13 218.144C245.663 217.92 246.239 217.808 246.858 217.808C247.402 217.808 247.908 217.915 248.378 218.128C248.847 218.331 249.252 218.614 249.594 218.976C249.946 219.339 250.212 219.771 250.394 220.272C250.586 220.763 250.676 221.302 250.666 221.888L250.65 222.592H243.786L243.418 221.28H249.226L248.986 221.552V221.168C248.954 220.816 248.836 220.502 248.634 220.224C248.431 219.947 248.175 219.728 247.866 219.568C247.556 219.408 247.22 219.328 246.858 219.328C246.282 219.328 245.796 219.44 245.402 219.664C245.007 219.878 244.708 220.198 244.506 220.624C244.303 221.04 244.202 221.558 244.202 222.176C244.202 222.763 244.324 223.275 244.57 223.712C244.815 224.139 245.162 224.47 245.61 224.704C246.058 224.939 246.575 225.056 247.162 225.056C247.578 225.056 247.962 224.987 248.314 224.848C248.676 224.71 249.066 224.459 249.482 224.096L250.314 225.264C250.058 225.52 249.743 225.744 249.37 225.936C249.007 226.128 248.618 226.283 248.202 226.4C247.796 226.507 247.396 226.56 247.002 226.56ZM251.657 226.4V218H253.305V219.728L253.017 219.92C253.123 219.547 253.331 219.206 253.641 218.896C253.95 218.576 254.318 218.32 254.745 218.128C255.171 217.926 255.609 217.824 256.057 217.824C256.697 217.824 257.23 217.952 257.657 218.208C258.083 218.454 258.403 218.832 258.617 219.344C258.83 219.856 258.937 220.502 258.937 221.28V226.4H257.289V221.392C257.289 220.912 257.225 220.518 257.097 220.208C256.969 219.888 256.771 219.659 256.505 219.52C256.238 219.371 255.907 219.307 255.513 219.328C255.193 219.328 254.899 219.382 254.633 219.488C254.366 219.584 254.131 219.723 253.929 219.904C253.737 220.086 253.582 220.299 253.465 220.544C253.358 220.779 253.305 221.035 253.305 221.312V226.4H252.489C252.35 226.4 252.211 226.4 252.073 226.4C251.934 226.4 251.795 226.4 251.657 226.4ZM264.132 230.08C263.535 230.08 262.938 229.984 262.34 229.792C261.754 229.611 261.279 229.371 260.916 229.072L261.524 227.792C261.738 227.952 261.988 228.091 262.276 228.208C262.564 228.336 262.868 228.432 263.188 228.496C263.508 228.571 263.823 228.608 264.132 228.608C264.719 228.608 265.21 228.512 265.604 228.32C265.999 228.128 266.298 227.846 266.5 227.472C266.703 227.099 266.804 226.635 266.804 226.08V224.464L266.98 224.576C266.927 224.907 266.751 225.227 266.452 225.536C266.164 225.835 265.802 226.08 265.364 226.272C264.927 226.464 264.479 226.56 264.02 226.56C263.22 226.56 262.506 226.374 261.876 226C261.258 225.616 260.767 225.099 260.404 224.448C260.042 223.787 259.86 223.035 259.86 222.192C259.86 221.35 260.036 220.603 260.388 219.952C260.751 219.291 261.242 218.774 261.86 218.4C262.49 218.016 263.194 217.824 263.972 217.824C264.292 217.824 264.602 217.867 264.9 217.952C265.199 218.027 265.476 218.139 265.732 218.288C265.988 218.427 266.218 218.582 266.42 218.752C266.623 218.923 266.788 219.104 266.916 219.296C267.044 219.488 267.124 219.67 267.156 219.84L266.804 219.968V218H268.452V225.888C268.452 226.56 268.351 227.152 268.148 227.664C267.956 228.187 267.674 228.624 267.3 228.976C266.927 229.339 266.474 229.611 265.94 229.792C265.407 229.984 264.804 230.08 264.132 230.08ZM264.196 225.04C264.719 225.04 265.183 224.918 265.588 224.672C265.994 224.427 266.308 224.091 266.532 223.664C266.756 223.238 266.868 222.747 266.868 222.192C266.868 221.638 266.751 221.147 266.516 220.72C266.292 220.283 265.978 219.942 265.572 219.696C265.178 219.451 264.719 219.328 264.196 219.328C263.684 219.328 263.226 219.456 262.82 219.712C262.426 219.958 262.111 220.299 261.876 220.736C261.652 221.163 261.54 221.648 261.54 222.192C261.54 222.736 261.652 223.227 261.876 223.664C262.111 224.091 262.426 224.427 262.82 224.672C263.226 224.918 263.684 225.04 264.196 225.04ZM273.195 226.56C272.502 226.56 271.867 226.368 271.291 225.984C270.726 225.6 270.272 225.078 269.931 224.416C269.59 223.755 269.419 223.008 269.419 222.176C269.419 221.334 269.59 220.587 269.931 219.936C270.283 219.275 270.752 218.758 271.339 218.384C271.936 218.011 272.603 217.824 273.339 217.824C273.776 217.824 274.176 217.888 274.539 218.016C274.902 218.144 275.216 218.326 275.483 218.56C275.76 218.784 275.984 219.046 276.155 219.344C276.336 219.643 276.448 219.963 276.491 220.304L276.123 220.176V218H277.787V226.4H276.123V224.4L276.507 224.288C276.443 224.576 276.31 224.859 276.107 225.136C275.915 225.403 275.664 225.643 275.355 225.856C275.056 226.07 274.72 226.24 274.347 226.368C273.984 226.496 273.6 226.56 273.195 226.56ZM273.627 225.04C274.128 225.04 274.571 224.918 274.955 224.672C275.339 224.427 275.638 224.091 275.851 223.664C276.075 223.227 276.187 222.731 276.187 222.176C276.187 221.632 276.075 221.147 275.851 220.72C275.638 220.294 275.339 219.958 274.955 219.712C274.571 219.467 274.128 219.344 273.627 219.344C273.136 219.344 272.699 219.467 272.315 219.712C271.942 219.958 271.643 220.294 271.419 220.72C271.206 221.147 271.099 221.632 271.099 222.176C271.099 222.731 271.206 223.227 271.419 223.664C271.643 224.091 271.942 224.427 272.315 224.672C272.699 224.918 273.136 225.04 273.627 225.04ZM279.32 226.4V214.56H280.968V226.4H279.32ZM286.188 226.4V224.8H287.996V216.8H286.188V215.2H291.532V216.8H289.724V224.8H291.532V226.4H286.188ZM293.029 226.4V218H294.677V219.728L294.389 219.92C294.495 219.547 294.703 219.206 295.013 218.896C295.322 218.576 295.69 218.32 296.117 218.128C296.543 217.926 296.981 217.824 297.429 217.824C298.069 217.824 298.602 217.952 299.029 218.208C299.455 218.454 299.775 218.832 299.989 219.344C300.202 219.856 300.309 220.502 300.309 221.28V226.4H298.661V221.392C298.661 220.912 298.597 220.518 298.469 220.208C298.341 219.888 298.143 219.659 297.877 219.52C297.61 219.371 297.279 219.307 296.885 219.328C296.565 219.328 296.271 219.382 296.005 219.488C295.738 219.584 295.503 219.723 295.301 219.904C295.109 220.086 294.954 220.299 294.837 220.544C294.73 220.779 294.677 221.035 294.677 221.312V226.4H293.861C293.722 226.4 293.583 226.4 293.445 226.4C293.306 226.4 293.167 226.4 293.029 226.4ZM304.544 226.56C303.84 226.56 303.206 226.438 302.64 226.192C302.075 225.947 301.606 225.584 301.232 225.104L302.352 224.144C302.672 224.518 303.019 224.79 303.392 224.96C303.776 225.12 304.208 225.2 304.688 225.2C304.88 225.2 305.056 225.179 305.216 225.136C305.387 225.083 305.531 225.008 305.648 224.912C305.776 224.816 305.872 224.704 305.936 224.576C306 224.438 306.032 224.288 306.032 224.128C306.032 223.851 305.931 223.627 305.728 223.456C305.622 223.382 305.451 223.302 305.216 223.216C304.992 223.12 304.699 223.024 304.336 222.928C303.718 222.768 303.211 222.587 302.816 222.384C302.422 222.182 302.118 221.952 301.904 221.696C301.744 221.494 301.627 221.275 301.552 221.04C301.478 220.795 301.44 220.528 301.44 220.24C301.44 219.888 301.515 219.568 301.664 219.28C301.824 218.982 302.038 218.726 302.304 218.512C302.582 218.288 302.902 218.118 303.264 218C303.638 217.883 304.032 217.824 304.448 217.824C304.843 217.824 305.232 217.878 305.616 217.984C306.011 218.091 306.374 218.246 306.704 218.448C307.035 218.651 307.312 218.891 307.536 219.168L306.592 220.208C306.39 220.006 306.166 219.83 305.92 219.68C305.686 219.52 305.446 219.398 305.2 219.312C304.955 219.227 304.731 219.184 304.528 219.184C304.304 219.184 304.102 219.206 303.92 219.248C303.739 219.291 303.584 219.355 303.456 219.44C303.339 219.526 303.248 219.632 303.184 219.76C303.12 219.888 303.088 220.032 303.088 220.192C303.099 220.331 303.131 220.464 303.184 220.592C303.248 220.71 303.334 220.811 303.44 220.896C303.558 220.982 303.734 221.072 303.968 221.168C304.203 221.264 304.502 221.355 304.864 221.44C305.398 221.579 305.835 221.734 306.176 221.904C306.528 222.064 306.806 222.251 307.008 222.464C307.222 222.667 307.371 222.902 307.456 223.168C307.542 223.435 307.584 223.734 307.584 224.064C307.584 224.544 307.446 224.976 307.168 225.36C306.902 225.734 306.539 226.027 306.08 226.24C305.622 226.454 305.11 226.56 304.544 226.56ZM309.64 226.4V215.856H311.288V226.4H309.64ZM307.896 219.6V218H313.241V219.6H307.896ZM314.213 226.4V218H315.861V226.4H314.213ZM315.013 216.144C314.661 216.144 314.389 216.054 314.197 215.872C314.005 215.691 313.909 215.435 313.909 215.104C313.909 214.795 314.005 214.544 314.197 214.352C314.4 214.16 314.672 214.064 315.013 214.064C315.365 214.064 315.637 214.155 315.829 214.336C316.021 214.518 316.117 214.774 316.117 215.104C316.117 215.414 316.016 215.664 315.813 215.856C315.621 216.048 315.354 216.144 315.013 216.144ZM318.634 226.4V215.856H320.282V226.4H318.634ZM316.89 219.6V218H322.234V219.6H316.89ZM325.879 226.56C325.282 226.56 324.759 226.422 324.311 226.144C323.874 225.867 323.532 225.478 323.287 224.976C323.052 224.475 322.935 223.878 322.935 223.184V218H324.583V222.736C324.583 223.227 324.658 223.654 324.807 224.016C324.967 224.368 325.191 224.64 325.479 224.832C325.778 225.024 326.135 225.12 326.551 225.12C326.86 225.12 327.143 225.072 327.399 224.976C327.655 224.87 327.874 224.726 328.055 224.544C328.247 224.363 328.396 224.144 328.503 223.888C328.61 223.632 328.663 223.355 328.663 223.056V218H330.311V226.4H328.663V224.64L328.951 224.448C328.823 224.843 328.604 225.2 328.295 225.52C327.996 225.84 327.639 226.096 327.223 226.288C326.807 226.47 326.359 226.56 325.879 226.56ZM332.862 226.4V215.856H334.51V226.4H332.862ZM331.118 219.6V218H336.462V219.6H331.118ZM341.005 226.56C340.141 226.56 339.373 226.379 338.701 226.016C338.04 225.643 337.517 225.136 337.133 224.496C336.76 223.856 336.573 223.12 336.573 222.288C336.573 221.627 336.68 221.024 336.893 220.48C337.106 219.936 337.4 219.467 337.773 219.072C338.157 218.667 338.61 218.358 339.133 218.144C339.666 217.92 340.242 217.808 340.861 217.808C341.405 217.808 341.912 217.915 342.381 218.128C342.85 218.331 343.256 218.614 343.597 218.976C343.949 219.339 344.216 219.771 344.397 220.272C344.589 220.763 344.68 221.302 344.669 221.888L344.653 222.592H337.789L337.421 221.28H343.229L342.989 221.552V221.168C342.957 220.816 342.84 220.502 342.637 220.224C342.434 219.947 342.178 219.728 341.869 219.568C341.56 219.408 341.224 219.328 340.861 219.328C340.285 219.328 339.8 219.44 339.405 219.664C339.01 219.878 338.712 220.198 338.509 220.624C338.306 221.04 338.205 221.558 338.205 222.176C338.205 222.763 338.328 223.275 338.573 223.712C338.818 224.139 339.165 224.47 339.613 224.704C340.061 224.939 340.578 225.056 341.165 225.056C341.581 225.056 341.965 224.987 342.317 224.848C342.68 224.71 343.069 224.459 343.485 224.096L344.317 225.264C344.061 225.52 343.746 225.744 343.373 225.936C343.01 226.128 342.621 226.283 342.205 226.4C341.8 226.507 341.4 226.56 341.005 226.56ZM353.12 226.56C352.299 226.56 351.563 226.374 350.912 226C350.272 225.616 349.766 225.099 349.392 224.448C349.019 223.787 348.832 223.035 348.832 222.192C348.832 221.35 349.019 220.603 349.392 219.952C349.766 219.291 350.272 218.774 350.912 218.4C351.563 218.016 352.299 217.824 353.12 217.824C353.931 217.824 354.656 218.016 355.296 218.4C355.947 218.774 356.459 219.291 356.832 219.952C357.206 220.603 357.392 221.35 357.392 222.192C357.392 223.035 357.206 223.787 356.832 224.448C356.459 225.099 355.947 225.616 355.296 226C354.656 226.374 353.931 226.56 353.12 226.56ZM353.12 225.056C353.622 225.056 354.07 224.934 354.464 224.688C354.859 224.432 355.168 224.091 355.392 223.664C355.616 223.227 355.723 222.736 355.712 222.192C355.723 221.638 355.616 221.147 355.392 220.72C355.168 220.283 354.859 219.942 354.464 219.696C354.07 219.451 353.622 219.328 353.12 219.328C352.619 219.328 352.166 219.456 351.76 219.712C351.366 219.958 351.056 220.299 350.832 220.736C350.608 221.163 350.502 221.648 350.512 222.192C350.502 222.736 350.608 223.227 350.832 223.664C351.056 224.091 351.366 224.432 351.76 224.688C352.166 224.934 352.619 225.056 353.12 225.056ZM358.988 226.4V217.056C358.988 216.576 359.094 216.15 359.308 215.776C359.521 215.403 359.814 215.11 360.188 214.896C360.561 214.683 360.993 214.576 361.484 214.576C361.825 214.576 362.145 214.64 362.444 214.768C362.742 214.896 362.982 215.067 363.164 215.28L362.604 216.544C362.465 216.416 362.31 216.315 362.14 216.24C361.98 216.155 361.825 216.112 361.676 216.112C361.452 216.112 361.26 216.15 361.1 216.224C360.95 216.288 360.838 216.395 360.764 216.544C360.689 216.683 360.652 216.854 360.652 217.056V226.4H359.82C359.681 226.4 359.542 226.4 359.404 226.4C359.265 226.4 359.126 226.4 358.988 226.4ZM357.644 219.664V218.144H362.636V219.664H357.644ZM369.785 226.4V216.864H366.649V215.2H374.745V216.864H371.513V226.4H369.785ZM377.986 226.56C377.122 226.56 376.354 226.379 375.682 226.016C375.021 225.643 374.498 225.136 374.114 224.496C373.741 223.856 373.554 223.12 373.554 222.288C373.554 221.627 373.661 221.024 373.874 220.48C374.088 219.936 374.381 219.467 374.754 219.072C375.138 218.667 375.592 218.358 376.114 218.144C376.648 217.92 377.224 217.808 377.842 217.808C378.386 217.808 378.893 217.915 379.362 218.128C379.832 218.331 380.237 218.614 380.578 218.976C380.93 219.339 381.197 219.771 381.378 220.272C381.57 220.763 381.661 221.302 381.65 221.888L381.634 222.592H374.77L374.402 221.28H380.21L379.97 221.552V221.168C379.938 220.816 379.821 220.502 379.618 220.224C379.416 219.947 379.16 219.728 378.85 219.568C378.541 219.408 378.205 219.328 377.842 219.328C377.266 219.328 376.781 219.44 376.386 219.664C375.992 219.878 375.693 220.198 375.49 220.624C375.288 221.04 375.186 221.558 375.186 222.176C375.186 222.763 375.309 223.275 375.554 223.712C375.8 224.139 376.146 224.47 376.594 224.704C377.042 224.939 377.56 225.056 378.146 225.056C378.562 225.056 378.946 224.987 379.298 224.848C379.661 224.71 380.05 224.459 380.466 224.096L381.298 225.264C381.042 225.52 380.728 225.744 380.354 225.936C379.992 226.128 379.602 226.283 379.186 226.4C378.781 226.507 378.381 226.56 377.986 226.56ZM386.209 226.56C385.431 226.56 384.732 226.368 384.113 225.984C383.505 225.6 383.02 225.078 382.657 224.416C382.305 223.755 382.129 223.014 382.129 222.192C382.129 221.371 382.305 220.63 382.657 219.968C383.02 219.307 383.505 218.784 384.113 218.4C384.732 218.016 385.431 217.824 386.209 217.824C386.956 217.824 387.633 217.979 388.241 218.288C388.86 218.587 389.329 218.998 389.649 219.52L388.737 220.64C388.567 220.395 388.348 220.171 388.081 219.968C387.815 219.766 387.532 219.606 387.233 219.488C386.935 219.371 386.647 219.312 386.369 219.312C385.857 219.312 385.399 219.44 384.993 219.696C384.599 219.942 384.284 220.283 384.049 220.72C383.815 221.158 383.697 221.648 383.697 222.192C383.697 222.736 383.82 223.227 384.065 223.664C384.311 224.091 384.636 224.432 385.041 224.688C385.447 224.944 385.895 225.072 386.385 225.072C386.673 225.072 386.951 225.024 387.217 224.928C387.495 224.832 387.761 224.688 388.017 224.496C388.273 224.304 388.513 224.07 388.737 223.792L389.649 224.912C389.308 225.392 388.817 225.787 388.177 226.096C387.548 226.406 386.892 226.56 386.209 226.56ZM390.404 226.4V214.56H392.052V219.728L391.764 219.92C391.871 219.547 392.079 219.206 392.388 218.896C392.697 218.576 393.065 218.32 393.492 218.128C393.919 217.926 394.356 217.824 394.804 217.824C395.444 217.824 395.977 217.952 396.404 218.208C396.831 218.454 397.151 218.832 397.364 219.344C397.577 219.856 397.684 220.502 397.684 221.28V226.4H396.036V221.392C396.036 220.912 395.972 220.518 395.844 220.208C395.716 219.888 395.519 219.659 395.252 219.52C394.985 219.371 394.655 219.307 394.26 219.328C393.94 219.328 393.647 219.382 393.38 219.488C393.113 219.584 392.879 219.723 392.676 219.904C392.484 220.086 392.329 220.299 392.212 220.544C392.105 220.779 392.052 221.035 392.052 221.312V226.4H391.236C391.097 226.4 390.959 226.4 390.82 226.4C390.681 226.4 390.543 226.4 390.404 226.4ZM399.119 226.4V218H400.767V219.728L400.479 219.92C400.586 219.547 400.794 219.206 401.103 218.896C401.413 218.576 401.781 218.32 402.207 218.128C402.634 217.926 403.071 217.824 403.519 217.824C404.159 217.824 404.693 217.952 405.119 218.208C405.546 218.454 405.866 218.832 406.079 219.344C406.293 219.856 406.399 220.502 406.399 221.28V226.4H404.751V221.392C404.751 220.912 404.687 220.518 404.559 220.208C404.431 219.888 404.234 219.659 403.967 219.52C403.701 219.371 403.37 219.307 402.975 219.328C402.655 219.328 402.362 219.382 402.095 219.488C401.829 219.584 401.594 219.723 401.391 219.904C401.199 220.086 401.045 220.299 400.927 220.544C400.821 220.779 400.767 221.035 400.767 221.312V226.4H399.951C399.813 226.4 399.674 226.4 399.535 226.4C399.397 226.4 399.258 226.4 399.119 226.4ZM411.611 226.56C410.79 226.56 410.054 226.374 409.403 226C408.763 225.616 408.256 225.099 407.883 224.448C407.51 223.787 407.323 223.035 407.323 222.192C407.323 221.35 407.51 220.603 407.883 219.952C408.256 219.291 408.763 218.774 409.403 218.4C410.054 218.016 410.79 217.824 411.611 217.824C412.422 217.824 413.147 218.016 413.787 218.4C414.438 218.774 414.95 219.291 415.323 219.952C415.696 220.603 415.883 221.35 415.883 222.192C415.883 223.035 415.696 223.787 415.323 224.448C414.95 225.099 414.438 225.616 413.787 226C413.147 226.374 412.422 226.56 411.611 226.56ZM411.611 225.056C412.112 225.056 412.56 224.934 412.955 224.688C413.35 224.432 413.659 224.091 413.883 223.664C414.107 223.227 414.214 222.736 414.203 222.192C414.214 221.638 414.107 221.147 413.883 220.72C413.659 220.283 413.35 219.942 412.955 219.696C412.56 219.451 412.112 219.328 411.611 219.328C411.11 219.328 410.656 219.456 410.251 219.712C409.856 219.958 409.547 220.299 409.323 220.736C409.099 221.163 408.992 221.648 409.003 222.192C408.992 222.736 409.099 223.227 409.323 223.664C409.547 224.091 409.856 224.432 410.251 224.688C410.656 224.934 411.11 225.056 411.611 225.056ZM416.911 226.4V214.56H418.559V226.4H416.911ZM423.714 226.56C422.893 226.56 422.157 226.374 421.506 226C420.866 225.616 420.36 225.099 419.986 224.448C419.613 223.787 419.426 223.035 419.426 222.192C419.426 221.35 419.613 220.603 419.986 219.952C420.36 219.291 420.866 218.774 421.506 218.4C422.157 218.016 422.893 217.824 423.714 217.824C424.525 217.824 425.25 218.016 425.89 218.4C426.541 218.774 427.053 219.291 427.426 219.952C427.8 220.603 427.986 221.35 427.986 222.192C427.986 223.035 427.8 223.787 427.426 224.448C427.053 225.099 426.541 225.616 425.89 226C425.25 226.374 424.525 226.56 423.714 226.56ZM423.714 225.056C424.216 225.056 424.664 224.934 425.058 224.688C425.453 224.432 425.762 224.091 425.986 223.664C426.21 223.227 426.317 222.736 426.306 222.192C426.317 221.638 426.21 221.147 425.986 220.72C425.762 220.283 425.453 219.942 425.058 219.696C424.664 219.451 424.216 219.328 423.714 219.328C423.213 219.328 422.76 219.456 422.354 219.712C421.96 219.958 421.65 220.299 421.426 220.736C421.202 221.163 421.096 221.648 421.106 222.192C421.096 222.736 421.202 223.227 421.426 223.664C421.65 224.091 421.96 224.432 422.354 224.688C422.76 224.934 423.213 225.056 423.714 225.056ZM432.742 230.08C432.145 230.08 431.547 229.984 430.95 229.792C430.363 229.611 429.889 229.371 429.526 229.072L430.134 227.792C430.347 227.952 430.598 228.091 430.886 228.208C431.174 228.336 431.478 228.432 431.798 228.496C432.118 228.571 432.433 228.608 432.742 228.608C433.329 228.608 433.819 228.512 434.214 228.32C434.609 228.128 434.907 227.846 435.11 227.472C435.313 227.099 435.414 226.635 435.414 226.08V224.464L435.59 224.576C435.537 224.907 435.361 225.227 435.062 225.536C434.774 225.835 434.411 226.08 433.974 226.272C433.537 226.464 433.089 226.56 432.63 226.56C431.83 226.56 431.115 226.374 430.486 226C429.867 225.616 429.377 225.099 429.014 224.448C428.651 223.787 428.47 223.035 428.47 222.192C428.47 221.35 428.646 220.603 428.998 219.952C429.361 219.291 429.851 218.774 430.47 218.4C431.099 218.016 431.803 217.824 432.582 217.824C432.902 217.824 433.211 217.867 433.51 217.952C433.809 218.027 434.086 218.139 434.342 218.288C434.598 218.427 434.827 218.582 435.03 218.752C435.233 218.923 435.398 219.104 435.526 219.296C435.654 219.488 435.734 219.67 435.766 219.84L435.414 219.968V218H437.062V225.888C437.062 226.56 436.961 227.152 436.758 227.664C436.566 228.187 436.283 228.624 435.91 228.976C435.537 229.339 435.083 229.611 434.55 229.792C434.017 229.984 433.414 230.08 432.742 230.08ZM432.806 225.04C433.329 225.04 433.793 224.918 434.198 224.672C434.603 224.427 434.918 224.091 435.142 223.664C435.366 223.238 435.478 222.747 435.478 222.192C435.478 221.638 435.361 221.147 435.126 220.72C434.902 220.283 434.587 219.942 434.182 219.696C433.787 219.451 433.329 219.328 432.806 219.328C432.294 219.328 431.835 219.456 431.43 219.712C431.035 219.958 430.721 220.299 430.486 220.736C430.262 221.163 430.15 221.648 430.15 222.192C430.15 222.736 430.262 223.227 430.486 223.664C430.721 224.091 431.035 224.427 431.43 224.672C431.835 224.918 432.294 225.04 432.806 225.04ZM439.981 230.08L441.677 226.16L441.693 227.472L437.501 218H439.421L442.045 224.176C442.098 224.283 442.162 224.448 442.237 224.672C442.311 224.886 442.375 225.099 442.429 225.312L442.013 225.408C442.098 225.184 442.178 224.96 442.253 224.736C442.338 224.512 442.418 224.288 442.493 224.064L444.685 218H446.637L443.181 226.4L441.757 230.08H439.981Z" fill="#666666"/>
</svg>
