<svg width="584" height="311" viewBox="0 0 584 311" fill="none" xmlns="http://www.w3.org/2000/svg">
<rect x="-0.448398" y="1.63675" width="60.5213" height="19.1176" rx="9.5588" transform="matrix(-0.868809 0.495148 0.495144 0.868811 277.517 81.4367)" fill="#EF5350" stroke="#EF5350" stroke-width="2.40001"/>
<rect x="-0.448398" y="1.63675" width="60.5213" height="19.1176" rx="9.5588" transform="matrix(-0.868809 0.495148 0.495144 0.868811 347.862 101.987)" fill="#FBBC04" stroke="#FBBC04" stroke-width="2.40001"/>
<rect x="0.448398" y="1.63675" width="60.5213" height="19.1176" rx="9.5588" transform="matrix(0.868809 0.495148 -0.495144 0.868811 236.022 101.543)" fill="#4285F4" stroke="#4285F4" stroke-width="2.40001"/>
<path d="M353.795 120.909C351.181 125.495 345.344 127.094 340.757 124.48L304.785 103.979C300.199 101.365 298.6 95.5282 301.213 90.9416C303.827 86.355 309.665 84.7558 314.251 87.3698L350.223 107.871C354.81 110.485 356.409 116.322 353.795 120.909Z" fill="#4CAF50" stroke="#4CAF50" stroke-width="2.40001"/>
<path d="M110.638 201.744C108.895 201.744 107.267 201.435 105.754 200.816C104.24 200.174 102.91 199.291 101.763 198.167C100.617 197.043 99.7221 195.736 99.08 194.245C98.4608 192.732 98.1512 191.103 98.1512 189.36C98.1512 187.64 98.4608 186.035 99.08 184.544C99.7221 183.054 100.605 181.758 101.729 180.657C102.875 179.533 104.206 178.662 105.719 178.043C107.233 177.424 108.861 177.114 110.604 177.114C111.82 177.114 113.001 177.286 114.147 177.63C115.317 177.974 116.372 178.456 117.312 179.075C118.252 179.694 119.021 180.405 119.617 181.208L117.209 183.719C116.521 183.054 115.81 182.503 115.076 182.068C114.365 181.632 113.631 181.299 112.874 181.07C112.118 180.841 111.361 180.726 110.604 180.726C109.366 180.726 108.219 180.944 107.164 181.38C106.132 181.815 105.215 182.423 104.412 183.203C103.632 183.983 103.025 184.9 102.589 185.955C102.153 186.987 101.935 188.122 101.935 189.36C101.935 190.553 102.165 191.688 102.623 192.766C103.082 193.821 103.713 194.75 104.515 195.552C105.341 196.355 106.281 196.986 107.336 197.444C108.414 197.903 109.549 198.132 110.742 198.132C111.636 198.132 112.485 198.006 113.287 197.754C114.09 197.479 114.801 197.1 115.42 196.619C116.039 196.137 116.521 195.587 116.865 194.968C117.209 194.325 117.381 193.649 117.381 192.938V192.25L117.897 192.732H110.535V189.051H121.199C121.245 189.303 121.28 189.555 121.302 189.808C121.325 190.037 121.337 190.266 121.337 190.496C121.36 190.702 121.371 190.908 121.371 191.115C121.371 192.697 121.096 194.142 120.546 195.449C119.995 196.734 119.227 197.846 118.241 198.786C117.278 199.726 116.142 200.46 114.835 200.988C113.551 201.492 112.152 201.744 110.638 201.744ZM131.713 201.744C129.947 201.744 128.365 201.343 126.966 200.54C125.59 199.715 124.5 198.603 123.698 197.204C122.895 195.782 122.494 194.165 122.494 192.353C122.494 190.541 122.895 188.936 123.698 187.537C124.5 186.115 125.59 185.003 126.966 184.2C128.365 183.375 129.947 182.962 131.713 182.962C133.456 182.962 135.015 183.375 136.391 184.2C137.79 185.003 138.891 186.115 139.694 187.537C140.496 188.936 140.898 190.541 140.898 192.353C140.898 194.165 140.496 195.782 139.694 197.204C138.891 198.603 137.79 199.715 136.391 200.54C135.015 201.343 133.456 201.744 131.713 201.744ZM131.713 198.511C132.791 198.511 133.754 198.247 134.602 197.72C135.451 197.169 136.116 196.435 136.598 195.518C137.079 194.578 137.309 193.523 137.286 192.353C137.309 191.161 137.079 190.106 136.598 189.188C136.116 188.248 135.451 187.514 134.602 186.987C133.754 186.459 132.791 186.196 131.713 186.196C130.635 186.196 129.66 186.471 128.789 187.021C127.94 187.549 127.275 188.283 126.794 189.223C126.312 190.14 126.083 191.184 126.106 192.353C126.083 193.523 126.312 194.578 126.794 195.518C127.275 196.435 127.94 197.169 128.789 197.72C129.66 198.247 130.635 198.511 131.713 198.511ZM151.157 201.744C149.391 201.744 147.809 201.343 146.41 200.54C145.034 199.715 143.944 198.603 143.142 197.204C142.339 195.782 141.938 194.165 141.938 192.353C141.938 190.541 142.339 188.936 143.142 187.537C143.944 186.115 145.034 185.003 146.41 184.2C147.809 183.375 149.391 182.962 151.157 182.962C152.9 182.962 154.459 183.375 155.835 184.2C157.234 185.003 158.335 186.115 159.138 187.537C159.94 188.936 160.342 190.541 160.342 192.353C160.342 194.165 159.94 195.782 159.138 197.204C158.335 198.603 157.234 199.715 155.835 200.54C154.459 201.343 152.9 201.744 151.157 201.744ZM151.157 198.511C152.235 198.511 153.198 198.247 154.047 197.72C154.895 197.169 155.56 196.435 156.042 195.518C156.523 194.578 156.753 193.523 156.73 192.353C156.753 191.161 156.523 190.106 156.042 189.188C155.56 188.248 154.895 187.514 154.047 186.987C153.198 186.459 152.235 186.196 151.157 186.196C150.079 186.196 149.104 186.471 148.233 187.021C147.384 187.549 146.719 188.283 146.238 189.223C145.756 190.14 145.527 191.184 145.55 192.353C145.527 193.523 145.756 194.578 146.238 195.518C146.719 196.435 147.384 197.169 148.233 197.72C149.104 198.247 150.079 198.511 151.157 198.511ZM170.567 209.312C169.282 209.312 167.998 209.106 166.714 208.693C165.452 208.303 164.432 207.787 163.652 207.145L164.959 204.393C165.418 204.737 165.957 205.035 166.576 205.288C167.195 205.563 167.849 205.769 168.537 205.907C169.225 206.067 169.902 206.148 170.567 206.148C171.828 206.148 172.883 205.941 173.731 205.528C174.58 205.116 175.222 204.508 175.658 203.705C176.094 202.903 176.311 201.905 176.311 200.712V197.238L176.69 197.479C176.575 198.19 176.197 198.878 175.555 199.543C174.935 200.185 174.156 200.712 173.215 201.125C172.275 201.538 171.312 201.744 170.326 201.744C168.606 201.744 167.069 201.343 165.716 200.54C164.386 199.715 163.331 198.603 162.551 197.204C161.772 195.782 161.382 194.165 161.382 192.353C161.382 190.541 161.76 188.936 162.517 187.537C163.297 186.115 164.352 185.003 165.682 184.2C167.035 183.375 168.548 182.962 170.223 182.962C170.911 182.962 171.576 183.054 172.218 183.237C172.86 183.398 173.456 183.639 174.007 183.96C174.557 184.258 175.05 184.59 175.486 184.957C175.922 185.324 176.277 185.714 176.552 186.127C176.827 186.54 176.999 186.929 177.068 187.296L176.311 187.572V183.34H179.855V200.3C179.855 201.744 179.637 203.017 179.201 204.118C178.788 205.242 178.181 206.182 177.378 206.939C176.575 207.719 175.6 208.303 174.454 208.693C173.307 209.106 172.011 209.312 170.567 209.312ZM170.704 198.476C171.828 198.476 172.826 198.213 173.697 197.685C174.568 197.158 175.245 196.435 175.727 195.518C176.208 194.601 176.449 193.546 176.449 192.353C176.449 191.161 176.197 190.106 175.692 189.188C175.211 188.248 174.534 187.514 173.663 186.987C172.814 186.459 171.828 186.196 170.704 186.196C169.603 186.196 168.617 186.471 167.746 187.021C166.897 187.549 166.221 188.283 165.716 189.223C165.235 190.14 164.994 191.184 164.994 192.353C164.994 193.523 165.235 194.578 165.716 195.518C166.221 196.435 166.897 197.158 167.746 197.685C168.617 198.213 169.603 198.476 170.704 198.476ZM183.171 201.4V175.944H186.715V201.4H183.171ZM198.108 201.744C196.251 201.744 194.599 201.355 193.155 200.575C191.733 199.772 190.609 198.683 189.783 197.307C188.981 195.931 188.579 194.348 188.579 192.56C188.579 191.138 188.809 189.842 189.267 188.672C189.726 187.503 190.357 186.494 191.159 185.645C191.985 184.774 192.96 184.109 194.083 183.65C195.23 183.168 196.468 182.928 197.799 182.928C198.968 182.928 200.058 183.157 201.067 183.616C202.076 184.051 202.947 184.659 203.681 185.439C204.438 186.219 205.011 187.147 205.401 188.225C205.814 189.28 206.009 190.438 205.986 191.7L205.951 193.213H191.194L190.403 190.392H202.89L202.374 190.977V190.152C202.305 189.395 202.053 188.718 201.617 188.122C201.181 187.526 200.631 187.056 199.966 186.712C199.301 186.368 198.578 186.196 197.799 186.196C196.56 186.196 195.517 186.436 194.668 186.918C193.82 187.377 193.178 188.065 192.742 188.982C192.306 189.876 192.088 190.989 192.088 192.319C192.088 193.58 192.352 194.681 192.879 195.621C193.407 196.539 194.152 197.25 195.115 197.754C196.079 198.259 197.191 198.511 198.452 198.511C199.347 198.511 200.172 198.362 200.929 198.064C201.709 197.766 202.546 197.227 203.44 196.447L205.229 198.958C204.679 199.508 204.002 199.99 203.199 200.403C202.42 200.816 201.583 201.148 200.688 201.4C199.817 201.63 198.957 201.744 198.108 201.744ZM216.932 201.4V177.32H226.358C228.078 177.32 229.626 177.607 231.002 178.18C232.401 178.754 233.593 179.579 234.58 180.657C235.566 181.735 236.322 183.008 236.85 184.476C237.377 185.943 237.641 187.572 237.641 189.36C237.641 191.149 237.377 192.789 236.85 194.28C236.322 195.747 235.566 197.02 234.58 198.098C233.616 199.153 232.435 199.967 231.036 200.54C229.637 201.114 228.078 201.4 226.358 201.4H216.932ZM220.647 198.201L220.544 197.823H226.186C227.401 197.823 228.479 197.628 229.42 197.238C230.383 196.848 231.185 196.298 231.828 195.587C232.493 194.853 232.997 193.959 233.341 192.904C233.685 191.849 233.857 190.668 233.857 189.36C233.857 188.053 233.685 186.884 233.341 185.852C232.997 184.797 232.493 183.902 231.828 183.168C231.162 182.435 230.36 181.873 229.42 181.483C228.479 181.093 227.401 180.898 226.186 180.898H220.441L220.647 180.588V198.201ZM248.479 201.744C246.621 201.744 244.97 201.355 243.525 200.575C242.103 199.772 240.98 198.683 240.154 197.307C239.351 195.931 238.95 194.348 238.95 192.56C238.95 191.138 239.179 189.842 239.638 188.672C240.097 187.503 240.727 186.494 241.53 185.645C242.356 184.774 243.33 184.109 244.454 183.65C245.601 183.168 246.839 182.928 248.169 182.928C249.339 182.928 250.428 183.157 251.437 183.616C252.446 184.051 253.318 184.659 254.052 185.439C254.808 186.219 255.382 187.147 255.772 188.225C256.184 189.28 256.379 190.438 256.356 191.7L256.322 193.213H241.564L240.773 190.392H253.26L252.744 190.977V190.152C252.676 189.395 252.423 188.718 251.988 188.122C251.552 187.526 251.001 187.056 250.336 186.712C249.671 186.368 248.949 186.196 248.169 186.196C246.931 186.196 245.887 186.436 245.039 186.918C244.19 187.377 243.548 188.065 243.112 188.982C242.677 189.876 242.459 190.989 242.459 192.319C242.459 193.58 242.723 194.681 243.25 195.621C243.777 196.539 244.523 197.25 245.486 197.754C246.449 198.259 247.561 198.511 248.823 198.511C249.717 198.511 250.543 198.362 251.3 198.064C252.079 197.766 252.916 197.227 253.811 196.447L255.6 198.958C255.049 199.508 254.373 199.99 253.57 200.403C252.79 200.816 251.953 201.148 251.059 201.4C250.187 201.63 249.327 201.744 248.479 201.744ZM264.068 201.4L256.431 183.34H260.25L265.754 196.86L265.1 197.169L270.982 183.34H274.629L266.614 201.4H264.068ZM284.075 201.744C282.217 201.744 280.566 201.355 279.121 200.575C277.699 199.772 276.576 198.683 275.75 197.307C274.947 195.931 274.546 194.348 274.546 192.56C274.546 191.138 274.775 189.842 275.234 188.672C275.693 187.503 276.323 186.494 277.126 185.645C277.952 184.774 278.926 184.109 280.05 183.65C281.197 183.168 282.435 182.928 283.765 182.928C284.935 182.928 286.024 183.157 287.033 183.616C288.042 184.051 288.914 184.659 289.648 185.439C290.404 186.219 290.978 187.147 291.368 188.225C291.78 189.28 291.975 190.438 291.952 191.7L291.918 193.213H277.16L276.369 190.392H288.856L288.34 190.977V190.152C288.272 189.395 288.019 188.718 287.584 188.122C287.148 187.526 286.597 187.056 285.932 186.712C285.267 186.368 284.545 186.196 283.765 186.196C282.527 186.196 281.483 186.436 280.635 186.918C279.786 187.377 279.144 188.065 278.708 188.982C278.273 189.876 278.055 190.989 278.055 192.319C278.055 193.58 278.319 194.681 278.846 195.621C279.373 196.539 280.119 197.25 281.082 197.754C282.045 198.259 283.157 198.511 284.419 198.511C285.313 198.511 286.139 198.362 286.896 198.064C287.675 197.766 288.512 197.227 289.407 196.447L291.196 198.958C290.645 199.508 289.969 199.99 289.166 200.403C288.386 200.816 287.549 201.148 286.655 201.4C285.783 201.63 284.923 201.744 284.075 201.744ZM294.152 201.4V175.944H297.695V201.4H294.152ZM308.779 201.744C307.013 201.744 305.431 201.343 304.032 200.54C302.656 199.715 301.567 198.603 300.764 197.204C299.961 195.782 299.56 194.165 299.56 192.353C299.56 190.541 299.961 188.936 300.764 187.537C301.567 186.115 302.656 185.003 304.032 184.2C305.431 183.375 307.013 182.962 308.779 182.962C310.522 182.962 312.082 183.375 313.458 184.2C314.857 185.003 315.957 186.115 316.76 187.537C317.563 188.936 317.964 190.541 317.964 192.353C317.964 194.165 317.563 195.782 316.76 197.204C315.957 198.603 314.857 199.715 313.458 200.54C312.082 201.343 310.522 201.744 308.779 201.744ZM308.779 198.511C309.857 198.511 310.82 198.247 311.669 197.72C312.517 197.169 313.182 196.435 313.664 195.518C314.146 194.578 314.375 193.523 314.352 192.353C314.375 191.161 314.146 190.106 313.664 189.188C313.182 188.248 312.517 187.514 311.669 186.987C310.82 186.459 309.857 186.196 308.779 186.196C307.701 186.196 306.727 186.471 305.855 187.021C305.007 187.549 304.342 188.283 303.86 189.223C303.378 190.14 303.149 191.184 303.172 192.353C303.149 193.523 303.378 194.578 303.86 195.518C304.342 196.435 305.007 197.169 305.855 197.72C306.727 198.247 307.701 198.511 308.779 198.511ZM320.105 208.968V183.34H323.682V187.468L323.132 187.159C323.27 186.471 323.66 185.817 324.302 185.198C324.944 184.556 325.724 184.04 326.641 183.65C327.581 183.237 328.544 183.031 329.53 183.031C331.159 183.031 332.604 183.432 333.865 184.235C335.126 185.037 336.124 186.138 336.858 187.537C337.592 188.936 337.959 190.541 337.959 192.353C337.959 194.142 337.592 195.747 336.858 197.169C336.147 198.568 335.161 199.68 333.899 200.506C332.638 201.309 331.216 201.71 329.634 201.71C328.579 201.71 327.558 201.504 326.572 201.091C325.586 200.655 324.749 200.105 324.061 199.44C323.373 198.775 322.949 198.087 322.788 197.376L323.682 196.894V208.968H320.105ZM329.049 198.442C330.104 198.442 331.044 198.178 331.87 197.651C332.695 197.123 333.349 196.401 333.831 195.484C334.312 194.566 334.553 193.523 334.553 192.353C334.553 191.184 334.312 190.152 333.831 189.257C333.372 188.34 332.73 187.617 331.904 187.09C331.079 186.563 330.127 186.299 329.049 186.299C327.971 186.299 327.019 186.563 326.194 187.09C325.368 187.595 324.714 188.305 324.233 189.223C323.751 190.14 323.51 191.184 323.51 192.353C323.51 193.523 323.751 194.566 324.233 195.484C324.714 196.401 325.368 197.123 326.194 197.651C327.019 198.178 327.971 198.442 329.049 198.442ZM348.515 201.744C346.657 201.744 345.006 201.355 343.561 200.575C342.139 199.772 341.015 198.683 340.19 197.307C339.387 195.931 338.986 194.348 338.986 192.56C338.986 191.138 339.215 189.842 339.674 188.672C340.132 187.503 340.763 186.494 341.566 185.645C342.391 184.774 343.366 184.109 344.49 183.65C345.636 183.168 346.875 182.928 348.205 182.928C349.375 182.928 350.464 183.157 351.473 183.616C352.482 184.051 353.353 184.659 354.087 185.439C354.844 186.219 355.417 187.147 355.807 188.225C356.22 189.28 356.415 190.438 356.392 191.7L356.358 193.213H341.6L340.809 190.392H353.296L352.78 190.977V190.152C352.711 189.395 352.459 188.718 352.023 188.122C351.588 187.526 351.037 187.056 350.372 186.712C349.707 186.368 348.985 186.196 348.205 186.196C346.967 186.196 345.923 186.436 345.074 186.918C344.226 187.377 343.584 188.065 343.148 188.982C342.712 189.876 342.494 190.989 342.494 192.319C342.494 193.58 342.758 194.681 343.286 195.621C343.813 196.539 344.558 197.25 345.522 197.754C346.485 198.259 347.597 198.511 348.859 198.511C349.753 198.511 350.579 198.362 351.335 198.064C352.115 197.766 352.952 197.227 353.847 196.447L355.635 198.958C355.085 199.508 354.408 199.99 353.606 200.403C352.826 200.816 351.989 201.148 351.095 201.4C350.223 201.63 349.363 201.744 348.515 201.744ZM358.523 201.4V183.34H362.1V189.016L361.756 187.64C362.009 186.769 362.433 185.978 363.029 185.267C363.648 184.556 364.348 183.994 365.128 183.581C365.93 183.168 366.756 182.962 367.604 182.962C367.994 182.962 368.361 182.996 368.705 183.065C369.072 183.134 369.359 183.214 369.565 183.306L368.636 187.159C368.361 187.044 368.052 186.952 367.708 186.884C367.387 186.792 367.065 186.746 366.744 186.746C366.125 186.746 365.529 186.872 364.956 187.124C364.405 187.354 363.912 187.686 363.476 188.122C363.064 188.535 362.731 189.028 362.479 189.601C362.227 190.152 362.1 190.759 362.1 191.424V201.4H358.523ZM390.26 201.744C388.517 201.744 386.889 201.435 385.375 200.816C383.862 200.174 382.532 199.291 381.385 198.167C380.238 197.043 379.344 195.736 378.702 194.245C378.082 192.732 377.773 191.103 377.773 189.36C377.773 187.64 378.082 186.035 378.702 184.544C379.344 183.054 380.227 181.758 381.35 180.657C382.497 179.533 383.827 178.662 385.341 178.043C386.855 177.424 388.483 177.114 390.226 177.114C391.441 177.114 392.622 177.286 393.769 177.63C394.939 177.974 395.993 178.456 396.934 179.075C397.874 179.694 398.642 180.405 399.239 181.208L396.831 183.719C396.143 183.054 395.432 182.503 394.698 182.068C393.987 181.632 393.253 181.299 392.496 181.07C391.739 180.841 390.983 180.726 390.226 180.726C388.987 180.726 387.841 180.944 386.786 181.38C385.754 181.815 384.836 182.423 384.034 183.203C383.254 183.983 382.646 184.9 382.21 185.955C381.775 186.987 381.557 188.122 381.557 189.36C381.557 190.553 381.786 191.688 382.245 192.766C382.704 193.821 383.334 194.75 384.137 195.552C384.962 196.355 385.903 196.986 386.958 197.444C388.036 197.903 389.171 198.132 390.363 198.132C391.258 198.132 392.106 198.006 392.909 197.754C393.712 197.479 394.423 197.1 395.042 196.619C395.661 196.137 396.143 195.587 396.487 194.968C396.831 194.325 397.003 193.649 397.003 192.938V192.25L397.519 192.732H390.157V189.051H400.821C400.867 189.303 400.901 189.555 400.924 189.808C400.947 190.037 400.959 190.266 400.959 190.496C400.981 190.702 400.993 190.908 400.993 191.115C400.993 192.697 400.718 194.142 400.167 195.449C399.617 196.734 398.849 197.846 397.863 198.786C396.899 199.726 395.764 200.46 394.457 200.988C393.173 201.492 391.774 201.744 390.26 201.744ZM403.216 201.4V183.34H406.794V189.016L406.45 187.64C406.702 186.769 407.126 185.978 407.722 185.267C408.342 184.556 409.041 183.994 409.821 183.581C410.624 183.168 411.449 182.962 412.298 182.962C412.688 182.962 413.054 182.996 413.398 183.065C413.765 183.134 414.052 183.214 414.258 183.306L413.33 187.159C413.054 187.044 412.745 186.952 412.401 186.884C412.08 186.792 411.759 186.746 411.438 186.746C410.818 186.746 410.222 186.872 409.649 187.124C409.098 187.354 408.605 187.686 408.17 188.122C407.757 188.535 407.424 189.028 407.172 189.601C406.92 190.152 406.794 190.759 406.794 191.424V201.4H403.216ZM422.716 201.744C420.95 201.744 419.368 201.343 417.969 200.54C416.593 199.715 415.503 198.603 414.701 197.204C413.898 195.782 413.497 194.165 413.497 192.353C413.497 190.541 413.898 188.936 414.701 187.537C415.503 186.115 416.593 185.003 417.969 184.2C419.368 183.375 420.95 182.962 422.716 182.962C424.459 182.962 426.018 183.375 427.394 184.2C428.793 185.003 429.894 186.115 430.697 187.537C431.5 188.936 431.901 190.541 431.901 192.353C431.901 194.165 431.5 195.782 430.697 197.204C429.894 198.603 428.793 199.715 427.394 200.54C426.018 201.343 424.459 201.744 422.716 201.744ZM422.716 198.511C423.794 198.511 424.757 198.247 425.606 197.72C426.454 197.169 427.119 196.435 427.601 195.518C428.082 194.578 428.312 193.523 428.289 192.353C428.312 191.161 428.082 190.106 427.601 189.188C427.119 188.248 426.454 187.514 425.606 186.987C424.757 186.459 423.794 186.196 422.716 186.196C421.638 186.196 420.664 186.471 419.792 187.021C418.944 187.549 418.278 188.283 417.797 189.223C417.315 190.14 417.086 191.184 417.109 192.353C417.086 193.523 417.315 194.578 417.797 195.518C418.278 196.435 418.944 197.169 419.792 197.72C420.664 198.247 421.638 198.511 422.716 198.511ZM440.371 201.744C439.087 201.744 437.963 201.446 437 200.85C436.06 200.254 435.326 199.417 434.799 198.339C434.294 197.261 434.042 195.977 434.042 194.486V183.34H437.585V193.523C437.585 194.578 437.745 195.495 438.067 196.275C438.411 197.032 438.892 197.616 439.511 198.029C440.153 198.442 440.922 198.648 441.816 198.648C442.481 198.648 443.089 198.545 443.639 198.339C444.19 198.11 444.66 197.8 445.05 197.41C445.463 197.02 445.784 196.55 446.013 196C446.242 195.449 446.357 194.853 446.357 194.211V183.34H449.9V201.4H446.357V197.616L446.976 197.204C446.701 198.052 446.231 198.82 445.566 199.508C444.924 200.196 444.155 200.747 443.261 201.16C442.367 201.55 441.403 201.744 440.371 201.744ZM453.15 208.968V183.34H456.728V187.468L456.177 187.159C456.315 186.471 456.705 185.817 457.347 185.198C457.989 184.556 458.769 184.04 459.686 183.65C460.626 183.237 461.589 183.031 462.576 183.031C464.204 183.031 465.649 183.432 466.91 184.235C468.171 185.037 469.169 186.138 469.903 187.537C470.637 188.936 471.004 190.541 471.004 192.353C471.004 194.142 470.637 195.747 469.903 197.169C469.192 198.568 468.206 199.68 466.944 200.506C465.683 201.309 464.261 201.71 462.679 201.71C461.624 201.71 460.603 201.504 459.617 201.091C458.631 200.655 457.794 200.105 457.106 199.44C456.418 198.775 455.994 198.087 455.833 197.376L456.728 196.894V208.968H453.15ZM462.094 198.442C463.149 198.442 464.089 198.178 464.915 197.651C465.74 197.123 466.394 196.401 466.876 195.484C467.357 194.566 467.598 193.523 467.598 192.353C467.598 191.184 467.357 190.152 466.876 189.257C466.417 188.34 465.775 187.617 464.949 187.09C464.124 186.563 463.172 186.299 462.094 186.299C461.016 186.299 460.064 186.563 459.239 187.09C458.413 187.595 457.76 188.305 457.278 189.223C456.796 190.14 456.556 191.184 456.556 192.353C456.556 193.523 456.796 194.566 457.278 195.484C457.76 196.401 458.413 197.123 459.239 197.651C460.064 198.178 461.016 198.442 462.094 198.442ZM479.152 201.744C477.638 201.744 476.273 201.481 475.058 200.953C473.842 200.426 472.833 199.646 472.031 198.614L474.439 196.55C475.127 197.353 475.872 197.938 476.675 198.304C477.5 198.648 478.429 198.82 479.461 198.82C479.874 198.82 480.252 198.775 480.596 198.683C480.963 198.568 481.273 198.408 481.525 198.201C481.8 197.995 482.007 197.754 482.144 197.479C482.282 197.181 482.351 196.86 482.351 196.516C482.351 195.919 482.133 195.438 481.697 195.071C481.468 194.91 481.101 194.738 480.596 194.555C480.115 194.348 479.484 194.142 478.704 193.936C477.374 193.592 476.285 193.202 475.436 192.766C474.588 192.33 473.934 191.837 473.476 191.287C473.132 190.851 472.879 190.381 472.719 189.876C472.558 189.349 472.478 188.776 472.478 188.156C472.478 187.4 472.638 186.712 472.96 186.092C473.304 185.45 473.762 184.9 474.336 184.441C474.932 183.96 475.62 183.593 476.4 183.34C477.202 183.088 478.051 182.962 478.945 182.962C479.794 182.962 480.631 183.077 481.456 183.306C482.305 183.535 483.085 183.868 483.796 184.304C484.506 184.739 485.103 185.255 485.584 185.852L483.555 188.088C483.119 187.652 482.637 187.273 482.11 186.952C481.605 186.608 481.089 186.345 480.562 186.161C480.034 185.978 479.553 185.886 479.117 185.886C478.636 185.886 478.2 185.932 477.81 186.024C477.42 186.115 477.088 186.253 476.812 186.436C476.56 186.62 476.365 186.849 476.228 187.124C476.09 187.4 476.021 187.709 476.021 188.053C476.044 188.351 476.113 188.638 476.228 188.913C476.365 189.165 476.549 189.383 476.778 189.567C477.03 189.75 477.409 189.945 477.913 190.152C478.418 190.358 479.06 190.553 479.84 190.736C480.986 191.035 481.926 191.367 482.66 191.734C483.417 192.078 484.013 192.479 484.449 192.938C484.908 193.374 485.229 193.878 485.412 194.452C485.596 195.025 485.688 195.667 485.688 196.378C485.688 197.41 485.389 198.339 484.793 199.164C484.22 199.967 483.44 200.598 482.454 201.056C481.468 201.515 480.367 201.744 479.152 201.744Z" fill="#666666"/>
<path d="M78.2429 226.56C77.4536 226.56 76.7229 226.416 76.0509 226.128C75.3896 225.84 74.8083 225.44 74.3069 224.928C73.8163 224.406 73.4323 223.798 73.1549 223.104C72.8883 222.4 72.7549 221.632 72.7549 220.8C72.7549 219.968 72.8883 219.206 73.1549 218.512C73.4323 217.808 73.8163 217.2 74.3069 216.688C74.8083 216.166 75.3896 215.76 76.0509 215.472C76.7229 215.184 77.4536 215.04 78.2429 215.04C79.0323 215.04 79.7576 215.184 80.4189 215.472C81.0909 215.76 81.6723 216.166 82.163 216.688C82.6643 217.211 83.0483 217.824 83.315 218.528C83.5923 219.222 83.731 219.979 83.731 220.8C83.731 221.622 83.5923 222.384 83.315 223.088C83.0483 223.782 82.6643 224.39 82.163 224.912C81.6723 225.435 81.0909 225.84 80.4189 226.128C79.7576 226.416 79.0323 226.56 78.2429 226.56ZM78.2429 224.88C78.7869 224.88 79.2829 224.779 79.7309 224.576C80.1896 224.374 80.5843 224.091 80.9149 223.728C81.2456 223.355 81.5016 222.923 81.6829 222.432C81.8749 221.931 81.9709 221.387 81.9709 220.8C81.9709 220.214 81.8749 219.675 81.6829 219.184C81.5016 218.683 81.2456 218.251 80.9149 217.888C80.5843 217.515 80.1896 217.227 79.7309 217.024C79.2829 216.822 78.7869 216.72 78.2429 216.72C77.6989 216.72 77.1976 216.822 76.7389 217.024C76.2909 217.227 75.8963 217.51 75.5549 217.872C75.2243 218.235 74.9683 218.667 74.7869 219.168C74.6056 219.659 74.5149 220.203 74.5149 220.8C74.5149 221.387 74.6056 221.931 74.7869 222.432C74.9683 222.934 75.2243 223.366 75.5549 223.728C75.8963 224.091 76.2909 224.374 76.7389 224.576C77.1976 224.779 77.6989 224.88 78.2429 224.88ZM84.8546 226.4V218H86.5026V219.728L86.2146 219.92C86.3213 219.547 86.5293 219.206 86.8386 218.896C87.1479 218.576 87.5159 218.32 87.9426 218.128C88.3693 217.926 88.8066 217.824 89.2546 217.824C89.8946 217.824 90.4279 217.952 90.8546 218.208C91.2813 218.454 91.6013 218.832 91.8146 219.344C92.0279 219.856 92.1346 220.502 92.1346 221.28V226.4H90.4866V221.392C90.4866 220.912 90.4226 220.518 90.2946 220.208C90.1666 219.888 89.9693 219.659 89.7026 219.52C89.4359 219.371 89.1053 219.307 88.7106 219.328C88.3906 219.328 88.0973 219.382 87.8306 219.488C87.5639 219.584 87.3293 219.723 87.1266 219.904C86.9346 220.086 86.7799 220.299 86.6626 220.544C86.5559 220.779 86.5026 221.035 86.5026 221.312V226.4H85.6866C85.5479 226.4 85.4093 226.4 85.2706 226.4C85.1319 226.4 84.9932 226.4 84.8546 226.4ZM102.215 226.56C101.436 226.56 100.721 226.422 100.071 226.144C99.42 225.867 98.8546 225.472 98.3746 224.96C97.8946 224.438 97.5213 223.824 97.2546 223.12C96.9986 222.416 96.8706 221.643 96.8706 220.8C96.8706 220 97.0093 219.259 97.2866 218.576C97.5746 217.883 97.9693 217.275 98.4706 216.752C98.972 216.23 99.5533 215.824 100.215 215.536C100.876 215.248 101.591 215.104 102.359 215.104C102.903 215.104 103.431 215.19 103.943 215.36C104.465 215.52 104.935 215.75 105.351 216.048C105.777 216.336 106.124 216.667 106.391 217.04L105.239 218.24C104.929 217.931 104.615 217.675 104.295 217.472C103.985 217.259 103.665 217.099 103.335 216.992C103.015 216.886 102.689 216.832 102.359 216.832C101.836 216.832 101.345 216.934 100.887 217.136C100.439 217.328 100.044 217.6 99.7026 217.952C99.372 218.304 99.1106 218.726 98.9186 219.216C98.7266 219.696 98.6306 220.224 98.6306 220.8C98.6306 221.408 98.7213 221.963 98.9026 222.464C99.0946 222.955 99.3613 223.376 99.7026 223.728C100.044 224.08 100.449 224.352 100.919 224.544C101.399 224.726 101.927 224.816 102.503 224.816C102.855 224.816 103.201 224.768 103.543 224.672C103.884 224.576 104.204 224.438 104.503 224.256C104.801 224.075 105.073 223.862 105.319 223.616L106.183 225.024C105.937 225.312 105.601 225.574 105.175 225.808C104.759 226.043 104.289 226.23 103.767 226.368C103.255 226.496 102.737 226.56 102.215 226.56ZM110.546 226.56C109.853 226.56 109.218 226.368 108.642 225.984C108.077 225.6 107.623 225.078 107.282 224.416C106.941 223.755 106.77 223.008 106.77 222.176C106.77 221.334 106.941 220.587 107.282 219.936C107.634 219.275 108.103 218.758 108.69 218.384C109.287 218.011 109.954 217.824 110.69 217.824C111.127 217.824 111.527 217.888 111.89 218.016C112.253 218.144 112.567 218.326 112.834 218.56C113.111 218.784 113.335 219.046 113.506 219.344C113.687 219.643 113.799 219.963 113.842 220.304L113.474 220.176V218H115.138V226.4H113.474V224.4L113.858 224.288C113.794 224.576 113.661 224.859 113.458 225.136C113.266 225.403 113.015 225.643 112.706 225.856C112.407 226.07 112.071 226.24 111.698 226.368C111.335 226.496 110.951 226.56 110.546 226.56ZM110.978 225.04C111.479 225.04 111.922 224.918 112.306 224.672C112.69 224.427 112.989 224.091 113.202 223.664C113.426 223.227 113.538 222.731 113.538 222.176C113.538 221.632 113.426 221.147 113.202 220.72C112.989 220.294 112.69 219.958 112.306 219.712C111.922 219.467 111.479 219.344 110.978 219.344C110.487 219.344 110.05 219.467 109.666 219.712C109.293 219.958 108.994 220.294 108.77 220.72C108.557 221.147 108.45 221.632 108.45 222.176C108.45 222.731 108.557 223.227 108.77 223.664C108.994 224.091 109.293 224.427 109.666 224.672C110.05 224.918 110.487 225.04 110.978 225.04ZM116.607 226.4V218H118.271V219.792L117.967 219.984C118.052 219.707 118.186 219.44 118.367 219.184C118.559 218.928 118.788 218.704 119.055 218.512C119.332 218.31 119.626 218.15 119.935 218.032C120.255 217.915 120.58 217.856 120.911 217.856C121.391 217.856 121.812 217.936 122.175 218.096C122.538 218.256 122.836 218.496 123.071 218.816C123.306 219.136 123.476 219.536 123.583 220.016L123.327 219.952L123.439 219.68C123.556 219.435 123.716 219.206 123.919 218.992C124.132 218.768 124.372 218.571 124.639 218.4C124.906 218.23 125.188 218.096 125.487 218C125.786 217.904 126.079 217.856 126.367 217.856C126.996 217.856 127.514 217.984 127.919 218.24C128.335 218.496 128.644 218.886 128.847 219.408C129.06 219.931 129.167 220.582 129.167 221.36V226.4H127.503V221.456C127.503 220.976 127.439 220.587 127.311 220.288C127.194 219.979 127.012 219.75 126.767 219.6C126.522 219.451 126.207 219.376 125.823 219.376C125.524 219.376 125.242 219.43 124.975 219.536C124.719 219.632 124.495 219.771 124.303 219.952C124.111 220.134 123.962 220.347 123.855 220.592C123.748 220.827 123.695 221.088 123.695 221.376V226.4H122.031V221.424C122.031 220.987 121.967 220.619 121.839 220.32C121.711 220.011 121.524 219.776 121.279 219.616C121.034 219.456 120.735 219.376 120.383 219.376C120.084 219.376 119.807 219.43 119.551 219.536C119.295 219.632 119.071 219.771 118.879 219.952C118.687 220.123 118.538 220.331 118.431 220.576C118.324 220.811 118.271 221.067 118.271 221.344V226.4H116.607ZM130.573 229.92V218H132.237V219.92L131.981 219.776C132.045 219.456 132.227 219.152 132.525 218.864C132.824 218.566 133.187 218.326 133.613 218.144C134.051 217.952 134.499 217.856 134.957 217.856C135.715 217.856 136.387 218.043 136.973 218.416C137.56 218.79 138.024 219.302 138.365 219.952C138.707 220.603 138.877 221.35 138.877 222.192C138.877 223.024 138.707 223.771 138.365 224.432C138.035 225.083 137.576 225.6 136.989 225.984C136.403 226.358 135.741 226.544 135.005 226.544C134.515 226.544 134.04 226.448 133.581 226.256C133.123 226.054 132.733 225.798 132.413 225.488C132.093 225.179 131.896 224.859 131.821 224.528L132.237 224.304V229.92H130.573ZM134.733 225.024C135.224 225.024 135.661 224.902 136.045 224.656C136.429 224.411 136.733 224.075 136.957 223.648C137.181 223.222 137.293 222.736 137.293 222.192C137.293 221.648 137.181 221.168 136.957 220.752C136.744 220.326 136.445 219.99 136.061 219.744C135.677 219.499 135.235 219.376 134.733 219.376C134.232 219.376 133.789 219.499 133.405 219.744C133.021 219.979 132.717 220.31 132.493 220.736C132.269 221.163 132.157 221.648 132.157 222.192C132.157 222.736 132.269 223.222 132.493 223.648C132.717 224.075 133.021 224.411 133.405 224.656C133.789 224.902 134.232 225.024 134.733 225.024ZM142.811 226.56C142.214 226.56 141.691 226.422 141.243 226.144C140.806 225.867 140.465 225.478 140.219 224.976C139.985 224.475 139.867 223.878 139.867 223.184V218H141.515V222.736C141.515 223.227 141.59 223.654 141.739 224.016C141.899 224.368 142.123 224.64 142.411 224.832C142.71 225.024 143.067 225.12 143.483 225.12C143.793 225.12 144.075 225.072 144.331 224.976C144.587 224.87 144.806 224.726 144.987 224.544C145.179 224.363 145.329 224.144 145.435 223.888C145.542 223.632 145.595 223.355 145.595 223.056V218H147.243V226.4H145.595V224.64L145.883 224.448C145.755 224.843 145.537 225.2 145.227 225.52C144.929 225.84 144.571 226.096 144.155 226.288C143.739 226.47 143.291 226.56 142.811 226.56ZM151.555 226.56C150.851 226.56 150.216 226.438 149.651 226.192C149.085 225.947 148.616 225.584 148.243 225.104L149.363 224.144C149.683 224.518 150.029 224.79 150.403 224.96C150.787 225.12 151.219 225.2 151.699 225.2C151.891 225.2 152.067 225.179 152.227 225.136C152.397 225.083 152.541 225.008 152.659 224.912C152.787 224.816 152.883 224.704 152.947 224.576C153.011 224.438 153.043 224.288 153.043 224.128C153.043 223.851 152.941 223.627 152.739 223.456C152.632 223.382 152.461 223.302 152.227 223.216C152.003 223.12 151.709 223.024 151.347 222.928C150.728 222.768 150.221 222.587 149.827 222.384C149.432 222.182 149.128 221.952 148.915 221.696C148.755 221.494 148.637 221.275 148.563 221.04C148.488 220.795 148.451 220.528 148.451 220.24C148.451 219.888 148.525 219.568 148.675 219.28C148.835 218.982 149.048 218.726 149.315 218.512C149.592 218.288 149.912 218.118 150.275 218C150.648 217.883 151.043 217.824 151.459 217.824C151.853 217.824 152.243 217.878 152.627 217.984C153.021 218.091 153.384 218.246 153.715 218.448C154.045 218.651 154.323 218.891 154.547 219.168L153.603 220.208C153.4 220.006 153.176 219.83 152.931 219.68C152.696 219.52 152.456 219.398 152.211 219.312C151.965 219.227 151.741 219.184 151.539 219.184C151.315 219.184 151.112 219.206 150.931 219.248C150.749 219.291 150.595 219.355 150.467 219.44C150.349 219.526 150.259 219.632 150.195 219.76C150.131 219.888 150.099 220.032 150.099 220.192C150.109 220.331 150.141 220.464 150.195 220.592C150.259 220.71 150.344 220.811 150.451 220.896C150.568 220.982 150.744 221.072 150.979 221.168C151.213 221.264 151.512 221.355 151.875 221.44C152.408 221.579 152.845 221.734 153.187 221.904C153.539 222.064 153.816 222.251 154.019 222.464C154.232 222.667 154.381 222.902 154.467 223.168C154.552 223.435 154.595 223.734 154.595 224.064C154.595 224.544 154.456 224.976 154.179 225.36C153.912 225.734 153.549 226.027 153.091 226.24C152.632 226.454 152.12 226.56 151.555 226.56Z" fill="#609CFF"/>
<path d="M160.911 222.944C160.517 222.944 160.154 222.848 159.823 222.656C159.493 222.464 159.226 222.203 159.023 221.872C158.831 221.542 158.735 221.179 158.735 220.784C158.735 220.379 158.831 220.011 159.023 219.68C159.215 219.35 159.477 219.088 159.807 218.896C160.138 218.694 160.506 218.592 160.911 218.592C161.317 218.592 161.685 218.694 162.015 218.896C162.346 219.088 162.607 219.35 162.799 219.68C163.002 220.011 163.103 220.379 163.103 220.784C163.103 221.179 163.002 221.542 162.799 221.872C162.607 222.203 162.346 222.464 162.015 222.656C161.685 222.848 161.317 222.944 160.911 222.944ZM168.127 226.4V215.2H169.855V226.4H168.127ZM168.895 221.632V219.968H174.671V221.632H168.895ZM168.895 216.864V215.2H175.391V216.864H168.895ZM179.246 226.56C178.648 226.56 178.126 226.422 177.678 226.144C177.24 225.867 176.899 225.478 176.654 224.976C176.419 224.475 176.302 223.878 176.302 223.184V218H177.95V222.736C177.95 223.227 178.024 223.654 178.174 224.016C178.334 224.368 178.558 224.64 178.846 224.832C179.144 225.024 179.502 225.12 179.918 225.12C180.227 225.12 180.51 225.072 180.766 224.976C181.022 224.87 181.24 224.726 181.422 224.544C181.614 224.363 181.763 224.144 181.87 223.888C181.976 223.632 182.03 223.355 182.03 223.056V218H183.678V226.4H182.03V224.64L182.318 224.448C182.19 224.843 181.971 225.2 181.662 225.52C181.363 225.84 181.006 226.096 180.59 226.288C180.174 226.47 179.726 226.56 179.246 226.56ZM186.229 226.4V215.856H187.877V226.4H186.229ZM184.485 219.6V218H189.829V219.6H184.485ZM193.474 226.56C192.877 226.56 192.354 226.422 191.906 226.144C191.469 225.867 191.127 225.478 190.882 224.976C190.647 224.475 190.53 223.878 190.53 223.184V218H192.178V222.736C192.178 223.227 192.253 223.654 192.402 224.016C192.562 224.368 192.786 224.64 193.074 224.832C193.373 225.024 193.73 225.12 194.146 225.12C194.455 225.12 194.738 225.072 194.994 224.976C195.25 224.87 195.469 224.726 195.65 224.544C195.842 224.363 195.991 224.144 196.098 223.888C196.205 223.632 196.258 223.355 196.258 223.056V218H197.906V226.4H196.258V224.64L196.546 224.448C196.418 224.843 196.199 225.2 195.89 225.52C195.591 225.84 195.234 226.096 194.818 226.288C194.402 226.47 193.954 226.56 193.474 226.56ZM199.417 226.4V218H201.081V220.64L200.921 220C201.039 219.595 201.236 219.227 201.513 218.896C201.801 218.566 202.127 218.304 202.489 218.112C202.863 217.92 203.247 217.824 203.641 217.824C203.823 217.824 203.993 217.84 204.153 217.872C204.324 217.904 204.457 217.942 204.553 217.984L204.121 219.776C203.993 219.723 203.849 219.68 203.689 219.648C203.54 219.606 203.391 219.584 203.241 219.584C202.953 219.584 202.676 219.643 202.409 219.76C202.153 219.867 201.924 220.022 201.721 220.224C201.529 220.416 201.375 220.646 201.257 220.912C201.14 221.168 201.081 221.451 201.081 221.76V226.4H199.417ZM208.631 226.56C207.767 226.56 206.999 226.379 206.327 226.016C205.666 225.643 205.143 225.136 204.759 224.496C204.386 223.856 204.199 223.12 204.199 222.288C204.199 221.627 204.306 221.024 204.519 220.48C204.732 219.936 205.026 219.467 205.399 219.072C205.783 218.667 206.236 218.358 206.759 218.144C207.292 217.92 207.868 217.808 208.487 217.808C209.031 217.808 209.538 217.915 210.007 218.128C210.476 218.331 210.882 218.614 211.223 218.976C211.575 219.339 211.842 219.771 212.023 220.272C212.215 220.763 212.306 221.302 212.295 221.888L212.279 222.592H205.415L205.047 221.28H210.855L210.615 221.552V221.168C210.583 220.816 210.466 220.502 210.263 220.224C210.06 219.947 209.804 219.728 209.495 219.568C209.186 219.408 208.85 219.328 208.487 219.328C207.911 219.328 207.426 219.44 207.031 219.664C206.636 219.878 206.338 220.198 206.135 220.624C205.932 221.04 205.831 221.558 205.831 222.176C205.831 222.763 205.954 223.275 206.199 223.712C206.444 224.139 206.791 224.47 207.239 224.704C207.687 224.939 208.204 225.056 208.791 225.056C209.207 225.056 209.591 224.987 209.943 224.848C210.306 224.71 210.695 224.459 211.111 224.096L211.943 225.264C211.687 225.52 211.372 225.744 210.999 225.936C210.636 226.128 210.247 226.283 209.831 226.4C209.426 226.507 209.026 226.56 208.631 226.56ZM216.971 226.4V224.8H218.779V216.8H216.971V215.2H222.315V216.8H220.507V224.8H222.315V226.4H216.971ZM223.811 226.4V218H225.459V219.728L225.171 219.92C225.278 219.547 225.486 219.206 225.795 218.896C226.105 218.576 226.473 218.32 226.899 218.128C227.326 217.926 227.763 217.824 228.211 217.824C228.851 217.824 229.385 217.952 229.811 218.208C230.238 218.454 230.558 218.832 230.771 219.344C230.985 219.856 231.091 220.502 231.091 221.28V226.4H229.443V221.392C229.443 220.912 229.379 220.518 229.251 220.208C229.123 219.888 228.926 219.659 228.659 219.52C228.393 219.371 228.062 219.307 227.667 219.328C227.347 219.328 227.054 219.382 226.787 219.488C226.521 219.584 226.286 219.723 226.083 219.904C225.891 220.086 225.737 220.299 225.619 220.544C225.513 220.779 225.459 221.035 225.459 221.312V226.4H224.643C224.505 226.4 224.366 226.4 224.227 226.4C224.089 226.4 223.95 226.4 223.811 226.4ZM235.327 226.56C234.623 226.56 233.988 226.438 233.423 226.192C232.858 225.947 232.388 225.584 232.015 225.104L233.135 224.144C233.455 224.518 233.802 224.79 234.175 224.96C234.559 225.12 234.991 225.2 235.471 225.2C235.663 225.2 235.839 225.179 235.999 225.136C236.17 225.083 236.314 225.008 236.431 224.912C236.559 224.816 236.655 224.704 236.719 224.576C236.783 224.438 236.815 224.288 236.815 224.128C236.815 223.851 236.714 223.627 236.511 223.456C236.404 223.382 236.234 223.302 235.999 223.216C235.775 223.12 235.482 223.024 235.119 222.928C234.5 222.768 233.994 222.587 233.599 222.384C233.204 222.182 232.9 221.952 232.687 221.696C232.527 221.494 232.41 221.275 232.335 221.04C232.26 220.795 232.223 220.528 232.223 220.24C232.223 219.888 232.298 219.568 232.447 219.28C232.607 218.982 232.82 218.726 233.087 218.512C233.364 218.288 233.684 218.118 234.047 218C234.42 217.883 234.815 217.824 235.231 217.824C235.626 217.824 236.015 217.878 236.399 217.984C236.794 218.091 237.156 218.246 237.487 218.448C237.818 218.651 238.095 218.891 238.319 219.168L237.375 220.208C237.172 220.006 236.948 219.83 236.703 219.68C236.468 219.52 236.228 219.398 235.983 219.312C235.738 219.227 235.514 219.184 235.311 219.184C235.087 219.184 234.884 219.206 234.703 219.248C234.522 219.291 234.367 219.355 234.239 219.44C234.122 219.526 234.031 219.632 233.967 219.76C233.903 219.888 233.871 220.032 233.871 220.192C233.882 220.331 233.914 220.464 233.967 220.592C234.031 220.71 234.116 220.811 234.223 220.896C234.34 220.982 234.516 221.072 234.751 221.168C234.986 221.264 235.284 221.355 235.647 221.44C236.18 221.579 236.618 221.734 236.959 221.904C237.311 222.064 237.588 222.251 237.791 222.464C238.004 222.667 238.154 222.902 238.239 223.168C238.324 223.435 238.367 223.734 238.367 224.064C238.367 224.544 238.228 224.976 237.951 225.36C237.684 225.734 237.322 226.027 236.863 226.24C236.404 226.454 235.892 226.56 235.327 226.56ZM240.423 226.4V215.856H242.071V226.4H240.423ZM238.679 219.6V218H244.023V219.6H238.679ZM244.996 226.4V218H246.644V226.4H244.996ZM245.796 216.144C245.444 216.144 245.172 216.054 244.98 215.872C244.788 215.691 244.692 215.435 244.692 215.104C244.692 214.795 244.788 214.544 244.98 214.352C245.182 214.16 245.454 214.064 245.796 214.064C246.148 214.064 246.42 214.155 246.612 214.336C246.804 214.518 246.9 214.774 246.9 215.104C246.9 215.414 246.798 215.664 246.596 215.856C246.404 216.048 246.137 216.144 245.796 216.144ZM249.417 226.4V215.856H251.065V226.4H249.417ZM247.673 219.6V218H253.017V219.6H247.673ZM256.662 226.56C256.064 226.56 255.542 226.422 255.094 226.144C254.656 225.867 254.315 225.478 254.07 224.976C253.835 224.475 253.718 223.878 253.718 223.184V218H255.366V222.736C255.366 223.227 255.44 223.654 255.59 224.016C255.75 224.368 255.974 224.64 256.262 224.832C256.56 225.024 256.918 225.12 257.334 225.12C257.643 225.12 257.926 225.072 258.182 224.976C258.438 224.87 258.656 224.726 258.838 224.544C259.03 224.363 259.179 224.144 259.286 223.888C259.392 223.632 259.446 223.355 259.446 223.056V218H261.094V226.4H259.446V224.64L259.734 224.448C259.606 224.843 259.387 225.2 259.078 225.52C258.779 225.84 258.422 226.096 258.006 226.288C257.59 226.47 257.142 226.56 256.662 226.56ZM263.645 226.4V215.856H265.293V226.4H263.645ZM261.901 219.6V218H267.245V219.6H261.901ZM271.788 226.56C270.924 226.56 270.156 226.379 269.484 226.016C268.822 225.643 268.3 225.136 267.916 224.496C267.542 223.856 267.356 223.12 267.356 222.288C267.356 221.627 267.462 221.024 267.676 220.48C267.889 219.936 268.182 219.467 268.556 219.072C268.94 218.667 269.393 218.358 269.916 218.144C270.449 217.92 271.025 217.808 271.644 217.808C272.188 217.808 272.694 217.915 273.164 218.128C273.633 218.331 274.038 218.614 274.38 218.976C274.732 219.339 274.998 219.771 275.18 220.272C275.372 220.763 275.462 221.302 275.452 221.888L275.436 222.592H268.572L268.204 221.28H274.012L273.772 221.552V221.168C273.74 220.816 273.622 220.502 273.42 220.224C273.217 219.947 272.961 219.728 272.652 219.568C272.342 219.408 272.006 219.328 271.644 219.328C271.068 219.328 270.582 219.44 270.188 219.664C269.793 219.878 269.494 220.198 269.292 220.624C269.089 221.04 268.988 221.558 268.988 222.176C268.988 222.763 269.11 223.275 269.356 223.712C269.601 224.139 269.948 224.47 270.396 224.704C270.844 224.939 271.361 225.056 271.948 225.056C272.364 225.056 272.748 224.987 273.1 224.848C273.462 224.71 273.852 224.459 274.268 224.096L275.1 225.264C274.844 225.52 274.529 225.744 274.156 225.936C273.793 226.128 273.404 226.283 272.988 226.4C272.582 226.507 272.182 226.56 271.788 226.56ZM283.903 226.56C283.082 226.56 282.346 226.374 281.695 226C281.055 225.616 280.548 225.099 280.175 224.448C279.802 223.787 279.615 223.035 279.615 222.192C279.615 221.35 279.802 220.603 280.175 219.952C280.548 219.291 281.055 218.774 281.695 218.4C282.346 218.016 283.082 217.824 283.903 217.824C284.714 217.824 285.439 218.016 286.079 218.4C286.73 218.774 287.242 219.291 287.615 219.952C287.988 220.603 288.175 221.35 288.175 222.192C288.175 223.035 287.988 223.787 287.615 224.448C287.242 225.099 286.73 225.616 286.079 226C285.439 226.374 284.714 226.56 283.903 226.56ZM283.903 225.056C284.404 225.056 284.852 224.934 285.247 224.688C285.642 224.432 285.951 224.091 286.175 223.664C286.399 223.227 286.506 222.736 286.495 222.192C286.506 221.638 286.399 221.147 286.175 220.72C285.951 220.283 285.642 219.942 285.247 219.696C284.852 219.451 284.404 219.328 283.903 219.328C283.402 219.328 282.948 219.456 282.543 219.712C282.148 219.958 281.839 220.299 281.615 220.736C281.391 221.163 281.284 221.648 281.295 222.192C281.284 222.736 281.391 223.227 281.615 223.664C281.839 224.091 282.148 224.432 282.543 224.688C282.948 224.934 283.402 225.056 283.903 225.056ZM289.77 226.4V217.056C289.77 216.576 289.877 216.15 290.09 215.776C290.304 215.403 290.597 215.11 290.97 214.896C291.344 214.683 291.776 214.576 292.266 214.576C292.608 214.576 292.928 214.64 293.226 214.768C293.525 214.896 293.765 215.067 293.946 215.28L293.386 216.544C293.248 216.416 293.093 216.315 292.922 216.24C292.762 216.155 292.608 216.112 292.458 216.112C292.234 216.112 292.042 216.15 291.882 216.224C291.733 216.288 291.621 216.395 291.546 216.544C291.472 216.683 291.434 216.854 291.434 217.056V226.4H290.602C290.464 226.4 290.325 226.4 290.186 226.4C290.048 226.4 289.909 226.4 289.77 226.4ZM288.426 219.664V218.144H293.418V219.664H288.426ZM298.44 226.4V215.2H305.496V216.864H300.168V224.736H305.496V226.4H298.44ZM299.224 221.488V219.824H304.616V221.488H299.224ZM307.052 226.4V218H308.7V219.728L308.412 219.92C308.519 219.547 308.727 219.206 309.036 218.896C309.345 218.576 309.713 218.32 310.14 218.128C310.567 217.926 311.004 217.824 311.452 217.824C312.092 217.824 312.625 217.952 313.052 218.208C313.479 218.454 313.799 218.832 314.012 219.344C314.225 219.856 314.332 220.502 314.332 221.28V226.4H312.684V221.392C312.684 220.912 312.62 220.518 312.492 220.208C312.364 219.888 312.167 219.659 311.9 219.52C311.633 219.371 311.303 219.307 310.908 219.328C310.588 219.328 310.295 219.382 310.028 219.488C309.761 219.584 309.527 219.723 309.324 219.904C309.132 220.086 308.977 220.299 308.86 220.544C308.753 220.779 308.7 221.035 308.7 221.312V226.4H307.884C307.745 226.4 307.607 226.4 307.468 226.4C307.329 226.4 307.191 226.4 307.052 226.4ZM319.528 230.08C318.93 230.08 318.333 229.984 317.736 229.792C317.149 229.611 316.674 229.371 316.312 229.072L316.92 227.792C317.133 227.952 317.384 228.091 317.672 228.208C317.96 228.336 318.264 228.432 318.584 228.496C318.904 228.571 319.218 228.608 319.528 228.608C320.114 228.608 320.605 228.512 321 228.32C321.394 228.128 321.693 227.846 321.896 227.472C322.098 227.099 322.2 226.635 322.2 226.08V224.464L322.376 224.576C322.322 224.907 322.146 225.227 321.848 225.536C321.56 225.835 321.197 226.08 320.76 226.272C320.322 226.464 319.874 226.56 319.416 226.56C318.616 226.56 317.901 226.374 317.272 226C316.653 225.616 316.162 225.099 315.8 224.448C315.437 223.787 315.256 223.035 315.256 222.192C315.256 221.35 315.432 220.603 315.784 219.952C316.146 219.291 316.637 218.774 317.256 218.4C317.885 218.016 318.589 217.824 319.368 217.824C319.688 217.824 319.997 217.867 320.296 217.952C320.594 218.027 320.872 218.139 321.128 218.288C321.384 218.427 321.613 218.582 321.816 218.752C322.018 218.923 322.184 219.104 322.312 219.296C322.44 219.488 322.52 219.67 322.552 219.84L322.2 219.968V218H323.848V225.888C323.848 226.56 323.746 227.152 323.544 227.664C323.352 228.187 323.069 228.624 322.696 228.976C322.322 229.339 321.869 229.611 321.336 229.792C320.802 229.984 320.2 230.08 319.528 230.08ZM319.592 225.04C320.114 225.04 320.578 224.918 320.984 224.672C321.389 224.427 321.704 224.091 321.928 223.664C322.152 223.238 322.264 222.747 322.264 222.192C322.264 221.638 322.146 221.147 321.912 220.72C321.688 220.283 321.373 219.942 320.968 219.696C320.573 219.451 320.114 219.328 319.592 219.328C319.08 219.328 318.621 219.456 318.216 219.712C317.821 219.958 317.506 220.299 317.272 220.736C317.048 221.163 316.936 221.648 316.936 222.192C316.936 222.736 317.048 223.227 317.272 223.664C317.506 224.091 317.821 224.427 318.216 224.672C318.621 224.918 319.08 225.04 319.592 225.04ZM325.63 226.4V218H327.278V226.4H325.63ZM326.43 216.144C326.078 216.144 325.806 216.054 325.614 215.872C325.422 215.691 325.326 215.435 325.326 215.104C325.326 214.795 325.422 214.544 325.614 214.352C325.817 214.16 326.089 214.064 326.43 214.064C326.782 214.064 327.054 214.155 327.246 214.336C327.438 214.518 327.534 214.774 327.534 215.104C327.534 215.414 327.433 215.664 327.23 215.856C327.038 216.048 326.772 216.144 326.43 216.144ZM329.011 226.4V218H330.659V219.728L330.371 219.92C330.478 219.547 330.686 219.206 330.995 218.896C331.305 218.576 331.673 218.32 332.099 218.128C332.526 217.926 332.963 217.824 333.411 217.824C334.051 217.824 334.585 217.952 335.011 218.208C335.438 218.454 335.758 218.832 335.971 219.344C336.185 219.856 336.291 220.502 336.291 221.28V226.4H334.643V221.392C334.643 220.912 334.579 220.518 334.451 220.208C334.323 219.888 334.126 219.659 333.859 219.52C333.593 219.371 333.262 219.307 332.867 219.328C332.547 219.328 332.254 219.382 331.987 219.488C331.721 219.584 331.486 219.723 331.283 219.904C331.091 220.086 330.937 220.299 330.819 220.544C330.713 220.779 330.659 221.035 330.659 221.312V226.4H329.843C329.705 226.4 329.566 226.4 329.427 226.4C329.289 226.4 329.15 226.4 329.011 226.4ZM341.647 226.56C340.783 226.56 340.015 226.379 339.343 226.016C338.682 225.643 338.159 225.136 337.775 224.496C337.402 223.856 337.215 223.12 337.215 222.288C337.215 221.627 337.322 221.024 337.535 220.48C337.748 219.936 338.042 219.467 338.415 219.072C338.799 218.667 339.252 218.358 339.775 218.144C340.308 217.92 340.884 217.808 341.503 217.808C342.047 217.808 342.554 217.915 343.023 218.128C343.492 218.331 343.898 218.614 344.239 218.976C344.591 219.339 344.858 219.771 345.039 220.272C345.231 220.763 345.322 221.302 345.311 221.888L345.295 222.592H338.431L338.063 221.28H343.871L343.631 221.552V221.168C343.599 220.816 343.482 220.502 343.279 220.224C343.076 219.947 342.82 219.728 342.511 219.568C342.202 219.408 341.866 219.328 341.503 219.328C340.927 219.328 340.442 219.44 340.047 219.664C339.652 219.878 339.354 220.198 339.151 220.624C338.948 221.04 338.847 221.558 338.847 222.176C338.847 222.763 338.97 223.275 339.215 223.712C339.46 224.139 339.807 224.47 340.255 224.704C340.703 224.939 341.22 225.056 341.807 225.056C342.223 225.056 342.607 224.987 342.959 224.848C343.322 224.71 343.711 224.459 344.127 224.096L344.959 225.264C344.703 225.52 344.388 225.744 344.015 225.936C343.652 226.128 343.263 226.283 342.847 226.4C342.442 226.507 342.042 226.56 341.647 226.56ZM350.222 226.56C349.358 226.56 348.59 226.379 347.918 226.016C347.257 225.643 346.734 225.136 346.35 224.496C345.977 223.856 345.79 223.12 345.79 222.288C345.79 221.627 345.897 221.024 346.11 220.48C346.323 219.936 346.617 219.467 346.99 219.072C347.374 218.667 347.827 218.358 348.35 218.144C348.883 217.92 349.459 217.808 350.078 217.808C350.622 217.808 351.129 217.915 351.598 218.128C352.067 218.331 352.473 218.614 352.814 218.976C353.166 219.339 353.433 219.771 353.614 220.272C353.806 220.763 353.897 221.302 353.886 221.888L353.87 222.592H347.006L346.638 221.28H352.446L352.206 221.552V221.168C352.174 220.816 352.057 220.502 351.854 220.224C351.651 219.947 351.395 219.728 351.086 219.568C350.777 219.408 350.441 219.328 350.078 219.328C349.502 219.328 349.017 219.44 348.622 219.664C348.227 219.878 347.929 220.198 347.726 220.624C347.523 221.04 347.422 221.558 347.422 222.176C347.422 222.763 347.545 223.275 347.79 223.712C348.035 224.139 348.382 224.47 348.83 224.704C349.278 224.939 349.795 225.056 350.382 225.056C350.798 225.056 351.182 224.987 351.534 224.848C351.897 224.71 352.286 224.459 352.702 224.096L353.534 225.264C353.278 225.52 352.964 225.744 352.59 225.936C352.227 226.128 351.838 226.283 351.422 226.4C351.017 226.507 350.617 226.56 350.222 226.56ZM354.877 226.4V218H356.541V220.64L356.381 220C356.498 219.595 356.696 219.227 356.973 218.896C357.261 218.566 357.587 218.304 357.949 218.112C358.323 217.92 358.707 217.824 359.101 217.824C359.283 217.824 359.453 217.84 359.613 217.872C359.784 217.904 359.917 217.942 360.013 217.984L359.581 219.776C359.453 219.723 359.309 219.68 359.149 219.648C359 219.606 358.851 219.584 358.701 219.584C358.413 219.584 358.136 219.643 357.869 219.76C357.613 219.867 357.384 220.022 357.181 220.224C356.989 220.416 356.835 220.646 356.717 220.912C356.6 221.168 356.541 221.451 356.541 221.76V226.4H354.877ZM360.802 226.4V218H362.45V226.4H360.802ZM361.602 216.144C361.25 216.144 360.978 216.054 360.786 215.872C360.594 215.691 360.498 215.435 360.498 215.104C360.498 214.795 360.594 214.544 360.786 214.352C360.989 214.16 361.261 214.064 361.602 214.064C361.954 214.064 362.226 214.155 362.418 214.336C362.61 214.518 362.706 214.774 362.706 215.104C362.706 215.414 362.605 215.664 362.402 215.856C362.21 216.048 361.944 216.144 361.602 216.144ZM364.183 226.4V218H365.831V219.728L365.543 219.92C365.65 219.547 365.858 219.206 366.167 218.896C366.477 218.576 366.845 218.32 367.271 218.128C367.698 217.926 368.135 217.824 368.583 217.824C369.223 217.824 369.757 217.952 370.183 218.208C370.61 218.454 370.93 218.832 371.143 219.344C371.357 219.856 371.463 220.502 371.463 221.28V226.4H369.815V221.392C369.815 220.912 369.751 220.518 369.623 220.208C369.495 219.888 369.298 219.659 369.031 219.52C368.765 219.371 368.434 219.307 368.039 219.328C367.719 219.328 367.426 219.382 367.159 219.488C366.893 219.584 366.658 219.723 366.455 219.904C366.263 220.086 366.109 220.299 365.991 220.544C365.885 220.779 365.831 221.035 365.831 221.312V226.4H365.015C364.877 226.4 364.738 226.4 364.599 226.4C364.461 226.4 364.322 226.4 364.183 226.4ZM376.659 230.08C376.062 230.08 375.464 229.984 374.867 229.792C374.28 229.611 373.806 229.371 373.443 229.072L374.051 227.792C374.264 227.952 374.515 228.091 374.803 228.208C375.091 228.336 375.395 228.432 375.715 228.496C376.035 228.571 376.35 228.608 376.659 228.608C377.246 228.608 377.736 228.512 378.131 228.32C378.526 228.128 378.824 227.846 379.027 227.472C379.23 227.099 379.331 226.635 379.331 226.08V224.464L379.507 224.576C379.454 224.907 379.278 225.227 378.979 225.536C378.691 225.835 378.328 226.08 377.891 226.272C377.454 226.464 377.006 226.56 376.547 226.56C375.747 226.56 375.032 226.374 374.403 226C373.784 225.616 373.294 225.099 372.931 224.448C372.568 223.787 372.387 223.035 372.387 222.192C372.387 221.35 372.563 220.603 372.915 219.952C373.278 219.291 373.768 218.774 374.387 218.4C375.016 218.016 375.72 217.824 376.499 217.824C376.819 217.824 377.128 217.867 377.427 217.952C377.726 218.027 378.003 218.139 378.259 218.288C378.515 218.427 378.744 218.582 378.947 218.752C379.15 218.923 379.315 219.104 379.443 219.296C379.571 219.488 379.651 219.67 379.683 219.84L379.331 219.968V218H380.979V225.888C380.979 226.56 380.878 227.152 380.675 227.664C380.483 228.187 380.2 228.624 379.827 228.976C379.454 229.339 379 229.611 378.467 229.792C377.934 229.984 377.331 230.08 376.659 230.08ZM376.723 225.04C377.246 225.04 377.71 224.918 378.115 224.672C378.52 224.427 378.835 224.091 379.059 223.664C379.283 223.238 379.395 222.747 379.395 222.192C379.395 221.638 379.278 221.147 379.043 220.72C378.819 220.283 378.504 219.942 378.099 219.696C377.704 219.451 377.246 219.328 376.723 219.328C376.211 219.328 375.752 219.456 375.347 219.712C374.952 219.958 374.638 220.299 374.403 220.736C374.179 221.163 374.067 221.648 374.067 222.192C374.067 222.736 374.179 223.227 374.403 223.664C374.638 224.091 374.952 224.427 375.347 224.672C375.752 224.918 376.211 225.04 376.723 225.04ZM389.406 226.56C388.713 226.56 388.078 226.368 387.502 225.984C386.937 225.6 386.483 225.078 386.142 224.416C385.801 223.755 385.63 223.008 385.63 222.176C385.63 221.334 385.801 220.587 386.142 219.936C386.494 219.275 386.963 218.758 387.55 218.384C388.147 218.011 388.814 217.824 389.55 217.824C389.987 217.824 390.387 217.888 390.75 218.016C391.113 218.144 391.427 218.326 391.694 218.56C391.971 218.784 392.195 219.046 392.366 219.344C392.547 219.643 392.659 219.963 392.702 220.304L392.334 220.176V218H393.998V226.4H392.334V224.4L392.718 224.288C392.654 224.576 392.521 224.859 392.318 225.136C392.126 225.403 391.875 225.643 391.566 225.856C391.267 226.07 390.931 226.24 390.558 226.368C390.195 226.496 389.811 226.56 389.406 226.56ZM389.838 225.04C390.339 225.04 390.782 224.918 391.166 224.672C391.55 224.427 391.849 224.091 392.062 223.664C392.286 223.227 392.398 222.731 392.398 222.176C392.398 221.632 392.286 221.147 392.062 220.72C391.849 220.294 391.55 219.958 391.166 219.712C390.782 219.467 390.339 219.344 389.838 219.344C389.347 219.344 388.91 219.467 388.526 219.712C388.153 219.958 387.854 220.294 387.63 220.72C387.417 221.147 387.31 221.632 387.31 222.176C387.31 222.731 387.417 223.227 387.63 223.664C387.854 224.091 388.153 224.427 388.526 224.672C388.91 224.918 389.347 225.04 389.838 225.04ZM395.499 226.4V218H397.147V219.728L396.859 219.92C396.966 219.547 397.174 219.206 397.483 218.896C397.793 218.576 398.161 218.32 398.587 218.128C399.014 217.926 399.451 217.824 399.899 217.824C400.539 217.824 401.073 217.952 401.499 218.208C401.926 218.454 402.246 218.832 402.459 219.344C402.673 219.856 402.779 220.502 402.779 221.28V226.4H401.131V221.392C401.131 220.912 401.067 220.518 400.939 220.208C400.811 219.888 400.614 219.659 400.347 219.52C400.081 219.371 399.75 219.307 399.355 219.328C399.035 219.328 398.742 219.382 398.475 219.488C398.209 219.584 397.974 219.723 397.771 219.904C397.579 220.086 397.425 220.299 397.307 220.544C397.201 220.779 397.147 221.035 397.147 221.312V226.4H396.331C396.193 226.4 396.054 226.4 395.915 226.4C395.777 226.4 395.638 226.4 395.499 226.4ZM407.719 226.56C406.951 226.56 406.263 226.374 405.655 226C405.057 225.616 404.583 225.099 404.231 224.448C403.879 223.787 403.703 223.035 403.703 222.192C403.703 221.35 403.873 220.603 404.215 219.952C404.567 219.291 405.041 218.774 405.639 218.4C406.236 218.016 406.913 217.824 407.671 217.824C408.087 217.824 408.487 217.894 408.871 218.032C409.265 218.16 409.617 218.342 409.927 218.576C410.236 218.8 410.476 219.051 410.647 219.328C410.828 219.595 410.919 219.867 410.919 220.144L410.439 220.176V214.56H412.087V226.4H410.439V224.4H410.759C410.759 224.656 410.673 224.912 410.503 225.168C410.332 225.414 410.103 225.643 409.815 225.856C409.537 226.07 409.212 226.24 408.839 226.368C408.476 226.496 408.103 226.56 407.719 226.56ZM407.943 225.136C408.444 225.136 408.887 225.008 409.271 224.752C409.655 224.496 409.953 224.15 410.167 223.712C410.391 223.264 410.503 222.758 410.503 222.192C410.503 221.627 410.391 221.126 410.167 220.688C409.953 220.24 409.655 219.888 409.271 219.632C408.887 219.376 408.444 219.248 407.943 219.248C407.441 219.248 406.999 219.376 406.615 219.632C406.231 219.888 405.927 220.24 405.703 220.688C405.489 221.126 405.383 221.627 405.383 222.192C405.383 222.758 405.489 223.264 405.703 223.712C405.927 224.15 406.231 224.496 406.615 224.752C406.999 225.008 407.441 225.136 407.943 225.136ZM417.656 226.4V215.2H419.352L423.432 221.84L422.616 221.824L426.744 215.2H428.344V226.4H426.616V221.808C426.616 220.848 426.637 219.984 426.68 219.216C426.733 218.448 426.819 217.686 426.936 216.928L427.16 217.52L423.496 223.184H422.44L418.888 217.584L419.064 216.928C419.181 217.643 419.261 218.379 419.304 219.136C419.357 219.883 419.384 220.774 419.384 221.808V226.4H417.656ZM433.5 226.56C432.807 226.56 432.172 226.368 431.596 225.984C431.031 225.6 430.577 225.078 430.236 224.416C429.895 223.755 429.724 223.008 429.724 222.176C429.724 221.334 429.895 220.587 430.236 219.936C430.588 219.275 431.057 218.758 431.644 218.384C432.241 218.011 432.908 217.824 433.644 217.824C434.081 217.824 434.481 217.888 434.844 218.016C435.207 218.144 435.521 218.326 435.788 218.56C436.065 218.784 436.289 219.046 436.46 219.344C436.641 219.643 436.753 219.963 436.796 220.304L436.428 220.176V218H438.092V226.4H436.428V224.4L436.812 224.288C436.748 224.576 436.615 224.859 436.412 225.136C436.22 225.403 435.969 225.643 435.66 225.856C435.361 226.07 435.025 226.24 434.652 226.368C434.289 226.496 433.905 226.56 433.5 226.56ZM433.932 225.04C434.433 225.04 434.876 224.918 435.26 224.672C435.644 224.427 435.943 224.091 436.156 223.664C436.38 223.227 436.492 222.731 436.492 222.176C436.492 221.632 436.38 221.147 436.156 220.72C435.943 220.294 435.644 219.958 435.26 219.712C434.876 219.467 434.433 219.344 433.932 219.344C433.441 219.344 433.004 219.467 432.62 219.712C432.247 219.958 431.948 220.294 431.724 220.72C431.511 221.147 431.404 221.632 431.404 222.176C431.404 222.731 431.511 223.227 431.724 223.664C431.948 224.091 432.247 224.427 432.62 224.672C433.004 224.918 433.441 225.04 433.932 225.04ZM439.593 226.4V218H441.241V219.728L440.953 219.92C441.06 219.547 441.268 219.206 441.577 218.896C441.886 218.576 442.254 218.32 442.681 218.128C443.108 217.926 443.545 217.824 443.993 217.824C444.633 217.824 445.166 217.952 445.593 218.208C446.02 218.454 446.34 218.832 446.553 219.344C446.766 219.856 446.873 220.502 446.873 221.28V226.4H445.225V221.392C445.225 220.912 445.161 220.518 445.033 220.208C444.905 219.888 444.708 219.659 444.441 219.52C444.174 219.371 443.844 219.307 443.449 219.328C443.129 219.328 442.836 219.382 442.569 219.488C442.302 219.584 442.068 219.723 441.865 219.904C441.673 220.086 441.518 220.299 441.401 220.544C441.294 220.779 441.241 221.035 441.241 221.312V226.4H440.425C440.286 226.4 440.148 226.4 440.009 226.4C439.87 226.4 439.732 226.4 439.593 226.4ZM451.541 226.56C450.847 226.56 450.213 226.368 449.637 225.984C449.071 225.6 448.618 225.078 448.277 224.416C447.935 223.755 447.765 223.008 447.765 222.176C447.765 221.334 447.935 220.587 448.277 219.936C448.629 219.275 449.098 218.758 449.685 218.384C450.282 218.011 450.949 217.824 451.685 217.824C452.122 217.824 452.522 217.888 452.885 218.016C453.247 218.144 453.562 218.326 453.829 218.56C454.106 218.784 454.33 219.046 454.501 219.344C454.682 219.643 454.794 219.963 454.837 220.304L454.469 220.176V218H456.133V226.4H454.469V224.4L454.853 224.288C454.789 224.576 454.655 224.859 454.453 225.136C454.261 225.403 454.01 225.643 453.701 225.856C453.402 226.07 453.066 226.24 452.693 226.368C452.33 226.496 451.946 226.56 451.541 226.56ZM451.973 225.04C452.474 225.04 452.917 224.918 453.301 224.672C453.685 224.427 453.983 224.091 454.197 223.664C454.421 223.227 454.533 222.731 454.533 222.176C454.533 221.632 454.421 221.147 454.197 220.72C453.983 220.294 453.685 219.958 453.301 219.712C452.917 219.467 452.474 219.344 451.973 219.344C451.482 219.344 451.045 219.467 450.661 219.712C450.287 219.958 449.989 220.294 449.765 220.72C449.551 221.147 449.445 221.632 449.445 222.176C449.445 222.731 449.551 223.227 449.765 223.664C449.989 224.091 450.287 224.427 450.661 224.672C451.045 224.918 451.482 225.04 451.973 225.04ZM461.394 230.08C460.796 230.08 460.199 229.984 459.602 229.792C459.015 229.611 458.54 229.371 458.178 229.072L458.786 227.792C458.999 227.952 459.25 228.091 459.538 228.208C459.826 228.336 460.13 228.432 460.45 228.496C460.77 228.571 461.084 228.608 461.394 228.608C461.98 228.608 462.471 228.512 462.866 228.32C463.26 228.128 463.559 227.846 463.762 227.472C463.964 227.099 464.066 226.635 464.066 226.08V224.464L464.242 224.576C464.188 224.907 464.012 225.227 463.714 225.536C463.426 225.835 463.063 226.08 462.626 226.272C462.188 226.464 461.74 226.56 461.282 226.56C460.482 226.56 459.767 226.374 459.138 226C458.519 225.616 458.028 225.099 457.666 224.448C457.303 223.787 457.122 223.035 457.122 222.192C457.122 221.35 457.298 220.603 457.65 219.952C458.012 219.291 458.503 218.774 459.122 218.4C459.751 218.016 460.455 217.824 461.234 217.824C461.554 217.824 461.863 217.867 462.162 217.952C462.46 218.027 462.738 218.139 462.994 218.288C463.25 218.427 463.479 218.582 463.682 218.752C463.884 218.923 464.05 219.104 464.178 219.296C464.306 219.488 464.386 219.67 464.418 219.84L464.066 219.968V218H465.714V225.888C465.714 226.56 465.612 227.152 465.41 227.664C465.218 228.187 464.935 228.624 464.562 228.976C464.188 229.339 463.735 229.611 463.202 229.792C462.668 229.984 462.066 230.08 461.394 230.08ZM461.458 225.04C461.98 225.04 462.444 224.918 462.85 224.672C463.255 224.427 463.57 224.091 463.794 223.664C464.018 223.238 464.13 222.747 464.13 222.192C464.13 221.638 464.012 221.147 463.778 220.72C463.554 220.283 463.239 219.942 462.834 219.696C462.439 219.451 461.98 219.328 461.458 219.328C460.946 219.328 460.487 219.456 460.082 219.712C459.687 219.958 459.372 220.299 459.138 220.736C458.914 221.163 458.802 221.648 458.802 222.192C458.802 222.736 458.914 223.227 459.138 223.664C459.372 224.091 459.687 224.427 460.082 224.672C460.487 224.918 460.946 225.04 461.458 225.04ZM471.144 226.56C470.28 226.56 469.512 226.379 468.84 226.016C468.179 225.643 467.656 225.136 467.272 224.496C466.899 223.856 466.712 223.12 466.712 222.288C466.712 221.627 466.819 221.024 467.032 220.48C467.246 219.936 467.539 219.467 467.912 219.072C468.296 218.667 468.75 218.358 469.272 218.144C469.806 217.92 470.382 217.808 471 217.808C471.544 217.808 472.051 217.915 472.52 218.128C472.99 218.331 473.395 218.614 473.736 218.976C474.088 219.339 474.355 219.771 474.536 220.272C474.728 220.763 474.819 221.302 474.808 221.888L474.792 222.592H467.928L467.56 221.28H473.368L473.128 221.552V221.168C473.096 220.816 472.979 220.502 472.776 220.224C472.574 219.947 472.318 219.728 472.008 219.568C471.699 219.408 471.363 219.328 471 219.328C470.424 219.328 469.939 219.44 469.544 219.664C469.15 219.878 468.851 220.198 468.648 220.624C468.446 221.04 468.344 221.558 468.344 222.176C468.344 222.763 468.467 223.275 468.712 223.712C468.958 224.139 469.304 224.47 469.752 224.704C470.2 224.939 470.718 225.056 471.304 225.056C471.72 225.056 472.104 224.987 472.456 224.848C472.819 224.71 473.208 224.459 473.624 224.096L474.456 225.264C474.2 225.52 473.886 225.744 473.512 225.936C473.15 226.128 472.76 226.283 472.344 226.4C471.939 226.507 471.539 226.56 471.144 226.56ZM475.767 226.4V218H477.431V219.792L477.127 219.984C477.213 219.707 477.346 219.44 477.527 219.184C477.719 218.928 477.949 218.704 478.215 218.512C478.493 218.31 478.786 218.15 479.095 218.032C479.415 217.915 479.741 217.856 480.071 217.856C480.551 217.856 480.973 217.936 481.335 218.096C481.698 218.256 481.997 218.496 482.231 218.816C482.466 219.136 482.637 219.536 482.743 220.016L482.487 219.952L482.599 219.68C482.717 219.435 482.877 219.206 483.079 218.992C483.293 218.768 483.533 218.571 483.799 218.4C484.066 218.23 484.349 218.096 484.647 218C484.946 217.904 485.239 217.856 485.527 217.856C486.157 217.856 486.674 217.984 487.079 218.24C487.495 218.496 487.805 218.886 488.007 219.408C488.221 219.931 488.327 220.582 488.327 221.36V226.4H486.663V221.456C486.663 220.976 486.599 220.587 486.471 220.288C486.354 219.979 486.173 219.75 485.927 219.6C485.682 219.451 485.367 219.376 484.983 219.376C484.685 219.376 484.402 219.43 484.135 219.536C483.879 219.632 483.655 219.771 483.463 219.952C483.271 220.134 483.122 220.347 483.015 220.592C482.909 220.827 482.855 221.088 482.855 221.376V226.4H481.191V221.424C481.191 220.987 481.127 220.619 480.999 220.32C480.871 220.011 480.685 219.776 480.439 219.616C480.194 219.456 479.895 219.376 479.543 219.376C479.245 219.376 478.967 219.43 478.711 219.536C478.455 219.632 478.231 219.771 478.039 219.952C477.847 220.123 477.698 220.331 477.591 220.576C477.485 220.811 477.431 221.067 477.431 221.344V226.4H475.767ZM493.654 226.56C492.79 226.56 492.022 226.379 491.35 226.016C490.688 225.643 490.166 225.136 489.782 224.496C489.408 223.856 489.222 223.12 489.222 222.288C489.222 221.627 489.328 221.024 489.542 220.48C489.755 219.936 490.048 219.467 490.422 219.072C490.806 218.667 491.259 218.358 491.782 218.144C492.315 217.92 492.891 217.808 493.51 217.808C494.054 217.808 494.56 217.915 495.03 218.128C495.499 218.331 495.904 218.614 496.246 218.976C496.598 219.339 496.864 219.771 497.046 220.272C497.238 220.763 497.328 221.302 497.318 221.888L497.302 222.592H490.438L490.07 221.28H495.878L495.638 221.552V221.168C495.606 220.816 495.488 220.502 495.286 220.224C495.083 219.947 494.827 219.728 494.518 219.568C494.208 219.408 493.872 219.328 493.51 219.328C492.934 219.328 492.448 219.44 492.054 219.664C491.659 219.878 491.36 220.198 491.158 220.624C490.955 221.04 490.854 221.558 490.854 222.176C490.854 222.763 490.976 223.275 491.222 223.712C491.467 224.139 491.814 224.47 492.262 224.704C492.71 224.939 493.227 225.056 493.814 225.056C494.23 225.056 494.614 224.987 494.966 224.848C495.328 224.71 495.718 224.459 496.134 224.096L496.966 225.264C496.71 225.52 496.395 225.744 496.022 225.936C495.659 226.128 495.27 226.283 494.854 226.4C494.448 226.507 494.048 226.56 493.654 226.56ZM498.309 226.4V218H499.957V219.728L499.669 219.92C499.775 219.547 499.983 219.206 500.293 218.896C500.602 218.576 500.97 218.32 501.397 218.128C501.823 217.926 502.261 217.824 502.709 217.824C503.349 217.824 503.882 217.952 504.309 218.208C504.735 218.454 505.055 218.832 505.269 219.344C505.482 219.856 505.589 220.502 505.589 221.28V226.4H503.941V221.392C503.941 220.912 503.877 220.518 503.749 220.208C503.621 219.888 503.423 219.659 503.157 219.52C502.89 219.371 502.559 219.307 502.165 219.328C501.845 219.328 501.551 219.382 501.285 219.488C501.018 219.584 500.783 219.723 500.581 219.904C500.389 220.086 500.234 220.299 500.117 220.544C500.01 220.779 499.957 221.035 499.957 221.312V226.4H499.141C499.002 226.4 498.863 226.4 498.725 226.4C498.586 226.4 498.447 226.4 498.309 226.4ZM508.064 226.4V215.856H509.712V226.4H508.064ZM506.32 219.6V218H511.664V219.6H506.32Z" fill="#666666"/>
</svg>
