<svg width="584" height="311" viewBox="0 0 584 311" fill="none" xmlns="http://www.w3.org/2000/svg">
<rect x="-0.448398" y="1.63675" width="60.5213" height="19.1176" rx="9.5588" transform="matrix(-0.868809 0.495148 0.495144 0.868811 277.517 81.4367)" fill="#EF5350" stroke="#EF5350" stroke-width="2.40001"/>
<rect x="-0.448398" y="1.63675" width="60.5213" height="19.1176" rx="9.5588" transform="matrix(-0.868809 0.495148 0.495144 0.868811 347.862 101.987)" fill="#FBBC04" stroke="#FBBC04" stroke-width="2.40001"/>
<rect x="0.448398" y="1.63675" width="60.5213" height="19.1176" rx="9.5588" transform="matrix(0.868809 0.495148 -0.495144 0.868811 236.022 101.543)" fill="#4285F4" stroke="#4285F4" stroke-width="2.40001"/>
<path d="M353.795 120.909C351.181 125.495 345.344 127.094 340.757 124.48L304.785 103.979C300.199 101.365 298.6 95.5282 301.213 90.9416C303.827 86.355 309.665 84.7558 314.251 87.3698L350.223 107.871C354.81 110.485 356.409 116.322 353.795 120.909Z" fill="#4CAF50" stroke="#4CAF50" stroke-width="2.40001"/>
<path d="M110.638 201.744C108.895 201.744 107.267 201.435 105.754 200.816C104.24 200.174 102.91 199.291 101.763 198.167C100.617 197.043 99.7221 195.736 99.08 194.245C98.4608 192.732 98.1512 191.103 98.1512 189.36C98.1512 187.64 98.4608 186.035 99.08 184.544C99.7221 183.054 100.605 181.758 101.729 180.657C102.875 179.533 104.206 178.662 105.719 178.043C107.233 177.424 108.861 177.114 110.604 177.114C111.82 177.114 113.001 177.286 114.147 177.63C115.317 177.974 116.372 178.456 117.312 179.075C118.252 179.694 119.021 180.405 119.617 181.208L117.209 183.719C116.521 183.054 115.81 182.503 115.076 182.068C114.365 181.632 113.631 181.299 112.874 181.07C112.118 180.841 111.361 180.726 110.604 180.726C109.366 180.726 108.219 180.944 107.164 181.38C106.132 181.815 105.215 182.423 104.412 183.203C103.632 183.983 103.025 184.9 102.589 185.955C102.153 186.987 101.935 188.122 101.935 189.36C101.935 190.553 102.165 191.688 102.623 192.766C103.082 193.821 103.713 194.75 104.515 195.552C105.341 196.355 106.281 196.986 107.336 197.444C108.414 197.903 109.549 198.132 110.742 198.132C111.636 198.132 112.485 198.006 113.287 197.754C114.09 197.479 114.801 197.1 115.42 196.619C116.039 196.137 116.521 195.587 116.865 194.968C117.209 194.325 117.381 193.649 117.381 192.938V192.25L117.897 192.732H110.535V189.051H121.199C121.245 189.303 121.28 189.555 121.302 189.808C121.325 190.037 121.337 190.266 121.337 190.496C121.36 190.702 121.371 190.908 121.371 191.115C121.371 192.697 121.096 194.142 120.546 195.449C119.995 196.734 119.227 197.846 118.241 198.786C117.278 199.726 116.142 200.46 114.835 200.988C113.551 201.492 112.152 201.744 110.638 201.744ZM131.713 201.744C129.947 201.744 128.365 201.343 126.966 200.54C125.59 199.715 124.5 198.603 123.698 197.204C122.895 195.782 122.494 194.165 122.494 192.353C122.494 190.541 122.895 188.936 123.698 187.537C124.5 186.115 125.59 185.003 126.966 184.2C128.365 183.375 129.947 182.962 131.713 182.962C133.456 182.962 135.015 183.375 136.391 184.2C137.79 185.003 138.891 186.115 139.694 187.537C140.496 188.936 140.898 190.541 140.898 192.353C140.898 194.165 140.496 195.782 139.694 197.204C138.891 198.603 137.79 199.715 136.391 200.54C135.015 201.343 133.456 201.744 131.713 201.744ZM131.713 198.511C132.791 198.511 133.754 198.247 134.602 197.72C135.451 197.169 136.116 196.435 136.598 195.518C137.079 194.578 137.309 193.523 137.286 192.353C137.309 191.161 137.079 190.106 136.598 189.188C136.116 188.248 135.451 187.514 134.602 186.987C133.754 186.459 132.791 186.196 131.713 186.196C130.635 186.196 129.66 186.471 128.789 187.021C127.94 187.549 127.275 188.283 126.794 189.223C126.312 190.14 126.083 191.184 126.106 192.353C126.083 193.523 126.312 194.578 126.794 195.518C127.275 196.435 127.94 197.169 128.789 197.72C129.66 198.247 130.635 198.511 131.713 198.511ZM151.157 201.744C149.391 201.744 147.809 201.343 146.41 200.54C145.034 199.715 143.944 198.603 143.142 197.204C142.339 195.782 141.938 194.165 141.938 192.353C141.938 190.541 142.339 188.936 143.142 187.537C143.944 186.115 145.034 185.003 146.41 184.2C147.809 183.375 149.391 182.962 151.157 182.962C152.9 182.962 154.459 183.375 155.835 184.2C157.234 185.003 158.335 186.115 159.138 187.537C159.94 188.936 160.342 190.541 160.342 192.353C160.342 194.165 159.94 195.782 159.138 197.204C158.335 198.603 157.234 199.715 155.835 200.54C154.459 201.343 152.9 201.744 151.157 201.744ZM151.157 198.511C152.235 198.511 153.198 198.247 154.047 197.72C154.895 197.169 155.56 196.435 156.042 195.518C156.523 194.578 156.753 193.523 156.73 192.353C156.753 191.161 156.523 190.106 156.042 189.188C155.56 188.248 154.895 187.514 154.047 186.987C153.198 186.459 152.235 186.196 151.157 186.196C150.079 186.196 149.104 186.471 148.233 187.021C147.384 187.549 146.719 188.283 146.238 189.223C145.756 190.14 145.527 191.184 145.55 192.353C145.527 193.523 145.756 194.578 146.238 195.518C146.719 196.435 147.384 197.169 148.233 197.72C149.104 198.247 150.079 198.511 151.157 198.511ZM170.567 209.312C169.282 209.312 167.998 209.106 166.714 208.693C165.452 208.303 164.432 207.787 163.652 207.145L164.959 204.393C165.418 204.737 165.957 205.035 166.576 205.288C167.195 205.563 167.849 205.769 168.537 205.907C169.225 206.067 169.902 206.148 170.567 206.148C171.828 206.148 172.883 205.941 173.731 205.528C174.58 205.116 175.222 204.508 175.658 203.705C176.094 202.903 176.311 201.905 176.311 200.712V197.238L176.69 197.479C176.575 198.19 176.197 198.878 175.555 199.543C174.935 200.185 174.156 200.712 173.215 201.125C172.275 201.538 171.312 201.744 170.326 201.744C168.606 201.744 167.069 201.343 165.716 200.54C164.386 199.715 163.331 198.603 162.551 197.204C161.772 195.782 161.382 194.165 161.382 192.353C161.382 190.541 161.76 188.936 162.517 187.537C163.297 186.115 164.352 185.003 165.682 184.2C167.035 183.375 168.548 182.962 170.223 182.962C170.911 182.962 171.576 183.054 172.218 183.237C172.86 183.398 173.456 183.639 174.007 183.96C174.557 184.258 175.05 184.59 175.486 184.957C175.922 185.324 176.277 185.714 176.552 186.127C176.827 186.54 176.999 186.929 177.068 187.296L176.311 187.572V183.34H179.855V200.3C179.855 201.744 179.637 203.017 179.201 204.118C178.788 205.242 178.181 206.182 177.378 206.939C176.575 207.719 175.6 208.303 174.454 208.693C173.307 209.106 172.011 209.312 170.567 209.312ZM170.704 198.476C171.828 198.476 172.826 198.213 173.697 197.685C174.568 197.158 175.245 196.435 175.727 195.518C176.208 194.601 176.449 193.546 176.449 192.353C176.449 191.161 176.197 190.106 175.692 189.188C175.211 188.248 174.534 187.514 173.663 186.987C172.814 186.459 171.828 186.196 170.704 186.196C169.603 186.196 168.617 186.471 167.746 187.021C166.897 187.549 166.221 188.283 165.716 189.223C165.235 190.14 164.994 191.184 164.994 192.353C164.994 193.523 165.235 194.578 165.716 195.518C166.221 196.435 166.897 197.158 167.746 197.685C168.617 198.213 169.603 198.476 170.704 198.476ZM183.171 201.4V175.944H186.715V201.4H183.171ZM198.108 201.744C196.251 201.744 194.599 201.355 193.155 200.575C191.733 199.772 190.609 198.683 189.783 197.307C188.981 195.931 188.579 194.348 188.579 192.56C188.579 191.138 188.809 189.842 189.267 188.672C189.726 187.503 190.357 186.494 191.159 185.645C191.985 184.774 192.96 184.109 194.083 183.65C195.23 183.168 196.468 182.928 197.799 182.928C198.968 182.928 200.058 183.157 201.067 183.616C202.076 184.051 202.947 184.659 203.681 185.439C204.438 186.219 205.011 187.147 205.401 188.225C205.814 189.28 206.009 190.438 205.986 191.7L205.951 193.213H191.194L190.403 190.392H202.89L202.374 190.977V190.152C202.305 189.395 202.053 188.718 201.617 188.122C201.181 187.526 200.631 187.056 199.966 186.712C199.301 186.368 198.578 186.196 197.799 186.196C196.56 186.196 195.517 186.436 194.668 186.918C193.82 187.377 193.178 188.065 192.742 188.982C192.306 189.876 192.088 190.989 192.088 192.319C192.088 193.58 192.352 194.681 192.879 195.621C193.407 196.539 194.152 197.25 195.115 197.754C196.079 198.259 197.191 198.511 198.452 198.511C199.347 198.511 200.172 198.362 200.929 198.064C201.709 197.766 202.546 197.227 203.44 196.447L205.229 198.958C204.679 199.508 204.002 199.99 203.199 200.403C202.42 200.816 201.583 201.148 200.688 201.4C199.817 201.63 198.957 201.744 198.108 201.744ZM216.932 201.4V177.32H226.358C228.078 177.32 229.626 177.607 231.002 178.18C232.401 178.754 233.593 179.579 234.58 180.657C235.566 181.735 236.322 183.008 236.85 184.476C237.377 185.943 237.641 187.572 237.641 189.36C237.641 191.149 237.377 192.789 236.85 194.28C236.322 195.747 235.566 197.02 234.58 198.098C233.616 199.153 232.435 199.967 231.036 200.54C229.637 201.114 228.078 201.4 226.358 201.4H216.932ZM220.647 198.201L220.544 197.823H226.186C227.401 197.823 228.479 197.628 229.42 197.238C230.383 196.848 231.185 196.298 231.828 195.587C232.493 194.853 232.997 193.959 233.341 192.904C233.685 191.849 233.857 190.668 233.857 189.36C233.857 188.053 233.685 186.884 233.341 185.852C232.997 184.797 232.493 183.902 231.828 183.168C231.162 182.435 230.36 181.873 229.42 181.483C228.479 181.093 227.401 180.898 226.186 180.898H220.441L220.647 180.588V198.201ZM248.479 201.744C246.621 201.744 244.97 201.355 243.525 200.575C242.103 199.772 240.98 198.683 240.154 197.307C239.351 195.931 238.95 194.348 238.95 192.56C238.95 191.138 239.179 189.842 239.638 188.672C240.097 187.503 240.727 186.494 241.53 185.645C242.356 184.774 243.33 184.109 244.454 183.65C245.601 183.168 246.839 182.928 248.169 182.928C249.339 182.928 250.428 183.157 251.437 183.616C252.446 184.051 253.318 184.659 254.052 185.439C254.808 186.219 255.382 187.147 255.772 188.225C256.184 189.28 256.379 190.438 256.356 191.7L256.322 193.213H241.564L240.773 190.392H253.26L252.744 190.977V190.152C252.676 189.395 252.423 188.718 251.988 188.122C251.552 187.526 251.001 187.056 250.336 186.712C249.671 186.368 248.949 186.196 248.169 186.196C246.931 186.196 245.887 186.436 245.039 186.918C244.19 187.377 243.548 188.065 243.112 188.982C242.677 189.876 242.459 190.989 242.459 192.319C242.459 193.58 242.723 194.681 243.25 195.621C243.777 196.539 244.523 197.25 245.486 197.754C246.449 198.259 247.561 198.511 248.823 198.511C249.717 198.511 250.543 198.362 251.3 198.064C252.079 197.766 252.916 197.227 253.811 196.447L255.6 198.958C255.049 199.508 254.373 199.99 253.57 200.403C252.79 200.816 251.953 201.148 251.059 201.4C250.187 201.63 249.327 201.744 248.479 201.744ZM264.068 201.4L256.431 183.34H260.25L265.754 196.86L265.1 197.169L270.982 183.34H274.629L266.614 201.4H264.068ZM284.075 201.744C282.217 201.744 280.566 201.355 279.121 200.575C277.699 199.772 276.576 198.683 275.75 197.307C274.947 195.931 274.546 194.348 274.546 192.56C274.546 191.138 274.775 189.842 275.234 188.672C275.693 187.503 276.323 186.494 277.126 185.645C277.952 184.774 278.926 184.109 280.05 183.65C281.197 183.168 282.435 182.928 283.765 182.928C284.935 182.928 286.024 183.157 287.033 183.616C288.042 184.051 288.914 184.659 289.648 185.439C290.404 186.219 290.978 187.147 291.368 188.225C291.78 189.28 291.975 190.438 291.952 191.7L291.918 193.213H277.16L276.369 190.392H288.856L288.34 190.977V190.152C288.272 189.395 288.019 188.718 287.584 188.122C287.148 187.526 286.597 187.056 285.932 186.712C285.267 186.368 284.545 186.196 283.765 186.196C282.527 186.196 281.483 186.436 280.635 186.918C279.786 187.377 279.144 188.065 278.708 188.982C278.273 189.876 278.055 190.989 278.055 192.319C278.055 193.58 278.319 194.681 278.846 195.621C279.373 196.539 280.119 197.25 281.082 197.754C282.045 198.259 283.157 198.511 284.419 198.511C285.313 198.511 286.139 198.362 286.896 198.064C287.675 197.766 288.512 197.227 289.407 196.447L291.196 198.958C290.645 199.508 289.969 199.99 289.166 200.403C288.386 200.816 287.549 201.148 286.655 201.4C285.783 201.63 284.923 201.744 284.075 201.744ZM294.152 201.4V175.944H297.695V201.4H294.152ZM308.779 201.744C307.013 201.744 305.431 201.343 304.032 200.54C302.656 199.715 301.567 198.603 300.764 197.204C299.961 195.782 299.56 194.165 299.56 192.353C299.56 190.541 299.961 188.936 300.764 187.537C301.567 186.115 302.656 185.003 304.032 184.2C305.431 183.375 307.013 182.962 308.779 182.962C310.522 182.962 312.082 183.375 313.458 184.2C314.857 185.003 315.957 186.115 316.76 187.537C317.563 188.936 317.964 190.541 317.964 192.353C317.964 194.165 317.563 195.782 316.76 197.204C315.957 198.603 314.857 199.715 313.458 200.54C312.082 201.343 310.522 201.744 308.779 201.744ZM308.779 198.511C309.857 198.511 310.82 198.247 311.669 197.72C312.517 197.169 313.182 196.435 313.664 195.518C314.146 194.578 314.375 193.523 314.352 192.353C314.375 191.161 314.146 190.106 313.664 189.188C313.182 188.248 312.517 187.514 311.669 186.987C310.82 186.459 309.857 186.196 308.779 186.196C307.701 186.196 306.727 186.471 305.855 187.021C305.007 187.549 304.342 188.283 303.86 189.223C303.378 190.14 303.149 191.184 303.172 192.353C303.149 193.523 303.378 194.578 303.86 195.518C304.342 196.435 305.007 197.169 305.855 197.72C306.727 198.247 307.701 198.511 308.779 198.511ZM320.105 208.968V183.34H323.682V187.468L323.132 187.159C323.27 186.471 323.66 185.817 324.302 185.198C324.944 184.556 325.724 184.04 326.641 183.65C327.581 183.237 328.544 183.031 329.53 183.031C331.159 183.031 332.604 183.432 333.865 184.235C335.126 185.037 336.124 186.138 336.858 187.537C337.592 188.936 337.959 190.541 337.959 192.353C337.959 194.142 337.592 195.747 336.858 197.169C336.147 198.568 335.161 199.68 333.899 200.506C332.638 201.309 331.216 201.71 329.634 201.71C328.579 201.71 327.558 201.504 326.572 201.091C325.586 200.655 324.749 200.105 324.061 199.44C323.373 198.775 322.949 198.087 322.788 197.376L323.682 196.894V208.968H320.105ZM329.049 198.442C330.104 198.442 331.044 198.178 331.87 197.651C332.695 197.123 333.349 196.401 333.831 195.484C334.312 194.566 334.553 193.523 334.553 192.353C334.553 191.184 334.312 190.152 333.831 189.257C333.372 188.34 332.73 187.617 331.904 187.09C331.079 186.563 330.127 186.299 329.049 186.299C327.971 186.299 327.019 186.563 326.194 187.09C325.368 187.595 324.714 188.305 324.233 189.223C323.751 190.14 323.51 191.184 323.51 192.353C323.51 193.523 323.751 194.566 324.233 195.484C324.714 196.401 325.368 197.123 326.194 197.651C327.019 198.178 327.971 198.442 329.049 198.442ZM348.515 201.744C346.657 201.744 345.006 201.355 343.561 200.575C342.139 199.772 341.015 198.683 340.19 197.307C339.387 195.931 338.986 194.348 338.986 192.56C338.986 191.138 339.215 189.842 339.674 188.672C340.132 187.503 340.763 186.494 341.566 185.645C342.391 184.774 343.366 184.109 344.49 183.65C345.636 183.168 346.875 182.928 348.205 182.928C349.375 182.928 350.464 183.157 351.473 183.616C352.482 184.051 353.353 184.659 354.087 185.439C354.844 186.219 355.417 187.147 355.807 188.225C356.22 189.28 356.415 190.438 356.392 191.7L356.358 193.213H341.6L340.809 190.392H353.296L352.78 190.977V190.152C352.711 189.395 352.459 188.718 352.023 188.122C351.588 187.526 351.037 187.056 350.372 186.712C349.707 186.368 348.985 186.196 348.205 186.196C346.967 186.196 345.923 186.436 345.074 186.918C344.226 187.377 343.584 188.065 343.148 188.982C342.712 189.876 342.494 190.989 342.494 192.319C342.494 193.58 342.758 194.681 343.286 195.621C343.813 196.539 344.558 197.25 345.522 197.754C346.485 198.259 347.597 198.511 348.859 198.511C349.753 198.511 350.579 198.362 351.335 198.064C352.115 197.766 352.952 197.227 353.847 196.447L355.635 198.958C355.085 199.508 354.408 199.99 353.606 200.403C352.826 200.816 351.989 201.148 351.095 201.4C350.223 201.63 349.363 201.744 348.515 201.744ZM358.523 201.4V183.34H362.1V189.016L361.756 187.64C362.009 186.769 362.433 185.978 363.029 185.267C363.648 184.556 364.348 183.994 365.128 183.581C365.93 183.168 366.756 182.962 367.604 182.962C367.994 182.962 368.361 182.996 368.705 183.065C369.072 183.134 369.359 183.214 369.565 183.306L368.636 187.159C368.361 187.044 368.052 186.952 367.708 186.884C367.387 186.792 367.065 186.746 366.744 186.746C366.125 186.746 365.529 186.872 364.956 187.124C364.405 187.354 363.912 187.686 363.476 188.122C363.064 188.535 362.731 189.028 362.479 189.601C362.227 190.152 362.1 190.759 362.1 191.424V201.4H358.523ZM390.26 201.744C388.517 201.744 386.889 201.435 385.375 200.816C383.862 200.174 382.532 199.291 381.385 198.167C380.238 197.043 379.344 195.736 378.702 194.245C378.082 192.732 377.773 191.103 377.773 189.36C377.773 187.64 378.082 186.035 378.702 184.544C379.344 183.054 380.227 181.758 381.35 180.657C382.497 179.533 383.827 178.662 385.341 178.043C386.855 177.424 388.483 177.114 390.226 177.114C391.441 177.114 392.622 177.286 393.769 177.63C394.939 177.974 395.993 178.456 396.934 179.075C397.874 179.694 398.642 180.405 399.239 181.208L396.831 183.719C396.143 183.054 395.432 182.503 394.698 182.068C393.987 181.632 393.253 181.299 392.496 181.07C391.739 180.841 390.983 180.726 390.226 180.726C388.987 180.726 387.841 180.944 386.786 181.38C385.754 181.815 384.836 182.423 384.034 183.203C383.254 183.983 382.646 184.9 382.21 185.955C381.775 186.987 381.557 188.122 381.557 189.36C381.557 190.553 381.786 191.688 382.245 192.766C382.704 193.821 383.334 194.75 384.137 195.552C384.962 196.355 385.903 196.986 386.958 197.444C388.036 197.903 389.171 198.132 390.363 198.132C391.258 198.132 392.106 198.006 392.909 197.754C393.712 197.479 394.423 197.1 395.042 196.619C395.661 196.137 396.143 195.587 396.487 194.968C396.831 194.325 397.003 193.649 397.003 192.938V192.25L397.519 192.732H390.157V189.051H400.821C400.867 189.303 400.901 189.555 400.924 189.808C400.947 190.037 400.959 190.266 400.959 190.496C400.981 190.702 400.993 190.908 400.993 191.115C400.993 192.697 400.718 194.142 400.167 195.449C399.617 196.734 398.849 197.846 397.863 198.786C396.899 199.726 395.764 200.46 394.457 200.988C393.173 201.492 391.774 201.744 390.26 201.744ZM403.216 201.4V183.34H406.794V189.016L406.45 187.64C406.702 186.769 407.126 185.978 407.722 185.267C408.342 184.556 409.041 183.994 409.821 183.581C410.624 183.168 411.449 182.962 412.298 182.962C412.688 182.962 413.054 182.996 413.398 183.065C413.765 183.134 414.052 183.214 414.258 183.306L413.33 187.159C413.054 187.044 412.745 186.952 412.401 186.884C412.08 186.792 411.759 186.746 411.438 186.746C410.818 186.746 410.222 186.872 409.649 187.124C409.098 187.354 408.605 187.686 408.17 188.122C407.757 188.535 407.424 189.028 407.172 189.601C406.92 190.152 406.794 190.759 406.794 191.424V201.4H403.216ZM422.716 201.744C420.95 201.744 419.368 201.343 417.969 200.54C416.593 199.715 415.503 198.603 414.701 197.204C413.898 195.782 413.497 194.165 413.497 192.353C413.497 190.541 413.898 188.936 414.701 187.537C415.503 186.115 416.593 185.003 417.969 184.2C419.368 183.375 420.95 182.962 422.716 182.962C424.459 182.962 426.018 183.375 427.394 184.2C428.793 185.003 429.894 186.115 430.697 187.537C431.5 188.936 431.901 190.541 431.901 192.353C431.901 194.165 431.5 195.782 430.697 197.204C429.894 198.603 428.793 199.715 427.394 200.54C426.018 201.343 424.459 201.744 422.716 201.744ZM422.716 198.511C423.794 198.511 424.757 198.247 425.606 197.72C426.454 197.169 427.119 196.435 427.601 195.518C428.082 194.578 428.312 193.523 428.289 192.353C428.312 191.161 428.082 190.106 427.601 189.188C427.119 188.248 426.454 187.514 425.606 186.987C424.757 186.459 423.794 186.196 422.716 186.196C421.638 186.196 420.664 186.471 419.792 187.021C418.944 187.549 418.278 188.283 417.797 189.223C417.315 190.14 417.086 191.184 417.109 192.353C417.086 193.523 417.315 194.578 417.797 195.518C418.278 196.435 418.944 197.169 419.792 197.72C420.664 198.247 421.638 198.511 422.716 198.511ZM440.371 201.744C439.087 201.744 437.963 201.446 437 200.85C436.06 200.254 435.326 199.417 434.799 198.339C434.294 197.261 434.042 195.977 434.042 194.486V183.34H437.585V193.523C437.585 194.578 437.745 195.495 438.067 196.275C438.411 197.032 438.892 197.616 439.511 198.029C440.153 198.442 440.922 198.648 441.816 198.648C442.481 198.648 443.089 198.545 443.639 198.339C444.19 198.11 444.66 197.8 445.05 197.41C445.463 197.02 445.784 196.55 446.013 196C446.242 195.449 446.357 194.853 446.357 194.211V183.34H449.9V201.4H446.357V197.616L446.976 197.204C446.701 198.052 446.231 198.82 445.566 199.508C444.924 200.196 444.155 200.747 443.261 201.16C442.367 201.55 441.403 201.744 440.371 201.744ZM453.15 208.968V183.34H456.728V187.468L456.177 187.159C456.315 186.471 456.705 185.817 457.347 185.198C457.989 184.556 458.769 184.04 459.686 183.65C460.626 183.237 461.589 183.031 462.576 183.031C464.204 183.031 465.649 183.432 466.91 184.235C468.171 185.037 469.169 186.138 469.903 187.537C470.637 188.936 471.004 190.541 471.004 192.353C471.004 194.142 470.637 195.747 469.903 197.169C469.192 198.568 468.206 199.68 466.944 200.506C465.683 201.309 464.261 201.71 462.679 201.71C461.624 201.71 460.603 201.504 459.617 201.091C458.631 200.655 457.794 200.105 457.106 199.44C456.418 198.775 455.994 198.087 455.833 197.376L456.728 196.894V208.968H453.15ZM462.094 198.442C463.149 198.442 464.089 198.178 464.915 197.651C465.74 197.123 466.394 196.401 466.876 195.484C467.357 194.566 467.598 193.523 467.598 192.353C467.598 191.184 467.357 190.152 466.876 189.257C466.417 188.34 465.775 187.617 464.949 187.09C464.124 186.563 463.172 186.299 462.094 186.299C461.016 186.299 460.064 186.563 459.239 187.09C458.413 187.595 457.76 188.305 457.278 189.223C456.796 190.14 456.556 191.184 456.556 192.353C456.556 193.523 456.796 194.566 457.278 195.484C457.76 196.401 458.413 197.123 459.239 197.651C460.064 198.178 461.016 198.442 462.094 198.442ZM479.152 201.744C477.638 201.744 476.273 201.481 475.058 200.953C473.842 200.426 472.833 199.646 472.031 198.614L474.439 196.55C475.127 197.353 475.872 197.938 476.675 198.304C477.5 198.648 478.429 198.82 479.461 198.82C479.874 198.82 480.252 198.775 480.596 198.683C480.963 198.568 481.273 198.408 481.525 198.201C481.8 197.995 482.007 197.754 482.144 197.479C482.282 197.181 482.351 196.86 482.351 196.516C482.351 195.919 482.133 195.438 481.697 195.071C481.468 194.91 481.101 194.738 480.596 194.555C480.115 194.348 479.484 194.142 478.704 193.936C477.374 193.592 476.285 193.202 475.436 192.766C474.588 192.33 473.934 191.837 473.476 191.287C473.132 190.851 472.879 190.381 472.719 189.876C472.558 189.349 472.478 188.776 472.478 188.156C472.478 187.4 472.638 186.712 472.96 186.092C473.304 185.45 473.762 184.9 474.336 184.441C474.932 183.96 475.62 183.593 476.4 183.34C477.202 183.088 478.051 182.962 478.945 182.962C479.794 182.962 480.631 183.077 481.456 183.306C482.305 183.535 483.085 183.868 483.796 184.304C484.506 184.739 485.103 185.255 485.584 185.852L483.555 188.088C483.119 187.652 482.637 187.273 482.11 186.952C481.605 186.608 481.089 186.345 480.562 186.161C480.034 185.978 479.553 185.886 479.117 185.886C478.636 185.886 478.2 185.932 477.81 186.024C477.42 186.115 477.088 186.253 476.812 186.436C476.56 186.62 476.365 186.849 476.228 187.124C476.09 187.4 476.021 187.709 476.021 188.053C476.044 188.351 476.113 188.638 476.228 188.913C476.365 189.165 476.549 189.383 476.778 189.567C477.03 189.75 477.409 189.945 477.913 190.152C478.418 190.358 479.06 190.553 479.84 190.736C480.986 191.035 481.926 191.367 482.66 191.734C483.417 192.078 484.013 192.479 484.449 192.938C484.908 193.374 485.229 193.878 485.412 194.452C485.596 195.025 485.688 195.667 485.688 196.378C485.688 197.41 485.389 198.339 484.793 199.164C484.22 199.967 483.44 200.598 482.454 201.056C481.468 201.515 480.367 201.744 479.152 201.744Z" fill="#666666"/>
<path d="M139.032 226.56C138.243 226.56 137.512 226.416 136.84 226.128C136.179 225.84 135.597 225.44 135.096 224.928C134.605 224.406 134.221 223.798 133.944 223.104C133.677 222.4 133.544 221.632 133.544 220.8C133.544 219.968 133.677 219.206 133.944 218.512C134.221 217.808 134.605 217.2 135.096 216.688C135.597 216.166 136.179 215.76 136.84 215.472C137.512 215.184 138.243 215.04 139.032 215.04C139.821 215.04 140.547 215.184 141.208 215.472C141.88 215.76 142.461 216.166 142.952 216.688C143.454 217.211 143.838 217.824 144.104 218.528C144.382 219.222 144.52 219.979 144.52 220.8C144.52 221.622 144.382 222.384 144.104 223.088C143.838 223.782 143.454 224.39 142.952 224.912C142.461 225.435 141.88 225.84 141.208 226.128C140.547 226.416 139.821 226.56 139.032 226.56ZM139.032 224.88C139.576 224.88 140.072 224.779 140.52 224.576C140.979 224.374 141.373 224.091 141.704 223.728C142.035 223.355 142.291 222.923 142.472 222.432C142.664 221.931 142.76 221.387 142.76 220.8C142.76 220.214 142.664 219.675 142.472 219.184C142.291 218.683 142.035 218.251 141.704 217.888C141.373 217.515 140.979 217.227 140.52 217.024C140.072 216.822 139.576 216.72 139.032 216.72C138.488 216.72 137.987 216.822 137.528 217.024C137.08 217.227 136.685 217.51 136.344 217.872C136.013 218.235 135.757 218.667 135.576 219.168C135.395 219.659 135.304 220.203 135.304 220.8C135.304 221.387 135.395 221.931 135.576 222.432C135.757 222.934 136.013 223.366 136.344 223.728C136.685 224.091 137.08 224.374 137.528 224.576C137.987 224.779 138.488 224.88 139.032 224.88ZM145.644 226.4V218H147.292V219.728L147.004 219.92C147.11 219.547 147.318 219.206 147.628 218.896C147.937 218.576 148.305 218.32 148.732 218.128C149.158 217.926 149.596 217.824 150.044 217.824C150.684 217.824 151.217 217.952 151.644 218.208C152.07 218.454 152.39 218.832 152.604 219.344C152.817 219.856 152.924 220.502 152.924 221.28V226.4H151.276V221.392C151.276 220.912 151.212 220.518 151.084 220.208C150.956 219.888 150.758 219.659 150.492 219.52C150.225 219.371 149.894 219.307 149.5 219.328C149.18 219.328 148.886 219.382 148.62 219.488C148.353 219.584 148.118 219.723 147.916 219.904C147.724 220.086 147.569 220.299 147.452 220.544C147.345 220.779 147.292 221.035 147.292 221.312V226.4H146.476C146.337 226.4 146.198 226.4 146.06 226.4C145.921 226.4 145.782 226.4 145.644 226.4ZM163.004 226.56C162.225 226.56 161.511 226.422 160.86 226.144C160.209 225.867 159.644 225.472 159.164 224.96C158.684 224.438 158.311 223.824 158.044 223.12C157.788 222.416 157.66 221.643 157.66 220.8C157.66 220 157.798 219.259 158.076 218.576C158.364 217.883 158.759 217.275 159.26 216.752C159.761 216.23 160.343 215.824 161.004 215.536C161.665 215.248 162.38 215.104 163.148 215.104C163.692 215.104 164.22 215.19 164.732 215.36C165.255 215.52 165.724 215.75 166.14 216.048C166.567 216.336 166.913 216.667 167.18 217.04L166.028 218.24C165.719 217.931 165.404 217.675 165.084 217.472C164.775 217.259 164.455 217.099 164.124 216.992C163.804 216.886 163.479 216.832 163.148 216.832C162.625 216.832 162.135 216.934 161.676 217.136C161.228 217.328 160.833 217.6 160.492 217.952C160.161 218.304 159.9 218.726 159.708 219.216C159.516 219.696 159.42 220.224 159.42 220.8C159.42 221.408 159.511 221.963 159.692 222.464C159.884 222.955 160.151 223.376 160.492 223.728C160.833 224.08 161.239 224.352 161.708 224.544C162.188 224.726 162.716 224.816 163.292 224.816C163.644 224.816 163.991 224.768 164.332 224.672C164.673 224.576 164.993 224.438 165.292 224.256C165.591 224.075 165.863 223.862 166.108 223.616L166.972 225.024C166.727 225.312 166.391 225.574 165.964 225.808C165.548 226.043 165.079 226.23 164.556 226.368C164.044 226.496 163.527 226.56 163.004 226.56ZM171.335 226.56C170.642 226.56 170.007 226.368 169.431 225.984C168.866 225.6 168.413 225.078 168.071 224.416C167.73 223.755 167.559 223.008 167.559 222.176C167.559 221.334 167.73 220.587 168.071 219.936C168.423 219.275 168.893 218.758 169.479 218.384C170.077 218.011 170.743 217.824 171.479 217.824C171.917 217.824 172.317 217.888 172.679 218.016C173.042 218.144 173.357 218.326 173.623 218.56C173.901 218.784 174.125 219.046 174.295 219.344C174.477 219.643 174.589 219.963 174.631 220.304L174.263 220.176V218H175.927V226.4H174.263V224.4L174.647 224.288C174.583 224.576 174.45 224.859 174.247 225.136C174.055 225.403 173.805 225.643 173.495 225.856C173.197 226.07 172.861 226.24 172.487 226.368C172.125 226.496 171.741 226.56 171.335 226.56ZM171.767 225.04C172.269 225.04 172.711 224.918 173.095 224.672C173.479 224.427 173.778 224.091 173.991 223.664C174.215 223.227 174.327 222.731 174.327 222.176C174.327 221.632 174.215 221.147 173.991 220.72C173.778 220.294 173.479 219.958 173.095 219.712C172.711 219.467 172.269 219.344 171.767 219.344C171.277 219.344 170.839 219.467 170.455 219.712C170.082 219.958 169.783 220.294 169.559 220.72C169.346 221.147 169.239 221.632 169.239 222.176C169.239 222.731 169.346 223.227 169.559 223.664C169.783 224.091 170.082 224.427 170.455 224.672C170.839 224.918 171.277 225.04 171.767 225.04ZM177.396 226.4V218H179.06V219.792L178.756 219.984C178.842 219.707 178.975 219.44 179.156 219.184C179.348 218.928 179.578 218.704 179.844 218.512C180.122 218.31 180.415 218.15 180.724 218.032C181.044 217.915 181.37 217.856 181.7 217.856C182.18 217.856 182.602 217.936 182.964 218.096C183.327 218.256 183.626 218.496 183.86 218.816C184.095 219.136 184.266 219.536 184.372 220.016L184.116 219.952L184.228 219.68C184.346 219.435 184.506 219.206 184.708 218.992C184.922 218.768 185.162 218.571 185.428 218.4C185.695 218.23 185.978 218.096 186.276 218C186.575 217.904 186.868 217.856 187.156 217.856C187.786 217.856 188.303 217.984 188.708 218.24C189.124 218.496 189.434 218.886 189.636 219.408C189.85 219.931 189.956 220.582 189.956 221.36V226.4H188.292V221.456C188.292 220.976 188.228 220.587 188.1 220.288C187.983 219.979 187.802 219.75 187.556 219.6C187.311 219.451 186.996 219.376 186.612 219.376C186.314 219.376 186.031 219.43 185.764 219.536C185.508 219.632 185.284 219.771 185.092 219.952C184.9 220.134 184.751 220.347 184.644 220.592C184.538 220.827 184.484 221.088 184.484 221.376V226.4H182.82V221.424C182.82 220.987 182.756 220.619 182.628 220.32C182.5 220.011 182.314 219.776 182.068 219.616C181.823 219.456 181.524 219.376 181.172 219.376C180.874 219.376 180.596 219.43 180.34 219.536C180.084 219.632 179.86 219.771 179.668 219.952C179.476 220.123 179.327 220.331 179.22 220.576C179.114 220.811 179.06 221.067 179.06 221.344V226.4H177.396ZM191.363 229.92V218H193.027V219.92L192.771 219.776C192.835 219.456 193.016 219.152 193.315 218.864C193.613 218.566 193.976 218.326 194.403 218.144C194.84 217.952 195.288 217.856 195.747 217.856C196.504 217.856 197.176 218.043 197.763 218.416C198.349 218.79 198.813 219.302 199.155 219.952C199.496 220.603 199.667 221.35 199.667 222.192C199.667 223.024 199.496 223.771 199.155 224.432C198.824 225.083 198.365 225.6 197.779 225.984C197.192 226.358 196.531 226.544 195.795 226.544C195.304 226.544 194.829 226.448 194.371 226.256C193.912 226.054 193.523 225.798 193.203 225.488C192.883 225.179 192.685 224.859 192.611 224.528L193.027 224.304V229.92H191.363ZM195.523 225.024C196.013 225.024 196.451 224.902 196.835 224.656C197.219 224.411 197.523 224.075 197.747 223.648C197.971 223.222 198.083 222.736 198.083 222.192C198.083 221.648 197.971 221.168 197.747 220.752C197.533 220.326 197.235 219.99 196.851 219.744C196.467 219.499 196.024 219.376 195.523 219.376C195.021 219.376 194.579 219.499 194.195 219.744C193.811 219.979 193.507 220.31 193.283 220.736C193.059 221.163 192.947 221.648 192.947 222.192C192.947 222.736 193.059 223.222 193.283 223.648C193.507 224.075 193.811 224.411 194.195 224.656C194.579 224.902 195.021 225.024 195.523 225.024ZM203.6 226.56C203.003 226.56 202.48 226.422 202.032 226.144C201.595 225.867 201.254 225.478 201.008 224.976C200.774 224.475 200.656 223.878 200.656 223.184V218H202.304V222.736C202.304 223.227 202.379 223.654 202.528 224.016C202.688 224.368 202.912 224.64 203.2 224.832C203.499 225.024 203.856 225.12 204.272 225.12C204.582 225.12 204.864 225.072 205.12 224.976C205.376 224.87 205.595 224.726 205.776 224.544C205.968 224.363 206.118 224.144 206.224 223.888C206.331 223.632 206.384 223.355 206.384 223.056V218H208.032V226.4H206.384V224.64L206.672 224.448C206.544 224.843 206.326 225.2 206.016 225.52C205.718 225.84 205.36 226.096 204.944 226.288C204.528 226.47 204.08 226.56 203.6 226.56ZM212.344 226.56C211.64 226.56 211.005 226.438 210.44 226.192C209.875 225.947 209.405 225.584 209.032 225.104L210.152 224.144C210.472 224.518 210.819 224.79 211.192 224.96C211.576 225.12 212.008 225.2 212.488 225.2C212.68 225.2 212.856 225.179 213.016 225.136C213.187 225.083 213.331 225.008 213.448 224.912C213.576 224.816 213.672 224.704 213.736 224.576C213.8 224.438 213.832 224.288 213.832 224.128C213.832 223.851 213.731 223.627 213.528 223.456C213.421 223.382 213.251 223.302 213.016 223.216C212.792 223.12 212.499 223.024 212.136 222.928C211.517 222.768 211.011 222.587 210.616 222.384C210.221 222.182 209.917 221.952 209.704 221.696C209.544 221.494 209.427 221.275 209.352 221.04C209.277 220.795 209.24 220.528 209.24 220.24C209.24 219.888 209.315 219.568 209.464 219.28C209.624 218.982 209.837 218.726 210.104 218.512C210.381 218.288 210.701 218.118 211.064 218C211.437 217.883 211.832 217.824 212.248 217.824C212.643 217.824 213.032 217.878 213.416 217.984C213.811 218.091 214.173 218.246 214.504 218.448C214.835 218.651 215.112 218.891 215.336 219.168L214.392 220.208C214.189 220.006 213.965 219.83 213.72 219.68C213.485 219.52 213.245 219.398 213 219.312C212.755 219.227 212.531 219.184 212.328 219.184C212.104 219.184 211.901 219.206 211.72 219.248C211.539 219.291 211.384 219.355 211.256 219.44C211.139 219.526 211.048 219.632 210.984 219.76C210.92 219.888 210.888 220.032 210.888 220.192C210.899 220.331 210.931 220.464 210.984 220.592C211.048 220.71 211.133 220.811 211.24 220.896C211.357 220.982 211.533 221.072 211.768 221.168C212.003 221.264 212.301 221.355 212.664 221.44C213.197 221.579 213.635 221.734 213.976 221.904C214.328 222.064 214.605 222.251 214.808 222.464C215.021 222.667 215.171 222.902 215.256 223.168C215.341 223.435 215.384 223.734 215.384 224.064C215.384 224.544 215.245 224.976 214.968 225.36C214.701 225.734 214.339 226.027 213.88 226.24C213.421 226.454 212.909 226.56 212.344 226.56Z" fill="#609CFF"/>
<path d="M221.701 222.944C221.306 222.944 220.943 222.848 220.613 222.656C220.282 222.464 220.015 222.203 219.813 221.872C219.621 221.542 219.525 221.179 219.525 220.784C219.525 220.379 219.621 220.011 219.813 219.68C220.005 219.35 220.266 219.088 220.597 218.896C220.927 218.694 221.295 218.592 221.701 218.592C222.106 218.592 222.474 218.694 222.805 218.896C223.135 219.088 223.397 219.35 223.589 219.68C223.791 220.011 223.893 220.379 223.893 220.784C223.893 221.179 223.791 221.542 223.589 221.872C223.397 222.203 223.135 222.464 222.805 222.656C222.474 222.848 222.106 222.944 221.701 222.944ZM227.748 226.4L232.084 215.2H233.844L238.148 226.4H236.308L233.748 219.648C233.716 219.574 233.652 219.392 233.556 219.104C233.471 218.816 233.37 218.496 233.252 218.144C233.135 217.792 233.028 217.472 232.932 217.184C232.836 216.886 232.772 216.694 232.74 216.608L233.108 216.592C233.044 216.774 232.964 217.003 232.868 217.28C232.783 217.558 232.687 217.851 232.58 218.16C232.484 218.47 232.388 218.763 232.292 219.04C232.196 219.307 232.116 219.531 232.052 219.712L229.508 226.4H227.748ZM229.668 223.616L230.308 221.952H235.396L236.132 223.616H229.668ZM239.865 226.4V215.856H241.513V226.4H239.865ZM238.121 219.6V218H243.465V219.6H238.121ZM244.166 226.4V214.56H245.814V219.728L245.526 219.92C245.633 219.547 245.841 219.206 246.15 218.896C246.459 218.576 246.827 218.32 247.254 218.128C247.681 217.926 248.118 217.824 248.566 217.824C249.206 217.824 249.739 217.952 250.166 218.208C250.593 218.454 250.913 218.832 251.126 219.344C251.339 219.856 251.446 220.502 251.446 221.28V226.4H249.798V221.392C249.798 220.912 249.734 220.518 249.606 220.208C249.478 219.888 249.281 219.659 249.014 219.52C248.747 219.371 248.417 219.307 248.022 219.328C247.702 219.328 247.409 219.382 247.142 219.488C246.875 219.584 246.641 219.723 246.438 219.904C246.246 220.086 246.091 220.299 245.974 220.544C245.867 220.779 245.814 221.035 245.814 221.312V226.4H244.998C244.859 226.4 244.721 226.4 244.582 226.4C244.443 226.4 244.305 226.4 244.166 226.4ZM256.114 226.56C255.42 226.56 254.786 226.368 254.21 225.984C253.644 225.6 253.191 225.078 252.85 224.416C252.508 223.755 252.338 223.008 252.338 222.176C252.338 221.334 252.508 220.587 252.85 219.936C253.202 219.275 253.671 218.758 254.258 218.384C254.855 218.011 255.522 217.824 256.258 217.824C256.695 217.824 257.095 217.888 257.458 218.016C257.82 218.144 258.135 218.326 258.402 218.56C258.679 218.784 258.903 219.046 259.074 219.344C259.255 219.643 259.367 219.963 259.41 220.304L259.042 220.176V218H260.706V226.4H259.042V224.4L259.426 224.288C259.362 224.576 259.228 224.859 259.026 225.136C258.834 225.403 258.583 225.643 258.274 225.856C257.975 226.07 257.639 226.24 257.266 226.368C256.903 226.496 256.519 226.56 256.114 226.56ZM256.546 225.04C257.047 225.04 257.49 224.918 257.874 224.672C258.258 224.427 258.556 224.091 258.77 223.664C258.994 223.227 259.106 222.731 259.106 222.176C259.106 221.632 258.994 221.147 258.77 220.72C258.556 220.294 258.258 219.958 257.874 219.712C257.49 219.467 257.047 219.344 256.546 219.344C256.055 219.344 255.618 219.467 255.234 219.712C254.86 219.958 254.562 220.294 254.338 220.72C254.124 221.147 254.018 221.632 254.018 222.176C254.018 222.731 254.124 223.227 254.338 223.664C254.562 224.091 254.86 224.427 255.234 224.672C255.618 224.918 256.055 225.04 256.546 225.04ZM262.207 226.4V218H263.871V220.64L263.711 220C263.828 219.595 264.025 219.227 264.303 218.896C264.591 218.566 264.916 218.304 265.279 218.112C265.652 217.92 266.036 217.824 266.431 217.824C266.612 217.824 266.783 217.84 266.943 217.872C267.113 217.904 267.247 217.942 267.343 217.984L266.911 219.776C266.783 219.723 266.639 219.68 266.479 219.648C266.329 219.606 266.18 219.584 266.031 219.584C265.743 219.584 265.465 219.643 265.199 219.76C264.943 219.867 264.713 220.022 264.511 220.224C264.319 220.416 264.164 220.646 264.047 220.912C263.929 221.168 263.871 221.451 263.871 221.76V226.4H262.207ZM271.409 226.4L267.857 218H269.633L272.193 224.288L271.889 224.432L274.625 218H276.321L272.593 226.4H271.409ZM280.026 226.56C279.333 226.56 278.698 226.368 278.122 225.984C277.557 225.6 277.103 225.078 276.762 224.416C276.421 223.755 276.25 223.008 276.25 222.176C276.25 221.334 276.421 220.587 276.762 219.936C277.114 219.275 277.583 218.758 278.17 218.384C278.767 218.011 279.434 217.824 280.17 217.824C280.607 217.824 281.007 217.888 281.37 218.016C281.733 218.144 282.047 218.326 282.314 218.56C282.591 218.784 282.815 219.046 282.986 219.344C283.167 219.643 283.279 219.963 283.322 220.304L282.954 220.176V218H284.618V226.4H282.954V224.4L283.338 224.288C283.274 224.576 283.141 224.859 282.938 225.136C282.746 225.403 282.495 225.643 282.186 225.856C281.887 226.07 281.551 226.24 281.178 226.368C280.815 226.496 280.431 226.56 280.026 226.56ZM280.458 225.04C280.959 225.04 281.402 224.918 281.786 224.672C282.17 224.427 282.469 224.091 282.682 223.664C282.906 223.227 283.018 222.731 283.018 222.176C283.018 221.632 282.906 221.147 282.682 220.72C282.469 220.294 282.17 219.958 281.786 219.712C281.402 219.467 280.959 219.344 280.458 219.344C279.967 219.344 279.53 219.467 279.146 219.712C278.773 219.958 278.474 220.294 278.25 220.72C278.037 221.147 277.93 221.632 277.93 222.176C277.93 222.731 278.037 223.227 278.25 223.664C278.474 224.091 278.773 224.427 279.146 224.672C279.53 224.918 279.967 225.04 280.458 225.04ZM298.448 226.56C297.669 226.56 296.955 226.422 296.304 226.144C295.653 225.867 295.088 225.472 294.608 224.96C294.128 224.438 293.755 223.824 293.488 223.12C293.232 222.416 293.104 221.643 293.104 220.8C293.104 220 293.243 219.259 293.52 218.576C293.808 217.883 294.203 217.275 294.704 216.752C295.205 216.23 295.787 215.824 296.448 215.536C297.109 215.248 297.824 215.104 298.592 215.104C299.136 215.104 299.664 215.19 300.176 215.36C300.699 215.52 301.168 215.75 301.584 216.048C302.011 216.336 302.357 216.667 302.624 217.04L301.472 218.24C301.163 217.931 300.848 217.675 300.528 217.472C300.219 217.259 299.899 217.099 299.568 216.992C299.248 216.886 298.923 216.832 298.592 216.832C298.069 216.832 297.579 216.934 297.12 217.136C296.672 217.328 296.277 217.6 295.936 217.952C295.605 218.304 295.344 218.726 295.152 219.216C294.96 219.696 294.864 220.224 294.864 220.8C294.864 221.408 294.955 221.963 295.136 222.464C295.328 222.955 295.595 223.376 295.936 223.728C296.277 224.08 296.683 224.352 297.152 224.544C297.632 224.726 298.16 224.816 298.736 224.816C299.088 224.816 299.435 224.768 299.776 224.672C300.117 224.576 300.437 224.438 300.736 224.256C301.035 224.075 301.307 223.862 301.552 223.616L302.416 225.024C302.171 225.312 301.835 225.574 301.408 225.808C300.992 226.043 300.523 226.23 300 226.368C299.488 226.496 298.971 226.56 298.448 226.56ZM307.323 226.56C306.502 226.56 305.766 226.374 305.115 226C304.475 225.616 303.969 225.099 303.595 224.448C303.222 223.787 303.035 223.035 303.035 222.192C303.035 221.35 303.222 220.603 303.595 219.952C303.969 219.291 304.475 218.774 305.115 218.4C305.766 218.016 306.502 217.824 307.323 217.824C308.134 217.824 308.859 218.016 309.499 218.4C310.15 218.774 310.662 219.291 311.035 219.952C311.409 220.603 311.595 221.35 311.595 222.192C311.595 223.035 311.409 223.787 311.035 224.448C310.662 225.099 310.15 225.616 309.499 226C308.859 226.374 308.134 226.56 307.323 226.56ZM307.323 225.056C307.825 225.056 308.273 224.934 308.667 224.688C309.062 224.432 309.371 224.091 309.595 223.664C309.819 223.227 309.926 222.736 309.915 222.192C309.926 221.638 309.819 221.147 309.595 220.72C309.371 220.283 309.062 219.942 308.667 219.696C308.273 219.451 307.825 219.328 307.323 219.328C306.822 219.328 306.369 219.456 305.963 219.712C305.569 219.958 305.259 220.299 305.035 220.736C304.811 221.163 304.705 221.648 304.715 222.192C304.705 222.736 304.811 223.227 305.035 223.664C305.259 224.091 305.569 224.432 305.963 224.688C306.369 224.934 306.822 225.056 307.323 225.056ZM312.623 226.4V214.56H314.271V226.4H312.623ZM315.839 226.4V214.56H317.487V226.4H315.839ZM322.786 226.56C321.922 226.56 321.154 226.379 320.482 226.016C319.821 225.643 319.298 225.136 318.914 224.496C318.541 223.856 318.354 223.12 318.354 222.288C318.354 221.627 318.461 221.024 318.674 220.48C318.887 219.936 319.181 219.467 319.554 219.072C319.938 218.667 320.391 218.358 320.914 218.144C321.447 217.92 322.023 217.808 322.642 217.808C323.186 217.808 323.693 217.915 324.162 218.128C324.631 218.331 325.037 218.614 325.378 218.976C325.73 219.339 325.997 219.771 326.178 220.272C326.37 220.763 326.461 221.302 326.45 221.888L326.434 222.592H319.57L319.202 221.28H325.01L324.77 221.552V221.168C324.738 220.816 324.621 220.502 324.418 220.224C324.215 219.947 323.959 219.728 323.65 219.568C323.341 219.408 323.005 219.328 322.642 219.328C322.066 219.328 321.581 219.44 321.186 219.664C320.791 219.878 320.493 220.198 320.29 220.624C320.087 221.04 319.986 221.558 319.986 222.176C319.986 222.763 320.109 223.275 320.354 223.712C320.599 224.139 320.946 224.47 321.394 224.704C321.842 224.939 322.359 225.056 322.946 225.056C323.362 225.056 323.746 224.987 324.098 224.848C324.461 224.71 324.85 224.459 325.266 224.096L326.098 225.264C325.842 225.52 325.527 225.744 325.154 225.936C324.791 226.128 324.402 226.283 323.986 226.4C323.581 226.507 323.181 226.56 322.786 226.56ZM331.123 230.08C330.526 230.08 329.928 229.984 329.331 229.792C328.744 229.611 328.27 229.371 327.907 229.072L328.515 227.792C328.728 227.952 328.979 228.091 329.267 228.208C329.555 228.336 329.859 228.432 330.179 228.496C330.499 228.571 330.814 228.608 331.123 228.608C331.71 228.608 332.2 228.512 332.595 228.32C332.99 228.128 333.288 227.846 333.491 227.472C333.694 227.099 333.795 226.635 333.795 226.08V224.464L333.971 224.576C333.918 224.907 333.742 225.227 333.443 225.536C333.155 225.835 332.792 226.08 332.355 226.272C331.918 226.464 331.47 226.56 331.011 226.56C330.211 226.56 329.496 226.374 328.867 226C328.248 225.616 327.758 225.099 327.395 224.448C327.032 223.787 326.851 223.035 326.851 222.192C326.851 221.35 327.027 220.603 327.379 219.952C327.742 219.291 328.232 218.774 328.851 218.4C329.48 218.016 330.184 217.824 330.963 217.824C331.283 217.824 331.592 217.867 331.891 217.952C332.19 218.027 332.467 218.139 332.723 218.288C332.979 218.427 333.208 218.582 333.411 218.752C333.614 218.923 333.779 219.104 333.907 219.296C334.035 219.488 334.115 219.67 334.147 219.84L333.795 219.968V218H335.443V225.888C335.443 226.56 335.342 227.152 335.139 227.664C334.947 228.187 334.664 228.624 334.291 228.976C333.918 229.339 333.464 229.611 332.931 229.792C332.398 229.984 331.795 230.08 331.123 230.08ZM331.187 225.04C331.71 225.04 332.174 224.918 332.579 224.672C332.984 224.427 333.299 224.091 333.523 223.664C333.747 223.238 333.859 222.747 333.859 222.192C333.859 221.638 333.742 221.147 333.507 220.72C333.283 220.283 332.968 219.942 332.563 219.696C332.168 219.451 331.71 219.328 331.187 219.328C330.675 219.328 330.216 219.456 329.811 219.712C329.416 219.958 329.102 220.299 328.867 220.736C328.643 221.163 328.531 221.648 328.531 222.192C328.531 222.736 328.643 223.227 328.867 223.664C329.102 224.091 329.416 224.427 329.811 224.672C330.216 224.918 330.675 225.04 331.187 225.04ZM340.874 226.56C340.01 226.56 339.242 226.379 338.57 226.016C337.908 225.643 337.386 225.136 337.002 224.496C336.628 223.856 336.442 223.12 336.442 222.288C336.442 221.627 336.548 221.024 336.762 220.48C336.975 219.936 337.268 219.467 337.642 219.072C338.026 218.667 338.479 218.358 339.002 218.144C339.535 217.92 340.111 217.808 340.73 217.808C341.274 217.808 341.78 217.915 342.25 218.128C342.719 218.331 343.124 218.614 343.466 218.976C343.818 219.339 344.084 219.771 344.266 220.272C344.458 220.763 344.548 221.302 344.538 221.888L344.522 222.592H337.658L337.29 221.28H343.098L342.858 221.552V221.168C342.826 220.816 342.708 220.502 342.506 220.224C342.303 219.947 342.047 219.728 341.738 219.568C341.428 219.408 341.092 219.328 340.73 219.328C340.154 219.328 339.668 219.44 339.274 219.664C338.879 219.878 338.58 220.198 338.378 220.624C338.175 221.04 338.074 221.558 338.074 222.176C338.074 222.763 338.196 223.275 338.442 223.712C338.687 224.139 339.034 224.47 339.482 224.704C339.93 224.939 340.447 225.056 341.034 225.056C341.45 225.056 341.834 224.987 342.186 224.848C342.548 224.71 342.938 224.459 343.354 224.096L344.186 225.264C343.93 225.52 343.615 225.744 343.242 225.936C342.879 226.128 342.49 226.283 342.074 226.4C341.668 226.507 341.268 226.56 340.874 226.56ZM352.989 226.56C352.168 226.56 351.432 226.374 350.781 226C350.141 225.616 349.634 225.099 349.261 224.448C348.888 223.787 348.701 223.035 348.701 222.192C348.701 221.35 348.888 220.603 349.261 219.952C349.634 219.291 350.141 218.774 350.781 218.4C351.432 218.016 352.168 217.824 352.989 217.824C353.8 217.824 354.525 218.016 355.165 218.4C355.816 218.774 356.328 219.291 356.701 219.952C357.074 220.603 357.261 221.35 357.261 222.192C357.261 223.035 357.074 223.787 356.701 224.448C356.328 225.099 355.816 225.616 355.165 226C354.525 226.374 353.8 226.56 352.989 226.56ZM352.989 225.056C353.49 225.056 353.938 224.934 354.333 224.688C354.728 224.432 355.037 224.091 355.261 223.664C355.485 223.227 355.592 222.736 355.581 222.192C355.592 221.638 355.485 221.147 355.261 220.72C355.037 220.283 354.728 219.942 354.333 219.696C353.938 219.451 353.49 219.328 352.989 219.328C352.488 219.328 352.034 219.456 351.629 219.712C351.234 219.958 350.925 220.299 350.701 220.736C350.477 221.163 350.37 221.648 350.381 222.192C350.37 222.736 350.477 223.227 350.701 223.664C350.925 224.091 351.234 224.432 351.629 224.688C352.034 224.934 352.488 225.056 352.989 225.056ZM358.856 226.4V217.056C358.856 216.576 358.963 216.15 359.176 215.776C359.39 215.403 359.683 215.11 360.056 214.896C360.43 214.683 360.862 214.576 361.352 214.576C361.694 214.576 362.014 214.64 362.312 214.768C362.611 214.896 362.851 215.067 363.032 215.28L362.472 216.544C362.334 216.416 362.179 216.315 362.008 216.24C361.848 216.155 361.694 216.112 361.544 216.112C361.32 216.112 361.128 216.15 360.968 216.224C360.819 216.288 360.707 216.395 360.632 216.544C360.558 216.683 360.52 216.854 360.52 217.056V226.4H359.688C359.55 226.4 359.411 226.4 359.272 226.4C359.134 226.4 358.995 226.4 358.856 226.4ZM357.512 219.664V218.144H362.504V219.664H357.512ZM367.526 226.4V215.2H374.582V216.864H369.254V224.736H374.582V226.4H367.526ZM368.31 221.488V219.824H373.702V221.488H368.31ZM376.138 226.4V218H377.786V219.728L377.498 219.92C377.605 219.547 377.813 219.206 378.122 218.896C378.431 218.576 378.799 218.32 379.226 218.128C379.653 217.926 380.09 217.824 380.538 217.824C381.178 217.824 381.711 217.952 382.138 218.208C382.565 218.454 382.885 218.832 383.098 219.344C383.312 219.856 383.418 220.502 383.418 221.28V226.4H381.77V221.392C381.77 220.912 381.706 220.518 381.578 220.208C381.45 219.888 381.253 219.659 380.986 219.52C380.719 219.371 380.389 219.307 379.994 219.328C379.674 219.328 379.381 219.382 379.114 219.488C378.847 219.584 378.613 219.723 378.41 219.904C378.218 220.086 378.063 220.299 377.946 220.544C377.839 220.779 377.786 221.035 377.786 221.312V226.4H376.97C376.831 226.4 376.693 226.4 376.554 226.4C376.415 226.4 376.277 226.4 376.138 226.4ZM388.614 230.08C388.016 230.08 387.419 229.984 386.822 229.792C386.235 229.611 385.76 229.371 385.398 229.072L386.006 227.792C386.219 227.952 386.47 228.091 386.758 228.208C387.046 228.336 387.35 228.432 387.67 228.496C387.99 228.571 388.304 228.608 388.614 228.608C389.2 228.608 389.691 228.512 390.086 228.32C390.48 228.128 390.779 227.846 390.982 227.472C391.184 227.099 391.286 226.635 391.286 226.08V224.464L391.462 224.576C391.408 224.907 391.232 225.227 390.934 225.536C390.646 225.835 390.283 226.08 389.846 226.272C389.408 226.464 388.96 226.56 388.502 226.56C387.702 226.56 386.987 226.374 386.358 226C385.739 225.616 385.248 225.099 384.886 224.448C384.523 223.787 384.342 223.035 384.342 222.192C384.342 221.35 384.518 220.603 384.87 219.952C385.232 219.291 385.723 218.774 386.342 218.4C386.971 218.016 387.675 217.824 388.454 217.824C388.774 217.824 389.083 217.867 389.382 217.952C389.68 218.027 389.958 218.139 390.214 218.288C390.47 218.427 390.699 218.582 390.902 218.752C391.104 218.923 391.27 219.104 391.398 219.296C391.526 219.488 391.606 219.67 391.638 219.84L391.286 219.968V218H392.934V225.888C392.934 226.56 392.832 227.152 392.63 227.664C392.438 228.187 392.155 228.624 391.782 228.976C391.408 229.339 390.955 229.611 390.422 229.792C389.888 229.984 389.286 230.08 388.614 230.08ZM388.678 225.04C389.2 225.04 389.664 224.918 390.07 224.672C390.475 224.427 390.79 224.091 391.014 223.664C391.238 223.238 391.35 222.747 391.35 222.192C391.35 221.638 391.232 221.147 390.998 220.72C390.774 220.283 390.459 219.942 390.054 219.696C389.659 219.451 389.2 219.328 388.678 219.328C388.166 219.328 387.707 219.456 387.302 219.712C386.907 219.958 386.592 220.299 386.358 220.736C386.134 221.163 386.022 221.648 386.022 222.192C386.022 222.736 386.134 223.227 386.358 223.664C386.592 224.091 386.907 224.427 387.302 224.672C387.707 224.918 388.166 225.04 388.678 225.04ZM394.716 226.4V218H396.364V226.4H394.716ZM395.516 216.144C395.164 216.144 394.892 216.054 394.7 215.872C394.508 215.691 394.412 215.435 394.412 215.104C394.412 214.795 394.508 214.544 394.7 214.352C394.903 214.16 395.175 214.064 395.516 214.064C395.868 214.064 396.14 214.155 396.332 214.336C396.524 214.518 396.62 214.774 396.62 215.104C396.62 215.414 396.519 215.664 396.316 215.856C396.124 216.048 395.858 216.144 395.516 216.144ZM398.098 226.4V218H399.746V219.728L399.458 219.92C399.564 219.547 399.772 219.206 400.082 218.896C400.391 218.576 400.759 218.32 401.186 218.128C401.612 217.926 402.05 217.824 402.498 217.824C403.138 217.824 403.671 217.952 404.098 218.208C404.524 218.454 404.844 218.832 405.058 219.344C405.271 219.856 405.378 220.502 405.378 221.28V226.4H403.73V221.392C403.73 220.912 403.666 220.518 403.538 220.208C403.41 219.888 403.212 219.659 402.946 219.52C402.679 219.371 402.348 219.307 401.954 219.328C401.634 219.328 401.34 219.382 401.074 219.488C400.807 219.584 400.572 219.723 400.37 219.904C400.178 220.086 400.023 220.299 399.906 220.544C399.799 220.779 399.746 221.035 399.746 221.312V226.4H398.93C398.791 226.4 398.652 226.4 398.514 226.4C398.375 226.4 398.236 226.4 398.098 226.4ZM410.733 226.56C409.869 226.56 409.101 226.379 408.429 226.016C407.768 225.643 407.245 225.136 406.861 224.496C406.488 223.856 406.301 223.12 406.301 222.288C406.301 221.627 406.408 221.024 406.621 220.48C406.835 219.936 407.128 219.467 407.501 219.072C407.885 218.667 408.339 218.358 408.861 218.144C409.395 217.92 409.971 217.808 410.589 217.808C411.133 217.808 411.64 217.915 412.109 218.128C412.579 218.331 412.984 218.614 413.325 218.976C413.677 219.339 413.944 219.771 414.125 220.272C414.317 220.763 414.408 221.302 414.397 221.888L414.381 222.592H407.517L407.149 221.28H412.957L412.717 221.552V221.168C412.685 220.816 412.568 220.502 412.365 220.224C412.163 219.947 411.907 219.728 411.597 219.568C411.288 219.408 410.952 219.328 410.589 219.328C410.013 219.328 409.528 219.44 409.133 219.664C408.739 219.878 408.44 220.198 408.237 220.624C408.035 221.04 407.933 221.558 407.933 222.176C407.933 222.763 408.056 223.275 408.301 223.712C408.547 224.139 408.893 224.47 409.341 224.704C409.789 224.939 410.307 225.056 410.893 225.056C411.309 225.056 411.693 224.987 412.045 224.848C412.408 224.71 412.797 224.459 413.213 224.096L414.045 225.264C413.789 225.52 413.475 225.744 413.101 225.936C412.739 226.128 412.349 226.283 411.933 226.4C411.528 226.507 411.128 226.56 410.733 226.56ZM419.308 226.56C418.444 226.56 417.676 226.379 417.004 226.016C416.343 225.643 415.82 225.136 415.436 224.496C415.063 223.856 414.876 223.12 414.876 222.288C414.876 221.627 414.983 221.024 415.196 220.48C415.41 219.936 415.703 219.467 416.076 219.072C416.46 218.667 416.914 218.358 417.436 218.144C417.97 217.92 418.546 217.808 419.164 217.808C419.708 217.808 420.215 217.915 420.684 218.128C421.154 218.331 421.559 218.614 421.9 218.976C422.252 219.339 422.519 219.771 422.7 220.272C422.892 220.763 422.983 221.302 422.972 221.888L422.956 222.592H416.092L415.724 221.28H421.532L421.292 221.552V221.168C421.26 220.816 421.143 220.502 420.94 220.224C420.738 219.947 420.482 219.728 420.172 219.568C419.863 219.408 419.527 219.328 419.164 219.328C418.588 219.328 418.103 219.44 417.708 219.664C417.314 219.878 417.015 220.198 416.812 220.624C416.61 221.04 416.508 221.558 416.508 222.176C416.508 222.763 416.631 223.275 416.876 223.712C417.122 224.139 417.468 224.47 417.916 224.704C418.364 224.939 418.882 225.056 419.468 225.056C419.884 225.056 420.268 224.987 420.62 224.848C420.983 224.71 421.372 224.459 421.788 224.096L422.62 225.264C422.364 225.52 422.05 225.744 421.676 225.936C421.314 226.128 420.924 226.283 420.508 226.4C420.103 226.507 419.703 226.56 419.308 226.56ZM423.963 226.4V218H425.627V220.64L425.467 220C425.585 219.595 425.782 219.227 426.059 218.896C426.347 218.566 426.673 218.304 427.035 218.112C427.409 217.92 427.793 217.824 428.187 217.824C428.369 217.824 428.539 217.84 428.699 217.872C428.87 217.904 429.003 217.942 429.099 217.984L428.667 219.776C428.539 219.723 428.395 219.68 428.235 219.648C428.086 219.606 427.937 219.584 427.787 219.584C427.499 219.584 427.222 219.643 426.955 219.76C426.699 219.867 426.47 220.022 426.267 220.224C426.075 220.416 425.921 220.646 425.803 220.912C425.686 221.168 425.627 221.451 425.627 221.76V226.4H423.963ZM429.888 226.4V218H431.536V226.4H429.888ZM430.688 216.144C430.336 216.144 430.064 216.054 429.872 215.872C429.68 215.691 429.584 215.435 429.584 215.104C429.584 214.795 429.68 214.544 429.872 214.352C430.075 214.16 430.347 214.064 430.688 214.064C431.04 214.064 431.312 214.155 431.504 214.336C431.696 214.518 431.792 214.774 431.792 215.104C431.792 215.414 431.691 215.664 431.488 215.856C431.296 216.048 431.03 216.144 430.688 216.144ZM433.27 226.4V218H434.918V219.728L434.63 219.92C434.736 219.547 434.944 219.206 435.254 218.896C435.563 218.576 435.931 218.32 436.358 218.128C436.784 217.926 437.222 217.824 437.67 217.824C438.31 217.824 438.843 217.952 439.27 218.208C439.696 218.454 440.016 218.832 440.23 219.344C440.443 219.856 440.55 220.502 440.55 221.28V226.4H438.902V221.392C438.902 220.912 438.838 220.518 438.71 220.208C438.582 219.888 438.384 219.659 438.118 219.52C437.851 219.371 437.52 219.307 437.126 219.328C436.806 219.328 436.512 219.382 436.246 219.488C435.979 219.584 435.744 219.723 435.542 219.904C435.35 220.086 435.195 220.299 435.078 220.544C434.971 220.779 434.918 221.035 434.918 221.312V226.4H434.102C433.963 226.4 433.824 226.4 433.686 226.4C433.547 226.4 433.408 226.4 433.27 226.4ZM445.745 230.08C445.148 230.08 444.551 229.984 443.953 229.792C443.367 229.611 442.892 229.371 442.529 229.072L443.137 227.792C443.351 227.952 443.601 228.091 443.889 228.208C444.177 228.336 444.481 228.432 444.801 228.496C445.121 228.571 445.436 228.608 445.745 228.608C446.332 228.608 446.823 228.512 447.217 228.32C447.612 228.128 447.911 227.846 448.113 227.472C448.316 227.099 448.417 226.635 448.417 226.08V224.464L448.593 224.576C448.54 224.907 448.364 225.227 448.065 225.536C447.777 225.835 447.415 226.08 446.977 226.272C446.54 226.464 446.092 226.56 445.633 226.56C444.833 226.56 444.119 226.374 443.489 226C442.871 225.616 442.38 225.099 442.017 224.448C441.655 223.787 441.473 223.035 441.473 222.192C441.473 221.35 441.649 220.603 442.001 219.952C442.364 219.291 442.855 218.774 443.473 218.4C444.103 218.016 444.807 217.824 445.585 217.824C445.905 217.824 446.215 217.867 446.513 217.952C446.812 218.027 447.089 218.139 447.345 218.288C447.601 218.427 447.831 218.582 448.033 218.752C448.236 218.923 448.401 219.104 448.529 219.296C448.657 219.488 448.737 219.67 448.769 219.84L448.417 219.968V218H450.065V225.888C450.065 226.56 449.964 227.152 449.761 227.664C449.569 228.187 449.287 228.624 448.913 228.976C448.54 229.339 448.087 229.611 447.553 229.792C447.02 229.984 446.417 230.08 445.745 230.08ZM445.809 225.04C446.332 225.04 446.796 224.918 447.201 224.672C447.607 224.427 447.921 224.091 448.145 223.664C448.369 223.238 448.481 222.747 448.481 222.192C448.481 221.638 448.364 221.147 448.129 220.72C447.905 220.283 447.591 219.942 447.185 219.696C446.791 219.451 446.332 219.328 445.809 219.328C445.297 219.328 444.839 219.456 444.433 219.712C444.039 219.958 443.724 220.299 443.489 220.736C443.265 221.163 443.153 221.648 443.153 222.192C443.153 222.736 443.265 223.227 443.489 223.664C443.724 224.091 444.039 224.427 444.433 224.672C444.839 224.918 445.297 225.04 445.809 225.04Z" fill="#666666"/>
</svg>
