<svg width="584" height="311" viewBox="0 0 584 311" fill="none" xmlns="http://www.w3.org/2000/svg">
<rect x="-0.448398" y="1.63675" width="60.5213" height="19.1176" rx="9.5588" transform="matrix(-0.868809 0.495148 0.495144 0.868811 277.517 81.4367)" fill="#EF5350" stroke="#EF5350" stroke-width="2.40001"/>
<rect x="-0.448398" y="1.63675" width="60.5213" height="19.1176" rx="9.5588" transform="matrix(-0.868809 0.495148 0.495144 0.868811 347.862 101.987)" fill="#FBBC04" stroke="#FBBC04" stroke-width="2.40001"/>
<rect x="0.448398" y="1.63675" width="60.5213" height="19.1176" rx="9.5588" transform="matrix(0.868809 0.495148 -0.495144 0.868811 236.022 101.543)" fill="#4285F4" stroke="#4285F4" stroke-width="2.40001"/>
<path d="M353.795 120.909C351.181 125.495 345.344 127.094 340.757 124.48L304.785 103.979C300.199 101.365 298.6 95.5282 301.213 90.9416C303.827 86.355 309.665 84.7558 314.251 87.3698L350.223 107.871C354.81 110.485 356.409 116.322 353.795 120.909Z" fill="#4CAF50" stroke="#4CAF50" stroke-width="2.40001"/>
<path d="M110.638 201.744C108.895 201.744 107.267 201.435 105.754 200.816C104.24 200.174 102.91 199.291 101.763 198.167C100.617 197.043 99.7221 195.736 99.08 194.245C98.4608 192.732 98.1512 191.103 98.1512 189.36C98.1512 187.64 98.4608 186.035 99.08 184.544C99.7221 183.054 100.605 181.758 101.729 180.657C102.875 179.533 104.206 178.662 105.719 178.043C107.233 177.424 108.861 177.114 110.604 177.114C111.82 177.114 113.001 177.286 114.147 177.63C115.317 177.974 116.372 178.456 117.312 179.075C118.252 179.694 119.021 180.405 119.617 181.208L117.209 183.719C116.521 183.054 115.81 182.503 115.076 182.068C114.365 181.632 113.631 181.299 112.874 181.07C112.118 180.841 111.361 180.726 110.604 180.726C109.366 180.726 108.219 180.944 107.164 181.38C106.132 181.815 105.215 182.423 104.412 183.203C103.632 183.983 103.025 184.9 102.589 185.955C102.153 186.987 101.935 188.122 101.935 189.36C101.935 190.553 102.165 191.688 102.623 192.766C103.082 193.821 103.713 194.75 104.515 195.552C105.341 196.355 106.281 196.986 107.336 197.444C108.414 197.903 109.549 198.132 110.742 198.132C111.636 198.132 112.485 198.006 113.287 197.754C114.09 197.479 114.801 197.1 115.42 196.619C116.039 196.137 116.521 195.587 116.865 194.968C117.209 194.325 117.381 193.649 117.381 192.938V192.25L117.897 192.732H110.535V189.051H121.199C121.245 189.303 121.28 189.555 121.302 189.808C121.325 190.037 121.337 190.266 121.337 190.496C121.36 190.702 121.371 190.908 121.371 191.115C121.371 192.697 121.096 194.142 120.546 195.449C119.995 196.734 119.227 197.846 118.241 198.786C117.278 199.726 116.142 200.46 114.835 200.988C113.551 201.492 112.152 201.744 110.638 201.744ZM131.713 201.744C129.947 201.744 128.365 201.343 126.966 200.54C125.59 199.715 124.5 198.603 123.698 197.204C122.895 195.782 122.494 194.165 122.494 192.353C122.494 190.541 122.895 188.936 123.698 187.537C124.5 186.115 125.59 185.003 126.966 184.2C128.365 183.375 129.947 182.962 131.713 182.962C133.456 182.962 135.015 183.375 136.391 184.2C137.79 185.003 138.891 186.115 139.694 187.537C140.496 188.936 140.898 190.541 140.898 192.353C140.898 194.165 140.496 195.782 139.694 197.204C138.891 198.603 137.79 199.715 136.391 200.54C135.015 201.343 133.456 201.744 131.713 201.744ZM131.713 198.511C132.791 198.511 133.754 198.247 134.602 197.72C135.451 197.169 136.116 196.435 136.598 195.518C137.079 194.578 137.309 193.523 137.286 192.353C137.309 191.161 137.079 190.106 136.598 189.188C136.116 188.248 135.451 187.514 134.602 186.987C133.754 186.459 132.791 186.196 131.713 186.196C130.635 186.196 129.66 186.471 128.789 187.021C127.94 187.549 127.275 188.283 126.794 189.223C126.312 190.14 126.083 191.184 126.106 192.353C126.083 193.523 126.312 194.578 126.794 195.518C127.275 196.435 127.94 197.169 128.789 197.72C129.66 198.247 130.635 198.511 131.713 198.511ZM151.157 201.744C149.391 201.744 147.809 201.343 146.41 200.54C145.034 199.715 143.944 198.603 143.142 197.204C142.339 195.782 141.938 194.165 141.938 192.353C141.938 190.541 142.339 188.936 143.142 187.537C143.944 186.115 145.034 185.003 146.41 184.2C147.809 183.375 149.391 182.962 151.157 182.962C152.9 182.962 154.459 183.375 155.835 184.2C157.234 185.003 158.335 186.115 159.138 187.537C159.94 188.936 160.342 190.541 160.342 192.353C160.342 194.165 159.94 195.782 159.138 197.204C158.335 198.603 157.234 199.715 155.835 200.54C154.459 201.343 152.9 201.744 151.157 201.744ZM151.157 198.511C152.235 198.511 153.198 198.247 154.047 197.72C154.895 197.169 155.56 196.435 156.042 195.518C156.523 194.578 156.753 193.523 156.73 192.353C156.753 191.161 156.523 190.106 156.042 189.188C155.56 188.248 154.895 187.514 154.047 186.987C153.198 186.459 152.235 186.196 151.157 186.196C150.079 186.196 149.104 186.471 148.233 187.021C147.384 187.549 146.719 188.283 146.238 189.223C145.756 190.14 145.527 191.184 145.55 192.353C145.527 193.523 145.756 194.578 146.238 195.518C146.719 196.435 147.384 197.169 148.233 197.72C149.104 198.247 150.079 198.511 151.157 198.511ZM170.567 209.312C169.282 209.312 167.998 209.106 166.714 208.693C165.452 208.303 164.432 207.787 163.652 207.145L164.959 204.393C165.418 204.737 165.957 205.035 166.576 205.288C167.195 205.563 167.849 205.769 168.537 205.907C169.225 206.067 169.902 206.148 170.567 206.148C171.828 206.148 172.883 205.941 173.731 205.528C174.58 205.116 175.222 204.508 175.658 203.705C176.094 202.903 176.311 201.905 176.311 200.712V197.238L176.69 197.479C176.575 198.19 176.197 198.878 175.555 199.543C174.935 200.185 174.156 200.712 173.215 201.125C172.275 201.538 171.312 201.744 170.326 201.744C168.606 201.744 167.069 201.343 165.716 200.54C164.386 199.715 163.331 198.603 162.551 197.204C161.772 195.782 161.382 194.165 161.382 192.353C161.382 190.541 161.76 188.936 162.517 187.537C163.297 186.115 164.352 185.003 165.682 184.2C167.035 183.375 168.548 182.962 170.223 182.962C170.911 182.962 171.576 183.054 172.218 183.237C172.86 183.398 173.456 183.639 174.007 183.96C174.557 184.258 175.05 184.59 175.486 184.957C175.922 185.324 176.277 185.714 176.552 186.127C176.827 186.54 176.999 186.929 177.068 187.296L176.311 187.572V183.34H179.855V200.3C179.855 201.744 179.637 203.017 179.201 204.118C178.788 205.242 178.181 206.182 177.378 206.939C176.575 207.719 175.6 208.303 174.454 208.693C173.307 209.106 172.011 209.312 170.567 209.312ZM170.704 198.476C171.828 198.476 172.826 198.213 173.697 197.685C174.568 197.158 175.245 196.435 175.727 195.518C176.208 194.601 176.449 193.546 176.449 192.353C176.449 191.161 176.197 190.106 175.692 189.188C175.211 188.248 174.534 187.514 173.663 186.987C172.814 186.459 171.828 186.196 170.704 186.196C169.603 186.196 168.617 186.471 167.746 187.021C166.897 187.549 166.221 188.283 165.716 189.223C165.235 190.14 164.994 191.184 164.994 192.353C164.994 193.523 165.235 194.578 165.716 195.518C166.221 196.435 166.897 197.158 167.746 197.685C168.617 198.213 169.603 198.476 170.704 198.476ZM183.171 201.4V175.944H186.715V201.4H183.171ZM198.108 201.744C196.251 201.744 194.599 201.355 193.155 200.575C191.733 199.772 190.609 198.683 189.783 197.307C188.981 195.931 188.579 194.348 188.579 192.56C188.579 191.138 188.809 189.842 189.267 188.672C189.726 187.503 190.357 186.494 191.159 185.645C191.985 184.774 192.96 184.109 194.083 183.65C195.23 183.168 196.468 182.928 197.799 182.928C198.968 182.928 200.058 183.157 201.067 183.616C202.076 184.051 202.947 184.659 203.681 185.439C204.438 186.219 205.011 187.147 205.401 188.225C205.814 189.28 206.009 190.438 205.986 191.7L205.951 193.213H191.194L190.403 190.392H202.89L202.374 190.977V190.152C202.305 189.395 202.053 188.718 201.617 188.122C201.181 187.526 200.631 187.056 199.966 186.712C199.301 186.368 198.578 186.196 197.799 186.196C196.56 186.196 195.517 186.436 194.668 186.918C193.82 187.377 193.178 188.065 192.742 188.982C192.306 189.876 192.088 190.989 192.088 192.319C192.088 193.58 192.352 194.681 192.879 195.621C193.407 196.539 194.152 197.25 195.115 197.754C196.079 198.259 197.191 198.511 198.452 198.511C199.347 198.511 200.172 198.362 200.929 198.064C201.709 197.766 202.546 197.227 203.44 196.447L205.229 198.958C204.679 199.508 204.002 199.99 203.199 200.403C202.42 200.816 201.583 201.148 200.688 201.4C199.817 201.63 198.957 201.744 198.108 201.744ZM216.932 201.4V177.32H226.358C228.078 177.32 229.626 177.607 231.002 178.18C232.401 178.754 233.593 179.579 234.58 180.657C235.566 181.735 236.322 183.008 236.85 184.476C237.377 185.943 237.641 187.572 237.641 189.36C237.641 191.149 237.377 192.789 236.85 194.28C236.322 195.747 235.566 197.02 234.58 198.098C233.616 199.153 232.435 199.967 231.036 200.54C229.637 201.114 228.078 201.4 226.358 201.4H216.932ZM220.647 198.201L220.544 197.823H226.186C227.401 197.823 228.479 197.628 229.42 197.238C230.383 196.848 231.185 196.298 231.828 195.587C232.493 194.853 232.997 193.959 233.341 192.904C233.685 191.849 233.857 190.668 233.857 189.36C233.857 188.053 233.685 186.884 233.341 185.852C232.997 184.797 232.493 183.902 231.828 183.168C231.162 182.435 230.36 181.873 229.42 181.483C228.479 181.093 227.401 180.898 226.186 180.898H220.441L220.647 180.588V198.201ZM248.479 201.744C246.621 201.744 244.97 201.355 243.525 200.575C242.103 199.772 240.98 198.683 240.154 197.307C239.351 195.931 238.95 194.348 238.95 192.56C238.95 191.138 239.179 189.842 239.638 188.672C240.097 187.503 240.727 186.494 241.53 185.645C242.356 184.774 243.33 184.109 244.454 183.65C245.601 183.168 246.839 182.928 248.169 182.928C249.339 182.928 250.428 183.157 251.437 183.616C252.446 184.051 253.318 184.659 254.052 185.439C254.808 186.219 255.382 187.147 255.772 188.225C256.184 189.28 256.379 190.438 256.356 191.7L256.322 193.213H241.564L240.773 190.392H253.26L252.744 190.977V190.152C252.676 189.395 252.423 188.718 251.988 188.122C251.552 187.526 251.001 187.056 250.336 186.712C249.671 186.368 248.949 186.196 248.169 186.196C246.931 186.196 245.887 186.436 245.039 186.918C244.19 187.377 243.548 188.065 243.112 188.982C242.677 189.876 242.459 190.989 242.459 192.319C242.459 193.58 242.723 194.681 243.25 195.621C243.777 196.539 244.523 197.25 245.486 197.754C246.449 198.259 247.561 198.511 248.823 198.511C249.717 198.511 250.543 198.362 251.3 198.064C252.079 197.766 252.916 197.227 253.811 196.447L255.6 198.958C255.049 199.508 254.373 199.99 253.57 200.403C252.79 200.816 251.953 201.148 251.059 201.4C250.187 201.63 249.327 201.744 248.479 201.744ZM264.068 201.4L256.431 183.34H260.25L265.754 196.86L265.1 197.169L270.982 183.34H274.629L266.614 201.4H264.068ZM284.075 201.744C282.217 201.744 280.566 201.355 279.121 200.575C277.699 199.772 276.576 198.683 275.75 197.307C274.947 195.931 274.546 194.348 274.546 192.56C274.546 191.138 274.775 189.842 275.234 188.672C275.693 187.503 276.323 186.494 277.126 185.645C277.952 184.774 278.926 184.109 280.05 183.65C281.197 183.168 282.435 182.928 283.765 182.928C284.935 182.928 286.024 183.157 287.033 183.616C288.042 184.051 288.914 184.659 289.648 185.439C290.404 186.219 290.978 187.147 291.368 188.225C291.78 189.28 291.975 190.438 291.952 191.7L291.918 193.213H277.16L276.369 190.392H288.856L288.34 190.977V190.152C288.272 189.395 288.019 188.718 287.584 188.122C287.148 187.526 286.597 187.056 285.932 186.712C285.267 186.368 284.545 186.196 283.765 186.196C282.527 186.196 281.483 186.436 280.635 186.918C279.786 187.377 279.144 188.065 278.708 188.982C278.273 189.876 278.055 190.989 278.055 192.319C278.055 193.58 278.319 194.681 278.846 195.621C279.373 196.539 280.119 197.25 281.082 197.754C282.045 198.259 283.157 198.511 284.419 198.511C285.313 198.511 286.139 198.362 286.896 198.064C287.675 197.766 288.512 197.227 289.407 196.447L291.196 198.958C290.645 199.508 289.969 199.99 289.166 200.403C288.386 200.816 287.549 201.148 286.655 201.4C285.783 201.63 284.923 201.744 284.075 201.744ZM294.152 201.4V175.944H297.695V201.4H294.152ZM308.779 201.744C307.013 201.744 305.431 201.343 304.032 200.54C302.656 199.715 301.567 198.603 300.764 197.204C299.961 195.782 299.56 194.165 299.56 192.353C299.56 190.541 299.961 188.936 300.764 187.537C301.567 186.115 302.656 185.003 304.032 184.2C305.431 183.375 307.013 182.962 308.779 182.962C310.522 182.962 312.082 183.375 313.458 184.2C314.857 185.003 315.957 186.115 316.76 187.537C317.563 188.936 317.964 190.541 317.964 192.353C317.964 194.165 317.563 195.782 316.76 197.204C315.957 198.603 314.857 199.715 313.458 200.54C312.082 201.343 310.522 201.744 308.779 201.744ZM308.779 198.511C309.857 198.511 310.82 198.247 311.669 197.72C312.517 197.169 313.182 196.435 313.664 195.518C314.146 194.578 314.375 193.523 314.352 192.353C314.375 191.161 314.146 190.106 313.664 189.188C313.182 188.248 312.517 187.514 311.669 186.987C310.82 186.459 309.857 186.196 308.779 186.196C307.701 186.196 306.727 186.471 305.855 187.021C305.007 187.549 304.342 188.283 303.86 189.223C303.378 190.14 303.149 191.184 303.172 192.353C303.149 193.523 303.378 194.578 303.86 195.518C304.342 196.435 305.007 197.169 305.855 197.72C306.727 198.247 307.701 198.511 308.779 198.511ZM320.105 208.968V183.34H323.682V187.468L323.132 187.159C323.27 186.471 323.66 185.817 324.302 185.198C324.944 184.556 325.724 184.04 326.641 183.65C327.581 183.237 328.544 183.031 329.53 183.031C331.159 183.031 332.604 183.432 333.865 184.235C335.126 185.037 336.124 186.138 336.858 187.537C337.592 188.936 337.959 190.541 337.959 192.353C337.959 194.142 337.592 195.747 336.858 197.169C336.147 198.568 335.161 199.68 333.899 200.506C332.638 201.309 331.216 201.71 329.634 201.71C328.579 201.71 327.558 201.504 326.572 201.091C325.586 200.655 324.749 200.105 324.061 199.44C323.373 198.775 322.949 198.087 322.788 197.376L323.682 196.894V208.968H320.105ZM329.049 198.442C330.104 198.442 331.044 198.178 331.87 197.651C332.695 197.123 333.349 196.401 333.831 195.484C334.312 194.566 334.553 193.523 334.553 192.353C334.553 191.184 334.312 190.152 333.831 189.257C333.372 188.34 332.73 187.617 331.904 187.09C331.079 186.563 330.127 186.299 329.049 186.299C327.971 186.299 327.019 186.563 326.194 187.09C325.368 187.595 324.714 188.305 324.233 189.223C323.751 190.14 323.51 191.184 323.51 192.353C323.51 193.523 323.751 194.566 324.233 195.484C324.714 196.401 325.368 197.123 326.194 197.651C327.019 198.178 327.971 198.442 329.049 198.442ZM348.515 201.744C346.657 201.744 345.006 201.355 343.561 200.575C342.139 199.772 341.015 198.683 340.19 197.307C339.387 195.931 338.986 194.348 338.986 192.56C338.986 191.138 339.215 189.842 339.674 188.672C340.132 187.503 340.763 186.494 341.566 185.645C342.391 184.774 343.366 184.109 344.49 183.65C345.636 183.168 346.875 182.928 348.205 182.928C349.375 182.928 350.464 183.157 351.473 183.616C352.482 184.051 353.353 184.659 354.087 185.439C354.844 186.219 355.417 187.147 355.807 188.225C356.22 189.28 356.415 190.438 356.392 191.7L356.358 193.213H341.6L340.809 190.392H353.296L352.78 190.977V190.152C352.711 189.395 352.459 188.718 352.023 188.122C351.588 187.526 351.037 187.056 350.372 186.712C349.707 186.368 348.985 186.196 348.205 186.196C346.967 186.196 345.923 186.436 345.074 186.918C344.226 187.377 343.584 188.065 343.148 188.982C342.712 189.876 342.494 190.989 342.494 192.319C342.494 193.58 342.758 194.681 343.286 195.621C343.813 196.539 344.558 197.25 345.522 197.754C346.485 198.259 347.597 198.511 348.859 198.511C349.753 198.511 350.579 198.362 351.335 198.064C352.115 197.766 352.952 197.227 353.847 196.447L355.635 198.958C355.085 199.508 354.408 199.99 353.606 200.403C352.826 200.816 351.989 201.148 351.095 201.4C350.223 201.63 349.363 201.744 348.515 201.744ZM358.523 201.4V183.34H362.1V189.016L361.756 187.64C362.009 186.769 362.433 185.978 363.029 185.267C363.648 184.556 364.348 183.994 365.128 183.581C365.93 183.168 366.756 182.962 367.604 182.962C367.994 182.962 368.361 182.996 368.705 183.065C369.072 183.134 369.359 183.214 369.565 183.306L368.636 187.159C368.361 187.044 368.052 186.952 367.708 186.884C367.387 186.792 367.065 186.746 366.744 186.746C366.125 186.746 365.529 186.872 364.956 187.124C364.405 187.354 363.912 187.686 363.476 188.122C363.064 188.535 362.731 189.028 362.479 189.601C362.227 190.152 362.1 190.759 362.1 191.424V201.4H358.523ZM390.26 201.744C388.517 201.744 386.889 201.435 385.375 200.816C383.862 200.174 382.532 199.291 381.385 198.167C380.238 197.043 379.344 195.736 378.702 194.245C378.082 192.732 377.773 191.103 377.773 189.36C377.773 187.64 378.082 186.035 378.702 184.544C379.344 183.054 380.227 181.758 381.35 180.657C382.497 179.533 383.827 178.662 385.341 178.043C386.855 177.424 388.483 177.114 390.226 177.114C391.441 177.114 392.622 177.286 393.769 177.63C394.939 177.974 395.993 178.456 396.934 179.075C397.874 179.694 398.642 180.405 399.239 181.208L396.831 183.719C396.143 183.054 395.432 182.503 394.698 182.068C393.987 181.632 393.253 181.299 392.496 181.07C391.739 180.841 390.983 180.726 390.226 180.726C388.987 180.726 387.841 180.944 386.786 181.38C385.754 181.815 384.836 182.423 384.034 183.203C383.254 183.983 382.646 184.9 382.21 185.955C381.775 186.987 381.557 188.122 381.557 189.36C381.557 190.553 381.786 191.688 382.245 192.766C382.704 193.821 383.334 194.75 384.137 195.552C384.962 196.355 385.903 196.986 386.958 197.444C388.036 197.903 389.171 198.132 390.363 198.132C391.258 198.132 392.106 198.006 392.909 197.754C393.712 197.479 394.423 197.1 395.042 196.619C395.661 196.137 396.143 195.587 396.487 194.968C396.831 194.325 397.003 193.649 397.003 192.938V192.25L397.519 192.732H390.157V189.051H400.821C400.867 189.303 400.901 189.555 400.924 189.808C400.947 190.037 400.959 190.266 400.959 190.496C400.981 190.702 400.993 190.908 400.993 191.115C400.993 192.697 400.718 194.142 400.167 195.449C399.617 196.734 398.849 197.846 397.863 198.786C396.899 199.726 395.764 200.46 394.457 200.988C393.173 201.492 391.774 201.744 390.26 201.744ZM403.216 201.4V183.34H406.794V189.016L406.45 187.64C406.702 186.769 407.126 185.978 407.722 185.267C408.342 184.556 409.041 183.994 409.821 183.581C410.624 183.168 411.449 182.962 412.298 182.962C412.688 182.962 413.054 182.996 413.398 183.065C413.765 183.134 414.052 183.214 414.258 183.306L413.33 187.159C413.054 187.044 412.745 186.952 412.401 186.884C412.08 186.792 411.759 186.746 411.438 186.746C410.818 186.746 410.222 186.872 409.649 187.124C409.098 187.354 408.605 187.686 408.17 188.122C407.757 188.535 407.424 189.028 407.172 189.601C406.92 190.152 406.794 190.759 406.794 191.424V201.4H403.216ZM422.716 201.744C420.95 201.744 419.368 201.343 417.969 200.54C416.593 199.715 415.503 198.603 414.701 197.204C413.898 195.782 413.497 194.165 413.497 192.353C413.497 190.541 413.898 188.936 414.701 187.537C415.503 186.115 416.593 185.003 417.969 184.2C419.368 183.375 420.95 182.962 422.716 182.962C424.459 182.962 426.018 183.375 427.394 184.2C428.793 185.003 429.894 186.115 430.697 187.537C431.5 188.936 431.901 190.541 431.901 192.353C431.901 194.165 431.5 195.782 430.697 197.204C429.894 198.603 428.793 199.715 427.394 200.54C426.018 201.343 424.459 201.744 422.716 201.744ZM422.716 198.511C423.794 198.511 424.757 198.247 425.606 197.72C426.454 197.169 427.119 196.435 427.601 195.518C428.082 194.578 428.312 193.523 428.289 192.353C428.312 191.161 428.082 190.106 427.601 189.188C427.119 188.248 426.454 187.514 425.606 186.987C424.757 186.459 423.794 186.196 422.716 186.196C421.638 186.196 420.664 186.471 419.792 187.021C418.944 187.549 418.278 188.283 417.797 189.223C417.315 190.14 417.086 191.184 417.109 192.353C417.086 193.523 417.315 194.578 417.797 195.518C418.278 196.435 418.944 197.169 419.792 197.72C420.664 198.247 421.638 198.511 422.716 198.511ZM440.371 201.744C439.087 201.744 437.963 201.446 437 200.85C436.06 200.254 435.326 199.417 434.799 198.339C434.294 197.261 434.042 195.977 434.042 194.486V183.34H437.585V193.523C437.585 194.578 437.745 195.495 438.067 196.275C438.411 197.032 438.892 197.616 439.511 198.029C440.153 198.442 440.922 198.648 441.816 198.648C442.481 198.648 443.089 198.545 443.639 198.339C444.19 198.11 444.66 197.8 445.05 197.41C445.463 197.02 445.784 196.55 446.013 196C446.242 195.449 446.357 194.853 446.357 194.211V183.34H449.9V201.4H446.357V197.616L446.976 197.204C446.701 198.052 446.231 198.82 445.566 199.508C444.924 200.196 444.155 200.747 443.261 201.16C442.367 201.55 441.403 201.744 440.371 201.744ZM453.15 208.968V183.34H456.728V187.468L456.177 187.159C456.315 186.471 456.705 185.817 457.347 185.198C457.989 184.556 458.769 184.04 459.686 183.65C460.626 183.237 461.589 183.031 462.576 183.031C464.204 183.031 465.649 183.432 466.91 184.235C468.171 185.037 469.169 186.138 469.903 187.537C470.637 188.936 471.004 190.541 471.004 192.353C471.004 194.142 470.637 195.747 469.903 197.169C469.192 198.568 468.206 199.68 466.944 200.506C465.683 201.309 464.261 201.71 462.679 201.71C461.624 201.71 460.603 201.504 459.617 201.091C458.631 200.655 457.794 200.105 457.106 199.44C456.418 198.775 455.994 198.087 455.833 197.376L456.728 196.894V208.968H453.15ZM462.094 198.442C463.149 198.442 464.089 198.178 464.915 197.651C465.74 197.123 466.394 196.401 466.876 195.484C467.357 194.566 467.598 193.523 467.598 192.353C467.598 191.184 467.357 190.152 466.876 189.257C466.417 188.34 465.775 187.617 464.949 187.09C464.124 186.563 463.172 186.299 462.094 186.299C461.016 186.299 460.064 186.563 459.239 187.09C458.413 187.595 457.76 188.305 457.278 189.223C456.796 190.14 456.556 191.184 456.556 192.353C456.556 193.523 456.796 194.566 457.278 195.484C457.76 196.401 458.413 197.123 459.239 197.651C460.064 198.178 461.016 198.442 462.094 198.442ZM479.152 201.744C477.638 201.744 476.273 201.481 475.058 200.953C473.842 200.426 472.833 199.646 472.031 198.614L474.439 196.55C475.127 197.353 475.872 197.938 476.675 198.304C477.5 198.648 478.429 198.82 479.461 198.82C479.874 198.82 480.252 198.775 480.596 198.683C480.963 198.568 481.273 198.408 481.525 198.201C481.8 197.995 482.007 197.754 482.144 197.479C482.282 197.181 482.351 196.86 482.351 196.516C482.351 195.919 482.133 195.438 481.697 195.071C481.468 194.91 481.101 194.738 480.596 194.555C480.115 194.348 479.484 194.142 478.704 193.936C477.374 193.592 476.285 193.202 475.436 192.766C474.588 192.33 473.934 191.837 473.476 191.287C473.132 190.851 472.879 190.381 472.719 189.876C472.558 189.349 472.478 188.776 472.478 188.156C472.478 187.4 472.638 186.712 472.96 186.092C473.304 185.45 473.762 184.9 474.336 184.441C474.932 183.96 475.62 183.593 476.4 183.34C477.202 183.088 478.051 182.962 478.945 182.962C479.794 182.962 480.631 183.077 481.456 183.306C482.305 183.535 483.085 183.868 483.796 184.304C484.506 184.739 485.103 185.255 485.584 185.852L483.555 188.088C483.119 187.652 482.637 187.273 482.11 186.952C481.605 186.608 481.089 186.345 480.562 186.161C480.034 185.978 479.553 185.886 479.117 185.886C478.636 185.886 478.2 185.932 477.81 186.024C477.42 186.115 477.088 186.253 476.812 186.436C476.56 186.62 476.365 186.849 476.228 187.124C476.09 187.4 476.021 187.709 476.021 188.053C476.044 188.351 476.113 188.638 476.228 188.913C476.365 189.165 476.549 189.383 476.778 189.567C477.03 189.75 477.409 189.945 477.913 190.152C478.418 190.358 479.06 190.553 479.84 190.736C480.986 191.035 481.926 191.367 482.66 191.734C483.417 192.078 484.013 192.479 484.449 192.938C484.908 193.374 485.229 193.878 485.412 194.452C485.596 195.025 485.688 195.667 485.688 196.378C485.688 197.41 485.389 198.339 484.793 199.164C484.22 199.967 483.44 200.598 482.454 201.056C481.468 201.515 480.367 201.744 479.152 201.744Z" fill="#666666"/>
<path d="M200.195 226.56C199.405 226.56 198.675 226.416 198.003 226.128C197.341 225.84 196.76 225.44 196.259 224.928C195.768 224.406 195.384 223.798 195.107 223.104C194.84 222.4 194.707 221.632 194.707 220.8C194.707 219.968 194.84 219.206 195.107 218.512C195.384 217.808 195.768 217.2 196.259 216.688C196.76 216.166 197.341 215.76 198.003 215.472C198.675 215.184 199.405 215.04 200.195 215.04C200.984 215.04 201.709 215.184 202.371 215.472C203.043 215.76 203.624 216.166 204.115 216.688C204.616 217.211 205 217.824 205.267 218.528C205.544 219.222 205.683 219.979 205.683 220.8C205.683 221.622 205.544 222.384 205.267 223.088C205 223.782 204.616 224.39 204.115 224.912C203.624 225.435 203.043 225.84 202.371 226.128C201.709 226.416 200.984 226.56 200.195 226.56ZM200.195 224.88C200.739 224.88 201.235 224.779 201.683 224.576C202.141 224.374 202.536 224.091 202.867 223.728C203.197 223.355 203.453 222.923 203.635 222.432C203.827 221.931 203.923 221.387 203.923 220.8C203.923 220.214 203.827 219.675 203.635 219.184C203.453 218.683 203.197 218.251 202.867 217.888C202.536 217.515 202.141 217.227 201.683 217.024C201.235 216.822 200.739 216.72 200.195 216.72C199.651 216.72 199.149 216.822 198.691 217.024C198.243 217.227 197.848 217.51 197.507 217.872C197.176 218.235 196.92 218.667 196.739 219.168C196.557 219.659 196.467 220.203 196.467 220.8C196.467 221.387 196.557 221.931 196.739 222.432C196.92 222.934 197.176 223.366 197.507 223.728C197.848 224.091 198.243 224.374 198.691 224.576C199.149 224.779 199.651 224.88 200.195 224.88ZM206.806 226.4V218H208.454V219.728L208.166 219.92C208.273 219.547 208.481 219.206 208.79 218.896C209.1 218.576 209.468 218.32 209.894 218.128C210.321 217.926 210.758 217.824 211.206 217.824C211.846 217.824 212.38 217.952 212.806 218.208C213.233 218.454 213.553 218.832 213.766 219.344C213.98 219.856 214.086 220.502 214.086 221.28V226.4H212.438V221.392C212.438 220.912 212.374 220.518 212.246 220.208C212.118 219.888 211.921 219.659 211.654 219.52C211.388 219.371 211.057 219.307 210.662 219.328C210.342 219.328 210.049 219.382 209.782 219.488C209.516 219.584 209.281 219.723 209.078 219.904C208.886 220.086 208.732 220.299 208.614 220.544C208.508 220.779 208.454 221.035 208.454 221.312V226.4H207.638C207.5 226.4 207.361 226.4 207.222 226.4C207.084 226.4 206.945 226.4 206.806 226.4ZM224.167 226.56C223.388 226.56 222.673 226.422 222.022 226.144C221.372 225.867 220.806 225.472 220.326 224.96C219.846 224.438 219.473 223.824 219.206 223.12C218.95 222.416 218.822 221.643 218.822 220.8C218.822 220 218.961 219.259 219.238 218.576C219.526 217.883 219.921 217.275 220.422 216.752C220.924 216.23 221.505 215.824 222.166 215.536C222.828 215.248 223.543 215.104 224.311 215.104C224.855 215.104 225.383 215.19 225.895 215.36C226.417 215.52 226.887 215.75 227.303 216.048C227.729 216.336 228.076 216.667 228.343 217.04L227.191 218.24C226.881 217.931 226.567 217.675 226.247 217.472C225.937 217.259 225.617 217.099 225.287 216.992C224.967 216.886 224.641 216.832 224.311 216.832C223.788 216.832 223.297 216.934 222.839 217.136C222.391 217.328 221.996 217.6 221.654 217.952C221.324 218.304 221.062 218.726 220.87 219.216C220.678 219.696 220.582 220.224 220.582 220.8C220.582 221.408 220.673 221.963 220.854 222.464C221.046 222.955 221.313 223.376 221.654 223.728C221.996 224.08 222.401 224.352 222.871 224.544C223.351 224.726 223.879 224.816 224.455 224.816C224.807 224.816 225.153 224.768 225.495 224.672C225.836 224.576 226.156 224.438 226.455 224.256C226.753 224.075 227.025 223.862 227.271 223.616L228.135 225.024C227.889 225.312 227.553 225.574 227.127 225.808C226.711 226.043 226.241 226.23 225.719 226.368C225.207 226.496 224.689 226.56 224.167 226.56ZM232.498 226.56C231.805 226.56 231.17 226.368 230.594 225.984C230.029 225.6 229.575 225.078 229.234 224.416C228.893 223.755 228.722 223.008 228.722 222.176C228.722 221.334 228.893 220.587 229.234 219.936C229.586 219.275 230.055 218.758 230.642 218.384C231.239 218.011 231.906 217.824 232.642 217.824C233.079 217.824 233.479 217.888 233.842 218.016C234.205 218.144 234.519 218.326 234.786 218.56C235.063 218.784 235.287 219.046 235.458 219.344C235.639 219.643 235.751 219.963 235.794 220.304L235.426 220.176V218H237.09V226.4H235.426V224.4L235.81 224.288C235.746 224.576 235.613 224.859 235.41 225.136C235.218 225.403 234.967 225.643 234.658 225.856C234.359 226.07 234.023 226.24 233.65 226.368C233.287 226.496 232.903 226.56 232.498 226.56ZM232.93 225.04C233.431 225.04 233.874 224.918 234.258 224.672C234.642 224.427 234.941 224.091 235.154 223.664C235.378 223.227 235.49 222.731 235.49 222.176C235.49 221.632 235.378 221.147 235.154 220.72C234.941 220.294 234.642 219.958 234.258 219.712C233.874 219.467 233.431 219.344 232.93 219.344C232.439 219.344 232.002 219.467 231.618 219.712C231.245 219.958 230.946 220.294 230.722 220.72C230.509 221.147 230.402 221.632 230.402 222.176C230.402 222.731 230.509 223.227 230.722 223.664C230.946 224.091 231.245 224.427 231.618 224.672C232.002 224.918 232.439 225.04 232.93 225.04ZM238.559 226.4V218H240.223V219.792L239.919 219.984C240.004 219.707 240.138 219.44 240.319 219.184C240.511 218.928 240.74 218.704 241.007 218.512C241.284 218.31 241.578 218.15 241.887 218.032C242.207 217.915 242.532 217.856 242.863 217.856C243.343 217.856 243.764 217.936 244.127 218.096C244.49 218.256 244.788 218.496 245.023 218.816C245.258 219.136 245.428 219.536 245.535 220.016L245.279 219.952L245.391 219.68C245.508 219.435 245.668 219.206 245.871 218.992C246.084 218.768 246.324 218.571 246.591 218.4C246.858 218.23 247.14 218.096 247.439 218C247.738 217.904 248.031 217.856 248.319 217.856C248.948 217.856 249.466 217.984 249.871 218.24C250.287 218.496 250.596 218.886 250.799 219.408C251.012 219.931 251.119 220.582 251.119 221.36V226.4H249.455V221.456C249.455 220.976 249.391 220.587 249.263 220.288C249.146 219.979 248.964 219.75 248.719 219.6C248.474 219.451 248.159 219.376 247.775 219.376C247.476 219.376 247.194 219.43 246.927 219.536C246.671 219.632 246.447 219.771 246.255 219.952C246.063 220.134 245.914 220.347 245.807 220.592C245.7 220.827 245.647 221.088 245.647 221.376V226.4H243.983V221.424C243.983 220.987 243.919 220.619 243.791 220.32C243.663 220.011 243.476 219.776 243.231 219.616C242.986 219.456 242.687 219.376 242.335 219.376C242.036 219.376 241.759 219.43 241.503 219.536C241.247 219.632 241.023 219.771 240.831 219.952C240.639 220.123 240.49 220.331 240.383 220.576C240.276 220.811 240.223 221.067 240.223 221.344V226.4H238.559ZM252.525 229.92V218H254.189V219.92L253.933 219.776C253.997 219.456 254.179 219.152 254.477 218.864C254.776 218.566 255.139 218.326 255.565 218.144C256.003 217.952 256.451 217.856 256.909 217.856C257.667 217.856 258.339 218.043 258.925 218.416C259.512 218.79 259.976 219.302 260.317 219.952C260.659 220.603 260.829 221.35 260.829 222.192C260.829 223.024 260.659 223.771 260.317 224.432C259.987 225.083 259.528 225.6 258.941 225.984C258.355 226.358 257.693 226.544 256.957 226.544C256.467 226.544 255.992 226.448 255.533 226.256C255.075 226.054 254.685 225.798 254.365 225.488C254.045 225.179 253.848 224.859 253.773 224.528L254.189 224.304V229.92H252.525ZM256.685 225.024C257.176 225.024 257.613 224.902 257.997 224.656C258.381 224.411 258.685 224.075 258.909 223.648C259.133 223.222 259.245 222.736 259.245 222.192C259.245 221.648 259.133 221.168 258.909 220.752C258.696 220.326 258.397 219.99 258.013 219.744C257.629 219.499 257.187 219.376 256.685 219.376C256.184 219.376 255.741 219.499 255.357 219.744C254.973 219.979 254.669 220.31 254.445 220.736C254.221 221.163 254.109 221.648 254.109 222.192C254.109 222.736 254.221 223.222 254.445 223.648C254.669 224.075 254.973 224.411 255.357 224.656C255.741 224.902 256.184 225.024 256.685 225.024ZM264.763 226.56C264.166 226.56 263.643 226.422 263.195 226.144C262.758 225.867 262.416 225.478 262.171 224.976C261.936 224.475 261.819 223.878 261.819 223.184V218H263.467V222.736C263.467 223.227 263.542 223.654 263.691 224.016C263.851 224.368 264.075 224.64 264.363 224.832C264.662 225.024 265.019 225.12 265.435 225.12C265.744 225.12 266.027 225.072 266.283 224.976C266.539 224.87 266.758 224.726 266.939 224.544C267.131 224.363 267.28 224.144 267.387 223.888C267.494 223.632 267.547 223.355 267.547 223.056V218H269.195V226.4H267.547V224.64L267.835 224.448C267.707 224.843 267.488 225.2 267.179 225.52C266.88 225.84 266.523 226.096 266.107 226.288C265.691 226.47 265.243 226.56 264.763 226.56ZM273.507 226.56C272.803 226.56 272.168 226.438 271.603 226.192C271.037 225.947 270.568 225.584 270.195 225.104L271.315 224.144C271.635 224.518 271.981 224.79 272.355 224.96C272.739 225.12 273.171 225.2 273.651 225.2C273.843 225.2 274.019 225.179 274.179 225.136C274.349 225.083 274.493 225.008 274.611 224.912C274.739 224.816 274.835 224.704 274.899 224.576C274.963 224.438 274.995 224.288 274.995 224.128C274.995 223.851 274.893 223.627 274.691 223.456C274.584 223.382 274.413 223.302 274.179 223.216C273.955 223.12 273.661 223.024 273.299 222.928C272.68 222.768 272.173 222.587 271.779 222.384C271.384 222.182 271.08 221.952 270.867 221.696C270.707 221.494 270.589 221.275 270.515 221.04C270.44 220.795 270.403 220.528 270.403 220.24C270.403 219.888 270.477 219.568 270.627 219.28C270.787 218.982 271 218.726 271.267 218.512C271.544 218.288 271.864 218.118 272.227 218C272.6 217.883 272.995 217.824 273.411 217.824C273.805 217.824 274.195 217.878 274.579 217.984C274.973 218.091 275.336 218.246 275.667 218.448C275.997 218.651 276.275 218.891 276.499 219.168L275.555 220.208C275.352 220.006 275.128 219.83 274.883 219.68C274.648 219.52 274.408 219.398 274.163 219.312C273.917 219.227 273.693 219.184 273.491 219.184C273.267 219.184 273.064 219.206 272.883 219.248C272.701 219.291 272.547 219.355 272.419 219.44C272.301 219.526 272.211 219.632 272.147 219.76C272.083 219.888 272.051 220.032 272.051 220.192C272.061 220.331 272.093 220.464 272.147 220.592C272.211 220.71 272.296 220.811 272.403 220.896C272.52 220.982 272.696 221.072 272.931 221.168C273.165 221.264 273.464 221.355 273.827 221.44C274.36 221.579 274.797 221.734 275.139 221.904C275.491 222.064 275.768 222.251 275.971 222.464C276.184 222.667 276.333 222.902 276.419 223.168C276.504 223.435 276.547 223.734 276.547 224.064C276.547 224.544 276.408 224.976 276.131 225.36C275.864 225.734 275.501 226.027 275.043 226.24C274.584 226.454 274.072 226.56 273.507 226.56Z" fill="#609CFF"/>
<path d="M282.863 222.944C282.469 222.944 282.106 222.848 281.775 222.656C281.445 222.464 281.178 222.203 280.975 221.872C280.783 221.542 280.687 221.179 280.687 220.784C280.687 220.379 280.783 220.011 280.975 219.68C281.167 219.35 281.429 219.088 281.759 218.896C282.09 218.694 282.458 218.592 282.863 218.592C283.269 218.592 283.637 218.694 283.967 218.896C284.298 219.088 284.559 219.35 284.751 219.68C284.954 220.011 285.055 220.379 285.055 220.784C285.055 221.179 284.954 221.542 284.751 221.872C284.559 222.203 284.298 222.464 283.967 222.656C283.637 222.848 283.269 222.944 282.863 222.944ZM295.087 226.56C294.276 226.56 293.519 226.416 292.815 226.128C292.111 225.83 291.492 225.419 290.959 224.896C290.426 224.374 290.01 223.766 289.711 223.072C289.423 222.368 289.279 221.611 289.279 220.8C289.279 220 289.423 219.254 289.711 218.56C290.01 217.867 290.42 217.264 290.943 216.752C291.476 216.23 292.095 215.824 292.799 215.536C293.503 215.248 294.26 215.104 295.071 215.104C295.636 215.104 296.186 215.184 296.719 215.344C297.263 215.504 297.754 215.728 298.191 216.016C298.628 216.304 298.986 216.635 299.263 217.008L298.143 218.176C297.823 217.867 297.492 217.611 297.151 217.408C296.82 217.206 296.479 217.051 296.127 216.944C295.775 216.838 295.423 216.784 295.071 216.784C294.495 216.784 293.962 216.886 293.471 217.088C292.991 217.291 292.564 217.574 292.191 217.936C291.828 218.299 291.546 218.726 291.343 219.216C291.14 219.696 291.039 220.224 291.039 220.8C291.039 221.355 291.146 221.883 291.359 222.384C291.572 222.875 291.866 223.307 292.239 223.68C292.623 224.054 293.06 224.347 293.551 224.56C294.052 224.774 294.58 224.88 295.135 224.88C295.551 224.88 295.946 224.822 296.319 224.704C296.692 224.576 297.023 224.4 297.311 224.176C297.599 223.952 297.823 223.696 297.983 223.408C298.143 223.11 298.223 222.795 298.223 222.464V222.144L298.463 222.368H295.039V220.656H299.999C300.02 220.774 300.036 220.891 300.047 221.008C300.058 221.115 300.063 221.222 300.063 221.328C300.074 221.424 300.079 221.52 300.079 221.616C300.079 222.352 299.951 223.024 299.695 223.632C299.439 224.23 299.082 224.747 298.623 225.184C298.175 225.622 297.647 225.963 297.039 226.208C296.442 226.443 295.791 226.56 295.087 226.56ZM301.529 226.4V215.2H308.585V216.864H303.257V224.736H308.585V226.4H301.529ZM302.313 221.488V219.824H307.705V221.488H302.313ZM314.013 226.56C313.405 226.56 312.84 226.48 312.317 226.32C311.805 226.16 311.336 225.92 310.909 225.6C310.493 225.27 310.12 224.864 309.789 224.384L310.973 223.024C311.496 223.771 311.997 224.288 312.477 224.576C312.957 224.864 313.528 225.008 314.189 225.008C314.594 225.008 314.962 224.944 315.293 224.816C315.624 224.688 315.885 224.512 316.077 224.288C316.269 224.064 316.365 223.808 316.365 223.52C316.365 223.328 316.333 223.147 316.269 222.976C316.205 222.806 316.104 222.651 315.965 222.512C315.837 222.374 315.666 222.246 315.453 222.128C315.25 222.011 315.01 221.91 314.733 221.824C314.456 221.728 314.136 221.648 313.773 221.584C313.197 221.467 312.696 221.312 312.269 221.12C311.842 220.928 311.485 220.688 311.197 220.4C310.909 220.112 310.696 219.787 310.557 219.424C310.418 219.051 310.349 218.635 310.349 218.176C310.349 217.728 310.445 217.312 310.637 216.928C310.84 216.544 311.112 216.214 311.453 215.936C311.805 215.648 312.216 215.43 312.685 215.28C313.154 215.12 313.661 215.04 314.205 215.04C314.781 215.04 315.309 215.115 315.789 215.264C316.269 215.414 316.696 215.638 317.069 215.936C317.442 216.224 317.752 216.582 317.997 217.008L316.781 218.208C316.568 217.856 316.328 217.563 316.061 217.328C315.794 217.083 315.501 216.902 315.181 216.784C314.861 216.656 314.52 216.592 314.157 216.592C313.741 216.592 313.378 216.656 313.069 216.784C312.76 216.912 312.514 217.094 312.333 217.328C312.162 217.552 312.077 217.819 312.077 218.128C312.077 218.352 312.12 218.56 312.205 218.752C312.29 218.934 312.418 219.099 312.589 219.248C312.77 219.387 313.01 219.515 313.309 219.632C313.608 219.739 313.965 219.835 314.381 219.92C314.968 220.048 315.49 220.214 315.949 220.416C316.408 220.608 316.797 220.838 317.117 221.104C317.437 221.371 317.677 221.67 317.837 222C318.008 222.331 318.093 222.688 318.093 223.072C318.093 223.787 317.928 224.406 317.597 224.928C317.266 225.451 316.797 225.856 316.189 226.144C315.581 226.422 314.856 226.56 314.013 226.56ZM319.022 222.64V221.008H323.63V222.64H319.022ZM329.782 226.56C329.004 226.56 328.289 226.422 327.638 226.144C326.988 225.867 326.422 225.472 325.942 224.96C325.462 224.438 325.089 223.824 324.822 223.12C324.566 222.416 324.438 221.643 324.438 220.8C324.438 220 324.577 219.259 324.854 218.576C325.142 217.883 325.537 217.275 326.038 216.752C326.54 216.23 327.121 215.824 327.782 215.536C328.444 215.248 329.158 215.104 329.926 215.104C330.47 215.104 330.998 215.19 331.51 215.36C332.033 215.52 332.502 215.75 332.918 216.048C333.345 216.336 333.692 216.667 333.958 217.04L332.806 218.24C332.497 217.931 332.182 217.675 331.862 217.472C331.553 217.259 331.233 217.099 330.902 216.992C330.582 216.886 330.257 216.832 329.926 216.832C329.404 216.832 328.913 216.934 328.454 217.136C328.006 217.328 327.612 217.6 327.27 217.952C326.94 218.304 326.678 218.726 326.486 219.216C326.294 219.696 326.198 220.224 326.198 220.8C326.198 221.408 326.289 221.963 326.47 222.464C326.662 222.955 326.929 223.376 327.27 223.728C327.612 224.08 328.017 224.352 328.486 224.544C328.966 224.726 329.494 224.816 330.07 224.816C330.422 224.816 330.769 224.768 331.11 224.672C331.452 224.576 331.772 224.438 332.07 224.256C332.369 224.075 332.641 223.862 332.886 223.616L333.75 225.024C333.505 225.312 333.169 225.574 332.742 225.808C332.326 226.043 331.857 226.23 331.334 226.368C330.822 226.496 330.305 226.56 329.782 226.56ZM339.986 226.56C339.196 226.56 338.466 226.416 337.794 226.128C337.132 225.84 336.551 225.44 336.05 224.928C335.559 224.406 335.175 223.798 334.898 223.104C334.631 222.4 334.498 221.632 334.498 220.8C334.498 219.968 334.631 219.206 334.898 218.512C335.175 217.808 335.559 217.2 336.05 216.688C336.551 216.166 337.132 215.76 337.794 215.472C338.466 215.184 339.196 215.04 339.986 215.04C340.775 215.04 341.5 215.184 342.162 215.472C342.834 215.76 343.415 216.166 343.906 216.688C344.407 217.211 344.791 217.824 345.058 218.528C345.335 219.222 345.474 219.979 345.474 220.8C345.474 221.622 345.335 222.384 345.058 223.088C344.791 223.782 344.407 224.39 343.906 224.912C343.415 225.435 342.834 225.84 342.162 226.128C341.5 226.416 340.775 226.56 339.986 226.56ZM339.986 224.88C340.53 224.88 341.026 224.779 341.474 224.576C341.932 224.374 342.327 224.091 342.658 223.728C342.988 223.355 343.244 222.923 343.426 222.432C343.618 221.931 343.714 221.387 343.714 220.8C343.714 220.214 343.618 219.675 343.426 219.184C343.244 218.683 342.988 218.251 342.658 217.888C342.327 217.515 341.932 217.227 341.474 217.024C341.026 216.822 340.53 216.72 339.986 216.72C339.442 216.72 338.94 216.822 338.482 217.024C338.034 217.227 337.639 217.51 337.298 217.872C336.967 218.235 336.711 218.667 336.53 219.168C336.348 219.659 336.258 220.203 336.258 220.8C336.258 221.387 336.348 221.931 336.53 222.432C336.711 222.934 336.967 223.366 337.298 223.728C337.639 224.091 338.034 224.374 338.482 224.576C338.94 224.779 339.442 224.88 339.986 224.88ZM347.013 226.4V215.2H354.069V216.864H348.741V224.736H354.069V226.4H347.013ZM347.797 221.488V219.824H353.189V221.488H347.797ZM356.042 226.4V215.2H357.594L364.442 224.368L364.186 224.512C364.143 224.246 364.106 223.958 364.074 223.648C364.042 223.328 364.01 222.992 363.978 222.64C363.956 222.278 363.935 221.899 363.914 221.504C363.903 221.099 363.892 220.678 363.882 220.24C363.871 219.803 363.866 219.35 363.866 218.88V215.2H365.594V226.4H364.01L357.274 217.568L357.45 217.344C357.503 217.995 357.546 218.55 357.578 219.008C357.62 219.456 357.652 219.84 357.674 220.16C357.706 220.47 357.727 220.726 357.738 220.928C357.748 221.12 357.754 221.28 357.754 221.408C357.764 221.536 357.77 221.648 357.77 221.744V226.4H356.042ZM372.937 226.56C372.126 226.56 371.369 226.416 370.665 226.128C369.961 225.83 369.342 225.419 368.809 224.896C368.276 224.374 367.86 223.766 367.561 223.072C367.273 222.368 367.129 221.611 367.129 220.8C367.129 220 367.273 219.254 367.561 218.56C367.86 217.867 368.27 217.264 368.793 216.752C369.326 216.23 369.945 215.824 370.649 215.536C371.353 215.248 372.11 215.104 372.921 215.104C373.486 215.104 374.036 215.184 374.569 215.344C375.113 215.504 375.604 215.728 376.041 216.016C376.479 216.304 376.836 216.635 377.113 217.008L375.993 218.176C375.673 217.867 375.343 217.611 375.001 217.408C374.671 217.206 374.329 217.051 373.977 216.944C373.625 216.838 373.273 216.784 372.921 216.784C372.345 216.784 371.812 216.886 371.321 217.088C370.841 217.291 370.414 217.574 370.041 217.936C369.678 218.299 369.396 218.726 369.193 219.216C368.99 219.696 368.889 220.224 368.889 220.8C368.889 221.355 368.996 221.883 369.209 222.384C369.422 222.875 369.716 223.307 370.089 223.68C370.473 224.054 370.91 224.347 371.401 224.56C371.902 224.774 372.43 224.88 372.985 224.88C373.401 224.88 373.796 224.822 374.169 224.704C374.543 224.576 374.873 224.4 375.161 224.176C375.449 223.952 375.673 223.696 375.833 223.408C375.993 223.11 376.073 222.795 376.073 222.464V222.144L376.313 222.368H372.889V220.656H377.849C377.871 220.774 377.887 220.891 377.897 221.008C377.908 221.115 377.913 221.222 377.913 221.328C377.924 221.424 377.929 221.52 377.929 221.616C377.929 222.352 377.801 223.024 377.545 223.632C377.289 224.23 376.932 224.747 376.473 225.184C376.025 225.622 375.497 225.963 374.889 226.208C374.292 226.443 373.641 226.56 372.937 226.56ZM384.387 226.56C383.577 226.56 382.819 226.416 382.115 226.128C381.411 225.83 380.792 225.419 380.259 224.896C379.726 224.374 379.31 223.766 379.011 223.072C378.723 222.368 378.579 221.611 378.579 220.8C378.579 220 378.723 219.254 379.011 218.56C379.31 217.867 379.72 217.264 380.243 216.752C380.776 216.23 381.395 215.824 382.099 215.536C382.803 215.248 383.561 215.104 384.371 215.104C384.937 215.104 385.486 215.184 386.019 215.344C386.563 215.504 387.054 215.728 387.491 216.016C387.929 216.304 388.286 216.635 388.563 217.008L387.443 218.176C387.123 217.867 386.793 217.611 386.451 217.408C386.121 217.206 385.779 217.051 385.427 216.944C385.075 216.838 384.723 216.784 384.371 216.784C383.795 216.784 383.262 216.886 382.771 217.088C382.291 217.291 381.865 217.574 381.491 217.936C381.128 218.299 380.846 218.726 380.643 219.216C380.44 219.696 380.339 220.224 380.339 220.8C380.339 221.355 380.446 221.883 380.659 222.384C380.872 222.875 381.166 223.307 381.539 223.68C381.923 224.054 382.361 224.347 382.851 224.56C383.353 224.774 383.881 224.88 384.435 224.88C384.851 224.88 385.246 224.822 385.619 224.704C385.993 224.576 386.323 224.4 386.611 224.176C386.899 223.952 387.123 223.696 387.283 223.408C387.443 223.11 387.523 222.795 387.523 222.464V222.144L387.763 222.368H384.339V220.656H389.299C389.321 220.774 389.337 220.891 389.347 221.008C389.358 221.115 389.363 221.222 389.363 221.328C389.374 221.424 389.379 221.52 389.379 221.616C389.379 222.352 389.251 223.024 388.995 223.632C388.739 224.23 388.382 224.747 387.923 225.184C387.475 225.622 386.947 225.963 386.339 226.208C385.742 226.443 385.091 226.56 384.387 226.56Z" fill="#666666"/>
</svg>
