<svg width="584" height="311" viewBox="0 0 584 311" fill="none" xmlns="http://www.w3.org/2000/svg">
<rect x="-0.448398" y="1.63675" width="60.5213" height="19.1176" rx="9.5588" transform="matrix(-0.868809 0.495148 0.495144 0.868811 277.517 81.4367)" fill="#EF5350" stroke="#EF5350" stroke-width="2.40001"/>
<rect x="-0.448398" y="1.63675" width="60.5213" height="19.1176" rx="9.5588" transform="matrix(-0.868809 0.495148 0.495144 0.868811 347.862 101.988)" fill="#FBBC04" stroke="#FBBC04" stroke-width="2.40001"/>
<rect x="0.448398" y="1.63675" width="60.5213" height="19.1176" rx="9.5588" transform="matrix(0.868809 0.495148 -0.495144 0.868811 236.022 101.543)" fill="#4285F4" stroke="#4285F4" stroke-width="2.40001"/>
<path d="M340.757 124.48L304.785 103.979C300.199 101.365 298.599 95.5277 301.213 90.9411C303.827 86.3545 309.665 84.7553 314.251 87.3693L350.223 107.87C354.81 110.484 356.409 116.321 353.795 120.908C351.181 125.495 345.344 127.094 340.757 124.48Z" fill="#4CAF50" stroke="#4CAF50" stroke-width="2.40001"/>
<path d="M110.638 201.744C108.895 201.744 107.267 201.435 105.754 200.816C104.24 200.173 102.91 199.291 101.763 198.167C100.617 197.043 99.7221 195.736 99.08 194.245C98.4608 192.732 98.1512 191.103 98.1512 189.36C98.1512 187.64 98.4608 186.035 99.08 184.544C99.7221 183.054 100.605 181.758 101.729 180.657C102.875 179.533 104.206 178.662 105.719 178.043C107.233 177.424 108.861 177.114 110.604 177.114C111.82 177.114 113.001 177.286 114.147 177.63C115.317 177.974 116.372 178.456 117.312 179.075C118.252 179.694 119.021 180.405 119.617 181.208L117.209 183.719C116.521 183.054 115.81 182.503 115.076 182.068C114.365 181.632 113.631 181.299 112.874 181.07C112.118 180.841 111.361 180.726 110.604 180.726C109.366 180.726 108.219 180.944 107.164 181.38C106.132 181.815 105.215 182.423 104.412 183.203C103.632 183.982 103.025 184.9 102.589 185.955C102.153 186.987 101.935 188.122 101.935 189.36C101.935 190.553 102.165 191.688 102.623 192.766C103.082 193.821 103.713 194.75 104.515 195.552C105.341 196.355 106.281 196.986 107.336 197.444C108.414 197.903 109.549 198.132 110.742 198.132C111.636 198.132 112.485 198.006 113.287 197.754C114.09 197.479 114.801 197.1 115.42 196.619C116.039 196.137 116.521 195.587 116.865 194.968C117.209 194.325 117.381 193.649 117.381 192.938V192.25L117.897 192.732H110.535V189.051H121.199C121.245 189.303 121.28 189.555 121.302 189.808C121.325 190.037 121.337 190.266 121.337 190.496C121.36 190.702 121.371 190.908 121.371 191.115C121.371 192.697 121.096 194.142 120.546 195.449C119.995 196.733 119.227 197.846 118.241 198.786C117.278 199.726 116.142 200.46 114.835 200.988C113.551 201.492 112.152 201.744 110.638 201.744ZM131.713 201.744C129.947 201.744 128.365 201.343 126.966 200.54C125.59 199.715 124.5 198.603 123.698 197.204C122.895 195.782 122.494 194.165 122.494 192.353C122.494 190.541 122.895 188.936 123.698 187.537C124.5 186.115 125.59 185.003 126.966 184.2C128.365 183.375 129.947 182.962 131.713 182.962C133.456 182.962 135.015 183.375 136.391 184.2C137.79 185.003 138.891 186.115 139.694 187.537C140.496 188.936 140.898 190.541 140.898 192.353C140.898 194.165 140.496 195.782 139.694 197.204C138.891 198.603 137.79 199.715 136.391 200.54C135.015 201.343 133.456 201.744 131.713 201.744ZM131.713 198.511C132.791 198.511 133.754 198.247 134.602 197.72C135.451 197.169 136.116 196.435 136.598 195.518C137.079 194.578 137.309 193.523 137.286 192.353C137.309 191.161 137.079 190.106 136.598 189.188C136.116 188.248 135.451 187.514 134.602 186.987C133.754 186.459 132.791 186.196 131.713 186.196C130.635 186.196 129.66 186.471 128.789 187.021C127.94 187.549 127.275 188.282 126.794 189.223C126.312 190.14 126.083 191.184 126.106 192.353C126.083 193.523 126.312 194.578 126.794 195.518C127.275 196.435 127.94 197.169 128.789 197.72C129.66 198.247 130.635 198.511 131.713 198.511ZM151.157 201.744C149.391 201.744 147.809 201.343 146.41 200.54C145.034 199.715 143.944 198.603 143.142 197.204C142.339 195.782 141.938 194.165 141.938 192.353C141.938 190.541 142.339 188.936 143.142 187.537C143.944 186.115 145.034 185.003 146.41 184.2C147.809 183.375 149.391 182.962 151.157 182.962C152.9 182.962 154.459 183.375 155.835 184.2C157.234 185.003 158.335 186.115 159.138 187.537C159.94 188.936 160.342 190.541 160.342 192.353C160.342 194.165 159.94 195.782 159.138 197.204C158.335 198.603 157.234 199.715 155.835 200.54C154.459 201.343 152.9 201.744 151.157 201.744ZM151.157 198.511C152.235 198.511 153.198 198.247 154.047 197.72C154.895 197.169 155.56 196.435 156.042 195.518C156.523 194.578 156.753 193.523 156.73 192.353C156.753 191.161 156.523 190.106 156.042 189.188C155.56 188.248 154.895 187.514 154.047 186.987C153.198 186.459 152.235 186.196 151.157 186.196C150.079 186.196 149.104 186.471 148.233 187.021C147.384 187.549 146.719 188.282 146.238 189.223C145.756 190.14 145.527 191.184 145.55 192.353C145.527 193.523 145.756 194.578 146.238 195.518C146.719 196.435 147.384 197.169 148.233 197.72C149.104 198.247 150.079 198.511 151.157 198.511ZM170.567 209.312C169.282 209.312 167.998 209.106 166.714 208.693C165.452 208.303 164.432 207.787 163.652 207.145L164.959 204.393C165.418 204.737 165.957 205.035 166.576 205.288C167.195 205.563 167.849 205.769 168.537 205.907C169.225 206.067 169.902 206.148 170.567 206.148C171.828 206.148 172.883 205.941 173.731 205.528C174.58 205.116 175.222 204.508 175.658 203.705C176.094 202.903 176.311 201.905 176.311 200.712V197.238L176.69 197.479C176.575 198.19 176.197 198.878 175.555 199.543C174.935 200.185 174.156 200.712 173.215 201.125C172.275 201.538 171.312 201.744 170.326 201.744C168.606 201.744 167.069 201.343 165.716 200.54C164.386 199.715 163.331 198.603 162.551 197.204C161.772 195.782 161.382 194.165 161.382 192.353C161.382 190.541 161.76 188.936 162.517 187.537C163.297 186.115 164.352 185.003 165.682 184.2C167.035 183.375 168.548 182.962 170.223 182.962C170.911 182.962 171.576 183.054 172.218 183.237C172.86 183.398 173.456 183.638 174.007 183.96C174.557 184.258 175.05 184.59 175.486 184.957C175.922 185.324 176.277 185.714 176.552 186.127C176.827 186.54 176.999 186.929 177.068 187.296L176.311 187.572V183.34H179.855V200.3C179.855 201.744 179.637 203.017 179.201 204.118C178.788 205.242 178.181 206.182 177.378 206.939C176.575 207.719 175.6 208.303 174.454 208.693C173.307 209.106 172.011 209.312 170.567 209.312ZM170.704 198.476C171.828 198.476 172.826 198.213 173.697 197.685C174.568 197.158 175.245 196.435 175.727 195.518C176.208 194.601 176.449 193.546 176.449 192.353C176.449 191.161 176.197 190.106 175.692 189.188C175.211 188.248 174.534 187.514 173.663 186.987C172.814 186.459 171.828 186.196 170.704 186.196C169.603 186.196 168.617 186.471 167.746 187.021C166.897 187.549 166.221 188.282 165.716 189.223C165.235 190.14 164.994 191.184 164.994 192.353C164.994 193.523 165.235 194.578 165.716 195.518C166.221 196.435 166.897 197.158 167.746 197.685C168.617 198.213 169.603 198.476 170.704 198.476ZM183.171 201.4V175.944H186.715V201.4H183.171ZM198.108 201.744C196.251 201.744 194.599 201.355 193.155 200.575C191.733 199.772 190.609 198.683 189.783 197.307C188.981 195.931 188.579 194.348 188.579 192.56C188.579 191.138 188.809 189.842 189.267 188.672C189.726 187.503 190.357 186.494 191.159 185.645C191.985 184.774 192.96 184.109 194.083 183.65C195.23 183.168 196.468 182.928 197.799 182.928C198.968 182.928 200.058 183.157 201.067 183.616C202.076 184.051 202.947 184.659 203.681 185.439C204.438 186.218 205.011 187.147 205.401 188.225C205.814 189.28 206.009 190.438 205.986 191.7L205.951 193.213H191.194L190.403 190.392H202.89L202.374 190.977V190.152C202.305 189.395 202.053 188.718 201.617 188.122C201.181 187.526 200.631 187.056 199.966 186.712C199.301 186.368 198.578 186.196 197.799 186.196C196.56 186.196 195.517 186.436 194.668 186.918C193.82 187.377 193.178 188.065 192.742 188.982C192.306 189.876 192.088 190.989 192.088 192.319C192.088 193.58 192.352 194.681 192.879 195.621C193.407 196.539 194.152 197.249 195.115 197.754C196.079 198.259 197.191 198.511 198.452 198.511C199.347 198.511 200.172 198.362 200.929 198.064C201.709 197.765 202.546 197.227 203.44 196.447L205.229 198.958C204.679 199.508 204.002 199.99 203.199 200.403C202.42 200.816 201.583 201.148 200.688 201.4C199.817 201.63 198.957 201.744 198.108 201.744ZM216.932 201.4V177.32H226.358C228.078 177.32 229.626 177.607 231.002 178.18C232.401 178.754 233.593 179.579 234.58 180.657C235.566 181.735 236.322 183.008 236.85 184.476C237.377 185.943 237.641 187.572 237.641 189.36C237.641 191.149 237.377 192.789 236.85 194.28C236.322 195.747 235.566 197.02 234.58 198.098C233.616 199.153 232.435 199.967 231.036 200.54C229.637 201.114 228.078 201.4 226.358 201.4H216.932ZM220.647 198.201L220.544 197.823H226.186C227.401 197.823 228.479 197.628 229.42 197.238C230.383 196.848 231.185 196.298 231.828 195.587C232.493 194.853 232.997 193.959 233.341 192.904C233.685 191.849 233.857 190.668 233.857 189.36C233.857 188.053 233.685 186.884 233.341 185.852C232.997 184.797 232.493 183.902 231.828 183.168C231.162 182.434 230.36 181.873 229.42 181.483C228.479 181.093 227.401 180.898 226.186 180.898H220.441L220.647 180.588V198.201ZM248.479 201.744C246.621 201.744 244.97 201.355 243.525 200.575C242.103 199.772 240.98 198.683 240.154 197.307C239.351 195.931 238.95 194.348 238.95 192.56C238.95 191.138 239.179 189.842 239.638 188.672C240.097 187.503 240.727 186.494 241.53 185.645C242.356 184.774 243.33 184.109 244.454 183.65C245.601 183.168 246.839 182.928 248.169 182.928C249.339 182.928 250.428 183.157 251.437 183.616C252.446 184.051 253.318 184.659 254.052 185.439C254.808 186.218 255.382 187.147 255.772 188.225C256.184 189.28 256.379 190.438 256.356 191.7L256.322 193.213H241.564L240.773 190.392H253.26L252.744 190.977V190.152C252.676 189.395 252.423 188.718 251.988 188.122C251.552 187.526 251.001 187.056 250.336 186.712C249.671 186.368 248.949 186.196 248.169 186.196C246.931 186.196 245.887 186.436 245.039 186.918C244.19 187.377 243.548 188.065 243.112 188.982C242.677 189.876 242.459 190.989 242.459 192.319C242.459 193.58 242.723 194.681 243.25 195.621C243.777 196.539 244.523 197.249 245.486 197.754C246.449 198.259 247.561 198.511 248.823 198.511C249.717 198.511 250.543 198.362 251.3 198.064C252.079 197.765 252.916 197.227 253.811 196.447L255.6 198.958C255.049 199.508 254.373 199.99 253.57 200.403C252.79 200.816 251.953 201.148 251.059 201.4C250.187 201.63 249.327 201.744 248.479 201.744ZM264.068 201.4L256.431 183.34H260.25L265.754 196.86L265.1 197.169L270.982 183.34H274.629L266.614 201.4H264.068ZM284.075 201.744C282.217 201.744 280.566 201.355 279.121 200.575C277.699 199.772 276.576 198.683 275.75 197.307C274.947 195.931 274.546 194.348 274.546 192.56C274.546 191.138 274.775 189.842 275.234 188.672C275.693 187.503 276.323 186.494 277.126 185.645C277.952 184.774 278.926 184.109 280.05 183.65C281.197 183.168 282.435 182.928 283.765 182.928C284.935 182.928 286.024 183.157 287.033 183.616C288.042 184.051 288.914 184.659 289.648 185.439C290.404 186.218 290.978 187.147 291.368 188.225C291.78 189.28 291.975 190.438 291.952 191.7L291.918 193.213H277.16L276.369 190.392H288.856L288.34 190.977V190.152C288.272 189.395 288.019 188.718 287.584 188.122C287.148 187.526 286.597 187.056 285.932 186.712C285.267 186.368 284.545 186.196 283.765 186.196C282.527 186.196 281.483 186.436 280.635 186.918C279.786 187.377 279.144 188.065 278.708 188.982C278.273 189.876 278.055 190.989 278.055 192.319C278.055 193.58 278.319 194.681 278.846 195.621C279.373 196.539 280.119 197.249 281.082 197.754C282.045 198.259 283.157 198.511 284.419 198.511C285.313 198.511 286.139 198.362 286.896 198.064C287.675 197.765 288.512 197.227 289.407 196.447L291.196 198.958C290.645 199.508 289.969 199.99 289.166 200.403C288.386 200.816 287.549 201.148 286.655 201.4C285.783 201.63 284.923 201.744 284.075 201.744ZM294.152 201.4V175.944H297.695V201.4H294.152ZM308.779 201.744C307.013 201.744 305.431 201.343 304.032 200.54C302.656 199.715 301.567 198.603 300.764 197.204C299.961 195.782 299.56 194.165 299.56 192.353C299.56 190.541 299.961 188.936 300.764 187.537C301.567 186.115 302.656 185.003 304.032 184.2C305.431 183.375 307.013 182.962 308.779 182.962C310.522 182.962 312.082 183.375 313.458 184.2C314.857 185.003 315.957 186.115 316.76 187.537C317.563 188.936 317.964 190.541 317.964 192.353C317.964 194.165 317.563 195.782 316.76 197.204C315.957 198.603 314.857 199.715 313.458 200.54C312.082 201.343 310.522 201.744 308.779 201.744ZM308.779 198.511C309.857 198.511 310.82 198.247 311.669 197.72C312.517 197.169 313.182 196.435 313.664 195.518C314.146 194.578 314.375 193.523 314.352 192.353C314.375 191.161 314.146 190.106 313.664 189.188C313.182 188.248 312.517 187.514 311.669 186.987C310.82 186.459 309.857 186.196 308.779 186.196C307.701 186.196 306.727 186.471 305.855 187.021C305.007 187.549 304.342 188.282 303.86 189.223C303.378 190.14 303.149 191.184 303.172 192.353C303.149 193.523 303.378 194.578 303.86 195.518C304.342 196.435 305.007 197.169 305.855 197.72C306.727 198.247 307.701 198.511 308.779 198.511ZM320.105 208.968V183.34H323.682V187.468L323.132 187.159C323.27 186.471 323.66 185.817 324.302 185.198C324.944 184.556 325.724 184.04 326.641 183.65C327.581 183.237 328.544 183.031 329.53 183.031C331.159 183.031 332.604 183.432 333.865 184.235C335.126 185.037 336.124 186.138 336.858 187.537C337.592 188.936 337.959 190.541 337.959 192.353C337.959 194.142 337.592 195.747 336.858 197.169C336.147 198.568 335.161 199.68 333.899 200.506C332.638 201.309 331.216 201.71 329.634 201.71C328.579 201.71 327.558 201.504 326.572 201.091C325.586 200.655 324.749 200.105 324.061 199.44C323.373 198.775 322.949 198.087 322.788 197.376L323.682 196.894V208.968H320.105ZM329.049 198.442C330.104 198.442 331.044 198.178 331.87 197.651C332.695 197.123 333.349 196.401 333.831 195.484C334.312 194.566 334.553 193.523 334.553 192.353C334.553 191.184 334.312 190.152 333.831 189.257C333.372 188.34 332.73 187.617 331.904 187.09C331.079 186.562 330.127 186.299 329.049 186.299C327.971 186.299 327.019 186.562 326.194 187.09C325.368 187.594 324.714 188.305 324.233 189.223C323.751 190.14 323.51 191.184 323.51 192.353C323.51 193.523 323.751 194.566 324.233 195.484C324.714 196.401 325.368 197.123 326.194 197.651C327.019 198.178 327.971 198.442 329.049 198.442ZM348.515 201.744C346.657 201.744 345.006 201.355 343.561 200.575C342.139 199.772 341.015 198.683 340.19 197.307C339.387 195.931 338.986 194.348 338.986 192.56C338.986 191.138 339.215 189.842 339.674 188.672C340.132 187.503 340.763 186.494 341.566 185.645C342.391 184.774 343.366 184.109 344.49 183.65C345.636 183.168 346.875 182.928 348.205 182.928C349.375 182.928 350.464 183.157 351.473 183.616C352.482 184.051 353.353 184.659 354.087 185.439C354.844 186.218 355.417 187.147 355.807 188.225C356.22 189.28 356.415 190.438 356.392 191.7L356.358 193.213H341.6L340.809 190.392H353.296L352.78 190.977V190.152C352.711 189.395 352.459 188.718 352.023 188.122C351.588 187.526 351.037 187.056 350.372 186.712C349.707 186.368 348.985 186.196 348.205 186.196C346.967 186.196 345.923 186.436 345.074 186.918C344.226 187.377 343.584 188.065 343.148 188.982C342.712 189.876 342.494 190.989 342.494 192.319C342.494 193.58 342.758 194.681 343.286 195.621C343.813 196.539 344.558 197.249 345.522 197.754C346.485 198.259 347.597 198.511 348.859 198.511C349.753 198.511 350.579 198.362 351.335 198.064C352.115 197.765 352.952 197.227 353.847 196.447L355.635 198.958C355.085 199.508 354.408 199.99 353.606 200.403C352.826 200.816 351.989 201.148 351.095 201.4C350.223 201.63 349.363 201.744 348.515 201.744ZM358.523 201.4V183.34H362.1V189.016L361.756 187.64C362.009 186.769 362.433 185.978 363.029 185.267C363.648 184.556 364.348 183.994 365.128 183.581C365.93 183.168 366.756 182.962 367.604 182.962C367.994 182.962 368.361 182.996 368.705 183.065C369.072 183.134 369.359 183.214 369.565 183.306L368.636 187.159C368.361 187.044 368.052 186.952 367.708 186.884C367.387 186.792 367.065 186.746 366.744 186.746C366.125 186.746 365.529 186.872 364.956 187.124C364.405 187.354 363.912 187.686 363.476 188.122C363.064 188.535 362.731 189.028 362.479 189.601C362.227 190.152 362.1 190.759 362.1 191.424V201.4H358.523ZM390.26 201.744C388.517 201.744 386.889 201.435 385.375 200.816C383.862 200.173 382.532 199.291 381.385 198.167C380.238 197.043 379.344 195.736 378.702 194.245C378.082 192.732 377.773 191.103 377.773 189.36C377.773 187.64 378.082 186.035 378.702 184.544C379.344 183.054 380.227 181.758 381.35 180.657C382.497 179.533 383.827 178.662 385.341 178.043C386.855 177.424 388.483 177.114 390.226 177.114C391.441 177.114 392.622 177.286 393.769 177.63C394.939 177.974 395.993 178.456 396.934 179.075C397.874 179.694 398.642 180.405 399.239 181.208L396.831 183.719C396.143 183.054 395.432 182.503 394.698 182.068C393.987 181.632 393.253 181.299 392.496 181.07C391.739 180.841 390.983 180.726 390.226 180.726C388.987 180.726 387.841 180.944 386.786 181.38C385.754 181.815 384.836 182.423 384.034 183.203C383.254 183.982 382.646 184.9 382.21 185.955C381.775 186.987 381.557 188.122 381.557 189.36C381.557 190.553 381.786 191.688 382.245 192.766C382.704 193.821 383.334 194.75 384.137 195.552C384.962 196.355 385.903 196.986 386.958 197.444C388.036 197.903 389.171 198.132 390.363 198.132C391.258 198.132 392.106 198.006 392.909 197.754C393.712 197.479 394.423 197.1 395.042 196.619C395.661 196.137 396.143 195.587 396.487 194.968C396.831 194.325 397.003 193.649 397.003 192.938V192.25L397.519 192.732H390.157V189.051H400.821C400.867 189.303 400.901 189.555 400.924 189.808C400.947 190.037 400.959 190.266 400.959 190.496C400.981 190.702 400.993 190.908 400.993 191.115C400.993 192.697 400.718 194.142 400.167 195.449C399.617 196.733 398.849 197.846 397.863 198.786C396.899 199.726 395.764 200.46 394.457 200.988C393.173 201.492 391.774 201.744 390.26 201.744ZM403.216 201.4V183.34H406.794V189.016L406.45 187.64C406.702 186.769 407.126 185.978 407.722 185.267C408.342 184.556 409.041 183.994 409.821 183.581C410.624 183.168 411.449 182.962 412.298 182.962C412.688 182.962 413.054 182.996 413.398 183.065C413.765 183.134 414.052 183.214 414.258 183.306L413.33 187.159C413.054 187.044 412.745 186.952 412.401 186.884C412.08 186.792 411.759 186.746 411.438 186.746C410.818 186.746 410.222 186.872 409.649 187.124C409.098 187.354 408.605 187.686 408.17 188.122C407.757 188.535 407.424 189.028 407.172 189.601C406.92 190.152 406.794 190.759 406.794 191.424V201.4H403.216ZM422.716 201.744C420.95 201.744 419.368 201.343 417.969 200.54C416.593 199.715 415.503 198.603 414.701 197.204C413.898 195.782 413.497 194.165 413.497 192.353C413.497 190.541 413.898 188.936 414.701 187.537C415.503 186.115 416.593 185.003 417.969 184.2C419.368 183.375 420.95 182.962 422.716 182.962C424.459 182.962 426.018 183.375 427.394 184.2C428.793 185.003 429.894 186.115 430.697 187.537C431.5 188.936 431.901 190.541 431.901 192.353C431.901 194.165 431.5 195.782 430.697 197.204C429.894 198.603 428.793 199.715 427.394 200.54C426.018 201.343 424.459 201.744 422.716 201.744ZM422.716 198.511C423.794 198.511 424.757 198.247 425.606 197.72C426.454 197.169 427.119 196.435 427.601 195.518C428.082 194.578 428.312 193.523 428.289 192.353C428.312 191.161 428.082 190.106 427.601 189.188C427.119 188.248 426.454 187.514 425.606 186.987C424.757 186.459 423.794 186.196 422.716 186.196C421.638 186.196 420.664 186.471 419.792 187.021C418.944 187.549 418.278 188.282 417.797 189.223C417.315 190.14 417.086 191.184 417.109 192.353C417.086 193.523 417.315 194.578 417.797 195.518C418.278 196.435 418.944 197.169 419.792 197.72C420.664 198.247 421.638 198.511 422.716 198.511ZM440.371 201.744C439.087 201.744 437.963 201.446 437 200.85C436.06 200.254 435.326 199.417 434.799 198.339C434.294 197.261 434.042 195.977 434.042 194.486V183.34H437.585V193.523C437.585 194.578 437.745 195.495 438.067 196.275C438.411 197.032 438.892 197.616 439.511 198.029C440.153 198.442 440.922 198.648 441.816 198.648C442.481 198.648 443.089 198.545 443.639 198.339C444.19 198.109 444.66 197.8 445.05 197.41C445.463 197.02 445.784 196.55 446.013 196C446.242 195.449 446.357 194.853 446.357 194.211V183.34H449.9V201.4H446.357V197.616L446.976 197.204C446.701 198.052 446.231 198.82 445.566 199.508C444.924 200.196 444.155 200.747 443.261 201.16C442.367 201.549 441.403 201.744 440.371 201.744ZM453.15 208.968V183.34H456.728V187.468L456.177 187.159C456.315 186.471 456.705 185.817 457.347 185.198C457.989 184.556 458.769 184.04 459.686 183.65C460.626 183.237 461.589 183.031 462.576 183.031C464.204 183.031 465.649 183.432 466.91 184.235C468.171 185.037 469.169 186.138 469.903 187.537C470.637 188.936 471.004 190.541 471.004 192.353C471.004 194.142 470.637 195.747 469.903 197.169C469.192 198.568 468.206 199.68 466.944 200.506C465.683 201.309 464.261 201.71 462.679 201.71C461.624 201.71 460.603 201.504 459.617 201.091C458.631 200.655 457.794 200.105 457.106 199.44C456.418 198.775 455.994 198.087 455.833 197.376L456.728 196.894V208.968H453.15ZM462.094 198.442C463.149 198.442 464.089 198.178 464.915 197.651C465.74 197.123 466.394 196.401 466.876 195.484C467.357 194.566 467.598 193.523 467.598 192.353C467.598 191.184 467.357 190.152 466.876 189.257C466.417 188.34 465.775 187.617 464.949 187.09C464.124 186.562 463.172 186.299 462.094 186.299C461.016 186.299 460.064 186.562 459.239 187.09C458.413 187.594 457.76 188.305 457.278 189.223C456.796 190.14 456.556 191.184 456.556 192.353C456.556 193.523 456.796 194.566 457.278 195.484C457.76 196.401 458.413 197.123 459.239 197.651C460.064 198.178 461.016 198.442 462.094 198.442ZM479.152 201.744C477.638 201.744 476.273 201.481 475.058 200.953C473.842 200.426 472.833 199.646 472.031 198.614L474.439 196.55C475.127 197.353 475.872 197.937 476.675 198.304C477.5 198.648 478.429 198.82 479.461 198.82C479.874 198.82 480.252 198.775 480.596 198.683C480.963 198.568 481.273 198.408 481.525 198.201C481.8 197.995 482.007 197.754 482.144 197.479C482.282 197.181 482.351 196.86 482.351 196.516C482.351 195.919 482.133 195.438 481.697 195.071C481.468 194.91 481.101 194.738 480.596 194.555C480.115 194.348 479.484 194.142 478.704 193.936C477.374 193.592 476.285 193.202 475.436 192.766C474.588 192.33 473.934 191.837 473.476 191.287C473.132 190.851 472.879 190.381 472.719 189.876C472.558 189.349 472.478 188.776 472.478 188.156C472.478 187.4 472.638 186.712 472.96 186.092C473.304 185.45 473.762 184.9 474.336 184.441C474.932 183.96 475.62 183.593 476.4 183.34C477.202 183.088 478.051 182.962 478.945 182.962C479.794 182.962 480.631 183.077 481.456 183.306C482.305 183.535 483.085 183.868 483.796 184.304C484.506 184.739 485.103 185.255 485.584 185.852L483.555 188.088C483.119 187.652 482.637 187.273 482.11 186.952C481.605 186.608 481.089 186.345 480.562 186.161C480.034 185.978 479.553 185.886 479.117 185.886C478.636 185.886 478.2 185.932 477.81 186.024C477.42 186.115 477.088 186.253 476.812 186.436C476.56 186.62 476.365 186.849 476.228 187.124C476.09 187.4 476.021 187.709 476.021 188.053C476.044 188.351 476.113 188.638 476.228 188.913C476.365 189.165 476.549 189.383 476.778 189.567C477.03 189.75 477.409 189.945 477.913 190.152C478.418 190.358 479.06 190.553 479.84 190.736C480.986 191.034 481.926 191.367 482.66 191.734C483.417 192.078 484.013 192.479 484.449 192.938C484.908 193.374 485.229 193.878 485.412 194.452C485.596 195.025 485.688 195.667 485.688 196.378C485.688 197.41 485.389 198.339 484.793 199.164C484.22 199.967 483.44 200.598 482.454 201.056C481.468 201.515 480.367 201.744 479.152 201.744Z" fill="#666666"/>
<path d="M107.088 226.56C106.299 226.56 105.568 226.416 104.896 226.128C104.235 225.84 103.654 225.44 103.152 224.928C102.662 224.406 102.278 223.798 102 223.104C101.734 222.4 101.6 221.632 101.6 220.8C101.6 219.968 101.734 219.206 102 218.512C102.278 217.808 102.662 217.2 103.152 216.688C103.654 216.166 104.235 215.76 104.896 215.472C105.568 215.184 106.299 215.04 107.088 215.04C107.878 215.04 108.603 215.184 109.264 215.472C109.936 215.76 110.518 216.166 111.008 216.688C111.51 217.211 111.894 217.824 112.16 218.528C112.438 219.222 112.576 219.979 112.576 220.8C112.576 221.622 112.438 222.384 112.16 223.088C111.894 223.782 111.51 224.39 111.008 224.912C110.518 225.435 109.936 225.84 109.264 226.128C108.603 226.416 107.878 226.56 107.088 226.56ZM107.088 224.88C107.632 224.88 108.128 224.779 108.576 224.576C109.035 224.374 109.43 224.091 109.76 223.728C110.091 223.355 110.347 222.923 110.528 222.432C110.72 221.931 110.816 221.387 110.816 220.8C110.816 220.214 110.72 219.675 110.528 219.184C110.347 218.683 110.091 218.251 109.76 217.888C109.43 217.515 109.035 217.227 108.576 217.024C108.128 216.822 107.632 216.72 107.088 216.72C106.544 216.72 106.043 216.822 105.584 217.024C105.136 217.227 104.742 217.51 104.4 217.872C104.07 218.235 103.814 218.667 103.632 219.168C103.451 219.659 103.36 220.203 103.36 220.8C103.36 221.387 103.451 221.931 103.632 222.432C103.814 222.934 104.07 223.366 104.4 223.728C104.742 224.091 105.136 224.374 105.584 224.576C106.043 224.779 106.544 224.88 107.088 224.88ZM113.7 226.4V218H115.348V219.728L115.06 219.92C115.167 219.547 115.375 219.206 115.684 218.896C115.993 218.576 116.361 218.32 116.788 218.128C117.215 217.926 117.652 217.824 118.1 217.824C118.74 217.824 119.273 217.952 119.7 218.208C120.127 218.454 120.447 218.832 120.66 219.344C120.873 219.856 120.98 220.502 120.98 221.28V226.4H119.332V221.392C119.332 220.912 119.268 220.518 119.14 220.208C119.012 219.888 118.815 219.659 118.548 219.52C118.281 219.371 117.951 219.307 117.556 219.328C117.236 219.328 116.943 219.382 116.676 219.488C116.409 219.584 116.175 219.723 115.972 219.904C115.78 220.086 115.625 220.299 115.508 220.544C115.401 220.779 115.348 221.035 115.348 221.312V226.4H114.532C114.393 226.4 114.255 226.4 114.116 226.4C113.977 226.4 113.839 226.4 113.7 226.4ZM131.06 226.56C130.281 226.56 129.567 226.422 128.916 226.144C128.265 225.867 127.7 225.472 127.22 224.96C126.74 224.438 126.367 223.824 126.1 223.12C125.844 222.416 125.716 221.643 125.716 220.8C125.716 220 125.855 219.259 126.132 218.576C126.42 217.883 126.815 217.275 127.316 216.752C127.817 216.23 128.399 215.824 129.06 215.536C129.721 215.248 130.436 215.104 131.204 215.104C131.748 215.104 132.276 215.19 132.788 215.36C133.311 215.52 133.78 215.75 134.196 216.048C134.623 216.336 134.969 216.667 135.236 217.04L134.084 218.24C133.775 217.931 133.46 217.675 133.14 217.472C132.831 217.259 132.511 217.099 132.18 216.992C131.86 216.886 131.535 216.832 131.204 216.832C130.681 216.832 130.191 216.934 129.732 217.136C129.284 217.328 128.889 217.6 128.548 217.952C128.217 218.304 127.956 218.726 127.764 219.216C127.572 219.696 127.476 220.224 127.476 220.8C127.476 221.408 127.567 221.963 127.748 222.464C127.94 222.955 128.207 223.376 128.548 223.728C128.889 224.08 129.295 224.352 129.764 224.544C130.244 224.726 130.772 224.816 131.348 224.816C131.7 224.816 132.047 224.768 132.388 224.672C132.729 224.576 133.049 224.438 133.348 224.256C133.647 224.075 133.919 223.862 134.164 223.616L135.028 225.024C134.783 225.312 134.447 225.574 134.02 225.808C133.604 226.043 133.135 226.23 132.612 226.368C132.1 226.496 131.583 226.56 131.06 226.56ZM139.391 226.56C138.698 226.56 138.063 226.368 137.487 225.984C136.922 225.6 136.469 225.078 136.127 224.416C135.786 223.755 135.615 223.008 135.615 222.176C135.615 221.334 135.786 220.587 136.127 219.936C136.479 219.275 136.949 218.758 137.535 218.384C138.133 218.011 138.799 217.824 139.535 217.824C139.973 217.824 140.373 217.888 140.735 218.016C141.098 218.144 141.413 218.326 141.679 218.56C141.957 218.784 142.181 219.046 142.351 219.344C142.533 219.643 142.645 219.963 142.687 220.304L142.319 220.176V218H143.983V226.4H142.319V224.4L142.703 224.288C142.639 224.576 142.506 224.859 142.303 225.136C142.111 225.403 141.861 225.643 141.551 225.856C141.253 226.07 140.917 226.24 140.543 226.368C140.181 226.496 139.797 226.56 139.391 226.56ZM139.823 225.04C140.325 225.04 140.767 224.918 141.151 224.672C141.535 224.427 141.834 224.091 142.047 223.664C142.271 223.227 142.383 222.731 142.383 222.176C142.383 221.632 142.271 221.147 142.047 220.72C141.834 220.294 141.535 219.958 141.151 219.712C140.767 219.467 140.325 219.344 139.823 219.344C139.333 219.344 138.895 219.467 138.511 219.712C138.138 219.958 137.839 220.294 137.615 220.72C137.402 221.147 137.295 221.632 137.295 222.176C137.295 222.731 137.402 223.227 137.615 223.664C137.839 224.091 138.138 224.427 138.511 224.672C138.895 224.918 139.333 225.04 139.823 225.04ZM145.452 226.4V218H147.116V219.792L146.812 219.984C146.898 219.707 147.031 219.44 147.212 219.184C147.404 218.928 147.634 218.704 147.9 218.512C148.178 218.31 148.471 218.15 148.78 218.032C149.1 217.915 149.426 217.856 149.756 217.856C150.236 217.856 150.658 217.936 151.02 218.096C151.383 218.256 151.682 218.496 151.916 218.816C152.151 219.136 152.322 219.536 152.428 220.016L152.172 219.952L152.284 219.68C152.402 219.435 152.562 219.206 152.764 218.992C152.978 218.768 153.218 218.571 153.484 218.4C153.751 218.23 154.034 218.096 154.332 218C154.631 217.904 154.924 217.856 155.212 217.856C155.842 217.856 156.359 217.984 156.764 218.24C157.18 218.496 157.49 218.886 157.692 219.408C157.906 219.931 158.012 220.582 158.012 221.36V226.4H156.348V221.456C156.348 220.976 156.284 220.587 156.156 220.288C156.039 219.979 155.858 219.75 155.612 219.6C155.367 219.451 155.052 219.376 154.668 219.376C154.37 219.376 154.087 219.43 153.82 219.536C153.564 219.632 153.34 219.771 153.148 219.952C152.956 220.134 152.807 220.347 152.7 220.592C152.594 220.827 152.54 221.088 152.54 221.376V226.4H150.876V221.424C150.876 220.987 150.812 220.619 150.684 220.32C150.556 220.011 150.37 219.776 150.124 219.616C149.879 219.456 149.58 219.376 149.228 219.376C148.93 219.376 148.652 219.43 148.396 219.536C148.14 219.632 147.916 219.771 147.724 219.952C147.532 220.123 147.383 220.331 147.276 220.576C147.17 220.811 147.116 221.067 147.116 221.344V226.4H145.452ZM159.419 229.92V218H161.083V219.92L160.827 219.776C160.891 219.456 161.072 219.152 161.371 218.864C161.67 218.566 162.032 218.326 162.459 218.144C162.896 217.952 163.344 217.856 163.803 217.856C164.56 217.856 165.232 218.043 165.819 218.416C166.406 218.79 166.87 219.302 167.211 219.952C167.552 220.603 167.723 221.35 167.723 222.192C167.723 223.024 167.552 223.771 167.211 224.432C166.88 225.083 166.422 225.6 165.835 225.984C165.248 226.358 164.587 226.544 163.851 226.544C163.36 226.544 162.886 226.448 162.427 226.256C161.968 226.054 161.579 225.798 161.259 225.488C160.939 225.179 160.742 224.859 160.667 224.528L161.083 224.304V229.92H159.419ZM163.579 225.024C164.07 225.024 164.507 224.902 164.891 224.656C165.275 224.411 165.579 224.075 165.803 223.648C166.027 223.222 166.139 222.736 166.139 222.192C166.139 221.648 166.027 221.168 165.803 220.752C165.59 220.326 165.291 219.99 164.907 219.744C164.523 219.499 164.08 219.376 163.579 219.376C163.078 219.376 162.635 219.499 162.251 219.744C161.867 219.979 161.563 220.31 161.339 220.736C161.115 221.163 161.003 221.648 161.003 222.192C161.003 222.736 161.115 223.222 161.339 223.648C161.563 224.075 161.867 224.411 162.251 224.656C162.635 224.902 163.078 225.024 163.579 225.024ZM171.657 226.56C171.059 226.56 170.537 226.422 170.089 226.144C169.651 225.867 169.31 225.478 169.065 224.976C168.83 224.475 168.713 223.878 168.713 223.184V218H170.361V222.736C170.361 223.227 170.435 223.654 170.585 224.016C170.745 224.368 170.969 224.64 171.257 224.832C171.555 225.024 171.913 225.12 172.329 225.12C172.638 225.12 172.921 225.072 173.177 224.976C173.433 224.87 173.651 224.726 173.833 224.544C174.025 224.363 174.174 224.144 174.281 223.888C174.387 223.632 174.441 223.355 174.441 223.056V218H176.089V226.4H174.441V224.64L174.729 224.448C174.601 224.843 174.382 225.2 174.073 225.52C173.774 225.84 173.417 226.096 173.001 226.288C172.585 226.47 172.137 226.56 171.657 226.56ZM180.4 226.56C179.696 226.56 179.061 226.438 178.496 226.192C177.931 225.947 177.461 225.584 177.088 225.104L178.208 224.144C178.528 224.518 178.875 224.79 179.248 224.96C179.632 225.12 180.064 225.2 180.544 225.2C180.736 225.2 180.912 225.179 181.072 225.136C181.243 225.083 181.387 225.008 181.504 224.912C181.632 224.816 181.728 224.704 181.792 224.576C181.856 224.438 181.888 224.288 181.888 224.128C181.888 223.851 181.787 223.627 181.584 223.456C181.477 223.382 181.307 223.302 181.072 223.216C180.848 223.12 180.555 223.024 180.192 222.928C179.573 222.768 179.067 222.587 178.672 222.384C178.277 222.182 177.973 221.952 177.76 221.696C177.6 221.494 177.483 221.275 177.408 221.04C177.333 220.795 177.296 220.528 177.296 220.24C177.296 219.888 177.371 219.568 177.52 219.28C177.68 218.982 177.893 218.726 178.16 218.512C178.437 218.288 178.757 218.118 179.12 218C179.493 217.883 179.888 217.824 180.304 217.824C180.699 217.824 181.088 217.878 181.472 217.984C181.867 218.091 182.229 218.246 182.56 218.448C182.891 218.651 183.168 218.891 183.392 219.168L182.448 220.208C182.245 220.006 182.021 219.83 181.776 219.68C181.541 219.52 181.301 219.398 181.056 219.312C180.811 219.227 180.587 219.184 180.384 219.184C180.16 219.184 179.957 219.206 179.776 219.248C179.595 219.291 179.44 219.355 179.312 219.44C179.195 219.526 179.104 219.632 179.04 219.76C178.976 219.888 178.944 220.032 178.944 220.192C178.955 220.331 178.987 220.464 179.04 220.592C179.104 220.71 179.189 220.811 179.296 220.896C179.413 220.982 179.589 221.072 179.824 221.168C180.059 221.264 180.357 221.355 180.72 221.44C181.253 221.579 181.691 221.734 182.032 221.904C182.384 222.064 182.661 222.251 182.864 222.464C183.077 222.667 183.227 222.902 183.312 223.168C183.397 223.435 183.44 223.734 183.44 224.064C183.44 224.544 183.301 224.976 183.024 225.36C182.757 225.734 182.395 226.027 181.936 226.24C181.477 226.454 180.965 226.56 180.4 226.56Z" fill="#609CFF"/>
<path d="M189.757 222.944C189.362 222.944 188.999 222.848 188.669 222.656C188.338 222.464 188.071 222.203 187.869 221.872C187.677 221.542 187.581 221.179 187.581 220.784C187.581 220.379 187.677 220.011 187.869 219.68C188.061 219.35 188.322 219.088 188.653 218.896C188.983 218.694 189.351 218.592 189.757 218.592C190.162 218.592 190.53 218.694 190.861 218.896C191.191 219.088 191.453 219.35 191.645 219.68C191.847 220.011 191.949 220.379 191.949 220.784C191.949 221.179 191.847 221.542 191.645 221.872C191.453 222.203 191.191 222.464 190.861 222.656C190.53 222.848 190.162 222.944 189.757 222.944ZM200.657 226.4V215.2H205.041C205.841 215.2 206.561 215.334 207.201 215.6C207.851 215.867 208.406 216.251 208.865 216.752C209.324 217.254 209.676 217.846 209.921 218.528C210.166 219.211 210.289 219.968 210.289 220.8C210.289 221.632 210.166 222.395 209.921 223.088C209.676 223.771 209.324 224.363 208.865 224.864C208.417 225.355 207.867 225.734 207.217 226C206.566 226.267 205.841 226.4 205.041 226.4H200.657ZM202.385 224.912L202.337 224.736H204.961C205.526 224.736 206.027 224.646 206.465 224.464C206.913 224.283 207.286 224.027 207.585 223.696C207.894 223.355 208.129 222.939 208.289 222.448C208.449 221.958 208.529 221.408 208.529 220.8C208.529 220.192 208.449 219.648 208.289 219.168C208.129 218.678 207.894 218.262 207.585 217.92C207.275 217.579 206.902 217.318 206.465 217.136C206.027 216.955 205.526 216.864 204.961 216.864H202.289L202.385 216.72V224.912ZM211.41 226.4V218H213.074V220.64L212.914 220C213.031 219.595 213.228 219.227 213.506 218.896C213.794 218.566 214.119 218.304 214.482 218.112C214.855 217.92 215.239 217.824 215.634 217.824C215.815 217.824 215.986 217.84 216.146 217.872C216.316 217.904 216.45 217.942 216.546 217.984L216.114 219.776C215.986 219.723 215.842 219.68 215.682 219.648C215.532 219.606 215.383 219.584 215.234 219.584C214.946 219.584 214.668 219.643 214.402 219.76C214.146 219.867 213.916 220.022 213.714 220.224C213.522 220.416 213.367 220.646 213.25 220.912C213.132 221.168 213.074 221.451 213.074 221.76V226.4H211.41ZM215.907 226.576C215.555 226.576 215.283 226.475 215.091 226.272C214.899 226.059 214.803 225.76 214.803 225.376C214.803 225.024 214.904 224.736 215.107 224.512C215.309 224.288 215.576 224.176 215.907 224.176C216.259 224.176 216.531 224.283 216.723 224.496C216.915 224.699 217.011 224.992 217.011 225.376C217.011 225.728 216.909 226.016 216.707 226.24C216.504 226.464 216.237 226.576 215.907 226.576ZM221.008 226.4L225.344 215.2H227.104L231.408 226.4H229.568L227.008 219.648C226.976 219.574 226.912 219.392 226.816 219.104C226.73 218.816 226.629 218.496 226.512 218.144C226.394 217.792 226.288 217.472 226.192 217.184C226.096 216.886 226.032 216.694 226 216.608L226.368 216.592C226.304 216.774 226.224 217.003 226.128 217.28C226.042 217.558 225.946 217.851 225.84 218.16C225.744 218.47 225.648 218.763 225.552 219.04C225.456 219.307 225.376 219.531 225.312 219.712L222.768 226.4H221.008ZM222.928 223.616L223.568 221.952H228.656L229.392 223.616H222.928ZM232.131 226.4V218H233.795V219.792L233.491 219.984C233.576 219.707 233.709 219.44 233.891 219.184C234.083 218.928 234.312 218.704 234.579 218.512C234.856 218.31 235.149 218.15 235.459 218.032C235.779 217.915 236.104 217.856 236.435 217.856C236.915 217.856 237.336 217.936 237.699 218.096C238.061 218.256 238.36 218.496 238.595 218.816C238.829 219.136 239 219.536 239.107 220.016L238.851 219.952L238.963 219.68C239.08 219.435 239.24 219.206 239.443 218.992C239.656 218.768 239.896 218.571 240.163 218.4C240.429 218.23 240.712 218.096 241.011 218C241.309 217.904 241.603 217.856 241.891 217.856C242.52 217.856 243.037 217.984 243.443 218.24C243.859 218.496 244.168 218.886 244.371 219.408C244.584 219.931 244.691 220.582 244.691 221.36V226.4H243.027V221.456C243.027 220.976 242.963 220.587 242.835 220.288C242.717 219.979 242.536 219.75 242.291 219.6C242.045 219.451 241.731 219.376 241.347 219.376C241.048 219.376 240.765 219.43 240.499 219.536C240.243 219.632 240.019 219.771 239.827 219.952C239.635 220.134 239.485 220.347 239.379 220.592C239.272 220.827 239.219 221.088 239.219 221.376V226.4H237.555V221.424C237.555 220.987 237.491 220.619 237.363 220.32C237.235 220.011 237.048 219.776 236.803 219.616C236.557 219.456 236.259 219.376 235.907 219.376C235.608 219.376 235.331 219.43 235.075 219.536C234.819 219.632 234.595 219.771 234.403 219.952C234.211 220.123 234.061 220.331 233.955 220.576C233.848 220.811 233.795 221.067 233.795 221.344V226.4H232.131ZM250.513 226.56C250.151 226.56 249.788 226.502 249.425 226.384C249.073 226.267 248.748 226.112 248.449 225.92C248.161 225.718 247.916 225.499 247.713 225.264C247.521 225.019 247.393 224.774 247.329 224.528L247.745 224.304V226.352H246.097V214.56H247.745V219.92L247.489 219.776C247.543 219.531 247.66 219.296 247.841 219.072C248.023 218.838 248.252 218.63 248.529 218.448C248.817 218.256 249.127 218.107 249.457 218C249.788 217.883 250.124 217.824 250.465 217.824C251.223 217.824 251.895 218.011 252.481 218.384C253.068 218.758 253.532 219.275 253.873 219.936C254.215 220.587 254.385 221.334 254.385 222.176C254.385 223.019 254.215 223.771 253.873 224.432C253.543 225.094 253.084 225.616 252.497 226C251.911 226.374 251.249 226.56 250.513 226.56ZM250.241 225.056C250.732 225.056 251.169 224.934 251.553 224.688C251.937 224.432 252.241 224.091 252.465 223.664C252.689 223.227 252.801 222.731 252.801 222.176C252.801 221.632 252.689 221.147 252.465 220.72C252.252 220.283 251.953 219.942 251.569 219.696C251.185 219.451 250.743 219.328 250.241 219.328C249.74 219.328 249.297 219.451 248.913 219.696C248.529 219.942 248.225 220.283 248.001 220.72C247.777 221.147 247.665 221.632 247.665 222.176C247.665 222.731 247.777 223.227 248.001 223.664C248.225 224.091 248.529 224.432 248.913 224.688C249.297 224.934 249.74 225.056 250.241 225.056ZM259.295 226.56C258.431 226.56 257.663 226.379 256.991 226.016C256.33 225.643 255.807 225.136 255.423 224.496C255.05 223.856 254.863 223.12 254.863 222.288C254.863 221.627 254.97 221.024 255.183 220.48C255.397 219.936 255.69 219.467 256.063 219.072C256.447 218.667 256.901 218.358 257.423 218.144C257.957 217.92 258.533 217.808 259.151 217.808C259.695 217.808 260.202 217.915 260.671 218.128C261.141 218.331 261.546 218.614 261.887 218.976C262.239 219.339 262.506 219.771 262.687 220.272C262.879 220.763 262.97 221.302 262.959 221.888L262.943 222.592H256.079L255.711 221.28H261.519L261.279 221.552V221.168C261.247 220.816 261.13 220.502 260.927 220.224C260.725 219.947 260.469 219.728 260.159 219.568C259.85 219.408 259.514 219.328 259.151 219.328C258.575 219.328 258.09 219.44 257.695 219.664C257.301 219.878 257.002 220.198 256.799 220.624C256.597 221.04 256.495 221.558 256.495 222.176C256.495 222.763 256.618 223.275 256.863 223.712C257.109 224.139 257.455 224.47 257.903 224.704C258.351 224.939 258.869 225.056 259.455 225.056C259.871 225.056 260.255 224.987 260.607 224.848C260.97 224.71 261.359 224.459 261.775 224.096L262.607 225.264C262.351 225.52 262.037 225.744 261.663 225.936C261.301 226.128 260.911 226.283 260.495 226.4C260.09 226.507 259.69 226.56 259.295 226.56ZM267.454 226.56C266.686 226.56 265.998 226.374 265.39 226C264.793 225.616 264.318 225.099 263.966 224.448C263.614 223.787 263.438 223.035 263.438 222.192C263.438 221.35 263.609 220.603 263.95 219.952C264.302 219.291 264.777 218.774 265.374 218.4C265.972 218.016 266.649 217.824 267.406 217.824C267.822 217.824 268.222 217.894 268.606 218.032C269.001 218.16 269.353 218.342 269.662 218.576C269.972 218.8 270.212 219.051 270.382 219.328C270.564 219.595 270.654 219.867 270.654 220.144L270.174 220.176V214.56H271.822V226.4H270.174V224.4H270.494C270.494 224.656 270.409 224.912 270.238 225.168C270.068 225.414 269.838 225.643 269.55 225.856C269.273 226.07 268.948 226.24 268.574 226.368C268.212 226.496 267.838 226.56 267.454 226.56ZM267.678 225.136C268.18 225.136 268.622 225.008 269.006 224.752C269.39 224.496 269.689 224.15 269.902 223.712C270.126 223.264 270.238 222.758 270.238 222.192C270.238 221.627 270.126 221.126 269.902 220.688C269.689 220.24 269.39 219.888 269.006 219.632C268.622 219.376 268.18 219.248 267.678 219.248C267.177 219.248 266.734 219.376 266.35 219.632C265.966 219.888 265.662 220.24 265.438 220.688C265.225 221.126 265.118 221.627 265.118 222.192C265.118 222.758 265.225 223.264 265.438 223.712C265.662 224.15 265.966 224.496 266.35 224.752C266.734 225.008 267.177 225.136 267.678 225.136ZM274.795 223.776L274.715 221.984L278.731 218H280.955L274.795 223.776ZM273.291 226.4V214.56H274.939V226.4H273.291ZM278.955 226.4L275.787 222.704L276.955 221.632L281.067 226.4H278.955ZM284.457 226.56C283.764 226.56 283.129 226.368 282.553 225.984C281.988 225.6 281.535 225.078 281.193 224.416C280.852 223.755 280.681 223.008 280.681 222.176C280.681 221.334 280.852 220.587 281.193 219.936C281.545 219.275 282.015 218.758 282.601 218.384C283.199 218.011 283.865 217.824 284.601 217.824C285.039 217.824 285.439 217.888 285.801 218.016C286.164 218.144 286.479 218.326 286.745 218.56C287.023 218.784 287.247 219.046 287.417 219.344C287.599 219.643 287.711 219.963 287.753 220.304L287.385 220.176V218H289.049V226.4H287.385V224.4L287.769 224.288C287.705 224.576 287.572 224.859 287.369 225.136C287.177 225.403 286.927 225.643 286.617 225.856C286.319 226.07 285.983 226.24 285.609 226.368C285.247 226.496 284.863 226.56 284.457 226.56ZM284.889 225.04C285.391 225.04 285.833 224.918 286.217 224.672C286.601 224.427 286.9 224.091 287.113 223.664C287.337 223.227 287.449 222.731 287.449 222.176C287.449 221.632 287.337 221.147 287.113 220.72C286.9 220.294 286.601 219.958 286.217 219.712C285.833 219.467 285.391 219.344 284.889 219.344C284.399 219.344 283.961 219.467 283.577 219.712C283.204 219.958 282.905 220.294 282.681 220.72C282.468 221.147 282.361 221.632 282.361 222.176C282.361 222.731 282.468 223.227 282.681 223.664C282.905 224.091 283.204 224.427 283.577 224.672C283.961 224.918 284.399 225.04 284.889 225.04ZM290.55 226.4V218H292.214V220.64L292.054 220C292.172 219.595 292.369 219.227 292.646 218.896C292.934 218.566 293.26 218.304 293.622 218.112C293.996 217.92 294.38 217.824 294.774 217.824C294.956 217.824 295.126 217.84 295.286 217.872C295.457 217.904 295.59 217.942 295.686 217.984L295.254 219.776C295.126 219.723 294.982 219.68 294.822 219.648C294.673 219.606 294.524 219.584 294.374 219.584C294.086 219.584 293.809 219.643 293.542 219.76C293.286 219.867 293.057 220.022 292.854 220.224C292.662 220.416 292.508 220.646 292.39 220.912C292.273 221.168 292.214 221.451 292.214 221.76V226.4H290.55ZM299.888 226.4V224.8H301.696V216.8H299.888V215.2H305.232V216.8H303.424V224.8H305.232V226.4H299.888ZM306.729 226.4V218H308.377V219.728L308.089 219.92C308.195 219.547 308.403 219.206 308.713 218.896C309.022 218.576 309.39 218.32 309.817 218.128C310.243 217.926 310.681 217.824 311.129 217.824C311.769 217.824 312.302 217.952 312.729 218.208C313.155 218.454 313.475 218.832 313.689 219.344C313.902 219.856 314.009 220.502 314.009 221.28V226.4H312.361V221.392C312.361 220.912 312.297 220.518 312.169 220.208C312.041 219.888 311.843 219.659 311.577 219.52C311.31 219.371 310.979 219.307 310.585 219.328C310.265 219.328 309.971 219.382 309.705 219.488C309.438 219.584 309.203 219.723 309.001 219.904C308.809 220.086 308.654 220.299 308.537 220.544C308.43 220.779 308.377 221.035 308.377 221.312V226.4H307.561C307.422 226.4 307.283 226.4 307.145 226.4C307.006 226.4 306.867 226.4 306.729 226.4ZM318.244 226.56C317.54 226.56 316.906 226.438 316.34 226.192C315.775 225.947 315.306 225.584 314.932 225.104L316.052 224.144C316.372 224.518 316.719 224.79 317.092 224.96C317.476 225.12 317.908 225.2 318.388 225.2C318.58 225.2 318.756 225.179 318.916 225.136C319.087 225.083 319.231 225.008 319.348 224.912C319.476 224.816 319.572 224.704 319.636 224.576C319.7 224.438 319.732 224.288 319.732 224.128C319.732 223.851 319.631 223.627 319.428 223.456C319.322 223.382 319.151 223.302 318.916 223.216C318.692 223.12 318.399 223.024 318.036 222.928C317.418 222.768 316.911 222.587 316.516 222.384C316.122 222.182 315.818 221.952 315.604 221.696C315.444 221.494 315.327 221.275 315.252 221.04C315.178 220.795 315.14 220.528 315.14 220.24C315.14 219.888 315.215 219.568 315.364 219.28C315.524 218.982 315.738 218.726 316.004 218.512C316.282 218.288 316.602 218.118 316.964 218C317.338 217.883 317.732 217.824 318.148 217.824C318.543 217.824 318.932 217.878 319.316 217.984C319.711 218.091 320.074 218.246 320.404 218.448C320.735 218.651 321.012 218.891 321.236 219.168L320.292 220.208C320.09 220.006 319.866 219.83 319.62 219.68C319.386 219.52 319.146 219.398 318.9 219.312C318.655 219.227 318.431 219.184 318.228 219.184C318.004 219.184 317.802 219.206 317.62 219.248C317.439 219.291 317.284 219.355 317.156 219.44C317.039 219.526 316.948 219.632 316.884 219.76C316.82 219.888 316.788 220.032 316.788 220.192C316.799 220.331 316.831 220.464 316.884 220.592C316.948 220.71 317.034 220.811 317.14 220.896C317.258 220.982 317.434 221.072 317.668 221.168C317.903 221.264 318.202 221.355 318.564 221.44C319.098 221.579 319.535 221.734 319.876 221.904C320.228 222.064 320.506 222.251 320.708 222.464C320.922 222.667 321.071 222.902 321.156 223.168C321.242 223.435 321.284 223.734 321.284 224.064C321.284 224.544 321.146 224.976 320.868 225.36C320.602 225.734 320.239 226.027 319.78 226.24C319.322 226.454 318.81 226.56 318.244 226.56ZM323.341 226.4V215.856H324.989V226.4H323.341ZM321.597 219.6V218H326.941V219.6H321.597ZM327.913 226.4V218H329.561V226.4H327.913ZM328.713 216.144C328.361 216.144 328.089 216.054 327.897 215.872C327.705 215.691 327.609 215.435 327.609 215.104C327.609 214.795 327.705 214.544 327.897 214.352C328.1 214.16 328.372 214.064 328.713 214.064C329.065 214.064 329.337 214.155 329.529 214.336C329.721 214.518 329.817 214.774 329.817 215.104C329.817 215.414 329.716 215.664 329.513 215.856C329.321 216.048 329.054 216.144 328.713 216.144ZM332.334 226.4V215.856H333.982V226.4H332.334ZM330.59 219.6V218H335.934V219.6H330.59ZM339.579 226.56C338.982 226.56 338.459 226.422 338.011 226.144C337.574 225.867 337.232 225.478 336.987 224.976C336.752 224.475 336.635 223.878 336.635 223.184V218H338.283V222.736C338.283 223.227 338.358 223.654 338.507 224.016C338.667 224.368 338.891 224.64 339.179 224.832C339.478 225.024 339.835 225.12 340.251 225.12C340.56 225.12 340.843 225.072 341.099 224.976C341.355 224.87 341.574 224.726 341.755 224.544C341.947 224.363 342.096 224.144 342.203 223.888C342.31 223.632 342.363 223.355 342.363 223.056V218H344.011V226.4H342.363V224.64L342.651 224.448C342.523 224.843 342.304 225.2 341.995 225.52C341.696 225.84 341.339 226.096 340.923 226.288C340.507 226.47 340.059 226.56 339.579 226.56ZM346.562 226.4V215.856H348.21V226.4H346.562ZM344.818 219.6V218H350.162V219.6H344.818ZM354.705 226.56C353.841 226.56 353.073 226.379 352.401 226.016C351.74 225.643 351.217 225.136 350.833 224.496C350.46 223.856 350.273 223.12 350.273 222.288C350.273 221.627 350.38 221.024 350.593 220.48C350.806 219.936 351.1 219.467 351.473 219.072C351.857 218.667 352.31 218.358 352.833 218.144C353.366 217.92 353.942 217.808 354.561 217.808C355.105 217.808 355.612 217.915 356.081 218.128C356.55 218.331 356.956 218.614 357.297 218.976C357.649 219.339 357.916 219.771 358.097 220.272C358.289 220.763 358.38 221.302 358.369 221.888L358.353 222.592H351.489L351.121 221.28H356.929L356.689 221.552V221.168C356.657 220.816 356.54 220.502 356.337 220.224C356.134 219.947 355.878 219.728 355.569 219.568C355.26 219.408 354.924 219.328 354.561 219.328C353.985 219.328 353.5 219.44 353.105 219.664C352.71 219.878 352.412 220.198 352.209 220.624C352.006 221.04 351.905 221.558 351.905 222.176C351.905 222.763 352.028 223.275 352.273 223.712C352.518 224.139 352.865 224.47 353.313 224.704C353.761 224.939 354.278 225.056 354.865 225.056C355.281 225.056 355.665 224.987 356.017 224.848C356.38 224.71 356.769 224.459 357.185 224.096L358.017 225.264C357.761 225.52 357.446 225.744 357.073 225.936C356.71 226.128 356.321 226.283 355.905 226.4C355.5 226.507 355.1 226.56 354.705 226.56ZM366.82 226.56C365.999 226.56 365.263 226.374 364.612 226C363.972 225.616 363.466 225.099 363.092 224.448C362.719 223.787 362.532 223.035 362.532 222.192C362.532 221.35 362.719 220.603 363.092 219.952C363.466 219.291 363.972 218.774 364.612 218.4C365.263 218.016 365.999 217.824 366.82 217.824C367.631 217.824 368.356 218.016 368.996 218.4C369.647 218.774 370.159 219.291 370.532 219.952C370.906 220.603 371.092 221.35 371.092 222.192C371.092 223.035 370.906 223.787 370.532 224.448C370.159 225.099 369.647 225.616 368.996 226C368.356 226.374 367.631 226.56 366.82 226.56ZM366.82 225.056C367.322 225.056 367.77 224.934 368.164 224.688C368.559 224.432 368.868 224.091 369.092 223.664C369.316 223.227 369.423 222.736 369.412 222.192C369.423 221.638 369.316 221.147 369.092 220.72C368.868 220.283 368.559 219.942 368.164 219.696C367.77 219.451 367.322 219.328 366.82 219.328C366.319 219.328 365.866 219.456 365.46 219.712C365.066 219.958 364.756 220.299 364.532 220.736C364.308 221.163 364.202 221.648 364.212 222.192C364.202 222.736 364.308 223.227 364.532 223.664C364.756 224.091 365.066 224.432 365.46 224.688C365.866 224.934 366.319 225.056 366.82 225.056ZM372.688 226.4V217.056C372.688 216.576 372.794 216.15 373.008 215.776C373.221 215.403 373.514 215.11 373.888 214.896C374.261 214.683 374.693 214.576 375.184 214.576C375.525 214.576 375.845 214.64 376.144 214.768C376.442 214.896 376.682 215.067 376.864 215.28L376.304 216.544C376.165 216.416 376.01 216.315 375.84 216.24C375.68 216.155 375.525 216.112 375.376 216.112C375.152 216.112 374.96 216.15 374.8 216.224C374.65 216.288 374.538 216.395 374.464 216.544C374.389 216.683 374.352 216.854 374.352 217.056V226.4H373.52C373.381 226.4 373.242 226.4 373.104 226.4C372.965 226.4 372.826 226.4 372.688 226.4ZM371.344 219.664V218.144H376.336V219.664H371.344ZM383.485 226.4V216.864H380.349V215.2H388.445V216.864H385.213V226.4H383.485ZM391.686 226.56C390.822 226.56 390.054 226.379 389.382 226.016C388.721 225.643 388.198 225.136 387.814 224.496C387.441 223.856 387.254 223.12 387.254 222.288C387.254 221.627 387.361 221.024 387.574 220.48C387.788 219.936 388.081 219.467 388.454 219.072C388.838 218.667 389.292 218.358 389.814 218.144C390.348 217.92 390.924 217.808 391.542 217.808C392.086 217.808 392.593 217.915 393.062 218.128C393.532 218.331 393.937 218.614 394.278 218.976C394.63 219.339 394.897 219.771 395.078 220.272C395.27 220.763 395.361 221.302 395.35 221.888L395.334 222.592H388.47L388.102 221.28H393.91L393.67 221.552V221.168C393.638 220.816 393.521 220.502 393.318 220.224C393.116 219.947 392.86 219.728 392.55 219.568C392.241 219.408 391.905 219.328 391.542 219.328C390.966 219.328 390.481 219.44 390.086 219.664C389.692 219.878 389.393 220.198 389.19 220.624C388.988 221.04 388.886 221.558 388.886 222.176C388.886 222.763 389.009 223.275 389.254 223.712C389.5 224.139 389.846 224.47 390.294 224.704C390.742 224.939 391.26 225.056 391.846 225.056C392.262 225.056 392.646 224.987 392.998 224.848C393.361 224.71 393.75 224.459 394.166 224.096L394.998 225.264C394.742 225.52 394.428 225.744 394.054 225.936C393.692 226.128 393.302 226.283 392.886 226.4C392.481 226.507 392.081 226.56 391.686 226.56ZM399.909 226.56C399.131 226.56 398.432 226.368 397.813 225.984C397.205 225.6 396.72 225.078 396.357 224.416C396.005 223.755 395.829 223.014 395.829 222.192C395.829 221.371 396.005 220.63 396.357 219.968C396.72 219.307 397.205 218.784 397.813 218.4C398.432 218.016 399.131 217.824 399.909 217.824C400.656 217.824 401.333 217.979 401.941 218.288C402.56 218.587 403.029 218.998 403.349 219.52L402.437 220.64C402.267 220.395 402.048 220.171 401.781 219.968C401.515 219.766 401.232 219.606 400.933 219.488C400.635 219.371 400.347 219.312 400.069 219.312C399.557 219.312 399.099 219.44 398.693 219.696C398.299 219.942 397.984 220.283 397.749 220.72C397.515 221.158 397.397 221.648 397.397 222.192C397.397 222.736 397.52 223.227 397.765 223.664C398.011 224.091 398.336 224.432 398.741 224.688C399.147 224.944 399.595 225.072 400.085 225.072C400.373 225.072 400.651 225.024 400.917 224.928C401.195 224.832 401.461 224.688 401.717 224.496C401.973 224.304 402.213 224.07 402.437 223.792L403.349 224.912C403.008 225.392 402.517 225.787 401.877 226.096C401.248 226.406 400.592 226.56 399.909 226.56ZM404.104 226.4V214.56H405.752V219.728L405.464 219.92C405.571 219.547 405.779 219.206 406.088 218.896C406.397 218.576 406.765 218.32 407.192 218.128C407.619 217.926 408.056 217.824 408.504 217.824C409.144 217.824 409.677 217.952 410.104 218.208C410.531 218.454 410.851 218.832 411.064 219.344C411.277 219.856 411.384 220.502 411.384 221.28V226.4H409.736V221.392C409.736 220.912 409.672 220.518 409.544 220.208C409.416 219.888 409.219 219.659 408.952 219.52C408.685 219.371 408.355 219.307 407.96 219.328C407.64 219.328 407.347 219.382 407.08 219.488C406.813 219.584 406.579 219.723 406.376 219.904C406.184 220.086 406.029 220.299 405.912 220.544C405.805 220.779 405.752 221.035 405.752 221.312V226.4H404.936C404.797 226.4 404.659 226.4 404.52 226.4C404.381 226.4 404.243 226.4 404.104 226.4ZM412.82 226.4V218H414.468V219.728L414.18 219.92C414.286 219.547 414.494 219.206 414.804 218.896C415.113 218.576 415.481 218.32 415.908 218.128C416.334 217.926 416.772 217.824 417.22 217.824C417.86 217.824 418.393 217.952 418.82 218.208C419.246 218.454 419.566 218.832 419.78 219.344C419.993 219.856 420.1 220.502 420.1 221.28V226.4H418.452V221.392C418.452 220.912 418.388 220.518 418.26 220.208C418.132 219.888 417.934 219.659 417.668 219.52C417.401 219.371 417.07 219.307 416.676 219.328C416.356 219.328 416.062 219.382 415.796 219.488C415.529 219.584 415.294 219.723 415.092 219.904C414.9 220.086 414.745 220.299 414.628 220.544C414.521 220.779 414.468 221.035 414.468 221.312V226.4H413.652C413.513 226.4 413.374 226.4 413.236 226.4C413.097 226.4 412.958 226.4 412.82 226.4ZM425.311 226.56C424.49 226.56 423.754 226.374 423.103 226C422.463 225.616 421.956 225.099 421.583 224.448C421.21 223.787 421.023 223.035 421.023 222.192C421.023 221.35 421.21 220.603 421.583 219.952C421.956 219.291 422.463 218.774 423.103 218.4C423.754 218.016 424.49 217.824 425.311 217.824C426.122 217.824 426.847 218.016 427.487 218.4C428.138 218.774 428.65 219.291 429.023 219.952C429.397 220.603 429.583 221.35 429.583 222.192C429.583 223.035 429.397 223.787 429.023 224.448C428.65 225.099 428.138 225.616 427.487 226C426.847 226.374 426.122 226.56 425.311 226.56ZM425.311 225.056C425.812 225.056 426.26 224.934 426.655 224.688C427.05 224.432 427.359 224.091 427.583 223.664C427.807 223.227 427.914 222.736 427.903 222.192C427.914 221.638 427.807 221.147 427.583 220.72C427.359 220.283 427.05 219.942 426.655 219.696C426.26 219.451 425.812 219.328 425.311 219.328C424.81 219.328 424.356 219.456 423.951 219.712C423.556 219.958 423.247 220.299 423.023 220.736C422.799 221.163 422.692 221.648 422.703 222.192C422.692 222.736 422.799 223.227 423.023 223.664C423.247 224.091 423.556 224.432 423.951 224.688C424.356 224.934 424.81 225.056 425.311 225.056ZM430.611 226.4V214.56H432.259V226.4H430.611ZM437.414 226.56C436.593 226.56 435.857 226.374 435.206 226C434.566 225.616 434.06 225.099 433.686 224.448C433.313 223.787 433.126 223.035 433.126 222.192C433.126 221.35 433.313 220.603 433.686 219.952C434.06 219.291 434.566 218.774 435.206 218.4C435.857 218.016 436.593 217.824 437.414 217.824C438.225 217.824 438.95 218.016 439.59 218.4C440.241 218.774 440.753 219.291 441.126 219.952C441.5 220.603 441.686 221.35 441.686 222.192C441.686 223.035 441.5 223.787 441.126 224.448C440.753 225.099 440.241 225.616 439.59 226C438.95 226.374 438.225 226.56 437.414 226.56ZM437.414 225.056C437.916 225.056 438.364 224.934 438.758 224.688C439.153 224.432 439.462 224.091 439.686 223.664C439.91 223.227 440.017 222.736 440.006 222.192C440.017 221.638 439.91 221.147 439.686 220.72C439.462 220.283 439.153 219.942 438.758 219.696C438.364 219.451 437.916 219.328 437.414 219.328C436.913 219.328 436.46 219.456 436.054 219.712C435.66 219.958 435.35 220.299 435.126 220.736C434.902 221.163 434.796 221.648 434.806 222.192C434.796 222.736 434.902 223.227 435.126 223.664C435.35 224.091 435.66 224.432 436.054 224.688C436.46 224.934 436.913 225.056 437.414 225.056ZM446.442 230.08C445.845 230.08 445.247 229.984 444.65 229.792C444.063 229.611 443.589 229.371 443.226 229.072L443.834 227.792C444.047 227.952 444.298 228.091 444.586 228.208C444.874 228.336 445.178 228.432 445.498 228.496C445.818 228.571 446.133 228.608 446.442 228.608C447.029 228.608 447.519 228.512 447.914 228.32C448.309 228.128 448.607 227.846 448.81 227.472C449.013 227.099 449.114 226.635 449.114 226.08V224.464L449.29 224.576C449.237 224.907 449.061 225.227 448.762 225.536C448.474 225.835 448.111 226.08 447.674 226.272C447.237 226.464 446.789 226.56 446.33 226.56C445.53 226.56 444.815 226.374 444.186 226C443.567 225.616 443.077 225.099 442.714 224.448C442.351 223.787 442.17 223.035 442.17 222.192C442.17 221.35 442.346 220.603 442.698 219.952C443.061 219.291 443.551 218.774 444.17 218.4C444.799 218.016 445.503 217.824 446.282 217.824C446.602 217.824 446.911 217.867 447.21 217.952C447.509 218.027 447.786 218.139 448.042 218.288C448.298 218.427 448.527 218.582 448.73 218.752C448.933 218.923 449.098 219.104 449.226 219.296C449.354 219.488 449.434 219.67 449.466 219.84L449.114 219.968V218H450.762V225.888C450.762 226.56 450.661 227.152 450.458 227.664C450.266 228.187 449.983 228.624 449.61 228.976C449.237 229.339 448.783 229.611 448.25 229.792C447.717 229.984 447.114 230.08 446.442 230.08ZM446.506 225.04C447.029 225.04 447.493 224.918 447.898 224.672C448.303 224.427 448.618 224.091 448.842 223.664C449.066 223.238 449.178 222.747 449.178 222.192C449.178 221.638 449.061 221.147 448.826 220.72C448.602 220.283 448.287 219.942 447.882 219.696C447.487 219.451 447.029 219.328 446.506 219.328C445.994 219.328 445.535 219.456 445.13 219.712C444.735 219.958 444.421 220.299 444.186 220.736C443.962 221.163 443.85 221.648 443.85 222.192C443.85 222.736 443.962 223.227 444.186 223.664C444.421 224.091 444.735 224.427 445.13 224.672C445.535 224.918 445.994 225.04 446.506 225.04ZM453.681 230.08L455.377 226.16L455.393 227.472L451.201 218H453.121L455.745 224.176C455.798 224.283 455.862 224.448 455.937 224.672C456.011 224.886 456.075 225.099 456.129 225.312L455.713 225.408C455.798 225.184 455.878 224.96 455.953 224.736C456.038 224.512 456.118 224.288 456.193 224.064L458.385 218H460.337L456.881 226.4L455.457 230.08H453.681ZM465.366 226.4V217.056C465.366 216.576 465.473 216.15 465.686 215.776C465.899 215.403 466.193 215.11 466.566 214.896C466.939 214.683 467.371 214.576 467.862 214.576C468.203 214.576 468.523 214.64 468.822 214.768C469.121 214.896 469.361 215.067 469.542 215.28L468.982 216.544C468.843 216.416 468.689 216.315 468.518 216.24C468.358 216.155 468.203 216.112 468.054 216.112C467.83 216.112 467.638 216.15 467.478 216.224C467.329 216.288 467.217 216.395 467.142 216.544C467.067 216.683 467.03 216.854 467.03 217.056V226.4H466.198C466.059 226.4 465.921 226.4 465.782 226.4C465.643 226.4 465.505 226.4 465.366 226.4ZM464.022 219.664V218.144H469.014V219.664H464.022ZM473.399 226.56C472.577 226.56 471.841 226.374 471.191 226C470.551 225.616 470.044 225.099 469.671 224.448C469.297 223.787 469.111 223.035 469.111 222.192C469.111 221.35 469.297 220.603 469.671 219.952C470.044 219.291 470.551 218.774 471.191 218.4C471.841 218.016 472.577 217.824 473.399 217.824C474.209 217.824 474.935 218.016 475.575 218.4C476.225 218.774 476.737 219.291 477.111 219.952C477.484 220.603 477.671 221.35 477.671 222.192C477.671 223.035 477.484 223.787 477.111 224.448C476.737 225.099 476.225 225.616 475.575 226C474.935 226.374 474.209 226.56 473.399 226.56ZM473.399 225.056C473.9 225.056 474.348 224.934 474.743 224.688C475.137 224.432 475.447 224.091 475.671 223.664C475.895 223.227 476.001 222.736 475.991 222.192C476.001 221.638 475.895 221.147 475.671 220.72C475.447 220.283 475.137 219.942 474.743 219.696C474.348 219.451 473.9 219.328 473.399 219.328C472.897 219.328 472.444 219.456 472.039 219.712C471.644 219.958 471.335 220.299 471.111 220.736C470.887 221.163 470.78 221.648 470.791 222.192C470.78 222.736 470.887 223.227 471.111 223.664C471.335 224.091 471.644 224.432 472.039 224.688C472.444 224.934 472.897 225.056 473.399 225.056ZM478.667 226.4V218H480.331V220.64L480.171 220C480.288 219.595 480.485 219.227 480.763 218.896C481.051 218.566 481.376 218.304 481.739 218.112C482.112 217.92 482.496 217.824 482.891 217.824C483.072 217.824 483.243 217.84 483.403 217.872C483.573 217.904 483.707 217.942 483.803 217.984L483.371 219.776C483.243 219.723 483.099 219.68 482.939 219.648C482.789 219.606 482.64 219.584 482.491 219.584C482.203 219.584 481.925 219.643 481.659 219.76C481.403 219.867 481.173 220.022 480.971 220.224C480.779 220.416 480.624 220.646 480.507 220.912C480.389 221.168 480.331 221.451 480.331 221.76V226.4H478.667ZM222.869 246.4V235.2H224.597V246.4H222.869ZM215.557 246.4V235.2H217.285V246.4H215.557ZM216.309 241.648V239.984H223.637V241.648H216.309ZM229.745 246.56C229.051 246.56 228.417 246.368 227.841 245.984C227.275 245.6 226.822 245.078 226.481 244.416C226.139 243.755 225.969 243.008 225.969 242.176C225.969 241.334 226.139 240.587 226.481 239.936C226.833 239.275 227.302 238.758 227.889 238.384C228.486 238.011 229.153 237.824 229.889 237.824C230.326 237.824 230.726 237.888 231.089 238.016C231.451 238.144 231.766 238.326 232.033 238.56C232.31 238.784 232.534 239.046 232.705 239.344C232.886 239.643 232.998 239.963 233.041 240.304L232.673 240.176V238H234.337V246.4H232.673V244.4L233.057 244.288C232.993 244.576 232.859 244.859 232.657 245.136C232.465 245.403 232.214 245.643 231.905 245.856C231.606 246.07 231.27 246.24 230.897 246.368C230.534 246.496 230.15 246.56 229.745 246.56ZM230.177 245.04C230.678 245.04 231.121 244.918 231.505 244.672C231.889 244.427 232.187 244.091 232.401 243.664C232.625 243.227 232.737 242.731 232.737 242.176C232.737 241.632 232.625 241.147 232.401 240.72C232.187 240.294 231.889 239.958 231.505 239.712C231.121 239.467 230.678 239.344 230.177 239.344C229.686 239.344 229.249 239.467 228.865 239.712C228.491 239.958 228.193 240.294 227.969 240.72C227.755 241.147 227.649 241.632 227.649 242.176C227.649 242.731 227.755 243.227 227.969 243.664C228.193 244.091 228.491 244.427 228.865 244.672C229.249 244.918 229.686 245.04 230.177 245.04ZM235.838 246.4V238H237.486V239.728L237.198 239.92C237.304 239.547 237.512 239.206 237.822 238.896C238.131 238.576 238.499 238.32 238.926 238.128C239.352 237.926 239.79 237.824 240.238 237.824C240.878 237.824 241.411 237.952 241.838 238.208C242.264 238.454 242.584 238.832 242.798 239.344C243.011 239.856 243.118 240.502 243.118 241.28V246.4H241.47V241.392C241.47 240.912 241.406 240.518 241.278 240.208C241.15 239.888 240.952 239.659 240.686 239.52C240.419 239.371 240.088 239.307 239.694 239.328C239.374 239.328 239.08 239.382 238.814 239.488C238.547 239.584 238.312 239.723 238.11 239.904C237.918 240.086 237.763 240.299 237.646 240.544C237.539 240.779 237.486 241.035 237.486 241.312V246.4H236.67C236.531 246.4 236.392 246.4 236.254 246.4C236.115 246.4 235.976 246.4 235.838 246.4ZM248.057 246.56C247.289 246.56 246.601 246.374 245.993 246C245.396 245.616 244.921 245.099 244.569 244.448C244.217 243.787 244.041 243.035 244.041 242.192C244.041 241.35 244.212 240.603 244.553 239.952C244.905 239.291 245.38 238.774 245.977 238.4C246.575 238.016 247.252 237.824 248.009 237.824C248.425 237.824 248.825 237.894 249.209 238.032C249.604 238.16 249.956 238.342 250.265 238.576C250.575 238.8 250.815 239.051 250.985 239.328C251.167 239.595 251.257 239.867 251.257 240.144L250.777 240.176V234.56H252.425V246.4H250.777V244.4H251.097C251.097 244.656 251.012 244.912 250.841 245.168C250.671 245.414 250.441 245.643 250.153 245.856C249.876 246.07 249.551 246.24 249.177 246.368C248.815 246.496 248.441 246.56 248.057 246.56ZM248.281 245.136C248.783 245.136 249.225 245.008 249.609 244.752C249.993 244.496 250.292 244.15 250.505 243.712C250.729 243.264 250.841 242.758 250.841 242.192C250.841 241.627 250.729 241.126 250.505 240.688C250.292 240.24 249.993 239.888 249.609 239.632C249.225 239.376 248.783 239.248 248.281 239.248C247.78 239.248 247.337 239.376 246.953 239.632C246.569 239.888 246.265 240.24 246.041 240.688C245.828 241.126 245.721 241.627 245.721 242.192C245.721 242.758 245.828 243.264 246.041 243.712C246.265 244.15 246.569 244.496 246.953 244.752C247.337 245.008 247.78 245.136 248.281 245.136ZM254.166 246.4V238H255.814V246.4H254.166ZM254.966 236.144C254.614 236.144 254.342 236.054 254.15 235.872C253.958 235.691 253.862 235.435 253.862 235.104C253.862 234.795 253.958 234.544 254.15 234.352C254.353 234.16 254.625 234.064 254.966 234.064C255.318 234.064 255.59 234.155 255.782 234.336C255.974 234.518 256.07 234.774 256.07 235.104C256.07 235.414 255.969 235.664 255.766 235.856C255.574 236.048 255.307 236.144 254.966 236.144ZM261.115 246.56C260.337 246.56 259.638 246.368 259.019 245.984C258.411 245.6 257.926 245.078 257.563 244.416C257.211 243.755 257.035 243.014 257.035 242.192C257.035 241.371 257.211 240.63 257.563 239.968C257.926 239.307 258.411 238.784 259.019 238.4C259.638 238.016 260.337 237.824 261.115 237.824C261.862 237.824 262.539 237.979 263.147 238.288C263.766 238.587 264.235 238.998 264.555 239.52L263.643 240.64C263.473 240.395 263.254 240.171 262.987 239.968C262.721 239.766 262.438 239.606 262.139 239.488C261.841 239.371 261.553 239.312 261.275 239.312C260.763 239.312 260.305 239.44 259.899 239.696C259.505 239.942 259.19 240.283 258.955 240.72C258.721 241.158 258.603 241.648 258.603 242.192C258.603 242.736 258.726 243.227 258.971 243.664C259.217 244.091 259.542 244.432 259.947 244.688C260.353 244.944 260.801 245.072 261.291 245.072C261.579 245.072 261.857 245.024 262.123 244.928C262.401 244.832 262.667 244.688 262.923 244.496C263.179 244.304 263.419 244.07 263.643 243.792L264.555 244.912C264.214 245.392 263.723 245.787 263.083 246.096C262.454 246.406 261.798 246.56 261.115 246.56ZM268.542 246.56C267.848 246.56 267.214 246.368 266.638 245.984C266.072 245.6 265.619 245.078 265.278 244.416C264.936 243.755 264.766 243.008 264.766 242.176C264.766 241.334 264.936 240.587 265.278 239.936C265.63 239.275 266.099 238.758 266.686 238.384C267.283 238.011 267.95 237.824 268.686 237.824C269.123 237.824 269.523 237.888 269.886 238.016C270.248 238.144 270.563 238.326 270.83 238.56C271.107 238.784 271.331 239.046 271.502 239.344C271.683 239.643 271.795 239.963 271.838 240.304L271.47 240.176V238H273.134V246.4H271.47V244.4L271.854 244.288C271.79 244.576 271.656 244.859 271.454 245.136C271.262 245.403 271.011 245.643 270.702 245.856C270.403 246.07 270.067 246.24 269.694 246.368C269.331 246.496 268.947 246.56 268.542 246.56ZM268.974 245.04C269.475 245.04 269.918 244.918 270.302 244.672C270.686 244.427 270.984 244.091 271.198 243.664C271.422 243.227 271.534 242.731 271.534 242.176C271.534 241.632 271.422 241.147 271.198 240.72C270.984 240.294 270.686 239.958 270.302 239.712C269.918 239.467 269.475 239.344 268.974 239.344C268.483 239.344 268.046 239.467 267.662 239.712C267.288 239.958 266.99 240.294 266.766 240.72C266.552 241.147 266.446 241.632 266.446 242.176C266.446 242.731 266.552 243.227 266.766 243.664C266.99 244.091 267.288 244.427 267.662 244.672C268.046 244.918 268.483 245.04 268.974 245.04ZM274.635 249.92V238H276.299V239.92L276.043 239.776C276.107 239.456 276.288 239.152 276.587 238.864C276.885 238.566 277.248 238.326 277.675 238.144C278.112 237.952 278.56 237.856 279.019 237.856C279.776 237.856 280.448 238.043 281.035 238.416C281.621 238.79 282.085 239.302 282.427 239.952C282.768 240.603 282.939 241.35 282.939 242.192C282.939 243.024 282.768 243.771 282.427 244.432C282.096 245.083 281.637 245.6 281.051 245.984C280.464 246.358 279.803 246.544 279.067 246.544C278.576 246.544 278.101 246.448 277.643 246.256C277.184 246.054 276.795 245.798 276.475 245.488C276.155 245.179 275.957 244.859 275.883 244.528L276.299 244.304V249.92H274.635ZM278.795 245.024C279.285 245.024 279.723 244.902 280.107 244.656C280.491 244.411 280.795 244.075 281.019 243.648C281.243 243.222 281.355 242.736 281.355 242.192C281.355 241.648 281.243 241.168 281.019 240.752C280.805 240.326 280.507 239.99 280.123 239.744C279.739 239.499 279.296 239.376 278.795 239.376C278.293 239.376 277.851 239.499 277.467 239.744C277.083 239.979 276.779 240.31 276.555 240.736C276.331 241.163 276.219 241.648 276.219 242.192C276.219 242.736 276.331 243.222 276.555 243.648C276.779 244.075 277.083 244.411 277.467 244.656C277.851 244.902 278.293 245.024 278.795 245.024ZM283.929 249.92V238H285.593V239.92L285.337 239.776C285.401 239.456 285.582 239.152 285.881 238.864C286.179 238.566 286.542 238.326 286.969 238.144C287.406 237.952 287.854 237.856 288.313 237.856C289.07 237.856 289.742 238.043 290.329 238.416C290.915 238.79 291.379 239.302 291.721 239.952C292.062 240.603 292.233 241.35 292.233 242.192C292.233 243.024 292.062 243.771 291.721 244.432C291.39 245.083 290.931 245.6 290.345 245.984C289.758 246.358 289.097 246.544 288.361 246.544C287.87 246.544 287.395 246.448 286.937 246.256C286.478 246.054 286.089 245.798 285.769 245.488C285.449 245.179 285.251 244.859 285.177 244.528L285.593 244.304V249.92H283.929ZM288.089 245.024C288.579 245.024 289.017 244.902 289.401 244.656C289.785 244.411 290.089 244.075 290.313 243.648C290.537 243.222 290.649 242.736 290.649 242.192C290.649 241.648 290.537 241.168 290.313 240.752C290.099 240.326 289.801 239.99 289.417 239.744C289.033 239.499 288.59 239.376 288.089 239.376C287.587 239.376 287.145 239.499 286.761 239.744C286.377 239.979 286.073 240.31 285.849 240.736C285.625 241.163 285.513 241.648 285.513 242.192C285.513 242.736 285.625 243.222 285.849 243.648C286.073 244.075 286.377 244.411 286.761 244.656C287.145 244.902 287.587 245.024 288.089 245.024ZM297.142 246.56C296.278 246.56 295.51 246.379 294.838 246.016C294.177 245.643 293.654 245.136 293.27 244.496C292.897 243.856 292.71 243.12 292.71 242.288C292.71 241.627 292.817 241.024 293.03 240.48C293.244 239.936 293.537 239.467 293.91 239.072C294.294 238.667 294.748 238.358 295.27 238.144C295.804 237.92 296.38 237.808 296.998 237.808C297.542 237.808 298.049 237.915 298.518 238.128C298.988 238.331 299.393 238.614 299.734 238.976C300.086 239.339 300.353 239.771 300.534 240.272C300.726 240.763 300.817 241.302 300.806 241.888L300.79 242.592H293.926L293.558 241.28H299.366L299.126 241.552V241.168C299.094 240.816 298.977 240.502 298.774 240.224C298.572 239.947 298.316 239.728 298.006 239.568C297.697 239.408 297.361 239.328 296.998 239.328C296.422 239.328 295.937 239.44 295.542 239.664C295.148 239.878 294.849 240.198 294.646 240.624C294.444 241.04 294.342 241.558 294.342 242.176C294.342 242.763 294.465 243.275 294.71 243.712C294.956 244.139 295.302 244.47 295.75 244.704C296.198 244.939 296.716 245.056 297.302 245.056C297.718 245.056 298.102 244.987 298.454 244.848C298.817 244.71 299.206 244.459 299.622 244.096L300.454 245.264C300.198 245.52 299.884 245.744 299.51 245.936C299.148 246.128 298.758 246.283 298.342 246.4C297.937 246.507 297.537 246.56 297.142 246.56ZM305.301 246.56C304.533 246.56 303.845 246.374 303.237 246C302.64 245.616 302.165 245.099 301.813 244.448C301.461 243.787 301.285 243.035 301.285 242.192C301.285 241.35 301.456 240.603 301.797 239.952C302.149 239.291 302.624 238.774 303.221 238.4C303.819 238.016 304.496 237.824 305.253 237.824C305.669 237.824 306.069 237.894 306.453 238.032C306.848 238.16 307.2 238.342 307.509 238.576C307.819 238.8 308.059 239.051 308.229 239.328C308.411 239.595 308.501 239.867 308.501 240.144L308.021 240.176V234.56H309.669V246.4H308.021V244.4H308.341C308.341 244.656 308.256 244.912 308.085 245.168C307.915 245.414 307.685 245.643 307.397 245.856C307.12 246.07 306.795 246.24 306.421 246.368C306.059 246.496 305.685 246.56 305.301 246.56ZM305.525 245.136C306.027 245.136 306.469 245.008 306.853 244.752C307.237 244.496 307.536 244.15 307.749 243.712C307.973 243.264 308.085 242.758 308.085 242.192C308.085 241.627 307.973 241.126 307.749 240.688C307.536 240.24 307.237 239.888 306.853 239.632C306.469 239.376 306.027 239.248 305.525 239.248C305.024 239.248 304.581 239.376 304.197 239.632C303.813 239.888 303.509 240.24 303.285 240.688C303.072 241.126 302.965 241.627 302.965 242.192C302.965 242.758 303.072 243.264 303.285 243.712C303.509 244.15 303.813 244.496 304.197 244.752C304.581 245.008 305.024 245.136 305.525 245.136ZM315.078 249.264L314.47 248.528C314.844 248.315 315.148 248.07 315.382 247.792C315.617 247.515 315.734 247.275 315.734 247.072C315.734 246.966 315.708 246.859 315.654 246.752C315.601 246.656 315.489 246.518 315.318 246.336C315.105 246.134 314.966 245.963 314.902 245.824C314.838 245.686 314.806 245.536 314.806 245.376C314.806 245.12 314.897 244.918 315.078 244.768C315.26 244.608 315.494 244.528 315.782 244.528C316.049 244.528 316.289 244.608 316.502 244.768C316.726 244.918 316.897 245.131 317.014 245.408C317.142 245.675 317.206 245.984 317.206 246.336C317.206 246.656 317.153 246.966 317.046 247.264C316.94 247.563 316.79 247.84 316.598 248.096C316.406 248.352 316.182 248.582 315.926 248.784C315.67 248.987 315.388 249.147 315.078 249.264ZM320.144 243.008L320.048 241.072L325.92 235.2H328.192L320.144 243.008ZM318.704 246.4V235.2H320.432V246.4H318.704ZM326.128 246.4L321.84 240.672L323.12 239.568L328.288 246.4H326.128ZM331.72 246.56C331.027 246.56 330.392 246.368 329.816 245.984C329.251 245.6 328.797 245.078 328.456 244.416C328.115 243.755 327.944 243.008 327.944 242.176C327.944 241.334 328.115 240.587 328.456 239.936C328.808 239.275 329.277 238.758 329.864 238.384C330.461 238.011 331.128 237.824 331.864 237.824C332.301 237.824 332.701 237.888 333.064 238.016C333.427 238.144 333.741 238.326 334.008 238.56C334.285 238.784 334.509 239.046 334.68 239.344C334.861 239.643 334.973 239.963 335.016 240.304L334.648 240.176V238H336.312V246.4H334.648V244.4L335.032 244.288C334.968 244.576 334.835 244.859 334.632 245.136C334.44 245.403 334.189 245.643 333.88 245.856C333.581 246.07 333.245 246.24 332.872 246.368C332.509 246.496 332.125 246.56 331.72 246.56ZM332.152 245.04C332.653 245.04 333.096 244.918 333.48 244.672C333.864 244.427 334.163 244.091 334.376 243.664C334.6 243.227 334.712 242.731 334.712 242.176C334.712 241.632 334.6 241.147 334.376 240.72C334.163 240.294 333.864 239.958 333.48 239.712C333.096 239.467 332.653 239.344 332.152 239.344C331.661 239.344 331.224 239.467 330.84 239.712C330.467 239.958 330.168 240.294 329.944 240.72C329.731 241.147 329.624 241.632 329.624 242.176C329.624 242.731 329.731 243.227 329.944 243.664C330.168 244.091 330.467 244.427 330.84 244.672C331.224 244.918 331.661 245.04 332.152 245.04ZM337.813 246.4V238H339.461V239.728L339.173 239.92C339.28 239.547 339.488 239.206 339.797 238.896C340.106 238.576 340.474 238.32 340.901 238.128C341.328 237.926 341.765 237.824 342.213 237.824C342.853 237.824 343.386 237.952 343.813 238.208C344.24 238.454 344.56 238.832 344.773 239.344C344.986 239.856 345.093 240.502 345.093 241.28V246.4H343.445V241.392C343.445 240.912 343.381 240.518 343.253 240.208C343.125 239.888 342.928 239.659 342.661 239.52C342.394 239.371 342.064 239.307 341.669 239.328C341.349 239.328 341.056 239.382 340.789 239.488C340.522 239.584 340.288 239.723 340.085 239.904C339.893 240.086 339.738 240.299 339.621 240.544C339.514 240.779 339.461 241.035 339.461 241.312V246.4H338.645C338.506 246.4 338.368 246.4 338.229 246.4C338.09 246.4 337.952 246.4 337.813 246.4ZM346.529 249.92V238H348.193V239.92L347.937 239.776C348.001 239.456 348.182 239.152 348.481 238.864C348.779 238.566 349.142 238.326 349.569 238.144C350.006 237.952 350.454 237.856 350.913 237.856C351.67 237.856 352.342 238.043 352.929 238.416C353.515 238.79 353.979 239.302 354.321 239.952C354.662 240.603 354.833 241.35 354.833 242.192C354.833 243.024 354.662 243.771 354.321 244.432C353.99 245.083 353.531 245.6 352.945 245.984C352.358 246.358 351.697 246.544 350.961 246.544C350.47 246.544 349.995 246.448 349.537 246.256C349.078 246.054 348.689 245.798 348.369 245.488C348.049 245.179 347.851 244.859 347.777 244.528L348.193 244.304V249.92H346.529ZM350.689 245.024C351.179 245.024 351.617 244.902 352.001 244.656C352.385 244.411 352.689 244.075 352.913 243.648C353.137 243.222 353.249 242.736 353.249 242.192C353.249 241.648 353.137 241.168 352.913 240.752C352.699 240.326 352.401 239.99 352.017 239.744C351.633 239.499 351.19 239.376 350.689 239.376C350.187 239.376 349.745 239.499 349.361 239.744C348.977 239.979 348.673 240.31 348.449 240.736C348.225 241.163 348.113 241.648 348.113 242.192C348.113 242.736 348.225 243.222 348.449 243.648C348.673 244.075 348.977 244.411 349.361 244.656C349.745 244.902 350.187 245.024 350.689 245.024ZM358.766 246.56C358.169 246.56 357.646 246.422 357.198 246.144C356.761 245.867 356.42 245.478 356.174 244.976C355.94 244.475 355.822 243.878 355.822 243.184V238H357.47V242.736C357.47 243.227 357.545 243.654 357.694 244.016C357.854 244.368 358.078 244.64 358.366 244.832C358.665 245.024 359.022 245.12 359.438 245.12C359.748 245.12 360.03 245.072 360.286 244.976C360.542 244.87 360.761 244.726 360.942 244.544C361.134 244.363 361.284 244.144 361.39 243.888C361.497 243.632 361.55 243.355 361.55 243.056V238H363.198V246.4H361.55V244.64L361.838 244.448C361.71 244.843 361.492 245.2 361.182 245.52C360.884 245.84 360.526 246.096 360.11 246.288C359.694 246.47 359.246 246.56 358.766 246.56ZM364.71 246.4V238H366.374V240.64L366.214 240C366.331 239.595 366.529 239.227 366.806 238.896C367.094 238.566 367.419 238.304 367.782 238.112C368.155 237.92 368.539 237.824 368.934 237.824C369.115 237.824 369.286 237.84 369.446 237.872C369.617 237.904 369.75 237.942 369.846 237.984L369.414 239.776C369.286 239.723 369.142 239.68 368.982 239.648C368.833 239.606 368.683 239.584 368.534 239.584C368.246 239.584 367.969 239.643 367.702 239.76C367.446 239.867 367.217 240.022 367.014 240.224C366.822 240.416 366.667 240.646 366.55 240.912C366.433 241.168 366.374 241.451 366.374 241.76V246.4H364.71Z" fill="#666666"/>
</svg>
