<svg width="584" height="311" viewBox="0 0 584 311" fill="none" xmlns="http://www.w3.org/2000/svg">
<rect x="-0.448398" y="1.63675" width="60.5213" height="19.1176" rx="9.5588" transform="matrix(-0.868809 0.495148 0.495144 0.868811 277.517 81.4367)" fill="#EF5350" stroke="#EF5350" stroke-width="2.40001"/>
<rect x="-0.448398" y="1.63675" width="60.5213" height="19.1176" rx="9.5588" transform="matrix(-0.868809 0.495148 0.495144 0.868811 347.862 101.988)" fill="#FBBC04" stroke="#FBBC04" stroke-width="2.40001"/>
<rect x="0.448398" y="1.63675" width="60.5213" height="19.1176" rx="9.5588" transform="matrix(0.868809 0.495148 -0.495144 0.868811 236.022 101.543)" fill="#4285F4" stroke="#4285F4" stroke-width="2.40001"/>
<path d="M340.757 124.48L304.785 103.979C300.199 101.365 298.599 95.5277 301.213 90.9411C303.827 86.3545 309.665 84.7553 314.251 87.3693L350.223 107.87C354.81 110.484 356.409 116.321 353.795 120.908C351.181 125.495 345.344 127.094 340.757 124.48Z" fill="#4CAF50" stroke="#4CAF50" stroke-width="2.40001"/>
<path d="M110.638 201.744C108.895 201.744 107.267 201.435 105.754 200.816C104.24 200.173 102.91 199.291 101.763 198.167C100.617 197.043 99.7221 195.736 99.08 194.245C98.4608 192.732 98.1512 191.103 98.1512 189.36C98.1512 187.64 98.4608 186.035 99.08 184.544C99.7221 183.054 100.605 181.758 101.729 180.657C102.875 179.533 104.206 178.662 105.719 178.043C107.233 177.424 108.861 177.114 110.604 177.114C111.82 177.114 113.001 177.286 114.147 177.63C115.317 177.974 116.372 178.456 117.312 179.075C118.252 179.694 119.021 180.405 119.617 181.208L117.209 183.719C116.521 183.054 115.81 182.503 115.076 182.068C114.365 181.632 113.631 181.299 112.874 181.07C112.118 180.841 111.361 180.726 110.604 180.726C109.366 180.726 108.219 180.944 107.164 181.38C106.132 181.815 105.215 182.423 104.412 183.203C103.632 183.982 103.025 184.9 102.589 185.955C102.153 186.987 101.935 188.122 101.935 189.36C101.935 190.553 102.165 191.688 102.623 192.766C103.082 193.821 103.713 194.75 104.515 195.552C105.341 196.355 106.281 196.986 107.336 197.444C108.414 197.903 109.549 198.132 110.742 198.132C111.636 198.132 112.485 198.006 113.287 197.754C114.09 197.479 114.801 197.1 115.42 196.619C116.039 196.137 116.521 195.587 116.865 194.968C117.209 194.325 117.381 193.649 117.381 192.938V192.25L117.897 192.732H110.535V189.051H121.199C121.245 189.303 121.28 189.555 121.302 189.808C121.325 190.037 121.337 190.266 121.337 190.496C121.36 190.702 121.371 190.908 121.371 191.115C121.371 192.697 121.096 194.142 120.546 195.449C119.995 196.733 119.227 197.846 118.241 198.786C117.278 199.726 116.142 200.46 114.835 200.988C113.551 201.492 112.152 201.744 110.638 201.744ZM131.713 201.744C129.947 201.744 128.365 201.343 126.966 200.54C125.59 199.715 124.5 198.603 123.698 197.204C122.895 195.782 122.494 194.165 122.494 192.353C122.494 190.541 122.895 188.936 123.698 187.537C124.5 186.115 125.59 185.003 126.966 184.2C128.365 183.375 129.947 182.962 131.713 182.962C133.456 182.962 135.015 183.375 136.391 184.2C137.79 185.003 138.891 186.115 139.694 187.537C140.496 188.936 140.898 190.541 140.898 192.353C140.898 194.165 140.496 195.782 139.694 197.204C138.891 198.603 137.79 199.715 136.391 200.54C135.015 201.343 133.456 201.744 131.713 201.744ZM131.713 198.511C132.791 198.511 133.754 198.247 134.602 197.72C135.451 197.169 136.116 196.435 136.598 195.518C137.079 194.578 137.309 193.523 137.286 192.353C137.309 191.161 137.079 190.106 136.598 189.188C136.116 188.248 135.451 187.514 134.602 186.987C133.754 186.459 132.791 186.196 131.713 186.196C130.635 186.196 129.66 186.471 128.789 187.021C127.94 187.549 127.275 188.282 126.794 189.223C126.312 190.14 126.083 191.184 126.106 192.353C126.083 193.523 126.312 194.578 126.794 195.518C127.275 196.435 127.94 197.169 128.789 197.72C129.66 198.247 130.635 198.511 131.713 198.511ZM151.157 201.744C149.391 201.744 147.809 201.343 146.41 200.54C145.034 199.715 143.944 198.603 143.142 197.204C142.339 195.782 141.938 194.165 141.938 192.353C141.938 190.541 142.339 188.936 143.142 187.537C143.944 186.115 145.034 185.003 146.41 184.2C147.809 183.375 149.391 182.962 151.157 182.962C152.9 182.962 154.459 183.375 155.835 184.2C157.234 185.003 158.335 186.115 159.138 187.537C159.94 188.936 160.342 190.541 160.342 192.353C160.342 194.165 159.94 195.782 159.138 197.204C158.335 198.603 157.234 199.715 155.835 200.54C154.459 201.343 152.9 201.744 151.157 201.744ZM151.157 198.511C152.235 198.511 153.198 198.247 154.047 197.72C154.895 197.169 155.56 196.435 156.042 195.518C156.523 194.578 156.753 193.523 156.73 192.353C156.753 191.161 156.523 190.106 156.042 189.188C155.56 188.248 154.895 187.514 154.047 186.987C153.198 186.459 152.235 186.196 151.157 186.196C150.079 186.196 149.104 186.471 148.233 187.021C147.384 187.549 146.719 188.282 146.238 189.223C145.756 190.14 145.527 191.184 145.55 192.353C145.527 193.523 145.756 194.578 146.238 195.518C146.719 196.435 147.384 197.169 148.233 197.72C149.104 198.247 150.079 198.511 151.157 198.511ZM170.567 209.312C169.282 209.312 167.998 209.106 166.714 208.693C165.452 208.303 164.432 207.787 163.652 207.145L164.959 204.393C165.418 204.737 165.957 205.035 166.576 205.288C167.195 205.563 167.849 205.769 168.537 205.907C169.225 206.067 169.902 206.148 170.567 206.148C171.828 206.148 172.883 205.941 173.731 205.528C174.58 205.116 175.222 204.508 175.658 203.705C176.094 202.903 176.311 201.905 176.311 200.712V197.238L176.69 197.479C176.575 198.19 176.197 198.878 175.555 199.543C174.935 200.185 174.156 200.712 173.215 201.125C172.275 201.538 171.312 201.744 170.326 201.744C168.606 201.744 167.069 201.343 165.716 200.54C164.386 199.715 163.331 198.603 162.551 197.204C161.772 195.782 161.382 194.165 161.382 192.353C161.382 190.541 161.76 188.936 162.517 187.537C163.297 186.115 164.352 185.003 165.682 184.2C167.035 183.375 168.548 182.962 170.223 182.962C170.911 182.962 171.576 183.054 172.218 183.237C172.86 183.398 173.456 183.638 174.007 183.96C174.557 184.258 175.05 184.59 175.486 184.957C175.922 185.324 176.277 185.714 176.552 186.127C176.827 186.54 176.999 186.929 177.068 187.296L176.311 187.572V183.34H179.855V200.3C179.855 201.744 179.637 203.017 179.201 204.118C178.788 205.242 178.181 206.182 177.378 206.939C176.575 207.719 175.6 208.303 174.454 208.693C173.307 209.106 172.011 209.312 170.567 209.312ZM170.704 198.476C171.828 198.476 172.826 198.213 173.697 197.685C174.568 197.158 175.245 196.435 175.727 195.518C176.208 194.601 176.449 193.546 176.449 192.353C176.449 191.161 176.197 190.106 175.692 189.188C175.211 188.248 174.534 187.514 173.663 186.987C172.814 186.459 171.828 186.196 170.704 186.196C169.603 186.196 168.617 186.471 167.746 187.021C166.897 187.549 166.221 188.282 165.716 189.223C165.235 190.14 164.994 191.184 164.994 192.353C164.994 193.523 165.235 194.578 165.716 195.518C166.221 196.435 166.897 197.158 167.746 197.685C168.617 198.213 169.603 198.476 170.704 198.476ZM183.171 201.4V175.944H186.715V201.4H183.171ZM198.108 201.744C196.251 201.744 194.599 201.355 193.155 200.575C191.733 199.772 190.609 198.683 189.783 197.307C188.981 195.931 188.579 194.348 188.579 192.56C188.579 191.138 188.809 189.842 189.267 188.672C189.726 187.503 190.357 186.494 191.159 185.645C191.985 184.774 192.96 184.109 194.083 183.65C195.23 183.168 196.468 182.928 197.799 182.928C198.968 182.928 200.058 183.157 201.067 183.616C202.076 184.051 202.947 184.659 203.681 185.439C204.438 186.218 205.011 187.147 205.401 188.225C205.814 189.28 206.009 190.438 205.986 191.7L205.951 193.213H191.194L190.403 190.392H202.89L202.374 190.977V190.152C202.305 189.395 202.053 188.718 201.617 188.122C201.181 187.526 200.631 187.056 199.966 186.712C199.301 186.368 198.578 186.196 197.799 186.196C196.56 186.196 195.517 186.436 194.668 186.918C193.82 187.377 193.178 188.065 192.742 188.982C192.306 189.876 192.088 190.989 192.088 192.319C192.088 193.58 192.352 194.681 192.879 195.621C193.407 196.539 194.152 197.249 195.115 197.754C196.079 198.259 197.191 198.511 198.452 198.511C199.347 198.511 200.172 198.362 200.929 198.064C201.709 197.765 202.546 197.227 203.44 196.447L205.229 198.958C204.679 199.508 204.002 199.99 203.199 200.403C202.42 200.816 201.583 201.148 200.688 201.4C199.817 201.63 198.957 201.744 198.108 201.744ZM216.932 201.4V177.32H226.358C228.078 177.32 229.626 177.607 231.002 178.18C232.401 178.754 233.593 179.579 234.58 180.657C235.566 181.735 236.322 183.008 236.85 184.476C237.377 185.943 237.641 187.572 237.641 189.36C237.641 191.149 237.377 192.789 236.85 194.28C236.322 195.747 235.566 197.02 234.58 198.098C233.616 199.153 232.435 199.967 231.036 200.54C229.637 201.114 228.078 201.4 226.358 201.4H216.932ZM220.647 198.201L220.544 197.823H226.186C227.401 197.823 228.479 197.628 229.42 197.238C230.383 196.848 231.185 196.298 231.828 195.587C232.493 194.853 232.997 193.959 233.341 192.904C233.685 191.849 233.857 190.668 233.857 189.36C233.857 188.053 233.685 186.884 233.341 185.852C232.997 184.797 232.493 183.902 231.828 183.168C231.162 182.434 230.36 181.873 229.42 181.483C228.479 181.093 227.401 180.898 226.186 180.898H220.441L220.647 180.588V198.201ZM248.479 201.744C246.621 201.744 244.97 201.355 243.525 200.575C242.103 199.772 240.98 198.683 240.154 197.307C239.351 195.931 238.95 194.348 238.95 192.56C238.95 191.138 239.179 189.842 239.638 188.672C240.097 187.503 240.727 186.494 241.53 185.645C242.356 184.774 243.33 184.109 244.454 183.65C245.601 183.168 246.839 182.928 248.169 182.928C249.339 182.928 250.428 183.157 251.437 183.616C252.446 184.051 253.318 184.659 254.052 185.439C254.808 186.218 255.382 187.147 255.772 188.225C256.184 189.28 256.379 190.438 256.356 191.7L256.322 193.213H241.564L240.773 190.392H253.26L252.744 190.977V190.152C252.676 189.395 252.423 188.718 251.988 188.122C251.552 187.526 251.001 187.056 250.336 186.712C249.671 186.368 248.949 186.196 248.169 186.196C246.931 186.196 245.887 186.436 245.039 186.918C244.19 187.377 243.548 188.065 243.112 188.982C242.677 189.876 242.459 190.989 242.459 192.319C242.459 193.58 242.723 194.681 243.25 195.621C243.777 196.539 244.523 197.249 245.486 197.754C246.449 198.259 247.561 198.511 248.823 198.511C249.717 198.511 250.543 198.362 251.3 198.064C252.079 197.765 252.916 197.227 253.811 196.447L255.6 198.958C255.049 199.508 254.373 199.99 253.57 200.403C252.79 200.816 251.953 201.148 251.059 201.4C250.187 201.63 249.327 201.744 248.479 201.744ZM264.068 201.4L256.431 183.34H260.25L265.754 196.86L265.1 197.169L270.982 183.34H274.629L266.614 201.4H264.068ZM284.075 201.744C282.217 201.744 280.566 201.355 279.121 200.575C277.699 199.772 276.576 198.683 275.75 197.307C274.947 195.931 274.546 194.348 274.546 192.56C274.546 191.138 274.775 189.842 275.234 188.672C275.693 187.503 276.323 186.494 277.126 185.645C277.952 184.774 278.926 184.109 280.05 183.65C281.197 183.168 282.435 182.928 283.765 182.928C284.935 182.928 286.024 183.157 287.033 183.616C288.042 184.051 288.914 184.659 289.648 185.439C290.404 186.218 290.978 187.147 291.368 188.225C291.78 189.28 291.975 190.438 291.952 191.7L291.918 193.213H277.16L276.369 190.392H288.856L288.34 190.977V190.152C288.272 189.395 288.019 188.718 287.584 188.122C287.148 187.526 286.597 187.056 285.932 186.712C285.267 186.368 284.545 186.196 283.765 186.196C282.527 186.196 281.483 186.436 280.635 186.918C279.786 187.377 279.144 188.065 278.708 188.982C278.273 189.876 278.055 190.989 278.055 192.319C278.055 193.58 278.319 194.681 278.846 195.621C279.373 196.539 280.119 197.249 281.082 197.754C282.045 198.259 283.157 198.511 284.419 198.511C285.313 198.511 286.139 198.362 286.896 198.064C287.675 197.765 288.512 197.227 289.407 196.447L291.196 198.958C290.645 199.508 289.969 199.99 289.166 200.403C288.386 200.816 287.549 201.148 286.655 201.4C285.783 201.63 284.923 201.744 284.075 201.744ZM294.152 201.4V175.944H297.695V201.4H294.152ZM308.779 201.744C307.013 201.744 305.431 201.343 304.032 200.54C302.656 199.715 301.567 198.603 300.764 197.204C299.961 195.782 299.56 194.165 299.56 192.353C299.56 190.541 299.961 188.936 300.764 187.537C301.567 186.115 302.656 185.003 304.032 184.2C305.431 183.375 307.013 182.962 308.779 182.962C310.522 182.962 312.082 183.375 313.458 184.2C314.857 185.003 315.957 186.115 316.76 187.537C317.563 188.936 317.964 190.541 317.964 192.353C317.964 194.165 317.563 195.782 316.76 197.204C315.957 198.603 314.857 199.715 313.458 200.54C312.082 201.343 310.522 201.744 308.779 201.744ZM308.779 198.511C309.857 198.511 310.82 198.247 311.669 197.72C312.517 197.169 313.182 196.435 313.664 195.518C314.146 194.578 314.375 193.523 314.352 192.353C314.375 191.161 314.146 190.106 313.664 189.188C313.182 188.248 312.517 187.514 311.669 186.987C310.82 186.459 309.857 186.196 308.779 186.196C307.701 186.196 306.727 186.471 305.855 187.021C305.007 187.549 304.342 188.282 303.86 189.223C303.378 190.14 303.149 191.184 303.172 192.353C303.149 193.523 303.378 194.578 303.86 195.518C304.342 196.435 305.007 197.169 305.855 197.72C306.727 198.247 307.701 198.511 308.779 198.511ZM320.105 208.968V183.34H323.682V187.468L323.132 187.159C323.27 186.471 323.66 185.817 324.302 185.198C324.944 184.556 325.724 184.04 326.641 183.65C327.581 183.237 328.544 183.031 329.53 183.031C331.159 183.031 332.604 183.432 333.865 184.235C335.126 185.037 336.124 186.138 336.858 187.537C337.592 188.936 337.959 190.541 337.959 192.353C337.959 194.142 337.592 195.747 336.858 197.169C336.147 198.568 335.161 199.68 333.899 200.506C332.638 201.309 331.216 201.71 329.634 201.71C328.579 201.71 327.558 201.504 326.572 201.091C325.586 200.655 324.749 200.105 324.061 199.44C323.373 198.775 322.949 198.087 322.788 197.376L323.682 196.894V208.968H320.105ZM329.049 198.442C330.104 198.442 331.044 198.178 331.87 197.651C332.695 197.123 333.349 196.401 333.831 195.484C334.312 194.566 334.553 193.523 334.553 192.353C334.553 191.184 334.312 190.152 333.831 189.257C333.372 188.34 332.73 187.617 331.904 187.09C331.079 186.562 330.127 186.299 329.049 186.299C327.971 186.299 327.019 186.562 326.194 187.09C325.368 187.594 324.714 188.305 324.233 189.223C323.751 190.14 323.51 191.184 323.51 192.353C323.51 193.523 323.751 194.566 324.233 195.484C324.714 196.401 325.368 197.123 326.194 197.651C327.019 198.178 327.971 198.442 329.049 198.442ZM348.515 201.744C346.657 201.744 345.006 201.355 343.561 200.575C342.139 199.772 341.015 198.683 340.19 197.307C339.387 195.931 338.986 194.348 338.986 192.56C338.986 191.138 339.215 189.842 339.674 188.672C340.132 187.503 340.763 186.494 341.566 185.645C342.391 184.774 343.366 184.109 344.49 183.65C345.636 183.168 346.875 182.928 348.205 182.928C349.375 182.928 350.464 183.157 351.473 183.616C352.482 184.051 353.353 184.659 354.087 185.439C354.844 186.218 355.417 187.147 355.807 188.225C356.22 189.28 356.415 190.438 356.392 191.7L356.358 193.213H341.6L340.809 190.392H353.296L352.78 190.977V190.152C352.711 189.395 352.459 188.718 352.023 188.122C351.588 187.526 351.037 187.056 350.372 186.712C349.707 186.368 348.985 186.196 348.205 186.196C346.967 186.196 345.923 186.436 345.074 186.918C344.226 187.377 343.584 188.065 343.148 188.982C342.712 189.876 342.494 190.989 342.494 192.319C342.494 193.58 342.758 194.681 343.286 195.621C343.813 196.539 344.558 197.249 345.522 197.754C346.485 198.259 347.597 198.511 348.859 198.511C349.753 198.511 350.579 198.362 351.335 198.064C352.115 197.765 352.952 197.227 353.847 196.447L355.635 198.958C355.085 199.508 354.408 199.99 353.606 200.403C352.826 200.816 351.989 201.148 351.095 201.4C350.223 201.63 349.363 201.744 348.515 201.744ZM358.523 201.4V183.34H362.1V189.016L361.756 187.64C362.009 186.769 362.433 185.978 363.029 185.267C363.648 184.556 364.348 183.994 365.128 183.581C365.93 183.168 366.756 182.962 367.604 182.962C367.994 182.962 368.361 182.996 368.705 183.065C369.072 183.134 369.359 183.214 369.565 183.306L368.636 187.159C368.361 187.044 368.052 186.952 367.708 186.884C367.387 186.792 367.065 186.746 366.744 186.746C366.125 186.746 365.529 186.872 364.956 187.124C364.405 187.354 363.912 187.686 363.476 188.122C363.064 188.535 362.731 189.028 362.479 189.601C362.227 190.152 362.1 190.759 362.1 191.424V201.4H358.523ZM390.26 201.744C388.517 201.744 386.889 201.435 385.375 200.816C383.862 200.173 382.532 199.291 381.385 198.167C380.238 197.043 379.344 195.736 378.702 194.245C378.082 192.732 377.773 191.103 377.773 189.36C377.773 187.64 378.082 186.035 378.702 184.544C379.344 183.054 380.227 181.758 381.35 180.657C382.497 179.533 383.827 178.662 385.341 178.043C386.855 177.424 388.483 177.114 390.226 177.114C391.441 177.114 392.622 177.286 393.769 177.63C394.939 177.974 395.993 178.456 396.934 179.075C397.874 179.694 398.642 180.405 399.239 181.208L396.831 183.719C396.143 183.054 395.432 182.503 394.698 182.068C393.987 181.632 393.253 181.299 392.496 181.07C391.739 180.841 390.983 180.726 390.226 180.726C388.987 180.726 387.841 180.944 386.786 181.38C385.754 181.815 384.836 182.423 384.034 183.203C383.254 183.982 382.646 184.9 382.21 185.955C381.775 186.987 381.557 188.122 381.557 189.36C381.557 190.553 381.786 191.688 382.245 192.766C382.704 193.821 383.334 194.75 384.137 195.552C384.962 196.355 385.903 196.986 386.958 197.444C388.036 197.903 389.171 198.132 390.363 198.132C391.258 198.132 392.106 198.006 392.909 197.754C393.712 197.479 394.423 197.1 395.042 196.619C395.661 196.137 396.143 195.587 396.487 194.968C396.831 194.325 397.003 193.649 397.003 192.938V192.25L397.519 192.732H390.157V189.051H400.821C400.867 189.303 400.901 189.555 400.924 189.808C400.947 190.037 400.959 190.266 400.959 190.496C400.981 190.702 400.993 190.908 400.993 191.115C400.993 192.697 400.718 194.142 400.167 195.449C399.617 196.733 398.849 197.846 397.863 198.786C396.899 199.726 395.764 200.46 394.457 200.988C393.173 201.492 391.774 201.744 390.26 201.744ZM403.216 201.4V183.34H406.794V189.016L406.45 187.64C406.702 186.769 407.126 185.978 407.722 185.267C408.342 184.556 409.041 183.994 409.821 183.581C410.624 183.168 411.449 182.962 412.298 182.962C412.688 182.962 413.054 182.996 413.398 183.065C413.765 183.134 414.052 183.214 414.258 183.306L413.33 187.159C413.054 187.044 412.745 186.952 412.401 186.884C412.08 186.792 411.759 186.746 411.438 186.746C410.818 186.746 410.222 186.872 409.649 187.124C409.098 187.354 408.605 187.686 408.17 188.122C407.757 188.535 407.424 189.028 407.172 189.601C406.92 190.152 406.794 190.759 406.794 191.424V201.4H403.216ZM422.716 201.744C420.95 201.744 419.368 201.343 417.969 200.54C416.593 199.715 415.503 198.603 414.701 197.204C413.898 195.782 413.497 194.165 413.497 192.353C413.497 190.541 413.898 188.936 414.701 187.537C415.503 186.115 416.593 185.003 417.969 184.2C419.368 183.375 420.95 182.962 422.716 182.962C424.459 182.962 426.018 183.375 427.394 184.2C428.793 185.003 429.894 186.115 430.697 187.537C431.5 188.936 431.901 190.541 431.901 192.353C431.901 194.165 431.5 195.782 430.697 197.204C429.894 198.603 428.793 199.715 427.394 200.54C426.018 201.343 424.459 201.744 422.716 201.744ZM422.716 198.511C423.794 198.511 424.757 198.247 425.606 197.72C426.454 197.169 427.119 196.435 427.601 195.518C428.082 194.578 428.312 193.523 428.289 192.353C428.312 191.161 428.082 190.106 427.601 189.188C427.119 188.248 426.454 187.514 425.606 186.987C424.757 186.459 423.794 186.196 422.716 186.196C421.638 186.196 420.664 186.471 419.792 187.021C418.944 187.549 418.278 188.282 417.797 189.223C417.315 190.14 417.086 191.184 417.109 192.353C417.086 193.523 417.315 194.578 417.797 195.518C418.278 196.435 418.944 197.169 419.792 197.72C420.664 198.247 421.638 198.511 422.716 198.511ZM440.371 201.744C439.087 201.744 437.963 201.446 437 200.85C436.06 200.254 435.326 199.417 434.799 198.339C434.294 197.261 434.042 195.977 434.042 194.486V183.34H437.585V193.523C437.585 194.578 437.745 195.495 438.067 196.275C438.411 197.032 438.892 197.616 439.511 198.029C440.153 198.442 440.922 198.648 441.816 198.648C442.481 198.648 443.089 198.545 443.639 198.339C444.19 198.109 444.66 197.8 445.05 197.41C445.463 197.02 445.784 196.55 446.013 196C446.242 195.449 446.357 194.853 446.357 194.211V183.34H449.9V201.4H446.357V197.616L446.976 197.204C446.701 198.052 446.231 198.82 445.566 199.508C444.924 200.196 444.155 200.747 443.261 201.16C442.367 201.549 441.403 201.744 440.371 201.744ZM453.15 208.968V183.34H456.728V187.468L456.177 187.159C456.315 186.471 456.705 185.817 457.347 185.198C457.989 184.556 458.769 184.04 459.686 183.65C460.626 183.237 461.589 183.031 462.576 183.031C464.204 183.031 465.649 183.432 466.91 184.235C468.171 185.037 469.169 186.138 469.903 187.537C470.637 188.936 471.004 190.541 471.004 192.353C471.004 194.142 470.637 195.747 469.903 197.169C469.192 198.568 468.206 199.68 466.944 200.506C465.683 201.309 464.261 201.71 462.679 201.71C461.624 201.71 460.603 201.504 459.617 201.091C458.631 200.655 457.794 200.105 457.106 199.44C456.418 198.775 455.994 198.087 455.833 197.376L456.728 196.894V208.968H453.15ZM462.094 198.442C463.149 198.442 464.089 198.178 464.915 197.651C465.74 197.123 466.394 196.401 466.876 195.484C467.357 194.566 467.598 193.523 467.598 192.353C467.598 191.184 467.357 190.152 466.876 189.257C466.417 188.34 465.775 187.617 464.949 187.09C464.124 186.562 463.172 186.299 462.094 186.299C461.016 186.299 460.064 186.562 459.239 187.09C458.413 187.594 457.76 188.305 457.278 189.223C456.796 190.14 456.556 191.184 456.556 192.353C456.556 193.523 456.796 194.566 457.278 195.484C457.76 196.401 458.413 197.123 459.239 197.651C460.064 198.178 461.016 198.442 462.094 198.442ZM479.152 201.744C477.638 201.744 476.273 201.481 475.058 200.953C473.842 200.426 472.833 199.646 472.031 198.614L474.439 196.55C475.127 197.353 475.872 197.937 476.675 198.304C477.5 198.648 478.429 198.82 479.461 198.82C479.874 198.82 480.252 198.775 480.596 198.683C480.963 198.568 481.273 198.408 481.525 198.201C481.8 197.995 482.007 197.754 482.144 197.479C482.282 197.181 482.351 196.86 482.351 196.516C482.351 195.919 482.133 195.438 481.697 195.071C481.468 194.91 481.101 194.738 480.596 194.555C480.115 194.348 479.484 194.142 478.704 193.936C477.374 193.592 476.285 193.202 475.436 192.766C474.588 192.33 473.934 191.837 473.476 191.287C473.132 190.851 472.879 190.381 472.719 189.876C472.558 189.349 472.478 188.776 472.478 188.156C472.478 187.4 472.638 186.712 472.96 186.092C473.304 185.45 473.762 184.9 474.336 184.441C474.932 183.96 475.62 183.593 476.4 183.34C477.202 183.088 478.051 182.962 478.945 182.962C479.794 182.962 480.631 183.077 481.456 183.306C482.305 183.535 483.085 183.868 483.796 184.304C484.506 184.739 485.103 185.255 485.584 185.852L483.555 188.088C483.119 187.652 482.637 187.273 482.11 186.952C481.605 186.608 481.089 186.345 480.562 186.161C480.034 185.978 479.553 185.886 479.117 185.886C478.636 185.886 478.2 185.932 477.81 186.024C477.42 186.115 477.088 186.253 476.812 186.436C476.56 186.62 476.365 186.849 476.228 187.124C476.09 187.4 476.021 187.709 476.021 188.053C476.044 188.351 476.113 188.638 476.228 188.913C476.365 189.165 476.549 189.383 476.778 189.567C477.03 189.75 477.409 189.945 477.913 190.152C478.418 190.358 479.06 190.553 479.84 190.736C480.986 191.034 481.926 191.367 482.66 191.734C483.417 192.078 484.013 192.479 484.449 192.938C484.908 193.374 485.229 193.878 485.412 194.452C485.596 195.025 485.688 195.667 485.688 196.378C485.688 197.41 485.389 198.339 484.793 199.164C484.22 199.967 483.44 200.598 482.454 201.056C481.468 201.515 480.367 201.744 479.152 201.744Z" fill="#666666"/>
<path d="M128.162 226.56C127.372 226.56 126.642 226.416 125.97 226.128C125.308 225.84 124.727 225.44 124.226 224.928C123.735 224.406 123.351 223.798 123.074 223.104C122.807 222.4 122.674 221.632 122.674 220.8C122.674 219.968 122.807 219.206 123.074 218.512C123.351 217.808 123.735 217.2 124.226 216.688C124.727 216.166 125.308 215.76 125.97 215.472C126.642 215.184 127.372 215.04 128.162 215.04C128.951 215.04 129.676 215.184 130.338 215.472C131.01 215.76 131.591 216.166 132.082 216.688C132.583 217.211 132.967 217.824 133.234 218.528C133.511 219.222 133.65 219.979 133.65 220.8C133.65 221.622 133.511 222.384 133.234 223.088C132.967 223.782 132.583 224.39 132.082 224.912C131.591 225.435 131.01 225.84 130.338 226.128C129.676 226.416 128.951 226.56 128.162 226.56ZM128.162 224.88C128.706 224.88 129.202 224.779 129.65 224.576C130.108 224.374 130.503 224.091 130.834 223.728C131.164 223.355 131.42 222.923 131.602 222.432C131.794 221.931 131.89 221.387 131.89 220.8C131.89 220.214 131.794 219.675 131.602 219.184C131.42 218.683 131.164 218.251 130.834 217.888C130.503 217.515 130.108 217.227 129.65 217.024C129.202 216.822 128.706 216.72 128.162 216.72C127.618 216.72 127.116 216.822 126.658 217.024C126.21 217.227 125.815 217.51 125.474 217.872C125.143 218.235 124.887 218.667 124.706 219.168C124.524 219.659 124.434 220.203 124.434 220.8C124.434 221.387 124.524 221.931 124.706 222.432C124.887 222.934 125.143 223.366 125.474 223.728C125.815 224.091 126.21 224.374 126.658 224.576C127.116 224.779 127.618 224.88 128.162 224.88ZM134.773 226.4V218H136.421V219.728L136.133 219.92C136.24 219.547 136.448 219.206 136.757 218.896C137.067 218.576 137.435 218.32 137.861 218.128C138.288 217.926 138.725 217.824 139.173 217.824C139.813 217.824 140.347 217.952 140.773 218.208C141.2 218.454 141.52 218.832 141.733 219.344C141.947 219.856 142.053 220.502 142.053 221.28V226.4H140.405V221.392C140.405 220.912 140.341 220.518 140.213 220.208C140.085 219.888 139.888 219.659 139.621 219.52C139.355 219.371 139.024 219.307 138.629 219.328C138.309 219.328 138.016 219.382 137.749 219.488C137.483 219.584 137.248 219.723 137.045 219.904C136.853 220.086 136.699 220.299 136.581 220.544C136.475 220.779 136.421 221.035 136.421 221.312V226.4H135.605C135.467 226.4 135.328 226.4 135.189 226.4C135.051 226.4 134.912 226.4 134.773 226.4ZM152.134 226.56C151.355 226.56 150.64 226.422 149.99 226.144C149.339 225.867 148.774 225.472 148.294 224.96C147.814 224.438 147.44 223.824 147.174 223.12C146.918 222.416 146.79 221.643 146.79 220.8C146.79 220 146.928 219.259 147.206 218.576C147.494 217.883 147.888 217.275 148.39 216.752C148.891 216.23 149.472 215.824 150.134 215.536C150.795 215.248 151.51 215.104 152.278 215.104C152.822 215.104 153.35 215.19 153.862 215.36C154.384 215.52 154.854 215.75 155.27 216.048C155.696 216.336 156.043 216.667 156.31 217.04L155.158 218.24C154.848 217.931 154.534 217.675 154.214 217.472C153.904 217.259 153.584 217.099 153.254 216.992C152.934 216.886 152.608 216.832 152.278 216.832C151.755 216.832 151.264 216.934 150.806 217.136C150.358 217.328 149.963 217.6 149.622 217.952C149.291 218.304 149.03 218.726 148.838 219.216C148.646 219.696 148.55 220.224 148.55 220.8C148.55 221.408 148.64 221.963 148.822 222.464C149.014 222.955 149.28 223.376 149.622 223.728C149.963 224.08 150.368 224.352 150.838 224.544C151.318 224.726 151.846 224.816 152.422 224.816C152.774 224.816 153.12 224.768 153.462 224.672C153.803 224.576 154.123 224.438 154.422 224.256C154.72 224.075 154.992 223.862 155.238 223.616L156.102 225.024C155.856 225.312 155.52 225.574 155.094 225.808C154.678 226.043 154.208 226.23 153.686 226.368C153.174 226.496 152.656 226.56 152.134 226.56ZM160.465 226.56C159.772 226.56 159.137 226.368 158.561 225.984C157.996 225.6 157.542 225.078 157.201 224.416C156.86 223.755 156.689 223.008 156.689 222.176C156.689 221.334 156.86 220.587 157.201 219.936C157.553 219.275 158.022 218.758 158.609 218.384C159.206 218.011 159.873 217.824 160.609 217.824C161.046 217.824 161.446 217.888 161.809 218.016C162.172 218.144 162.486 218.326 162.753 218.56C163.03 218.784 163.254 219.046 163.425 219.344C163.606 219.643 163.718 219.963 163.761 220.304L163.393 220.176V218H165.057V226.4H163.393V224.4L163.777 224.288C163.713 224.576 163.58 224.859 163.377 225.136C163.185 225.403 162.934 225.643 162.625 225.856C162.326 226.07 161.99 226.24 161.617 226.368C161.254 226.496 160.87 226.56 160.465 226.56ZM160.897 225.04C161.398 225.04 161.841 224.918 162.225 224.672C162.609 224.427 162.908 224.091 163.121 223.664C163.345 223.227 163.457 222.731 163.457 222.176C163.457 221.632 163.345 221.147 163.121 220.72C162.908 220.294 162.609 219.958 162.225 219.712C161.841 219.467 161.398 219.344 160.897 219.344C160.406 219.344 159.969 219.467 159.585 219.712C159.212 219.958 158.913 220.294 158.689 220.72C158.476 221.147 158.369 221.632 158.369 222.176C158.369 222.731 158.476 223.227 158.689 223.664C158.913 224.091 159.212 224.427 159.585 224.672C159.969 224.918 160.406 225.04 160.897 225.04ZM166.526 226.4V218H168.19V219.792L167.886 219.984C167.971 219.707 168.105 219.44 168.286 219.184C168.478 218.928 168.707 218.704 168.974 218.512C169.251 218.31 169.545 218.15 169.854 218.032C170.174 217.915 170.499 217.856 170.83 217.856C171.31 217.856 171.731 217.936 172.094 218.096C172.457 218.256 172.755 218.496 172.99 218.816C173.225 219.136 173.395 219.536 173.502 220.016L173.246 219.952L173.358 219.68C173.475 219.435 173.635 219.206 173.838 218.992C174.051 218.768 174.291 218.571 174.558 218.4C174.825 218.23 175.107 218.096 175.406 218C175.705 217.904 175.998 217.856 176.286 217.856C176.915 217.856 177.433 217.984 177.838 218.24C178.254 218.496 178.563 218.886 178.766 219.408C178.979 219.931 179.086 220.582 179.086 221.36V226.4H177.422V221.456C177.422 220.976 177.358 220.587 177.23 220.288C177.113 219.979 176.931 219.75 176.686 219.6C176.441 219.451 176.126 219.376 175.742 219.376C175.443 219.376 175.161 219.43 174.894 219.536C174.638 219.632 174.414 219.771 174.222 219.952C174.03 220.134 173.881 220.347 173.774 220.592C173.667 220.827 173.614 221.088 173.614 221.376V226.4H171.95V221.424C171.95 220.987 171.886 220.619 171.758 220.32C171.63 220.011 171.443 219.776 171.198 219.616C170.953 219.456 170.654 219.376 170.302 219.376C170.003 219.376 169.726 219.43 169.47 219.536C169.214 219.632 168.99 219.771 168.798 219.952C168.606 220.123 168.457 220.331 168.35 220.576C168.243 220.811 168.19 221.067 168.19 221.344V226.4H166.526ZM180.492 229.92V218H182.156V219.92L181.9 219.776C181.964 219.456 182.146 219.152 182.444 218.864C182.743 218.566 183.106 218.326 183.532 218.144C183.97 217.952 184.418 217.856 184.876 217.856C185.634 217.856 186.306 218.043 186.892 218.416C187.479 218.79 187.943 219.302 188.284 219.952C188.626 220.603 188.796 221.35 188.796 222.192C188.796 223.024 188.626 223.771 188.284 224.432C187.954 225.083 187.495 225.6 186.908 225.984C186.322 226.358 185.66 226.544 184.924 226.544C184.434 226.544 183.959 226.448 183.5 226.256C183.042 226.054 182.652 225.798 182.332 225.488C182.012 225.179 181.815 224.859 181.74 224.528L182.156 224.304V229.92H180.492ZM184.652 225.024C185.143 225.024 185.58 224.902 185.964 224.656C186.348 224.411 186.652 224.075 186.876 223.648C187.1 223.222 187.212 222.736 187.212 222.192C187.212 221.648 187.1 221.168 186.876 220.752C186.663 220.326 186.364 219.99 185.98 219.744C185.596 219.499 185.154 219.376 184.652 219.376C184.151 219.376 183.708 219.499 183.324 219.744C182.94 219.979 182.636 220.31 182.412 220.736C182.188 221.163 182.076 221.648 182.076 222.192C182.076 222.736 182.188 223.222 182.412 223.648C182.636 224.075 182.94 224.411 183.324 224.656C183.708 224.902 184.151 225.024 184.652 225.024ZM192.73 226.56C192.133 226.56 191.61 226.422 191.162 226.144C190.725 225.867 190.383 225.478 190.138 224.976C189.903 224.475 189.786 223.878 189.786 223.184V218H191.434V222.736C191.434 223.227 191.509 223.654 191.658 224.016C191.818 224.368 192.042 224.64 192.33 224.832C192.629 225.024 192.986 225.12 193.402 225.12C193.711 225.12 193.994 225.072 194.25 224.976C194.506 224.87 194.725 224.726 194.906 224.544C195.098 224.363 195.247 224.144 195.354 223.888C195.461 223.632 195.514 223.355 195.514 223.056V218H197.162V226.4H195.514V224.64L195.802 224.448C195.674 224.843 195.455 225.2 195.146 225.52C194.847 225.84 194.49 226.096 194.074 226.288C193.658 226.47 193.21 226.56 192.73 226.56ZM201.474 226.56C200.77 226.56 200.135 226.438 199.57 226.192C199.004 225.947 198.535 225.584 198.162 225.104L199.282 224.144C199.602 224.518 199.948 224.79 200.322 224.96C200.706 225.12 201.138 225.2 201.618 225.2C201.81 225.2 201.986 225.179 202.146 225.136C202.316 225.083 202.46 225.008 202.578 224.912C202.706 224.816 202.802 224.704 202.866 224.576C202.93 224.438 202.962 224.288 202.962 224.128C202.962 223.851 202.86 223.627 202.658 223.456C202.551 223.382 202.38 223.302 202.146 223.216C201.922 223.12 201.628 223.024 201.266 222.928C200.647 222.768 200.14 222.587 199.746 222.384C199.351 222.182 199.047 221.952 198.834 221.696C198.674 221.494 198.556 221.275 198.482 221.04C198.407 220.795 198.37 220.528 198.37 220.24C198.37 219.888 198.444 219.568 198.594 219.28C198.754 218.982 198.967 218.726 199.234 218.512C199.511 218.288 199.831 218.118 200.194 218C200.567 217.883 200.962 217.824 201.378 217.824C201.772 217.824 202.162 217.878 202.546 217.984C202.94 218.091 203.303 218.246 203.634 218.448C203.964 218.651 204.242 218.891 204.466 219.168L203.522 220.208C203.319 220.006 203.095 219.83 202.85 219.68C202.615 219.52 202.375 219.398 202.13 219.312C201.884 219.227 201.66 219.184 201.458 219.184C201.234 219.184 201.031 219.206 200.85 219.248C200.668 219.291 200.514 219.355 200.386 219.44C200.268 219.526 200.178 219.632 200.114 219.76C200.05 219.888 200.018 220.032 200.018 220.192C200.028 220.331 200.06 220.464 200.114 220.592C200.178 220.71 200.263 220.811 200.37 220.896C200.487 220.982 200.663 221.072 200.898 221.168C201.132 221.264 201.431 221.355 201.794 221.44C202.327 221.579 202.764 221.734 203.106 221.904C203.458 222.064 203.735 222.251 203.938 222.464C204.151 222.667 204.3 222.902 204.386 223.168C204.471 223.435 204.514 223.734 204.514 224.064C204.514 224.544 204.375 224.976 204.098 225.36C203.831 225.734 203.468 226.027 203.01 226.24C202.551 226.454 202.039 226.56 201.474 226.56Z" fill="#609CFF"/>
<path d="M210.83 222.944C210.436 222.944 210.073 222.848 209.742 222.656C209.412 222.464 209.145 222.203 208.942 221.872C208.75 221.542 208.654 221.179 208.654 220.784C208.654 220.379 208.75 220.011 208.942 219.68C209.134 219.35 209.396 219.088 209.726 218.896C210.057 218.694 210.425 218.592 210.83 218.592C211.236 218.592 211.604 218.694 211.934 218.896C212.265 219.088 212.526 219.35 212.718 219.68C212.921 220.011 213.022 220.379 213.022 220.784C213.022 221.179 212.921 221.542 212.718 221.872C212.526 222.203 212.265 222.464 211.934 222.656C211.604 222.848 211.236 222.944 210.83 222.944ZM225.186 226.56C224.578 226.56 224.013 226.48 223.49 226.32C222.978 226.16 222.509 225.92 222.082 225.6C221.666 225.27 221.293 224.864 220.962 224.384L222.146 223.024C222.669 223.771 223.17 224.288 223.65 224.576C224.13 224.864 224.701 225.008 225.362 225.008C225.768 225.008 226.136 224.944 226.466 224.816C226.797 224.688 227.058 224.512 227.25 224.288C227.442 224.064 227.538 223.808 227.538 223.52C227.538 223.328 227.506 223.147 227.442 222.976C227.378 222.806 227.277 222.651 227.138 222.512C227.01 222.374 226.84 222.246 226.626 222.128C226.424 222.011 226.184 221.91 225.906 221.824C225.629 221.728 225.309 221.648 224.946 221.584C224.37 221.467 223.869 221.312 223.442 221.12C223.016 220.928 222.658 220.688 222.37 220.4C222.082 220.112 221.869 219.787 221.73 219.424C221.592 219.051 221.522 218.635 221.522 218.176C221.522 217.728 221.618 217.312 221.81 216.928C222.013 216.544 222.285 216.214 222.626 215.936C222.978 215.648 223.389 215.43 223.858 215.28C224.328 215.12 224.834 215.04 225.378 215.04C225.954 215.04 226.482 215.115 226.962 215.264C227.442 215.414 227.869 215.638 228.242 215.936C228.616 216.224 228.925 216.582 229.17 217.008L227.954 218.208C227.741 217.856 227.501 217.563 227.234 217.328C226.968 217.083 226.674 216.902 226.354 216.784C226.034 216.656 225.693 216.592 225.33 216.592C224.914 216.592 224.552 216.656 224.242 216.784C223.933 216.912 223.688 217.094 223.506 217.328C223.336 217.552 223.25 217.819 223.25 218.128C223.25 218.352 223.293 218.56 223.378 218.752C223.464 218.934 223.592 219.099 223.762 219.248C223.944 219.387 224.184 219.515 224.482 219.632C224.781 219.739 225.138 219.835 225.554 219.92C226.141 220.048 226.664 220.214 227.122 220.416C227.581 220.608 227.97 220.838 228.29 221.104C228.61 221.371 228.85 221.67 229.01 222C229.181 222.331 229.266 222.688 229.266 223.072C229.266 223.787 229.101 224.406 228.77 224.928C228.44 225.451 227.97 225.856 227.362 226.144C226.754 226.422 226.029 226.56 225.186 226.56ZM233.443 226.56C232.845 226.56 232.323 226.422 231.875 226.144C231.437 225.867 231.096 225.478 230.851 224.976C230.616 224.475 230.499 223.878 230.499 223.184V218H232.147V222.736C232.147 223.227 232.221 223.654 232.371 224.016C232.531 224.368 232.755 224.64 233.043 224.832C233.341 225.024 233.699 225.12 234.115 225.12C234.424 225.12 234.707 225.072 234.963 224.976C235.219 224.87 235.437 224.726 235.619 224.544C235.811 224.363 235.96 224.144 236.067 223.888C236.173 223.632 236.227 223.355 236.227 223.056V218H237.875V226.4H236.227V224.64L236.515 224.448C236.387 224.843 236.168 225.2 235.859 225.52C235.56 225.84 235.203 226.096 234.787 226.288C234.371 226.47 233.923 226.56 233.443 226.56ZM239.386 226.4V218H241.034V219.728L240.746 219.92C240.853 219.547 241.061 219.206 241.37 218.896C241.68 218.576 242.048 218.32 242.474 218.128C242.901 217.926 243.338 217.824 243.786 217.824C244.426 217.824 244.96 217.952 245.386 218.208C245.813 218.454 246.133 218.832 246.346 219.344C246.56 219.856 246.666 220.502 246.666 221.28V226.4H245.018V221.392C245.018 220.912 244.954 220.518 244.826 220.208C244.698 219.888 244.501 219.659 244.234 219.52C243.968 219.371 243.637 219.307 243.242 219.328C242.922 219.328 242.629 219.382 242.362 219.488C242.096 219.584 241.861 219.723 241.658 219.904C241.466 220.086 241.312 220.299 241.194 220.544C241.088 220.779 241.034 221.035 241.034 221.312V226.4H240.218C240.08 226.4 239.941 226.4 239.802 226.4C239.664 226.4 239.525 226.4 239.386 226.4ZM250.902 226.56C250.198 226.56 249.563 226.438 248.998 226.192C248.433 225.947 247.963 225.584 247.59 225.104L248.71 224.144C249.03 224.518 249.377 224.79 249.75 224.96C250.134 225.12 250.566 225.2 251.046 225.2C251.238 225.2 251.414 225.179 251.574 225.136C251.745 225.083 251.889 225.008 252.006 224.912C252.134 224.816 252.23 224.704 252.294 224.576C252.358 224.438 252.39 224.288 252.39 224.128C252.39 223.851 252.289 223.627 252.086 223.456C251.979 223.382 251.809 223.302 251.574 223.216C251.35 223.12 251.057 223.024 250.694 222.928C250.075 222.768 249.569 222.587 249.174 222.384C248.779 222.182 248.475 221.952 248.262 221.696C248.102 221.494 247.985 221.275 247.91 221.04C247.835 220.795 247.798 220.528 247.798 220.24C247.798 219.888 247.873 219.568 248.022 219.28C248.182 218.982 248.395 218.726 248.662 218.512C248.939 218.288 249.259 218.118 249.622 218C249.995 217.883 250.39 217.824 250.806 217.824C251.201 217.824 251.59 217.878 251.974 217.984C252.369 218.091 252.731 218.246 253.062 218.448C253.393 218.651 253.67 218.891 253.894 219.168L252.95 220.208C252.747 220.006 252.523 219.83 252.278 219.68C252.043 219.52 251.803 219.398 251.558 219.312C251.313 219.227 251.089 219.184 250.886 219.184C250.662 219.184 250.459 219.206 250.278 219.248C250.097 219.291 249.942 219.355 249.814 219.44C249.697 219.526 249.606 219.632 249.542 219.76C249.478 219.888 249.446 220.032 249.446 220.192C249.457 220.331 249.489 220.464 249.542 220.592C249.606 220.71 249.691 220.811 249.798 220.896C249.915 220.982 250.091 221.072 250.326 221.168C250.561 221.264 250.859 221.355 251.222 221.44C251.755 221.579 252.193 221.734 252.534 221.904C252.886 222.064 253.163 222.251 253.366 222.464C253.579 222.667 253.729 222.902 253.814 223.168C253.899 223.435 253.942 223.734 253.942 224.064C253.942 224.544 253.803 224.976 253.526 225.36C253.259 225.734 252.897 226.027 252.438 226.24C251.979 226.454 251.467 226.56 250.902 226.56ZM255.998 226.4V215.856H257.646V226.4H255.998ZM254.254 219.6V218H259.598V219.6H254.254ZM263.997 226.56C263.175 226.56 262.439 226.374 261.789 226C261.149 225.616 260.642 225.099 260.269 224.448C259.895 223.787 259.709 223.035 259.709 222.192C259.709 221.35 259.895 220.603 260.269 219.952C260.642 219.291 261.149 218.774 261.789 218.4C262.439 218.016 263.175 217.824 263.997 217.824C264.807 217.824 265.533 218.016 266.173 218.4C266.823 218.774 267.335 219.291 267.709 219.952C268.082 220.603 268.269 221.35 268.269 222.192C268.269 223.035 268.082 223.787 267.709 224.448C267.335 225.099 266.823 225.616 266.173 226C265.533 226.374 264.807 226.56 263.997 226.56ZM263.997 225.056C264.498 225.056 264.946 224.934 265.341 224.688C265.735 224.432 266.045 224.091 266.269 223.664C266.493 223.227 266.599 222.736 266.589 222.192C266.599 221.638 266.493 221.147 266.269 220.72C266.045 220.283 265.735 219.942 265.341 219.696C264.946 219.451 264.498 219.328 263.997 219.328C263.495 219.328 263.042 219.456 262.637 219.712C262.242 219.958 261.933 220.299 261.709 220.736C261.485 221.163 261.378 221.648 261.389 222.192C261.378 222.736 261.485 223.227 261.709 223.664C261.933 224.091 262.242 224.432 262.637 224.688C263.042 224.934 263.495 225.056 263.997 225.056ZM269.264 226.4V218H270.912V219.728L270.624 219.92C270.731 219.547 270.939 219.206 271.248 218.896C271.558 218.576 271.926 218.32 272.352 218.128C272.779 217.926 273.216 217.824 273.664 217.824C274.304 217.824 274.838 217.952 275.264 218.208C275.691 218.454 276.011 218.832 276.224 219.344C276.438 219.856 276.544 220.502 276.544 221.28V226.4H274.896V221.392C274.896 220.912 274.832 220.518 274.704 220.208C274.576 219.888 274.379 219.659 274.112 219.52C273.846 219.371 273.515 219.307 273.12 219.328C272.8 219.328 272.507 219.382 272.24 219.488C271.974 219.584 271.739 219.723 271.536 219.904C271.344 220.086 271.19 220.299 271.072 220.544C270.966 220.779 270.912 221.035 270.912 221.312V226.4H270.096C269.958 226.4 269.819 226.4 269.68 226.4C269.542 226.4 269.403 226.4 269.264 226.4ZM281.9 226.56C281.036 226.56 280.268 226.379 279.596 226.016C278.935 225.643 278.412 225.136 278.028 224.496C277.655 223.856 277.468 223.12 277.468 222.288C277.468 221.627 277.575 221.024 277.788 220.48C278.001 219.936 278.295 219.467 278.668 219.072C279.052 218.667 279.505 218.358 280.028 218.144C280.561 217.92 281.137 217.808 281.756 217.808C282.3 217.808 282.807 217.915 283.276 218.128C283.745 218.331 284.151 218.614 284.492 218.976C284.844 219.339 285.111 219.771 285.292 220.272C285.484 220.763 285.575 221.302 285.564 221.888L285.548 222.592H278.684L278.316 221.28H284.124L283.884 221.552V221.168C283.852 220.816 283.735 220.502 283.532 220.224C283.329 219.947 283.073 219.728 282.764 219.568C282.455 219.408 282.119 219.328 281.756 219.328C281.18 219.328 280.695 219.44 280.3 219.664C279.905 219.878 279.607 220.198 279.404 220.624C279.201 221.04 279.1 221.558 279.1 222.176C279.1 222.763 279.223 223.275 279.468 223.712C279.713 224.139 280.06 224.47 280.508 224.704C280.956 224.939 281.473 225.056 282.06 225.056C282.476 225.056 282.86 224.987 283.212 224.848C283.575 224.71 283.964 224.459 284.38 224.096L285.212 225.264C284.956 225.52 284.641 225.744 284.268 225.936C283.905 226.128 283.516 226.283 283.1 226.4C282.695 226.507 282.295 226.56 281.9 226.56ZM294.112 226.56C293.504 226.56 292.938 226.48 292.416 226.32C291.904 226.16 291.434 225.92 291.007 225.6C290.591 225.27 290.218 224.864 289.887 224.384L291.071 223.024C291.594 223.771 292.096 224.288 292.576 224.576C293.056 224.864 293.626 225.008 294.288 225.008C294.693 225.008 295.061 224.944 295.392 224.816C295.722 224.688 295.984 224.512 296.176 224.288C296.368 224.064 296.464 223.808 296.464 223.52C296.464 223.328 296.432 223.147 296.368 222.976C296.304 222.806 296.202 222.651 296.064 222.512C295.936 222.374 295.765 222.246 295.552 222.128C295.349 222.011 295.109 221.91 294.832 221.824C294.554 221.728 294.234 221.648 293.872 221.584C293.296 221.467 292.794 221.312 292.368 221.12C291.941 220.928 291.584 220.688 291.295 220.4C291.007 220.112 290.794 219.787 290.655 219.424C290.517 219.051 290.447 218.635 290.447 218.176C290.447 217.728 290.543 217.312 290.735 216.928C290.938 216.544 291.21 216.214 291.552 215.936C291.904 215.648 292.314 215.43 292.784 215.28C293.253 215.12 293.76 215.04 294.304 215.04C294.88 215.04 295.408 215.115 295.888 215.264C296.368 215.414 296.794 215.638 297.168 215.936C297.541 216.224 297.85 216.582 298.096 217.008L296.88 218.208C296.666 217.856 296.426 217.563 296.16 217.328C295.893 217.083 295.6 216.902 295.28 216.784C294.96 216.656 294.618 216.592 294.256 216.592C293.84 216.592 293.477 216.656 293.168 216.784C292.858 216.912 292.613 217.094 292.432 217.328C292.261 217.552 292.176 217.819 292.176 218.128C292.176 218.352 292.218 218.56 292.304 218.752C292.389 218.934 292.517 219.099 292.688 219.248C292.869 219.387 293.109 219.515 293.408 219.632C293.706 219.739 294.064 219.835 294.48 219.92C295.066 220.048 295.589 220.214 296.048 220.416C296.506 220.608 296.896 220.838 297.216 221.104C297.536 221.371 297.776 221.67 297.936 222C298.106 222.331 298.192 222.688 298.192 223.072C298.192 223.787 298.026 224.406 297.696 224.928C297.365 225.451 296.896 225.856 296.288 226.144C295.68 226.422 294.954 226.56 294.112 226.56ZM298.672 226.4L303.008 215.2H304.768L309.072 226.4H307.232L304.672 219.648C304.64 219.574 304.576 219.392 304.48 219.104C304.395 218.816 304.293 218.496 304.176 218.144C304.059 217.792 303.952 217.472 303.856 217.184C303.76 216.886 303.696 216.694 303.664 216.608L304.032 216.592C303.968 216.774 303.888 217.003 303.792 217.28C303.707 217.558 303.611 217.851 303.504 218.16C303.408 218.47 303.312 218.763 303.216 219.04C303.12 219.307 303.04 219.531 302.976 219.712L300.432 226.4H298.672ZM300.592 223.616L301.232 221.952H306.32L307.056 223.616H300.592ZM314.939 226.56C314.128 226.56 313.371 226.416 312.667 226.128C311.963 225.83 311.344 225.419 310.811 224.896C310.277 224.374 309.861 223.766 309.563 223.072C309.275 222.368 309.131 221.611 309.131 220.8C309.131 220 309.275 219.254 309.563 218.56C309.861 217.867 310.272 217.264 310.795 216.752C311.328 216.23 311.947 215.824 312.651 215.536C313.355 215.248 314.112 215.104 314.923 215.104C315.488 215.104 316.037 215.184 316.571 215.344C317.115 215.504 317.605 215.728 318.043 216.016C318.48 216.304 318.837 216.635 319.115 217.008L317.995 218.176C317.675 217.867 317.344 217.611 317.003 217.408C316.672 217.206 316.331 217.051 315.979 216.944C315.627 216.838 315.275 216.784 314.923 216.784C314.347 216.784 313.813 216.886 313.323 217.088C312.843 217.291 312.416 217.574 312.043 217.936C311.68 218.299 311.397 218.726 311.195 219.216C310.992 219.696 310.891 220.224 310.891 220.8C310.891 221.355 310.997 221.883 311.211 222.384C311.424 222.875 311.717 223.307 312.091 223.68C312.475 224.054 312.912 224.347 313.403 224.56C313.904 224.774 314.432 224.88 314.987 224.88C315.403 224.88 315.797 224.822 316.171 224.704C316.544 224.576 316.875 224.4 317.163 224.176C317.451 223.952 317.675 223.696 317.835 223.408C317.995 223.11 318.075 222.795 318.075 222.464V222.144L318.315 222.368H314.891V220.656H319.851C319.872 220.774 319.888 220.891 319.899 221.008C319.909 221.115 319.915 221.222 319.915 221.328C319.925 221.424 319.931 221.52 319.931 221.616C319.931 222.352 319.803 223.024 319.547 223.632C319.291 224.23 318.933 224.747 318.475 225.184C318.027 225.622 317.499 225.963 316.891 226.208C316.293 226.443 315.643 226.56 314.939 226.56ZM321.381 226.4V215.2H328.437V216.864H323.109V224.736H328.437V226.4H321.381ZM322.165 221.488V219.824H327.557V221.488H322.165ZM338.445 226.496C337.581 226.496 336.808 226.31 336.125 225.936C335.442 225.552 334.904 225.03 334.509 224.368C334.125 223.696 333.933 222.939 333.933 222.096V215.184H335.661V221.952C335.661 222.496 335.789 222.987 336.045 223.424C336.301 223.851 336.637 224.192 337.053 224.448C337.48 224.704 337.944 224.832 338.445 224.832C338.978 224.832 339.458 224.704 339.885 224.448C340.322 224.192 340.669 223.851 340.925 223.424C341.181 222.987 341.309 222.496 341.309 221.952V215.184H342.957V222.096C342.957 222.939 342.76 223.696 342.365 224.368C341.981 225.03 341.448 225.552 340.765 225.936C340.082 226.31 339.309 226.496 338.445 226.496ZM344.721 226.4V218H346.369V219.728L346.081 219.92C346.188 219.547 346.396 219.206 346.705 218.896C347.014 218.576 347.382 218.32 347.809 218.128C348.236 217.926 348.673 217.824 349.121 217.824C349.761 217.824 350.294 217.952 350.721 218.208C351.148 218.454 351.468 218.832 351.681 219.344C351.894 219.856 352.001 220.502 352.001 221.28V226.4H350.353V221.392C350.353 220.912 350.289 220.518 350.161 220.208C350.033 219.888 349.836 219.659 349.569 219.52C349.302 219.371 348.972 219.307 348.577 219.328C348.257 219.328 347.964 219.382 347.697 219.488C347.43 219.584 347.196 219.723 346.993 219.904C346.801 220.086 346.646 220.299 346.529 220.544C346.422 220.779 346.369 221.035 346.369 221.312V226.4H345.553C345.414 226.4 345.276 226.4 345.137 226.4C344.998 226.4 344.86 226.4 344.721 226.4ZM353.709 226.4V218H355.357V226.4H353.709ZM354.509 216.144C354.157 216.144 353.885 216.054 353.693 215.872C353.501 215.691 353.405 215.435 353.405 215.104C353.405 214.795 353.501 214.544 353.693 214.352C353.895 214.16 354.167 214.064 354.509 214.064C354.861 214.064 355.133 214.155 355.325 214.336C355.517 214.518 355.613 214.774 355.613 215.104C355.613 215.414 355.511 215.664 355.309 215.856C355.117 216.048 354.85 216.144 354.509 216.144ZM359.842 226.4L356.29 218H358.066L360.626 224.288L360.322 224.432L363.058 218H364.754L361.026 226.4H359.842ZM369.147 226.56C368.283 226.56 367.515 226.379 366.843 226.016C366.182 225.643 365.659 225.136 365.275 224.496C364.902 223.856 364.715 223.12 364.715 222.288C364.715 221.627 364.822 221.024 365.035 220.48C365.249 219.936 365.542 219.467 365.915 219.072C366.299 218.667 366.753 218.358 367.275 218.144C367.809 217.92 368.385 217.808 369.003 217.808C369.547 217.808 370.054 217.915 370.523 218.128C370.993 218.331 371.398 218.614 371.739 218.976C372.091 219.339 372.358 219.771 372.539 220.272C372.731 220.763 372.822 221.302 372.811 221.888L372.795 222.592H365.931L365.563 221.28H371.371L371.131 221.552V221.168C371.099 220.816 370.982 220.502 370.779 220.224C370.577 219.947 370.321 219.728 370.011 219.568C369.702 219.408 369.366 219.328 369.003 219.328C368.427 219.328 367.942 219.44 367.547 219.664C367.153 219.878 366.854 220.198 366.651 220.624C366.449 221.04 366.347 221.558 366.347 222.176C366.347 222.763 366.47 223.275 366.715 223.712C366.961 224.139 367.307 224.47 367.755 224.704C368.203 224.939 368.721 225.056 369.307 225.056C369.723 225.056 370.107 224.987 370.459 224.848C370.822 224.71 371.211 224.459 371.627 224.096L372.459 225.264C372.203 225.52 371.889 225.744 371.515 225.936C371.153 226.128 370.763 226.283 370.347 226.4C369.942 226.507 369.542 226.56 369.147 226.56ZM373.802 226.4V218H375.466V220.64L375.306 220C375.424 219.595 375.621 219.227 375.898 218.896C376.186 218.566 376.512 218.304 376.874 218.112C377.248 217.92 377.632 217.824 378.026 217.824C378.208 217.824 378.378 217.84 378.538 217.872C378.709 217.904 378.842 217.942 378.938 217.984L378.506 219.776C378.378 219.723 378.234 219.68 378.074 219.648C377.925 219.606 377.776 219.584 377.626 219.584C377.338 219.584 377.061 219.643 376.794 219.76C376.538 219.867 376.309 220.022 376.106 220.224C375.914 220.416 375.76 220.646 375.642 220.912C375.525 221.168 375.466 221.451 375.466 221.76V226.4H373.802ZM382.255 226.56C381.551 226.56 380.917 226.438 380.351 226.192C379.786 225.947 379.317 225.584 378.943 225.104L380.063 224.144C380.383 224.518 380.73 224.79 381.103 224.96C381.487 225.12 381.919 225.2 382.399 225.2C382.591 225.2 382.767 225.179 382.927 225.136C383.098 225.083 383.242 225.008 383.359 224.912C383.487 224.816 383.583 224.704 383.647 224.576C383.711 224.438 383.743 224.288 383.743 224.128C383.743 223.851 383.642 223.627 383.439 223.456C383.333 223.382 383.162 223.302 382.927 223.216C382.703 223.12 382.41 223.024 382.047 222.928C381.429 222.768 380.922 222.587 380.527 222.384C380.133 222.182 379.829 221.952 379.615 221.696C379.455 221.494 379.338 221.275 379.263 221.04C379.189 220.795 379.151 220.528 379.151 220.24C379.151 219.888 379.226 219.568 379.375 219.28C379.535 218.982 379.749 218.726 380.015 218.512C380.293 218.288 380.613 218.118 380.975 218C381.349 217.883 381.743 217.824 382.159 217.824C382.554 217.824 382.943 217.878 383.327 217.984C383.722 218.091 384.085 218.246 384.415 218.448C384.746 218.651 385.023 218.891 385.247 219.168L384.303 220.208C384.101 220.006 383.877 219.83 383.631 219.68C383.397 219.52 383.157 219.398 382.911 219.312C382.666 219.227 382.442 219.184 382.239 219.184C382.015 219.184 381.813 219.206 381.631 219.248C381.45 219.291 381.295 219.355 381.167 219.44C381.05 219.526 380.959 219.632 380.895 219.76C380.831 219.888 380.799 220.032 380.799 220.192C380.81 220.331 380.842 220.464 380.895 220.592C380.959 220.71 381.045 220.811 381.151 220.896C381.269 220.982 381.445 221.072 381.679 221.168C381.914 221.264 382.213 221.355 382.575 221.44C383.109 221.579 383.546 221.734 383.887 221.904C384.239 222.064 384.517 222.251 384.719 222.464C384.933 222.667 385.082 222.902 385.167 223.168C385.253 223.435 385.295 223.734 385.295 224.064C385.295 224.544 385.157 224.976 384.879 225.36C384.613 225.734 384.25 226.027 383.791 226.24C383.333 226.454 382.821 226.56 382.255 226.56ZM386.584 226.4V218H388.232V226.4H386.584ZM387.384 216.144C387.032 216.144 386.76 216.054 386.568 215.872C386.376 215.691 386.28 215.435 386.28 215.104C386.28 214.795 386.376 214.544 386.568 214.352C386.77 214.16 387.042 214.064 387.384 214.064C387.736 214.064 388.008 214.155 388.2 214.336C388.392 214.518 388.488 214.774 388.488 215.104C388.488 215.414 388.386 215.664 388.184 215.856C387.992 216.048 387.725 216.144 387.384 216.144ZM391.005 226.4V215.856H392.653V226.4H391.005ZM389.261 219.6V218H394.605V219.6H389.261ZM396.713 230.08L398.409 226.16L398.425 227.472L394.233 218H396.153L398.777 224.176C398.831 224.283 398.895 224.448 398.969 224.672C399.044 224.886 399.108 225.099 399.161 225.312L398.745 225.408C398.831 225.184 398.911 224.96 398.985 224.736C399.071 224.512 399.151 224.288 399.225 224.064L401.417 218H403.369L399.913 226.4L398.489 230.08H396.713ZM407.743 229.264L407.135 228.528C407.508 228.315 407.812 228.07 408.047 227.792C408.281 227.515 408.399 227.275 408.399 227.072C408.399 226.966 408.372 226.859 408.319 226.752C408.265 226.656 408.153 226.518 407.983 226.336C407.769 226.134 407.631 225.963 407.567 225.824C407.503 225.686 407.471 225.536 407.471 225.376C407.471 225.12 407.561 224.918 407.743 224.768C407.924 224.608 408.159 224.528 408.447 224.528C408.713 224.528 408.953 224.608 409.167 224.768C409.391 224.918 409.561 225.131 409.679 225.408C409.807 225.675 409.871 225.984 409.871 226.336C409.871 226.656 409.817 226.966 409.711 227.264C409.604 227.563 409.455 227.84 409.263 228.096C409.071 228.352 408.847 228.582 408.591 228.784C408.335 228.987 408.052 229.147 407.743 229.264ZM414.637 226.4V224.8H416.445V216.8H414.637V215.2H419.981V216.8H418.173V224.8H419.981V226.4H414.637ZM421.477 226.4V218H423.125V219.728L422.837 219.92C422.944 219.547 423.152 219.206 423.461 218.896C423.771 218.576 424.139 218.32 424.565 218.128C424.992 217.926 425.429 217.824 425.877 217.824C426.517 217.824 427.051 217.952 427.477 218.208C427.904 218.454 428.224 218.832 428.437 219.344C428.651 219.856 428.757 220.502 428.757 221.28V226.4H427.109V221.392C427.109 220.912 427.045 220.518 426.917 220.208C426.789 219.888 426.592 219.659 426.325 219.52C426.059 219.371 425.728 219.307 425.333 219.328C425.013 219.328 424.72 219.382 424.453 219.488C424.187 219.584 423.952 219.723 423.749 219.904C423.557 220.086 423.403 220.299 423.285 220.544C423.179 220.779 423.125 221.035 423.125 221.312V226.4H422.309C422.171 226.4 422.032 226.4 421.893 226.4C421.755 226.4 421.616 226.4 421.477 226.4ZM433.697 226.56C432.929 226.56 432.241 226.374 431.633 226C431.036 225.616 430.561 225.099 430.209 224.448C429.857 223.787 429.681 223.035 429.681 222.192C429.681 221.35 429.852 220.603 430.193 219.952C430.545 219.291 431.02 218.774 431.617 218.4C432.214 218.016 432.892 217.824 433.649 217.824C434.065 217.824 434.465 217.894 434.849 218.032C435.244 218.16 435.596 218.342 435.905 218.576C436.214 218.8 436.454 219.051 436.625 219.328C436.806 219.595 436.897 219.867 436.897 220.144L436.417 220.176V214.56H438.065V226.4H436.417V224.4H436.737C436.737 224.656 436.652 224.912 436.481 225.168C436.31 225.414 436.081 225.643 435.793 225.856C435.516 226.07 435.19 226.24 434.817 226.368C434.454 226.496 434.081 226.56 433.697 226.56ZM433.921 225.136C434.422 225.136 434.865 225.008 435.249 224.752C435.633 224.496 435.932 224.15 436.145 223.712C436.369 223.264 436.481 222.758 436.481 222.192C436.481 221.627 436.369 221.126 436.145 220.688C435.932 220.24 435.633 219.888 435.249 219.632C434.865 219.376 434.422 219.248 433.921 219.248C433.42 219.248 432.977 219.376 432.593 219.632C432.209 219.888 431.905 220.24 431.681 220.688C431.468 221.126 431.361 221.627 431.361 222.192C431.361 222.758 431.468 223.264 431.681 223.712C431.905 224.15 432.209 224.496 432.593 224.752C432.977 225.008 433.42 225.136 433.921 225.136ZM443.31 226.56C442.488 226.56 441.752 226.374 441.102 226C440.462 225.616 439.955 225.099 439.582 224.448C439.208 223.787 439.022 223.035 439.022 222.192C439.022 221.35 439.208 220.603 439.582 219.952C439.955 219.291 440.462 218.774 441.102 218.4C441.752 218.016 442.488 217.824 443.31 217.824C444.12 217.824 444.846 218.016 445.486 218.4C446.136 218.774 446.648 219.291 447.022 219.952C447.395 220.603 447.582 221.35 447.582 222.192C447.582 223.035 447.395 223.787 447.022 224.448C446.648 225.099 446.136 225.616 445.486 226C444.846 226.374 444.12 226.56 443.31 226.56ZM443.31 225.056C443.811 225.056 444.259 224.934 444.654 224.688C445.048 224.432 445.358 224.091 445.582 223.664C445.806 223.227 445.912 222.736 445.902 222.192C445.912 221.638 445.806 221.147 445.582 220.72C445.358 220.283 445.048 219.942 444.654 219.696C444.259 219.451 443.811 219.328 443.31 219.328C442.808 219.328 442.355 219.456 441.95 219.712C441.555 219.958 441.246 220.299 441.022 220.736C440.798 221.163 440.691 221.648 440.702 222.192C440.691 222.736 440.798 223.227 441.022 223.664C441.246 224.091 441.555 224.432 441.95 224.688C442.355 224.934 442.808 225.056 443.31 225.056ZM448.577 226.4V218H450.241V220.64L450.081 220C450.199 219.595 450.396 219.227 450.673 218.896C450.961 218.566 451.287 218.304 451.649 218.112C452.023 217.92 452.407 217.824 452.801 217.824C452.983 217.824 453.153 217.84 453.313 217.872C453.484 217.904 453.617 217.942 453.713 217.984L453.281 219.776C453.153 219.723 453.009 219.68 452.849 219.648C452.7 219.606 452.551 219.584 452.401 219.584C452.113 219.584 451.836 219.643 451.569 219.76C451.313 219.867 451.084 220.022 450.881 220.224C450.689 220.416 450.535 220.646 450.417 220.912C450.3 221.168 450.241 221.451 450.241 221.76V226.4H448.577ZM457.791 226.56C456.927 226.56 456.159 226.379 455.487 226.016C454.826 225.643 454.303 225.136 453.919 224.496C453.546 223.856 453.359 223.12 453.359 222.288C453.359 221.627 453.466 221.024 453.679 220.48C453.893 219.936 454.186 219.467 454.559 219.072C454.943 218.667 455.397 218.358 455.919 218.144C456.453 217.92 457.029 217.808 457.647 217.808C458.191 217.808 458.698 217.915 459.167 218.128C459.637 218.331 460.042 218.614 460.383 218.976C460.735 219.339 461.002 219.771 461.183 220.272C461.375 220.763 461.466 221.302 461.455 221.888L461.439 222.592H454.575L454.207 221.28H460.015L459.775 221.552V221.168C459.743 220.816 459.626 220.502 459.423 220.224C459.221 219.947 458.965 219.728 458.655 219.568C458.346 219.408 458.01 219.328 457.647 219.328C457.071 219.328 456.586 219.44 456.191 219.664C455.797 219.878 455.498 220.198 455.295 220.624C455.093 221.04 454.991 221.558 454.991 222.176C454.991 222.763 455.114 223.275 455.359 223.712C455.605 224.139 455.951 224.47 456.399 224.704C456.847 224.939 457.365 225.056 457.951 225.056C458.367 225.056 458.751 224.987 459.103 224.848C459.466 224.71 459.855 224.459 460.271 224.096L461.103 225.264C460.847 225.52 460.533 225.744 460.159 225.936C459.797 226.128 459.407 226.283 458.991 226.4C458.586 226.507 458.186 226.56 457.791 226.56Z" fill="#666666"/>
</svg>
