<svg width="1033" height="426" viewBox="0 0 1033 426" fill="none" xmlns="http://www.w3.org/2000/svg">
<g filter="url(#filter0_b_2142_2)">
<mask id="path-1-inside-1_2142_2" fill="white">
<path fill-rule="evenodd" clip-rule="evenodd" d="M0 25C0 11.1929 11.1929 0 25 0H890.145C896.775 0 903.134 2.6339 907.822 7.32231L1017.68 117.178C1022.37 121.866 1025 128.225 1025 134.855V393C1025 406.807 1013.81 418 1000 418H72.1053C65.4749 418 59.1161 415.366 54.4277 410.678L7.32233 363.572C2.63392 358.884 0 352.525 0 345.895V25Z"/>
</mask>
<path fill-rule="evenodd" clip-rule="evenodd" d="M0 25C0 11.1929 11.1929 0 25 0H890.145C896.775 0 903.134 2.6339 907.822 7.32231L1017.68 117.178C1022.37 121.866 1025 128.225 1025 134.855V393C1025 406.807 1013.81 418 1000 418H72.1053C65.4749 418 59.1161 415.366 54.4277 410.678L7.32233 363.572C2.63392 358.884 0 352.525 0 345.895V25Z" fill="url(#paint0_linear_2142_2)" fill-opacity="0.1"/>
<path d="M7.32233 363.572L4.4939 366.401L7.32233 363.572ZM54.4277 410.678L57.2561 407.849L54.4277 410.678ZM1017.68 117.178L1020.51 114.349L1017.68 117.178ZM907.822 7.32231L904.994 10.1507L907.822 7.32231ZM890.145 -4H25V4H890.145V-4ZM1020.51 114.349L910.651 4.49388L904.994 10.1507L1014.85 120.006L1020.51 114.349ZM1029 393V134.855H1021V393H1029ZM72.1053 422H1000V414H72.1053V422ZM4.4939 366.401L51.5992 413.506L57.2561 407.849L10.1508 360.744L4.4939 366.401ZM-4 25V345.895H4V25H-4ZM10.1508 360.744C6.21249 356.806 4 351.464 4 345.895H-4C-4 353.586 -0.944652 360.962 4.4939 366.401L10.1508 360.744ZM72.1053 414C66.5358 414 61.1944 411.788 57.2561 407.849L51.5992 413.506C57.0378 418.945 64.4141 422 72.1053 422V414ZM1021 393C1021 404.598 1011.6 414 1000 414V422C1016.02 422 1029 409.016 1029 393H1021ZM1014.85 120.006C1018.79 123.944 1021 129.286 1021 134.855H1029C1029 127.164 1025.94 119.788 1020.51 114.349L1014.85 120.006ZM25 -4C8.98374 -4 -4 8.98374 -4 25H4C4 13.402 13.402 4 25 4V-4ZM890.145 4C895.714 4 901.056 6.21248 904.994 10.1507L910.651 4.49388C905.212 -0.944673 897.836 -4 890.145 -4V4Z" fill="#00FF84" mask="url(#path-1-inside-1_2142_2)"/>
</g>
<path d="M48.2842 62.4263L37.6776 73.0328" stroke="white" stroke-width="7.5" stroke-linecap="round"/>
<path d="M73.0332 37.6777L62.4266 48.2843" stroke="white" stroke-width="7.5" stroke-linecap="round"/>
<path d="M62.4268 62.4263L73.0333 73.0328" stroke="white" stroke-width="7.5" stroke-linecap="round"/>
<path d="M37.6777 37.6777L48.2843 48.2843" stroke="white" stroke-width="7.5" stroke-linecap="round"/>
<path d="M910 417.5L999.891 417.891C1013.74 417.951 1025 406.741 1025 392.891V250" stroke="white" stroke-width="15" stroke-linecap="round" stroke-linejoin="bevel"/>
<g clip-path="url(#clip0_2142_2)">
<path d="M408.525 369.169L486.405 324.205L564.284 369.169V459.097L486.405 504.061L408.525 459.097V369.169Z" stroke="#00FF84" stroke-width="3.64"/>
<path d="M442.129 388.571L486.404 363.008L530.679 388.571V439.695L486.404 465.257L442.129 439.695V388.571Z" stroke="#00FF84" stroke-width="3.64"/>
<path d="M485.569 362.967V278.346V143.554V103.79M485.569 103.79L502.417 84.245M485.569 103.79L469.394 84.245M485.569 103.79V0" stroke="#00FF84" stroke-width="3.64"/>
<path d="M443.133 439.2L372.251 486.161L260.094 560.926L227.008 582.982M227.008 582.982L220.091 607.842M227.008 582.982L201.774 580.364M227.008 582.982L140.648 640.55L63.0805 640.55" stroke="#00FF84" stroke-width="3.64"/>
<path d="M442.278 388.034L368.133 339.632L255.977 264.868L222.89 242.812M222.89 242.812L215.973 217.952M222.89 242.812L197.656 245.43M222.89 242.812L136.53 185.243L100.131 185.243L63.7327 185.243L63.7327 471.744L-110.183 471.744" stroke="#00FF84" stroke-width="3.64"/>
<path d="M531.56 389.58L604.899 341.351L717.055 266.586L750.141 244.53M750.141 244.53L757.059 219.67M750.141 244.53L775.376 247.148M750.141 244.53L836.944 187.096L1024.5 187.096" stroke="#00FF84" stroke-width="4.368"/>
<path d="M532.073 440.058L604.897 487.19L717.053 561.955L750.139 584.01M750.139 584.01L757.056 608.871M750.139 584.01L775.374 581.393M750.139 584.01L836.5 641.579L902.903 641.579" stroke="#00FF84" stroke-width="3.64"/>
<path d="M415.95 85.5941C415.95 89.0556 418.756 91.8616 422.218 91.8616C425.679 91.8616 428.485 89.0556 428.485 85.5941C428.485 82.1327 425.679 79.3266 422.218 79.3266C418.756 79.3266 415.95 82.1327 415.95 85.5941Z" stroke="#00FF84" stroke-width="3.64"/>
<path d="M169.133 290.648C172.014 292.568 175.905 291.79 177.825 288.909C179.745 286.029 178.966 282.138 176.086 280.218C173.206 278.298 169.315 279.076 167.395 281.957C165.475 284.837 166.253 288.728 169.133 290.648Z" stroke="#00FF84" stroke-width="3.64"/>
<path d="M803.894 292.365C801.014 294.285 797.123 293.507 795.203 290.626C793.283 287.746 794.062 283.855 796.942 281.935C799.822 280.015 803.713 280.794 805.633 283.674C807.553 286.554 806.775 290.445 803.894 292.365Z" stroke="#00FF84" stroke-width="3.64"/>
<path d="M450.994 39.0901C450.994 41.4349 452.895 43.3357 455.24 43.3357C457.584 43.3357 459.485 41.4349 459.485 39.0901C459.485 36.7452 457.584 34.8444 455.24 34.8444C452.895 34.8444 450.994 36.7452 450.994 39.0901Z" stroke="#00FF84" stroke-width="3.64"/>
<path d="M149.877 235.696C151.828 236.997 154.464 236.469 155.765 234.518C157.065 232.567 156.538 229.931 154.587 228.631C152.636 227.33 150 227.857 148.699 229.809C147.399 231.76 147.926 234.396 149.877 235.696Z" stroke="#00FF84" stroke-width="3.64"/>
<path d="M823.153 237.411C821.202 238.712 818.566 238.184 817.265 236.233C815.965 234.282 816.492 231.646 818.443 230.346C820.394 229.045 823.03 229.572 824.33 231.523C825.631 233.474 825.104 236.11 823.153 237.411Z" stroke="#00FF84" stroke-width="3.64"/>
<path d="M450.994 196.796C450.994 199.141 452.895 201.042 455.24 201.042C457.584 201.042 459.485 199.141 459.485 196.796C459.485 194.451 457.584 192.55 455.24 192.55C452.895 192.55 450.994 194.451 450.994 196.796Z" stroke="#00FF84" stroke-width="3.64"/>
<path d="M281.102 323.17C283.053 324.471 285.689 323.943 286.989 321.992C288.29 320.041 287.763 317.405 285.811 316.105C283.86 314.804 281.224 315.332 279.924 317.283C278.623 319.234 279.151 321.87 281.102 323.17Z" stroke="#00FF84" stroke-width="3.64"/>
<path d="M691.932 324.888C689.981 326.188 687.345 325.661 686.044 323.71C684.744 321.759 685.271 319.123 687.222 317.822C689.173 316.522 691.809 317.049 693.11 319C694.41 320.951 693.883 323.587 691.932 324.888Z" stroke="#00FF84" stroke-width="3.64"/>
<path d="M511.651 39.0896C511.651 41.4344 513.551 43.3352 515.896 43.3352C518.241 43.3352 520.142 41.4344 520.142 39.0896C520.142 36.7448 518.241 34.8439 515.896 34.8439C513.551 34.8439 511.651 36.7448 511.651 39.0896Z" stroke="#00FF84" stroke-width="3.64"/>
<path d="M183.52 185.225C185.471 186.526 188.107 185.999 189.408 184.048C190.708 182.097 190.181 179.461 188.23 178.16C186.279 176.859 183.643 177.387 182.342 179.338C181.042 181.289 181.569 183.925 183.52 185.225Z" stroke="#00FF84" stroke-width="3.64"/>
<path d="M789.509 186.943C787.558 188.244 784.922 187.716 783.621 185.765C782.321 183.814 782.848 181.178 784.799 179.878C786.75 178.577 789.386 179.104 790.686 181.055C791.987 183.006 791.46 185.642 789.509 186.943Z" stroke="#00FF84" stroke-width="3.64"/>
<path d="M511.651 196.796C511.651 199.141 513.551 201.042 515.896 201.042C518.241 201.042 520.142 199.141 520.142 196.796C520.142 194.451 518.241 192.55 515.896 192.55C513.551 192.55 511.651 194.451 511.651 196.796Z" stroke="#00FF84" stroke-width="3.64"/>
<path d="M314.743 272.699C316.694 274 319.33 273.473 320.63 271.522C321.931 269.57 321.404 266.934 319.453 265.634C317.502 264.333 314.866 264.861 313.565 266.812C312.264 268.763 312.792 271.399 314.743 272.699Z" stroke="#00FF84" stroke-width="3.64"/>
<path d="M658.287 274.417C656.335 275.717 653.7 275.19 652.399 273.239C651.098 271.288 651.626 268.652 653.577 267.351C655.528 266.051 658.164 266.578 659.464 268.529C660.765 270.48 660.238 273.116 658.287 274.417Z" stroke="#00FF84" stroke-width="3.64"/>
<path d="M371.469 130.076C371.469 133.537 374.275 136.343 377.736 136.343C381.198 136.343 384.004 133.537 384.004 130.076C384.004 126.614 381.198 123.808 377.736 123.808C374.275 123.808 371.469 126.614 371.469 130.076Z" stroke="#00FF84" stroke-width="3.64"/>
<path d="M181.474 352.331C184.354 354.251 188.245 353.473 190.165 350.593C192.085 347.713 191.307 343.821 188.426 341.901C185.546 339.981 181.655 340.76 179.735 343.64C177.815 346.52 178.594 350.411 181.474 352.331Z" stroke="#00FF84" stroke-width="3.64"/>
<path d="M791.557 354.049C788.676 355.969 784.785 355.191 782.865 352.31C780.945 349.43 781.724 345.539 784.604 343.619C787.484 341.699 791.375 342.477 793.295 345.358C795.215 348.238 794.437 352.129 791.557 354.049Z" stroke="#00FF84" stroke-width="3.64"/>
<path d="M386.292 171.859C386.292 175.321 389.099 178.127 392.56 178.127C396.021 178.127 398.827 175.321 398.827 171.859C398.827 168.398 396.021 165.592 392.56 165.592C389.099 165.592 386.292 168.398 386.292 171.859Z" stroke="#00FF84" stroke-width="3.64"/>
<path d="M224.464 363.172C227.344 365.092 231.235 364.313 233.155 361.433C235.075 358.553 234.297 354.662 231.417 352.742C228.537 350.822 224.645 351.6 222.725 354.48C220.805 357.361 221.584 361.252 224.464 363.172Z" stroke="#00FF84" stroke-width="3.64"/>
<path d="M748.567 364.889C745.687 366.809 741.796 366.031 739.876 363.151C737.956 360.27 738.734 356.379 741.615 354.459C744.495 352.539 748.386 353.318 750.306 356.198C752.226 359.078 751.448 362.969 748.567 364.889Z" stroke="#00FF84" stroke-width="3.64"/>
<path d="M572.306 171.859C572.306 175.32 575.112 178.127 578.574 178.127C582.035 178.127 584.841 175.32 584.841 171.859C584.841 168.398 582.035 165.591 578.574 165.591C575.112 165.591 572.306 168.398 572.306 171.859Z" stroke="#00FF84" stroke-width="3.64"/>
<path d="M327.639 208.395C330.519 210.315 334.41 209.536 336.33 206.656C338.25 203.776 337.472 199.885 334.591 197.965C331.711 196.045 327.82 196.823 325.9 199.703C323.98 202.584 324.759 206.475 327.639 208.395Z" stroke="#00FF84" stroke-width="3.64"/>
<path d="M645.39 210.112C642.51 212.032 638.619 211.254 636.699 208.374C634.779 205.494 635.557 201.602 638.437 199.682C641.318 197.762 645.209 198.541 647.129 201.421C649.049 204.301 648.27 208.192 645.39 210.112Z" stroke="#00FF84" stroke-width="3.64"/>
<path d="M542.652 84.2457C542.652 87.7072 545.458 90.5132 548.92 90.5132C552.381 90.5132 555.187 87.7072 555.187 84.2457C555.187 80.7843 552.381 77.9782 548.92 77.9782C545.458 77.9782 542.652 80.7843 542.652 84.2457Z" stroke="#00FF84" stroke-width="3.64"/>
<path d="M238.288 184.473C241.168 186.393 245.06 185.615 246.98 182.735C248.899 179.854 248.121 175.963 245.241 174.043C242.361 172.123 238.469 172.902 236.549 175.782C234.63 178.662 235.408 182.553 238.288 184.473Z" stroke="#00FF84" stroke-width="3.64"/>
<path d="M734.74 186.191C731.86 188.111 727.969 187.332 726.049 184.452C724.129 181.572 724.907 177.681 727.787 175.761C730.668 173.841 734.559 174.619 736.479 177.499C738.399 180.38 737.62 184.271 734.74 186.191Z" stroke="#00FF84" stroke-width="3.64"/>
<path d="M588.483 130.076C588.483 133.538 591.289 136.344 594.75 136.344C598.212 136.344 601.018 133.538 601.018 130.076C601.018 126.615 598.212 123.809 594.75 123.809C591.289 123.809 588.483 126.615 588.483 130.076Z" stroke="#00FF84" stroke-width="3.64"/>
<path d="M301.843 171.759C304.723 173.679 308.615 172.901 310.535 170.021C312.455 167.141 311.676 163.249 308.796 161.329C305.916 159.409 302.025 160.188 300.105 163.068C298.185 165.948 298.963 169.839 301.843 171.759Z" stroke="#00FF84" stroke-width="3.64"/>
<path d="M671.185 173.476C668.305 175.396 664.414 174.618 662.494 171.738C660.574 168.858 661.353 164.966 664.233 163.046C667.113 161.126 671.004 161.905 672.924 164.785C674.844 167.665 674.066 171.557 671.185 173.476Z" stroke="#00FF84" stroke-width="3.64"/>
<path d="M485.569 144.228L515.897 112.552V43.8076" stroke="#00FF84" stroke-width="3.64"/>
<path d="M256.536 265.244L247.001 222.439L189.801 184.309" stroke="#00FF84" stroke-width="3.64"/>
<path d="M716.494 266.962L726.029 224.157L783.229 186.027" stroke="#00FF84" stroke-width="3.64"/>
<path d="M485.569 301.934L515.897 270.258V201.514" stroke="#00FF84" stroke-width="3.64"/>
<path d="M387.757 352.718L378.222 309.913L321.022 271.783" stroke="#00FF84" stroke-width="3.64"/>
<path d="M585.271 354.435L594.806 311.63L652.006 273.5" stroke="#00FF84" stroke-width="3.64"/>
<path d="M485.567 144.228L455.239 112.552V44.4822" stroke="#00FF84" stroke-width="3.64"/>
<path d="M256.537 265.243L213.358 272.909L156.719 235.153" stroke="#00FF84" stroke-width="3.64"/>
<path d="M716.494 266.961L759.672 274.626L816.312 236.87" stroke="#00FF84" stroke-width="3.64"/>
<path d="M485.567 301.934L455.239 270.258V202.188" stroke="#00FF84" stroke-width="3.64"/>
<path d="M387.76 352.717L344.581 360.383L287.942 322.626" stroke="#00FF84" stroke-width="3.64"/>
<path d="M585.271 354.435L628.449 362.1L685.088 324.344" stroke="#00FF84" stroke-width="3.64"/>
<path d="M485.568 190.058L548.92 130.749M548.92 130.749V92.3335M548.92 130.749H587.336" stroke="#00FF84" stroke-width="3.64"/>
<path d="M294.671 290.663L280.461 205.053M280.461 205.053L248.497 183.745M280.461 205.053L301.769 173.088" stroke="#00FF84" stroke-width="3.64"/>
<path d="M678.361 292.38L692.571 206.77M692.571 206.77L724.535 185.462M692.571 206.77L671.263 174.805" stroke="#00FF84" stroke-width="3.64"/>
<path d="M485.57 190.057L422.217 130.749M422.217 130.749V92.3333M422.217 130.749H383.802" stroke="#00FF84" stroke-width="3.64"/>
<path d="M294.671 290.663L210.183 310.48M210.183 310.48L178.219 289.172M210.183 310.48L188.875 342.445" stroke="#00FF84" stroke-width="3.64"/>
<path d="M678.358 292.38L762.846 312.197M762.846 312.197L794.81 290.889M762.846 312.197L784.154 344.162" stroke="#00FF84" stroke-width="3.64"/>
<path d="M455.913 231.168L396.604 176.577" stroke="#00FF84" stroke-width="3.64"/>
<path d="M312.429 338.141L234.109 357.21" stroke="#00FF84" stroke-width="3.64"/>
<path d="M660.601 339.859L738.92 358.928" stroke="#00FF84" stroke-width="3.64"/>
<path d="M515.226 230.494L574.534 175.903" stroke="#00FF84" stroke-width="3.64"/>
<path d="M344.766 288.418L332.239 208.79" stroke="#00FF84" stroke-width="3.64"/>
<path d="M628.265 290.133L640.792 210.505" stroke="#00FF84" stroke-width="3.64"/>
</g>
<defs>
<filter id="filter0_b_2142_2" x="-500" y="-500" width="2025" height="1418" filterUnits="userSpaceOnUse" color-interpolation-filters="sRGB">
<feFlood flood-opacity="0" result="BackgroundImageFix"/>
<feGaussianBlur in="BackgroundImageFix" stdDeviation="250"/>
<feComposite in2="SourceAlpha" operator="in" result="effect1_backgroundBlur_2142_2"/>
<feBlend mode="normal" in="SourceGraphic" in2="effect1_backgroundBlur_2142_2" result="shape"/>
</filter>
<linearGradient id="paint0_linear_2142_2" x1="512.5" y1="0" x2="512.5" y2="418" gradientUnits="userSpaceOnUse">
<stop stop-color="#0D894D"/>
<stop offset="1" stop-color="#032314"/>
</linearGradient>
<clipPath id="clip0_2142_2">
<rect width="962" height="415" fill="white" transform="translate(63)"/>
</clipPath>
</defs>
</svg>
