<svg width="1125" height="518" viewBox="0 0 1125 518" fill="none" xmlns="http://www.w3.org/2000/svg">
<g filter="url(#filter0_bd_2022_31)">
<mask id="path-1-inside-1_2022_31" fill="white">
<path fill-rule="evenodd" clip-rule="evenodd" d="M50 71C50 57.1929 61.1929 46 75 46H940.145C946.775 46 953.134 48.6339 957.822 53.3223L1067.68 163.178C1072.37 167.866 1075 174.225 1075 180.855V439C1075 452.807 1063.81 464 1050 464H122.105C115.475 464 109.116 461.366 104.428 456.678L57.3223 409.572C52.6339 404.884 50 398.525 50 391.895V71Z"/>
</mask>
<path fill-rule="evenodd" clip-rule="evenodd" d="M50 71C50 57.1929 61.1929 46 75 46H940.145C946.775 46 953.134 48.6339 957.822 53.3223L1067.68 163.178C1072.37 167.866 1075 174.225 1075 180.855V439C1075 452.807 1063.81 464 1050 464H122.105C115.475 464 109.116 461.366 104.428 456.678L57.3223 409.572C52.6339 404.884 50 398.525 50 391.895V71Z" fill="url(#paint0_linear_2022_31)" fill-opacity="0.1" shape-rendering="crispEdges"/>
<path d="M57.3223 409.572L54.4939 412.401L57.3223 409.572ZM104.428 456.678L107.256 453.849L104.428 456.678ZM1067.68 163.178L1070.51 160.349L1067.68 163.178ZM957.822 53.3223L954.994 56.1507L957.822 53.3223ZM940.145 42H75V50H940.145V42ZM1070.51 160.349L960.651 50.4939L954.994 56.1507L1064.85 166.006L1070.51 160.349ZM1079 439V180.855H1071V439H1079ZM122.105 468H1050V460H122.105V468ZM54.4939 412.401L101.599 459.506L107.256 453.849L60.1508 406.744L54.4939 412.401ZM46 71V391.895H54V71H46ZM60.1508 406.744C56.2125 402.806 54 397.464 54 391.895H46C46 399.586 49.0553 406.962 54.4939 412.401L60.1508 406.744ZM122.105 460C116.536 460 111.194 457.788 107.256 453.849L101.599 459.506C107.038 464.945 114.414 468 122.105 468V460ZM1071 439C1071 450.598 1061.6 460 1050 460V468C1066.02 468 1079 455.016 1079 439H1071ZM1064.85 166.006C1068.79 169.944 1071 175.286 1071 180.855H1079C1079 173.164 1075.94 165.788 1070.51 160.349L1064.85 166.006ZM75 42C58.9837 42 46 54.9837 46 71H54C54 59.402 63.402 50 75 50V42ZM940.145 50C945.714 50 951.056 52.2125 954.994 56.1507L960.651 50.4939C955.212 45.0553 947.836 42 940.145 42V50Z" fill="#00FF84" mask="url(#path-1-inside-1_2022_31)"/>
</g>
<path d="M98.2844 108.426L87.6779 119.033" stroke="white" stroke-width="7.5" stroke-linecap="round"/>
<path d="M123.033 83.6776L112.426 94.2842" stroke="white" stroke-width="7.5" stroke-linecap="round"/>
<path d="M112.426 108.426L123.033 119.033" stroke="white" stroke-width="7.5" stroke-linecap="round"/>
<path d="M87.6777 83.6776L98.2843 94.2842" stroke="white" stroke-width="7.5" stroke-linecap="round"/>
<path d="M960 463.5L1049.89 463.891C1063.74 463.951 1075 452.741 1075 438.891V296" stroke="white" stroke-width="15" stroke-linecap="round" stroke-linejoin="bevel"/>
<g clip-path="url(#clip0_2022_31)">
<path d="M458.525 415.169L536.405 370.205L614.284 415.169V505.097L536.405 550.061L458.525 505.097V415.169Z" stroke="#00FF84" stroke-width="3.64"/>
<path d="M492.129 434.571L536.404 409.008L580.679 434.571V485.695L536.404 511.257L492.129 485.695V434.571Z" stroke="#00FF84" stroke-width="3.64"/>
<path d="M535.569 408.967V324.345V189.553V149.79M535.569 149.79L552.417 130.245M535.569 149.79L519.394 130.245M535.569 149.79V45.9999" stroke="#00FF84" stroke-width="3.64"/>
<path d="M493.133 485.2L422.251 532.161L310.094 606.926L277.008 628.982M277.008 628.982L270.091 653.842M277.008 628.982L251.774 626.364M277.008 628.982L190.648 686.55L113.081 686.55" stroke="#00FF84" stroke-width="3.64"/>
<path d="M492.277 434.034L418.133 385.632L305.976 310.868L272.89 288.812M272.89 288.812L265.973 263.952M272.89 288.812L247.656 291.43M272.89 288.812L186.53 231.243L150.131 231.243L113.732 231.243L113.732 517.744L-60.1834 517.744" stroke="#00FF84" stroke-width="3.64"/>
<path d="M581.56 435.58L654.899 387.351L767.055 312.586L800.141 290.53M800.141 290.53L807.059 265.67M800.141 290.53L825.376 293.148M800.141 290.53L886.944 233.096L1074.5 233.096" stroke="#00FF84" stroke-width="4.368"/>
<path d="M582.073 486.058L654.897 533.19L767.053 607.955L800.139 630.01M800.139 630.01L807.056 654.871M800.139 630.01L825.374 627.393M800.139 630.01L886.5 687.579L952.903 687.579" stroke="#00FF84" stroke-width="3.64"/>
<path d="M465.95 131.594C465.95 135.056 468.756 137.862 472.218 137.862C475.679 137.862 478.485 135.056 478.485 131.594C478.485 128.133 475.679 125.327 472.218 125.327C468.756 125.327 465.95 128.133 465.95 131.594Z" stroke="#00FF84" stroke-width="3.64"/>
<path d="M219.133 336.648C222.014 338.568 225.905 337.79 227.825 334.909C229.745 332.029 228.966 328.138 226.086 326.218C223.206 324.298 219.315 325.076 217.395 327.957C215.475 330.837 216.253 334.728 219.133 336.648Z" stroke="#00FF84" stroke-width="3.64"/>
<path d="M853.894 338.365C851.014 340.285 847.123 339.507 845.203 336.626C843.283 333.746 844.062 329.855 846.942 327.935C849.822 326.015 853.713 326.794 855.633 329.674C857.553 332.554 856.775 336.445 853.894 338.365Z" stroke="#00FF84" stroke-width="3.64"/>
<path d="M500.994 85.0901C500.994 87.4349 502.895 89.3357 505.24 89.3357C507.584 89.3357 509.485 87.4349 509.485 85.0901C509.485 82.7452 507.584 80.8444 505.24 80.8444C502.895 80.8444 500.994 82.7452 500.994 85.0901Z" stroke="#00FF84" stroke-width="3.64"/>
<path d="M199.877 281.696C201.828 282.997 204.464 282.469 205.765 280.518C207.065 278.567 206.538 275.931 204.587 274.631C202.636 273.33 200 273.858 198.699 275.809C197.399 277.76 197.926 280.396 199.877 281.696Z" stroke="#00FF84" stroke-width="3.64"/>
<path d="M873.153 283.411C871.202 284.712 868.566 284.184 867.265 282.233C865.965 280.282 866.492 277.646 868.443 276.346C870.394 275.045 873.03 275.572 874.33 277.523C875.631 279.474 875.104 282.11 873.153 283.411Z" stroke="#00FF84" stroke-width="3.64"/>
<path d="M500.994 242.796C500.994 245.141 502.895 247.042 505.24 247.042C507.584 247.042 509.485 245.141 509.485 242.796C509.485 240.451 507.584 238.55 505.24 238.55C502.895 238.55 500.994 240.451 500.994 242.796Z" stroke="#00FF84" stroke-width="3.64"/>
<path d="M331.102 369.17C333.053 370.471 335.689 369.944 336.989 367.993C338.29 366.042 337.763 363.406 335.811 362.105C333.86 360.804 331.224 361.332 329.924 363.283C328.623 365.234 329.151 367.87 331.102 369.17Z" stroke="#00FF84" stroke-width="3.64"/>
<path d="M741.932 370.888C739.981 372.188 737.345 371.661 736.044 369.71C734.744 367.759 735.271 365.123 737.222 363.822C739.173 362.522 741.809 363.049 743.11 365C744.41 366.951 743.883 369.587 741.932 370.888Z" stroke="#00FF84" stroke-width="3.64"/>
<path d="M561.651 85.0896C561.651 87.4344 563.551 89.3352 565.896 89.3352C568.241 89.3352 570.142 87.4344 570.142 85.0896C570.142 82.7448 568.241 80.8439 565.896 80.8439C563.551 80.8439 561.651 82.7448 561.651 85.0896Z" stroke="#00FF84" stroke-width="3.64"/>
<path d="M233.52 231.225C235.471 232.526 238.107 231.999 239.408 230.048C240.708 228.097 240.181 225.461 238.23 224.16C236.279 222.859 233.643 223.387 232.342 225.338C231.042 227.289 231.569 229.925 233.52 231.225Z" stroke="#00FF84" stroke-width="3.64"/>
<path d="M839.509 232.943C837.558 234.244 834.922 233.716 833.621 231.765C832.321 229.814 832.848 227.178 834.799 225.878C836.75 224.577 839.386 225.104 840.686 227.055C841.987 229.006 841.46 231.642 839.509 232.943Z" stroke="#00FF84" stroke-width="3.64"/>
<path d="M561.651 242.796C561.651 245.141 563.551 247.042 565.896 247.042C568.241 247.042 570.142 245.141 570.142 242.796C570.142 240.451 568.241 238.551 565.896 238.551C563.551 238.551 561.651 240.451 561.651 242.796Z" stroke="#00FF84" stroke-width="3.64"/>
<path d="M364.743 318.699C366.694 320 369.33 319.472 370.63 317.521C371.931 315.57 371.404 312.934 369.453 311.634C367.502 310.333 364.866 310.861 363.565 312.812C362.264 314.763 362.792 317.399 364.743 318.699Z" stroke="#00FF84" stroke-width="3.64"/>
<path d="M708.287 320.417C706.335 321.717 703.7 321.19 702.399 319.239C701.098 317.288 701.626 314.652 703.577 313.351C705.528 312.051 708.164 312.578 709.464 314.529C710.765 316.48 710.238 319.116 708.287 320.417Z" stroke="#00FF84" stroke-width="3.64"/>
<path d="M421.469 176.076C421.469 179.537 424.275 182.343 427.736 182.343C431.198 182.343 434.004 179.537 434.004 176.076C434.004 172.614 431.198 169.808 427.736 169.808C424.275 169.808 421.469 172.614 421.469 176.076Z" stroke="#00FF84" stroke-width="3.64"/>
<path d="M231.473 398.331C234.354 400.251 238.245 399.473 240.165 396.593C242.085 393.713 241.306 389.821 238.426 387.901C235.546 385.981 231.655 386.76 229.735 389.64C227.815 392.52 228.593 396.411 231.473 398.331Z" stroke="#00FF84" stroke-width="3.64"/>
<path d="M841.557 400.049C838.676 401.969 834.785 401.191 832.865 398.31C830.945 395.43 831.724 391.539 834.604 389.619C837.484 387.699 841.375 388.477 843.295 391.358C845.215 394.238 844.437 398.129 841.557 400.049Z" stroke="#00FF84" stroke-width="3.64"/>
<path d="M436.292 217.859C436.292 221.321 439.099 224.127 442.56 224.127C446.021 224.127 448.827 221.321 448.827 217.859C448.827 214.398 446.021 211.592 442.56 211.592C439.099 211.592 436.292 214.398 436.292 217.859Z" stroke="#00FF84" stroke-width="3.64"/>
<path d="M274.464 409.172C277.344 411.092 281.235 410.313 283.155 407.433C285.075 404.553 284.297 400.662 281.417 398.742C278.537 396.822 274.645 397.6 272.725 400.48C270.805 403.361 271.584 407.252 274.464 409.172Z" stroke="#00FF84" stroke-width="3.64"/>
<path d="M798.567 410.889C795.687 412.809 791.796 412.031 789.876 409.151C787.956 406.27 788.734 402.379 791.615 400.459C794.495 398.539 798.386 399.318 800.306 402.198C802.226 405.078 801.448 408.969 798.567 410.889Z" stroke="#00FF84" stroke-width="3.64"/>
<path d="M622.306 217.859C622.306 221.32 625.112 224.127 628.574 224.127C632.035 224.127 634.841 221.32 634.841 217.859C634.841 214.398 632.035 211.591 628.574 211.591C625.112 211.591 622.306 214.398 622.306 217.859Z" stroke="#00FF84" stroke-width="3.64"/>
<path d="M377.639 254.395C380.519 256.315 384.41 255.536 386.33 252.656C388.25 249.776 387.472 245.885 384.591 243.965C381.711 242.045 377.82 242.823 375.9 245.703C373.98 248.584 374.759 252.475 377.639 254.395Z" stroke="#00FF84" stroke-width="3.64"/>
<path d="M695.39 256.112C692.51 258.032 688.619 257.254 686.699 254.374C684.779 251.494 685.557 247.602 688.437 245.682C691.318 243.762 695.209 244.541 697.129 247.421C699.049 250.301 698.27 254.192 695.39 256.112Z" stroke="#00FF84" stroke-width="3.64"/>
<path d="M592.652 130.246C592.652 133.707 595.458 136.513 598.92 136.513C602.381 136.513 605.187 133.707 605.187 130.246C605.187 126.784 602.381 123.978 598.92 123.978C595.458 123.978 592.652 126.784 592.652 130.246Z" stroke="#00FF84" stroke-width="3.64"/>
<path d="M288.288 230.473C291.168 232.393 295.06 231.615 296.98 228.735C298.899 225.855 298.121 221.963 295.241 220.043C292.361 218.123 288.469 218.902 286.549 221.782C284.63 224.662 285.408 228.553 288.288 230.473Z" stroke="#00FF84" stroke-width="3.64"/>
<path d="M784.74 232.191C781.86 234.111 777.969 233.332 776.049 230.452C774.129 227.572 774.907 223.681 777.787 221.761C780.668 219.841 784.559 220.619 786.479 223.499C788.399 226.38 787.62 230.271 784.74 232.191Z" stroke="#00FF84" stroke-width="3.64"/>
<path d="M638.483 176.076C638.483 179.538 641.289 182.344 644.75 182.344C648.212 182.344 651.018 179.538 651.018 176.076C651.018 172.615 648.212 169.809 644.75 169.809C641.289 169.809 638.483 172.615 638.483 176.076Z" stroke="#00FF84" stroke-width="3.64"/>
<path d="M351.843 217.759C354.723 219.679 358.615 218.901 360.535 216.021C362.455 213.141 361.676 209.249 358.796 207.329C355.916 205.409 352.025 206.188 350.105 209.068C348.185 211.948 348.963 215.839 351.843 217.759Z" stroke="#00FF84" stroke-width="3.64"/>
<path d="M721.185 219.476C718.305 221.396 714.414 220.618 712.494 217.738C710.574 214.858 711.353 210.966 714.233 209.046C717.113 207.126 721.004 207.905 722.924 210.785C724.844 213.665 724.066 217.557 721.185 219.476Z" stroke="#00FF84" stroke-width="3.64"/>
<path d="M535.569 190.228L565.897 158.552V89.8076" stroke="#00FF84" stroke-width="3.64"/>
<path d="M306.536 311.244L297.001 268.439L239.801 230.309" stroke="#00FF84" stroke-width="3.64"/>
<path d="M766.494 312.962L776.029 270.157L833.229 232.027" stroke="#00FF84" stroke-width="3.64"/>
<path d="M535.569 347.934L565.897 316.258V247.514" stroke="#00FF84" stroke-width="3.64"/>
<path d="M437.757 398.718L428.222 355.913L371.022 317.783" stroke="#00FF84" stroke-width="3.64"/>
<path d="M635.271 400.435L644.806 357.63L702.006 319.5" stroke="#00FF84" stroke-width="3.64"/>
<path d="M535.567 190.228L505.239 158.552V90.4822" stroke="#00FF84" stroke-width="3.64"/>
<path d="M306.537 311.243L263.358 318.909L206.719 281.153" stroke="#00FF84" stroke-width="3.64"/>
<path d="M766.494 312.961L809.672 320.626L866.312 282.87" stroke="#00FF84" stroke-width="3.64"/>
<path d="M535.567 347.934L505.239 316.258V248.188" stroke="#00FF84" stroke-width="3.64"/>
<path d="M437.76 398.717L394.581 406.383L337.942 368.626" stroke="#00FF84" stroke-width="3.64"/>
<path d="M635.271 400.435L678.449 408.1L735.088 370.344" stroke="#00FF84" stroke-width="3.64"/>
<path d="M535.568 236.058L598.92 176.749M598.92 176.749V138.334M598.92 176.749H637.336" stroke="#00FF84" stroke-width="3.64"/>
<path d="M344.671 336.663L330.461 251.053M330.461 251.053L298.497 229.745M330.461 251.053L351.769 219.088" stroke="#00FF84" stroke-width="3.64"/>
<path d="M728.361 338.38L742.571 252.77M742.571 252.77L774.535 231.462M742.571 252.77L721.263 220.805" stroke="#00FF84" stroke-width="3.64"/>
<path d="M535.57 236.057L472.217 176.749M472.217 176.749V138.333M472.217 176.749H433.802" stroke="#00FF84" stroke-width="3.64"/>
<path d="M344.672 336.663L260.183 356.48M260.183 356.48L228.219 335.172M260.183 356.48L238.875 388.445" stroke="#00FF84" stroke-width="3.64"/>
<path d="M728.358 338.38L812.846 358.197M812.846 358.197L844.81 336.889M812.846 358.197L834.154 390.162" stroke="#00FF84" stroke-width="3.64"/>
<path d="M505.913 277.168L446.604 222.577" stroke="#00FF84" stroke-width="3.64"/>
<path d="M362.429 384.141L284.109 403.21" stroke="#00FF84" stroke-width="3.64"/>
<path d="M710.601 385.859L788.92 404.928" stroke="#00FF84" stroke-width="3.64"/>
<path d="M565.226 276.494L624.534 221.903" stroke="#00FF84" stroke-width="3.64"/>
<path d="M394.766 334.418L382.239 254.79" stroke="#00FF84" stroke-width="3.64"/>
<path d="M678.265 336.133L690.792 256.505" stroke="#00FF84" stroke-width="3.64"/>
</g>
<defs>
<filter id="filter0_bd_2022_31" x="-450" y="-454" width="2025" height="1418" filterUnits="userSpaceOnUse" color-interpolation-filters="sRGB">
<feFlood flood-opacity="0" result="BackgroundImageFix"/>
<feGaussianBlur in="BackgroundImageFix" stdDeviation="250"/>
<feComposite in2="SourceAlpha" operator="in" result="effect1_backgroundBlur_2022_31"/>
<feColorMatrix in="SourceAlpha" type="matrix" values="0 0 0 0 0 0 0 0 0 0 0 0 0 0 0 0 0 0 127 0" result="hardAlpha"/>
<feOffset dy="4"/>
<feGaussianBlur stdDeviation="25"/>
<feComposite in2="hardAlpha" operator="out"/>
<feColorMatrix type="matrix" values="0 0 0 0 0.0980392 0 0 0 0 0.635294 0 0 0 0 0.376471 0 0 0 0.25 0"/>
<feBlend mode="normal" in2="effect1_backgroundBlur_2022_31" result="effect2_dropShadow_2022_31"/>
<feBlend mode="normal" in="SourceGraphic" in2="effect2_dropShadow_2022_31" result="shape"/>
</filter>
<linearGradient id="paint0_linear_2022_31" x1="562.5" y1="46" x2="562.5" y2="464" gradientUnits="userSpaceOnUse">
<stop stop-color="#0D894D"/>
<stop offset="1" stop-color="#032314"/>
</linearGradient>
<clipPath id="clip0_2022_31">
<rect width="962" height="415" fill="white" transform="translate(113 46)"/>
</clipPath>
</defs>
</svg>
