<svg width="72" height="72" viewBox="0 0 72 72" fill="none" xmlns="http://www.w3.org/2000/svg">
<rect x="72" y="72.0006" width="16" height="72" rx="4" transform="rotate(180 72 72.0006)" fill="white"/>
<rect x="72" y="72.0006" width="16" height="72" rx="4" transform="rotate(180 72 72.0006)" fill="white"/>
<rect x="72" y="72.0006" width="16" height="72" rx="4" transform="rotate(180 72 72.0006)" fill="white"/>
<rect x="11.958" y="71.3556" width="16" height="72" rx="4" transform="rotate(-135 11.958 71.3556)" fill="white"/>
<rect x="11.958" y="71.3556" width="16" height="72" rx="4" transform="rotate(-135 11.958 71.3556)" fill="white"/>
<rect x="11.958" y="71.3556" width="16" height="72" rx="4" transform="rotate(-135 11.958 71.3556)" fill="white"/>
<rect x="72" y="0.00012207" width="16" height="72" rx="4" transform="rotate(90 72 0.00012207)" fill="white"/>
<rect x="72" y="0.00012207" width="16" height="72" rx="4" transform="rotate(90 72 0.00012207)" fill="white"/>
<rect x="72" y="0.00012207" width="16" height="72" rx="4" transform="rotate(90 72 0.00012207)" fill="white"/>
</svg>
