<svg width="240" height="58" viewBox="0 0 240 58" fill="none" xmlns="http://www.w3.org/2000/svg">
<g clip-path="url(#clip0_1_1226)">
<rect x="19.5" y="-34" width="12.8034" height="123" transform="rotate(30 19.5 -34)" fill="white"/>
<rect x="19.5" y="-34" width="12.8034" height="123" transform="rotate(30 19.5 -34)" fill="white"/>
<rect x="48.5" y="-34" width="12.8034" height="123" transform="rotate(30 48.5 -34)" fill="white"/>
<rect x="77.5" y="-34" width="12.8034" height="123" transform="rotate(30 77.5 -34)" fill="white"/>
<rect x="106.5" y="-34" width="12.8034" height="123" transform="rotate(30 106.5 -34)" fill="white"/>
<rect x="135.5" y="-34" width="12.8034" height="123" transform="rotate(30 135.5 -34)" fill="white"/>
<rect x="164.5" y="-34" width="12.8034" height="123" transform="rotate(30 164.5 -34)" fill="white"/>
<rect x="193.5" y="-34" width="12.8034" height="123" transform="rotate(30 193.5 -34)" fill="white"/>
<rect x="222.5" y="-34" width="12.8034" height="123" transform="rotate(30 222.5 -34)" fill="white"/>
<rect x="251.5" y="-34" width="12.8034" height="123" transform="rotate(30 251.5 -34)" fill="white"/>
<rect x="280.5" y="-34" width="12.8034" height="123" transform="rotate(30 280.5 -34)" fill="white"/>
</g>
<defs>
<clipPath id="clip0_1_1226">
<rect width="240" height="58" fill="white"/>
</clipPath>
</defs>
</svg>
