<svg width="614" height="146" viewBox="0 0 614 146" fill="none" xmlns="http://www.w3.org/2000/svg">
<rect width="267" height="38" fill="#E2AA06"/>
<rect x="277" width="18" height="38" fill="#E2AA06"/>
<rect x="303" width="9" height="38" fill="#E2AA06"/>
<path d="M502.5 19.5L503.632 18.516L503.184 18H502.5V19.5ZM597.5 138C597.5 142.418 601.082 146 605.5 146C609.918 146 613.5 142.418 613.5 138C613.5 133.582 609.918 130 605.5 130C601.082 130 597.5 133.582 597.5 138ZM308 21H502.5V18H308V21ZM501.368 20.484L604.368 138.984L606.632 137.016L503.632 18.516L501.368 20.484Z" fill="#E2AA06"/>
<circle cx="605.5" cy="137.5" r="4.5" fill="#0F0F12"/>
</svg>
