<svg width="1920" height="848" viewBox="0 0 1920 848" fill="none" xmlns="http://www.w3.org/2000/svg">
<path d="M284.5 109H434.5V559L284.5 709H115.75V577.75L-15.5 709H-315.5V109H-165.5V559H-77.75L-15.5 497.5V109H134.5V559H222.25L284.5 497.5V109ZM734.207 109H1334.21V559L1184.21 709H584.207V259L734.207 109ZM1184.21 497.5V259H795.707L734.207 321.25V559H1121.96L1184.21 497.5ZM1633.91 321.25V559H2233.91V709H1483.91V259L1633.91 109H2233.91V259H1695.41L1633.91 321.25Z" fill="#D9D9D9" fill-opacity="0.05"/>
<g filter="url(#filter0_d_172_338)">
<mask id="path-2-inside-1_172_338" fill="white">
<path d="M420 228H460V348L420 388H375V353L340 388H260V228H300V348H323.4L340 331.6V228H380V348H403.4L420 331.6V228ZM499.922 228H699.922V268H619.922V348H699.922V388H499.922V348H579.922V268H499.922V228ZM899.844 228H939.844V388H859.844L819.844 348V284.6L803.244 268H779.844V388H739.844V228H819.844L859.844 268V331.6L876.244 348H899.844V228ZM1094.77 228H1179.77V268H1099.77V388H1059.77V284.6L1043.17 268H979.766V228H1059.77L1094.77 263V228ZM1219.69 228H1419.69V268H1259.69V288H1419.69V328H1276.09L1259.69 344.6V348H1419.69V388H1219.69V328L1254.69 293H1219.69V228ZM1659.61 228V293H1624.61L1659.61 328V388H1619.61V344.6L1603.01 328H1499.61V388H1459.61V268L1499.61 228H1659.61ZM1619.61 288V268H1516.01L1499.61 284.6V288H1619.61ZM297.25 450.8H448.45V564.2L410.65 602H259.45V488.6L297.25 450.8ZM410.65 548.702V488.6H312.748L297.25 504.287V564.2H394.963L410.65 548.702ZM675.176 450.8V488.6H523.976V507.5H675.176V545.3H539.474L523.976 560.987V602H486.176V545.3L519.251 512.225H486.176V450.8H675.176ZM826.265 504.287V564.2H977.465V602H788.465V488.6L826.265 450.8H977.465V488.6H841.763L826.265 504.287ZM1052.99 450.8H1204.19V564.2L1166.39 602H1015.19V488.6L1052.99 450.8ZM1166.39 548.702V488.6H1068.49L1052.99 504.287V564.2H1150.7L1166.39 548.702ZM1241.92 450.8H1430.92V564.2L1393.12 602H1241.92V450.8ZM1393.12 548.702V488.6H1279.72V564.2H1377.43L1393.12 548.702ZM1468.64 450.8H1657.64V488.6H1506.44V507.5H1657.64V545.3H1521.94L1506.44 560.987V564.2H1657.64V602H1468.64V545.3L1501.72 512.225H1468.64V450.8Z"/>
</mask>
<path d="M420 228H460V348L420 388H375V353L340 388H260V228H300V348H323.4L340 331.6V228H380V348H403.4L420 331.6V228ZM499.922 228H699.922V268H619.922V348H699.922V388H499.922V348H579.922V268H499.922V228ZM899.844 228H939.844V388H859.844L819.844 348V284.6L803.244 268H779.844V388H739.844V228H819.844L859.844 268V331.6L876.244 348H899.844V228ZM1094.77 228H1179.77V268H1099.77V388H1059.77V284.6L1043.17 268H979.766V228H1059.77L1094.77 263V228ZM1219.69 228H1419.69V268H1259.69V288H1419.69V328H1276.09L1259.69 344.6V348H1419.69V388H1219.69V328L1254.69 293H1219.69V228ZM1659.61 228V293H1624.61L1659.61 328V388H1619.61V344.6L1603.01 328H1499.61V388H1459.61V268L1499.61 228H1659.61ZM1619.61 288V268H1516.01L1499.61 284.6V288H1619.61ZM297.25 450.8H448.45V564.2L410.65 602H259.45V488.6L297.25 450.8ZM410.65 548.702V488.6H312.748L297.25 504.287V564.2H394.963L410.65 548.702ZM675.176 450.8V488.6H523.976V507.5H675.176V545.3H539.474L523.976 560.987V602H486.176V545.3L519.251 512.225H486.176V450.8H675.176ZM826.265 504.287V564.2H977.465V602H788.465V488.6L826.265 450.8H977.465V488.6H841.763L826.265 504.287ZM1052.99 450.8H1204.19V564.2L1166.39 602H1015.19V488.6L1052.99 450.8ZM1166.39 548.702V488.6H1068.49L1052.99 504.287V564.2H1150.7L1166.39 548.702ZM1241.92 450.8H1430.92V564.2L1393.12 602H1241.92V450.8ZM1393.12 548.702V488.6H1279.72V564.2H1377.43L1393.12 548.702ZM1468.64 450.8H1657.64V488.6H1506.44V507.5H1657.64V545.3H1521.94L1506.44 560.987V564.2H1657.64V602H1468.64V545.3L1501.72 512.225H1468.64V450.8Z" fill="#151D2F"/>
<path d="M420 228V223H415V228H420ZM460 228H465V223H460V228ZM460 348L463.536 351.536L465 350.071V348H460ZM420 388V393H422.071L423.536 391.536L420 388ZM375 388H370V393H375V388ZM375 353H380V340.929L371.464 349.464L375 353ZM340 388V393H342.071L343.536 391.536L340 388ZM260 388H255V393H260V388ZM260 228V223H255V228H260ZM300 228H305V223H300V228ZM300 348H295V353H300V348ZM323.4 348V353H325.453L326.914 351.557L323.4 348ZM340 331.6L343.514 335.157L345 333.689V331.6H340ZM340 228V223H335V228H340ZM380 228H385V223H380V228ZM380 348H375V353H380V348ZM403.4 348V353H405.453L406.914 351.557L403.4 348ZM420 331.6L423.514 335.157L425 333.689V331.6H420ZM420 233H460V223H420V233ZM455 228V348H465V228H455ZM456.464 344.464L416.464 384.464L423.536 391.536L463.536 351.536L456.464 344.464ZM420 383H375V393H420V383ZM380 388V353H370V388H380ZM371.464 349.464L336.464 384.464L343.536 391.536L378.536 356.536L371.464 349.464ZM340 383H260V393H340V383ZM265 388V228H255V388H265ZM260 233H300V223H260V233ZM295 228V348H305V228H295ZM300 353H323.4V343H300V353ZM326.914 351.557L343.514 335.157L336.486 328.043L319.886 344.443L326.914 351.557ZM345 331.6V228H335V331.6H345ZM340 233H380V223H340V233ZM375 228V348H385V228H375ZM380 353H403.4V343H380V353ZM406.914 351.557L423.514 335.157L416.486 328.043L399.886 344.443L406.914 351.557ZM425 331.6V228H415V331.6H425ZM499.922 228V223H494.922V228H499.922ZM699.922 228H704.922V223H699.922V228ZM699.922 268V273H704.922V268H699.922ZM619.922 268V263H614.922V268H619.922ZM619.922 348H614.922V353H619.922V348ZM699.922 348H704.922V343H699.922V348ZM699.922 388V393H704.922V388H699.922ZM499.922 388H494.922V393H499.922V388ZM499.922 348V343H494.922V348H499.922ZM579.922 348V353H584.922V348H579.922ZM579.922 268H584.922V263H579.922V268ZM499.922 268H494.922V273H499.922V268ZM499.922 233H699.922V223H499.922V233ZM694.922 228V268H704.922V228H694.922ZM699.922 263H619.922V273H699.922V263ZM614.922 268V348H624.922V268H614.922ZM619.922 353H699.922V343H619.922V353ZM694.922 348V388H704.922V348H694.922ZM699.922 383H499.922V393H699.922V383ZM504.922 388V348H494.922V388H504.922ZM499.922 353H579.922V343H499.922V353ZM584.922 348V268H574.922V348H584.922ZM579.922 263H499.922V273H579.922V263ZM504.922 268V228H494.922V268H504.922ZM899.844 228V223H894.844V228H899.844ZM939.844 228H944.844V223H939.844V228ZM939.844 388V393H944.844V388H939.844ZM859.844 388L856.308 391.536L857.773 393H859.844V388ZM819.844 348H814.844V350.071L816.308 351.536L819.844 348ZM819.844 284.6H824.844V282.529L823.379 281.064L819.844 284.6ZM803.244 268L806.779 264.464L805.315 263H803.244V268ZM779.844 268V263H774.844V268H779.844ZM779.844 388V393H784.844V388H779.844ZM739.844 388H734.844V393H739.844V388ZM739.844 228V223H734.844V228H739.844ZM819.844 228L823.379 224.464L821.915 223H819.844V228ZM859.844 268H864.844V265.929L863.379 264.464L859.844 268ZM859.844 331.6H854.844V333.671L856.308 335.136L859.844 331.6ZM876.244 348L872.708 351.536L874.173 353H876.244V348ZM899.844 348V353H904.844V348H899.844ZM899.844 233H939.844V223H899.844V233ZM934.844 228V388H944.844V228H934.844ZM939.844 383H859.844V393H939.844V383ZM863.379 384.464L823.379 344.464L816.308 351.536L856.308 391.536L863.379 384.464ZM824.844 348V284.6H814.844V348H824.844ZM823.379 281.064L806.779 264.464L799.708 271.536L816.308 288.136L823.379 281.064ZM803.244 263H779.844V273H803.244V263ZM774.844 268V388H784.844V268H774.844ZM779.844 383H739.844V393H779.844V383ZM744.844 388V228H734.844V388H744.844ZM739.844 233H819.844V223H739.844V233ZM816.308 231.536L856.308 271.536L863.379 264.464L823.379 224.464L816.308 231.536ZM854.844 268V331.6H864.844V268H854.844ZM856.308 335.136L872.708 351.536L879.779 344.464L863.379 328.064L856.308 335.136ZM876.244 353H899.844V343H876.244V353ZM904.844 348V228H894.844V348H904.844ZM1094.77 228V223H1089.77V228H1094.77ZM1179.77 228H1184.77V223H1179.77V228ZM1179.77 268V273H1184.77V268H1179.77ZM1099.77 268V263H1094.77V268H1099.77ZM1099.77 388V393H1104.77V388H1099.77ZM1059.77 388H1054.77V393H1059.77V388ZM1059.77 284.6H1064.77V282.529L1063.3 281.064L1059.77 284.6ZM1043.17 268L1046.7 264.464L1045.24 263H1043.17V268ZM979.766 268H974.766V273H979.766V268ZM979.766 228V223H974.766V228H979.766ZM1059.77 228L1063.3 224.464L1061.84 223H1059.77V228ZM1094.77 263L1091.23 266.536L1099.77 275.071V263H1094.77ZM1094.77 233H1179.77V223H1094.77V233ZM1174.77 228V268H1184.77V228H1174.77ZM1179.77 263H1099.77V273H1179.77V263ZM1094.77 268V388H1104.77V268H1094.77ZM1099.77 383H1059.77V393H1099.77V383ZM1064.77 388V284.6H1054.77V388H1064.77ZM1063.3 281.064L1046.7 264.464L1039.63 271.536L1056.23 288.136L1063.3 281.064ZM1043.17 263H979.766V273H1043.17V263ZM984.766 268V228H974.766V268H984.766ZM979.766 233H1059.77V223H979.766V233ZM1056.23 231.536L1091.23 266.536L1098.3 259.464L1063.3 224.464L1056.23 231.536ZM1099.77 263V228H1089.77V263H1099.77ZM1219.69 228V223H1214.69V228H1219.69ZM1419.69 228H1424.69V223H1419.69V228ZM1419.69 268V273H1424.69V268H1419.69ZM1259.69 268V263H1254.69V268H1259.69ZM1259.69 288H1254.69V293H1259.69V288ZM1419.69 288H1424.69V283H1419.69V288ZM1419.69 328V333H1424.69V328H1419.69ZM1276.09 328V323H1274L1272.53 324.486L1276.09 328ZM1259.69 344.6L1256.13 341.086L1254.69 342.547V344.6H1259.69ZM1259.69 348H1254.69V353H1259.69V348ZM1419.69 348H1424.69V343H1419.69V348ZM1419.69 388V393H1424.69V388H1419.69ZM1219.69 388H1214.69V393H1219.69V388ZM1219.69 328L1216.15 324.464L1214.69 325.929V328H1219.69ZM1254.69 293L1258.22 296.536L1266.76 288H1254.69V293ZM1219.69 293H1214.69V298H1219.69V293ZM1219.69 233H1419.69V223H1219.69V233ZM1414.69 228V268H1424.69V228H1414.69ZM1419.69 263H1259.69V273H1419.69V263ZM1254.69 268V288H1264.69V268H1254.69ZM1259.69 293H1419.69V283H1259.69V293ZM1414.69 288V328H1424.69V288H1414.69ZM1419.69 323H1276.09V333H1419.69V323ZM1272.53 324.486L1256.13 341.086L1263.24 348.114L1279.64 331.514L1272.53 324.486ZM1254.69 344.6V348H1264.69V344.6H1254.69ZM1259.69 353H1419.69V343H1259.69V353ZM1414.69 348V388H1424.69V348H1414.69ZM1419.69 383H1219.69V393H1419.69V383ZM1224.69 388V328H1214.69V388H1224.69ZM1223.22 331.536L1258.22 296.536L1251.15 289.464L1216.15 324.464L1223.22 331.536ZM1254.69 288H1219.69V298H1254.69V288ZM1224.69 293V228H1214.69V293H1224.69ZM1659.61 228H1664.61V223H1659.61V228ZM1659.61 293V298H1664.61V293H1659.61ZM1624.61 293V288H1612.54L1621.07 296.536L1624.61 293ZM1659.61 328H1664.61V325.929L1663.14 324.464L1659.61 328ZM1659.61 388V393H1664.61V388H1659.61ZM1619.61 388H1614.61V393H1619.61V388ZM1619.61 344.6H1624.61V342.529L1623.14 341.064L1619.61 344.6ZM1603.01 328L1606.54 324.464L1605.08 323H1603.01V328ZM1499.61 328V323H1494.61V328H1499.61ZM1499.61 388V393H1504.61V388H1499.61ZM1459.61 388H1454.61V393H1459.61V388ZM1459.61 268L1456.07 264.464L1454.61 265.929V268H1459.61ZM1499.61 228V223H1497.54L1496.07 224.464L1499.61 228ZM1619.61 288V293H1624.61V288H1619.61ZM1619.61 268H1624.61V263H1619.61V268ZM1516.01 268V263H1513.92L1512.45 264.486L1516.01 268ZM1499.61 284.6L1496.05 281.086L1494.61 282.547V284.6H1499.61ZM1499.61 288H1494.61V293H1499.61V288ZM1654.61 228V293H1664.61V228H1654.61ZM1659.61 288H1624.61V298H1659.61V288ZM1621.07 296.536L1656.07 331.536L1663.14 324.464L1628.14 289.464L1621.07 296.536ZM1654.61 328V388H1664.61V328H1654.61ZM1659.61 383H1619.61V393H1659.61V383ZM1624.61 388V344.6H1614.61V388H1624.61ZM1623.14 341.064L1606.54 324.464L1599.47 331.536L1616.07 348.136L1623.14 341.064ZM1603.01 323H1499.61V333H1603.01V323ZM1494.61 328V388H1504.61V328H1494.61ZM1499.61 383H1459.61V393H1499.61V383ZM1464.61 388V268H1454.61V388H1464.61ZM1463.14 271.536L1503.14 231.536L1496.07 224.464L1456.07 264.464L1463.14 271.536ZM1499.61 233H1659.61V223H1499.61V233ZM1624.61 288V268H1614.61V288H1624.61ZM1619.61 263H1516.01V273H1619.61V263ZM1512.45 264.486L1496.05 281.086L1503.17 288.114L1519.57 271.514L1512.45 264.486ZM1494.61 284.6V288H1504.61V284.6H1494.61ZM1499.61 293H1619.61V283H1499.61V293ZM297.25 450.8V445.8H295.179L293.714 447.264L297.25 450.8ZM448.45 450.8H453.45V445.8H448.45V450.8ZM448.45 564.2L451.986 567.736L453.45 566.271V564.2H448.45ZM410.65 602V607H412.721L414.186 605.536L410.65 602ZM259.45 602H254.45V607H259.45V602ZM259.45 488.6L255.914 485.064L254.45 486.529V488.6H259.45ZM410.65 548.702L414.164 552.259L415.65 550.791V548.702H410.65ZM410.65 488.6H415.65V483.6H410.65V488.6ZM312.748 488.6V483.6H310.659L309.191 485.086L312.748 488.6ZM297.25 504.287L293.693 500.773L292.25 502.234V504.287H297.25ZM297.25 564.2H292.25V569.2H297.25V564.2ZM394.963 564.2V569.2H397.016L398.477 567.757L394.963 564.2ZM297.25 455.8H448.45V445.8H297.25V455.8ZM443.45 450.8V564.2H453.45V450.8H443.45ZM444.914 560.664L407.114 598.464L414.186 605.536L451.986 567.736L444.914 560.664ZM410.65 597H259.45V607H410.65V597ZM264.45 602V488.6H254.45V602H264.45ZM262.986 492.136L300.786 454.336L293.714 447.264L255.914 485.064L262.986 492.136ZM415.65 548.702V488.6H405.65V548.702H415.65ZM410.65 483.6H312.748V493.6H410.65V483.6ZM309.191 485.086L293.693 500.773L300.807 507.801L316.305 492.114L309.191 485.086ZM292.25 504.287V564.2H302.25V504.287H292.25ZM297.25 569.2H394.963V559.2H297.25V569.2ZM398.477 567.757L414.164 552.259L407.136 545.145L391.449 560.643L398.477 567.757ZM675.176 450.8H680.176V445.8H675.176V450.8ZM675.176 488.6V493.6H680.176V488.6H675.176ZM523.976 488.6V483.6H518.976V488.6H523.976ZM523.976 507.5H518.976V512.5H523.976V507.5ZM675.176 507.5H680.176V502.5H675.176V507.5ZM675.176 545.3V550.3H680.176V545.3H675.176ZM539.474 545.3V540.3H537.385L535.917 541.786L539.474 545.3ZM523.976 560.987L520.419 557.473L518.976 558.934V560.987H523.976ZM523.976 602V607H528.976V602H523.976ZM486.176 602H481.176V607H486.176V602ZM486.176 545.3L482.641 541.764L481.176 543.229V545.3H486.176ZM519.251 512.225L522.787 515.761L531.322 507.225H519.251V512.225ZM486.176 512.225H481.176V517.225H486.176V512.225ZM486.176 450.8V445.8H481.176V450.8H486.176ZM670.176 450.8V488.6H680.176V450.8H670.176ZM675.176 483.6H523.976V493.6H675.176V483.6ZM518.976 488.6V507.5H528.976V488.6H518.976ZM523.976 512.5H675.176V502.5H523.976V512.5ZM670.176 507.5V545.3H680.176V507.5H670.176ZM675.176 540.3H539.474V550.3H675.176V540.3ZM535.917 541.786L520.419 557.473L527.533 564.501L543.031 548.814L535.917 541.786ZM518.976 560.987V602H528.976V560.987H518.976ZM523.976 597H486.176V607H523.976V597ZM491.176 602V545.3H481.176V602H491.176ZM489.712 548.836L522.787 515.761L515.716 508.689L482.641 541.764L489.712 548.836ZM519.251 507.225H486.176V517.225H519.251V507.225ZM491.176 512.225V450.8H481.176V512.225H491.176ZM486.176 455.8H675.176V445.8H486.176V455.8ZM826.265 504.287L822.709 500.773L821.265 502.234V504.287H826.265ZM826.265 564.2H821.265V569.2H826.265V564.2ZM977.465 564.2H982.465V559.2H977.465V564.2ZM977.465 602V607H982.465V602H977.465ZM788.465 602H783.465V607H788.465V602ZM788.465 488.6L784.93 485.064L783.465 486.529V488.6H788.465ZM826.265 450.8V445.8H824.194L822.73 447.264L826.265 450.8ZM977.465 450.8H982.465V445.8H977.465V450.8ZM977.465 488.6V493.6H982.465V488.6H977.465ZM841.763 488.6V483.6H839.675L838.207 485.086L841.763 488.6ZM821.265 504.287V564.2H831.265V504.287H821.265ZM826.265 569.2H977.465V559.2H826.265V569.2ZM972.465 564.2V602H982.465V564.2H972.465ZM977.465 597H788.465V607H977.465V597ZM793.465 602V488.6H783.465V602H793.465ZM792.001 492.136L829.801 454.336L822.73 447.264L784.93 485.064L792.001 492.136ZM826.265 455.8H977.465V445.8H826.265V455.8ZM972.465 450.8V488.6H982.465V450.8H972.465ZM977.465 483.6H841.763V493.6H977.465V483.6ZM838.207 485.086L822.709 500.773L829.822 507.801L845.32 492.114L838.207 485.086ZM1052.99 450.8V445.8H1050.92L1049.46 447.264L1052.99 450.8ZM1204.19 450.8H1209.19V445.8H1204.19V450.8ZM1204.19 564.2L1207.73 567.736L1209.19 566.271V564.2H1204.19ZM1166.39 602V607H1168.46L1169.93 605.536L1166.39 602ZM1015.19 602H1010.19V607H1015.19V602ZM1015.19 488.6L1011.66 485.064L1010.19 486.529V488.6H1015.19ZM1166.39 548.702L1169.91 552.259L1171.39 550.791V548.702H1166.39ZM1166.39 488.6H1171.39V483.6H1166.39V488.6ZM1068.49 488.6V483.6H1066.4L1064.93 485.086L1068.49 488.6ZM1052.99 504.287L1049.43 500.773L1047.99 502.234V504.287H1052.99ZM1052.99 564.2H1047.99V569.2H1052.99V564.2ZM1150.7 564.2V569.2H1152.76L1154.22 567.757L1150.7 564.2ZM1052.99 455.8H1204.19V445.8H1052.99V455.8ZM1199.19 450.8V564.2H1209.19V450.8H1199.19ZM1200.66 560.664L1162.86 598.464L1169.93 605.536L1207.73 567.736L1200.66 560.664ZM1166.39 597H1015.19V607H1166.39V597ZM1020.19 602V488.6H1010.19V602H1020.19ZM1018.73 492.136L1056.53 454.336L1049.46 447.264L1011.66 485.064L1018.73 492.136ZM1171.39 548.702V488.6H1161.39V548.702H1171.39ZM1166.39 483.6H1068.49V493.6H1166.39V483.6ZM1064.93 485.086L1049.43 500.773L1056.55 507.801L1072.05 492.114L1064.93 485.086ZM1047.99 504.287V564.2H1057.99V504.287H1047.99ZM1052.99 569.2H1150.7V559.2H1052.99V569.2ZM1154.22 567.757L1169.91 552.259L1162.88 545.145L1147.19 560.643L1154.22 567.757ZM1241.92 450.8V445.8H1236.92V450.8H1241.92ZM1430.92 450.8H1435.92V445.8H1430.92V450.8ZM1430.92 564.2L1434.45 567.736L1435.92 566.271V564.2H1430.92ZM1393.12 602V607H1395.19L1396.65 605.536L1393.12 602ZM1241.92 602H1236.92V607H1241.92V602ZM1393.12 548.702L1396.63 552.259L1398.12 550.791V548.702H1393.12ZM1393.12 488.6H1398.12V483.6H1393.12V488.6ZM1279.72 488.6V483.6H1274.72V488.6H1279.72ZM1279.72 564.2H1274.72V569.2H1279.72V564.2ZM1377.43 564.2V569.2H1379.48L1380.94 567.757L1377.43 564.2ZM1241.92 455.8H1430.92V445.8H1241.92V455.8ZM1425.92 450.8V564.2H1435.92V450.8H1425.92ZM1427.38 560.664L1389.58 598.464L1396.65 605.536L1434.45 567.736L1427.38 560.664ZM1393.12 597H1241.92V607H1393.12V597ZM1246.92 602V450.8H1236.92V602H1246.92ZM1398.12 548.702V488.6H1388.12V548.702H1398.12ZM1393.12 483.6H1279.72V493.6H1393.12V483.6ZM1274.72 488.6V564.2H1284.72V488.6H1274.72ZM1279.72 569.2H1377.43V559.2H1279.72V569.2ZM1380.94 567.757L1396.63 552.259L1389.6 545.145L1373.92 560.643L1380.94 567.757ZM1468.64 450.8V445.8H1463.64V450.8H1468.64ZM1657.64 450.8H1662.64V445.8H1657.64V450.8ZM1657.64 488.6V493.6H1662.64V488.6H1657.64ZM1506.44 488.6V483.6H1501.44V488.6H1506.44ZM1506.44 507.5H1501.44V512.5H1506.44V507.5ZM1657.64 507.5H1662.64V502.5H1657.64V507.5ZM1657.64 545.3V550.3H1662.64V545.3H1657.64ZM1521.94 545.3V540.3H1519.85L1518.39 541.786L1521.94 545.3ZM1506.44 560.987L1502.89 557.473L1501.44 558.934V560.987H1506.44ZM1506.44 564.2H1501.44V569.2H1506.44V564.2ZM1657.64 564.2H1662.64V559.2H1657.64V564.2ZM1657.64 602V607H1662.64V602H1657.64ZM1468.64 602H1463.64V607H1468.64V602ZM1468.64 545.3L1465.11 541.764L1463.64 543.229V545.3H1468.64ZM1501.72 512.225L1505.25 515.761L1513.79 507.225H1501.72V512.225ZM1468.64 512.225H1463.64V517.225H1468.64V512.225ZM1468.64 455.8H1657.64V445.8H1468.64V455.8ZM1652.64 450.8V488.6H1662.64V450.8H1652.64ZM1657.64 483.6H1506.44V493.6H1657.64V483.6ZM1501.44 488.6V507.5H1511.44V488.6H1501.44ZM1506.44 512.5H1657.64V502.5H1506.44V512.5ZM1652.64 507.5V545.3H1662.64V507.5H1652.64ZM1657.64 540.3H1521.94V550.3H1657.64V540.3ZM1518.39 541.786L1502.89 557.473L1510 564.501L1525.5 548.814L1518.39 541.786ZM1501.44 560.987V564.2H1511.44V560.987H1501.44ZM1506.44 569.2H1657.64V559.2H1506.44V569.2ZM1652.64 564.2V602H1662.64V564.2H1652.64ZM1657.64 597H1468.64V607H1657.64V597ZM1473.64 602V545.3H1463.64V602H1473.64ZM1472.18 548.836L1505.25 515.761L1498.18 508.689L1465.11 541.764L1472.18 548.836ZM1501.72 507.225H1468.64V517.225H1501.72V507.225ZM1473.64 512.225V450.8H1463.64V512.225H1473.64Z" fill="#609CFF" mask="url(#path-2-inside-1_172_338)"/>
</g>
<rect x="260" y="656" width="267" height="38" fill="#609CFF"/>
<rect x="537" y="656" width="18" height="38" fill="#609CFF"/>
<rect x="563" y="656" width="9" height="38" fill="#609CFF"/>
<path d="M762.5 675.5L763.632 674.516L763.184 674H762.5V675.5ZM857.5 794C857.5 798.418 861.082 802 865.5 802C869.918 802 873.5 798.418 873.5 794C873.5 789.582 869.918 786 865.5 786C861.082 786 857.5 789.582 857.5 794ZM568 677H762.5V674H568V677ZM761.368 676.484L864.368 794.984L866.632 793.016L763.632 674.516L761.368 676.484Z" fill="#609CFF"/>
<circle cx="865.5" cy="793.5" r="4.5" fill="#0F0F12"/>
<defs>
<filter id="filter0_d_172_338" x="209.45" y="178" width="1500.16" height="474" filterUnits="userSpaceOnUse" color-interpolation-filters="sRGB">
<feFlood flood-opacity="0" result="BackgroundImageFix"/>
<feColorMatrix in="SourceAlpha" type="matrix" values="0 0 0 0 0 0 0 0 0 0 0 0 0 0 0 0 0 0 127 0" result="hardAlpha"/>
<feOffset/>
<feGaussianBlur stdDeviation="25"/>
<feComposite in2="hardAlpha" operator="out"/>
<feColorMatrix type="matrix" values="0 0 0 0 0.0431373 0 0 0 0 0.0431373 0 0 0 0 0.054902 0 0 0 1 0"/>
<feBlend mode="normal" in2="BackgroundImageFix" result="effect1_dropShadow_172_338"/>
<feBlend mode="normal" in="SourceGraphic" in2="effect1_dropShadow_172_338" result="shape"/>
</filter>
</defs>
</svg>
