<svg width="2625" height="848" viewBox="0 0 2625 848" fill="none" xmlns="http://www.w3.org/2000/svg">
<path d="M637.5 109H787.5V559L637.5 709H468.75V577.75L337.5 709H37.5V109H187.5V559H275.25L337.5 497.5V109H487.5V559H575.25L637.5 497.5V109ZM1087.21 109H1687.21V559L1537.21 709H937.207V259L1087.21 109ZM1537.21 497.5V259H1148.71L1087.21 321.25V559H1474.96L1537.21 497.5ZM1986.91 321.25V559H2586.91V709H1836.91V259L1986.91 109H2586.91V259H2048.41L1986.91 321.25Z" fill="#D9D9D9" fill-opacity="0.05"/>
<g filter="url(#filter0_d_104_2)">
<mask id="path-2-inside-1_104_2" fill="white">
<path d="M773 228H813V348L773 388H728V353L693 388H613V228H653V348H676.4L693 331.6V228H733V348H756.4L773 331.6V228ZM852.922 228H1052.92V268H972.922V348H1052.92V388H852.922V348H932.922V268H852.922V228ZM1252.84 228H1292.84V388H1212.84L1172.84 348V284.6L1156.24 268H1132.84V388H1092.84V228H1172.84L1212.84 268V331.6L1229.24 348H1252.84V228ZM1447.77 228H1532.77V268H1452.77V388H1412.77V284.6L1396.17 268H1332.77V228H1412.77L1447.77 263V228ZM1572.69 228H1772.69V268H1612.69V288H1772.69V328H1629.09L1612.69 344.6V348H1772.69V388H1572.69V328L1607.69 293H1572.69V228ZM2012.61 228V293H1977.61L2012.61 328V388H1972.61V344.6L1956.01 328H1852.61V388H1812.61V268L1852.61 228H2012.61ZM1972.61 288V268H1869.01L1852.61 284.6V288H1972.61ZM650.25 450.8H801.45V564.2L763.65 602H612.45V488.6L650.25 450.8ZM763.65 548.702V488.6H665.748L650.25 504.287V564.2H747.963L763.65 548.702ZM1028.18 450.8V488.6H876.976V507.5H1028.18V545.3H892.474L876.976 560.987V602H839.176V545.3L872.251 512.225H839.176V450.8H1028.18ZM1179.27 504.287V564.2H1330.47V602H1141.47V488.6L1179.27 450.8H1330.47V488.6H1194.76L1179.27 504.287ZM1405.99 450.8H1557.19V564.2L1519.39 602H1368.19V488.6L1405.99 450.8ZM1519.39 548.702V488.6H1421.49L1405.99 504.287V564.2H1503.7L1519.39 548.702ZM1594.92 450.8H1783.92V564.2L1746.12 602H1594.92V450.8ZM1746.12 548.702V488.6H1632.72V564.2H1730.43L1746.12 548.702ZM1821.64 450.8H2010.64V488.6H1859.44V507.5H2010.64V545.3H1874.94L1859.44 560.987V564.2H2010.64V602H1821.64V545.3L1854.72 512.225H1821.64V450.8Z"/>
</mask>
<path d="M773 228H813V348L773 388H728V353L693 388H613V228H653V348H676.4L693 331.6V228H733V348H756.4L773 331.6V228ZM852.922 228H1052.92V268H972.922V348H1052.92V388H852.922V348H932.922V268H852.922V228ZM1252.84 228H1292.84V388H1212.84L1172.84 348V284.6L1156.24 268H1132.84V388H1092.84V228H1172.84L1212.84 268V331.6L1229.24 348H1252.84V228ZM1447.77 228H1532.77V268H1452.77V388H1412.77V284.6L1396.17 268H1332.77V228H1412.77L1447.77 263V228ZM1572.69 228H1772.69V268H1612.69V288H1772.69V328H1629.09L1612.69 344.6V348H1772.69V388H1572.69V328L1607.69 293H1572.69V228ZM2012.61 228V293H1977.61L2012.61 328V388H1972.61V344.6L1956.01 328H1852.61V388H1812.61V268L1852.61 228H2012.61ZM1972.61 288V268H1869.01L1852.61 284.6V288H1972.61ZM650.25 450.8H801.45V564.2L763.65 602H612.45V488.6L650.25 450.8ZM763.65 548.702V488.6H665.748L650.25 504.287V564.2H747.963L763.65 548.702ZM1028.18 450.8V488.6H876.976V507.5H1028.18V545.3H892.474L876.976 560.987V602H839.176V545.3L872.251 512.225H839.176V450.8H1028.18ZM1179.27 504.287V564.2H1330.47V602H1141.47V488.6L1179.27 450.8H1330.47V488.6H1194.76L1179.27 504.287ZM1405.99 450.8H1557.19V564.2L1519.39 602H1368.19V488.6L1405.99 450.8ZM1519.39 548.702V488.6H1421.49L1405.99 504.287V564.2H1503.7L1519.39 548.702ZM1594.92 450.8H1783.92V564.2L1746.12 602H1594.92V450.8ZM1746.12 548.702V488.6H1632.72V564.2H1730.43L1746.12 548.702ZM1821.64 450.8H2010.64V488.6H1859.44V507.5H2010.64V545.3H1874.94L1859.44 560.987V564.2H2010.64V602H1821.64V545.3L1854.72 512.225H1821.64V450.8Z" fill="#231E10"/>
<path d="M773 228V223H768V228H773ZM813 228H818V223H813V228ZM813 348L816.536 351.536L818 350.071V348H813ZM773 388V393H775.071L776.536 391.536L773 388ZM728 388H723V393H728V388ZM728 353H733V340.929L724.464 349.464L728 353ZM693 388V393H695.071L696.536 391.536L693 388ZM613 388H608V393H613V388ZM613 228V223H608V228H613ZM653 228H658V223H653V228ZM653 348H648V353H653V348ZM676.4 348V353H678.453L679.914 351.557L676.4 348ZM693 331.6L696.514 335.157L698 333.689V331.6H693ZM693 228V223H688V228H693ZM733 228H738V223H733V228ZM733 348H728V353H733V348ZM756.4 348V353H758.453L759.914 351.557L756.4 348ZM773 331.6L776.514 335.157L778 333.689V331.6H773ZM773 233H813V223H773V233ZM808 228V348H818V228H808ZM809.464 344.464L769.464 384.464L776.536 391.536L816.536 351.536L809.464 344.464ZM773 383H728V393H773V383ZM733 388V353H723V388H733ZM724.464 349.464L689.464 384.464L696.536 391.536L731.536 356.536L724.464 349.464ZM693 383H613V393H693V383ZM618 388V228H608V388H618ZM613 233H653V223H613V233ZM648 228V348H658V228H648ZM653 353H676.4V343H653V353ZM679.914 351.557L696.514 335.157L689.486 328.043L672.886 344.443L679.914 351.557ZM698 331.6V228H688V331.6H698ZM693 233H733V223H693V233ZM728 228V348H738V228H728ZM733 353H756.4V343H733V353ZM759.914 351.557L776.514 335.157L769.486 328.043L752.886 344.443L759.914 351.557ZM778 331.6V228H768V331.6H778ZM852.922 228V223H847.922V228H852.922ZM1052.92 228H1057.92V223H1052.92V228ZM1052.92 268V273H1057.92V268H1052.92ZM972.922 268V263H967.922V268H972.922ZM972.922 348H967.922V353H972.922V348ZM1052.92 348H1057.92V343H1052.92V348ZM1052.92 388V393H1057.92V388H1052.92ZM852.922 388H847.922V393H852.922V388ZM852.922 348V343H847.922V348H852.922ZM932.922 348V353H937.922V348H932.922ZM932.922 268H937.922V263H932.922V268ZM852.922 268H847.922V273H852.922V268ZM852.922 233H1052.92V223H852.922V233ZM1047.92 228V268H1057.92V228H1047.92ZM1052.92 263H972.922V273H1052.92V263ZM967.922 268V348H977.922V268H967.922ZM972.922 353H1052.92V343H972.922V353ZM1047.92 348V388H1057.92V348H1047.92ZM1052.92 383H852.922V393H1052.92V383ZM857.922 388V348H847.922V388H857.922ZM852.922 353H932.922V343H852.922V353ZM937.922 348V268H927.922V348H937.922ZM932.922 263H852.922V273H932.922V263ZM857.922 268V228H847.922V268H857.922ZM1252.84 228V223H1247.84V228H1252.84ZM1292.84 228H1297.84V223H1292.84V228ZM1292.84 388V393H1297.84V388H1292.84ZM1212.84 388L1209.31 391.536L1210.77 393H1212.84V388ZM1172.84 348H1167.84V350.071L1169.31 351.536L1172.84 348ZM1172.84 284.6H1177.84V282.529L1176.38 281.064L1172.84 284.6ZM1156.24 268L1159.78 264.464L1158.31 263H1156.24V268ZM1132.84 268V263H1127.84V268H1132.84ZM1132.84 388V393H1137.84V388H1132.84ZM1092.84 388H1087.84V393H1092.84V388ZM1092.84 228V223H1087.84V228H1092.84ZM1172.84 228L1176.38 224.464L1174.91 223H1172.84V228ZM1212.84 268H1217.84V265.929L1216.38 264.464L1212.84 268ZM1212.84 331.6H1207.84V333.671L1209.31 335.136L1212.84 331.6ZM1229.24 348L1225.71 351.536L1227.17 353H1229.24V348ZM1252.84 348V353H1257.84V348H1252.84ZM1252.84 233H1292.84V223H1252.84V233ZM1287.84 228V388H1297.84V228H1287.84ZM1292.84 383H1212.84V393H1292.84V383ZM1216.38 384.464L1176.38 344.464L1169.31 351.536L1209.31 391.536L1216.38 384.464ZM1177.84 348V284.6H1167.84V348H1177.84ZM1176.38 281.064L1159.78 264.464L1152.71 271.536L1169.31 288.136L1176.38 281.064ZM1156.24 263H1132.84V273H1156.24V263ZM1127.84 268V388H1137.84V268H1127.84ZM1132.84 383H1092.84V393H1132.84V383ZM1097.84 388V228H1087.84V388H1097.84ZM1092.84 233H1172.84V223H1092.84V233ZM1169.31 231.536L1209.31 271.536L1216.38 264.464L1176.38 224.464L1169.31 231.536ZM1207.84 268V331.6H1217.84V268H1207.84ZM1209.31 335.136L1225.71 351.536L1232.78 344.464L1216.38 328.064L1209.31 335.136ZM1229.24 353H1252.84V343H1229.24V353ZM1257.84 348V228H1247.84V348H1257.84ZM1447.77 228V223H1442.77V228H1447.77ZM1532.77 228H1537.77V223H1532.77V228ZM1532.77 268V273H1537.77V268H1532.77ZM1452.77 268V263H1447.77V268H1452.77ZM1452.77 388V393H1457.77V388H1452.77ZM1412.77 388H1407.77V393H1412.77V388ZM1412.77 284.6H1417.77V282.529L1416.3 281.064L1412.77 284.6ZM1396.17 268L1399.7 264.464L1398.24 263H1396.17V268ZM1332.77 268H1327.77V273H1332.77V268ZM1332.77 228V223H1327.77V228H1332.77ZM1412.77 228L1416.3 224.464L1414.84 223H1412.77V228ZM1447.77 263L1444.23 266.536L1452.77 275.071V263H1447.77ZM1447.77 233H1532.77V223H1447.77V233ZM1527.77 228V268H1537.77V228H1527.77ZM1532.77 263H1452.77V273H1532.77V263ZM1447.77 268V388H1457.77V268H1447.77ZM1452.77 383H1412.77V393H1452.77V383ZM1417.77 388V284.6H1407.77V388H1417.77ZM1416.3 281.064L1399.7 264.464L1392.63 271.536L1409.23 288.136L1416.3 281.064ZM1396.17 263H1332.77V273H1396.17V263ZM1337.77 268V228H1327.77V268H1337.77ZM1332.77 233H1412.77V223H1332.77V233ZM1409.23 231.536L1444.23 266.536L1451.3 259.464L1416.3 224.464L1409.23 231.536ZM1452.77 263V228H1442.77V263H1452.77ZM1572.69 228V223H1567.69V228H1572.69ZM1772.69 228H1777.69V223H1772.69V228ZM1772.69 268V273H1777.69V268H1772.69ZM1612.69 268V263H1607.69V268H1612.69ZM1612.69 288H1607.69V293H1612.69V288ZM1772.69 288H1777.69V283H1772.69V288ZM1772.69 328V333H1777.69V328H1772.69ZM1629.09 328V323H1627L1625.53 324.486L1629.09 328ZM1612.69 344.6L1609.13 341.086L1607.69 342.547V344.6H1612.69ZM1612.69 348H1607.69V353H1612.69V348ZM1772.69 348H1777.69V343H1772.69V348ZM1772.69 388V393H1777.69V388H1772.69ZM1572.69 388H1567.69V393H1572.69V388ZM1572.69 328L1569.15 324.464L1567.69 325.929V328H1572.69ZM1607.69 293L1611.22 296.536L1619.76 288H1607.69V293ZM1572.69 293H1567.69V298H1572.69V293ZM1572.69 233H1772.69V223H1572.69V233ZM1767.69 228V268H1777.69V228H1767.69ZM1772.69 263H1612.69V273H1772.69V263ZM1607.69 268V288H1617.69V268H1607.69ZM1612.69 293H1772.69V283H1612.69V293ZM1767.69 288V328H1777.69V288H1767.69ZM1772.69 323H1629.09V333H1772.69V323ZM1625.53 324.486L1609.13 341.086L1616.24 348.114L1632.64 331.514L1625.53 324.486ZM1607.69 344.6V348H1617.69V344.6H1607.69ZM1612.69 353H1772.69V343H1612.69V353ZM1767.69 348V388H1777.69V348H1767.69ZM1772.69 383H1572.69V393H1772.69V383ZM1577.69 388V328H1567.69V388H1577.69ZM1576.22 331.536L1611.22 296.536L1604.15 289.464L1569.15 324.464L1576.22 331.536ZM1607.69 288H1572.69V298H1607.69V288ZM1577.69 293V228H1567.69V293H1577.69ZM2012.61 228H2017.61V223H2012.61V228ZM2012.61 293V298H2017.61V293H2012.61ZM1977.61 293V288H1965.54L1974.07 296.536L1977.61 293ZM2012.61 328H2017.61V325.929L2016.14 324.464L2012.61 328ZM2012.61 388V393H2017.61V388H2012.61ZM1972.61 388H1967.61V393H1972.61V388ZM1972.61 344.6H1977.61V342.529L1976.14 341.064L1972.61 344.6ZM1956.01 328L1959.54 324.464L1958.08 323H1956.01V328ZM1852.61 328V323H1847.61V328H1852.61ZM1852.61 388V393H1857.61V388H1852.61ZM1812.61 388H1807.61V393H1812.61V388ZM1812.61 268L1809.07 264.464L1807.61 265.929V268H1812.61ZM1852.61 228V223H1850.54L1849.07 224.464L1852.61 228ZM1972.61 288V293H1977.61V288H1972.61ZM1972.61 268H1977.61V263H1972.61V268ZM1869.01 268V263H1866.92L1865.45 264.486L1869.01 268ZM1852.61 284.6L1849.05 281.086L1847.61 282.547V284.6H1852.61ZM1852.61 288H1847.61V293H1852.61V288ZM2007.61 228V293H2017.61V228H2007.61ZM2012.61 288H1977.61V298H2012.61V288ZM1974.07 296.536L2009.07 331.536L2016.14 324.464L1981.14 289.464L1974.07 296.536ZM2007.61 328V388H2017.61V328H2007.61ZM2012.61 383H1972.61V393H2012.61V383ZM1977.61 388V344.6H1967.61V388H1977.61ZM1976.14 341.064L1959.54 324.464L1952.47 331.536L1969.07 348.136L1976.14 341.064ZM1956.01 323H1852.61V333H1956.01V323ZM1847.61 328V388H1857.61V328H1847.61ZM1852.61 383H1812.61V393H1852.61V383ZM1817.61 388V268H1807.61V388H1817.61ZM1816.14 271.536L1856.14 231.536L1849.07 224.464L1809.07 264.464L1816.14 271.536ZM1852.61 233H2012.61V223H1852.61V233ZM1977.61 288V268H1967.61V288H1977.61ZM1972.61 263H1869.01V273H1972.61V263ZM1865.45 264.486L1849.05 281.086L1856.17 288.114L1872.57 271.514L1865.45 264.486ZM1847.61 284.6V288H1857.61V284.6H1847.61ZM1852.61 293H1972.61V283H1852.61V293ZM650.25 450.8V445.8H648.179L646.714 447.264L650.25 450.8ZM801.45 450.8H806.45V445.8H801.45V450.8ZM801.45 564.2L804.986 567.736L806.45 566.271V564.2H801.45ZM763.65 602V607H765.721L767.186 605.536L763.65 602ZM612.45 602H607.45V607H612.45V602ZM612.45 488.6L608.914 485.064L607.45 486.529V488.6H612.45ZM763.65 548.702L767.164 552.259L768.65 550.791V548.702H763.65ZM763.65 488.6H768.65V483.6H763.65V488.6ZM665.748 488.6V483.6H663.659L662.191 485.086L665.748 488.6ZM650.25 504.287L646.693 500.773L645.25 502.234V504.287H650.25ZM650.25 564.2H645.25V569.2H650.25V564.2ZM747.963 564.2V569.2H750.016L751.477 567.757L747.963 564.2ZM650.25 455.8H801.45V445.8H650.25V455.8ZM796.45 450.8V564.2H806.45V450.8H796.45ZM797.914 560.664L760.114 598.464L767.186 605.536L804.986 567.736L797.914 560.664ZM763.65 597H612.45V607H763.65V597ZM617.45 602V488.6H607.45V602H617.45ZM615.986 492.136L653.786 454.336L646.714 447.264L608.914 485.064L615.986 492.136ZM768.65 548.702V488.6H758.65V548.702H768.65ZM763.65 483.6H665.748V493.6H763.65V483.6ZM662.191 485.086L646.693 500.773L653.807 507.801L669.305 492.114L662.191 485.086ZM645.25 504.287V564.2H655.25V504.287H645.25ZM650.25 569.2H747.963V559.2H650.25V569.2ZM751.477 567.757L767.164 552.259L760.136 545.145L744.449 560.643L751.477 567.757ZM1028.18 450.8H1033.18V445.8H1028.18V450.8ZM1028.18 488.6V493.6H1033.18V488.6H1028.18ZM876.976 488.6V483.6H871.976V488.6H876.976ZM876.976 507.5H871.976V512.5H876.976V507.5ZM1028.18 507.5H1033.18V502.5H1028.18V507.5ZM1028.18 545.3V550.3H1033.18V545.3H1028.18ZM892.474 545.3V540.3H890.385L888.917 541.786L892.474 545.3ZM876.976 560.987L873.419 557.473L871.976 558.934V560.987H876.976ZM876.976 602V607H881.976V602H876.976ZM839.176 602H834.176V607H839.176V602ZM839.176 545.3L835.641 541.764L834.176 543.229V545.3H839.176ZM872.251 512.225L875.787 515.761L884.322 507.225H872.251V512.225ZM839.176 512.225H834.176V517.225H839.176V512.225ZM839.176 450.8V445.8H834.176V450.8H839.176ZM1023.18 450.8V488.6H1033.18V450.8H1023.18ZM1028.18 483.6H876.976V493.6H1028.18V483.6ZM871.976 488.6V507.5H881.976V488.6H871.976ZM876.976 512.5H1028.18V502.5H876.976V512.5ZM1023.18 507.5V545.3H1033.18V507.5H1023.18ZM1028.18 540.3H892.474V550.3H1028.18V540.3ZM888.917 541.786L873.419 557.473L880.533 564.501L896.031 548.814L888.917 541.786ZM871.976 560.987V602H881.976V560.987H871.976ZM876.976 597H839.176V607H876.976V597ZM844.176 602V545.3H834.176V602H844.176ZM842.712 548.836L875.787 515.761L868.716 508.689L835.641 541.764L842.712 548.836ZM872.251 507.225H839.176V517.225H872.251V507.225ZM844.176 512.225V450.8H834.176V512.225H844.176ZM839.176 455.8H1028.18V445.8H839.176V455.8ZM1179.27 504.287L1175.71 500.773L1174.27 502.234V504.287H1179.27ZM1179.27 564.2H1174.27V569.2H1179.27V564.2ZM1330.47 564.2H1335.47V559.2H1330.47V564.2ZM1330.47 602V607H1335.47V602H1330.47ZM1141.47 602H1136.47V607H1141.47V602ZM1141.47 488.6L1137.93 485.064L1136.47 486.529V488.6H1141.47ZM1179.27 450.8V445.8H1177.19L1175.73 447.264L1179.27 450.8ZM1330.47 450.8H1335.47V445.8H1330.47V450.8ZM1330.47 488.6V493.6H1335.47V488.6H1330.47ZM1194.76 488.6V483.6H1192.67L1191.21 485.086L1194.76 488.6ZM1174.27 504.287V564.2H1184.27V504.287H1174.27ZM1179.27 569.2H1330.47V559.2H1179.27V569.2ZM1325.47 564.2V602H1335.47V564.2H1325.47ZM1330.47 597H1141.47V607H1330.47V597ZM1146.47 602V488.6H1136.47V602H1146.47ZM1145 492.136L1182.8 454.336L1175.73 447.264L1137.93 485.064L1145 492.136ZM1179.27 455.8H1330.47V445.8H1179.27V455.8ZM1325.47 450.8V488.6H1335.47V450.8H1325.47ZM1330.47 483.6H1194.76V493.6H1330.47V483.6ZM1191.21 485.086L1175.71 500.773L1182.82 507.801L1198.32 492.114L1191.21 485.086ZM1405.99 450.8V445.8H1403.92L1402.46 447.264L1405.99 450.8ZM1557.19 450.8H1562.19V445.8H1557.19V450.8ZM1557.19 564.2L1560.73 567.736L1562.19 566.271V564.2H1557.19ZM1519.39 602V607H1521.46L1522.93 605.536L1519.39 602ZM1368.19 602H1363.19V607H1368.19V602ZM1368.19 488.6L1364.66 485.064L1363.19 486.529V488.6H1368.19ZM1519.39 548.702L1522.91 552.259L1524.39 550.791V548.702H1519.39ZM1519.39 488.6H1524.39V483.6H1519.39V488.6ZM1421.49 488.6V483.6H1419.4L1417.93 485.086L1421.49 488.6ZM1405.99 504.287L1402.43 500.773L1400.99 502.234V504.287H1405.99ZM1405.99 564.2H1400.99V569.2H1405.99V564.2ZM1503.7 564.2V569.2H1505.76L1507.22 567.757L1503.7 564.2ZM1405.99 455.8H1557.19V445.8H1405.99V455.8ZM1552.19 450.8V564.2H1562.19V450.8H1552.19ZM1553.66 560.664L1515.86 598.464L1522.93 605.536L1560.73 567.736L1553.66 560.664ZM1519.39 597H1368.19V607H1519.39V597ZM1373.19 602V488.6H1363.19V602H1373.19ZM1371.73 492.136L1409.53 454.336L1402.46 447.264L1364.66 485.064L1371.73 492.136ZM1524.39 548.702V488.6H1514.39V548.702H1524.39ZM1519.39 483.6H1421.49V493.6H1519.39V483.6ZM1417.93 485.086L1402.43 500.773L1409.55 507.801L1425.05 492.114L1417.93 485.086ZM1400.99 504.287V564.2H1410.99V504.287H1400.99ZM1405.99 569.2H1503.7V559.2H1405.99V569.2ZM1507.22 567.757L1522.91 552.259L1515.88 545.145L1500.19 560.643L1507.22 567.757ZM1594.92 450.8V445.8H1589.92V450.8H1594.92ZM1783.92 450.8H1788.92V445.8H1783.92V450.8ZM1783.92 564.2L1787.45 567.736L1788.92 566.271V564.2H1783.92ZM1746.12 602V607H1748.19L1749.65 605.536L1746.12 602ZM1594.92 602H1589.92V607H1594.92V602ZM1746.12 548.702L1749.63 552.259L1751.12 550.791V548.702H1746.12ZM1746.12 488.6H1751.12V483.6H1746.12V488.6ZM1632.72 488.6V483.6H1627.72V488.6H1632.72ZM1632.72 564.2H1627.72V569.2H1632.72V564.2ZM1730.43 564.2V569.2H1732.48L1733.94 567.757L1730.43 564.2ZM1594.92 455.8H1783.92V445.8H1594.92V455.8ZM1778.92 450.8V564.2H1788.92V450.8H1778.92ZM1780.38 560.664L1742.58 598.464L1749.65 605.536L1787.45 567.736L1780.38 560.664ZM1746.12 597H1594.92V607H1746.12V597ZM1599.92 602V450.8H1589.92V602H1599.92ZM1751.12 548.702V488.6H1741.12V548.702H1751.12ZM1746.12 483.6H1632.72V493.6H1746.12V483.6ZM1627.72 488.6V564.2H1637.72V488.6H1627.72ZM1632.72 569.2H1730.43V559.2H1632.72V569.2ZM1733.94 567.757L1749.63 552.259L1742.6 545.145L1726.92 560.643L1733.94 567.757ZM1821.64 450.8V445.8H1816.64V450.8H1821.64ZM2010.64 450.8H2015.64V445.8H2010.64V450.8ZM2010.64 488.6V493.6H2015.64V488.6H2010.64ZM1859.44 488.6V483.6H1854.44V488.6H1859.44ZM1859.44 507.5H1854.44V512.5H1859.44V507.5ZM2010.64 507.5H2015.64V502.5H2010.64V507.5ZM2010.64 545.3V550.3H2015.64V545.3H2010.64ZM1874.94 545.3V540.3H1872.85L1871.39 541.786L1874.94 545.3ZM1859.44 560.987L1855.89 557.473L1854.44 558.934V560.987H1859.44ZM1859.44 564.2H1854.44V569.2H1859.44V564.2ZM2010.64 564.2H2015.64V559.2H2010.64V564.2ZM2010.64 602V607H2015.64V602H2010.64ZM1821.64 602H1816.64V607H1821.64V602ZM1821.64 545.3L1818.11 541.764L1816.64 543.229V545.3H1821.64ZM1854.72 512.225L1858.25 515.761L1866.79 507.225H1854.72V512.225ZM1821.64 512.225H1816.64V517.225H1821.64V512.225ZM1821.64 455.8H2010.64V445.8H1821.64V455.8ZM2005.64 450.8V488.6H2015.64V450.8H2005.64ZM2010.64 483.6H1859.44V493.6H2010.64V483.6ZM1854.44 488.6V507.5H1864.44V488.6H1854.44ZM1859.44 512.5H2010.64V502.5H1859.44V512.5ZM2005.64 507.5V545.3H2015.64V507.5H2005.64ZM2010.64 540.3H1874.94V550.3H2010.64V540.3ZM1871.39 541.786L1855.89 557.473L1863 564.501L1878.5 548.814L1871.39 541.786ZM1854.44 560.987V564.2H1864.44V560.987H1854.44ZM1859.44 569.2H2010.64V559.2H1859.44V569.2ZM2005.64 564.2V602H2015.64V564.2H2005.64ZM2010.64 597H1821.64V607H2010.64V597ZM1826.64 602V545.3H1816.64V602H1826.64ZM1825.18 548.836L1858.25 515.761L1851.18 508.689L1818.11 541.764L1825.18 548.836ZM1854.72 507.225H1821.64V517.225H1854.72V507.225ZM1826.64 512.225V450.8H1816.64V512.225H1826.64Z" fill="#FBBC04" mask="url(#path-2-inside-1_104_2)"/>
</g>
<rect x="613" y="656" width="267" height="38" fill="#E2AA06"/>
<rect x="890" y="656" width="18" height="38" fill="#E2AA06"/>
<rect x="916" y="656" width="9" height="38" fill="#E2AA06"/>
<path d="M1115.5 675.5L1116.63 674.516L1116.18 674H1115.5V675.5ZM1210.5 794C1210.5 798.418 1214.08 802 1218.5 802C1222.92 802 1226.5 798.418 1226.5 794C1226.5 789.582 1222.92 786 1218.5 786C1214.08 786 1210.5 789.582 1210.5 794ZM921 677H1115.5V674H921V677ZM1114.37 676.484L1217.37 794.984L1219.63 793.016L1116.63 674.516L1114.37 676.484Z" fill="#E2AA06"/>
<circle cx="1218.5" cy="793.5" r="4.5" fill="#0F0F12"/>
<defs>
<filter id="filter0_d_104_2" x="562.449" y="178" width="1500.16" height="474" filterUnits="userSpaceOnUse" color-interpolation-filters="sRGB">
<feFlood flood-opacity="0" result="BackgroundImageFix"/>
<feColorMatrix in="SourceAlpha" type="matrix" values="0 0 0 0 0 0 0 0 0 0 0 0 0 0 0 0 0 0 127 0" result="hardAlpha"/>
<feOffset/>
<feGaussianBlur stdDeviation="25"/>
<feComposite in2="hardAlpha" operator="out"/>
<feColorMatrix type="matrix" values="0 0 0 0 0.0431373 0 0 0 0 0.0431373 0 0 0 0 0.054902 0 0 0 1 0"/>
<feBlend mode="normal" in2="BackgroundImageFix" result="effect1_dropShadow_104_2"/>
<feBlend mode="normal" in="SourceGraphic" in2="effect1_dropShadow_104_2" result="shape"/>
</filter>
</defs>
</svg>
