<svg width="1718" height="653" viewBox="0 0 1718 653" fill="none" xmlns="http://www.w3.org/2000/svg">
<mask id="path-1-inside-1_172_625" fill="white">
<path fill-rule="evenodd" clip-rule="evenodd" d="M551 46.5H0V571.814L59.0001 571.5L131 652.5H1271L1343 571.5L1718 573.493V46.5H1167V127.5H551V46.5Z"/>
</mask>
<path fill-rule="evenodd" clip-rule="evenodd" d="M551 46.5H0V571.814L59.0001 571.5L131 652.5H1271L1343 571.5L1718 573.493V46.5H1167V127.5H551V46.5Z" fill="url(#paint0_linear_172_625)" fill-opacity="0.25"/>
<path d="M0 46.5V41.5H-5V46.5H0ZM551 46.5H556V41.5H551V46.5ZM0 571.814H-5V576.84L0.0265706 576.813L0 571.814ZM59.0001 571.5L62.7371 568.178L61.2348 566.488L58.9735 566.5L59.0001 571.5ZM131 652.5L127.263 655.822L128.755 657.5H131V652.5ZM1271 652.5V657.5H1273.25L1274.74 655.822L1271 652.5ZM1343 571.5L1343.03 566.5L1340.77 566.488L1339.26 568.178L1343 571.5ZM1718 573.493L1717.97 578.493L1723 578.519V573.493H1718ZM1718 46.5H1723V41.5H1718V46.5ZM1167 46.5V41.5H1162V46.5H1167ZM1167 127.5V132.5H1172V127.5H1167ZM551 127.5H546V132.5H551V127.5ZM0 51.5H551V41.5H0V51.5ZM5 571.814V46.5H-5V571.814H5ZM58.9735 566.5L-0.0265706 566.814L0.0265706 576.813L59.0266 576.5L58.9735 566.5ZM134.737 649.178L62.7371 568.178L55.263 574.822L127.263 655.822L134.737 649.178ZM1271 647.5H131V657.5H1271V647.5ZM1339.26 568.178L1267.26 649.178L1274.74 655.822L1346.74 574.822L1339.26 568.178ZM1718.03 568.493L1343.03 566.5L1342.97 576.5L1717.97 578.493L1718.03 568.493ZM1713 46.5V573.493H1723V46.5H1713ZM1167 51.5H1718V41.5H1167V51.5ZM1162 46.5V127.5H1172V46.5H1162ZM1167 122.5H551V132.5H1167V122.5ZM556 127.5V46.5H546V127.5H556Z" fill="url(#paint1_linear_172_625)" mask="url(#path-1-inside-1_172_625)"/>
<mask id="path-3-inside-2_172_625" fill="white">
<path fill-rule="evenodd" clip-rule="evenodd" d="M551 46.5H0V571.814L59.0001 571.5L131 652.5H1271L1343 571.5L1718 573.493V46.5H1167V127.5H551V46.5Z"/>
</mask>
<path fill-rule="evenodd" clip-rule="evenodd" d="M551 46.5H0V571.814L59.0001 571.5L131 652.5H1271L1343 571.5L1718 573.493V46.5H1167V127.5H551V46.5Z" fill="url(#paint2_linear_172_625)" fill-opacity="0.25"/>
<path d="M0 46.5V41.5H-5V46.5H0ZM551 46.5H556V41.5H551V46.5ZM0 571.814H-5V576.84L0.0265706 576.813L0 571.814ZM59.0001 571.5L62.7371 568.178L61.2348 566.488L58.9735 566.5L59.0001 571.5ZM131 652.5L127.263 655.822L128.755 657.5H131V652.5ZM1271 652.5V657.5H1273.25L1274.74 655.822L1271 652.5ZM1343 571.5L1343.03 566.5L1340.77 566.488L1339.26 568.178L1343 571.5ZM1718 573.493L1717.97 578.493L1723 578.519V573.493H1718ZM1718 46.5H1723V41.5H1718V46.5ZM1167 46.5V41.5H1162V46.5H1167ZM1167 127.5V132.5H1172V127.5H1167ZM551 127.5H546V132.5H551V127.5ZM0 51.5H551V41.5H0V51.5ZM5 571.814V46.5H-5V571.814H5ZM58.9735 566.5L-0.0265706 566.814L0.0265706 576.813L59.0266 576.5L58.9735 566.5ZM134.737 649.178L62.7371 568.178L55.263 574.822L127.263 655.822L134.737 649.178ZM1271 647.5H131V657.5H1271V647.5ZM1339.26 568.178L1267.26 649.178L1274.74 655.822L1346.74 574.822L1339.26 568.178ZM1718.03 568.493L1343.03 566.5L1342.97 576.5L1717.97 578.493L1718.03 568.493ZM1713 46.5V573.493H1723V46.5H1713ZM1167 51.5H1718V41.5H1167V51.5ZM1162 46.5V127.5H1172V46.5H1162ZM1167 122.5H551V132.5H1167V122.5ZM556 127.5V46.5H546V127.5H556Z" fill="url(#paint3_linear_172_625)" mask="url(#path-3-inside-2_172_625)"/>
<path fill-rule="evenodd" clip-rule="evenodd" d="M612.5 0.5H1104.5L1150.5 46.5L1151 46V113.5H567V46L612.5 0.5ZM746.5 50V35H706.5L696.5 45V75H746.5V58.75H737.75L746.5 50ZM711.5 60H736.5V65H706.5V49.15L710.6 45H736.5V45.9L732.35 50H711.5V60ZM801.48 51.25V35H761.48L751.48 45V75H761.48V60H787.33L791.48 64.15V75H801.48V60L792.73 51.25H801.48ZM791.48 45V50H761.48V49.15L765.58 45H791.48ZM856.461 35H816.461L806.461 45V75H846.461L856.461 65V35ZM846.461 45V60.9L842.311 65H816.461V49.15L820.561 45H846.461ZM911.441 35H901.441V65H895.541L891.441 60.9V45L881.441 35H861.441V75H871.441V45H877.291L881.441 49.15V65L891.441 75H911.441V35ZM926.572 65V64.15L930.722 60H956.572L966.572 50V35H916.572V45H956.572V45.9L952.422 50H926.572L916.572 60V75H966.572V65H926.572ZM1021.79 35H971.793V51.25H980.543L971.793 60V75H1021.79V65H981.793V64.15L985.893 60H1021.79V50H981.793V45H1021.79V35Z" fill="url(#paint4_linear_172_625)"/>
<defs>
<linearGradient id="paint0_linear_172_625" x1="859" y1="46.5" x2="859" y2="652.5" gradientUnits="userSpaceOnUse">
<stop stop-color="#EB8E4B" stop-opacity="0.25"/>
<stop offset="1" stop-color="#EB8E4B" stop-opacity="0.05"/>
</linearGradient>
<linearGradient id="paint1_linear_172_625" x1="859" y1="46.5" x2="859" y2="652.5" gradientUnits="userSpaceOnUse">
<stop stop-color="#FC9B55"/>
<stop offset="1" stop-color="#894412"/>
</linearGradient>
<linearGradient id="paint2_linear_172_625" x1="859" y1="46.5" x2="859" y2="652.5" gradientUnits="userSpaceOnUse">
<stop stop-color="#EB8E4B" stop-opacity="0.25"/>
<stop offset="1" stop-color="#EB8E4B" stop-opacity="0.05"/>
</linearGradient>
<linearGradient id="paint3_linear_172_625" x1="859" y1="46.5" x2="859" y2="652.5" gradientUnits="userSpaceOnUse">
<stop stop-color="#FC9B55"/>
<stop offset="1" stop-color="#894412"/>
</linearGradient>
<linearGradient id="paint4_linear_172_625" x1="859" y1="0.5" x2="859" y2="113.5" gradientUnits="userSpaceOnUse">
<stop stop-color="#FC9B55"/>
<stop offset="1" stop-color="#894412"/>
</linearGradient>
</defs>
</svg>
