<svg width="315" height="97" viewBox="0 0 315 97" fill="none" xmlns="http://www.w3.org/2000/svg">
<mask id="path-1-inside-1_1_5" fill="white">
<path fill-rule="evenodd" clip-rule="evenodd" d="M0 17.6992V97H315V0H13.4564L0 17.6992Z"/>
</mask>
<path fill-rule="evenodd" clip-rule="evenodd" d="M0 17.6992V97H315V0H13.4564L0 17.6992Z" fill="url(#paint0_linear_1_5)" fill-opacity="0.5"/>
<path d="M0 97H-3V100H0V97ZM0 17.6992L-2.38817 15.8836L-3 16.6883V17.6992H0ZM315 97V100H318V97H315ZM315 0H318V-3H315V0ZM13.4564 0V-3H11.9686L11.0682 -1.81567L13.4564 0ZM3 97V17.6992H-3V97H3ZM315 94H0V100H315V94ZM312 0V97H318V0H312ZM13.4564 3H315V-3H13.4564V3ZM11.0682 -1.81567L-2.38817 15.8836L2.38817 19.5149L15.8445 1.81567L11.0682 -1.81567Z" fill="#609CFF" mask="url(#path-1-inside-1_1_5)"/>
<g filter="url(#filter0_d_1_5)">
<path d="M35.5 33.1875C37.5833 31.5208 42.375 29.4375 45.5 28.8125C48.4417 28.2242 53.8333 28.1875 56.125 28.1875" stroke="#609CFF" stroke-width="3.125" stroke-linecap="round"/>
<path d="M76.125 33.1875C74.0417 31.5208 69.25 29.4375 66.125 28.8125C63.1833 28.2242 57.7917 28.1875 55.5 28.1875" stroke="#609CFF" stroke-width="3.125" stroke-linecap="round"/>
<path d="M44.25 68.8125L41.125 75.0625C39.4583 75.0625 34.875 74.5625 29.875 72.5625C24.875 70.5625 21.125 66.3125 19.875 64.4375C20.875 43.9375 26.9583 32.1458 29.875 28.8125C33.875 24.8125 42.7917 22.9792 46.75 22.5625L48 28.1875" stroke="#609CFF" stroke-width="3.125" stroke-linecap="round"/>
<path d="M66.75 68.1875L69.875 74.4375C71.5417 74.4375 76.125 73.9375 81.125 71.9375C86.125 69.9375 89.875 65.6875 91.125 63.8125C90.125 43.3125 84.0417 31.5208 81.125 28.1875C77.125 24.1875 68.2083 22.3542 64.25 21.9375L63 27.5625" stroke="#609CFF" stroke-width="3.125" stroke-linecap="round"/>
<path d="M31.125 61.9375C33.8333 64.4375 43.625 69.4375 56.125 69.4375" stroke="#609CFF" stroke-width="3.125" stroke-linecap="round"/>
<path d="M80.5 61.9375C77.7917 64.4375 68 69.4375 55.5 69.4375" stroke="#609CFF" stroke-width="3.125" stroke-linecap="round"/>
<path d="M50.1875 51.9375C50.1875 55.3474 47.6838 57.875 44.875 57.875C42.0662 57.875 39.5625 55.3474 39.5625 51.9375C39.5625 48.5276 42.0662 46 44.875 46C47.6838 46 50.1875 48.5276 50.1875 51.9375Z" stroke="#609CFF" stroke-width="3.125" stroke-linecap="round"/>
<path d="M72.6875 51.9375C72.6875 55.3474 70.1838 57.875 67.375 57.875C64.5662 57.875 62.0625 55.3474 62.0625 51.9375C62.0625 48.5276 64.5662 46 67.375 46C70.1838 46 72.6875 48.5276 72.6875 51.9375Z" stroke="#609CFF" stroke-width="3.125" stroke-linecap="round"/>
</g>
<path d="M134.125 17V29L130.125 33H114.125V26H118.125V29H128.465L130.125 27.36V21H114.125V17H134.125ZM140.117 17H156.117V29L152.117 33H136.117V21L140.117 17ZM152.117 27.36V21H141.757L140.117 22.66V29H150.457L152.117 27.36ZM158.109 17H178.109V21H170.109V29H178.109V33H158.109V29H166.109V21H158.109V17ZM196.102 17H200.102V33H192.102L188.102 29V22.66L186.442 21H184.102V33H180.102V17H188.102L192.102 21V27.36L193.742 29H196.102V17ZM219.59 17H228.09V21H220.09V33H216.09V22.66L214.43 21H208.09V17H216.09L219.59 20.5V17ZM246.082 17H250.082V33H246.082V27H234.082V33H230.082V17H234.082V23H246.082V17ZM252.074 17H272.074V21H256.074V23H272.074V27H257.714L256.074 28.66V29H272.074V33H252.074V27L255.574 23.5H252.074V17ZM118.125 40H134.125V44H119.765L118.125 45.66V46H130.125L134.125 50V56H114.125V52H130.125V51.66L128.465 50H114.125V44L118.125 40ZM136.117 40H156.117V44H140.117V46H156.117V50H141.757L140.117 51.66V52H156.117V56H136.117V50L139.617 46.5H136.117V40ZM178.109 40V46.5H174.609L178.109 50V56H174.109V51.66L172.449 50H162.109V56H158.109V44L162.109 40H178.109ZM174.109 46V44H163.749L162.109 45.66V46H174.109ZM196.102 40H200.102V56H192.102L180.102 44V40H184.102V42.36L193.742 52H196.102V40ZM202.094 40H222.094V44H206.094V46H222.094V50H207.734L206.094 51.66V52H222.094V56H202.094V50L205.594 46.5H202.094V40ZM244.086 40V46.5H240.586L244.086 50V56H240.086V51.66L238.426 50H228.086V56H224.086V44L228.086 40H244.086ZM240.086 46V44H229.726L228.086 45.66V46H240.086ZM263.574 40H272.074V44H264.074V56H260.074V45.66L258.414 44H252.074V40H260.074L263.574 43.5V40ZM278.066 40H294.066V52L290.066 56H274.066V44L278.066 40ZM290.066 50.36V44H279.706L278.066 45.66V52H288.406L290.066 50.36ZM123.625 63H134.125V67H125.265L123.265 69H130.125L134.125 73V79H130.125V74.66L128.465 73H118.125V79H114.125V63H118.125V69H122.905L120.265 66.36L123.625 63ZM152.117 63H156.117V79H148.117L144.117 75V68.66L142.457 67H140.117V79H136.117V63H144.117L148.117 67V73.36L149.757 75H152.117V63ZM162.109 63H178.109V75L174.109 79H158.109V67L162.109 63ZM174.109 73.36V67H163.749L162.109 68.66V75H172.449L174.109 73.36ZM196.102 63H200.102V75L196.102 79H191.602V75.5L188.102 79H180.102V63H184.102V75H186.442L188.102 73.36V63H192.102V75H194.442L196.102 73.36V63ZM224.09 63L228.09 67V79H224.09V68.66L222.43 67H216.09L220.09 71V79H216.09V72.66L213.25 69.84L212.09 68.66V79H208.09V63H212.09L215.59 66.5V63H224.09ZM234.082 63H250.082V75L246.082 79H230.082V67L234.082 63ZM246.082 73.36V67H235.722L234.082 68.66V75H244.422L246.082 73.36ZM272.074 63V69.5H268.574L272.074 73V79H268.074V74.66L266.414 73H256.074V79H252.074V67L256.074 63H272.074ZM268.074 69V67H257.714L256.074 68.66V69H268.074ZM274.066 63H294.066V67H278.066V69H294.066V73H279.706L278.066 74.66V75H294.066V79H274.066V73L277.566 69.5H274.066V63Z" fill="#609CFF"/>
<defs>
<filter id="filter0_d_1_5" x="8.28925" y="10.2376" width="94.4215" height="76.3874" filterUnits="userSpaceOnUse" color-interpolation-filters="sRGB">
<feFlood flood-opacity="0" result="BackgroundImageFix"/>
<feColorMatrix in="SourceAlpha" type="matrix" values="0 0 0 0 0 0 0 0 0 0 0 0 0 0 0 0 0 0 127 0" result="hardAlpha"/>
<feOffset/>
<feGaussianBlur stdDeviation="5"/>
<feColorMatrix type="matrix" values="0 0 0 0 0.376471 0 0 0 0 0.611765 0 0 0 0 1 0 0 0 0.5 0"/>
<feBlend mode="normal" in2="BackgroundImageFix" result="effect1_dropShadow_1_5"/>
<feBlend mode="normal" in="SourceGraphic" in2="effect1_dropShadow_1_5" result="shape"/>
</filter>
<linearGradient id="paint0_linear_1_5" x1="157.5" y1="0" x2="157.5" y2="97" gradientUnits="userSpaceOnUse">
<stop stop-color="#609CFF" stop-opacity="0.1"/>
<stop offset="1" stop-color="#609CFF" stop-opacity="0.05"/>
</linearGradient>
</defs>
</svg>
