<svg width="144" height="110" viewBox="0 0 144 110" fill="none" xmlns="http://www.w3.org/2000/svg">
<path d="M121.639 9.88989C112.546 5.71607 102.803 2.6428 92.6104 0.884675C92.4236 0.850066 92.2366 0.933175 92.1467 1.10622C90.8942 3.33503 89.5034 6.24907 88.5346 8.53325C77.5738 6.8928 66.6684 6.8928 55.929 8.53325C54.9533 6.1937 53.5139 3.33503 52.2546 1.10622C52.1577 0.940096 51.9709 0.856988 51.791 0.884675C41.6052 2.6428 31.8553 5.71607 22.7628 9.88989C22.6867 9.9245 22.6174 9.97987 22.569 10.056C4.07951 37.6877 -0.985867 64.6411 1.49831 91.2622C1.51215 91.3937 1.58136 91.5182 1.68516 91.5944C13.8846 100.558 25.7037 105.999 37.3011 109.605C37.488 109.66 37.6817 109.591 37.7993 109.439C40.5395 105.694 42.9891 101.742 45.0858 97.5816C45.2104 97.3394 45.0857 97.0487 44.8366 96.9518C40.9547 95.4775 37.2664 93.6848 33.7097 91.6498C33.426 91.4837 33.4053 91.0822 33.6613 90.8884C34.4087 90.3277 35.156 89.7463 35.8687 89.1579C36.0002 89.0472 36.18 89.0263 36.3323 89.0956C59.6725 99.7551 84.9434 99.7551 108.007 89.0956C108.159 89.0194 108.339 89.0472 108.47 89.151C109.183 89.7393 109.93 90.3277 110.685 90.8884C110.941 91.0822 110.927 91.4837 110.643 91.6498C107.093 93.7263 103.398 95.4844 99.5094 96.9518C99.2533 97.0487 99.1426 97.3394 99.2671 97.5886C101.412 101.742 103.855 105.687 106.547 109.439C106.657 109.598 106.858 109.667 107.045 109.612C118.698 106.006 130.517 100.565 142.716 91.6013C142.82 91.5252 142.889 91.4006 142.903 91.276C145.878 60.5019 137.921 33.77 121.819 10.0699C121.777 9.99373 121.715 9.93143 121.632 9.89682L121.639 9.88989ZM48.5594 75.0514C41.5289 75.0514 35.7442 68.6003 35.7442 60.6749C35.7442 52.7495 41.4251 46.2984 48.5594 46.2984C55.6936 46.2984 61.4923 52.8118 61.3747 60.6749C61.3747 68.6003 55.6936 75.0514 48.5594 75.0514ZM95.9525 75.0514C88.9221 75.0514 83.1374 68.6003 83.1374 60.6749C83.1374 52.7495 88.8183 46.2984 95.9525 46.2984C103.087 46.2984 108.886 52.8118 108.768 60.6749C108.768 68.6003 103.149 75.0514 95.9525 75.0514Z" fill="#4285F4"/>
</svg>
