<svg width="145" height="110" viewBox="0 0 145 110" fill="none" xmlns="http://www.w3.org/2000/svg">
<path d="M128.295 0.0153663C124.641 -0.144674 120.917 0.947029 117.847 3.21458L109.609 9.29662L72.0328 37.0759L34.8082 9.56029C34.2894 9.05339 33.6046 8.75156 32.8804 8.71068H33.6304L26.2359 3.23802C23.164 0.964844 19.4342 -0.132996 15.7769 0.027085C12.1196 0.187167 8.53763 1.60274 5.7574 4.34544C2.22563 7.82747 0.0327931 12.6978 0.0327931 18.0388V28.3396C-0.010931 28.6329 -0.010931 28.931 0.0327931 29.2244V99.3083C0.0327931 105.072 4.76923 109.808 10.5328 109.808H33.0328C33.8284 109.808 34.5914 109.492 35.154 108.93C35.7166 108.367 36.0327 107.604 36.0328 106.808V56.9275L70.2515 82.2224C70.7674 82.603 71.3917 82.8084 72.0328 82.8084C72.6739 82.8084 73.2981 82.603 73.814 82.2224L108.033 56.9275V106.808C108.033 107.604 108.349 108.367 108.912 108.93C109.474 109.492 110.237 109.808 111.033 109.808H133.533C139.296 109.808 144.033 105.072 144.033 99.3083V29.1658C144.067 28.9071 144.067 28.6451 144.033 28.3865V18.0388C144.033 12.7634 141.904 7.91568 138.42 4.42748C138.319 4.32677 138.285 4.29887 138.326 4.33958C138.32 4.3337 138.314 4.32784 138.308 4.32201C135.529 1.58536 131.948 0.175406 128.295 0.0153663ZM127.966 6.00951C130.235 6.09847 132.435 6.959 134.101 8.59935C134.158 8.65537 134.199 8.69766 134.171 8.66966C136.561 11.0615 138.033 14.3742 138.033 18.0388V27.2966L114.033 45.0329V13.8083C114.034 13.7066 114.03 13.6049 114.021 13.5037L121.41 8.04271H121.416C123.362 6.60527 125.697 5.92055 127.966 6.00951ZM16.1051 6.02709C18.3765 5.93817 20.7205 6.61947 22.6676 8.06029L30.0445 13.5154C30.0358 13.6128 30.0319 13.7105 30.0328 13.8083V45.0329L6.03279 27.2966V18.0388C6.03279 14.3318 7.53807 11.0149 9.97029 8.61693C11.6361 6.97364 13.8336 6.116 16.1051 6.02709ZM108.033 17.9216V49.4685L72.0328 76.0759L36.0328 49.4685V17.9275L70.2515 43.2224C70.7674 43.603 71.3917 43.8084 72.0328 43.8084C72.6739 43.8084 73.2981 43.603 73.814 43.2224L108.033 17.9216ZM6.03279 34.7556L30.0328 52.4978V103.808H10.5328C8.01036 103.808 6.03279 101.831 6.03279 99.3083V34.7556ZM138.033 34.7556V99.3083C138.033 101.831 136.055 103.808 133.533 103.808H114.033V52.4978L138.033 34.7556Z" fill="#4285F4"/>
</svg>
