<svg width="850" height="200" viewBox="0 0 850 200" fill="none" xmlns="http://www.w3.org/2000/svg">
<mask id="path-1-inside-1_1_1631" fill="white">
<path fill-rule="evenodd" clip-rule="evenodd" d="M0 36.5567V199.248H731.206L731 199.042L849.794 80.2481L850 80.4541V0.248047H36.3086L0 36.5567Z"/>
</mask>
<path fill-rule="evenodd" clip-rule="evenodd" d="M0 36.5567V199.248H731.206L731 199.042L849.794 80.2481L850 80.4541V0.248047H36.3086L0 36.5567Z" fill="url(#paint0_linear_1_1631)"/>
<path d="M0 36.5567L-2.12132 34.4354L-3 35.314V36.5567H0ZM0 199.248H-3V202.248H0V199.248ZM731.206 199.248V202.248H738.449L733.327 197.127L731.206 199.248ZM731 199.042L728.879 196.921L726.757 199.042L728.879 201.163L731 199.042ZM849.794 80.2481L851.915 78.1267L849.794 76.0054L847.673 78.1267L849.794 80.2481ZM850 80.4541L847.879 82.5754L853 87.6967V80.4541H850ZM850 0.248047H853V-2.75195H850V0.248047ZM36.3086 0.248047V-2.75195H35.066L34.1873 -1.87327L36.3086 0.248047ZM-3 36.5567V199.248H3V36.5567H-3ZM0 202.248H731.206V196.248H0V202.248ZM733.327 197.127L733.121 196.921L728.879 201.163L729.085 201.369L733.327 197.127ZM733.121 201.163L851.915 82.3694L847.673 78.1267L728.879 196.921L733.121 201.163ZM847.673 82.3694L847.879 82.5754L852.121 78.3328L851.915 78.1267L847.673 82.3694ZM853 80.4541V0.248047H847V80.4541H853ZM850 -2.75195H36.3086V3.24805H850V-2.75195ZM34.1873 -1.87327L-2.12132 34.4354L2.12132 38.678L38.43 2.36937L34.1873 -1.87327Z" fill="#00FF84" mask="url(#path-1-inside-1_1_1631)"/>
<defs>
<linearGradient id="paint0_linear_1_1631" x1="425" y1="0.248047" x2="425" y2="199.248" gradientUnits="userSpaceOnUse">
<stop stop-color="#00FF84" stop-opacity="0.1"/>
<stop offset="1" stop-color="#19A260" stop-opacity="0.05"/>
</linearGradient>
</defs>
</svg>
