<svg width="850" height="90" viewBox="0 0 850 90" fill="none" xmlns="http://www.w3.org/2000/svg">
<mask id="path-1-inside-1_1_1632" fill="white">
<path fill-rule="evenodd" clip-rule="evenodd" d="M0 36.5567V89.5H840.542L849.794 80.2481L850 80.4541V0.248047H36.3086L0 36.5567Z"/>
</mask>
<path fill-rule="evenodd" clip-rule="evenodd" d="M0 36.5567V89.5H840.542L849.794 80.2481L850 80.4541V0.248047H36.3086L0 36.5567Z" fill="url(#paint0_linear_1_1632)"/>
<path d="M0 36.5567L-2.12132 34.4354L-3 35.314V36.5567H0ZM0 89.5H-3V92.5H0V89.5ZM840.542 89.5V92.5H841.785L842.663 91.6213L840.542 89.5ZM849.794 80.2481L851.915 78.1267L849.794 76.0054L847.673 78.1267L849.794 80.2481ZM850 80.4541L847.879 82.5754L853 87.6967V80.4541H850ZM850 0.248047H853V-2.75195H850V0.248047ZM36.3086 0.248047V-2.75195H35.066L34.1873 -1.87327L36.3086 0.248047ZM-3 36.5567V89.5H3V36.5567H-3ZM0 92.5H840.542V86.5H0V92.5ZM842.663 91.6213L851.915 82.3694L847.673 78.1267L838.421 87.3787L842.663 91.6213ZM847.673 82.3694L847.879 82.5754L852.121 78.3328L851.915 78.1267L847.673 82.3694ZM853 80.4541V0.248047H847V80.4541H853ZM850 -2.75195H36.3086V3.24805H850V-2.75195ZM34.1873 -1.87327L-2.12132 34.4354L2.12132 38.678L38.43 2.36937L34.1873 -1.87327Z" fill="#00FF84" mask="url(#path-1-inside-1_1_1632)"/>
<defs>
<linearGradient id="paint0_linear_1_1632" x1="425" y1="0.248047" x2="425" y2="89.5" gradientUnits="userSpaceOnUse">
<stop stop-color="#00FF84" stop-opacity="0.1"/>
<stop offset="1" stop-color="#19A260" stop-opacity="0.05"/>
</linearGradient>
</defs>
</svg>
