<svg width="850" height="400" viewBox="0 0 850 400" fill="none" xmlns="http://www.w3.org/2000/svg">
<mask id="path-1-inside-1_1_66" fill="white">
<path fill-rule="evenodd" clip-rule="evenodd" d="M0 36.3086V400H731.206L731 399.794L849.794 281L850 281.206V0H36.3086L0 36.3086Z"/>
</mask>
<path fill-rule="evenodd" clip-rule="evenodd" d="M0 36.3086V400H731.206L731 399.794L849.794 281L850 281.206V0H36.3086L0 36.3086Z" fill="url(#paint0_linear_1_66)"/>
<path d="M0 36.3086L-2.12132 34.1873L-3 35.066V36.3086H0ZM0 400H-3V403H0V400ZM731.206 400V403H738.449L733.327 397.879L731.206 400ZM731 399.794L728.879 397.673L726.757 399.794L728.879 401.915L731 399.794ZM849.794 281L851.915 278.879L849.794 276.757L847.673 278.879L849.794 281ZM850 281.206L847.879 283.327L853 288.449V281.206H850ZM850 0H853V-3H850V0ZM36.3086 0V-3H35.066L34.1873 -2.12132L36.3086 0ZM-3 36.3086V400H3V36.3086H-3ZM0 403H731.206V397H0V403ZM733.327 397.879L733.121 397.673L728.879 401.915L729.085 402.121L733.327 397.879ZM733.121 401.915L851.915 283.121L847.673 278.879L728.879 397.673L733.121 401.915ZM847.673 283.121L847.879 283.327L852.121 279.085L851.915 278.879L847.673 283.121ZM853 281.206V0H847V281.206H853ZM850 -3H36.3086V3H850V-3ZM34.1873 -2.12132L-2.12132 34.1873L2.12132 38.43L38.43 2.12132L34.1873 -2.12132Z" fill="#00FF84" mask="url(#path-1-inside-1_1_66)"/>
<defs>
<linearGradient id="paint0_linear_1_66" x1="425" y1="0" x2="425" y2="199" gradientUnits="userSpaceOnUse">
<stop stop-color="#00FF84" stop-opacity="0.1"/>
<stop offset="1" stop-color="#19A260" stop-opacity="0.05"/>
</linearGradient>
</defs>
</svg>
