<svg width="850" height="302" viewBox="0 0 850 302" fill="none" xmlns="http://www.w3.org/2000/svg">
<mask id="path-1-inside-1_1_1666" fill="white">
<path fill-rule="evenodd" clip-rule="evenodd" d="M0 55.1015V302H731.206L731 301.687L849.794 121.407L850 121.72V0H36.3086L0 55.1015Z"/>
</mask>
<path fill-rule="evenodd" clip-rule="evenodd" d="M0 55.1015V302H731.206L731 301.687L849.794 121.407L850 121.72V0H36.3086L0 55.1015Z" fill="url(#paint0_linear_1_1666)"/>
<path d="M0 55.1015L-2.50505 53.4509L-3 54.202V55.1015H0ZM0 302H-3V305H0V302ZM731.206 302V305H736.776L733.711 300.349L731.206 302ZM731 301.687L728.495 300.037L727.407 301.687L728.495 303.338L731 301.687ZM849.794 121.407L852.299 119.756L849.794 115.955L847.289 119.756L849.794 121.407ZM850 121.72L847.495 123.37L853 131.725V121.72H850ZM850 0H853V-3H850V0ZM36.3086 0V-3H34.6927L33.8036 -1.65068L36.3086 0ZM-3 55.1015V302H3V55.1015H-3ZM0 305H731.206V299H0V305ZM733.711 300.349L733.505 300.037L728.495 303.338L728.701 303.651L733.711 300.349ZM733.505 303.338L852.299 123.058L847.289 119.756L728.495 300.037L733.505 303.338ZM847.289 123.058L847.495 123.37L852.505 120.069L852.299 119.756L847.289 123.058ZM853 121.72V0H847V121.72H853ZM850 -3H36.3086V3H850V-3ZM33.8036 -1.65068L-2.50505 53.4509L2.50505 56.7522L38.8137 1.65068L33.8036 -1.65068Z" fill="#00FF84" mask="url(#path-1-inside-1_1_1666)"/>
<defs>
<linearGradient id="paint0_linear_1_1666" x1="425" y1="0" x2="425" y2="302" gradientUnits="userSpaceOnUse">
<stop stop-color="#00FF84" stop-opacity="0.1"/>
<stop offset="1" stop-color="#19A260" stop-opacity="0.05"/>
</linearGradient>
</defs>
</svg>
