<svg width="275" height="111" viewBox="0 0 275 111" fill="none" xmlns="http://www.w3.org/2000/svg">
<path d="M27.5 90H42.2C44.45 90 45.65 91.05 45.65 93.3V107.7C45.65 109.95 44.45 111 42.2 111H27.5C25.25 111 24.2 109.95 24.2 107.7V93.3C24.2 91.05 25.25 90 27.5 90ZM3.65 0.749998H65.3C79.4 0.749998 85.7 7.8 85.7 21V27.3C85.7 39.45 82.25 44.55 71.9 49.5L47.15 61.35C44.15 62.7 43.4 64.8 43.1 67.5L42.65 71.25C42.35 74.25 41.45 75 38.15 75H31.55C28.4 75 27.35 73.8 27.35 71.25L27.2 63.9C27.2 58.65 28.1 54 33.8 51L59.3 37.8C62.6 36.15 63.95 33.9 63.95 29.85V25.95C63.95 21.75 62 19.65 57.5 19.65H3.65C1.4 19.65 0.35 18.45 0.35 16.35V4.04999C0.35 1.79999 1.4 0.749998 3.65 0.749998ZM122.129 90H136.829C139.079 90 140.279 91.05 140.279 93.3V107.7C140.279 109.95 139.079 111 136.829 111H122.129C119.879 111 118.829 109.95 118.829 107.7V93.3C118.829 91.05 119.879 90 122.129 90ZM98.2789 0.749998H159.929C174.029 0.749998 180.329 7.8 180.329 21V27.3C180.329 39.45 176.879 44.55 166.529 49.5L141.779 61.35C138.779 62.7 138.029 64.8 137.729 67.5L137.279 71.25C136.979 74.25 136.079 75 132.779 75H126.179C123.029 75 121.979 73.8 121.979 71.25L121.829 63.9C121.829 58.65 122.729 54 128.429 51L153.929 37.8C157.229 36.15 158.579 33.9 158.579 29.85V25.95C158.579 21.75 156.629 19.65 152.129 19.65H98.2789C96.0289 19.65 94.9789 18.45 94.9789 16.35V4.04999C94.9789 1.79999 96.0289 0.749998 98.2789 0.749998ZM216.758 90H231.458C233.708 90 234.908 91.05 234.908 93.3V107.7C234.908 109.95 233.708 111 231.458 111H216.758C214.508 111 213.458 109.95 213.458 107.7V93.3C213.458 91.05 214.508 90 216.758 90ZM192.908 0.749998H254.558C268.658 0.749998 274.958 7.8 274.958 21V27.3C274.958 39.45 271.508 44.55 261.158 49.5L236.408 61.35C233.408 62.7 232.658 64.8 232.358 67.5L231.908 71.25C231.608 74.25 230.708 75 227.408 75H220.808C217.658 75 216.608 73.8 216.608 71.25L216.458 63.9C216.458 58.65 217.358 54 223.058 51L248.558 37.8C251.858 36.15 253.208 33.9 253.208 29.85V25.95C253.208 21.75 251.258 19.65 246.758 19.65H192.908C190.658 19.65 189.608 18.45 189.608 16.35V4.04999C189.608 1.79999 190.658 0.749998 192.908 0.749998Z" fill="white" fill-opacity="0.05"/>
</svg>
