<svg width="1919" height="418" viewBox="0 0 1919 418" fill="none" xmlns="http://www.w3.org/2000/svg">
<g clip-path="url(#clip0_1_931)">
<rect width="1920" height="418" transform="translate(-1 0.248047)" fill="url(#paint0_linear_1_931)"/>
<path d="M907.255 253.798L960.744 222.916L1014.23 253.798V315.562L960.744 346.443L907.255 315.562V253.798Z" stroke="white" stroke-opacity="0.1" stroke-width="2.5"/>
<path d="M930.335 267.124L960.744 249.567L991.152 267.124V302.237L960.744 319.793L930.335 302.237V267.124Z" stroke="white" stroke-opacity="0.1" stroke-width="2.5"/>
<path d="M960.17 249.539V191.419V98.8425V71.5323M960.17 71.5323L971.742 58.1086M960.17 71.5323L949.06 58.1086M960.17 71.5323V0.248047" stroke="white" stroke-opacity="0.1" stroke-width="2.5"/>
<path d="M960.659 320.966V379.085V471.662V498.973M960.659 498.973L949.087 512.396M960.659 498.973L971.768 512.396M960.659 498.973V570.257L872.855 696.174H807.324" stroke="white" stroke-opacity="0.1" stroke-width="2.5"/>
<path d="M931.025 301.896L882.342 334.15L805.312 385.499L782.588 400.647M782.588 400.647L777.837 417.722M782.588 400.647L765.256 398.849M782.588 400.647L723.274 440.186L670 440.186" stroke="white" stroke-opacity="0.1" stroke-width="2.5"/>
<path d="M930.437 266.755L879.514 233.512L802.483 182.163L779.759 167.015M779.759 167.015L775.008 149.94M779.759 167.015L762.428 168.813M779.759 167.015L720.445 127.476L695.446 127.476L670.447 127.476L670.447 324.248L551 324.248" stroke="white" stroke-opacity="0.1" stroke-width="2.5"/>
<path d="M991.757 267.817L1042.13 234.692L1119.16 183.343L1141.88 168.195M1141.88 168.195L1146.63 151.121M1141.88 168.195L1159.21 169.993M1141.88 168.195L1201.5 128.749L1247 128.748" stroke="white" stroke-opacity="0.1" stroke-width="3"/>
<path d="M992.109 302.485L1042.13 334.857L1119.16 386.206L1141.88 401.354M1141.88 401.354L1146.63 418.429M1141.88 401.354L1159.21 399.556M1141.88 401.354L1201.19 440.893L1246.8 440.893" stroke="white" stroke-opacity="0.1" stroke-width="2.5"/>
<path d="M912.356 59.0351C912.356 61.4125 914.283 63.3397 916.66 63.3397C919.038 63.3397 920.965 61.4125 920.965 59.0351C920.965 56.6577 919.038 54.7305 916.66 54.7305C914.283 54.7305 912.356 56.6577 912.356 59.0351Z" stroke="white" stroke-opacity="0.1" stroke-width="2.5"/>
<path d="M745.668 367.794C747.647 366.475 750.319 367.01 751.638 368.988C752.956 370.966 752.422 373.638 750.444 374.957C748.465 376.276 745.793 375.741 744.474 373.763C743.156 371.785 743.69 369.112 745.668 367.794Z" stroke="white" stroke-opacity="0.1" stroke-width="2.5"/>
<path d="M742.838 199.87C744.816 201.188 747.489 200.654 748.807 198.675C750.126 196.697 749.591 194.025 747.613 192.706C745.635 191.387 742.962 191.922 741.644 193.9C740.325 195.878 740.86 198.551 742.838 199.87Z" stroke="white" stroke-opacity="0.1" stroke-width="2.5"/>
<path d="M1178.8 201.048C1176.82 202.367 1174.15 201.832 1172.83 199.854C1171.51 197.876 1172.05 195.203 1174.03 193.885C1176 192.566 1178.68 193.101 1180 195.079C1181.31 197.057 1180.78 199.73 1178.8 201.048Z" stroke="white" stroke-opacity="0.1" stroke-width="2.5"/>
<path d="M1178.8 368.501C1176.82 367.182 1174.15 367.717 1172.83 369.695C1171.51 371.673 1172.05 374.345 1174.03 375.664C1176 376.983 1178.68 376.448 1180 374.47C1181.31 372.492 1180.78 369.819 1178.8 368.501Z" stroke="white" stroke-opacity="0.1" stroke-width="2.5"/>
<path d="M936.424 27.0956C936.424 28.7061 937.729 30.0116 939.34 30.0116C940.95 30.0116 942.256 28.7061 942.256 27.0956C942.256 25.4852 940.95 24.1797 939.34 24.1797C937.729 24.1797 936.424 25.4852 936.424 27.0956Z" stroke="white" stroke-opacity="0.1" stroke-width="2.5"/>
<path d="M732.443 405.537C733.783 404.644 735.593 405.006 736.487 406.346C737.38 407.686 737.018 409.496 735.678 410.389C734.338 411.283 732.527 410.921 731.634 409.581C730.741 408.241 731.103 406.43 732.443 405.537Z" stroke="white" stroke-opacity="0.1" stroke-width="2.5"/>
<path d="M729.612 162.127C730.952 163.02 732.763 162.658 733.656 161.318C734.549 159.978 734.187 158.168 732.847 157.275C731.507 156.381 729.697 156.744 728.804 158.084C727.91 159.424 728.272 161.234 729.612 162.127Z" stroke="white" stroke-opacity="0.1" stroke-width="2.5"/>
<path d="M1192.03 163.305C1190.69 164.198 1188.88 163.836 1187.98 162.496C1187.09 161.156 1187.45 159.346 1188.79 158.452C1190.13 157.559 1191.94 157.921 1192.84 159.261C1193.73 160.601 1193.37 162.412 1192.03 163.305Z" stroke="white" stroke-opacity="0.1" stroke-width="2.5"/>
<path d="M1192.03 406.244C1190.69 405.351 1188.88 405.713 1187.98 407.053C1187.09 408.393 1187.45 410.203 1188.79 411.096C1190.13 411.99 1191.94 411.628 1192.84 410.288C1193.73 408.948 1193.37 407.137 1192.03 406.244Z" stroke="white" stroke-opacity="0.1" stroke-width="2.5"/>
<path d="M936.424 135.41C936.424 137.021 937.729 138.326 939.34 138.326C940.95 138.326 942.256 137.021 942.256 135.41C942.256 133.8 940.95 132.494 939.34 132.494C937.729 132.494 936.424 133.8 936.424 135.41Z" stroke="white" stroke-opacity="0.1" stroke-width="2.5"/>
<path d="M822.57 345.457C823.91 344.564 825.72 344.926 826.613 346.266C827.506 347.606 827.144 349.416 825.804 350.309C824.464 351.203 822.654 350.84 821.761 349.5C820.867 348.16 821.23 346.35 822.57 345.457Z" stroke="white" stroke-opacity="0.1" stroke-width="2.5"/>
<path d="M819.739 222.205C821.079 223.099 822.89 222.736 823.783 221.396C824.676 220.056 824.314 218.246 822.974 217.353C821.634 216.46 819.824 216.822 818.931 218.162C818.037 219.502 818.399 221.312 819.739 222.205Z" stroke="white" stroke-opacity="0.1" stroke-width="2.5"/>
<path d="M1101.9 223.385C1100.56 224.278 1098.75 223.916 1097.86 222.576C1096.97 221.236 1097.33 219.426 1098.67 218.532C1100.01 217.639 1101.82 218.001 1102.71 219.341C1103.6 220.681 1103.24 222.492 1101.9 223.385Z" stroke="white" stroke-opacity="0.1" stroke-width="2.5"/>
<path d="M1101.9 346.164C1100.56 345.271 1098.75 345.633 1097.86 346.973C1096.97 348.313 1097.33 350.123 1098.67 351.016C1100.01 351.91 1101.82 351.547 1102.71 350.207C1103.6 348.867 1103.24 347.057 1101.9 346.164Z" stroke="white" stroke-opacity="0.1" stroke-width="2.5"/>
<path d="M978.084 27.0956C978.084 28.7061 979.389 30.0116 981 30.0116C982.61 30.0116 983.916 28.7061 983.916 27.0956C983.916 25.4852 982.61 24.1797 981 24.1797C979.389 24.1797 978.084 25.4852 978.084 27.0956Z" stroke="white" stroke-opacity="0.1" stroke-width="2.5"/>
<path d="M752.719 127.463C754.059 128.356 755.869 127.994 756.763 126.654C757.656 125.314 757.294 123.504 755.954 122.611C754.614 121.717 752.803 122.079 751.91 123.419C751.017 124.759 751.379 126.57 752.719 127.463Z" stroke="white" stroke-opacity="0.1" stroke-width="2.5"/>
<path d="M1168.92 128.643C1167.58 129.536 1165.77 129.174 1164.88 127.834C1163.98 126.494 1164.35 124.684 1165.69 123.79C1167.03 122.897 1168.84 123.259 1169.73 124.599C1170.62 125.939 1170.26 127.75 1168.92 128.643Z" stroke="white" stroke-opacity="0.1" stroke-width="2.5"/>
<path d="M978.084 135.41C978.084 137.021 979.39 138.326 981 138.326C982.61 138.326 983.916 137.021 983.916 135.41C983.916 133.8 982.61 132.494 981 132.494C979.39 132.494 978.084 133.8 978.084 135.41Z" stroke="white" stroke-opacity="0.1" stroke-width="2.5"/>
<path d="M845.677 380.121C847.017 379.228 848.827 379.59 849.721 380.93C850.614 382.27 850.252 384.08 848.912 384.973C847.572 385.867 845.761 385.505 844.868 384.165C843.975 382.824 844.337 381.014 845.677 380.121Z" stroke="white" stroke-opacity="0.1" stroke-width="2.5"/>
<path d="M842.845 187.541C844.185 188.435 845.995 188.072 846.889 186.732C847.782 185.392 847.42 183.582 846.08 182.689C844.74 181.795 842.929 182.158 842.036 183.498C841.143 184.838 841.505 186.648 842.845 187.541Z" stroke="white" stroke-opacity="0.1" stroke-width="2.5"/>
<path d="M1078.8 188.721C1077.46 189.614 1075.64 189.252 1074.75 187.912C1073.86 186.572 1074.22 184.762 1075.56 183.868C1076.9 182.975 1078.71 183.337 1079.6 184.677C1080.5 186.017 1080.14 187.828 1078.8 188.721Z" stroke="white" stroke-opacity="0.1" stroke-width="2.5"/>
<path d="M1078.8 380.828C1077.46 379.935 1075.65 380.297 1074.75 381.637C1073.86 382.977 1074.22 384.787 1075.56 385.68C1076.9 386.574 1078.71 386.212 1079.6 384.872C1080.5 383.532 1080.14 381.721 1078.8 380.828Z" stroke="white" stroke-opacity="0.1" stroke-width="2.5"/>
<path d="M881.805 89.5859C881.805 91.9632 883.732 93.8905 886.109 93.8905C888.487 93.8905 890.414 91.9632 890.414 89.5859C890.414 87.2085 888.487 85.2812 886.109 85.2812C883.732 85.2812 881.805 87.2085 881.805 89.5859Z" stroke="white" stroke-opacity="0.1" stroke-width="2.5"/>
<path d="M754.143 325.428C756.122 324.11 758.794 324.644 760.113 326.622C761.432 328.601 760.897 331.273 758.919 332.592C756.941 333.91 754.268 333.376 752.949 331.398C751.631 329.42 752.165 326.747 754.143 325.428Z" stroke="white" stroke-opacity="0.1" stroke-width="2.5"/>
<path d="M751.313 242.234C753.292 243.552 755.964 243.018 757.283 241.04C758.601 239.062 758.067 236.389 756.089 235.07C754.111 233.752 751.438 234.286 750.119 236.264C748.801 238.243 749.335 240.915 751.313 242.234Z" stroke="white" stroke-opacity="0.1" stroke-width="2.5"/>
<path d="M1170.33 243.413C1168.35 244.732 1165.68 244.197 1164.36 242.219C1163.04 240.241 1163.57 237.569 1165.55 236.25C1167.53 234.931 1170.2 235.466 1171.52 237.444C1172.84 239.422 1172.3 242.095 1170.33 243.413Z" stroke="white" stroke-opacity="0.1" stroke-width="2.5"/>
<path d="M1170.33 326.135C1168.35 324.817 1165.68 325.351 1164.36 327.329C1163.04 329.308 1163.57 331.98 1165.55 333.299C1167.53 334.618 1170.2 334.083 1171.52 332.105C1172.84 330.127 1172.3 327.454 1170.33 326.135Z" stroke="white" stroke-opacity="0.1" stroke-width="2.5"/>
<path d="M891.986 118.283C891.986 120.661 893.914 122.588 896.291 122.588C898.668 122.588 900.596 120.661 900.596 118.283C900.596 115.906 898.668 113.979 896.291 113.979C893.914 113.979 891.986 115.906 891.986 118.283Z" stroke="white" stroke-opacity="0.1" stroke-width="2.5"/>
<path d="M783.67 317.983C785.648 316.664 788.321 317.199 789.639 319.177C790.958 321.155 790.423 323.828 788.445 325.147C786.467 326.465 783.794 325.931 782.476 323.952C781.157 321.974 781.692 319.302 783.67 317.983Z" stroke="white" stroke-opacity="0.1" stroke-width="2.5"/>
<path d="M780.84 249.679C782.818 250.998 785.491 250.463 786.809 248.485C788.128 246.507 787.593 243.834 785.615 242.516C783.637 241.197 780.964 241.732 779.646 243.71C778.327 245.688 778.862 248.36 780.84 249.679Z" stroke="white" stroke-opacity="0.1" stroke-width="2.5"/>
<path d="M1140.8 250.859C1138.82 252.177 1136.15 251.643 1134.83 249.665C1133.51 247.687 1134.05 245.014 1136.03 243.695C1138 242.377 1140.68 242.911 1142 244.889C1143.31 246.868 1142.78 249.54 1140.8 250.859Z" stroke="white" stroke-opacity="0.1" stroke-width="2.5"/>
<path d="M1140.8 318.69C1138.82 317.371 1136.15 317.906 1134.83 319.884C1133.51 321.862 1134.05 324.535 1136.03 325.854C1138 327.172 1140.68 326.638 1142 324.659C1143.31 322.681 1142.78 320.009 1140.8 318.69Z" stroke="white" stroke-opacity="0.1" stroke-width="2.5"/>
<path d="M1019.74 118.283C1019.74 120.661 1021.67 122.588 1024.05 122.588C1026.43 122.588 1028.35 120.661 1028.35 118.283C1028.35 115.906 1026.43 113.979 1024.05 113.979C1021.67 113.979 1019.74 115.906 1019.74 118.283Z" stroke="white" stroke-opacity="0.1" stroke-width="2.5"/>
<path d="M851.702 143.376C853.68 144.695 856.353 144.16 857.671 142.182C858.99 140.204 858.455 137.531 856.477 136.213C854.499 134.894 851.827 135.429 850.508 137.407C849.189 139.385 849.724 142.058 851.702 143.376Z" stroke="white" stroke-opacity="0.1" stroke-width="2.5"/>
<path d="M1069.94 144.556C1067.96 145.875 1065.29 145.34 1063.97 143.362C1062.65 141.384 1063.18 138.711 1065.16 137.393C1067.14 136.074 1069.81 136.609 1071.13 138.587C1072.45 140.565 1071.92 143.237 1069.94 144.556Z" stroke="white" stroke-opacity="0.1" stroke-width="2.5"/>
<path d="M999.377 58.1093C999.377 60.4867 1001.3 62.4139 1003.68 62.4139C1006.06 62.4139 1007.99 60.4867 1007.99 58.1093C1007.99 55.7319 1006.06 53.8047 1003.68 53.8047C1001.3 53.8047 999.377 55.7319 999.377 58.1093Z" stroke="white" stroke-opacity="0.1" stroke-width="2.5"/>
<path d="M790.335 126.947C792.313 128.265 794.986 127.731 796.304 125.753C797.623 123.774 797.088 121.102 795.11 119.783C793.132 118.465 790.459 118.999 789.141 120.977C787.822 122.955 788.357 125.628 790.335 126.947Z" stroke="white" stroke-opacity="0.1" stroke-width="2.5"/>
<path d="M1131.31 128.126C1129.33 129.445 1126.65 128.91 1125.34 126.932C1124.02 124.954 1124.55 122.281 1126.53 120.963C1128.51 119.644 1131.18 120.179 1132.5 122.157C1133.82 124.135 1133.28 126.808 1131.31 128.126Z" stroke="white" stroke-opacity="0.1" stroke-width="2.5"/>
<path d="M1030.85 89.5859C1030.85 91.9632 1032.78 93.8905 1035.16 93.8905C1037.54 93.8905 1039.46 91.9632 1039.46 89.5859C1039.46 87.2085 1037.54 85.2812 1035.16 85.2812C1032.78 85.2812 1030.85 87.2085 1030.85 89.5859Z" stroke="white" stroke-opacity="0.1" stroke-width="2.5"/>
<path d="M833.986 118.215C835.964 119.534 838.636 118.999 839.955 117.021C841.274 115.043 840.739 112.37 838.761 111.052C836.783 109.733 834.11 110.268 832.792 112.246C831.473 114.224 832.008 116.897 833.986 118.215Z" stroke="white" stroke-opacity="0.1" stroke-width="2.5"/>
<path d="M1087.65 119.394C1085.68 120.713 1083 120.178 1081.69 118.2C1080.37 116.222 1080.9 113.549 1082.88 112.23C1084.86 110.912 1087.53 111.446 1088.85 113.425C1090.17 115.403 1089.63 118.075 1087.65 119.394Z" stroke="white" stroke-opacity="0.1" stroke-width="2.5"/>
<path d="M960.17 99.3058L981 77.5502V30.3359" stroke="white" stroke-opacity="0.1" stroke-width="2.5"/>
<path d="M805.698 385.242L799.149 414.641L759.864 440.829" stroke="white" stroke-opacity="0.1" stroke-width="2.5"/>
<path d="M802.868 182.421L796.319 153.022L757.034 126.834" stroke="white" stroke-opacity="0.1" stroke-width="2.5"/>
<path d="M1118.77 183.601L1125.32 154.202L1164.61 128.014" stroke="white" stroke-opacity="0.1" stroke-width="2.5"/>
<path d="M1118.77 385.948L1125.32 415.347L1164.61 441.535" stroke="white" stroke-opacity="0.1" stroke-width="2.5"/>
<path d="M960.17 365.862L981 387.618V434.832" stroke="white" stroke-opacity="0.1" stroke-width="2.5"/>
<path d="M960.17 207.62L981 185.865V138.65" stroke="white" stroke-opacity="0.1" stroke-width="2.5"/>
<path d="M895.823 325.163L889.274 354.562L849.988 380.75" stroke="white" stroke-opacity="0.1" stroke-width="2.5"/>
<path d="M892.992 242.499L886.444 213.1L847.158 186.912" stroke="white" stroke-opacity="0.1" stroke-width="2.5"/>
<path d="M1028.65 243.679L1035.2 214.28L1074.48 188.092" stroke="white" stroke-opacity="0.1" stroke-width="2.5"/>
<path d="M1028.65 325.87L1035.2 355.269L1074.48 381.457" stroke="white" stroke-opacity="0.1" stroke-width="2.5"/>
<path d="M960.17 99.3058L939.34 77.5502V30.7988" stroke="white" stroke-opacity="0.1" stroke-width="2.5"/>
<path d="M805.698 385.242L776.042 379.977L737.142 405.908" stroke="white" stroke-opacity="0.1" stroke-width="2.5"/>
<path d="M802.868 182.421L773.212 187.685L734.312 161.754" stroke="white" stroke-opacity="0.1" stroke-width="2.5"/>
<path d="M1118.77 183.6L1148.43 188.865L1187.33 162.934" stroke="white" stroke-opacity="0.1" stroke-width="2.5"/>
<path d="M1118.77 385.949L1148.43 380.684L1187.33 406.615" stroke="white" stroke-opacity="0.1" stroke-width="2.5"/>
<path d="M960.17 365.862L939.34 387.618V434.369" stroke="white" stroke-opacity="0.1" stroke-width="2.5"/>
<path d="M960.17 207.62L939.34 185.865V139.113" stroke="white" stroke-opacity="0.1" stroke-width="2.5"/>
<path d="M895.822 325.163L866.166 319.899L827.266 345.83" stroke="white" stroke-opacity="0.1" stroke-width="2.5"/>
<path d="M892.994 242.499L863.338 247.763L824.438 221.832" stroke="white" stroke-opacity="0.1" stroke-width="2.5"/>
<path d="M1028.65 243.678L1058.3 248.943L1097.2 223.012" stroke="white" stroke-opacity="0.1" stroke-width="2.5"/>
<path d="M1028.65 325.871L1058.3 320.606L1097.2 346.537" stroke="white" stroke-opacity="0.1" stroke-width="2.5"/>
<path d="M960.17 130.782L1003.68 90.0485M1003.68 90.0485V63.6641M1003.68 90.0485H1030.07" stroke="white" stroke-opacity="0.1" stroke-width="2.5"/>
<path d="M831.89 367.783L822.13 426.582M822.13 426.582L800.176 441.216M822.13 426.582L836.765 448.535" stroke="white" stroke-opacity="0.1" stroke-width="2.5"/>
<path d="M829.059 199.88L819.3 141.081M819.3 141.081L797.346 126.447M819.3 141.081L833.935 119.128" stroke="white" stroke-opacity="0.1" stroke-width="2.5"/>
<path d="M1092.58 201.058L1102.34 142.26M1102.34 142.26L1124.3 127.626M1102.34 142.26L1087.71 120.306" stroke="white" stroke-opacity="0.1" stroke-width="2.5"/>
<path d="M1092.58 368.49L1102.34 427.289M1102.34 427.289L1124.3 441.923M1102.34 427.289L1087.71 449.242" stroke="white" stroke-opacity="0.1" stroke-width="2.5"/>
<path d="M960.171 130.782L916.66 90.0485M916.66 90.0485V63.6641M916.66 90.0485H890.275" stroke="white" stroke-opacity="0.1" stroke-width="2.5"/>
<path d="M831.889 367.783L773.862 354.173M773.862 354.173L751.908 368.807M773.862 354.173L759.227 332.219" stroke="white" stroke-opacity="0.1" stroke-width="2.5"/>
<path d="M829.06 199.88L771.032 213.49M771.032 213.49L749.078 198.856M771.032 213.49L756.398 235.444" stroke="white" stroke-opacity="0.1" stroke-width="2.5"/>
<path d="M1092.58 201.058L1150.61 214.669M1150.61 214.669L1172.56 200.035M1150.61 214.669L1165.24 236.623" stroke="white" stroke-opacity="0.1" stroke-width="2.5"/>
<path d="M1092.58 368.49L1150.61 354.88M1150.61 354.88L1172.56 369.514M1150.61 354.88L1165.24 332.926" stroke="white" stroke-opacity="0.1" stroke-width="2.5"/>
<path d="M939.803 414.465L899.069 451.959" stroke="white" stroke-opacity="0.1" stroke-width="2.5"/>
<path d="M939.803 159.017L899.069 121.523" stroke="white" stroke-opacity="0.1" stroke-width="2.5"/>
<path d="M844.086 335.174L790.295 322.077" stroke="white" stroke-opacity="0.1" stroke-width="2.5"/>
<path d="M841.256 232.488L787.464 245.585" stroke="white" stroke-opacity="0.1" stroke-width="2.5"/>
<path d="M1080.38 233.668L1134.18 246.765" stroke="white" stroke-opacity="0.1" stroke-width="2.5"/>
<path d="M1080.38 335.883L1134.18 322.786" stroke="white" stroke-opacity="0.1" stroke-width="2.5"/>
<path d="M980.539 414.928L1021.27 452.422" stroke="white" stroke-opacity="0.1" stroke-width="2.5"/>
<path d="M980.539 158.554L1021.27 121.061" stroke="white" stroke-opacity="0.1" stroke-width="2.5"/>
<path d="M866.295 369.325L857.691 424.015" stroke="white" stroke-opacity="0.1" stroke-width="2.5"/>
<path d="M863.465 198.337L854.861 143.647" stroke="white" stroke-opacity="0.1" stroke-width="2.5"/>
<path d="M1058.18 199.515L1066.78 144.825" stroke="white" stroke-opacity="0.1" stroke-width="2.5"/>
<path d="M1058.18 370.034L1066.78 424.724" stroke="white" stroke-opacity="0.1" stroke-width="2.5"/>
<mask id="path-95-outside-1_1_931" maskUnits="userSpaceOnUse" x="1247" y="-35.752" width="686" height="166" fill="black">
<rect fill="white" x="1247" y="-35.752" width="686" height="166"/>
<path d="M1410 -32.752H1450V87.248L1410 127.248H1365V92.248L1330 127.248H1250V-32.752H1290V87.248H1313.4L1330 70.848V-32.752H1370V87.248H1393.4L1410 70.848V-32.752ZM1529.92 -32.752H1689.92V87.248L1649.92 127.248H1489.92V7.24804L1529.92 -32.752ZM1649.92 70.848V7.24804H1546.32L1529.92 23.848V87.248H1633.32L1649.92 70.848ZM1769.84 23.848V87.248H1929.84V127.248H1729.84V7.24804L1769.84 -32.752H1929.84V7.24804H1786.24L1769.84 23.848Z"/>
</mask>
<path d="M1410 -32.752V-35.752H1407V-32.752H1410ZM1450 -32.752H1453V-35.752H1450V-32.752ZM1450 87.248L1452.12 89.3694L1453 88.4907V87.248H1450ZM1410 127.248V130.248H1411.24L1412.12 129.369L1410 127.248ZM1365 127.248H1362V130.248H1365V127.248ZM1365 92.248H1368V85.0054L1362.88 90.1267L1365 92.248ZM1330 127.248V130.248H1331.24L1332.12 129.369L1330 127.248ZM1250 127.248H1247V130.248H1250V127.248ZM1250 -32.752V-35.752H1247V-32.752H1250ZM1290 -32.752H1293V-35.752H1290V-32.752ZM1290 87.248H1287V90.248H1290V87.248ZM1313.4 87.248V90.248H1314.63L1315.51 89.3822L1313.4 87.248ZM1330 70.8481L1332.11 72.9822L1333 72.1013V70.8481H1330ZM1330 -32.752V-35.752H1327V-32.752H1330ZM1370 -32.752H1373V-35.752H1370V-32.752ZM1370 87.248H1367V90.248H1370V87.248ZM1393.4 87.248V90.248H1394.63L1395.51 89.3822L1393.4 87.248ZM1410 70.8481L1412.11 72.9822L1413 72.1013V70.8481H1410ZM1410 -29.752H1450V-35.752H1410V-29.752ZM1447 -32.752V87.248H1453V-32.752H1447ZM1447.88 85.1267L1407.88 125.127L1412.12 129.369L1452.12 89.3694L1447.88 85.1267ZM1410 124.248H1365V130.248H1410V124.248ZM1368 127.248V92.248H1362V127.248H1368ZM1362.88 90.1267L1327.88 125.127L1332.12 129.369L1367.12 94.3694L1362.88 90.1267ZM1330 124.248H1250V130.248H1330V124.248ZM1253 127.248V-32.752H1247V127.248H1253ZM1250 -29.752H1290V-35.752H1250V-29.752ZM1287 -32.752V87.248H1293V-32.752H1287ZM1290 90.248H1313.4V84.248H1290V90.248ZM1315.51 89.3822L1332.11 72.9822L1327.89 68.7139L1311.29 85.1139L1315.51 89.3822ZM1333 70.8481V-32.752H1327V70.8481H1333ZM1330 -29.752H1370V-35.752H1330V-29.752ZM1367 -32.752V87.248H1373V-32.752H1367ZM1370 90.248H1393.4V84.248H1370V90.248ZM1395.51 89.3822L1412.11 72.9822L1407.89 68.7139L1391.29 85.1139L1395.51 89.3822ZM1413 70.8481V-32.752H1407V70.8481H1413ZM1529.92 -32.752V-35.752H1528.68L1527.8 -34.8733L1529.92 -32.752ZM1689.92 -32.752H1692.92V-35.752H1689.92V-32.752ZM1689.92 87.248L1692.04 89.3694L1692.92 88.4907V87.248H1689.92ZM1649.92 127.248V130.248H1651.16L1652.04 129.369L1649.92 127.248ZM1489.92 127.248H1486.92V130.248H1489.92V127.248ZM1489.92 7.24804L1487.8 5.12672L1486.92 6.0054V7.24804H1489.92ZM1649.92 70.8481L1652.03 72.9822L1652.92 72.1013V70.8481H1649.92ZM1649.92 7.24804H1652.92V4.24804H1649.92V7.24804ZM1546.32 7.24804V4.24804H1545.07L1544.19 5.13962L1546.32 7.24804ZM1529.92 23.848L1527.79 21.7396L1526.92 22.616V23.848H1529.92ZM1529.92 87.248H1526.92V90.248H1529.92V87.248ZM1633.32 87.248V90.248H1634.55L1635.43 89.3822L1633.32 87.248ZM1529.92 -29.752H1689.92V-35.752H1529.92V-29.752ZM1686.92 -32.752V87.248H1692.92V-32.752H1686.92ZM1687.8 85.1267L1647.8 125.127L1652.04 129.369L1692.04 89.3694L1687.8 85.1267ZM1649.92 124.248H1489.92V130.248H1649.92V124.248ZM1492.92 127.248V7.24804H1486.92V127.248H1492.92ZM1492.04 9.36936L1532.04 -30.6306L1527.8 -34.8733L1487.8 5.12672L1492.04 9.36936ZM1652.92 70.8481V7.24804H1646.92V70.8481H1652.92ZM1649.92 4.24804H1546.32V10.248H1649.92V4.24804ZM1544.19 5.13962L1527.79 21.7396L1532.06 25.9565L1548.46 9.35647L1544.19 5.13962ZM1526.92 23.848V87.248H1532.92V23.848H1526.92ZM1529.92 90.248H1633.32V84.248H1529.92V90.248ZM1635.43 89.3822L1652.03 72.9822L1647.81 68.7139L1631.21 85.1139L1635.43 89.3822ZM1769.84 23.848L1767.71 21.7396L1766.84 22.616V23.848H1769.84ZM1769.84 87.248H1766.84V90.248H1769.84V87.248ZM1929.84 87.248H1932.84V84.248H1929.84V87.248ZM1929.84 127.248V130.248H1932.84V127.248H1929.84ZM1729.84 127.248H1726.84V130.248H1729.84V127.248ZM1729.84 7.24804L1727.72 5.12672L1726.84 6.0054V7.24804H1729.84ZM1769.84 -32.752V-35.752H1768.6L1767.72 -34.8733L1769.84 -32.752ZM1929.84 -32.752H1932.84V-35.752H1929.84V-32.752ZM1929.84 7.24804V10.248H1932.84V7.24804H1929.84ZM1786.24 7.24804V4.24804H1784.99L1784.11 5.13962L1786.24 7.24804ZM1766.84 23.848V87.248H1772.84V23.848H1766.84ZM1769.84 90.248H1929.84V84.248H1769.84V90.248ZM1926.84 87.248V127.248H1932.84V87.248H1926.84ZM1929.84 124.248H1729.84V130.248H1929.84V124.248ZM1732.84 127.248V7.24804H1726.84V127.248H1732.84ZM1731.97 9.36936L1771.97 -30.6306L1767.72 -34.8733L1727.72 5.12672L1731.97 9.36936ZM1769.84 -29.752H1929.84V-35.752H1769.84V-29.752ZM1926.84 -32.752V7.24804H1932.84V-32.752H1926.84ZM1929.84 4.24804H1786.24V10.248H1929.84V4.24804ZM1784.11 5.13962L1767.71 21.7396L1771.98 25.9565L1788.38 9.35647L1784.11 5.13962Z" fill="white" fill-opacity="0.1" mask="url(#path-95-outside-1_1_931)"/>
</g>
<defs>
<linearGradient id="paint0_linear_1_931" x1="960" y1="0" x2="960" y2="418" gradientUnits="userSpaceOnUse">
<stop stop-color="#868686" stop-opacity="0.05"/>
<stop offset="1" stop-color="#999999" stop-opacity="0"/>
</linearGradient>
<clipPath id="clip0_1_931">
<rect width="1920" height="418" fill="white" transform="translate(-1 0.248047)"/>
</clipPath>
</defs>
</svg>
