<svg width="1718" height="653" viewBox="0 0 1718 653" fill="none" xmlns="http://www.w3.org/2000/svg">
<mask id="path-1-inside-1_172_577" fill="white">
<path fill-rule="evenodd" clip-rule="evenodd" d="M551 46.5H0V571.814L59.0001 571.5L131 652.5H1271L1343 571.5L1718 573.493V46.5H1167V127.5H551V46.5Z"/>
</mask>
<path fill-rule="evenodd" clip-rule="evenodd" d="M551 46.5H0V571.814L59.0001 571.5L131 652.5H1271L1343 571.5L1718 573.493V46.5H1167V127.5H551V46.5Z" fill="url(#paint0_linear_172_577)" fill-opacity="0.25"/>
<path d="M0 46.5V41.5H-5V46.5H0ZM551 46.5H556V41.5H551V46.5ZM0 571.814H-5V576.84L0.0265706 576.813L0 571.814ZM59.0001 571.5L62.7371 568.178L61.2348 566.488L58.9735 566.5L59.0001 571.5ZM131 652.5L127.263 655.822L128.755 657.5H131V652.5ZM1271 652.5V657.5H1273.25L1274.74 655.822L1271 652.5ZM1343 571.5L1343.03 566.5L1340.77 566.488L1339.26 568.178L1343 571.5ZM1718 573.493L1717.97 578.493L1723 578.519V573.493H1718ZM1718 46.5H1723V41.5H1718V46.5ZM1167 46.5V41.5H1162V46.5H1167ZM1167 127.5V132.5H1172V127.5H1167ZM551 127.5H546V132.5H551V127.5ZM0 51.5H551V41.5H0V51.5ZM5 571.814V46.5H-5V571.814H5ZM58.9735 566.5L-0.0265706 566.814L0.0265706 576.813L59.0266 576.5L58.9735 566.5ZM134.737 649.178L62.7371 568.178L55.263 574.822L127.263 655.822L134.737 649.178ZM1271 647.5H131V657.5H1271V647.5ZM1339.26 568.178L1267.26 649.178L1274.74 655.822L1346.74 574.822L1339.26 568.178ZM1718.03 568.493L1343.03 566.5L1342.97 576.5L1717.97 578.493L1718.03 568.493ZM1713 46.5V573.493H1723V46.5H1713ZM1167 51.5H1718V41.5H1167V51.5ZM1162 46.5V127.5H1172V46.5H1162ZM1167 122.5H551V132.5H1167V122.5ZM556 127.5V46.5H546V127.5H556Z" fill="#FBBD07" mask="url(#path-1-inside-1_172_577)"/>
<mask id="path-3-inside-2_172_577" fill="white">
<path fill-rule="evenodd" clip-rule="evenodd" d="M551 46.5H0V571.814L59.0001 571.5L131 652.5H1271L1343 571.5L1718 573.493V46.5H1167V127.5H551V46.5Z"/>
</mask>
<path fill-rule="evenodd" clip-rule="evenodd" d="M551 46.5H0V571.814L59.0001 571.5L131 652.5H1271L1343 571.5L1718 573.493V46.5H1167V127.5H551V46.5Z" fill="url(#paint1_linear_172_577)" fill-opacity="0.25"/>
<path d="M0 46.5V41.5H-5V46.5H0ZM551 46.5H556V41.5H551V46.5ZM0 571.814H-5V576.84L0.0265706 576.813L0 571.814ZM59.0001 571.5L62.7371 568.178L61.2348 566.488L58.9735 566.5L59.0001 571.5ZM131 652.5L127.263 655.822L128.755 657.5H131V652.5ZM1271 652.5V657.5H1273.25L1274.74 655.822L1271 652.5ZM1343 571.5L1343.03 566.5L1340.77 566.488L1339.26 568.178L1343 571.5ZM1718 573.493L1717.97 578.493L1723 578.519V573.493H1718ZM1718 46.5H1723V41.5H1718V46.5ZM1167 46.5V41.5H1162V46.5H1167ZM1167 127.5V132.5H1172V127.5H1167ZM551 127.5H546V132.5H551V127.5ZM0 51.5H551V41.5H0V51.5ZM5 571.814V46.5H-5V571.814H5ZM58.9735 566.5L-0.0265706 566.814L0.0265706 576.813L59.0266 576.5L58.9735 566.5ZM134.737 649.178L62.7371 568.178L55.263 574.822L127.263 655.822L134.737 649.178ZM1271 647.5H131V657.5H1271V647.5ZM1339.26 568.178L1267.26 649.178L1274.74 655.822L1346.74 574.822L1339.26 568.178ZM1718.03 568.493L1343.03 566.5L1342.97 576.5L1717.97 578.493L1718.03 568.493ZM1713 46.5V573.493H1723V46.5H1713ZM1167 51.5H1718V41.5H1167V51.5ZM1162 46.5V127.5H1172V46.5H1162ZM1167 122.5H551V132.5H1167V122.5ZM556 127.5V46.5H546V127.5H556Z" fill="#FBBD07" mask="url(#path-3-inside-2_172_577)"/>
<path fill-rule="evenodd" clip-rule="evenodd" d="M612.5 0.5H1104.5L1150.5 46.5L1151 46V113.5H567V46L612.5 0.5ZM801.5 35.5H761.5L751.5 45.5V75.5H801.5V60.5L791.5 50.5H766.5V60.5H787.35L791.5 64.65V65.5H761.5V49.65L765.6 45.5H801.5V35.5ZM856.48 35.5H816.48L806.48 45.5V75.5H846.48L856.48 65.5V35.5ZM846.48 45.5V61.4L842.33 65.5H816.48V49.65L820.58 45.5H846.48ZM911.461 65.5H885.561L878.511 58.45L871.461 51.4V35.5H861.461V55.5L881.461 75.5H911.461V65.5ZM966.441 35.5H916.441V75.5H956.441L966.441 65.5V35.5ZM956.441 45.5V61.4L952.291 65.5H926.441V45.5H956.441Z" fill="url(#paint2_linear_172_577)"/>
<defs>
<linearGradient id="paint0_linear_172_577" x1="859" y1="46.5" x2="859" y2="652.5" gradientUnits="userSpaceOnUse">
<stop stop-color="#FDCF49" stop-opacity="0.25"/>
<stop offset="1" stop-color="#FDCF47" stop-opacity="0.05"/>
</linearGradient>
<linearGradient id="paint1_linear_172_577" x1="859" y1="46.5" x2="859" y2="652.5" gradientUnits="userSpaceOnUse">
<stop stop-color="#FDCF49" stop-opacity="0.25"/>
<stop offset="1" stop-color="#FDCF47" stop-opacity="0.05"/>
</linearGradient>
<linearGradient id="paint2_linear_172_577" x1="859" y1="0.5" x2="859" y2="113.5" gradientUnits="userSpaceOnUse">
<stop stop-color="#FFE28E"/>
<stop offset="1" stop-color="#FBBD07"/>
</linearGradient>
</defs>
</svg>
