<svg width="112" height="111" viewBox="0 0 112 111" fill="none" xmlns="http://www.w3.org/2000/svg">
<path d="M4.56272 22.1274C1.9609 19.7117 0.666992 16.7216 0.666992 13.1638C0.666992 9.606 1.96782 6.48418 4.56272 4.06157C7.16453 1.64587 10.5137 0.43457 14.6171 0.43457C18.7205 0.43457 21.9382 1.64587 24.5331 4.06157C27.1349 6.47726 28.4288 9.51602 28.4288 13.1638C28.4288 16.8116 27.128 19.7117 24.5331 22.1274C21.9313 24.5431 18.6305 25.7544 14.6171 25.7544C10.6037 25.7544 7.16453 24.5431 4.56272 22.1274ZM26.2423 35.9848V110.048H2.84664V35.9848H26.2423Z" fill="#4285F4"/>
<path d="M104.123 43.3012C109.223 48.8386 111.77 56.4389 111.77 66.1155V108.74H89.5507V69.1194C89.5507 64.2396 88.2844 60.4465 85.7587 57.747C83.233 55.0475 79.8285 53.6908 75.5659 53.6908C71.3034 53.6908 67.8987 55.0406 65.373 57.747C62.8473 60.4465 61.581 64.2396 61.581 69.1194V108.74H39.2305V35.7774H61.581V45.454C63.8438 42.2284 66.8955 39.6812 70.7291 37.8054C74.5626 35.9296 78.8735 34.9951 83.6689 34.9951C92.2079 34.9951 99.0306 37.7638 104.123 43.3012Z" fill="#4285F4"/>
</svg>
