<svg width="19" height="21" viewBox="0 0 19 21" fill="none" xmlns="http://www.w3.org/2000/svg">
<path d="M9.48633 13.8997V15.8997M3.48633 19.8997H15.4863C16.0168 19.8997 16.5255 19.6889 16.9005 19.3139C17.2756 18.9388 17.4863 18.4301 17.4863 17.8997V11.8997C17.4863 11.3692 17.2756 10.8605 16.9005 10.4854C16.5255 10.1104 16.0168 9.89966 15.4863 9.89966H3.48633C2.9559 9.89966 2.44719 10.1104 2.07211 10.4854C1.69704 10.8605 1.48633 11.3692 1.48633 11.8997V17.8997C1.48633 18.4301 1.69704 18.9388 2.07211 19.3139C2.44719 19.6889 2.9559 19.8997 3.48633 19.8997ZM13.4863 9.89966V5.89966C13.4863 4.83879 13.0649 3.82138 12.3148 3.07123C11.5646 2.32109 10.5472 1.89966 9.48633 1.89966C8.42546 1.89966 7.40805 2.32109 6.6579 3.07123C5.90776 3.82138 5.48633 4.83879 5.48633 5.89966V9.89966H13.4863Z" stroke="#F84335" stroke-width="2" stroke-linecap="round" stroke-linejoin="round"/>
</svg>
