<svg width="618" height="220" viewBox="0 0 618 170" fill="none" xmlns="http://www.w3.org/2000/svg">
<g filter="url(#filter0_bd_3_68)">
<rect width="78.6515" height="26.8969" rx="13.4485" transform="matrix(-0.86881 0.495146 0.495146 0.86881 293.333 6)" fill="#EF5350" fill-opacity="0.1"  />
<rect x="-0.560495" y="2.04593" width="75.6515" height="23.8969" rx="11.9485" transform="matrix(-0.86881 0.495146 0.495146 0.86881 291.273 6.54593)" stroke="#EF5350" stroke-width="3"  />
</g>
<g filter="url(#filter1_bd_3_68)">
<rect width="78.6515" height="26.8969" rx="13.4485" transform="matrix(-0.86881 0.495146 0.495146 0.86881 381.264 31.6877)" fill="#FBBC04" fill-opacity="0.1"  />
<rect x="-0.560495" y="2.04593" width="75.6515" height="23.8969" rx="11.9485" transform="matrix(-0.86881 0.495146 0.495146 0.86881 379.204 32.2336)" stroke="#FBBC04" stroke-width="3"  />
</g>
<g filter="url(#filter2_bd_3_68)">
<rect x="238.318" y="31.6877" width="78.6515" height="26.8969" rx="13.4485" transform="rotate(29.6794 238.318 31.6877)" fill="#4285F4" fill-opacity="0.1"  />
<rect x="238.878" y="33.7336" width="75.6515" height="23.8969" rx="11.9485" transform="rotate(29.6794 238.878 33.7336)" stroke="#4285F4" stroke-width="3"  />
</g>
<g filter="url(#filter3_bd_3_68)">
<path d="M387.923 56.6281C384.245 63.0811 376.033 65.3309 369.58 61.6533L324.615 36.0272C318.162 32.3496 315.912 24.1371 319.59 17.6841C323.268 11.2311 331.48 8.98128 337.933 12.6589L382.898 38.285C389.351 41.9627 391.601 50.1751 387.923 56.6281Z" fill="#4CAF50" fill-opacity="0.1"  />
<path d="M386.62 55.8854C383.352 61.6186 376.056 63.6175 370.323 60.3501L325.358 34.724C319.625 31.4565 317.626 24.1601 320.893 18.4268C324.161 12.6936 331.457 10.6947 337.19 13.9621L382.155 39.5882C387.888 42.8557 389.887 50.1522 386.62 55.8854Z" stroke="#4CAF50" stroke-width="3"  />
</g>
<g filter="url(#filter4_dd_3_68)">
<path d="M82.673 157.43C80.4943 157.43 78.459 157.043 76.567 156.269C74.675 155.466 73.0123 154.363 71.579 152.958C70.1457 151.553 69.0277 149.919 68.225 148.056C67.451 146.164 67.064 144.129 67.064 141.95C67.064 139.8 67.451 137.793 68.225 135.93C69.0277 134.067 70.1313 132.447 71.536 131.071C72.9693 129.666 74.632 128.577 76.524 127.803C78.416 127.029 80.4513 126.642 82.63 126.642C84.1493 126.642 85.6257 126.857 87.059 127.287C88.521 127.717 89.8397 128.319 91.015 129.093C92.1903 129.867 93.1507 130.756 93.896 131.759L90.886 134.898C90.026 134.067 89.1373 133.379 88.22 132.834C87.3313 132.289 86.414 131.874 85.468 131.587C84.522 131.3 83.576 131.157 82.63 131.157C81.082 131.157 79.6487 131.429 78.33 131.974C77.04 132.519 75.8933 133.278 74.89 134.253C73.9153 135.228 73.1557 136.374 72.611 137.693C72.0663 138.983 71.794 140.402 71.794 141.95C71.794 143.441 72.0807 144.86 72.654 146.207C73.2273 147.526 74.0157 148.687 75.019 149.69C76.051 150.693 77.2263 151.482 78.545 152.055C79.8923 152.628 81.3113 152.915 82.802 152.915C83.92 152.915 84.9807 152.757 85.984 152.442C86.9873 152.098 87.876 151.625 88.65 151.023C89.424 150.421 90.026 149.733 90.456 148.959C90.886 148.156 91.101 147.311 91.101 146.422V145.562L91.746 146.164H82.544V141.563H95.874C95.9313 141.878 95.9743 142.194 96.003 142.509C96.0317 142.796 96.046 143.082 96.046 143.369C96.0747 143.627 96.089 143.885 96.089 144.143C96.089 146.121 95.745 147.927 95.057 149.561C94.369 151.166 93.4087 152.557 92.176 153.732C90.972 154.907 89.553 155.825 87.919 156.484C86.3137 157.115 84.565 157.43 82.673 157.43ZM109.016 157.43C106.809 157.43 104.831 156.928 103.082 155.925C101.362 154.893 100 153.503 98.9969 151.754C97.9935 149.977 97.4919 147.956 97.4919 145.691C97.4919 143.426 97.9935 141.42 98.9969 139.671C100 137.894 101.362 136.503 103.082 135.5C104.831 134.468 106.809 133.952 109.016 133.952C111.195 133.952 113.144 134.468 114.864 135.5C116.613 136.503 117.989 137.894 118.992 139.671C119.995 141.42 120.497 143.426 120.497 145.691C120.497 147.956 119.995 149.977 118.992 151.754C117.989 153.503 116.613 154.893 114.864 155.925C113.144 156.928 111.195 157.43 109.016 157.43ZM109.016 153.388C110.363 153.388 111.567 153.058 112.628 152.399C113.689 151.711 114.52 150.794 115.122 149.647C115.724 148.472 116.011 147.153 115.982 145.691C116.011 144.2 115.724 142.882 115.122 141.735C114.52 140.56 113.689 139.642 112.628 138.983C111.567 138.324 110.363 137.994 109.016 137.994C107.669 137.994 106.45 138.338 105.361 139.026C104.3 139.685 103.469 140.603 102.867 141.778C102.265 142.925 101.978 144.229 102.007 145.691C101.978 147.153 102.265 148.472 102.867 149.647C103.469 150.794 104.3 151.711 105.361 152.399C106.45 153.058 107.669 153.388 109.016 153.388ZM133.321 157.43C131.114 157.43 129.136 156.928 127.387 155.925C125.667 154.893 124.305 153.503 123.302 151.754C122.299 149.977 121.797 147.956 121.797 145.691C121.797 143.426 122.299 141.42 123.302 139.671C124.305 137.894 125.667 136.503 127.387 135.5C129.136 134.468 131.114 133.952 133.321 133.952C135.5 133.952 137.449 134.468 139.169 135.5C140.918 136.503 142.294 137.894 143.297 139.671C144.3 141.42 144.802 143.426 144.802 145.691C144.802 147.956 144.3 149.977 143.297 151.754C142.294 153.503 140.918 154.893 139.169 155.925C137.449 156.928 135.5 157.43 133.321 157.43ZM133.321 153.388C134.668 153.388 135.872 153.058 136.933 152.399C137.994 151.711 138.825 150.794 139.427 149.647C140.029 148.472 140.316 147.153 140.287 145.691C140.316 144.2 140.029 142.882 139.427 141.735C138.825 140.56 137.994 139.642 136.933 138.983C135.872 138.324 134.668 137.994 133.321 137.994C131.974 137.994 130.755 138.338 129.666 139.026C128.605 139.685 127.774 140.603 127.172 141.778C126.57 142.925 126.283 144.229 126.312 145.691C126.283 147.153 126.57 148.472 127.172 149.647C127.774 150.794 128.605 151.711 129.666 152.399C130.755 153.058 131.974 153.388 133.321 153.388ZM157.583 166.89C155.978 166.89 154.372 166.632 152.767 166.116C151.19 165.629 149.915 164.984 148.94 164.181L150.574 160.741C151.147 161.171 151.821 161.544 152.595 161.859C153.369 162.203 154.186 162.461 155.046 162.633C155.906 162.834 156.752 162.934 157.583 162.934C159.16 162.934 160.478 162.676 161.539 162.16C162.6 161.644 163.402 160.884 163.947 159.881C164.492 158.878 164.764 157.631 164.764 156.14V151.797L165.237 152.098C165.094 152.987 164.621 153.847 163.818 154.678C163.044 155.481 162.069 156.14 160.894 156.656C159.719 157.172 158.515 157.43 157.282 157.43C155.132 157.43 153.211 156.928 151.52 155.925C149.857 154.893 148.539 153.503 147.564 151.754C146.589 149.977 146.102 147.956 146.102 145.691C146.102 143.426 146.575 141.42 147.521 139.671C148.496 137.894 149.814 136.503 151.477 135.5C153.168 134.468 155.06 133.952 157.153 133.952C158.013 133.952 158.844 134.067 159.647 134.296C160.45 134.497 161.195 134.798 161.883 135.199C162.571 135.572 163.187 135.987 163.732 136.446C164.277 136.905 164.721 137.392 165.065 137.908C165.409 138.424 165.624 138.911 165.71 139.37L164.764 139.714V134.425H169.193V155.624C169.193 157.43 168.921 159.021 168.376 160.397C167.86 161.802 167.1 162.977 166.097 163.923C165.094 164.898 163.875 165.629 162.442 166.116C161.009 166.632 159.389 166.89 157.583 166.89ZM157.755 153.345C159.16 153.345 160.407 153.015 161.496 152.356C162.585 151.697 163.431 150.794 164.033 149.647C164.635 148.5 164.936 147.182 164.936 145.691C164.936 144.2 164.621 142.882 163.99 141.735C163.388 140.56 162.542 139.642 161.453 138.983C160.392 138.324 159.16 137.994 157.755 137.994C156.379 137.994 155.146 138.338 154.057 139.026C152.996 139.685 152.151 140.603 151.52 141.778C150.918 142.925 150.617 144.229 150.617 145.691C150.617 147.153 150.918 148.472 151.52 149.647C152.151 150.794 152.996 151.697 154.057 152.356C155.146 153.015 156.379 153.345 157.755 153.345ZM173.339 157V125.18H177.768V157H173.339ZM192.01 157.43C189.688 157.43 187.624 156.943 185.818 155.968C184.041 154.965 182.636 153.603 181.604 151.883C180.601 150.163 180.099 148.185 180.099 145.949C180.099 144.172 180.386 142.552 180.959 141.09C181.532 139.628 182.321 138.367 183.324 137.306C184.356 136.217 185.574 135.385 186.979 134.812C188.412 134.21 189.96 133.909 191.623 133.909C193.085 133.909 194.447 134.196 195.708 134.769C196.969 135.314 198.059 136.073 198.976 137.048C199.922 138.023 200.639 139.184 201.126 140.531C201.642 141.85 201.886 143.297 201.857 144.874L201.814 146.766H183.367L182.378 143.24H197.987L197.342 143.971V142.939C197.256 141.993 196.941 141.147 196.396 140.402C195.851 139.657 195.163 139.069 194.332 138.639C193.501 138.209 192.598 137.994 191.623 137.994C190.075 137.994 188.771 138.295 187.71 138.897C186.649 139.47 185.847 140.33 185.302 141.477C184.757 142.595 184.485 143.985 184.485 145.648C184.485 147.225 184.815 148.601 185.474 149.776C186.133 150.923 187.065 151.811 188.269 152.442C189.473 153.073 190.863 153.388 192.44 153.388C193.558 153.388 194.59 153.202 195.536 152.829C196.511 152.456 197.557 151.783 198.675 150.808L200.911 153.947C200.223 154.635 199.377 155.237 198.374 155.753C197.399 156.269 196.353 156.685 195.235 157C194.146 157.287 193.071 157.43 192.01 157.43ZM215.54 157V126.9H227.322C229.472 126.9 231.407 127.258 233.127 127.975C234.876 128.692 236.366 129.724 237.599 131.071C238.832 132.418 239.778 134.009 240.437 135.844C241.096 137.679 241.426 139.714 241.426 141.95C241.426 144.186 241.096 146.236 240.437 148.099C239.778 149.934 238.832 151.525 237.599 152.872C236.395 154.191 234.919 155.208 233.17 155.925C231.421 156.642 229.472 157 227.322 157H215.54ZM220.184 153.001L220.055 152.528H227.107C228.626 152.528 229.974 152.284 231.149 151.797C232.353 151.31 233.356 150.622 234.159 149.733C234.99 148.816 235.621 147.698 236.051 146.379C236.481 145.06 236.696 143.584 236.696 141.95C236.696 140.316 236.481 138.854 236.051 137.564C235.621 136.245 234.99 135.127 234.159 134.21C233.328 133.293 232.324 132.59 231.149 132.103C229.974 131.616 228.626 131.372 227.107 131.372H219.926L220.184 130.985V153.001ZM254.973 157.43C252.651 157.43 250.587 156.943 248.781 155.968C247.004 154.965 245.599 153.603 244.567 151.883C243.564 150.163 243.062 148.185 243.062 145.949C243.062 144.172 243.349 142.552 243.922 141.09C244.495 139.628 245.284 138.367 246.287 137.306C247.319 136.217 248.537 135.385 249.942 134.812C251.375 134.21 252.923 133.909 254.586 133.909C256.048 133.909 257.41 134.196 258.671 134.769C259.932 135.314 261.022 136.073 261.939 137.048C262.885 138.023 263.602 139.184 264.089 140.531C264.605 141.85 264.849 143.297 264.82 144.874L264.777 146.766H246.33L245.341 143.24H260.95L260.305 143.971V142.939C260.219 141.993 259.904 141.147 259.359 140.402C258.814 139.657 258.126 139.069 257.295 138.639C256.464 138.209 255.561 137.994 254.586 137.994C253.038 137.994 251.734 138.295 250.673 138.897C249.612 139.47 248.81 140.33 248.265 141.477C247.72 142.595 247.448 143.985 247.448 145.648C247.448 147.225 247.778 148.601 248.437 149.776C249.096 150.923 250.028 151.811 251.232 152.442C252.436 153.073 253.826 153.388 255.403 153.388C256.521 153.388 257.553 153.202 258.499 152.829C259.474 152.456 260.52 151.783 261.638 150.808L263.874 153.947C263.186 154.635 262.34 155.237 261.337 155.753C260.362 156.269 259.316 156.685 258.198 157C257.109 157.287 256.034 157.43 254.973 157.43ZM274.459 157L264.913 134.425H269.686L276.566 151.324L275.749 151.711L283.102 134.425H287.66L277.641 157H274.459ZM299.468 157.43C297.146 157.43 295.082 156.943 293.276 155.968C291.499 154.965 290.094 153.603 289.062 151.883C288.059 150.163 287.557 148.185 287.557 145.949C287.557 144.172 287.844 142.552 288.417 141.09C288.99 139.628 289.779 138.367 290.782 137.306C291.814 136.217 293.032 135.385 294.437 134.812C295.87 134.21 297.418 133.909 299.081 133.909C300.543 133.909 301.905 134.196 303.166 134.769C304.427 135.314 305.517 136.073 306.434 137.048C307.38 138.023 308.097 139.184 308.584 140.531C309.1 141.85 309.344 143.297 309.315 144.874L309.272 146.766H290.825L289.836 143.24H305.445L304.8 143.971V142.939C304.714 141.993 304.399 141.147 303.854 140.402C303.309 139.657 302.621 139.069 301.79 138.639C300.959 138.209 300.056 137.994 299.081 137.994C297.533 137.994 296.229 138.295 295.168 138.897C294.107 139.47 293.305 140.33 292.76 141.477C292.215 142.595 291.943 143.985 291.943 145.648C291.943 147.225 292.273 148.601 292.932 149.776C293.591 150.923 294.523 151.811 295.727 152.442C296.931 153.073 298.321 153.388 299.898 153.388C301.016 153.388 302.048 153.202 302.994 152.829C303.969 152.456 305.015 151.783 306.133 150.808L308.369 153.947C307.681 154.635 306.835 155.237 305.832 155.753C304.857 156.269 303.811 156.685 302.693 157C301.604 157.287 300.529 157.43 299.468 157.43ZM312.064 157V125.18H316.493V157H312.064ZM330.348 157.43C328.141 157.43 326.163 156.928 324.414 155.925C322.694 154.893 321.333 153.503 320.329 151.754C319.326 149.977 318.824 147.956 318.824 145.691C318.824 143.426 319.326 141.42 320.329 139.671C321.333 137.894 322.694 136.503 324.414 135.5C326.163 134.468 328.141 133.952 330.348 133.952C332.527 133.952 334.476 134.468 336.196 135.5C337.945 136.503 339.321 137.894 340.324 139.671C341.328 141.42 341.829 143.426 341.829 145.691C341.829 147.956 341.328 149.977 340.324 151.754C339.321 153.503 337.945 154.893 336.196 155.925C334.476 156.928 332.527 157.43 330.348 157.43ZM330.348 153.388C331.696 153.388 332.9 153.058 333.96 152.399C335.021 151.711 335.852 150.794 336.454 149.647C337.056 148.472 337.343 147.153 337.314 145.691C337.343 144.2 337.056 142.882 336.454 141.735C335.852 140.56 335.021 139.642 333.96 138.983C332.9 138.324 331.696 137.994 330.348 137.994C329.001 137.994 327.783 138.338 326.693 139.026C325.633 139.685 324.801 140.603 324.199 141.778C323.597 142.925 323.311 144.229 323.339 145.691C323.311 147.153 323.597 148.472 324.199 149.647C324.801 150.794 325.633 151.711 326.693 152.399C327.783 153.058 329.001 153.388 330.348 153.388ZM344.505 166.46V134.425H348.977V139.585L348.289 139.198C348.461 138.338 348.949 137.521 349.751 136.747C350.554 135.944 351.529 135.299 352.675 134.812C353.851 134.296 355.055 134.038 356.287 134.038C358.323 134.038 360.129 134.54 361.705 135.543C363.282 136.546 364.529 137.922 365.446 139.671C366.364 141.42 366.822 143.426 366.822 145.691C366.822 147.927 366.364 149.934 365.446 151.711C364.558 153.46 363.325 154.85 361.748 155.882C360.172 156.885 358.394 157.387 356.416 157.387C355.098 157.387 353.822 157.129 352.589 156.613C351.357 156.068 350.31 155.38 349.45 154.549C348.59 153.718 348.06 152.858 347.859 151.969L348.977 151.367V166.46H344.505ZM355.685 153.302C357.004 153.302 358.179 152.972 359.211 152.313C360.243 151.654 361.06 150.751 361.662 149.604C362.264 148.457 362.565 147.153 362.565 145.691C362.565 144.229 362.264 142.939 361.662 141.821C361.089 140.674 360.286 139.771 359.254 139.112C358.222 138.453 357.033 138.123 355.685 138.123C354.338 138.123 353.148 138.453 352.116 139.112C351.084 139.743 350.267 140.631 349.665 141.778C349.063 142.925 348.762 144.229 348.762 145.691C348.762 147.153 349.063 148.457 349.665 149.604C350.267 150.751 351.084 151.654 352.116 152.313C353.148 152.972 354.338 153.302 355.685 153.302ZM380.017 157.43C377.695 157.43 375.631 156.943 373.825 155.968C372.048 154.965 370.643 153.603 369.611 151.883C368.608 150.163 368.106 148.185 368.106 145.949C368.106 144.172 368.393 142.552 368.966 141.09C369.54 139.628 370.328 138.367 371.331 137.306C372.363 136.217 373.582 135.385 374.986 134.812C376.42 134.21 377.968 133.909 379.63 133.909C381.092 133.909 382.454 134.196 383.715 134.769C384.977 135.314 386.066 136.073 386.983 137.048C387.929 138.023 388.646 139.184 389.133 140.531C389.649 141.85 389.893 143.297 389.864 144.874L389.821 146.766H371.374L370.385 143.24H385.994L385.349 143.971V142.939C385.263 141.993 384.948 141.147 384.403 140.402C383.859 139.657 383.171 139.069 382.339 138.639C381.508 138.209 380.605 137.994 379.63 137.994C378.082 137.994 376.778 138.295 375.717 138.897C374.657 139.47 373.854 140.33 373.309 141.477C372.765 142.595 372.492 143.985 372.492 145.648C372.492 147.225 372.822 148.601 373.481 149.776C374.141 150.923 375.072 151.811 376.276 152.442C377.48 153.073 378.871 153.388 380.447 153.388C381.565 153.388 382.597 153.202 383.543 152.829C384.518 152.456 385.564 151.783 386.682 150.808L388.918 153.947C388.23 154.635 387.385 155.237 386.381 155.753C385.407 156.269 384.36 156.685 383.242 157C382.153 157.287 381.078 157.43 380.017 157.43ZM392.528 157V134.425H397V141.52L396.57 139.8C396.885 138.711 397.415 137.722 398.161 136.833C398.935 135.944 399.809 135.242 400.784 134.726C401.787 134.21 402.819 133.952 403.88 133.952C404.367 133.952 404.826 133.995 405.256 134.081C405.714 134.167 406.073 134.267 406.331 134.382L405.17 139.198C404.826 139.055 404.439 138.94 404.009 138.854C403.607 138.739 403.206 138.682 402.805 138.682C402.031 138.682 401.285 138.84 400.569 139.155C399.881 139.442 399.264 139.857 398.72 140.402C398.204 140.918 397.788 141.534 397.473 142.251C397.157 142.939 397 143.699 397 144.53V157H392.528ZM432.199 157.43C430.021 157.43 427.985 157.043 426.093 156.269C424.201 155.466 422.539 154.363 421.105 152.958C419.672 151.553 418.554 149.919 417.751 148.056C416.977 146.164 416.59 144.129 416.59 141.95C416.59 139.8 416.977 137.793 417.751 135.93C418.554 134.067 419.658 132.447 421.062 131.071C422.496 129.666 424.158 128.577 426.05 127.803C427.942 127.029 429.978 126.642 432.156 126.642C433.676 126.642 435.152 126.857 436.585 127.287C438.047 127.717 439.366 128.319 440.541 129.093C441.717 129.867 442.677 130.756 443.422 131.759L440.412 134.898C439.552 134.067 438.664 133.379 437.746 132.834C436.858 132.289 435.94 131.874 434.994 131.587C434.048 131.3 433.102 131.157 432.156 131.157C430.608 131.157 429.175 131.429 427.856 131.974C426.566 132.519 425.42 133.278 424.416 134.253C423.442 135.228 422.682 136.374 422.137 137.693C421.593 138.983 421.32 140.402 421.32 141.95C421.32 143.441 421.607 144.86 422.18 146.207C422.754 147.526 423.542 148.687 424.545 149.69C425.577 150.693 426.753 151.482 428.071 152.055C429.419 152.628 430.838 152.915 432.328 152.915C433.446 152.915 434.507 152.757 435.51 152.442C436.514 152.098 437.402 151.625 438.176 151.023C438.95 150.421 439.552 149.733 439.982 148.959C440.412 148.156 440.627 147.311 440.627 146.422V145.562L441.272 146.164H432.07V141.563H445.4C445.458 141.878 445.501 142.194 445.529 142.509C445.558 142.796 445.572 143.082 445.572 143.369C445.601 143.627 445.615 143.885 445.615 144.143C445.615 146.121 445.271 147.927 444.583 149.561C443.895 151.166 442.935 152.557 441.702 153.732C440.498 154.907 439.079 155.825 437.445 156.484C435.84 157.115 434.091 157.43 432.199 157.43ZM448.394 157V134.425H452.866V141.52L452.436 139.8C452.751 138.711 453.282 137.722 454.027 136.833C454.801 135.944 455.675 135.242 456.65 134.726C457.653 134.21 458.685 133.952 459.746 133.952C460.233 133.952 460.692 133.995 461.122 134.081C461.581 134.167 461.939 134.267 462.197 134.382L461.036 139.198C460.692 139.055 460.305 138.94 459.875 138.854C459.474 138.739 459.072 138.682 458.671 138.682C457.897 138.682 457.152 138.84 456.435 139.155C455.747 139.442 455.131 139.857 454.586 140.402C454.07 140.918 453.654 141.534 453.339 142.251C453.024 142.939 452.866 143.699 452.866 144.53V157H448.394ZM472.769 157.43C470.562 157.43 468.584 156.928 466.835 155.925C465.115 154.893 463.753 153.503 462.75 151.754C461.747 149.977 461.245 147.956 461.245 145.691C461.245 143.426 461.747 141.42 462.75 139.671C463.753 137.894 465.115 136.503 466.835 135.5C468.584 134.468 470.562 133.952 472.769 133.952C474.948 133.952 476.897 134.468 478.617 135.5C480.366 136.503 481.742 137.894 482.745 139.671C483.748 141.42 484.25 143.426 484.25 145.691C484.25 147.956 483.748 149.977 482.745 151.754C481.742 153.503 480.366 154.893 478.617 155.925C476.897 156.928 474.948 157.43 472.769 157.43ZM472.769 153.388C474.116 153.388 475.32 153.058 476.381 152.399C477.442 151.711 478.273 150.794 478.875 149.647C479.477 148.472 479.764 147.153 479.735 145.691C479.764 144.2 479.477 142.882 478.875 141.735C478.273 140.56 477.442 139.642 476.381 138.983C475.32 138.324 474.116 137.994 472.769 137.994C471.422 137.994 470.203 138.338 469.114 139.026C468.053 139.685 467.222 140.603 466.62 141.778C466.018 142.925 465.731 144.229 465.76 145.691C465.731 147.153 466.018 148.472 466.62 149.647C467.222 150.794 468.053 151.711 469.114 152.399C470.203 153.058 471.422 153.388 472.769 153.388ZM494.838 157.43C493.233 157.43 491.828 157.057 490.624 156.312C489.449 155.567 488.531 154.52 487.872 153.173C487.241 151.826 486.926 150.22 486.926 148.357V134.425H491.355V147.153C491.355 148.472 491.556 149.618 491.957 150.593C492.387 151.539 492.989 152.27 493.763 152.786C494.566 153.302 495.526 153.56 496.644 153.56C497.475 153.56 498.235 153.431 498.923 153.173C499.611 152.886 500.199 152.499 500.686 152.012C501.202 151.525 501.603 150.937 501.89 150.249C502.177 149.561 502.32 148.816 502.32 148.013V134.425H506.749V157H502.32V152.27L503.094 151.754C502.75 152.815 502.162 153.775 501.331 154.635C500.528 155.495 499.568 156.183 498.45 156.699C497.332 157.186 496.128 157.43 494.838 157.43ZM510.811 166.46V134.425H515.283V139.585L514.595 139.198C514.767 138.338 515.255 137.521 516.057 136.747C516.86 135.944 517.835 135.299 518.981 134.812C520.157 134.296 521.361 134.038 522.593 134.038C524.629 134.038 526.435 134.54 528.011 135.543C529.588 136.546 530.835 137.922 531.752 139.671C532.67 141.42 533.128 143.426 533.128 145.691C533.128 147.927 532.67 149.934 531.752 151.711C530.864 153.46 529.631 154.85 528.054 155.882C526.478 156.885 524.7 157.387 522.722 157.387C521.404 157.387 520.128 157.129 518.895 156.613C517.663 156.068 516.616 155.38 515.756 154.549C514.896 153.718 514.366 152.858 514.165 151.969L515.283 151.367V166.46H510.811ZM521.991 153.302C523.31 153.302 524.485 152.972 525.517 152.313C526.549 151.654 527.366 150.751 527.968 149.604C528.57 148.457 528.871 147.153 528.871 145.691C528.871 144.229 528.57 142.939 527.968 141.821C527.395 140.674 526.592 139.771 525.56 139.112C524.528 138.453 523.339 138.123 521.991 138.123C520.644 138.123 519.454 138.453 518.422 139.112C517.39 139.743 516.573 140.631 515.971 141.778C515.369 142.925 515.068 144.229 515.068 145.691C515.068 147.153 515.369 148.457 515.971 149.604C516.573 150.751 517.39 151.654 518.422 152.313C519.454 152.972 520.644 153.302 521.991 153.302ZM543.313 157.43C541.421 157.43 539.716 157.1 538.196 156.441C536.677 155.782 535.416 154.807 534.412 153.517L537.422 150.937C538.282 151.94 539.214 152.671 540.217 153.13C541.249 153.56 542.41 153.775 543.7 153.775C544.216 153.775 544.689 153.718 545.119 153.603C545.578 153.46 545.965 153.259 546.28 153.001C546.624 152.743 546.882 152.442 547.054 152.098C547.226 151.725 547.312 151.324 547.312 150.894C547.312 150.149 547.04 149.547 546.495 149.088C546.209 148.887 545.75 148.672 545.119 148.443C544.517 148.185 543.729 147.927 542.754 147.669C541.092 147.239 539.73 146.752 538.669 146.207C537.609 145.662 536.792 145.046 536.218 144.358C535.788 143.813 535.473 143.226 535.272 142.595C535.072 141.936 534.971 141.219 534.971 140.445C534.971 139.499 535.172 138.639 535.573 137.865C536.003 137.062 536.577 136.374 537.293 135.801C538.039 135.199 538.899 134.74 539.873 134.425C540.877 134.11 541.937 133.952 543.055 133.952C544.116 133.952 545.162 134.095 546.194 134.382C547.255 134.669 548.23 135.084 549.118 135.629C550.007 136.174 550.752 136.819 551.354 137.564L548.817 140.359C548.273 139.814 547.671 139.341 547.011 138.94C546.381 138.51 545.736 138.18 545.076 137.951C544.417 137.722 543.815 137.607 543.27 137.607C542.668 137.607 542.124 137.664 541.636 137.779C541.149 137.894 540.733 138.066 540.389 138.295C540.074 138.524 539.83 138.811 539.658 139.155C539.486 139.499 539.4 139.886 539.4 140.316C539.429 140.689 539.515 141.047 539.658 141.391C539.83 141.706 540.06 141.979 540.346 142.208C540.662 142.437 541.135 142.681 541.765 142.939C542.396 143.197 543.199 143.441 544.173 143.67C545.607 144.043 546.782 144.458 547.699 144.917C548.645 145.347 549.391 145.849 549.935 146.422C550.509 146.967 550.91 147.597 551.139 148.314C551.369 149.031 551.483 149.833 551.483 150.722C551.483 152.012 551.111 153.173 550.365 154.205C549.649 155.208 548.674 155.997 547.441 156.57C546.209 157.143 544.833 157.43 543.313 157.43Z" fill="white"/>
</g>
<g filter="url(#filter5_dd_3_68)">
<path d="M34.82 188.2C33.8333 188.2 32.92 188.02 32.08 187.66C31.2533 187.3 30.5267 186.8 29.9 186.16C29.2867 185.507 28.8067 184.747 28.46 183.88C28.1267 183 27.96 182.04 27.96 181C27.96 179.96 28.1267 179.007 28.46 178.14C28.8067 177.26 29.2867 176.5 29.9 175.86C30.5267 175.207 31.2533 174.7 32.08 174.34C32.92 173.98 33.8333 173.8 34.82 173.8C35.8067 173.8 36.7133 173.98 37.54 174.34C38.38 174.7 39.1067 175.207 39.72 175.86C40.3467 176.513 40.8267 177.28 41.16 178.16C41.5067 179.027 41.68 179.973 41.68 181C41.68 182.027 41.5067 182.98 41.16 183.86C40.8267 184.727 40.3467 185.487 39.72 186.14C39.1067 186.793 38.38 187.3 37.54 187.66C36.7133 188.02 35.8067 188.2 34.82 188.2ZM34.82 186.1C35.5 186.1 36.12 185.973 36.68 185.72C37.2533 185.467 37.7467 185.113 38.16 184.66C38.5733 184.193 38.8933 183.653 39.12 183.04C39.36 182.413 39.48 181.733 39.48 181C39.48 180.267 39.36 179.593 39.12 178.98C38.8933 178.353 38.5733 177.813 38.16 177.36C37.7467 176.893 37.2533 176.533 36.68 176.28C36.12 176.027 35.5 175.9 34.82 175.9C34.14 175.9 33.5133 176.027 32.94 176.28C32.38 176.533 31.8867 176.887 31.46 177.34C31.0467 177.793 30.7267 178.333 30.5 178.96C30.2733 179.573 30.16 180.253 30.16 181C30.16 181.733 30.2733 182.413 30.5 183.04C30.7267 183.667 31.0467 184.207 31.46 184.66C31.8867 185.113 32.38 185.467 32.94 185.72C33.5133 185.973 34.14 186.1 34.82 186.1ZM43.0845 188V177.5H45.1445V179.66L44.7845 179.9C44.9179 179.433 45.1779 179.007 45.5645 178.62C45.9512 178.22 46.4112 177.9 46.9445 177.66C47.4779 177.407 48.0245 177.28 48.5845 177.28C49.3845 177.28 50.0512 177.44 50.5845 177.76C51.1179 178.067 51.5179 178.54 51.7845 179.18C52.0512 179.82 52.1845 180.627 52.1845 181.6V188H50.1245V181.74C50.1245 181.14 50.0445 180.647 49.8845 180.26C49.7245 179.86 49.4779 179.573 49.1445 179.4C48.8112 179.213 48.3979 179.133 47.9045 179.16C47.5045 179.16 47.1379 179.227 46.8045 179.36C46.4712 179.48 46.1779 179.653 45.9245 179.88C45.6845 180.107 45.4912 180.373 45.3445 180.68C45.2112 180.973 45.1445 181.293 45.1445 181.64V188H44.1245C43.9512 188 43.7779 188 43.6045 188C43.4312 188 43.2579 188 43.0845 188ZM64.7845 188.2C63.8112 188.2 62.9179 188.027 62.1045 187.68C61.2912 187.333 60.5845 186.84 59.9845 186.2C59.3845 185.547 58.9179 184.78 58.5845 183.9C58.2645 183.02 58.1045 182.053 58.1045 181C58.1045 180 58.2779 179.073 58.6245 178.22C58.9845 177.353 59.4779 176.593 60.1045 175.94C60.7312 175.287 61.4579 174.78 62.2845 174.42C63.1112 174.06 64.0045 173.88 64.9645 173.88C65.6445 173.88 66.3045 173.987 66.9445 174.2C67.5979 174.4 68.1845 174.687 68.7045 175.06C69.2379 175.42 69.6712 175.833 70.0045 176.3L68.5645 177.8C68.1779 177.413 67.7845 177.093 67.3845 176.84C66.9979 176.573 66.5979 176.373 66.1845 176.24C65.7845 176.107 65.3779 176.04 64.9645 176.04C64.3112 176.04 63.6979 176.167 63.1245 176.42C62.5645 176.66 62.0712 177 61.6445 177.44C61.2312 177.88 60.9045 178.407 60.6645 179.02C60.4245 179.62 60.3045 180.28 60.3045 181C60.3045 181.76 60.4179 182.453 60.6445 183.08C60.8845 183.693 61.2179 184.22 61.6445 184.66C62.0712 185.1 62.5779 185.44 63.1645 185.68C63.7645 185.907 64.4245 186.02 65.1445 186.02C65.5845 186.02 66.0179 185.96 66.4445 185.84C66.8712 185.72 67.2712 185.547 67.6445 185.32C68.0179 185.093 68.3579 184.827 68.6645 184.52L69.7445 186.28C69.4379 186.64 69.0179 186.967 68.4845 187.26C67.9645 187.553 67.3779 187.787 66.7245 187.96C66.0845 188.12 65.4379 188.2 64.7845 188.2ZM75.1988 188.2C74.3321 188.2 73.5388 187.96 72.8188 187.48C72.1121 187 71.5454 186.347 71.1188 185.52C70.6921 184.693 70.4788 183.76 70.4788 182.72C70.4788 181.667 70.6921 180.733 71.1188 179.92C71.5588 179.093 72.1454 178.447 72.8788 177.98C73.6254 177.513 74.4588 177.28 75.3788 177.28C75.9254 177.28 76.4254 177.36 76.8788 177.52C77.3321 177.68 77.7254 177.907 78.0588 178.2C78.4054 178.48 78.6854 178.807 78.8988 179.18C79.1254 179.553 79.2654 179.953 79.3188 180.38L78.8588 180.22V177.5H80.9388V188H78.8588V185.5L79.3388 185.36C79.2588 185.72 79.0921 186.073 78.8388 186.42C78.5988 186.753 78.2854 187.053 77.8988 187.32C77.5254 187.587 77.1054 187.8 76.6388 187.96C76.1854 188.12 75.7054 188.2 75.1988 188.2ZM75.7388 186.3C76.3654 186.3 76.9188 186.147 77.3988 185.84C77.8788 185.533 78.2521 185.113 78.5188 184.58C78.7988 184.033 78.9388 183.413 78.9388 182.72C78.9388 182.04 78.7988 181.433 78.5188 180.9C78.2521 180.367 77.8788 179.947 77.3988 179.64C76.9188 179.333 76.3654 179.18 75.7388 179.18C75.1254 179.18 74.5788 179.333 74.0988 179.64C73.6321 179.947 73.2588 180.367 72.9788 180.9C72.7121 181.433 72.5788 182.04 72.5788 182.72C72.5788 183.413 72.7121 184.033 72.9788 184.58C73.2588 185.113 73.6321 185.533 74.0988 185.84C74.5788 186.147 75.1254 186.3 75.7388 186.3ZM82.775 188V177.5H84.855V179.74L84.475 179.98C84.5817 179.633 84.7483 179.3 84.975 178.98C85.215 178.66 85.5017 178.38 85.835 178.14C86.1817 177.887 86.5483 177.687 86.935 177.54C87.335 177.393 87.7417 177.32 88.155 177.32C88.755 177.32 89.2817 177.42 89.735 177.62C90.1883 177.82 90.5617 178.12 90.855 178.52C91.1483 178.92 91.3617 179.42 91.495 180.02L91.175 179.94L91.315 179.6C91.4617 179.293 91.6617 179.007 91.915 178.74C92.1817 178.46 92.4817 178.213 92.815 178C93.1483 177.787 93.5017 177.62 93.875 177.5C94.2483 177.38 94.615 177.32 94.975 177.32C95.7617 177.32 96.4083 177.48 96.915 177.8C97.435 178.12 97.8217 178.607 98.075 179.26C98.3417 179.913 98.475 180.727 98.475 181.7V188H96.395V181.82C96.395 181.22 96.315 180.733 96.155 180.36C96.0083 179.973 95.7817 179.687 95.475 179.5C95.1683 179.313 94.775 179.22 94.295 179.22C93.9217 179.22 93.5683 179.287 93.235 179.42C92.915 179.54 92.635 179.713 92.395 179.94C92.155 180.167 91.9683 180.433 91.835 180.74C91.7017 181.033 91.635 181.36 91.635 181.72V188H89.555V181.78C89.555 181.233 89.475 180.773 89.315 180.4C89.155 180.013 88.9217 179.72 88.615 179.52C88.3083 179.32 87.935 179.22 87.495 179.22C87.1217 179.22 86.775 179.287 86.455 179.42C86.135 179.54 85.855 179.713 85.615 179.94C85.375 180.153 85.1883 180.413 85.055 180.72C84.9217 181.013 84.855 181.333 84.855 181.68V188H82.775ZM100.233 192.4V177.5H102.313V179.9L101.993 179.72C102.073 179.32 102.3 178.94 102.673 178.58C103.046 178.207 103.5 177.907 104.033 177.68C104.58 177.44 105.14 177.32 105.713 177.32C106.66 177.32 107.5 177.553 108.233 178.02C108.966 178.487 109.546 179.127 109.973 179.94C110.4 180.753 110.613 181.687 110.613 182.74C110.613 183.78 110.4 184.713 109.973 185.54C109.56 186.353 108.986 187 108.253 187.48C107.52 187.947 106.693 188.18 105.773 188.18C105.16 188.18 104.566 188.06 103.993 187.82C103.42 187.567 102.933 187.247 102.533 186.86C102.133 186.473 101.886 186.073 101.793 185.66L102.313 185.38V192.4H100.233ZM105.433 186.28C106.046 186.28 106.593 186.127 107.073 185.82C107.553 185.513 107.933 185.093 108.213 184.56C108.493 184.027 108.633 183.42 108.633 182.74C108.633 182.06 108.493 181.46 108.213 180.94C107.946 180.407 107.573 179.987 107.093 179.68C106.613 179.373 106.06 179.22 105.433 179.22C104.806 179.22 104.253 179.373 103.773 179.68C103.293 179.973 102.913 180.387 102.633 180.92C102.353 181.453 102.213 182.06 102.213 182.74C102.213 183.42 102.353 184.027 102.633 184.56C102.913 185.093 103.293 185.513 103.773 185.82C104.253 186.127 104.806 186.28 105.433 186.28ZM115.53 188.2C114.783 188.2 114.13 188.027 113.57 187.68C113.023 187.333 112.597 186.847 112.29 186.22C111.997 185.593 111.85 184.847 111.85 183.98V177.5H113.91V183.42C113.91 184.033 114.003 184.567 114.19 185.02C114.39 185.46 114.67 185.8 115.03 186.04C115.403 186.28 115.85 186.4 116.37 186.4C116.757 186.4 117.11 186.34 117.43 186.22C117.75 186.087 118.023 185.907 118.25 185.68C118.49 185.453 118.677 185.18 118.81 184.86C118.943 184.54 119.01 184.193 119.01 183.82V177.5H121.07V188H119.01V185.8L119.37 185.56C119.21 186.053 118.937 186.5 118.55 186.9C118.177 187.3 117.73 187.62 117.21 187.86C116.69 188.087 116.13 188.2 115.53 188.2ZM126.46 188.2C125.58 188.2 124.786 188.047 124.08 187.74C123.373 187.433 122.786 186.98 122.32 186.38L123.72 185.18C124.12 185.647 124.553 185.987 125.02 186.2C125.5 186.4 126.04 186.5 126.64 186.5C126.88 186.5 127.1 186.473 127.3 186.42C127.513 186.353 127.693 186.26 127.84 186.14C128 186.02 128.12 185.88 128.2 185.72C128.28 185.547 128.32 185.36 128.32 185.16C128.32 184.813 128.193 184.533 127.94 184.32C127.806 184.227 127.593 184.127 127.3 184.02C127.02 183.9 126.653 183.78 126.2 183.66C125.426 183.46 124.793 183.233 124.3 182.98C123.806 182.727 123.426 182.44 123.16 182.12C122.96 181.867 122.813 181.593 122.72 181.3C122.626 180.993 122.58 180.66 122.58 180.3C122.58 179.86 122.673 179.46 122.86 179.1C123.06 178.727 123.326 178.407 123.66 178.14C124.006 177.86 124.406 177.647 124.86 177.5C125.326 177.353 125.82 177.28 126.34 177.28C126.833 177.28 127.32 177.347 127.8 177.48C128.293 177.613 128.746 177.807 129.16 178.06C129.573 178.313 129.92 178.613 130.2 178.96L129.02 180.26C128.766 180.007 128.486 179.787 128.18 179.6C127.886 179.4 127.586 179.247 127.28 179.14C126.973 179.033 126.693 178.98 126.44 178.98C126.16 178.98 125.906 179.007 125.68 179.06C125.453 179.113 125.26 179.193 125.1 179.3C124.953 179.407 124.84 179.54 124.76 179.7C124.68 179.86 124.64 180.04 124.64 180.24C124.653 180.413 124.693 180.58 124.76 180.74C124.84 180.887 124.946 181.013 125.08 181.12C125.226 181.227 125.446 181.34 125.74 181.46C126.033 181.58 126.406 181.693 126.86 181.8C127.526 181.973 128.073 182.167 128.5 182.38C128.94 182.58 129.286 182.813 129.54 183.08C129.806 183.333 129.993 183.627 130.1 183.96C130.206 184.293 130.26 184.667 130.26 185.08C130.26 185.68 130.086 186.22 129.74 186.7C129.406 187.167 128.953 187.533 128.38 187.8C127.806 188.067 127.166 188.2 126.46 188.2Z" fill="#609CFF"/>
<path d="M138.155 183.68C137.662 183.68 137.209 183.56 136.795 183.32C136.382 183.08 136.049 182.753 135.795 182.34C135.555 181.927 135.435 181.473 135.435 180.98C135.435 180.473 135.555 180.013 135.795 179.6C136.035 179.187 136.362 178.86 136.775 178.62C137.189 178.367 137.649 178.24 138.155 178.24C138.662 178.24 139.122 178.367 139.535 178.62C139.949 178.86 140.275 179.187 140.515 179.6C140.769 180.013 140.895 180.473 140.895 180.98C140.895 181.473 140.769 181.927 140.515 182.34C140.275 182.753 139.949 183.08 139.535 183.32C139.122 183.56 138.662 183.68 138.155 183.68ZM146.655 188V186H148.915V176H146.655V174H153.335V176H151.075V186H153.335V188H146.655ZM155.206 188V177.5H157.266V179.66L156.906 179.9C157.039 179.433 157.299 179.007 157.686 178.62C158.072 178.22 158.532 177.9 159.066 177.66C159.599 177.407 160.146 177.28 160.706 177.28C161.506 177.28 162.172 177.44 162.706 177.76C163.239 178.067 163.639 178.54 163.906 179.18C164.172 179.82 164.306 180.627 164.306 181.6V188H162.246V181.74C162.246 181.14 162.166 180.647 162.006 180.26C161.846 179.86 161.599 179.573 161.266 179.4C160.932 179.213 160.519 179.133 160.026 179.16C159.626 179.16 159.259 179.227 158.926 179.36C158.592 179.48 158.299 179.653 158.046 179.88C157.806 180.107 157.612 180.373 157.466 180.68C157.332 180.973 157.266 181.293 157.266 181.64V188H156.246C156.072 188 155.899 188 155.726 188C155.552 188 155.379 188 155.206 188ZM170.48 188.2C169.52 188.2 168.66 187.967 167.9 187.5C167.153 187.02 166.56 186.373 166.12 185.56C165.68 184.733 165.46 183.793 165.46 182.74C165.46 181.687 165.673 180.753 166.1 179.94C166.54 179.113 167.133 178.467 167.88 178C168.627 177.52 169.473 177.28 170.42 177.28C170.94 177.28 171.44 177.367 171.92 177.54C172.413 177.7 172.853 177.927 173.24 178.22C173.627 178.5 173.927 178.813 174.14 179.16C174.367 179.493 174.48 179.833 174.48 180.18L173.88 180.22V173.2H175.94V188H173.88V185.5H174.28C174.28 185.82 174.173 186.14 173.96 186.46C173.747 186.767 173.46 187.053 173.1 187.32C172.753 187.587 172.347 187.8 171.88 187.96C171.427 188.12 170.96 188.2 170.48 188.2ZM170.76 186.42C171.387 186.42 171.94 186.26 172.42 185.94C172.9 185.62 173.273 185.187 173.54 184.64C173.82 184.08 173.96 183.447 173.96 182.74C173.96 182.033 173.82 181.407 173.54 180.86C173.273 180.3 172.9 179.86 172.42 179.54C171.94 179.22 171.387 179.06 170.76 179.06C170.133 179.06 169.58 179.22 169.1 179.54C168.62 179.86 168.24 180.3 167.96 180.86C167.693 181.407 167.56 182.033 167.56 182.74C167.56 183.447 167.693 184.08 167.96 184.64C168.24 185.187 168.62 185.62 169.1 185.94C169.58 186.26 170.133 186.42 170.76 186.42ZM178.116 188V177.5H180.176V188H178.116ZM179.116 175.18C178.676 175.18 178.336 175.067 178.096 174.84C177.856 174.613 177.736 174.293 177.736 173.88C177.736 173.493 177.856 173.18 178.096 172.94C178.349 172.7 178.689 172.58 179.116 172.58C179.556 172.58 179.896 172.693 180.136 172.92C180.376 173.147 180.496 173.467 180.496 173.88C180.496 174.267 180.369 174.58 180.116 174.82C179.876 175.06 179.543 175.18 179.116 175.18ZM186.382 188.2C185.516 188.2 184.722 187.96 184.002 187.48C183.296 187 182.729 186.347 182.302 185.52C181.876 184.693 181.662 183.76 181.662 182.72C181.662 181.667 181.876 180.733 182.302 179.92C182.742 179.093 183.329 178.447 184.062 177.98C184.809 177.513 185.642 177.28 186.562 177.28C187.109 177.28 187.609 177.36 188.062 177.52C188.516 177.68 188.909 177.907 189.242 178.2C189.589 178.48 189.869 178.807 190.082 179.18C190.309 179.553 190.449 179.953 190.502 180.38L190.042 180.22V177.5H192.122V188H190.042V185.5L190.522 185.36C190.442 185.72 190.276 186.073 190.022 186.42C189.782 186.753 189.469 187.053 189.082 187.32C188.709 187.587 188.289 187.8 187.822 187.96C187.369 188.12 186.889 188.2 186.382 188.2ZM186.922 186.3C187.549 186.3 188.102 186.147 188.582 185.84C189.062 185.533 189.436 185.113 189.702 184.58C189.982 184.033 190.122 183.413 190.122 182.72C190.122 182.04 189.982 181.433 189.702 180.9C189.436 180.367 189.062 179.947 188.582 179.64C188.102 179.333 187.549 179.18 186.922 179.18C186.309 179.18 185.762 179.333 185.282 179.64C184.816 179.947 184.442 180.367 184.162 180.9C183.896 181.433 183.762 182.04 183.762 182.72C183.762 183.413 183.896 184.033 184.162 184.58C184.442 185.113 184.816 185.533 185.282 185.84C185.762 186.147 186.309 186.3 186.922 186.3ZM193.999 188V177.5H196.059V179.66L195.699 179.9C195.832 179.433 196.092 179.007 196.479 178.62C196.865 178.22 197.325 177.9 197.859 177.66C198.392 177.407 198.939 177.28 199.499 177.28C200.299 177.28 200.965 177.44 201.499 177.76C202.032 178.067 202.432 178.54 202.699 179.18C202.965 179.82 203.099 180.627 203.099 181.6V188H201.039V181.74C201.039 181.14 200.959 180.647 200.799 180.26C200.639 179.86 200.392 179.573 200.059 179.4C199.725 179.213 199.312 179.133 198.819 179.16C198.419 179.16 198.052 179.227 197.719 179.36C197.385 179.48 197.092 179.653 196.839 179.88C196.599 180.107 196.405 180.373 196.259 180.68C196.125 180.973 196.059 181.293 196.059 181.64V188H195.039C194.865 188 194.692 188 194.519 188C194.345 188 194.172 188 193.999 188ZM209.499 188V186H211.759V176H209.499V174H216.179V176H213.919V186H216.179V188H209.499ZM218.049 188V177.5H220.109V179.66L219.749 179.9C219.883 179.433 220.143 179.007 220.529 178.62C220.916 178.22 221.376 177.9 221.909 177.66C222.443 177.407 222.989 177.28 223.549 177.28C224.349 177.28 225.016 177.44 225.549 177.76C226.083 178.067 226.483 178.54 226.749 179.18C227.016 179.82 227.149 180.627 227.149 181.6V188H225.089V181.74C225.089 181.14 225.009 180.647 224.849 180.26C224.689 179.86 224.443 179.573 224.109 179.4C223.776 179.213 223.363 179.133 222.869 179.16C222.469 179.16 222.103 179.227 221.769 179.36C221.436 179.48 221.143 179.653 220.889 179.88C220.649 180.107 220.456 180.373 220.309 180.68C220.176 180.973 220.109 181.293 220.109 181.64V188H219.089C218.916 188 218.743 188 218.569 188C218.396 188 218.223 188 218.049 188ZM232.444 188.2C231.564 188.2 230.771 188.047 230.064 187.74C229.357 187.433 228.771 186.98 228.304 186.38L229.704 185.18C230.104 185.647 230.537 185.987 231.004 186.2C231.484 186.4 232.024 186.5 232.624 186.5C232.864 186.5 233.084 186.473 233.284 186.42C233.497 186.353 233.677 186.26 233.824 186.14C233.984 186.02 234.104 185.88 234.184 185.72C234.264 185.547 234.304 185.36 234.304 185.16C234.304 184.813 234.177 184.533 233.924 184.32C233.791 184.227 233.577 184.127 233.284 184.02C233.004 183.9 232.637 183.78 232.184 183.66C231.411 183.46 230.777 183.233 230.284 182.98C229.791 182.727 229.411 182.44 229.144 182.12C228.944 181.867 228.797 181.593 228.704 181.3C228.611 180.993 228.564 180.66 228.564 180.3C228.564 179.86 228.657 179.46 228.844 179.1C229.044 178.727 229.311 178.407 229.644 178.14C229.991 177.86 230.391 177.647 230.844 177.5C231.311 177.353 231.804 177.28 232.324 177.28C232.817 177.28 233.304 177.347 233.784 177.48C234.277 177.613 234.731 177.807 235.144 178.06C235.557 178.313 235.904 178.613 236.184 178.96L235.004 180.26C234.751 180.007 234.471 179.787 234.164 179.6C233.871 179.4 233.571 179.247 233.264 179.14C232.957 179.033 232.677 178.98 232.424 178.98C232.144 178.98 231.891 179.007 231.664 179.06C231.437 179.113 231.244 179.193 231.084 179.3C230.937 179.407 230.824 179.54 230.744 179.7C230.664 179.86 230.624 180.04 230.624 180.24C230.637 180.413 230.677 180.58 230.744 180.74C230.824 180.887 230.931 181.013 231.064 181.12C231.211 181.227 231.431 181.34 231.724 181.46C232.017 181.58 232.391 181.693 232.844 181.8C233.511 181.973 234.057 182.167 234.484 182.38C234.924 182.58 235.271 182.813 235.524 183.08C235.791 183.333 235.977 183.627 236.084 183.96C236.191 184.293 236.244 184.667 236.244 185.08C236.244 185.68 236.071 186.22 235.724 186.7C235.391 187.167 234.937 187.533 234.364 187.8C233.791 188.067 233.151 188.2 232.444 188.2ZM238.814 188V174.82H240.874V188H238.814ZM236.634 179.5V177.5H243.314V179.5H236.634ZM244.53 188V177.5H246.59V188H244.53ZM245.53 175.18C245.09 175.18 244.75 175.067 244.51 174.84C244.27 174.613 244.15 174.293 244.15 173.88C244.15 173.493 244.27 173.18 244.51 172.94C244.763 172.7 245.103 172.58 245.53 172.58C245.97 172.58 246.31 172.693 246.55 172.92C246.79 173.147 246.91 173.467 246.91 173.88C246.91 174.267 246.783 174.58 246.53 174.82C246.29 175.06 245.957 175.18 245.53 175.18ZM250.056 188V174.82H252.116V188H250.056ZM247.876 179.5V177.5H254.556V179.5H247.876ZM259.112 188.2C258.366 188.2 257.712 188.027 257.152 187.68C256.606 187.333 256.179 186.847 255.872 186.22C255.579 185.593 255.432 184.847 255.432 183.98V177.5H257.492V183.42C257.492 184.033 257.586 184.567 257.772 185.02C257.972 185.46 258.252 185.8 258.612 186.04C258.986 186.28 259.432 186.4 259.952 186.4C260.339 186.4 260.692 186.34 261.012 186.22C261.332 186.087 261.606 185.907 261.832 185.68C262.072 185.453 262.259 185.18 262.392 184.86C262.526 184.54 262.592 184.193 262.592 183.82V177.5H264.652V188H262.592V185.8L262.952 185.56C262.792 186.053 262.519 186.5 262.132 186.9C261.759 187.3 261.312 187.62 260.792 187.86C260.272 188.087 259.712 188.2 259.112 188.2ZM267.842 188V174.82H269.902V188H267.842ZM265.662 179.5V177.5H272.342V179.5H265.662ZM278.02 188.2C276.94 188.2 275.98 187.973 275.14 187.52C274.313 187.053 273.66 186.42 273.18 185.62C272.713 184.82 272.48 183.9 272.48 182.86C272.48 182.033 272.613 181.28 272.88 180.6C273.146 179.92 273.513 179.333 273.98 178.84C274.46 178.333 275.026 177.947 275.68 177.68C276.346 177.4 277.066 177.26 277.84 177.26C278.52 177.26 279.153 177.393 279.74 177.66C280.326 177.913 280.833 178.267 281.26 178.72C281.7 179.173 282.033 179.713 282.26 180.34C282.5 180.953 282.613 181.627 282.6 182.36L282.58 183.24H274L273.54 181.6H280.8L280.5 181.94V181.46C280.46 181.02 280.313 180.627 280.06 180.28C279.806 179.933 279.486 179.66 279.1 179.46C278.713 179.26 278.293 179.16 277.84 179.16C277.12 179.16 276.513 179.3 276.02 179.58C275.526 179.847 275.153 180.247 274.9 180.78C274.646 181.3 274.52 181.947 274.52 182.72C274.52 183.453 274.673 184.093 274.98 184.64C275.286 185.173 275.72 185.587 276.28 185.88C276.84 186.173 277.486 186.32 278.22 186.32C278.74 186.32 279.22 186.233 279.66 186.06C280.113 185.887 280.6 185.573 281.12 185.12L282.16 186.58C281.84 186.9 281.446 187.18 280.98 187.42C280.526 187.66 280.04 187.853 279.52 188C279.013 188.133 278.513 188.2 278.02 188.2ZM293.164 188.2C292.137 188.2 291.217 187.967 290.404 187.5C289.604 187.02 288.971 186.373 288.504 185.56C288.037 184.733 287.804 183.793 287.804 182.74C287.804 181.687 288.037 180.753 288.504 179.94C288.971 179.113 289.604 178.467 290.404 178C291.217 177.52 292.137 177.28 293.164 177.28C294.177 177.28 295.084 177.52 295.884 178C296.697 178.467 297.337 179.113 297.804 179.94C298.271 180.753 298.504 181.687 298.504 182.74C298.504 183.793 298.271 184.733 297.804 185.56C297.337 186.373 296.697 187.02 295.884 187.5C295.084 187.967 294.177 188.2 293.164 188.2ZM293.164 186.32C293.791 186.32 294.351 186.167 294.844 185.86C295.337 185.54 295.724 185.113 296.004 184.58C296.284 184.033 296.417 183.42 296.404 182.74C296.417 182.047 296.284 181.433 296.004 180.9C295.724 180.353 295.337 179.927 294.844 179.62C294.351 179.313 293.791 179.16 293.164 179.16C292.537 179.16 291.971 179.32 291.464 179.64C290.971 179.947 290.584 180.373 290.304 180.92C290.024 181.453 289.891 182.06 289.904 182.74C289.891 183.42 290.024 184.033 290.304 184.58C290.584 185.113 290.971 185.54 291.464 185.86C291.971 186.167 292.537 186.32 293.164 186.32ZM300.498 188V176.32C300.498 175.72 300.631 175.187 300.898 174.72C301.165 174.253 301.531 173.887 301.998 173.62C302.465 173.353 303.005 173.22 303.618 173.22C304.045 173.22 304.445 173.3 304.818 173.46C305.191 173.62 305.491 173.833 305.718 174.1L305.018 175.68C304.845 175.52 304.651 175.393 304.438 175.3C304.238 175.193 304.045 175.14 303.858 175.14C303.578 175.14 303.338 175.187 303.138 175.28C302.951 175.36 302.811 175.493 302.718 175.68C302.625 175.853 302.578 176.067 302.578 176.32V188H301.538C301.365 188 301.191 188 301.018 188C300.845 188 300.671 188 300.498 188ZM298.818 179.58V177.68H305.058V179.58H298.818ZM310.815 188V186H313.075V176H310.815V174H317.495V176H315.235V186H317.495V188H310.815ZM319.366 188V177.5H321.426V179.66L321.066 179.9C321.199 179.433 321.459 179.007 321.846 178.62C322.232 178.22 322.692 177.9 323.226 177.66C323.759 177.407 324.306 177.28 324.866 177.28C325.666 177.28 326.332 177.44 326.866 177.76C327.399 178.067 327.799 178.54 328.066 179.18C328.332 179.82 328.466 180.627 328.466 181.6V188H326.406V181.74C326.406 181.14 326.326 180.647 326.166 180.26C326.006 179.86 325.759 179.573 325.426 179.4C325.092 179.213 324.679 179.133 324.186 179.16C323.786 179.16 323.419 179.227 323.086 179.36C322.752 179.48 322.459 179.653 322.206 179.88C321.966 180.107 321.772 180.373 321.626 180.68C321.492 180.973 321.426 181.293 321.426 181.64V188H320.406C320.232 188 320.059 188 319.886 188C319.712 188 319.539 188 319.366 188ZM331.4 188V176.32C331.4 175.72 331.534 175.187 331.8 174.72C332.067 174.253 332.434 173.887 332.9 173.62C333.367 173.353 333.907 173.22 334.52 173.22C334.947 173.22 335.347 173.3 335.72 173.46C336.094 173.62 336.394 173.833 336.62 174.1L335.92 175.68C335.747 175.52 335.554 175.393 335.34 175.3C335.14 175.193 334.947 175.14 334.76 175.14C334.48 175.14 334.24 175.187 334.04 175.28C333.854 175.36 333.714 175.493 333.62 175.68C333.527 175.853 333.48 176.067 333.48 176.32V188H332.44C332.267 188 332.094 188 331.92 188C331.747 188 331.574 188 331.4 188ZM329.72 179.58V177.68H335.96V179.58H329.72ZM341.441 188.2C340.415 188.2 339.495 187.967 338.681 187.5C337.881 187.02 337.248 186.373 336.781 185.56C336.315 184.733 336.081 183.793 336.081 182.74C336.081 181.687 336.315 180.753 336.781 179.94C337.248 179.113 337.881 178.467 338.681 178C339.495 177.52 340.415 177.28 341.441 177.28C342.455 177.28 343.361 177.52 344.161 178C344.975 178.467 345.615 179.113 346.081 179.94C346.548 180.753 346.781 181.687 346.781 182.74C346.781 183.793 346.548 184.733 346.081 185.56C345.615 186.373 344.975 187.02 344.161 187.5C343.361 187.967 342.455 188.2 341.441 188.2ZM341.441 186.32C342.068 186.32 342.628 186.167 343.121 185.86C343.615 185.54 344.001 185.113 344.281 184.58C344.561 184.033 344.695 183.42 344.681 182.74C344.695 182.047 344.561 181.433 344.281 180.9C344.001 180.353 343.615 179.927 343.121 179.62C342.628 179.313 342.068 179.16 341.441 179.16C340.815 179.16 340.248 179.32 339.741 179.64C339.248 179.947 338.861 180.373 338.581 180.92C338.301 181.453 338.168 182.06 338.181 182.74C338.168 183.42 338.301 184.033 338.581 184.58C338.861 185.113 339.248 185.54 339.741 185.86C340.248 186.167 340.815 186.32 341.441 186.32ZM348.026 188V177.5H350.106V180.8L349.906 180C350.053 179.493 350.299 179.033 350.646 178.62C351.006 178.207 351.413 177.88 351.866 177.64C352.333 177.4 352.813 177.28 353.306 177.28C353.533 177.28 353.746 177.3 353.946 177.34C354.159 177.38 354.326 177.427 354.446 177.48L353.906 179.72C353.746 179.653 353.566 179.6 353.366 179.56C353.179 179.507 352.993 179.48 352.806 179.48C352.446 179.48 352.099 179.553 351.766 179.7C351.446 179.833 351.159 180.027 350.906 180.28C350.666 180.52 350.473 180.807 350.326 181.14C350.179 181.46 350.106 181.813 350.106 182.2V188H348.026ZM355.052 188V177.5H357.132V179.74L356.752 179.98C356.859 179.633 357.026 179.3 357.252 178.98C357.492 178.66 357.779 178.38 358.112 178.14C358.459 177.887 358.826 177.687 359.212 177.54C359.612 177.393 360.019 177.32 360.432 177.32C361.032 177.32 361.559 177.42 362.012 177.62C362.466 177.82 362.839 178.12 363.132 178.52C363.426 178.92 363.639 179.42 363.772 180.02L363.452 179.94L363.592 179.6C363.739 179.293 363.939 179.007 364.192 178.74C364.459 178.46 364.759 178.213 365.092 178C365.426 177.787 365.779 177.62 366.152 177.5C366.526 177.38 366.892 177.32 367.252 177.32C368.039 177.32 368.686 177.48 369.192 177.8C369.712 178.12 370.099 178.607 370.352 179.26C370.619 179.913 370.752 180.727 370.752 181.7V188H368.672V181.82C368.672 181.22 368.592 180.733 368.432 180.36C368.286 179.973 368.059 179.687 367.752 179.5C367.446 179.313 367.052 179.22 366.572 179.22C366.199 179.22 365.846 179.287 365.512 179.42C365.192 179.54 364.912 179.713 364.672 179.94C364.432 180.167 364.246 180.433 364.112 180.74C363.979 181.033 363.912 181.36 363.912 181.72V188H361.832V181.78C361.832 181.233 361.752 180.773 361.592 180.4C361.432 180.013 361.199 179.72 360.892 179.52C360.586 179.32 360.212 179.22 359.772 179.22C359.399 179.22 359.052 179.287 358.732 179.42C358.412 179.54 358.132 179.713 357.892 179.94C357.652 180.153 357.466 180.413 357.332 180.72C357.199 181.013 357.132 181.333 357.132 181.68V188H355.052ZM376.55 188.2C375.684 188.2 374.89 187.96 374.17 187.48C373.464 187 372.897 186.347 372.47 185.52C372.044 184.693 371.83 183.76 371.83 182.72C371.83 181.667 372.044 180.733 372.47 179.92C372.91 179.093 373.497 178.447 374.23 177.98C374.977 177.513 375.81 177.28 376.73 177.28C377.277 177.28 377.777 177.36 378.23 177.52C378.684 177.68 379.077 177.907 379.41 178.2C379.757 178.48 380.037 178.807 380.25 179.18C380.477 179.553 380.617 179.953 380.67 180.38L380.21 180.22V177.5H382.29V188H380.21V185.5L380.69 185.36C380.61 185.72 380.444 186.073 380.19 186.42C379.95 186.753 379.637 187.053 379.25 187.32C378.877 187.587 378.457 187.8 377.99 187.96C377.537 188.12 377.057 188.2 376.55 188.2ZM377.09 186.3C377.717 186.3 378.27 186.147 378.75 185.84C379.23 185.533 379.604 185.113 379.87 184.58C380.15 184.033 380.29 183.413 380.29 182.72C380.29 182.04 380.15 181.433 379.87 180.9C379.604 180.367 379.23 179.947 378.75 179.64C378.27 179.333 377.717 179.18 377.09 179.18C376.477 179.18 375.93 179.333 375.45 179.64C374.984 179.947 374.61 180.367 374.33 180.9C374.064 181.433 373.93 182.04 373.93 182.72C373.93 183.413 374.064 184.033 374.33 184.58C374.61 185.113 374.984 185.533 375.45 185.84C375.93 186.147 376.477 186.3 377.09 186.3ZM385.467 188V174.82H387.527V188H385.467ZM383.287 179.5V177.5H389.967V179.5H383.287ZM391.182 188V177.5H393.242V188H391.182ZM392.182 175.18C391.742 175.18 391.402 175.067 391.162 174.84C390.922 174.613 390.802 174.293 390.802 173.88C390.802 173.493 390.922 173.18 391.162 172.94C391.416 172.7 391.756 172.58 392.182 172.58C392.622 172.58 392.962 172.693 393.202 172.92C393.442 173.147 393.562 173.467 393.562 173.88C393.562 174.267 393.436 174.58 393.182 174.82C392.942 175.06 392.609 175.18 392.182 175.18ZM400.129 188.2C399.102 188.2 398.182 187.967 397.369 187.5C396.569 187.02 395.935 186.373 395.469 185.56C395.002 184.733 394.769 183.793 394.769 182.74C394.769 181.687 395.002 180.753 395.469 179.94C395.935 179.113 396.569 178.467 397.369 178C398.182 177.52 399.102 177.28 400.129 177.28C401.142 177.28 402.049 177.52 402.849 178C403.662 178.467 404.302 179.113 404.769 179.94C405.235 180.753 405.469 181.687 405.469 182.74C405.469 183.793 405.235 184.733 404.769 185.56C404.302 186.373 403.662 187.02 402.849 187.5C402.049 187.967 401.142 188.2 400.129 188.2ZM400.129 186.32C400.755 186.32 401.315 186.167 401.809 185.86C402.302 185.54 402.689 185.113 402.969 184.58C403.249 184.033 403.382 183.42 403.369 182.74C403.382 182.047 403.249 181.433 402.969 180.9C402.689 180.353 402.302 179.927 401.809 179.62C401.315 179.313 400.755 179.16 400.129 179.16C399.502 179.16 398.935 179.32 398.429 179.64C397.935 179.947 397.549 180.373 397.269 180.92C396.989 181.453 396.855 182.06 396.869 182.74C396.855 183.42 396.989 184.033 397.269 184.58C397.549 185.113 397.935 185.54 398.429 185.86C398.935 186.167 399.502 186.32 400.129 186.32ZM406.713 188V177.5H408.773V179.66L408.413 179.9C408.547 179.433 408.807 179.007 409.193 178.62C409.58 178.22 410.04 177.9 410.573 177.66C411.107 177.407 411.653 177.28 412.213 177.28C413.013 177.28 413.68 177.44 414.213 177.76C414.747 178.067 415.147 178.54 415.413 179.18C415.68 179.82 415.813 180.627 415.813 181.6V188H413.753V181.74C413.753 181.14 413.673 180.647 413.513 180.26C413.353 179.86 413.107 179.573 412.773 179.4C412.44 179.213 412.027 179.133 411.533 179.16C411.133 179.16 410.767 179.227 410.433 179.36C410.1 179.48 409.807 179.653 409.553 179.88C409.313 180.107 409.12 180.373 408.973 180.68C408.84 180.973 408.773 181.293 408.773 181.64V188H407.753C407.58 188 407.407 188 407.233 188C407.06 188 406.887 188 406.713 188ZM425.393 188V176.08H421.473V174H431.593V176.08H427.553V188H425.393ZM435.645 188.2C434.565 188.2 433.605 187.973 432.765 187.52C431.938 187.053 431.285 186.42 430.805 185.62C430.338 184.82 430.105 183.9 430.105 182.86C430.105 182.033 430.238 181.28 430.505 180.6C430.771 179.92 431.138 179.333 431.605 178.84C432.085 178.333 432.651 177.947 433.305 177.68C433.971 177.4 434.691 177.26 435.465 177.26C436.145 177.26 436.778 177.393 437.365 177.66C437.951 177.913 438.458 178.267 438.885 178.72C439.325 179.173 439.658 179.713 439.885 180.34C440.125 180.953 440.238 181.627 440.225 182.36L440.205 183.24H431.625L431.165 181.6H438.425L438.125 181.94V181.46C438.085 181.02 437.938 180.627 437.685 180.28C437.431 179.933 437.111 179.66 436.725 179.46C436.338 179.26 435.918 179.16 435.465 179.16C434.745 179.16 434.138 179.3 433.645 179.58C433.151 179.847 432.778 180.247 432.525 180.78C432.271 181.3 432.145 181.947 432.145 182.72C432.145 183.453 432.298 184.093 432.605 184.64C432.911 185.173 433.345 185.587 433.905 185.88C434.465 186.173 435.111 186.32 435.845 186.32C436.365 186.32 436.845 186.233 437.285 186.06C437.738 185.887 438.225 185.573 438.745 185.12L439.785 186.58C439.465 186.9 439.071 187.18 438.605 187.42C438.151 187.66 437.665 187.853 437.145 188C436.638 188.133 436.138 188.2 435.645 188.2ZM445.923 188.2C444.95 188.2 444.077 187.96 443.303 187.48C442.543 187 441.937 186.347 441.483 185.52C441.043 184.693 440.823 183.767 440.823 182.74C440.823 181.713 441.043 180.787 441.483 179.96C441.937 179.133 442.543 178.48 443.303 178C444.077 177.52 444.95 177.28 445.923 177.28C446.857 177.28 447.703 177.473 448.463 177.86C449.237 178.233 449.823 178.747 450.223 179.4L449.083 180.8C448.87 180.493 448.597 180.213 448.263 179.96C447.93 179.707 447.577 179.507 447.203 179.36C446.83 179.213 446.47 179.14 446.123 179.14C445.483 179.14 444.91 179.3 444.403 179.62C443.91 179.927 443.517 180.353 443.223 180.9C442.93 181.447 442.783 182.06 442.783 182.74C442.783 183.42 442.937 184.033 443.243 184.58C443.55 185.113 443.957 185.54 444.463 185.86C444.97 186.18 445.53 186.34 446.143 186.34C446.503 186.34 446.85 186.28 447.183 186.16C447.53 186.04 447.863 185.86 448.183 185.62C448.503 185.38 448.803 185.087 449.083 184.74L450.223 186.14C449.797 186.74 449.183 187.233 448.383 187.62C447.597 188.007 446.777 188.2 445.923 188.2ZM451.167 188V173.2H453.227V179.66L452.867 179.9C453 179.433 453.26 179.007 453.647 178.62C454.033 178.22 454.493 177.9 455.027 177.66C455.56 177.407 456.107 177.28 456.667 177.28C457.467 177.28 458.133 177.44 458.667 177.76C459.2 178.067 459.6 178.54 459.867 179.18C460.133 179.82 460.267 180.627 460.267 181.6V188H458.207V181.74C458.207 181.14 458.127 180.647 457.967 180.26C457.807 179.86 457.56 179.573 457.227 179.4C456.893 179.213 456.48 179.133 455.987 179.16C455.587 179.16 455.22 179.227 454.887 179.36C454.553 179.48 454.26 179.653 454.007 179.88C453.767 180.107 453.573 180.373 453.427 180.68C453.293 180.973 453.227 181.293 453.227 181.64V188H452.207C452.033 188 451.86 188 451.687 188C451.513 188 451.34 188 451.167 188ZM462.061 188V177.5H464.121V179.66L463.761 179.9C463.894 179.433 464.154 179.007 464.541 178.62C464.928 178.22 465.388 177.9 465.921 177.66C466.454 177.407 467.001 177.28 467.561 177.28C468.361 177.28 469.028 177.44 469.561 177.76C470.094 178.067 470.494 178.54 470.761 179.18C471.028 179.82 471.161 180.627 471.161 181.6V188H469.101V181.74C469.101 181.14 469.021 180.647 468.861 180.26C468.701 179.86 468.454 179.573 468.121 179.4C467.788 179.213 467.374 179.133 466.881 179.16C466.481 179.16 466.114 179.227 465.781 179.36C465.448 179.48 465.154 179.653 464.901 179.88C464.661 180.107 464.468 180.373 464.321 180.68C464.188 180.973 464.121 181.293 464.121 181.64V188H463.101C462.928 188 462.754 188 462.581 188C462.408 188 462.234 188 462.061 188ZM477.676 188.2C476.649 188.2 475.729 187.967 474.916 187.5C474.116 187.02 473.482 186.373 473.016 185.56C472.549 184.733 472.316 183.793 472.316 182.74C472.316 181.687 472.549 180.753 473.016 179.94C473.482 179.113 474.116 178.467 474.916 178C475.729 177.52 476.649 177.28 477.676 177.28C478.689 177.28 479.596 177.52 480.396 178C481.209 178.467 481.849 179.113 482.316 179.94C482.782 180.753 483.016 181.687 483.016 182.74C483.016 183.793 482.782 184.733 482.316 185.56C481.849 186.373 481.209 187.02 480.396 187.5C479.596 187.967 478.689 188.2 477.676 188.2ZM477.676 186.32C478.302 186.32 478.862 186.167 479.356 185.86C479.849 185.54 480.236 185.113 480.516 184.58C480.796 184.033 480.929 183.42 480.916 182.74C480.929 182.047 480.796 181.433 480.516 180.9C480.236 180.353 479.849 179.927 479.356 179.62C478.862 179.313 478.302 179.16 477.676 179.16C477.049 179.16 476.482 179.32 475.976 179.64C475.482 179.947 475.096 180.373 474.816 180.92C474.536 181.453 474.402 182.06 474.416 182.74C474.402 183.42 474.536 184.033 474.816 184.58C475.096 185.113 475.482 185.54 475.976 185.86C476.482 186.167 477.049 186.32 477.676 186.32ZM484.3 188V173.2H486.36V188H484.3ZM492.805 188.2C491.778 188.2 490.858 187.967 490.045 187.5C489.245 187.02 488.611 186.373 488.145 185.56C487.678 184.733 487.445 183.793 487.445 182.74C487.445 181.687 487.678 180.753 488.145 179.94C488.611 179.113 489.245 178.467 490.045 178C490.858 177.52 491.778 177.28 492.805 177.28C493.818 177.28 494.725 177.52 495.525 178C496.338 178.467 496.978 179.113 497.445 179.94C497.911 180.753 498.145 181.687 498.145 182.74C498.145 183.793 497.911 184.733 497.445 185.56C496.978 186.373 496.338 187.02 495.525 187.5C494.725 187.967 493.818 188.2 492.805 188.2ZM492.805 186.32C493.431 186.32 493.991 186.167 494.485 185.86C494.978 185.54 495.365 185.113 495.645 184.58C495.925 184.033 496.058 183.42 496.045 182.74C496.058 182.047 495.925 181.433 495.645 180.9C495.365 180.353 494.978 179.927 494.485 179.62C493.991 179.313 493.431 179.16 492.805 179.16C492.178 179.16 491.611 179.32 491.105 179.64C490.611 179.947 490.225 180.373 489.945 180.92C489.665 181.453 489.531 182.06 489.545 182.74C489.531 183.42 489.665 184.033 489.945 184.58C490.225 185.113 490.611 185.54 491.105 185.86C491.611 186.167 492.178 186.32 492.805 186.32ZM504.089 192.6C503.343 192.6 502.596 192.48 501.849 192.24C501.116 192.013 500.523 191.713 500.069 191.34L500.829 189.74C501.096 189.94 501.409 190.113 501.769 190.26C502.129 190.42 502.509 190.54 502.909 190.62C503.309 190.713 503.703 190.76 504.089 190.76C504.823 190.76 505.436 190.64 505.929 190.4C506.423 190.16 506.796 189.807 507.049 189.34C507.303 188.873 507.429 188.293 507.429 187.6V185.58L507.649 185.72C507.583 186.133 507.363 186.533 506.989 186.92C506.629 187.293 506.176 187.6 505.629 187.84C505.083 188.08 504.523 188.2 503.949 188.2C502.949 188.2 502.056 187.967 501.269 187.5C500.496 187.02 499.883 186.373 499.429 185.56C498.976 184.733 498.749 183.793 498.749 182.74C498.749 181.687 498.969 180.753 499.409 179.94C499.863 179.113 500.476 178.467 501.249 178C502.036 177.52 502.916 177.28 503.889 177.28C504.289 177.28 504.676 177.333 505.049 177.44C505.423 177.533 505.769 177.673 506.089 177.86C506.409 178.033 506.696 178.227 506.949 178.44C507.203 178.653 507.409 178.88 507.569 179.12C507.729 179.36 507.829 179.587 507.869 179.8L507.429 179.96V177.5H509.489V187.36C509.489 188.2 509.363 188.94 509.109 189.58C508.869 190.233 508.516 190.78 508.049 191.22C507.583 191.673 507.016 192.013 506.349 192.24C505.683 192.48 504.929 192.6 504.089 192.6ZM504.169 186.3C504.823 186.3 505.403 186.147 505.909 185.84C506.416 185.533 506.809 185.113 507.089 184.58C507.369 184.047 507.509 183.433 507.509 182.74C507.509 182.047 507.363 181.433 507.069 180.9C506.789 180.353 506.396 179.927 505.889 179.62C505.396 179.313 504.823 179.16 504.169 179.16C503.529 179.16 502.956 179.32 502.449 179.64C501.956 179.947 501.563 180.373 501.269 180.92C500.989 181.453 500.849 182.06 500.849 182.74C500.849 183.42 500.989 184.033 501.269 184.58C501.563 185.113 501.956 185.533 502.449 185.84C502.956 186.147 503.529 186.3 504.169 186.3ZM513.138 192.6L515.258 187.7L515.278 189.34L510.038 177.5H512.438L515.718 185.22C515.784 185.353 515.864 185.56 515.958 185.84C516.051 186.107 516.131 186.373 516.198 186.64L515.678 186.76C515.784 186.48 515.884 186.2 515.978 185.92C516.084 185.64 516.184 185.36 516.278 185.08L519.018 177.5H521.458L517.138 188L515.358 192.6H513.138ZM528.924 183.76L528.804 181.34L536.144 174H538.984L528.924 183.76ZM527.124 188V174H529.284V188H527.124ZM536.404 188L531.044 180.84L532.644 179.46L539.104 188H536.404ZM543.394 188.2C542.527 188.2 541.734 187.96 541.014 187.48C540.307 187 539.741 186.347 539.314 185.52C538.887 184.693 538.674 183.76 538.674 182.72C538.674 181.667 538.887 180.733 539.314 179.92C539.754 179.093 540.341 178.447 541.074 177.98C541.821 177.513 542.654 177.28 543.574 177.28C544.121 177.28 544.621 177.36 545.074 177.52C545.527 177.68 545.921 177.907 546.254 178.2C546.601 178.48 546.881 178.807 547.094 179.18C547.321 179.553 547.461 179.953 547.514 180.38L547.054 180.22V177.5H549.134V188H547.054V185.5L547.534 185.36C547.454 185.72 547.287 186.073 547.034 186.42C546.794 186.753 546.481 187.053 546.094 187.32C545.721 187.587 545.301 187.8 544.834 187.96C544.381 188.12 543.901 188.2 543.394 188.2ZM543.934 186.3C544.561 186.3 545.114 186.147 545.594 185.84C546.074 185.533 546.447 185.113 546.714 184.58C546.994 184.033 547.134 183.413 547.134 182.72C547.134 182.04 546.994 181.433 546.714 180.9C546.447 180.367 546.074 179.947 545.594 179.64C545.114 179.333 544.561 179.18 543.934 179.18C543.321 179.18 542.774 179.333 542.294 179.64C541.827 179.947 541.454 180.367 541.174 180.9C540.907 181.433 540.774 182.04 540.774 182.72C540.774 183.413 540.907 184.033 541.174 184.58C541.454 185.113 541.827 185.533 542.294 185.84C542.774 186.147 543.321 186.3 543.934 186.3ZM551.05 188V173.2H553.11V188H551.05ZM556.497 192.6L558.617 187.7L558.637 189.34L553.397 177.5H555.797L559.077 185.22C559.144 185.353 559.224 185.56 559.317 185.84C559.41 186.107 559.49 186.373 559.557 186.64L559.037 186.76C559.144 186.48 559.244 186.2 559.337 185.92C559.444 185.64 559.544 185.36 559.637 185.08L562.377 177.5H564.817L560.497 188L558.717 192.6H556.497ZM569.203 188.2C568.336 188.2 567.543 187.96 566.823 187.48C566.116 187 565.549 186.347 565.123 185.52C564.696 184.693 564.483 183.76 564.483 182.72C564.483 181.667 564.696 180.733 565.123 179.92C565.563 179.093 566.149 178.447 566.883 177.98C567.629 177.513 568.463 177.28 569.383 177.28C569.929 177.28 570.429 177.36 570.883 177.52C571.336 177.68 571.729 177.907 572.063 178.2C572.409 178.48 572.689 178.807 572.903 179.18C573.129 179.553 573.269 179.953 573.323 180.38L572.863 180.22V177.5H574.943V188H572.863V185.5L573.343 185.36C573.263 185.72 573.096 186.073 572.843 186.42C572.603 186.753 572.289 187.053 571.903 187.32C571.529 187.587 571.109 187.8 570.643 187.96C570.189 188.12 569.709 188.2 569.203 188.2ZM569.743 186.3C570.369 186.3 570.923 186.147 571.403 185.84C571.883 185.533 572.256 185.113 572.523 184.58C572.803 184.033 572.943 183.413 572.943 182.72C572.943 182.04 572.803 181.433 572.523 180.9C572.256 180.367 571.883 179.947 571.403 179.64C570.923 179.333 570.369 179.18 569.743 179.18C569.129 179.18 568.583 179.333 568.103 179.64C567.636 179.947 567.263 180.367 566.983 180.9C566.716 181.433 566.583 182.04 566.583 182.72C566.583 183.413 566.716 184.033 566.983 184.58C567.263 185.113 567.636 185.533 568.103 185.84C568.583 186.147 569.129 186.3 569.743 186.3ZM576.819 188V177.5H578.879V179.66L578.519 179.9C578.652 179.433 578.912 179.007 579.299 178.62C579.686 178.22 580.146 177.9 580.679 177.66C581.212 177.407 581.759 177.28 582.319 177.28C583.119 177.28 583.786 177.44 584.319 177.76C584.852 178.067 585.252 178.54 585.519 179.18C585.786 179.82 585.919 180.627 585.919 181.6V188H583.859V181.74C583.859 181.14 583.779 180.647 583.619 180.26C583.459 179.86 583.212 179.573 582.879 179.4C582.546 179.213 582.132 179.133 581.639 179.16C581.239 179.16 580.872 179.227 580.539 179.36C580.206 179.48 579.912 179.653 579.659 179.88C579.419 180.107 579.226 180.373 579.079 180.68C578.946 180.973 578.879 181.293 578.879 181.64V188H577.859C577.686 188 577.512 188 577.339 188C577.166 188 576.992 188 576.819 188ZM588.053 188V177.5H590.113V188H588.053ZM589.053 175.18C588.613 175.18 588.273 175.067 588.033 174.84C587.793 174.613 587.673 174.293 587.673 173.88C587.673 173.493 587.793 173.18 588.033 172.94C588.287 172.7 588.627 172.58 589.053 172.58C589.493 172.58 589.833 172.693 590.073 172.92C590.313 173.147 590.433 173.467 590.433 173.88C590.433 174.267 590.307 174.58 590.053 174.82C589.813 175.06 589.48 175.18 589.053 175.18Z" fill="white"/>
</g>
<defs>
<filter id="filter0_bd_3_68" x="219.892" y="0.892334" width="91.8665" height="72.5276" filterUnits="userSpaceOnUse" color-interpolation-filters="sRGB">
<feFlood flood-opacity="0" result="BackgroundImageFix"/>
<feGaussianBlur in="BackgroundImageFix" stdDeviation="2.5"/>
<feComposite in2="SourceAlpha" operator="in" result="effect1_backgroundBlur_3_68"/>
<feColorMatrix in="SourceAlpha" type="matrix" values="0 0 0 0 0 0 0 0 0 0 0 0 0 0 0 0 0 0 127 0" result="hardAlpha"/>
<feOffset/>
<feGaussianBlur stdDeviation="5"/>
<feComposite in2="hardAlpha" operator="out"/>
<feColorMatrix type="matrix" values="0 0 0 0 0.970833 0 0 0 0 0.263642 0 0 0 0 0.206302 0 0 0 0.25 0"/>
<feBlend mode="normal" in2="effect1_backgroundBlur_3_68" result="effect2_dropShadow_3_68"/>
<feBlend mode="normal" in="SourceGraphic" in2="effect2_dropShadow_3_68" result="shape"/>
</filter>
<filter id="filter1_bd_3_68" x="307.823" y="26.58" width="91.8665" height="72.5276" filterUnits="userSpaceOnUse" color-interpolation-filters="sRGB">
<feFlood flood-opacity="0" result="BackgroundImageFix"/>
<feGaussianBlur in="BackgroundImageFix" stdDeviation="2.5"/>
<feComposite in2="SourceAlpha" operator="in" result="effect1_backgroundBlur_3_68"/>
<feColorMatrix in="SourceAlpha" type="matrix" values="0 0 0 0 0 0 0 0 0 0 0 0 0 0 0 0 0 0 127 0" result="hardAlpha"/>
<feOffset/>
<feGaussianBlur stdDeviation="5"/>
<feComposite in2="hardAlpha" operator="out"/>
<feColorMatrix type="matrix" values="0 0 0 0 0.984314 0 0 0 0 0.737255 0 0 0 0 0.0156863 0 0 0 0.25 0"/>
<feBlend mode="normal" in2="effect1_backgroundBlur_3_68" result="effect2_dropShadow_3_68"/>
<feBlend mode="normal" in="SourceGraphic" in2="effect2_dropShadow_3_68" result="shape"/>
</filter>
<filter id="filter2_bd_3_68" x="219.892" y="26.58" width="91.8665" height="72.5276" filterUnits="userSpaceOnUse" color-interpolation-filters="sRGB">
<feFlood flood-opacity="0" result="BackgroundImageFix"/>
<feGaussianBlur in="BackgroundImageFix" stdDeviation="2.5"/>
<feComposite in2="SourceAlpha" operator="in" result="effect1_backgroundBlur_3_68"/>
<feColorMatrix in="SourceAlpha" type="matrix" values="0 0 0 0 0 0 0 0 0 0 0 0 0 0 0 0 0 0 127 0" result="hardAlpha"/>
<feOffset/>
<feGaussianBlur stdDeviation="5"/>
<feComposite in2="hardAlpha" operator="out"/>
<feColorMatrix type="matrix" values="0 0 0 0 0.376667 0 0 0 0 0.611292 0 0 0 0 1 0 0 0 0.25 0"/>
<feBlend mode="normal" in2="effect1_backgroundBlur_3_68" result="effect2_dropShadow_3_68"/>
<feBlend mode="normal" in="SourceGraphic" in2="effect2_dropShadow_3_68" result="shape"/>
</filter>
<filter id="filter3_bd_3_68" x="307.823" y="0.892273" width="91.8665" height="72.5276" filterUnits="userSpaceOnUse" color-interpolation-filters="sRGB">
<feFlood flood-opacity="0" result="BackgroundImageFix"/>
<feGaussianBlur in="BackgroundImageFix" stdDeviation="2.5"/>
<feComposite in2="SourceAlpha" operator="in" result="effect1_backgroundBlur_3_68"/>
<feColorMatrix in="SourceAlpha" type="matrix" values="0 0 0 0 0 0 0 0 0 0 0 0 0 0 0 0 0 0 127 0" result="hardAlpha"/>
<feOffset/>
<feGaussianBlur stdDeviation="5"/>
<feComposite in2="hardAlpha" operator="out"/>
<feColorMatrix type="matrix" values="0 0 0 0 0.287711 0 0 0 0 0.806667 0 0 0 0 0.308679 0 0 0 0.25 0"/>
<feBlend mode="normal" in2="effect1_backgroundBlur_3_68" result="effect2_dropShadow_3_68"/>
<feBlend mode="normal" in="SourceGraphic" in2="effect2_dropShadow_3_68" result="shape"/>
</filter>
<filter id="filter4_dd_3_68" x="40.064" y="98.1801" width="538.419" height="95.71" filterUnits="userSpaceOnUse" color-interpolation-filters="sRGB">
<feFlood flood-opacity="0" result="BackgroundImageFix"/>
<feColorMatrix in="SourceAlpha" type="matrix" values="0 0 0 0 0 0 0 0 0 0 0 0 0 0 0 0 0 0 127 0" result="hardAlpha"/>
<feOffset/>
<feGaussianBlur stdDeviation="13.5"/>
<feComposite in2="hardAlpha" operator="out"/>
<feColorMatrix type="matrix" values="0 0 0 0 0.0627451 0 0 0 0 0.0627451 0 0 0 0 0.0745098 0 0 0 1 0"/>
<feBlend mode="normal" in2="BackgroundImageFix" result="effect1_dropShadow_3_68"/>
<feColorMatrix in="SourceAlpha" type="matrix" values="0 0 0 0 0 0 0 0 0 0 0 0 0 0 0 0 0 0 127 0" result="hardAlpha"/>
<feOffset/>
<feGaussianBlur stdDeviation="5"/>
<feComposite in2="hardAlpha" operator="out"/>
<feColorMatrix type="matrix" values="0 0 0 0 1 0 0 0 0 1 0 0 0 0 1 0 0 0 0.25 0"/>
<feBlend mode="normal" in2="effect1_dropShadow_3_68" result="effect2_dropShadow_3_68"/>
<feBlend mode="normal" in="SourceGraphic" in2="effect2_dropShadow_3_68" result="shape"/>
</filter>
<filter id="filter5_dd_3_68" x="0.959961" y="145.58" width="616.473" height="74.02" filterUnits="userSpaceOnUse" color-interpolation-filters="sRGB">
<feFlood flood-opacity="0" result="BackgroundImageFix"/>
<feColorMatrix in="SourceAlpha" type="matrix" values="0 0 0 0 0 0 0 0 0 0 0 0 0 0 0 0 0 0 127 0" result="hardAlpha"/>
<feOffset/>
<feGaussianBlur stdDeviation="13.5"/>
<feComposite in2="hardAlpha" operator="out"/>
<feColorMatrix type="matrix" values="0 0 0 0 0.0627451 0 0 0 0 0.0627451 0 0 0 0 0.0745098 0 0 0 1 0"/>
<feBlend mode="normal" in2="BackgroundImageFix" result="effect1_dropShadow_3_68"/>
<feColorMatrix in="SourceAlpha" type="matrix" values="0 0 0 0 0 0 0 0 0 0 0 0 0 0 0 0 0 0 127 0" result="hardAlpha"/>
<feOffset/>
<feGaussianBlur stdDeviation="5"/>
<feComposite in2="hardAlpha" operator="out"/>
<feColorMatrix type="matrix" values="0 0 0 0 1 0 0 0 0 1 0 0 0 0 1 0 0 0 0.25 0"/>
<feBlend mode="normal" in2="effect1_dropShadow_3_68" result="effect2_dropShadow_3_68"/>
<feBlend mode="normal" in="SourceGraphic" in2="effect2_dropShadow_3_68" result="shape"/>
</filter>
</defs>
</svg>
