<svg width="460" height="98" viewBox="0 0 460 98" fill="none" xmlns="http://www.w3.org/2000/svg">
<mask id="path-1-inside-1_1_946" fill="white">
<path fill-rule="evenodd" clip-rule="evenodd" d="M431.009 0H0V62.0625L0.0624452 62.0001L36.0624 98H460V28.974L459.991 28.9826L431.009 0Z"/>
</mask>
<path fill-rule="evenodd" clip-rule="evenodd" d="M431.009 0H0V62.0625L0.0624452 62.0001L36.0624 98H460V28.974L459.991 28.9826L431.009 0Z" fill="#FBBC04" fill-opacity="0.05"/>
<path d="M431.009 0L433.13 -2.12132L432.251 -3H431.009V0ZM0 0V-3H-3V0H0ZM0 62.0625H-3V69.3053L2.12134 64.1838L0 62.0625ZM0.0624452 62.0001L2.18377 59.8787L0.062422 57.7574L-2.0589 59.8788L0.0624452 62.0001ZM36.0624 98L33.9411 100.121L34.8197 101H36.0624V98ZM460 98V101H463V98H460ZM460 28.974H463V21.7313L457.879 26.8526L460 28.974ZM459.991 28.9826L457.87 31.1039L459.991 33.2252L462.113 31.1039L459.991 28.9826ZM431.009 -3H0V3H431.009V-3ZM-3 0V62.0625H3V0H-3ZM2.12134 64.1838L2.18379 64.1214L-2.0589 59.8788L-2.12134 59.9412L2.12134 64.1838ZM-2.05888 64.1214L33.9411 100.121L38.1837 95.8787L2.18377 59.8787L-2.05888 64.1214ZM36.0624 101H460V95H36.0624V101ZM463 98V28.974H457V98H463ZM457.879 26.8526L457.87 26.8613L462.113 31.1039L462.121 31.0953L457.879 26.8526ZM462.113 26.8613L433.13 -2.12132L428.887 2.12132L457.87 31.1039L462.113 26.8613Z" fill="#FBBC04" mask="url(#path-1-inside-1_1_946)"/>
</svg>
