<svg width="2052" height="35" viewBox="0 0 2052 35" fill="none" xmlns="http://www.w3.org/2000/svg">
<path fill-rule="evenodd" clip-rule="evenodd" d="M871 0.5L880.5 3.5L893 13L902.5 23C904.167 24.8333 908.3 28.9 911.5 30.5C914.7 32.1 919.833 33.1667 922 33.5H940H984H1068H1112H1130C1132.17 33.1667 1137.3 32.1 1140.5 30.5C1143.7 28.9 1147.83 24.8333 1149.5 23L1159 13L1171.5 3.5L1181 0.5H1068H984H871Z" fill="#000000"/>
<path d="M0 2H871.645C878.275 2 884.634 4.63392 889.322 9.32233L906.178 26.1777C910.866 30.8661 917.225 33.5 923.855 33.5H1128.26C1134.82 33.5 1141.12 30.9198 1145.8 26.3163L1163.2 9.18368C1167.88 4.58017 1174.18 2 1180.74 2H2052" stroke="url(#paint0_linear_85_15)" stroke-width="3"/>
<defs>
<linearGradient id="paint0_linear_85_15" x1="0" y1="17.75" x2="2052" y2="17.75" gradientUnits="userSpaceOnUse">
<stop stop-color="#609CFF" stop-opacity="0"/>
<stop offset="0.5" stop-color="#609CFF"/>
<stop offset="1" stop-color="#609CFF" stop-opacity="0"/>
</linearGradient>
</defs>
</svg>
