<svg width="547" height="363" viewBox="0 0 547 363" fill="none" xmlns="http://www.w3.org/2000/svg">
<mask id="path-1-inside-1_1_1519" fill="white">
<path fill-rule="evenodd" clip-rule="evenodd" d="M0 89.248H547V295.423L480.175 362.248H253L216 320.248H0V89.248Z"/>
</mask>
<path fill-rule="evenodd" clip-rule="evenodd" d="M0 89.248H547V295.423L480.175 362.248H253L216 320.248H0V89.248Z" fill="url(#paint0_linear_1_1519)"/>
<path d="M547 89.248H550V86.248H547V89.248ZM0 89.248V86.248H-3V89.248H0ZM547 295.423L549.121 297.544L550 296.666V295.423H547ZM480.175 362.248V365.248H481.417L482.296 364.369L480.175 362.248ZM253 362.248L250.749 364.231L251.645 365.248H253V362.248ZM216 320.248L218.251 318.265L217.355 317.248H216V320.248ZM0 320.248H-3V323.248H0V320.248ZM547 86.248H0V92.248H547V86.248ZM550 295.423V89.248H544V295.423H550ZM482.296 364.369L549.121 297.544L544.879 293.302L478.053 360.127L482.296 364.369ZM253 365.248H480.175V359.248H253V365.248ZM213.749 322.231L250.749 364.231L255.251 360.265L218.251 318.265L213.749 322.231ZM0 323.248H216V317.248H0V323.248ZM-3 89.248V320.248H3V89.248H-3Z" fill="url(#paint1_linear_1_1519)" mask="url(#path-1-inside-1_1_1519)"/>
<mask id="path-3-inside-2_1_1519" fill="white">
<path fill-rule="evenodd" clip-rule="evenodd" d="M0 34.0717V77.248H547V34.0717L546.941 34.1306L513.059 0.248047H33.8237L0 34.0717Z"/>
</mask>
<path fill-rule="evenodd" clip-rule="evenodd" d="M0 34.0717V77.248H547V34.0717L546.941 34.1306L513.059 0.248047H33.8237L0 34.0717Z" fill="#F84335" fill-opacity="0.1"/>
<path d="M0 34.0717L-2.12132 31.9504L-3 32.8291V34.0717H0ZM0 77.248H-3V80.248H0V77.248ZM547 77.248V80.248H550V77.248H547ZM547 34.0717H550V26.829L544.879 31.9504L547 34.0717ZM546.941 34.1306L544.82 36.2519L546.941 38.3732L549.062 36.2519L546.941 34.1306ZM513.059 0.248047L515.18 -1.87327L514.301 -2.75195H513.059V0.248047ZM33.8237 0.248047V-2.75195H32.581L31.7023 -1.87327L33.8237 0.248047ZM-3 34.0717V77.248H3V34.0717H-3ZM0 80.248H547V74.248H0V80.248ZM550 77.248V34.0717H544V77.248H550ZM544.879 31.9504L544.82 32.0093L549.062 36.2519L549.121 36.193L544.879 31.9504ZM549.062 32.0093L515.18 -1.87327L510.937 2.36937L544.82 36.2519L549.062 32.0093ZM513.059 -2.75195H33.8237V3.24805H513.059V-2.75195ZM31.7023 -1.87327L-2.12132 31.9504L2.12132 36.193L35.945 2.36937L31.7023 -1.87327Z" fill="#F84335" mask="url(#path-3-inside-2_1_1519)"/>
<defs>
<linearGradient id="paint0_linear_1_1519" x1="273.5" y1="89.248" x2="273.5" y2="362.248" gradientUnits="userSpaceOnUse">
<stop stop-color="#FF0000" stop-opacity="0.05"/>
<stop offset="1" stop-color="#FF7070" stop-opacity="0.03"/>
</linearGradient>
<linearGradient id="paint1_linear_1_1519" x1="273.5" y1="89.248" x2="273.5" y2="362.248" gradientUnits="userSpaceOnUse">
<stop stop-color="#F84335"/>
<stop offset="1" stop-color="#C23B30"/>
</linearGradient>
</defs>
</svg>
