<svg width="1718" height="653" viewBox="0 0 1718 653" fill="none" xmlns="http://www.w3.org/2000/svg">
<mask id="path-1-inside-1_172_553" fill="white">
<path fill-rule="evenodd" clip-rule="evenodd" d="M551 46.5H0V571.814L59.0001 571.5L131 652.5H1271L1343 571.5L1718 573.493V46.5H1167V127.5H551V46.5Z"/>
</mask>
<path fill-rule="evenodd" clip-rule="evenodd" d="M551 46.5H0V571.814L59.0001 571.5L131 652.5H1271L1343 571.5L1718 573.493V46.5H1167V127.5H551V46.5Z" fill="url(#paint0_linear_172_553)" fill-opacity="0.25"/>
<path d="M0 46.5V41.5H-5V46.5H0ZM551 46.5H556V41.5H551V46.5ZM0 571.814H-5V576.84L0.0265706 576.813L0 571.814ZM59.0001 571.5L62.7371 568.178L61.2348 566.488L58.9735 566.5L59.0001 571.5ZM131 652.5L127.263 655.822L128.755 657.5H131V652.5ZM1271 652.5V657.5H1273.25L1274.74 655.822L1271 652.5ZM1343 571.5L1343.03 566.5L1340.77 566.488L1339.26 568.178L1343 571.5ZM1718 573.493L1717.97 578.493L1723 578.519V573.493H1718ZM1718 46.5H1723V41.5H1718V46.5ZM1167 46.5V41.5H1162V46.5H1167ZM1167 127.5V132.5H1172V127.5H1167ZM551 127.5H546V132.5H551V127.5ZM0 51.5H551V41.5H0V51.5ZM5 571.814V46.5H-5V571.814H5ZM58.9735 566.5L-0.0265706 566.814L0.0265706 576.813L59.0266 576.5L58.9735 566.5ZM134.737 649.178L62.7371 568.178L55.263 574.822L127.263 655.822L134.737 649.178ZM1271 647.5H131V657.5H1271V647.5ZM1339.26 568.178L1267.26 649.178L1274.74 655.822L1346.74 574.822L1339.26 568.178ZM1718.03 568.493L1343.03 566.5L1342.97 576.5L1717.97 578.493L1718.03 568.493ZM1713 46.5V573.493H1723V46.5H1713ZM1167 51.5H1718V41.5H1167V51.5ZM1162 46.5V127.5H1172V46.5H1162ZM1167 122.5H551V132.5H1167V122.5ZM556 127.5V46.5H546V127.5H556Z" fill="url(#paint1_linear_172_553)" mask="url(#path-1-inside-1_172_553)"/>
<mask id="path-3-inside-2_172_553" fill="white">
<path fill-rule="evenodd" clip-rule="evenodd" d="M551 46.5H0V571.814L59.0001 571.5L131 652.5H1271L1343 571.5L1718 573.493V46.5H1167V127.5H551V46.5Z"/>
</mask>
<path fill-rule="evenodd" clip-rule="evenodd" d="M551 46.5H0V571.814L59.0001 571.5L131 652.5H1271L1343 571.5L1718 573.493V46.5H1167V127.5H551V46.5Z" fill="url(#paint2_linear_172_553)" fill-opacity="0.25"/>
<path d="M0 46.5V41.5H-5V46.5H0ZM551 46.5H556V41.5H551V46.5ZM0 571.814H-5V576.84L0.0265706 576.813L0 571.814ZM59.0001 571.5L62.7371 568.178L61.2348 566.488L58.9735 566.5L59.0001 571.5ZM131 652.5L127.263 655.822L128.755 657.5H131V652.5ZM1271 652.5V657.5H1273.25L1274.74 655.822L1271 652.5ZM1343 571.5L1343.03 566.5L1340.77 566.488L1339.26 568.178L1343 571.5ZM1718 573.493L1717.97 578.493L1723 578.519V573.493H1718ZM1718 46.5H1723V41.5H1718V46.5ZM1167 46.5V41.5H1162V46.5H1167ZM1167 127.5V132.5H1172V127.5H1167ZM551 127.5H546V132.5H551V127.5ZM0 51.5H551V41.5H0V51.5ZM5 571.814V46.5H-5V571.814H5ZM58.9735 566.5L-0.0265706 566.814L0.0265706 576.813L59.0266 576.5L58.9735 566.5ZM134.737 649.178L62.7371 568.178L55.263 574.822L127.263 655.822L134.737 649.178ZM1271 647.5H131V657.5H1271V647.5ZM1339.26 568.178L1267.26 649.178L1274.74 655.822L1346.74 574.822L1339.26 568.178ZM1718.03 568.493L1343.03 566.5L1342.97 576.5L1717.97 578.493L1718.03 568.493ZM1713 46.5V573.493H1723V46.5H1713ZM1167 51.5H1718V41.5H1167V51.5ZM1162 46.5V127.5H1172V46.5H1162ZM1167 122.5H551V132.5H1167V122.5ZM556 127.5V46.5H546V127.5H556Z" fill="url(#paint3_linear_172_553)" mask="url(#path-3-inside-2_172_553)"/>
<path fill-rule="evenodd" clip-rule="evenodd" d="M612.5 0.5H1104.5L1150.5 46.5L1151 46V113.5H567V46L612.5 0.5ZM691.5 45.5L681.5 35.5H641.5V56.75H650.25L641.5 65.5V75.5H651.5V69.65L655.6 65.5H691.5V45.5ZM681.5 49.65V55.5H651.5V45.5H677.35L681.5 49.65ZM746.48 65.5H720.58L713.53 58.45L706.48 51.4V35.5H696.48V55.5L716.48 75.5H746.48V65.5ZM801.461 35.5H781.461L751.461 65.5V75.5H782.711L791.461 66.75V75.5H801.461V35.5ZM791.461 45.5V64.25L785.611 58.45L778.561 65.5H765.561L785.561 45.5H791.461ZM856.441 35.5H835.191V44.25L826.441 35.5H806.441V45.5H822.291L826.441 49.65V75.5H836.441V45.5H856.441V35.5ZM911.422 35.5H861.422V45.5H881.422V65.5H861.422V75.5H911.422V65.5H891.422V45.5H911.422V35.5ZM966.402 35.5H956.402V65.5H950.502L946.402 61.4V45.5L936.402 35.5H916.402V75.5H926.402V45.5H932.252L936.402 49.65V65.5L946.402 75.5H966.402V35.5ZM1021.38 35.5H1011.38V65.5H985.483L981.383 61.4V35.5H971.383V65.5L981.383 75.5H1021.38V35.5ZM1076.36 45.5L1066.36 35.5H1045.11V44.25L1036.36 35.5H1026.36V75.5H1036.36V49.65L1039.26 52.6L1046.36 59.65V75.5H1056.36V55.5L1046.36 45.5H1062.21L1066.36 49.65V75.5H1076.36V45.5Z" fill="url(#paint4_linear_172_553)"/>
<defs>
<linearGradient id="paint0_linear_172_553" x1="859" y1="46.5" x2="859" y2="652.5" gradientUnits="userSpaceOnUse">
<stop stop-color="#44A7F0" stop-opacity="0.25"/>
<stop offset="1" stop-color="#44A7F0" stop-opacity="0.05"/>
</linearGradient>
<linearGradient id="paint1_linear_172_553" x1="859" y1="46.5" x2="859" y2="652.5" gradientUnits="userSpaceOnUse">
<stop stop-color="#85CBFE"/>
<stop offset="1" stop-color="#0C89E3"/>
</linearGradient>
<linearGradient id="paint2_linear_172_553" x1="859" y1="46.5" x2="859" y2="652.5" gradientUnits="userSpaceOnUse">
<stop stop-color="#44A7F0" stop-opacity="0.25"/>
<stop offset="1" stop-color="#44A7F0" stop-opacity="0.05"/>
</linearGradient>
<linearGradient id="paint3_linear_172_553" x1="859" y1="46.5" x2="859" y2="652.5" gradientUnits="userSpaceOnUse">
<stop stop-color="#85CBFE"/>
<stop offset="1" stop-color="#0C89E3"/>
</linearGradient>
<linearGradient id="paint4_linear_172_553" x1="859" y1="0.5" x2="859" y2="113.5" gradientUnits="userSpaceOnUse">
<stop stop-color="#85CBFE"/>
<stop offset="1" stop-color="#0C89E3"/>
</linearGradient>
</defs>
</svg>
