<svg width="1397" height="733" viewBox="0 0 1397 733" fill="none" xmlns="http://www.w3.org/2000/svg">
<g filter="url(#filter0_b_2014_398)">
<mask id="path-1-inside-1_2014_398" fill="white">
<path fill-rule="evenodd" clip-rule="evenodd" d="M33.9414 733L422 733V670L0 670V699.176L0.0588684 699.117L33.9414 733Z"/>
</mask>
<path fill-rule="evenodd" clip-rule="evenodd" d="M33.9414 733L422 733V670L0 670V699.176L0.0588684 699.117L33.9414 733Z" fill="#5795FC"/>
<path d="M422 733V736H425V733H422ZM33.9414 733L31.8201 735.121L32.6988 736H33.9414V733ZM422 670H425V667H422V670ZM0 670V667H-3V670H0ZM0 699.176H-3V706.419L2.12132 701.298L0 699.176ZM0.0588684 699.117L2.18019 696.996L0.0588682 694.875L-2.06245 696.996L0.0588684 699.117ZM422 730L33.9414 730V736L422 736V730ZM419 670V733L425 733V670H419ZM0 673L422 673V667L0 667V673ZM3 699.176V670H-3V699.176H3ZM2.12132 701.298L2.18019 701.239L-2.06245 696.996L-2.12132 697.055L2.12132 701.298ZM-2.06245 701.239L31.8201 735.121L36.0627 730.879L2.18019 696.996L-2.06245 701.239Z" fill="#5795FC" mask="url(#path-1-inside-1_2014_398)"/>
</g>
<g filter="url(#filter1_b_2014_398)">
<mask id="path-3-inside-2_2014_398" fill="white">
<path fill-rule="evenodd" clip-rule="evenodd" d="M0 33.9414L0 654L422 654L422 0H33.8236L33.8825 0.0588989L0 33.9414Z"/>
</mask>
<path fill-rule="evenodd" clip-rule="evenodd" d="M0 33.9414L0 654L422 654L422 0H33.8236L33.8825 0.0588989L0 33.9414Z" fill="#5795FC" fill-opacity="0.1"/>
<path d="M0 654H-3L-3 657H0L0 654ZM0 33.9414L-2.12132 31.8201L-3 32.6988L-3 33.9414H0ZM422 654V657H425V654H422ZM422 0H425V-3H422V0ZM33.8236 0V-3H26.581L31.7023 2.12132L33.8236 0ZM33.8825 0.0588989L36.0038 2.18022L38.1252 0.0588996L36.0039 -2.06242L33.8825 0.0588989ZM3 654L3 33.9414H-3L-3 654H3ZM422 651L0 651L0 657L422 657V651ZM419 0L419 654H425L425 0H419ZM33.8236 3H422V-3H33.8236V3ZM31.7023 2.12132L31.7612 2.18022L36.0039 -2.06242L35.945 -2.12132L31.7023 2.12132ZM31.7612 -2.06242L-2.12132 31.8201L2.12132 36.0627L36.0038 2.18022L31.7612 -2.06242Z" fill="#5795FC" mask="url(#path-3-inside-2_2014_398)"/>
</g>
<g filter="url(#filter2_b_2014_398)">
<mask id="path-5-inside-3_2014_398" fill="white">
<path fill-rule="evenodd" clip-rule="evenodd" d="M1363.18 733L438 733V0L1363.18 0L1363.12 0.0588989L1397 33.9414V699.059L1363.12 732.941L1363.18 733Z"/>
</mask>
<path fill-rule="evenodd" clip-rule="evenodd" d="M1363.18 733L438 733V0L1363.18 0L1363.12 0.0588989L1397 33.9414V699.059L1363.12 732.941L1363.18 733Z" fill="#5795FC" fill-opacity="0.1"/>
<path d="M1363.18 733L1365.3 730.879L1370.42 736H1363.18V733ZM438 733V736H435V733H438ZM438 0H435V-3H438V0ZM1363.18 0V-3H1370.42L1365.3 2.12132L1363.18 0ZM1363.12 0.0588989L1361 2.18022L1358.87 0.0588996L1361 -2.06242L1363.12 0.0588989ZM1397 33.9414L1399.12 31.8201L1400 32.6988V33.9414H1397ZM1397 699.059H1400V700.301L1399.12 701.18L1397 699.059ZM1363.12 732.941L1361 735.063L1358.87 732.941L1361 730.82L1363.12 732.941ZM1363.18 736L438 736V730L1363.18 730V736ZM435 733V0H441V733H435ZM438 -3L1363.18 -3V3L438 3V-3ZM1365.3 2.12132L1365.24 2.18022L1361 -2.06242L1361.06 -2.12132L1365.3 2.12132ZM1365.24 -2.06242L1399.12 31.8201L1394.88 36.0627L1361 2.18022L1365.24 -2.06242ZM1400 33.9414V699.059H1394V33.9414H1400ZM1399.12 701.18L1365.24 735.063L1361 730.82L1394.88 696.937L1399.12 701.18ZM1365.24 730.82L1365.3 730.879L1361.05 735.121L1361 735.063L1365.24 730.82Z" fill="#5795FC" mask="url(#path-5-inside-3_2014_398)"/>
</g>
<path d="M50.9856 625.5H31.0144C28.2546 625.5 26 623.245 26 620.486V600.514C26 597.755 28.2546 595.5 31.0144 595.5H50.9856C53.7454 595.5 56 597.755 56 600.514V620.486C56 623.258 53.7577 625.5 50.9856 625.5Z" stroke="#5795FC" stroke-width="2"/>
<path d="M35.5613 615.952C37.0151 617.405 38.9494 618.206 41.0068 618.206C43.0643 618.206 44.9863 617.405 46.4524 615.952C47.9062 614.498 48.707 612.564 48.707 610.506C48.707 608.449 47.9062 606.514 46.4524 605.061C44.9986 603.607 43.0643 602.806 41.0068 602.806C38.9494 602.806 37.0151 603.607 35.5613 605.061C34.1075 606.514 33.3066 608.449 33.3066 610.506C33.3066 612.564 34.1075 614.498 35.5613 615.952Z" stroke="#5795FC" stroke-width="2"/>
<path d="M50.207 602.553C51.0235 602.553 51.6855 601.891 51.6855 601.074C51.6855 600.258 51.0235 599.596 50.207 599.596C49.3905 599.596 48.7285 600.258 48.7285 601.074C48.7285 601.891 49.3905 602.553 50.207 602.553Z" stroke="#5795FC" stroke-width="2"/>
<path fill-rule="evenodd" clip-rule="evenodd" d="M107.345 594.25H96L109.451 611.924L96.8604 626.75H102.678L112.2 615.537L120.655 626.647H132L118.159 608.46L118.183 608.491L130.101 594.456H124.284L115.433 604.879L107.345 594.25ZM102.262 597.345H105.794L125.738 623.552H122.206L102.262 597.345Z" fill="#5795FC"/>
<path d="M179.903 604.51H172.59V627.832H179.903V604.51Z" stroke="#5795FC" stroke-width="2"/>
<path d="M199.687 604.004C199.417 603.97 199.131 603.953 198.844 603.936C194.749 603.768 192.441 606.194 191.632 607.239C191.413 607.526 191.312 607.694 191.312 607.694V604.577H184.318V627.899H191.312H191.632C191.632 625.523 191.632 623.164 191.632 620.788C191.632 619.507 191.632 618.226 191.632 616.945C191.632 615.361 191.514 613.676 192.306 612.227C192.98 611.014 194.193 610.407 195.558 610.407C199.602 610.407 199.687 614.064 199.687 614.401C199.687 614.418 199.687 614.435 199.687 614.435V628H207V612.783C207 607.576 204.354 604.509 199.687 604.004Z" stroke="#5795FC" stroke-width="2"/>
<path d="M176.247 601.493C178.592 601.493 180.493 599.592 180.493 597.247C180.493 594.901 178.592 593 176.247 593C173.901 593 172 594.901 172 597.247C172 599.592 173.901 601.493 176.247 601.493Z" stroke="#5795FC" stroke-width="2"/>
<defs>
<filter id="filter0_b_2014_398" x="-50" y="620" width="522" height="163" filterUnits="userSpaceOnUse" color-interpolation-filters="sRGB">
<feFlood flood-opacity="0" result="BackgroundImageFix"/>
<feGaussianBlur in="BackgroundImageFix" stdDeviation="25"/>
<feComposite in2="SourceAlpha" operator="in" result="effect1_backgroundBlur_2014_398"/>
<feBlend mode="normal" in="SourceGraphic" in2="effect1_backgroundBlur_2014_398" result="shape"/>
</filter>
<filter id="filter1_b_2014_398" x="-50" y="-50" width="522" height="754" filterUnits="userSpaceOnUse" color-interpolation-filters="sRGB">
<feFlood flood-opacity="0" result="BackgroundImageFix"/>
<feGaussianBlur in="BackgroundImageFix" stdDeviation="25"/>
<feComposite in2="SourceAlpha" operator="in" result="effect1_backgroundBlur_2014_398"/>
<feBlend mode="normal" in="SourceGraphic" in2="effect1_backgroundBlur_2014_398" result="shape"/>
</filter>
<filter id="filter2_b_2014_398" x="388" y="-50" width="1059" height="833" filterUnits="userSpaceOnUse" color-interpolation-filters="sRGB">
<feFlood flood-opacity="0" result="BackgroundImageFix"/>
<feGaussianBlur in="BackgroundImageFix" stdDeviation="25"/>
<feComposite in2="SourceAlpha" operator="in" result="effect1_backgroundBlur_2014_398"/>
<feBlend mode="normal" in="SourceGraphic" in2="effect1_backgroundBlur_2014_398" result="shape"/>
</filter>
</defs>
</svg>
