<svg width="1397" height="733" viewBox="0 0 1397 733" fill="none" xmlns="http://www.w3.org/2000/svg">
<g filter="url(#filter0_b_2014_398)">
<mask id="path-1-inside-1_2014_398" fill="white">
<path fill-rule="evenodd" clip-rule="evenodd" d="M33.9414 733L422 733V670H0V699.176L0.0588684 699.117L33.9414 733Z"/>
</mask>
<path fill-rule="evenodd" clip-rule="evenodd" d="M33.9414 733L422 733V670H0V699.176L0.0588684 699.117L33.9414 733Z" fill="#5795FC"/>
<path d="M422 733V736H425V733H422ZM33.9414 733L31.8201 735.121L32.6988 736H33.9414V733ZM422 670H425V667H422V670ZM0 670V667H-3V670H0ZM0 699.176H-3V706.419L2.12131 701.298L0 699.176ZM0.0588684 699.117L2.18018 696.996L0.0588684 694.875L-2.06244 696.996L0.0588684 699.117ZM422 730H33.9414V736H422V730ZM419 670V733L425 733V670H419ZM0 673H422V667H0V673ZM3 699.176V670H-3V699.176H3ZM2.12131 701.298L2.18018 701.239L-2.06244 696.996L-2.12131 697.055L2.12131 701.298ZM-2.06244 701.239L31.8201 735.121L36.0627 730.879L2.18018 696.996L-2.06244 701.239Z" fill="#5795FC" mask="url(#path-1-inside-1_2014_398)"/>
</g>
<g filter="url(#filter1_b_2014_398)">
<mask id="path-3-inside-2_2014_398" fill="white">
<path fill-rule="evenodd" clip-rule="evenodd" d="M0 33.9414L0 654L422 654L422 0H33.8236L33.8825 0.0588989L0 33.9414Z"/>
</mask>
<path fill-rule="evenodd" clip-rule="evenodd" d="M0 33.9414L0 654L422 654L422 0H33.8236L33.8825 0.0588989L0 33.9414Z" fill="#5795FC" fill-opacity="0.1"/>
<path d="M0 654H-3V657H0L0 654ZM0 33.9414L-2.12132 31.8201L-3 32.6988L-3 33.9414H0ZM422 654V657H425V654H422ZM422 0H425V-3H422V0ZM33.8236 0V-3H26.581L31.7023 2.12134L33.8236 0ZM33.8825 0.0588989L36.0038 2.18024L38.1252 0.0588989L36.0038 -2.06244L33.8825 0.0588989ZM3 654L3 33.9414H-3L-3 654H3ZM422 651H0L0 657H422V651ZM419 0L419 654H425L425 0H419ZM33.8236 3H422V-3H33.8236V3ZM31.7023 2.12134L31.7612 2.18024L36.0038 -2.06244L35.945 -2.12134L31.7023 2.12134ZM31.7612 -2.06244L-2.12132 31.8201L2.12132 36.0627L36.0038 2.18024L31.7612 -2.06244Z" fill="#5795FC" mask="url(#path-3-inside-2_2014_398)"/>
</g>
<g filter="url(#filter2_b_2014_398)">
<mask id="path-5-inside-3_2014_398" fill="white">
<path fill-rule="evenodd" clip-rule="evenodd" d="M1363.18 733L438 733V0L1363.18 0L1363.12 0.0588989L1397 33.9414V699.059L1363.12 732.941L1363.18 733Z"/>
</mask>
<path fill-rule="evenodd" clip-rule="evenodd" d="M1363.18 733L438 733V0L1363.18 0L1363.12 0.0588989L1397 33.9414V699.059L1363.12 732.941L1363.18 733Z" fill="#5795FC" fill-opacity="0.1"/>
<path d="M1363.18 733L1365.3 730.879L1370.42 736H1363.18V733ZM438 733V736H435V733H438ZM438 0H435V-3H438V0ZM1363.18 0V-3H1370.42L1365.3 2.12134L1363.18 0ZM1363.12 0.0588989L1361 2.18024L1358.87 0.0588989L1361 -2.06244L1363.12 0.0588989ZM1397 33.9414L1399.12 31.8201L1400 32.6988V33.9414H1397ZM1397 699.059H1400V700.301L1399.12 701.18L1397 699.059ZM1363.12 732.941L1361 735.063L1358.87 732.941L1361 730.82L1363.12 732.941ZM1363.18 736L438 736V730L1363.18 730V736ZM435 733V0H441V733H435ZM438 -3L1363.18 -3V3L438 3V-3ZM1365.3 2.12134L1365.24 2.18024L1361 -2.06244L1361.06 -2.12134L1365.3 2.12134ZM1365.24 -2.06244L1399.12 31.8201L1394.88 36.0627L1361 2.18024L1365.24 -2.06244ZM1400 33.9414V699.059H1394V33.9414H1400ZM1399.12 701.18L1365.24 735.063L1361 730.82L1394.88 696.937L1399.12 701.18ZM1365.24 730.82L1365.3 730.879L1361.05 735.121L1361 735.063L1365.24 730.82Z" fill="#5795FC" mask="url(#path-5-inside-3_2014_398)"/>
</g>
<defs>
<filter id="filter0_b_2014_398" x="-50" y="620" width="522" height="163" filterUnits="userSpaceOnUse" color-interpolation-filters="sRGB">
<feFlood flood-opacity="0" result="BackgroundImageFix"/>
<feGaussianBlur in="BackgroundImageFix" stdDeviation="25"/>
<feComposite in2="SourceAlpha" operator="in" result="effect1_backgroundBlur_2014_398"/>
<feBlend mode="normal" in="SourceGraphic" in2="effect1_backgroundBlur_2014_398" result="shape"/>
</filter>
<filter id="filter1_b_2014_398" x="-50" y="-50" width="522" height="754" filterUnits="userSpaceOnUse" color-interpolation-filters="sRGB">
<feFlood flood-opacity="0" result="BackgroundImageFix"/>
<feGaussianBlur in="BackgroundImageFix" stdDeviation="25"/>
<feComposite in2="SourceAlpha" operator="in" result="effect1_backgroundBlur_2014_398"/>
<feBlend mode="normal" in="SourceGraphic" in2="effect1_backgroundBlur_2014_398" result="shape"/>
</filter>
<filter id="filter2_b_2014_398" x="388" y="-50" width="1059" height="833" filterUnits="userSpaceOnUse" color-interpolation-filters="sRGB">
<feFlood flood-opacity="0" result="BackgroundImageFix"/>
<feGaussianBlur in="BackgroundImageFix" stdDeviation="25"/>
<feComposite in2="SourceAlpha" operator="in" result="effect1_backgroundBlur_2014_398"/>
<feBlend mode="normal" in="SourceGraphic" in2="effect1_backgroundBlur_2014_398" result="shape"/>
</filter>
</defs>
</svg>
