<svg width="869" height="981" viewBox="0 0 869 981" fill="none" xmlns="http://www.w3.org/2000/svg">
<path opacity="0.5" fill-rule="evenodd" clip-rule="evenodd" d="M399.946 7.74079C399.946 9.45042 398.56 10.8363 396.851 10.8363C395.141 10.8363 393.755 9.45042 393.755 7.74079C393.755 6.03116 395.141 4.64526 396.851 4.64526C398.56 4.64526 399.946 6.03116 399.946 7.74079ZM399.176 15.1261C402.315 14.1387 404.591 11.2056 404.591 7.74079C404.591 3.46567 401.126 0 396.851 0C392.576 0 389.11 3.46567 389.11 7.74079C389.11 11.2078 391.389 14.1424 394.531 15.128V101.491V102.424L395.176 103.097L433.227 142.84V195.044L357.026 123.706V75.6886H352.381V122.391H306.439C305.728 117.385 301.424 113.535 296.222 113.535C290.521 113.535 285.901 118.156 285.901 123.856C285.901 129.556 290.521 134.177 296.222 134.177C300.812 134.177 304.702 131.18 306.043 127.036H353.786L433.227 201.407V313.072V337.387L399.173 301.819V250.412L399.28 250.296L399.173 250.198V216.388C402.313 215.401 404.591 212.467 404.591 209.001C404.591 204.726 401.126 201.261 396.851 201.261C392.576 201.261 389.11 204.726 389.11 209.001C389.11 212.467 391.388 215.401 394.528 216.388V245.922L325.68 182.55C326.635 180.985 327.186 179.146 327.186 177.178C327.186 171.478 322.565 166.857 316.865 166.857C311.165 166.857 306.544 171.478 306.544 177.178C306.544 182.878 311.165 187.499 316.865 187.499C318.914 187.499 320.824 186.902 322.429 185.872L394.528 252.236V302.752V303.685L395.173 304.358L433.227 344.104V369.644L336.775 425.331L310.174 407.837L298.414 355.045L298.211 354.134L297.435 353.617L255.412 325.604L240.182 228.791C241.928 228.027 243.484 226.769 244.62 225.064C247.782 220.322 246.5 213.914 241.757 210.752C237.014 207.59 230.606 208.872 227.445 213.615C224.283 218.358 225.565 224.766 230.308 227.928C231.946 229.019 233.782 229.581 235.615 229.654L250.159 322.102L225.573 305.713C226.493 302.553 225.315 299.031 222.432 297.109C218.875 294.738 214.069 295.699 211.698 299.257C209.326 302.814 210.288 307.62 213.845 309.991C216.729 311.914 220.435 311.645 222.997 309.579L251.14 328.339L251.162 328.477L251.311 328.453L294.083 356.965L304.598 404.17L284.813 391.159L284.805 391.154L191.541 328.983L173.826 222.254L200.312 182.523C204.503 183.706 209.155 182.131 211.701 178.311C214.863 173.568 213.581 167.16 208.838 163.999C204.095 160.837 197.687 162.119 194.526 166.862C191.64 171.191 192.456 176.907 196.227 180.275L170.74 218.509L131.881 192.604L130.717 194.35C133.723 189.627 132.413 183.345 127.732 180.224C122.989 177.063 116.581 178.345 113.42 183.087C110.258 187.83 111.54 194.238 116.283 197.4C120.963 200.52 127.266 199.313 130.469 194.722L129.304 196.469L169.258 223.103L186.246 325.454L142.774 296.475L130.955 243.414L130.752 242.503L129.976 241.986L58.1163 194.083C59.0374 190.923 57.8596 187.401 54.9757 185.478C51.4185 183.107 46.6125 184.068 44.2413 187.625C41.87 191.183 42.8314 195.989 46.3886 198.36C49.2724 200.282 52.977 200.014 55.5397 197.949L126.623 245.334L137.185 292.749L100.32 268.174L91.7699 237.446L86.3996 238.94L94.3426 267.487L65.4212 270.488L65.9964 276.032L97.2015 272.795L134.091 297.386L86.2687 305.876L15.1767 258.485C16.096 255.326 14.9181 251.805 12.0351 249.883C8.47794 247.512 3.67197 248.473 1.30071 252.031C-1.07055 255.588 -0.109155 260.394 3.44805 262.765C6.3329 264.688 10.0391 264.419 12.6018 262.352L84.4682 310.258L85.2442 310.776L86.1625 310.613L139.68 301.112L183.152 330.091L82.151 353.781L43.4092 327.956C45.0737 323.559 43.5544 318.44 39.476 315.721C34.7331 312.559 28.3252 313.841 25.1635 318.584C22.0018 323.327 23.2837 329.735 28.0266 332.897C32.105 335.616 37.4146 335.049 40.8327 331.821L78.4799 356.917L53.9501 393.715C49.3893 391.527 43.7967 392.972 40.9101 397.303C37.7484 402.046 39.0302 408.454 43.7732 411.615C48.5161 414.777 54.9241 413.495 58.0857 408.752C60.6311 404.934 60.2965 400.036 57.5946 396.622L83.1244 358.324L188.447 333.62L281.721 395.797L281.728 395.802L281.735 395.807L301.766 408.979L253.725 417.508L211.677 389.479L211.638 389.317L211.489 389.353L182.642 370.123C183.562 366.963 182.384 363.441 179.501 361.519C175.944 359.148 171.138 360.109 168.766 363.667C166.395 367.224 167.356 372.03 170.914 374.401C173.798 376.324 177.503 376.055 180.066 373.989L205.354 390.846L113.974 413.096C113.23 411.194 111.916 409.493 110.088 408.274C105.345 405.112 98.9373 406.394 95.7757 411.137C92.614 415.88 93.8958 422.288 98.6388 425.45C103.382 428.612 109.79 427.33 112.951 422.587C113.957 421.078 114.513 419.4 114.651 417.712L210.608 394.348L251.924 421.891L252.7 422.408L253.619 422.245L307.415 412.694L332.78 429.375V544.788L308.416 560.557L253.619 550.829L252.7 550.666L251.924 551.183L210.606 578.726L114.645 555.362C114.508 553.673 113.951 551.995 112.945 550.486C109.783 545.743 103.376 544.461 98.6326 547.622C93.8897 550.784 92.6078 557.192 95.7695 561.935C98.9312 566.678 105.339 567.96 110.082 564.798C111.91 563.58 113.224 561.879 113.967 559.977L205.353 582.228L180.066 599.084C177.504 597.017 173.798 596.749 170.914 598.671C167.356 601.043 166.395 605.849 168.766 609.406C171.138 612.963 175.944 613.924 179.501 611.553C182.384 609.631 183.562 606.11 182.642 602.95L211.487 583.722L211.638 583.758L211.678 583.595L253.725 555.565L302.695 564.259L282.014 577.644L282.001 577.653L281.988 577.662L189.075 639.598L83.1244 614.747L57.5952 576.449C60.2965 573.035 60.6309 568.138 58.0857 564.32C54.9241 559.578 48.5161 558.296 43.7732 561.457C39.0302 564.619 37.7484 571.027 40.9101 575.77C43.7969 580.101 49.39 581.546 53.951 579.358L78.4799 616.154L40.8317 641.251C37.4137 638.024 32.1047 637.457 28.0266 640.175C23.2837 643.337 22.0018 649.745 25.1635 654.488C28.3252 659.231 34.7331 660.513 39.476 657.351C43.5548 654.632 45.0739 649.513 43.4087 645.116L82.151 619.29L183.78 643.128L140.35 672.079L86.1625 662.459L85.2442 662.296L84.4682 662.813L12.6023 710.719C10.0395 708.651 6.33308 708.382 3.44805 710.306C-0.109155 712.677 -1.07055 717.483 1.30071 721.04C3.67197 724.597 8.47794 725.559 12.0351 723.187C14.9178 721.266 16.0958 717.745 15.1769 714.586L86.2687 667.195L134.761 675.804L97.3294 700.757L65.9579 697.502L65.4785 702.122L94.947 705.18L86.8566 734.257L91.3318 735.502L99.928 704.607L137.33 679.675L126.623 727.738L55.5386 775.124C52.976 773.059 49.272 772.791 46.3886 774.713C42.8314 777.085 41.87 781.891 44.2413 785.448C46.6125 789.005 51.4185 789.966 54.9757 787.595C57.86 785.673 59.0377 782.149 58.1159 778.989L129.976 731.086L130.752 730.569L130.955 729.658L142.918 675.949L186.349 646.998L169.258 749.968L129.304 776.602L131.881 780.467L170.74 754.563L196.228 792.799C192.456 796.167 191.64 801.884 194.526 806.214C197.687 810.957 204.095 812.239 208.838 809.077C213.581 805.915 214.863 799.508 211.701 794.765C209.156 790.945 204.505 789.37 200.314 790.552L173.826 750.817L191.644 643.468L284.551 581.535L284.564 581.527L304.687 568.503L294.083 616.108L251.312 644.619L251.162 644.595L251.14 644.734L222.997 663.494C220.435 661.427 216.729 661.159 213.845 663.081C210.288 665.453 209.326 670.259 211.698 673.816C214.069 677.373 218.875 678.335 222.432 675.963C225.315 674.041 226.493 670.519 225.573 667.36L250.159 650.971L235.615 743.418C233.781 743.49 231.943 744.052 230.305 745.144C225.562 748.306 224.28 754.714 227.441 759.457C230.603 764.2 237.011 765.481 241.754 762.32C246.497 759.158 247.779 752.75 244.617 748.007C243.482 746.304 241.927 745.046 240.181 744.281L255.412 647.469L297.435 619.456L298.211 618.938L298.414 618.028L310.247 564.904L337.058 547.552L432.326 602.556V637.223L395.176 676.024L394.531 676.698V677.63V728.141L322.429 794.509C320.823 793.479 318.914 792.882 316.865 792.882C311.165 792.882 306.544 797.503 306.544 803.203C306.544 808.904 311.165 813.524 316.865 813.524C322.565 813.524 327.186 808.904 327.186 803.203C327.186 801.235 326.635 799.395 325.679 797.83L394.531 734.455V763.989C391.389 764.975 389.11 767.909 389.11 771.376C389.11 775.651 392.576 779.117 396.851 779.117C401.126 779.117 404.591 775.651 404.591 771.376C404.591 767.911 402.315 764.978 399.176 763.991V730.179L399.28 730.084L399.176 729.971V678.563L432.326 643.94V661.776V779.816L353.786 853.343H306.043C304.701 849.2 300.811 846.205 296.222 846.205C290.521 846.205 285.901 850.825 285.901 856.526C285.901 862.226 290.521 866.847 296.222 866.847C301.425 866.847 305.729 862.996 306.44 857.988H352.381V904.691H357.026V856.673L432.326 786.18V833.793V838.482L395.176 877.282L394.531 877.956V878.889V965.253C391.389 966.239 389.11 969.173 389.11 972.64C389.11 976.915 392.576 980.381 396.851 980.381C401.126 980.381 404.591 976.915 404.591 972.64C404.591 969.175 402.315 966.242 399.176 965.255V879.821L432.326 845.198V883.702L412.217 908L415.796 910.962L434.685 888.138L454.391 910.998L457.91 907.965L436.971 883.676V843.302L471.937 879.823V965.254C468.797 966.241 466.519 969.174 466.519 972.64C466.519 976.915 469.985 980.381 474.26 980.381C478.535 980.381 482.001 976.915 482.001 972.64C482.001 969.174 479.723 966.24 476.582 965.254V878.89V877.957L475.937 877.284L437.234 836.859L436.971 837.111V833.793V784.492L514.075 856.675V903.236C509.496 904.291 506.082 908.393 506.082 913.293C506.082 918.993 510.703 923.614 516.403 923.614C522.103 923.614 526.724 918.993 526.724 913.293C526.724 908.389 523.304 904.285 518.72 903.233V857.99H562.951C563.662 862.997 567.966 866.847 573.169 866.847C578.869 866.847 583.49 862.226 583.49 856.526C583.49 850.825 578.869 846.205 573.169 846.205C568.578 846.205 564.688 849.201 563.347 853.345H517.315L437.137 778.284L436.971 778.461V661.776V642.042L471.937 678.562V729.105L471.828 729.224L471.937 729.325V763.99C468.797 764.977 466.519 767.91 466.519 771.376C466.519 775.651 469.985 779.117 474.26 779.117C478.535 779.117 482.001 775.651 482.001 771.376C482.001 767.91 479.723 764.976 476.582 763.99V733.6L545.784 797.298C544.615 798.971 543.929 801.007 543.929 803.203C543.929 808.904 548.55 813.525 554.25 813.525C559.95 813.525 564.571 808.904 564.571 803.203C564.571 797.503 559.95 792.882 554.25 792.882C552.435 792.882 550.73 793.351 549.249 794.173L476.582 727.287V677.629V676.697L475.937 676.023L437.234 635.599L436.971 635.85V602.373L530.671 548.275L553.084 563.125L565.021 616.714L565.224 617.624L566 618.141L608.028 646.157L623.257 742.964C621.509 743.729 619.952 744.987 618.815 746.692C615.654 751.435 616.936 757.843 621.678 761.005C626.421 764.166 632.829 762.885 635.991 758.142C639.153 753.399 637.871 746.991 633.128 743.829C631.491 742.738 629.656 742.176 627.824 742.103L613.281 649.659L637.857 666.042C636.935 669.202 638.113 672.726 640.997 674.649C644.555 677.02 649.36 676.059 651.732 672.501C654.103 668.944 653.142 664.138 649.584 661.767C646.701 659.845 642.997 660.113 640.435 662.177L612.3 643.422L612.277 643.277L612.12 643.302L569.353 614.793L558.667 566.824L578.878 580.213L671.787 642.148L689.606 749.504L663.122 789.234C658.931 788.054 654.282 789.629 651.737 793.447C648.576 798.19 649.857 804.598 654.6 807.76C659.343 810.921 665.751 809.639 668.913 804.896C671.8 800.566 670.982 794.848 667.208 791.479L692.692 753.25L731.552 779.154L732.84 777.221C729.679 781.964 730.961 788.372 735.704 791.534C740.446 794.695 746.854 793.414 750.016 788.671C753.178 783.928 751.896 777.52 747.153 774.358C742.41 771.196 736.002 772.478 732.84 777.221L734.128 775.289L694.174 748.655L677.082 645.677L720.512 674.628L732.478 728.347L732.68 729.257L733.456 729.774L805.321 777.68C804.402 780.839 805.58 784.359 808.463 786.281C812.02 788.652 816.826 787.691 819.197 784.133C821.569 780.576 820.607 775.77 817.05 773.399C814.165 771.476 810.458 771.745 807.895 773.813L736.809 726.426L726.101 678.354L763.514 703.294L772.11 734.189L776.585 732.943L768.495 703.866L797.963 700.809L797.484 696.189L766.113 699.443L728.681 674.491L777.173 665.882L848.26 713.269C847.339 716.429 848.517 719.951 851.401 721.873C854.958 724.244 859.764 723.283 862.135 719.726C864.506 716.169 863.545 711.363 859.988 708.991C857.103 707.069 853.398 707.337 850.836 709.403L778.974 661.499L778.198 660.982L777.279 661.145L723.092 670.765L679.66 641.813L781.285 617.976L820.027 643.802C818.362 648.199 819.881 653.319 823.96 656.037C828.703 659.199 835.111 657.917 838.272 653.174C841.434 648.431 840.152 642.023 835.409 638.862C831.331 636.143 826.022 636.71 822.604 639.937L784.956 614.841L809.485 578.043C814.046 580.231 819.639 578.786 822.526 574.455C825.687 569.713 824.405 563.305 819.662 560.143C814.919 556.981 808.511 558.263 805.35 563.006C802.805 566.824 803.139 571.721 805.841 575.135L780.311 613.433L674.365 638.284L581.454 576.348L581.449 576.344L561.122 562.878L609.714 554.251L651.758 582.278L651.798 582.441L651.947 582.404L680.794 601.634C679.873 604.794 681.051 608.317 683.935 610.24C687.492 612.611 692.298 611.65 694.669 608.092C697.041 604.535 696.079 599.729 692.522 597.358C689.638 595.436 685.934 595.704 683.371 597.769L658.082 580.911L749.461 558.662C750.205 560.564 751.519 562.266 753.347 563.485C758.09 566.646 764.498 565.364 767.66 560.621C770.822 555.879 769.54 549.471 764.797 546.309C760.054 543.147 753.646 544.429 750.484 549.172C749.478 550.681 748.922 552.358 748.784 554.046L652.828 577.409L611.514 549.869L610.738 549.351L609.82 549.514L555.506 559.157L535.165 545.68L536.2 545.083V427.637L535.024 426.958L560.456 410.356L615.073 420.052L615.991 420.215L616.767 419.698L658.085 392.155L754.047 415.52C754.184 417.208 754.741 418.886 755.747 420.395C758.908 425.138 765.316 426.42 770.059 423.258C774.802 420.096 776.084 413.688 772.922 408.945C769.761 404.203 763.353 402.921 758.61 406.082C756.782 407.301 755.468 409.002 754.724 410.904L663.338 388.653L688.623 371.798C691.186 373.864 694.891 374.132 697.775 372.209C701.332 369.838 702.294 365.032 699.922 361.475C697.551 357.918 692.745 356.956 689.188 359.328C686.304 361.25 685.126 364.772 686.047 367.932L657.204 387.16L657.057 387.124L657.018 387.283L614.967 415.315L566.139 406.647L586.692 393.23L586.701 393.223L586.71 393.217L679.621 331.282L785.574 356.134L811.101 394.429C808.399 397.843 808.064 402.742 810.609 406.56C813.771 411.303 820.179 412.585 824.922 409.424C829.665 406.262 830.947 399.854 827.785 395.111C824.899 390.781 819.307 389.336 814.746 391.522L790.218 354.727L827.865 329.631C831.283 332.857 836.591 333.423 840.669 330.705C845.412 327.543 846.693 321.135 843.532 316.393C840.37 311.65 833.962 310.368 829.219 313.529C825.14 316.249 823.621 321.369 825.287 325.766L786.547 351.591L684.916 327.753L728.347 298.801L782.539 308.422L783.457 308.585L784.233 308.068L856.09 260.167C858.653 262.232 862.357 262.499 865.241 260.577C868.798 258.206 869.759 253.4 867.388 249.843C865.017 246.286 860.211 245.324 856.654 247.696C853.769 249.618 852.592 253.141 853.513 256.302L782.432 303.685L733.936 295.075L771.369 270.122L802.74 273.377L803.22 268.756L773.751 265.699L781.842 236.622L777.366 235.377L768.77 266.272L731.365 291.206L742.071 243.142L813.157 195.755C815.72 197.822 819.425 198.09 822.309 196.167C825.867 193.796 826.828 188.99 824.457 185.433C822.086 181.876 817.28 180.914 813.722 183.286C810.839 185.208 809.661 188.73 810.581 191.89L738.719 239.794L737.943 240.311L737.74 241.222L725.776 294.932L682.339 323.888L699.43 220.913L739.385 194.279L736.808 190.413L697.948 216.318L672.465 178.089C676.241 174.721 677.06 169.001 674.172 164.67C671.011 159.927 664.603 158.645 659.86 161.807C655.117 164.968 653.835 171.376 656.997 176.119C659.541 179.937 664.188 181.512 668.378 180.333L694.863 220.063L677.044 327.417L584.143 389.346L584.134 389.352L563.983 402.507L574.615 354.774L617.384 326.263L617.537 326.287L617.559 326.147L645.696 307.391C648.259 309.454 651.961 309.721 654.844 307.799C658.401 305.428 659.362 300.622 656.991 297.065C654.62 293.508 649.814 292.546 646.257 294.918C643.372 296.841 642.194 300.366 643.117 303.527L618.54 319.911L633.084 227.462C634.916 227.39 636.753 226.828 638.39 225.736C643.133 222.574 644.415 216.166 641.253 211.423C638.092 206.68 631.684 205.399 626.941 208.56C622.198 211.722 620.916 218.13 624.078 222.873C625.214 224.578 626.77 225.835 628.517 226.6L613.286 323.412L571.263 351.426L570.487 351.943L570.284 352.854L558.414 406.142L530.514 424.355L437.872 370.868V344.114L475.937 304.357L476.582 303.683V302.751V253.094L549.248 186.208C550.73 187.03 552.435 187.499 554.25 187.499C559.95 187.499 564.571 182.878 564.571 177.178C564.571 171.477 559.95 166.856 554.25 166.856C548.55 166.856 543.929 171.477 543.929 177.178C543.929 179.374 544.615 181.41 545.784 183.083L476.582 246.78V216.388C479.723 215.401 482.001 212.467 482.001 209.001C482.001 204.726 478.535 201.261 474.26 201.261C469.985 201.261 466.519 204.726 466.519 209.001C466.519 212.467 468.797 215.401 471.937 216.388V251.056L471.828 251.157L471.937 251.276V301.818L437.872 337.397V313.072V201.414L517.321 127.036H563.347C564.688 131.18 568.578 134.177 573.169 134.177C578.869 134.177 583.49 129.556 583.49 123.856C583.49 118.156 578.869 113.535 573.169 113.535C567.966 113.535 563.662 117.385 562.951 122.391H518.727V77.145C523.305 76.0887 526.718 71.9869 526.718 67.088C526.718 61.3879 522.097 56.767 516.397 56.767C510.696 56.767 506.076 61.3879 506.076 67.088C506.076 71.9921 509.496 76.0974 514.081 77.1483V123.706L437.872 195.051V142.855L475.937 103.097L476.582 102.424V101.491V15.1279C479.723 14.1415 482.001 11.2076 482.001 7.74155C482.001 3.46643 478.535 0.000762939 474.26 0.000762939C469.985 0.000762939 466.519 3.46643 466.519 7.74155C466.519 11.2074 468.797 14.1412 471.937 15.1278V100.558L437.872 136.138V91.1456L457.981 66.8474L454.402 63.8857L435.513 86.7099L415.807 63.85L412.288 66.8831L433.227 91.1721V136.123L399.176 100.558V15.1261ZM477.356 7.74155C477.356 9.45118 475.97 10.8371 474.26 10.8371C472.551 10.8371 471.165 9.45118 471.165 7.74155C471.165 6.03193 472.551 4.64602 474.26 4.64602C475.97 4.64602 477.356 6.03193 477.356 7.74155ZM522.072 67.088C522.072 70.2227 519.531 72.7638 516.397 72.7638C513.262 72.7638 510.721 70.2227 510.721 67.088C510.721 63.9534 513.262 61.4122 516.397 61.4122C519.531 61.4122 522.072 63.9534 522.072 67.088ZM341.438 544.718L432.326 597.192V553.785H433.622L377.446 521.351L377.474 521.395L341.438 544.718ZM375.663 518.597V456.848L375.328 457.356L337.425 432.43V541.781L374.95 517.495L375.663 518.597ZM341.118 428.187L376.871 451.699L433.227 419.162V375.008L341.118 428.187ZM526.154 427.201L437.872 376.231V420.388L490.259 450.633L526.154 427.201ZM493.313 454.187V517.952L530.839 542.814L531.555 542.401V430.319L530.664 429.805L493.313 454.187ZM526.345 545.409L490.73 521.813L435.354 553.785H436.971V597.009L526.345 545.409ZM488.667 455.078L434.488 423.798L380.308 455.078V517.64L434.488 548.921L488.667 517.64V455.078ZM516.403 907.617C519.538 907.617 522.079 910.158 522.079 913.293C522.079 916.428 519.538 918.969 516.403 918.969C513.268 918.969 510.727 916.428 510.727 913.293C510.727 910.158 513.268 907.617 516.403 907.617ZM824.962 644.301C826.701 641.693 830.224 640.988 832.833 642.727C835.441 644.466 836.146 647.99 834.407 650.598C832.669 653.206 829.145 653.911 826.536 652.172C823.928 650.434 823.223 646.91 824.962 644.301ZM838.092 326.84C835.484 328.579 831.96 327.874 830.221 325.265C828.483 322.657 829.188 319.133 831.796 317.395C834.404 315.656 837.928 316.361 839.667 318.969C841.405 321.577 840.7 325.101 838.092 326.84ZM38.474 327.457C36.7353 330.065 33.2114 330.77 30.6032 329.032C27.9949 327.293 27.29 323.769 29.0287 321.161C30.7673 318.553 34.2912 317.848 36.8995 319.586C39.5077 321.325 40.2127 324.849 38.474 327.457ZM30.6032 644.041C33.2114 642.302 36.7353 643.007 38.474 645.615C40.2127 648.223 39.5077 651.747 36.8995 653.486C34.2912 655.225 30.7673 654.52 29.0287 651.911C27.29 649.303 27.9949 645.779 30.6032 644.041ZM474.26 969.545C475.97 969.545 477.356 970.931 477.356 972.64C477.356 974.35 475.97 975.736 474.26 975.736C472.551 975.736 471.165 974.35 471.165 972.64C471.165 970.931 472.551 969.545 474.26 969.545ZM853.118 713.715C854.067 712.293 855.989 711.908 857.411 712.857C858.834 713.805 859.218 715.727 858.27 717.149C857.321 718.572 855.4 718.956 853.977 718.008C852.555 717.06 852.17 715.138 853.118 713.715ZM862.664 256.712C861.242 257.66 859.32 257.276 858.371 255.853C857.423 254.431 857.808 252.509 859.23 251.561C860.653 250.612 862.575 250.997 863.523 252.419C864.471 253.842 864.087 255.764 862.664 256.712ZM10.3173 258.041C9.36903 259.464 7.44713 259.848 6.02461 258.9C4.6021 257.952 4.21763 256.03 5.1659 254.607C6.11416 253.185 8.03606 252.8 9.45858 253.748C10.8811 254.697 11.2656 256.619 10.3173 258.041ZM6.02461 714.171C7.44713 713.223 9.36903 713.607 10.3173 715.03C11.2656 716.452 10.8811 718.374 9.45858 719.322C8.03606 720.27 6.11416 719.886 5.1659 718.464C4.21763 717.041 4.6021 715.119 6.02461 714.171ZM474.26 768.281C475.97 768.281 477.356 769.667 477.356 771.376C477.356 773.086 475.97 774.472 474.26 774.472C472.551 774.472 471.165 773.086 471.165 771.376C471.165 769.667 472.551 768.281 474.26 768.281ZM477.356 209.001C477.356 210.711 475.97 212.097 474.26 212.097C472.551 212.097 471.165 210.711 471.165 209.001C471.165 207.292 472.551 205.906 474.26 205.906C475.97 205.906 477.356 207.292 477.356 209.001ZM685.653 602.082C686.601 600.659 688.523 600.275 689.945 601.223C691.368 602.171 691.752 604.093 690.804 605.516C689.856 606.938 687.934 607.323 686.511 606.375C685.089 605.426 684.704 603.504 685.653 602.082ZM695.199 368.344C693.776 369.292 691.854 368.908 690.906 367.485C689.958 366.063 690.342 364.141 691.764 363.193C693.187 362.244 695.109 362.629 696.057 364.051C697.005 365.474 696.621 367.396 695.199 368.344ZM177.783 369.677C176.835 371.1 174.913 371.484 173.49 370.536C172.068 369.588 171.683 367.666 172.631 366.243C173.58 364.821 175.502 364.436 176.924 365.385C178.347 366.333 178.731 368.255 177.783 369.677ZM173.49 602.537C174.913 601.588 176.835 601.973 177.783 603.395C178.731 604.818 178.347 606.74 176.924 607.688C175.502 608.636 173.58 608.252 172.631 606.829C171.683 605.407 172.068 603.485 173.49 602.537ZM396.851 969.545C398.56 969.545 399.946 970.931 399.946 972.64C399.946 974.35 398.56 975.736 396.851 975.736C395.141 975.736 393.755 974.35 393.755 972.64C393.755 970.931 395.141 969.545 396.851 969.545ZM810.181 778.123C811.129 776.7 813.051 776.316 814.474 777.264C815.896 778.212 816.281 780.134 815.332 781.557C814.384 782.979 812.462 783.364 811.04 782.416C809.617 781.467 809.233 779.545 810.181 778.123ZM819.733 192.302C818.31 193.25 816.389 192.866 815.44 191.443C814.492 190.021 814.876 188.099 816.299 187.151C817.721 186.202 819.643 186.587 820.592 188.009C821.54 189.432 821.155 191.354 819.733 192.302ZM53.2578 193.636C52.3096 195.059 50.3877 195.443 48.9652 194.495C47.5427 193.546 47.1582 191.625 48.1065 190.202C49.0547 188.78 50.9766 188.395 52.3991 189.343C53.8216 190.292 54.2061 192.213 53.2578 193.636ZM48.9652 778.579C50.3877 777.63 52.3096 778.015 53.2578 779.437C54.2061 780.86 53.8216 782.782 52.3991 783.73C50.9766 784.678 49.0547 784.294 48.1065 782.871C47.1582 781.449 47.5427 779.527 48.9652 778.579ZM396.851 768.281C398.56 768.281 399.946 769.667 399.946 771.376C399.946 773.086 398.56 774.472 396.851 774.472C395.141 774.472 393.755 773.086 393.755 771.376C393.755 769.667 395.141 768.281 396.851 768.281ZM399.946 209.001C399.946 210.711 398.56 212.097 396.851 212.097C395.141 212.097 393.755 210.711 393.755 209.001C393.755 207.292 395.141 205.906 396.851 205.906C398.56 205.906 399.946 207.292 399.946 209.001ZM642.715 666.491C643.663 665.068 645.585 664.684 647.008 665.632C648.43 666.581 648.815 668.502 647.867 669.925C646.918 671.347 644.996 671.732 643.574 670.784C642.151 669.835 641.767 667.913 642.715 666.491ZM652.267 303.934C650.845 304.882 648.923 304.498 647.975 303.075C647.026 301.653 647.411 299.731 648.833 298.783C650.256 297.835 652.178 298.219 653.126 299.641C654.074 301.064 653.69 302.986 652.267 303.934ZM220.714 305.267C219.766 306.69 217.844 307.074 216.421 306.126C214.999 305.178 214.614 303.256 215.563 301.833C216.511 300.411 218.433 300.026 219.855 300.975C221.278 301.923 221.662 303.845 220.714 305.267ZM216.421 666.947C217.844 665.998 219.766 666.383 220.714 667.805C221.662 669.228 221.278 671.15 219.855 672.098C218.433 673.046 216.511 672.662 215.563 671.239C214.614 669.817 214.999 667.895 216.421 666.947ZM573.169 850.85C576.303 850.85 578.844 853.391 578.844 856.526C578.844 859.66 576.303 862.201 573.169 862.201C570.034 862.201 567.493 859.66 567.493 856.526C567.493 853.391 570.034 850.85 573.169 850.85ZM578.844 123.856C578.844 126.99 576.303 129.532 573.169 129.532C570.034 129.532 567.493 126.99 567.493 123.856C567.493 120.721 570.034 118.18 573.169 118.18C576.303 118.18 578.844 120.721 578.844 123.856ZM809.215 565.583C810.954 562.974 814.478 562.269 817.086 564.008C819.694 565.747 820.399 569.271 818.66 571.879C816.922 574.487 813.398 575.192 810.79 573.453C808.181 571.715 807.476 568.191 809.215 565.583ZM822.345 405.558C819.737 407.297 816.213 406.592 814.474 403.984C812.736 401.376 813.441 397.852 816.049 396.113C818.657 394.374 822.181 395.079 823.92 397.687C825.658 400.296 824.953 403.82 822.345 405.558ZM54.2206 406.176C52.4819 408.784 48.958 409.489 46.3497 407.75C43.7415 406.011 43.0366 402.488 44.7752 399.879C46.5139 397.271 50.0378 396.566 52.6461 398.305C55.2543 400.043 55.9592 403.567 54.2206 406.176ZM46.3497 565.323C48.958 563.584 52.4819 564.289 54.2206 566.897C55.9592 569.505 55.2543 573.029 52.6461 574.768C50.0378 576.507 46.5139 575.802 44.7752 573.193C43.0366 570.585 43.7415 567.061 46.3497 565.323ZM554.25 797.528C557.384 797.528 559.926 800.069 559.926 803.203C559.926 806.338 557.384 808.879 554.25 808.879C551.115 808.879 548.574 806.338 548.574 803.203C548.574 800.069 551.115 797.528 554.25 797.528ZM559.926 177.178C559.926 180.312 557.384 182.853 554.25 182.853C551.115 182.853 548.574 180.312 548.574 177.178C548.574 174.043 551.115 171.502 554.25 171.502C557.384 171.502 559.926 174.043 559.926 177.178ZM754.349 551.749C756.088 549.14 759.612 548.435 762.22 550.174C764.828 551.913 765.533 555.437 763.795 558.045C762.056 560.653 758.532 561.358 755.924 559.619C753.316 557.881 752.611 554.357 754.349 551.749ZM767.483 419.393C764.874 421.132 761.351 420.427 759.612 417.818C757.873 415.21 758.578 411.686 761.186 409.948C763.795 408.209 767.318 408.914 769.057 411.522C770.796 414.13 770.091 417.654 767.483 419.393ZM109.086 420.01C107.347 422.618 103.824 423.323 101.215 421.585C98.6071 419.846 97.9022 416.322 99.6408 413.714C101.38 411.106 104.903 410.401 107.512 412.139C110.12 413.878 110.825 417.402 109.086 420.01ZM101.209 551.488C103.817 549.749 107.341 550.454 109.08 553.062C110.819 555.67 110.114 559.194 107.505 560.933C104.897 562.672 101.373 561.967 99.6347 559.359C97.896 556.75 98.6009 553.226 101.209 551.488ZM316.865 797.528C320 797.528 322.541 800.069 322.541 803.203C322.541 806.338 320 808.879 316.865 808.879C313.731 808.879 311.19 806.338 311.19 803.203C311.19 800.069 313.731 797.528 316.865 797.528ZM322.541 177.178C322.541 180.312 320 182.853 316.865 182.853C313.731 182.853 311.19 180.312 311.19 177.178C311.19 174.043 313.731 171.502 316.865 171.502C320 171.502 322.541 174.043 322.541 177.178ZM622.68 749.269C624.419 746.66 627.943 745.956 630.551 747.694C633.16 749.433 633.865 752.957 632.126 755.565C630.387 758.173 626.863 758.878 624.255 757.14C621.647 755.401 620.942 751.877 622.68 749.269ZM635.814 221.871C633.206 223.609 629.682 222.905 627.943 220.296C626.204 217.688 626.909 214.164 629.518 212.425C632.126 210.687 635.65 211.392 637.388 214C639.127 216.608 638.422 220.132 635.814 221.871ZM240.755 222.488C239.016 225.096 235.492 225.801 232.884 224.062C230.276 222.324 229.571 218.8 231.31 216.192C233.048 213.583 236.572 212.878 239.181 214.617C241.789 216.356 242.494 219.88 240.755 222.488ZM232.881 749.009C235.489 747.27 239.013 747.975 240.752 750.584C242.491 753.192 241.786 756.716 239.177 758.454C236.569 760.193 233.045 759.488 231.307 756.88C229.568 754.272 230.273 750.748 232.881 749.009ZM354.706 909.336C357.841 909.336 360.382 911.877 360.382 915.012C360.382 918.147 357.841 920.688 354.706 920.688C351.571 920.688 349.03 918.147 349.03 915.012C349.03 911.877 351.571 909.336 354.706 909.336ZM354.706 904.691C360.406 904.691 365.027 909.312 365.027 915.012C365.027 920.712 360.406 925.333 354.706 925.333C349.006 925.333 344.385 920.712 344.385 915.012C344.385 909.312 349.006 904.691 354.706 904.691ZM360.382 65.3675C360.382 68.5022 357.841 71.0433 354.706 71.0433C351.571 71.0433 349.03 68.5022 349.03 65.3675C349.03 62.2329 351.571 59.6917 354.706 59.6917C357.841 59.6917 360.382 62.2329 360.382 65.3675ZM365.027 65.3675C365.027 71.0677 360.406 75.6886 354.706 75.6886C349.006 75.6886 344.385 71.0677 344.385 65.3675C344.385 59.6674 349.006 55.0465 354.706 55.0465C360.406 55.0465 365.027 59.6674 365.027 65.3675ZM736.706 779.798C738.444 777.19 741.968 776.485 744.576 778.223C747.185 779.962 747.89 783.486 746.151 786.094C744.412 788.702 740.888 789.407 738.28 787.669C735.672 785.93 734.967 782.406 736.706 779.798ZM749.836 191.343C747.228 193.082 743.704 192.377 741.965 189.769C740.226 187.16 740.931 183.636 743.539 181.898C746.148 180.159 749.672 180.864 751.41 183.472C753.149 186.081 752.444 189.604 749.836 191.343ZM752.412 195.208C747.669 198.37 741.261 197.088 738.1 192.345C734.938 187.602 736.22 181.194 740.963 178.033C745.706 174.871 752.114 176.153 755.275 180.896C758.437 185.639 757.155 192.047 752.412 195.208ZM126.73 191.96C124.991 194.569 121.467 195.274 118.859 193.535C116.251 191.796 115.546 188.272 117.285 185.664C119.023 183.056 122.547 182.351 125.156 184.09C127.764 185.828 128.469 189.352 126.73 191.96ZM118.853 779.538C121.461 777.799 124.985 778.504 126.724 781.112C128.462 783.72 127.757 787.244 125.149 788.983C122.541 790.722 119.017 790.017 117.278 787.409C115.54 784.8 116.245 781.276 118.853 779.538ZM116.276 775.673C121.019 772.511 127.427 773.793 130.589 778.536C133.751 783.279 132.469 789.687 127.726 792.848C122.983 796.01 116.575 794.728 113.413 789.985C110.252 785.242 111.533 778.834 116.276 775.673ZM296.222 850.85C299.356 850.85 301.897 853.391 301.897 856.526C301.897 859.66 299.356 862.201 296.222 862.201C293.087 862.201 290.546 859.66 290.546 856.526C290.546 853.391 293.087 850.85 296.222 850.85ZM301.897 123.856C301.897 126.99 299.356 129.532 296.222 129.532C293.087 129.532 290.546 126.99 290.546 123.856C290.546 120.721 293.087 118.18 296.222 118.18C299.356 118.18 301.897 120.721 301.897 123.856ZM655.602 796.024C657.341 793.415 660.865 792.71 663.473 794.449C666.081 796.188 666.786 799.712 665.048 802.32C663.309 804.928 659.785 805.633 657.177 803.894C654.569 802.156 653.864 798.632 655.602 796.024ZM668.733 175.117C666.124 176.856 662.6 176.151 660.862 173.543C659.123 170.935 659.828 167.411 662.436 165.672C665.045 163.933 668.568 164.638 670.307 167.246C672.046 169.855 671.341 173.379 668.733 175.117ZM207.836 175.735C206.098 178.343 202.574 179.048 199.965 177.309C197.357 175.57 196.652 172.047 198.391 169.438C200.13 166.83 203.654 166.125 206.262 167.864C208.87 169.602 209.575 173.126 207.836 175.735ZM199.965 795.767C202.574 794.028 206.098 794.733 207.836 797.341C209.575 799.949 208.87 803.473 206.262 805.212C203.654 806.951 200.13 806.246 198.391 803.637C196.652 801.029 197.357 797.505 199.965 795.767Z" fill="url(#paint0_radial_2002_132)"/>
<defs>
<radialGradient id="paint0_radial_2002_132" cx="0" cy="0" r="1" gradientUnits="userSpaceOnUse" gradientTransform="translate(434.344 490.191) rotate(90.0361) scale(435.825 386.173)">
<stop stop-color="#4285F4"/>
<stop offset="1" stop-color="#264D8E" stop-opacity="0.11"/>
</radialGradient>
</defs>
</svg>
