<svg width="547" height="361" viewBox="0 0 547 361" fill="none" xmlns="http://www.w3.org/2000/svg">
<g filter="url(#filter0_b_2001_69)">
<mask id="path-1-inside-1_2001_69" fill="white">
<path fill-rule="evenodd" clip-rule="evenodd" d="M0 33.8237V99H547V33.8236L546.941 33.8825L513.059 0H33.8237L0 33.8237Z"/>
</mask>
<path fill-rule="evenodd" clip-rule="evenodd" d="M0 33.8237V99H547V33.8236L546.941 33.8825L513.059 0H33.8237L0 33.8237Z" fill="#5795FC" fill-opacity="0.1"/>
<path d="M0 33.8237L-2.12132 31.7023L-3 32.581V33.8237H0ZM0 99H-3V102H0V99ZM547 99V102H550V99H547ZM547 33.8236H550V26.581L544.879 31.7023L547 33.8236ZM546.941 33.8825L544.82 36.0038L546.941 38.1252L549.062 36.0039L546.941 33.8825ZM513.059 0L515.18 -2.12132L514.301 -3H513.059V0ZM33.8237 0V-3H32.581L31.7023 -2.12132L33.8237 0ZM-3 33.8237V99H3V33.8237H-3ZM0 102H547V96H0V102ZM550 99V33.8236H544V99H550ZM544.879 31.7023L544.82 31.7612L549.062 36.0039L549.121 35.945L544.879 31.7023ZM549.062 31.7612L515.18 -2.12132L510.937 2.12132L544.82 36.0038L549.062 31.7612ZM513.059 -3H33.8237V3H513.059V-3ZM31.7023 -2.12132L-2.12132 31.7023L2.12132 35.945L35.945 2.12132L31.7023 -2.12132Z" fill="#5795FC" mask="url(#path-1-inside-1_2001_69)"/>
</g>
<mask id="path-3-inside-2_2001_69" fill="white">
<path d="M0 96H547V291H0V96Z"/>
</mask>
<path d="M0 96H547V291H0V96Z" fill="url(#paint0_linear_2001_69)"/>
<path d="M0 96V93H-3V96H0ZM547 96H550V93H547V96ZM547 291V294H550V291H547ZM0 291H-3V294H0V291ZM0 99H547V93H0V99ZM544 96V291H550V96H544ZM547 288H0V294H547V288ZM3 291V96H-3V291H3Z" fill="url(#paint1_linear_2001_69)" mask="url(#path-3-inside-2_2001_69)"/>
<g filter="url(#filter1_b_2001_69)">
<mask id="path-5-inside-3_2001_69" fill="white">
<path fill-rule="evenodd" clip-rule="evenodd" d="M33.9414 361L270 361V298L0 298V327.176L0.0588684 327.117L33.9414 361Z"/>
</mask>
<path fill-rule="evenodd" clip-rule="evenodd" d="M33.9414 361L270 361V298L0 298V327.176L0.0588684 327.117L33.9414 361Z" fill="#5795FC" fill-opacity="0.03"/>
<path d="M270 361V364H273V361H270ZM33.9414 361L31.8201 363.121L32.6988 364L33.9414 364V361ZM270 298H273V295H270V298ZM0 298V295H-3V298H0ZM0 327.176H-3V334.419L2.12132 329.298L0 327.176ZM0.0588684 327.117L2.18019 324.996L0.0588682 322.875L-2.06245 324.996L0.0588684 327.117ZM270 358L33.9414 358V364L270 364V358ZM267 298V361H273V298H267ZM0 301L270 301V295L0 295V301ZM3 327.176V298H-3V327.176H3ZM2.12132 329.298L2.18019 329.239L-2.06245 324.996L-2.12132 325.055L2.12132 329.298ZM-2.06245 329.239L31.8201 363.121L36.0627 358.879L2.18019 324.996L-2.06245 329.239Z" fill="#5795FC" mask="url(#path-5-inside-3_2001_69)"/>
</g>
<g filter="url(#filter2_b_2001_69)">
<mask id="path-7-inside-4_2001_69" fill="white">
<path fill-rule="evenodd" clip-rule="evenodd" d="M513.059 361L277 361V298L547 298V327.176L546.941 327.117L513.059 361Z"/>
</mask>
<path fill-rule="evenodd" clip-rule="evenodd" d="M513.059 361L277 361V298L547 298V327.176L546.941 327.117L513.059 361Z" fill="#5795FC" fill-opacity="0.03"/>
<path d="M277 361V364H274V361H277ZM513.059 361L515.18 363.121L514.301 364H513.059V361ZM277 298H274V295H277V298ZM547 298V295H550V298H547ZM547 327.176H550V334.419L544.879 329.298L547 327.176ZM546.941 327.117L544.82 324.996L546.941 322.875L549.062 324.996L546.941 327.117ZM277 358L513.059 358V364L277 364V358ZM280 298V361H274V298H280ZM547 301L277 301V295H547V301ZM544 327.176V298H550V327.176H544ZM544.879 329.298L544.82 329.239L549.062 324.996L549.121 325.055L544.879 329.298ZM549.062 329.239L515.18 363.121L510.937 358.879L544.82 324.996L549.062 329.239Z" fill="#5795FC" mask="url(#path-7-inside-4_2001_69)"/>
</g>
<defs>
<filter id="filter0_b_2001_69" x="-50" y="-50" width="647" height="199" filterUnits="userSpaceOnUse" color-interpolation-filters="sRGB">
<feFlood flood-opacity="0" result="BackgroundImageFix"/>
<feGaussianBlur in="BackgroundImageFix" stdDeviation="25"/>
<feComposite in2="SourceAlpha" operator="in" result="effect1_backgroundBlur_2001_69"/>
<feBlend mode="normal" in="SourceGraphic" in2="effect1_backgroundBlur_2001_69" result="shape"/>
</filter>
<filter id="filter1_b_2001_69" x="-50" y="248" width="370" height="163" filterUnits="userSpaceOnUse" color-interpolation-filters="sRGB">
<feFlood flood-opacity="0" result="BackgroundImageFix"/>
<feGaussianBlur in="BackgroundImageFix" stdDeviation="25"/>
<feComposite in2="SourceAlpha" operator="in" result="effect1_backgroundBlur_2001_69"/>
<feBlend mode="normal" in="SourceGraphic" in2="effect1_backgroundBlur_2001_69" result="shape"/>
</filter>
<filter id="filter2_b_2001_69" x="227" y="248" width="370" height="163" filterUnits="userSpaceOnUse" color-interpolation-filters="sRGB">
<feFlood flood-opacity="0" result="BackgroundImageFix"/>
<feGaussianBlur in="BackgroundImageFix" stdDeviation="25"/>
<feComposite in2="SourceAlpha" operator="in" result="effect1_backgroundBlur_2001_69"/>
<feBlend mode="normal" in="SourceGraphic" in2="effect1_backgroundBlur_2001_69" result="shape"/>
</filter>
<linearGradient id="paint0_linear_2001_69" x1="273.5" y1="96" x2="273.5" y2="291" gradientUnits="userSpaceOnUse">
<stop stop-color="#5795FC" stop-opacity="0.05"/>
<stop offset="1" stop-color="#4285F4" stop-opacity="0.03"/>
</linearGradient>
<linearGradient id="paint1_linear_2001_69" x1="273.5" y1="96" x2="273.5" y2="291" gradientUnits="userSpaceOnUse">
<stop stop-color="#5795FC"/>
<stop offset="1" stop-color="#4285F4"/>
</linearGradient>
</defs>
</svg>
