<svg width="491" height="180" viewBox="0 0 491 180" fill="none" xmlns="http://www.w3.org/2000/svg">
<g filter="url(#filter0_d_1_1205)">
<path d="M102.747 79V87.125H98.3721L102.747 91.5V99H97.7471V93.575L95.6721 91.5H82.7471V99H77.7471V84L82.7471 79H102.747ZM97.7471 86.5V84H84.7971L82.7471 86.075V86.5H97.7471ZM105.237 79H130.237V84H110.237V86.5H130.237V91.5H112.287L110.237 93.575V94H130.237V99H105.237V91.5L109.612 87.125H105.237V79ZM137.728 79H157.728V84H139.778L137.728 86.075V94H152.728V93.575L150.653 91.5H140.228V86.5H152.728L157.728 91.5V99H132.728V84L137.728 79ZM160.218 79H185.218V84H175.218V94H185.218V99H160.218V94H170.218V84H160.218V79ZM192.708 79H212.708V84H194.758L192.708 86.075V86.5H207.708L212.708 91.5V99H187.708V94H207.708V93.575L205.633 91.5H187.708V84L192.708 79ZM229.573 79H240.198V84H230.198V99H225.198V86.075L223.123 84H215.198V79H225.198L229.573 83.375V79ZM242.688 79H267.688V84H247.688V86.5H267.688V91.5H249.738L247.688 93.575V94H267.688V99H242.688V91.5L247.063 87.125H242.688V79ZM295.179 79V87.125H290.804L295.179 91.5V99H290.179V93.575L288.104 91.5H275.179V99H270.179V84L275.179 79H295.179ZM290.179 86.5V84H277.229L275.179 86.075V86.5H290.179ZM325.164 79H330.164V99H325.164V91.5H310.164V99H305.164V79H310.164V86.5H325.164V79ZM332.654 79H357.654V84H337.654V86.5H357.654V91.5H339.704L337.654 93.575V94H357.654V99H332.654V91.5L337.029 87.125H332.654V79ZM385.145 79V87.125H380.77L385.145 91.5V99H380.145V93.575L378.07 91.5H365.145V99H360.145V84L365.145 79H385.145ZM380.145 86.5V84H367.195L365.145 86.075V86.5H380.145ZM387.635 79H412.635V84H392.635V86.5H412.635V91.5H394.685L392.635 93.575V94H412.635V99H387.635V91.5L392.01 87.125H387.635V79Z" fill="#FBBC04"/>
<rect x="51.9971" y="51.5" width="387" height="77" fill="#FBBC04" fill-opacity="0.1" stroke="#FBBC04" stroke-width="3"/>
<path d="M414.497 58H432.498V76L414.497 58Z" fill="#FBBC04"/>
</g>
<defs>
<filter id="filter0_d_1_1205" x="0.49707" y="0" width="490" height="180" filterUnits="userSpaceOnUse" color-interpolation-filters="sRGB">
<feFlood flood-opacity="0" result="BackgroundImageFix"/>
<feColorMatrix in="SourceAlpha" type="matrix" values="0 0 0 0 0 0 0 0 0 0 0 0 0 0 0 0 0 0 127 0" result="hardAlpha"/>
<feOffset/>
<feGaussianBlur stdDeviation="25"/>
<feComposite in2="hardAlpha" operator="out"/>
<feColorMatrix type="matrix" values="0 0 0 0 0.984314 0 0 0 0 0.737255 0 0 0 0 0.0156863 0 0 0 0.25 0"/>
<feBlend mode="normal" in2="BackgroundImageFix" result="effect1_dropShadow_1_1205"/>
<feBlend mode="normal" in="SourceGraphic" in2="effect1_dropShadow_1_1205" result="shape"/>
</filter>
</defs>
</svg>
