<svg width="1718" height="653" viewBox="0 0 1718 653" fill="none" xmlns="http://www.w3.org/2000/svg">
<mask id="path-1-inside-1_172_601" fill="white">
<path fill-rule="evenodd" clip-rule="evenodd" d="M551 46.5H0V571.814L59.0001 571.5L131 652.5H1271L1343 571.5L1718 573.493V46.5H1167V127.5H551V46.5Z"/>
</mask>
<path fill-rule="evenodd" clip-rule="evenodd" d="M551 46.5H0V571.814L59.0001 571.5L131 652.5H1271L1343 571.5L1718 573.493V46.5H1167V127.5H551V46.5Z" fill="url(#paint0_linear_172_601)" fill-opacity="0.25"/>
<path d="M0 46.5V41.5H-5V46.5H0ZM551 46.5H556V41.5H551V46.5ZM0 571.814H-5V576.84L0.0265706 576.813L0 571.814ZM59.0001 571.5L62.7371 568.178L61.2348 566.488L58.9735 566.5L59.0001 571.5ZM131 652.5L127.263 655.822L128.755 657.5H131V652.5ZM1271 652.5V657.5H1273.25L1274.74 655.822L1271 652.5ZM1343 571.5L1343.03 566.5L1340.77 566.488L1339.26 568.178L1343 571.5ZM1718 573.493L1717.97 578.493L1723 578.519V573.493H1718ZM1718 46.5H1723V41.5H1718V46.5ZM1167 46.5V41.5H1162V46.5H1167ZM1167 127.5V132.5H1172V127.5H1167ZM551 127.5H546V132.5H551V127.5ZM0 51.5H551V41.5H0V51.5ZM5 571.814V46.5H-5V571.814H5ZM58.9735 566.5L-0.0265706 566.814L0.0265706 576.813L59.0266 576.5L58.9735 566.5ZM134.737 649.178L62.7371 568.178L55.263 574.822L127.263 655.822L134.737 649.178ZM1271 647.5H131V657.5H1271V647.5ZM1339.26 568.178L1267.26 649.178L1274.74 655.822L1346.74 574.822L1339.26 568.178ZM1718.03 568.493L1343.03 566.5L1342.97 576.5L1717.97 578.493L1718.03 568.493ZM1713 46.5V573.493H1723V46.5H1713ZM1167 51.5H1718V41.5H1167V51.5ZM1162 46.5V127.5H1172V46.5H1162ZM1167 122.5H551V132.5H1167V122.5ZM556 127.5V46.5H546V127.5H556Z" fill="url(#paint1_linear_172_601)" mask="url(#path-1-inside-1_172_601)"/>
<mask id="path-3-inside-2_172_601" fill="white">
<path fill-rule="evenodd" clip-rule="evenodd" d="M551 46.5H0V571.814L59.0001 571.5L131 652.5H1271L1343 571.5L1718 573.493V46.5H1167V127.5H551V46.5Z"/>
</mask>
<path fill-rule="evenodd" clip-rule="evenodd" d="M551 46.5H0V571.814L59.0001 571.5L131 652.5H1271L1343 571.5L1718 573.493V46.5H1167V127.5H551V46.5Z" fill="url(#paint2_linear_172_601)" fill-opacity="0.25"/>
<path d="M0 46.5V41.5H-5V46.5H0ZM551 46.5H556V41.5H551V46.5ZM0 571.814H-5V576.84L0.0265706 576.813L0 571.814ZM59.0001 571.5L62.7371 568.178L61.2348 566.488L58.9735 566.5L59.0001 571.5ZM131 652.5L127.263 655.822L128.755 657.5H131V652.5ZM1271 652.5V657.5H1273.25L1274.74 655.822L1271 652.5ZM1343 571.5L1343.03 566.5L1340.77 566.488L1339.26 568.178L1343 571.5ZM1718 573.493L1717.97 578.493L1723 578.519V573.493H1718ZM1718 46.5H1723V41.5H1718V46.5ZM1167 46.5V41.5H1162V46.5H1167ZM1167 127.5V132.5H1172V127.5H1167ZM551 127.5H546V132.5H551V127.5ZM0 51.5H551V41.5H0V51.5ZM5 571.814V46.5H-5V571.814H5ZM58.9735 566.5L-0.0265706 566.814L0.0265706 576.813L59.0266 576.5L58.9735 566.5ZM134.737 649.178L62.7371 568.178L55.263 574.822L127.263 655.822L134.737 649.178ZM1271 647.5H131V657.5H1271V647.5ZM1339.26 568.178L1267.26 649.178L1274.74 655.822L1346.74 574.822L1339.26 568.178ZM1718.03 568.493L1343.03 566.5L1342.97 576.5L1717.97 578.493L1718.03 568.493ZM1713 46.5V573.493H1723V46.5H1713ZM1167 51.5H1718V41.5H1167V51.5ZM1162 46.5V127.5H1172V46.5H1162ZM1167 122.5H551V132.5H1167V122.5ZM556 127.5V46.5H546V127.5H556Z" fill="url(#paint3_linear_172_601)" mask="url(#path-3-inside-2_172_601)"/>
<path fill-rule="evenodd" clip-rule="evenodd" d="M612.5 0.5H1104.5L1150.5 46.5L1151 46V113.5H567V46L612.5 0.5ZM757.5 35H717.5L707.5 45V60H743.35L747.5 64.15V65H707.5V75H757.5V60L747.5 50H717.5V49.15L721.6 45H757.5V35ZM812.48 35H762.48V45H782.48V65H762.48V75H812.48V65H792.48V45H812.48V35ZM867.461 65H841.561L834.511 57.95L827.461 50.9V35H817.461V55L837.461 75H867.461V65ZM902.422 35H892.422V65H886.522L862.422 40.9V35H852.422V45L882.422 75H902.422V35ZM957.402 35H907.402V51.25H916.152L907.402 60V75H957.402V65H917.402V64.15L921.502 60H957.402V50H917.402V45H957.402V35ZM1012.38 51.25V35H972.383L962.383 45V75H972.383V60H998.233L1002.38 64.15V75H1012.38V60L1003.63 51.25H1012.38ZM1002.38 45V50H972.383V49.15L976.483 45H1002.38Z" fill="url(#paint4_linear_172_601)"/>
<defs>
<linearGradient id="paint0_linear_172_601" x1="859" y1="46.5" x2="859" y2="652.5" gradientUnits="userSpaceOnUse">
<stop stop-color="#EBECED" stop-opacity="0.25"/>
<stop offset="1" stop-color="#D5DADC" stop-opacity="0.05"/>
</linearGradient>
<linearGradient id="paint1_linear_172_601" x1="859" y1="46.5" x2="859" y2="652.5" gradientUnits="userSpaceOnUse">
<stop stop-color="#F9F9F9"/>
<stop offset="1" stop-color="#667782"/>
</linearGradient>
<linearGradient id="paint2_linear_172_601" x1="859" y1="46.5" x2="859" y2="652.5" gradientUnits="userSpaceOnUse">
<stop stop-color="#EBECED" stop-opacity="0.25"/>
<stop offset="1" stop-color="#D5DADC" stop-opacity="0.05"/>
</linearGradient>
<linearGradient id="paint3_linear_172_601" x1="859" y1="46.5" x2="859" y2="652.5" gradientUnits="userSpaceOnUse">
<stop stop-color="#F9F9F9"/>
<stop offset="1" stop-color="#667782"/>
</linearGradient>
<linearGradient id="paint4_linear_172_601" x1="859" y1="0.5" x2="859" y2="113.5" gradientUnits="userSpaceOnUse">
<stop stop-color="#F9F9F9"/>
<stop offset="1" stop-color="#667782"/>
</linearGradient>
</defs>
</svg>
