<svg width="398" height="566" viewBox="0 0 398 566" fill="none" xmlns="http://www.w3.org/2000/svg">
<mask id="path-1-inside-1_11_2" fill="white">
<path fill-rule="evenodd" clip-rule="evenodd" d="M343 565.032H398V0.0324707H343.537L318.5 26.032H79.5L53.0005 0.0324707H0V565.032H55V533.032H343V565.032Z"/>
</mask>
<path fill-rule="evenodd" clip-rule="evenodd" d="M343 565.032H398V0.0324707H343.537L318.5 26.032H79.5L53.0005 0.0324707H0V565.032H55V533.032H343V565.032Z" fill="url(#paint0_linear_11_2)" fill-opacity="0.25"/>
<path d="M398 565.032H400.394V567.426H398V565.032ZM343 565.032V567.426H340.606V565.032H343ZM398 0.0324707V-2.36151H400.394V0.0324707H398ZM343.537 0.0324707L341.812 -1.62811L342.518 -2.36151H343.537V0.0324707ZM318.5 26.032L320.224 27.6926L319.518 28.426H318.5V26.032ZM79.5 26.032V28.426H78.5217L77.8234 27.7408L79.5 26.032ZM53.0005 0.0324707V-2.36151H53.9788L54.6771 -1.67639L53.0005 0.0324707ZM0 0.0324707H-2.394V-2.36151H0V0.0324707ZM0 565.032V567.426H-2.394V565.032H0ZM55 565.032H57.394V567.426H55V565.032ZM55 533.032H52.606V530.638H55V533.032ZM343 533.032V530.638H345.394V533.032H343ZM398 567.426H343V562.638H398V567.426ZM400.394 0.0324707V565.032H395.606V0.0324707H400.394ZM343.537 -2.36151H398V2.42645H343.537V-2.36151ZM316.776 24.3714L341.812 -1.62811L345.261 1.69305L320.224 27.6926L316.776 24.3714ZM79.5 23.638H318.5V28.426H79.5V23.638ZM54.6771 -1.67639L81.1766 24.3231L77.8234 27.7408L51.3239 1.74133L54.6771 -1.67639ZM0 -2.36151H53.0005V2.42645H0V-2.36151ZM-2.394 565.032V0.0324707H2.394V565.032H-2.394ZM55 567.426H0V562.638H55V567.426ZM57.394 533.032V565.032H52.606V533.032H57.394ZM343 535.426H55V530.638H343V535.426ZM340.606 565.032V533.032H345.394V565.032H340.606Z" fill="#FBBD07" mask="url(#path-1-inside-1_11_2)"/>
<mask id="path-3-inside-2_11_2" fill="white">
<path fill-rule="evenodd" clip-rule="evenodd" d="M343 565.032H398V0.0324707H343.537L318.5 26.032H79.5L53.0005 0.0324707H0V565.032H55V533.032H343V565.032Z"/>
</mask>
<path fill-rule="evenodd" clip-rule="evenodd" d="M343 565.032H398V0.0324707H343.537L318.5 26.032H79.5L53.0005 0.0324707H0V565.032H55V533.032H343V565.032Z" fill="url(#paint1_linear_11_2)" fill-opacity="0.25"/>
<path d="M398 565.032H400.394V567.426H398V565.032ZM343 565.032V567.426H340.606V565.032H343ZM398 0.0324707V-2.36151H400.394V0.0324707H398ZM343.537 0.0324707L341.812 -1.62811L342.518 -2.36151H343.537V0.0324707ZM318.5 26.032L320.224 27.6926L319.518 28.426H318.5V26.032ZM79.5 26.032V28.426H78.5217L77.8234 27.7408L79.5 26.032ZM53.0005 0.0324707V-2.36151H53.9788L54.6771 -1.67639L53.0005 0.0324707ZM0 0.0324707H-2.394V-2.36151H0V0.0324707ZM0 565.032V567.426H-2.394V565.032H0ZM55 565.032H57.394V567.426H55V565.032ZM55 533.032H52.606V530.638H55V533.032ZM343 533.032V530.638H345.394V533.032H343ZM398 567.426H343V562.638H398V567.426ZM400.394 0.0324707V565.032H395.606V0.0324707H400.394ZM343.537 -2.36151H398V2.42645H343.537V-2.36151ZM316.776 24.3714L341.812 -1.62811L345.261 1.69305L320.224 27.6926L316.776 24.3714ZM79.5 23.638H318.5V28.426H79.5V23.638ZM54.6771 -1.67639L81.1766 24.3231L77.8234 27.7408L51.3239 1.74133L54.6771 -1.67639ZM0 -2.36151H53.0005V2.42645H0V-2.36151ZM-2.394 565.032V0.0324707H2.394V565.032H-2.394ZM55 567.426H0V562.638H55V567.426ZM57.394 533.032V565.032H52.606V533.032H57.394ZM343 535.426H55V530.638H343V535.426ZM340.606 565.032V533.032H345.394V565.032H340.606Z" fill="url(#paint2_linear_11_2)" mask="url(#path-3-inside-2_11_2)"/>
<path fill-rule="evenodd" clip-rule="evenodd" d="M335.667 502H61.3671L36 527.367V565H361.593V527.367L361.314 527.646L335.667 502Z" fill="url(#paint3_linear_11_2)"/>
<defs>
<linearGradient id="paint0_linear_11_2" x1="199" y1="565.032" x2="199" y2="0.0324707" gradientUnits="userSpaceOnUse">
<stop stop-color="#44A7F0" stop-opacity="0.25"/>
<stop offset="1" stop-color="#44A7F0" stop-opacity="0.05"/>
</linearGradient>
<linearGradient id="paint1_linear_11_2" x1="199" y1="565.032" x2="199" y2="0.0324707" gradientUnits="userSpaceOnUse">
<stop stop-color="#44A7F0" stop-opacity="0.25"/>
<stop offset="1" stop-color="#44A7F0" stop-opacity="0.05"/>
</linearGradient>
<linearGradient id="paint2_linear_11_2" x1="199" y1="565.032" x2="199" y2="0.0324707" gradientUnits="userSpaceOnUse">
<stop stop-color="#85CBFE"/>
<stop offset="1" stop-color="#0C89E3"/>
</linearGradient>
<linearGradient id="paint3_linear_11_2" x1="198.796" y1="502" x2="198.796" y2="565" gradientUnits="userSpaceOnUse">
<stop stop-color="#86CCFF"/>
<stop offset="1" stop-color="#0C8AE4"/>
</linearGradient>
</defs>
</svg>
