<svg width="400" height="421" viewBox="0 0 400 421" fill="none" xmlns="http://www.w3.org/2000/svg">
<mask id="path-1-inside-1_3_431" fill="white">
<path fill-rule="evenodd" clip-rule="evenodd" d="M344.724 421H400V0H345.263L320.1 19.3731H79.8995L53.2668 0H0V421H55.2764V397.156H344.724V421Z"/>
</mask>
<path fill-rule="evenodd" clip-rule="evenodd" d="M344.724 421H400V0H345.263L320.1 19.3731H79.8995L53.2668 0H0V421H55.2764V397.156H344.724V421Z" fill="url(#paint0_linear_3_431)" fill-opacity="0.25"/>
<path d="M400 421H402.394V423.394H400V421ZM344.724 421V423.394H342.33V421H344.724ZM400 0V-2.394H402.394V0H400ZM345.263 0L343.802 -1.89691L344.448 -2.394H345.263V0ZM320.1 19.3731L321.561 21.27L320.915 21.7671H320.1V19.3731ZM79.8995 19.3731V21.7671H79.1209L78.4912 21.3091L79.8995 19.3731ZM53.2668 0V-2.394H54.0454L54.6751 -1.93598L53.2668 0ZM0 0H-2.394V-2.394H0V0ZM0 421V423.394H-2.394V421H0ZM55.2764 421H57.6704V423.394H55.2764V421ZM55.2764 397.156H52.8824V394.762H55.2764V397.156ZM344.724 397.156V394.762H347.118V397.156H344.724ZM400 423.394H344.724V418.606H400V423.394ZM402.394 0V421H397.606V0H402.394ZM345.263 -2.394H400V2.394H345.263V-2.394ZM318.64 17.4762L343.802 -1.89691L346.723 1.89691L321.561 21.27L318.64 17.4762ZM79.8995 16.9791H320.1V21.7671H79.8995V16.9791ZM54.6751 -1.93598L81.3078 17.4371L78.4912 21.3091L51.8586 1.93598L54.6751 -1.93598ZM0 -2.394H53.2668V2.394H0V-2.394ZM-2.394 421V0H2.394V421H-2.394ZM55.2764 423.394H0V418.606H55.2764V423.394ZM57.6704 397.156V421H52.8824V397.156H57.6704ZM344.724 399.55H55.2764V394.762H344.724V399.55ZM342.33 421V397.156H347.118V421H342.33Z" fill="#FBBD07" mask="url(#path-1-inside-1_3_431)"/>
<mask id="path-3-inside-2_3_431" fill="white">
<path fill-rule="evenodd" clip-rule="evenodd" d="M344.724 421H400V0H345.263L320.1 19.3731H79.8995L53.2668 0H0V421H55.2764V397.156H344.724V421Z"/>
</mask>
<path fill-rule="evenodd" clip-rule="evenodd" d="M344.724 421H400V0H345.263L320.1 19.3731H79.8995L53.2668 0H0V421H55.2764V397.156H344.724V421Z" fill="url(#paint1_linear_3_431)" fill-opacity="0.25"/>
<path d="M400 421H402.394V423.394H400V421ZM344.724 421V423.394H342.33V421H344.724ZM400 0V-2.394H402.394V0H400ZM345.263 0L343.802 -1.89691L344.448 -2.394H345.263V0ZM320.1 19.3731L321.561 21.27L320.915 21.7671H320.1V19.3731ZM79.8995 19.3731V21.7671H79.1209L78.4912 21.3091L79.8995 19.3731ZM53.2668 0V-2.394H54.0454L54.6751 -1.93598L53.2668 0ZM0 0H-2.394V-2.394H0V0ZM0 421V423.394H-2.394V421H0ZM55.2764 421H57.6704V423.394H55.2764V421ZM55.2764 397.156H52.8824V394.762H55.2764V397.156ZM344.724 397.156V394.762H347.118V397.156H344.724ZM400 423.394H344.724V418.606H400V423.394ZM402.394 0V421H397.606V0H402.394ZM345.263 -2.394H400V2.394H345.263V-2.394ZM318.64 17.4762L343.802 -1.89691L346.723 1.89691L321.561 21.27L318.64 17.4762ZM79.8995 16.9791H320.1V21.7671H79.8995V16.9791ZM54.6751 -1.93598L81.3078 17.4371L78.4912 21.3091L51.8586 1.93598L54.6751 -1.93598ZM0 -2.394H53.2668V2.394H0V-2.394ZM-2.394 421V0H2.394V421H-2.394ZM55.2764 423.394H0V418.606H55.2764V423.394ZM57.6704 397.156V421H52.8824V397.156H57.6704ZM344.724 399.55H55.2764V394.762H344.724V399.55ZM342.33 421V397.156H347.118V421H342.33Z" fill="url(#paint2_linear_3_431)" mask="url(#path-3-inside-2_3_431)"/>
<defs>
<linearGradient id="paint0_linear_3_431" x1="200" y1="421" x2="200" y2="0" gradientUnits="userSpaceOnUse">
<stop stop-color="#44A7F0" stop-opacity="0.25"/>
<stop offset="1" stop-color="#44A7F0" stop-opacity="0.05"/>
</linearGradient>
<linearGradient id="paint1_linear_3_431" x1="200" y1="421" x2="200" y2="0" gradientUnits="userSpaceOnUse">
<stop stop-color="#44A7F0" stop-opacity="0.25"/>
<stop offset="1" stop-color="#44A7F0" stop-opacity="0.05"/>
</linearGradient>
<linearGradient id="paint2_linear_3_431" x1="200" y1="421" x2="200" y2="0" gradientUnits="userSpaceOnUse">
<stop stop-color="#85CBFE"/>
<stop offset="1" stop-color="#0C89E3"/>
</linearGradient>
</defs>
</svg>
