<svg width="682" height="314" viewBox="0 0 682 314" fill="none" xmlns="http://www.w3.org/2000/svg">
<mask id="path-1-inside-1_2006_92" fill="white">
<path fill-rule="evenodd" clip-rule="evenodd" d="M265.645 0C272.275 0 278.634 2.63392 283.322 7.32233L318.678 42.6777C323.366 47.3661 329.725 50 336.355 50H496.645C503.275 50 509.634 47.3661 514.322 42.6777L549.678 7.32233C554.366 2.63392 560.725 0 567.355 0H657C670.807 0 682 11.1929 682 25V240C682 253.807 670.807 265 657 265H566.355C559.725 265 553.366 267.634 548.678 272.322L514.322 306.678C509.634 311.366 503.275 314 496.645 314H336.355C329.725 314 323.366 311.366 318.678 306.678L284.322 272.322C279.634 267.634 273.275 265 266.645 265H25C11.1929 265 0 253.807 0 240V25C0 11.1929 11.1929 0 25 0H265.645Z"/>
</mask>
<path fill-rule="evenodd" clip-rule="evenodd" d="M265.645 0C272.275 0 278.634 2.63392 283.322 7.32233L318.678 42.6777C323.366 47.3661 329.725 50 336.355 50H496.645C503.275 50 509.634 47.3661 514.322 42.6777L549.678 7.32233C554.366 2.63392 560.725 0 567.355 0H657C670.807 0 682 11.1929 682 25V240C682 253.807 670.807 265 657 265H566.355C559.725 265 553.366 267.634 548.678 272.322L514.322 306.678C509.634 311.366 503.275 314 496.645 314H336.355C329.725 314 323.366 311.366 318.678 306.678L284.322 272.322C279.634 267.634 273.275 265 266.645 265H25C11.1929 265 0 253.807 0 240V25C0 11.1929 11.1929 0 25 0H265.645Z" fill="url(#paint0_linear_2006_92)"/>
<path d="M283.322 7.32233L285.444 5.20101L285.444 5.20101L283.322 7.32233ZM318.678 42.6777L316.556 44.799L316.556 44.799L318.678 42.6777ZM514.322 42.6777L516.444 44.799L516.444 44.799L514.322 42.6777ZM549.678 7.32233L547.556 5.20101L547.556 5.20101L549.678 7.32233ZM514.322 306.678L516.444 308.799L514.322 306.678ZM548.678 272.322L546.556 270.201L548.678 272.322ZM285.444 5.20101C280.193 -0.0500064 273.071 -3 265.645 -3V3C271.479 3 277.075 5.31785 281.201 9.44365L285.444 5.20101ZM320.799 40.5563L285.444 5.20101L281.201 9.44365L316.556 44.799L320.799 40.5563ZM336.355 47C330.521 47 324.925 44.6822 320.799 40.5563L316.556 44.799C321.807 50.05 328.929 53 336.355 53V47ZM496.645 47H336.355V53H496.645V47ZM512.201 40.5563C508.075 44.6821 502.479 47 496.645 47V53C504.071 53 511.193 50.05 516.444 44.799L512.201 40.5563ZM547.556 5.20101L512.201 40.5563L516.444 44.799L551.799 9.44365L547.556 5.20101ZM567.355 -3C559.929 -3 552.807 -0.0500076 547.556 5.20101L551.799 9.44365C555.925 5.31785 561.521 3 567.355 3V-3ZM657 -3H567.355V3H657V-3ZM685 25C685 9.53603 672.464 -3 657 -3V3C669.15 3 679 12.8497 679 25H685ZM685 240V25H679V240H685ZM657 268C672.464 268 685 255.464 685 240H679C679 252.15 669.15 262 657 262V268ZM566.355 268H657V262H566.355V268ZM546.556 270.201L512.201 304.556L516.444 308.799L550.799 274.444L546.556 270.201ZM496.645 311H336.355V317H496.645V311ZM320.799 304.556L286.444 270.201L282.201 274.444L316.556 308.799L320.799 304.556ZM25 268H266.645V262H25V268ZM-3 240C-3 255.464 9.53605 268 25 268V262C12.8498 262 3 252.15 3 240H-3ZM-3 25V240H3V25H-3ZM25 -3C9.53603 -3 -3 9.53602 -3 25H3C3 12.8497 12.8497 3 25 3V-3ZM265.645 -3H25V3H265.645V-3ZM286.444 270.201C281.193 264.95 274.071 262 266.645 262V268C272.479 268 278.075 270.318 282.201 274.444L286.444 270.201ZM336.355 311C330.521 311 324.925 308.682 320.799 304.556L316.556 308.799C321.807 314.05 328.929 317 336.355 317V311ZM512.201 304.556C508.075 308.682 502.479 311 496.645 311V317C504.071 317 511.193 314.05 516.444 308.799L512.201 304.556ZM566.355 262C558.929 262 551.807 264.95 546.556 270.201L550.799 274.444C554.925 270.318 560.521 268 566.355 268V262Z" fill="#F84335" mask="url(#path-1-inside-1_2006_92)"/>
<mask id="path-3-inside-2_2006_92" fill="white">
<path fill-rule="evenodd" clip-rule="evenodd" d="M265.645 0C272.275 0 278.634 2.63392 283.322 7.32233L318.678 42.6777C323.366 47.3661 329.725 50 336.355 50H496.645C503.275 50 509.634 47.3661 514.322 42.6777L549.678 7.32233C554.366 2.63392 560.725 0 567.355 0H657C670.807 0 682 11.1929 682 25V240C682 253.807 670.807 265 657 265H566.355C559.725 265 553.366 267.634 548.678 272.322L514.322 306.678C509.634 311.366 503.275 314 496.645 314H336.355C329.725 314 323.366 311.366 318.678 306.678L284.322 272.322C279.634 267.634 273.275 265 266.645 265H25C11.1929 265 0 253.807 0 240V25C0 11.1929 11.1929 0 25 0H265.645Z"/>
</mask>
<path fill-rule="evenodd" clip-rule="evenodd" d="M265.645 0C272.275 0 278.634 2.63392 283.322 7.32233L318.678 42.6777C323.366 47.3661 329.725 50 336.355 50H496.645C503.275 50 509.634 47.3661 514.322 42.6777L549.678 7.32233C554.366 2.63392 560.725 0 567.355 0H657C670.807 0 682 11.1929 682 25V240C682 253.807 670.807 265 657 265H566.355C559.725 265 553.366 267.634 548.678 272.322L514.322 306.678C509.634 311.366 503.275 314 496.645 314H336.355C329.725 314 323.366 311.366 318.678 306.678L284.322 272.322C279.634 267.634 273.275 265 266.645 265H25C11.1929 265 0 253.807 0 240V25C0 11.1929 11.1929 0 25 0H265.645Z" fill="url(#paint1_linear_2006_92)"/>
<path d="M283.322 7.32233L285.444 5.20101L285.444 5.20101L283.322 7.32233ZM318.678 42.6777L316.556 44.799L316.556 44.799L318.678 42.6777ZM514.322 42.6777L516.444 44.799L516.444 44.799L514.322 42.6777ZM549.678 7.32233L547.556 5.20101L547.556 5.20101L549.678 7.32233ZM514.322 306.678L516.444 308.799L514.322 306.678ZM548.678 272.322L546.556 270.201L548.678 272.322ZM285.444 5.20101C280.193 -0.0500064 273.071 -3 265.645 -3V3C271.479 3 277.075 5.31785 281.201 9.44365L285.444 5.20101ZM320.799 40.5563L285.444 5.20101L281.201 9.44365L316.556 44.799L320.799 40.5563ZM336.355 47C330.521 47 324.925 44.6822 320.799 40.5563L316.556 44.799C321.807 50.05 328.929 53 336.355 53V47ZM496.645 47H336.355V53H496.645V47ZM512.201 40.5563C508.075 44.6821 502.479 47 496.645 47V53C504.071 53 511.193 50.05 516.444 44.799L512.201 40.5563ZM547.556 5.20101L512.201 40.5563L516.444 44.799L551.799 9.44365L547.556 5.20101ZM567.355 -3C559.929 -3 552.807 -0.0500076 547.556 5.20101L551.799 9.44365C555.925 5.31785 561.521 3 567.355 3V-3ZM657 -3H567.355V3H657V-3ZM685 25C685 9.53603 672.464 -3 657 -3V3C669.15 3 679 12.8497 679 25H685ZM685 240V25H679V240H685ZM657 268C672.464 268 685 255.464 685 240H679C679 252.15 669.15 262 657 262V268ZM566.355 268H657V262H566.355V268ZM546.556 270.201L512.201 304.556L516.444 308.799L550.799 274.444L546.556 270.201ZM496.645 311H336.355V317H496.645V311ZM320.799 304.556L286.444 270.201L282.201 274.444L316.556 308.799L320.799 304.556ZM25 268H266.645V262H25V268ZM-3 240C-3 255.464 9.53605 268 25 268V262C12.8498 262 3 252.15 3 240H-3ZM-3 25V240H3V25H-3ZM25 -3C9.53603 -3 -3 9.53602 -3 25H3C3 12.8497 12.8497 3 25 3V-3ZM265.645 -3H25V3H265.645V-3ZM286.444 270.201C281.193 264.95 274.071 262 266.645 262V268C272.479 268 278.075 270.318 282.201 274.444L286.444 270.201ZM336.355 311C330.521 311 324.925 308.682 320.799 304.556L316.556 308.799C321.807 314.05 328.929 317 336.355 317V311ZM512.201 304.556C508.075 308.682 502.479 311 496.645 311V317C504.071 317 511.193 314.05 516.444 308.799L512.201 304.556ZM566.355 262C558.929 262 551.807 264.95 546.556 270.201L550.799 274.444C554.925 270.318 560.521 268 566.355 268V262Z" fill="#F84335" mask="url(#path-3-inside-2_2006_92)"/>
<rect y="67" width="160" height="80" fill="#C23B30"/>
<defs>
<linearGradient id="paint0_linear_2006_92" x1="341" y1="0" x2="341" y2="315" gradientUnits="userSpaceOnUse">
<stop stop-color="#F84335" stop-opacity="0.05"/>
<stop offset="1" stop-color="#F84335" stop-opacity="0.03"/>
</linearGradient>
<linearGradient id="paint1_linear_2006_92" x1="341" y1="0" x2="341" y2="315" gradientUnits="userSpaceOnUse">
<stop stop-color="#F84335" stop-opacity="0.05"/>
<stop offset="1" stop-color="#F84335" stop-opacity="0.03"/>
</linearGradient>
</defs>
</svg>
