<svg width="682" height="314" viewBox="0 0 682 314" fill="none" xmlns="http://www.w3.org/2000/svg">
<g filter="url(#filter0_b_1_1101)">
<mask id="path-1-inside-1_1_1101" fill="white">
<path fill-rule="evenodd" clip-rule="evenodd" d="M265.645 0.000244141C272.275 0.000244141 278.634 2.63417 283.322 7.32258L318.678 42.6779C323.366 47.3663 329.725 50.0002 336.355 50.0002H496.645C503.275 50.0002 509.634 47.3663 514.322 42.6779L549.678 7.32257C554.366 2.63416 560.725 0.000244141 567.355 0.000244141H657C670.807 0.000244141 682 11.1931 682 25.0002V240C682 253.807 670.807 265 657 265H566.355C559.725 265 553.366 267.634 548.678 272.323L514.322 306.678C509.634 311.366 503.275 314 496.645 314H336.355C329.725 314 323.366 311.366 318.678 306.678L284.322 272.323C279.634 267.634 273.275 265 266.645 265H25C11.1929 265 0 253.807 0 240V25.0002C0 11.1931 11.1929 0.000244141 25 0.000244141H265.645Z"/>
</mask>
<path fill-rule="evenodd" clip-rule="evenodd" d="M265.645 0.000244141C272.275 0.000244141 278.634 2.63417 283.322 7.32258L318.678 42.6779C323.366 47.3663 329.725 50.0002 336.355 50.0002H496.645C503.275 50.0002 509.634 47.3663 514.322 42.6779L549.678 7.32257C554.366 2.63416 560.725 0.000244141 567.355 0.000244141H657C670.807 0.000244141 682 11.1931 682 25.0002V240C682 253.807 670.807 265 657 265H566.355C559.725 265 553.366 267.634 548.678 272.323L514.322 306.678C509.634 311.366 503.275 314 496.645 314H336.355C329.725 314 323.366 311.366 318.678 306.678L284.322 272.323C279.634 267.634 273.275 265 266.645 265H25C11.1929 265 0 253.807 0 240V25.0002C0 11.1931 11.1929 0.000244141 25 0.000244141H265.645Z" fill="url(#paint0_linear_1_1101)"/>
<path d="M283.322 7.32258L285.444 5.20126V5.20125L283.322 7.32258ZM318.678 42.6779L316.556 44.7992V44.7992L318.678 42.6779ZM514.322 42.6779L516.444 44.7992V44.7992L514.322 42.6779ZM549.678 7.32257L547.556 5.20125V5.20125L549.678 7.32257ZM514.322 306.678L516.444 308.799L514.322 306.678ZM548.678 272.323L546.556 270.201L548.678 272.323ZM285.444 5.20125C280.193 -0.0497622 273.071 -2.99976 265.645 -2.99976V3.00024C271.479 3.00024 277.075 5.3181 281.201 9.4439L285.444 5.20125ZM320.799 40.5566L285.444 5.20126L281.201 9.4439L316.556 44.7992L320.799 40.5566ZM336.355 47.0002C330.521 47.0002 324.925 44.6824 320.799 40.5566L316.556 44.7992C321.807 50.0503 328.929 53.0002 336.355 53.0002V47.0002ZM496.645 47.0002H336.355V53.0002H496.645V47.0002ZM512.201 40.5566C508.075 44.6824 502.479 47.0002 496.645 47.0002V53.0002C504.071 53.0002 511.193 50.0503 516.444 44.7992L512.201 40.5566ZM547.556 5.20125L512.201 40.5566L516.444 44.7992L551.799 9.44389L547.556 5.20125ZM567.355 -2.99976C559.929 -2.99976 552.807 -0.0497635 547.556 5.20125L551.799 9.4439C555.925 5.31809 561.521 3.00024 567.355 3.00024V-2.99976ZM657 -2.99976H567.355V3.00024H657V-2.99976ZM685 25.0002C685 9.53627 672.464 -2.99976 657 -2.99976V3.00024C669.15 3.00024 679 12.85 679 25.0002H685ZM685 240V25.0002H679V240H685ZM657 268C672.464 268 685 255.464 685 240H679C679 252.151 669.15 262 657 262V268ZM566.355 268H657V262H566.355V268ZM546.556 270.201L512.201 304.557L516.444 308.799L550.799 274.444L546.556 270.201ZM496.645 311H336.355V317H496.645V311ZM320.799 304.557L286.444 270.201L282.201 274.444L316.556 308.799L320.799 304.557ZM25 268H266.645V262H25V268ZM-3 240C-3 255.464 9.53605 268 25 268V262C12.8498 262 3 252.15 3 240H-3ZM-3 25.0002V240H3V25.0002H-3ZM25 -2.99976C9.53603 -2.99976 -3 9.53627 -3 25.0002H3C3 12.85 12.8497 3.00024 25 3.00024V-2.99976ZM265.645 -2.99976H25V3.00024H265.645V-2.99976ZM286.444 270.201C281.193 264.95 274.071 262 266.645 262V268C272.479 268 278.075 270.318 282.201 274.444L286.444 270.201ZM336.355 311C330.521 311 324.925 308.682 320.799 304.557L316.556 308.799C321.807 314.05 328.929 317 336.355 317V311ZM512.201 304.557C508.075 308.682 502.479 311 496.645 311V317C504.071 317 511.193 314.05 516.444 308.799L512.201 304.557ZM566.355 262C558.929 262 551.807 264.95 546.556 270.201L550.799 274.444C554.925 270.318 560.521 268 566.355 268V262Z" fill="#F84335" mask="url(#path-1-inside-1_1_1101)"/>
<rect y="84.0002" width="189" height="40" fill="#C23B30"/>
</g>
<defs>
<filter id="filter0_b_1_1101" x="-50" y="-49.9998" width="782" height="414" filterUnits="userSpaceOnUse" color-interpolation-filters="sRGB">
<feFlood flood-opacity="0" result="BackgroundImageFix"/>
<feGaussianBlur in="BackgroundImageFix" stdDeviation="25"/>
<feComposite in2="SourceAlpha" operator="in" result="effect1_backgroundBlur_1_1101"/>
<feBlend mode="normal" in="SourceGraphic" in2="effect1_backgroundBlur_1_1101" result="shape"/>
</filter>
<linearGradient id="paint0_linear_1_1101" x1="341" y1="0.000244141" x2="341" y2="315" gradientUnits="userSpaceOnUse">
<stop stop-color="#F84335" stop-opacity="0.05"/>
<stop offset="1" stop-color="#F84335" stop-opacity="0.03"/>
</linearGradient>
</defs>
</svg>
