<svg width="66" height="66" viewBox="0 0 66 66" fill="none" xmlns="http://www.w3.org/2000/svg">
<circle cx="33" cy="33" r="31.5" stroke="white" stroke-width="3"/>
<path d="M58 33C58 39.6304 55.3661 45.9893 50.6777 50.6777C45.9893 55.3661 39.6304 58 33 58M58 33C58 26.3696 55.3661 20.0107 50.6777 15.3223C45.9893 10.6339 39.6304 8 33 8M58 33H8M33 58C26.3696 58 20.0107 55.3661 15.3223 50.6777C10.6339 45.9893 8 39.6304 8 33M33 58C37.6028 58 41.3333 46.8056 41.3333 33C41.3333 19.1944 37.6028 8 33 8M33 58C28.3972 58 24.6667 46.8056 24.6667 33C24.6667 19.1944 28.3972 8 33 8M33 8C26.3696 8 20.0107 10.6339 15.3223 15.3223C10.6339 20.0107 8 26.3696 8 33" stroke="#F84335" stroke-width="3" stroke-linecap="round" stroke-linejoin="round"/>
</svg>
