<svg width="610" height="610" viewBox="0 0 610 610" fill="none" xmlns="http://www.w3.org/2000/svg">
<g filter="url(#filter0_f_3_1612)">
<circle cx="305" cy="305" r="91" fill="url(#paint0_linear_3_1612)" fill-opacity="0.25"/>
</g>
<path fill-rule="evenodd" clip-rule="evenodd" d="M357.435 318.259C354.767 317.544 353.184 314.802 353.899 312.135L401.69 133.777C402.854 129.432 398.137 125.88 394.283 128.199L173.263 261.18C169.483 263.454 170.286 269.152 174.547 270.294L252.933 291.297C255.6 292.012 257.183 294.753 256.468 297.421L208.677 475.779C207.513 480.124 212.23 483.676 216.085 481.357L437.104 348.376C440.884 346.102 440.081 340.404 435.821 339.262L357.435 318.259Z" fill="url(#paint1_linear_3_1612)" fill-opacity="0.05"/>
<path d="M437.104 348.376L437.877 349.662L437.104 348.376ZM216.085 481.357L215.311 480.072L216.085 481.357ZM173.263 261.18L172.49 259.894L173.263 261.18ZM394.283 128.199L393.509 126.913L394.283 128.199ZM355.348 312.523L403.139 134.165L400.241 133.389L352.45 311.747L355.348 312.523ZM393.509 126.913L172.49 259.894L174.037 262.465L395.056 129.484L393.509 126.913ZM174.159 271.742L252.545 292.746L253.321 289.848L174.935 268.845L174.159 271.742ZM255.019 297.032L207.228 475.391L210.126 476.167L257.917 297.809L255.019 297.032ZM216.858 482.643L437.877 349.662L436.331 347.091L215.311 480.072L216.858 482.643ZM436.209 337.813L357.823 316.81L357.046 319.708L435.432 340.711L436.209 337.813ZM437.877 349.662C442.791 346.705 441.748 339.298 436.209 337.813L435.432 340.711C438.415 341.51 438.977 345.499 436.331 347.091L437.877 349.662ZM207.228 475.391C205.715 481.039 211.847 485.657 216.858 482.643L215.311 480.072C212.613 481.695 209.311 479.209 210.126 476.167L207.228 475.391ZM252.545 292.746C254.412 293.246 255.52 295.165 255.019 297.032L257.917 297.809C258.846 294.341 256.789 290.777 253.321 289.848L252.545 292.746ZM172.49 259.894C167.576 262.851 168.62 270.258 174.159 271.742L174.935 268.845C171.952 268.045 171.391 264.057 174.037 262.465L172.49 259.894ZM403.139 134.165C404.652 128.517 398.52 123.899 393.509 126.913L395.056 129.484C397.754 127.861 401.056 130.347 400.241 133.389L403.139 134.165ZM352.45 311.747C351.521 315.214 353.579 318.779 357.046 319.708L357.823 316.81C355.956 316.31 354.848 314.391 355.348 312.523L352.45 311.747Z" fill="url(#paint2_linear_3_1612)"/>
<g filter="url(#filter1_bd_3_1612)">
<mask id="path-4-inside-1_3_1612" fill="white">
<path d="M205.783 239.939H228.526V308.168L205.783 330.911H180.197V311.011L160.297 330.911H114.811V239.939H137.554V308.168H150.858L160.297 298.844V239.939H183.04V308.168H196.344L205.783 298.844V239.939Z"/>
</mask>
<path d="M205.783 239.939H228.526V308.168L205.783 330.911H180.197V311.011L160.297 330.911H114.811V239.939H137.554V308.168H150.858L160.297 298.844V239.939H183.04V308.168H196.344L205.783 298.844V239.939Z" fill="url(#paint3_linear_3_1612)"/>
<path d="M205.783 239.939V236.939H202.783V239.939H205.783ZM228.526 239.939H231.526V236.939H228.526V239.939ZM228.526 308.168L230.647 310.289L231.526 309.411V308.168H228.526ZM205.783 330.911V333.911H207.025L207.904 333.032L205.783 330.911ZM180.197 330.911H177.197V333.911H180.197V330.911ZM180.197 311.011H183.197V303.768L178.075 308.89L180.197 311.011ZM160.297 330.911V333.911H161.539L162.418 333.032L160.297 330.911ZM114.811 330.911H111.811V333.911H114.811V330.911ZM114.811 239.939V236.939H111.811V239.939H114.811ZM137.554 239.939H140.554V236.939H137.554V239.939ZM137.554 308.168H134.554V311.168H137.554V308.168ZM150.858 308.168V311.168H152.09L152.967 310.302L150.858 308.168ZM160.297 298.844L162.405 300.978L163.297 300.097V298.844H160.297ZM160.297 239.939V236.939H157.297V239.939H160.297ZM183.04 239.939H186.04V236.939H183.04V239.939ZM183.04 308.168H180.04V311.168H183.04V308.168ZM196.344 308.168V311.168H197.576L198.453 310.302L196.344 308.168ZM205.783 298.844L207.891 300.978L208.783 300.097V298.844H205.783ZM205.783 242.939H228.526V236.939H205.783V242.939ZM225.526 239.939V308.168H231.526V239.939H225.526ZM226.404 306.047L203.661 328.79L207.904 333.032L230.647 310.289L226.404 306.047ZM205.783 327.911H180.197V333.911H205.783V327.911ZM183.197 330.911V311.011H177.197V330.911H183.197ZM178.075 308.89L158.175 328.79L162.418 333.032L182.318 313.132L178.075 308.89ZM160.297 327.911H114.811V333.911H160.297V327.911ZM117.811 330.911V239.939H111.811V330.911H117.811ZM114.811 242.939H137.554V236.939H114.811V242.939ZM134.554 239.939V308.168H140.554V239.939H134.554ZM137.554 311.168H150.858V305.168H137.554V311.168ZM152.967 310.302L162.405 300.978L158.188 296.709L148.75 306.034L152.967 310.302ZM163.297 298.844V239.939H157.297V298.844H163.297ZM160.297 242.939H183.04V236.939H160.297V242.939ZM180.04 239.939V308.168H186.04V239.939H180.04ZM183.04 311.168H196.344V305.168H183.04V311.168ZM198.453 310.302L207.891 300.978L203.674 296.709L194.236 306.034L198.453 310.302ZM208.783 298.844V239.939H202.783V298.844H208.783Z" fill="#609CFF" mask="url(#path-4-inside-1_3_1612)"/>
<path d="M270.036 261.181L269.597 261.621V262.242V296.497L250.377 315.921V253.692L271.717 232.429L356.104 232.353L336.819 251.57H280.269H279.648L279.208 252.009L270.036 261.181Z" fill="url(#paint4_linear_3_1612)" stroke="#609CFF" stroke-width="3"/>
<path d="M338.58 302.884L339.019 302.445V301.823V267.569L358.239 248.144V310.373L336.899 331.637L252.512 331.712L271.797 312.496H328.347H328.968L329.407 312.057L338.58 302.884Z" fill="url(#paint5_linear_3_1612)" stroke="#609CFF" stroke-width="3"/>
<mask id="path-8-inside-2_3_1612" fill="white">
<path d="M403.592 272.89V308.937H494.564V331.68H380.849V263.451L403.592 240.708H494.564V263.451H412.917L403.592 272.89Z"/>
</mask>
<path d="M403.592 272.89V308.937H494.564V331.68H380.849V263.451L403.592 240.708H494.564V263.451H412.917L403.592 272.89Z" fill="url(#paint6_linear_3_1612)"/>
<path d="M403.592 272.89L401.458 270.781L400.592 271.658V272.89H403.592ZM403.592 308.937H400.592V311.937H403.592V308.937ZM494.564 308.937H497.564V305.937H494.564V308.937ZM494.564 331.68V334.68H497.564V331.68H494.564ZM380.849 331.68H377.849V334.68H380.849V331.68ZM380.849 263.451L378.728 261.33L377.849 262.209V263.451H380.849ZM403.592 240.708V237.708H402.35L401.471 238.587L403.592 240.708ZM494.564 240.708H497.564V237.708H494.564V240.708ZM494.564 263.451V266.451H497.564V263.451H494.564ZM412.917 263.451V260.451H411.664L410.783 261.343L412.917 263.451ZM400.592 272.89V308.937H406.592V272.89H400.592ZM403.592 311.937H494.564V305.937H403.592V311.937ZM491.564 308.937V331.68H497.564V308.937H491.564ZM494.564 328.68H380.849V334.68H494.564V328.68ZM383.849 331.68V263.451H377.849V331.68H383.849ZM382.971 265.572L405.714 242.829L401.471 238.587L378.728 261.33L382.971 265.572ZM403.592 243.708H494.564V237.708H403.592V243.708ZM491.564 240.708V263.451H497.564V240.708H491.564ZM494.564 260.451H412.917V266.451H494.564V260.451ZM410.783 261.343L401.458 270.781L405.726 274.998L415.051 265.56L410.783 261.343Z" fill="#609CFF" mask="url(#path-8-inside-2_3_1612)"/>
</g>
<path d="M138.111 353.023H143.255V368.456L138.111 373.6H132.324V369.099L127.823 373.6H117.534V353.023H122.678V368.456H125.688L127.823 366.347V353.023H132.967V368.456H135.976L138.111 366.347V353.023ZM147.489 353.023H173.211V358.167H162.922V368.456H173.211V373.6H147.489V368.456H157.778V358.167H147.489V353.023ZM198.022 353.023H203.166V373.6H192.877L187.733 368.456V360.302L185.598 358.167H182.589V373.6H177.445V353.023H187.733L192.877 358.167V366.347L194.986 368.456H198.022V353.023ZM222.189 353.023H233.121V358.167H222.833V373.6H217.688V360.302L215.553 358.167H207.4V353.023H217.688L222.189 357.524V353.023ZM237.355 353.023H263.076V358.167H242.499V360.739H263.076V365.884H244.608L242.499 368.019V368.456H263.076V373.6H237.355V365.884L241.856 361.383H237.355V353.023ZM293.031 353.023V361.383H288.53L293.031 365.884V373.6H287.887V368.019L285.752 365.884H272.454V373.6H267.31V358.167L272.454 353.023H293.031ZM287.887 360.739V358.167H274.564L272.454 360.302V360.739H287.887ZM311.793 353.023H332.37V368.456L327.226 373.6H306.649V358.167L311.793 353.023ZM327.226 366.347V358.167H313.902L311.793 360.302V368.456H325.091L327.226 366.347ZM362.325 353.023V358.167H341.748V360.739H362.325V365.884H343.857L341.748 368.019V373.6H336.604V365.884L341.105 361.383H336.604V353.023H362.325ZM381.087 360.302V368.456H401.664V373.6H375.942V358.167L381.087 353.023H401.664V358.167H383.196L381.087 360.302ZM411.042 353.023H431.619V368.456L426.474 373.6H405.897V358.167L411.042 353.023ZM426.474 366.347V358.167H413.151L411.042 360.302V368.456H424.34L426.474 366.347ZM435.853 353.023H461.574V368.456L456.43 373.6H435.853V353.023ZM456.43 366.347V358.167H440.997V368.456H454.295L456.43 366.347ZM465.808 353.023H491.529V358.167H470.952V360.739H491.529V365.884H473.061L470.952 368.019V368.456H491.529V373.6H465.808V365.884L470.309 361.383H465.808V353.023Z" fill="#609CFF"/>
<defs>
<filter id="filter0_f_3_1612" x="0" y="0" width="610" height="610" filterUnits="userSpaceOnUse" color-interpolation-filters="sRGB">
<feFlood flood-opacity="0" result="BackgroundImageFix"/>
<feBlend mode="normal" in="SourceGraphic" in2="BackgroundImageFix" result="shape"/>
<feGaussianBlur stdDeviation="107" result="effect1_foregroundBlur_3_1612"/>
</filter>
<filter id="filter1_bd_3_1612" x="104.811" y="220.85" width="399.754" height="122.365" filterUnits="userSpaceOnUse" color-interpolation-filters="sRGB">
<feFlood flood-opacity="0" result="BackgroundImageFix"/>
<feGaussianBlur in="BackgroundImageFix" stdDeviation="5"/>
<feComposite in2="SourceAlpha" operator="in" result="effect1_backgroundBlur_3_1612"/>
<feColorMatrix in="SourceAlpha" type="matrix" values="0 0 0 0 0 0 0 0 0 0 0 0 0 0 0 0 0 0 127 0" result="hardAlpha"/>
<feOffset/>
<feGaussianBlur stdDeviation="5"/>
<feComposite in2="hardAlpha" operator="out"/>
<feColorMatrix type="matrix" values="0 0 0 0 0.984314 0 0 0 0 0.737255 0 0 0 0 0.0156863 0 0 0 0.5 0"/>
<feBlend mode="normal" in2="effect1_backgroundBlur_3_1612" result="effect2_dropShadow_3_1612"/>
<feBlend mode="normal" in="SourceGraphic" in2="effect2_dropShadow_3_1612" result="shape"/>
</filter>
<linearGradient id="paint0_linear_3_1612" x1="305" y1="214" x2="305" y2="396" gradientUnits="userSpaceOnUse">
<stop stop-color="#609CFF"/>
<stop offset="1" stop-color="#E2AA06"/>
</linearGradient>
<linearGradient id="paint1_linear_3_1612" x1="355.695" y1="116.266" x2="254.412" y2="494.26" gradientUnits="userSpaceOnUse">
<stop stop-color="#609CFF"/>
<stop offset="1" stop-color="#609CFF"/>
</linearGradient>
<linearGradient id="paint2_linear_3_1612" x1="355.695" y1="116.266" x2="254.672" y2="493.29" gradientUnits="userSpaceOnUse">
<stop stop-color="#609CFF"/>
<stop offset="0.5" stop-color="#E2AA06" stop-opacity="0"/>
<stop offset="1" stop-color="#609CFF"/>
</linearGradient>
<linearGradient id="paint3_linear_3_1612" x1="171.646" y1="234.911" x2="171.646" y2="341.502" gradientUnits="userSpaceOnUse">
<stop stop-color="#609CFF" stop-opacity="0.05"/>
<stop offset="1" stop-color="#609CFF" stop-opacity="0.03"/>
</linearGradient>
<linearGradient id="paint4_linear_3_1612" x1="304.307" y1="319.57" x2="304.307" y2="230.85" gradientUnits="userSpaceOnUse">
<stop stop-color="#609CFF" stop-opacity="0.05"/>
<stop offset="1" stop-color="#609CFF" stop-opacity="0.03"/>
</linearGradient>
<linearGradient id="paint5_linear_3_1612" x1="304.308" y1="244.496" x2="304.308" y2="333.215" gradientUnits="userSpaceOnUse">
<stop stop-color="#609CFF" stop-opacity="0.05"/>
<stop offset="1" stop-color="#609CFF" stop-opacity="0.03"/>
</linearGradient>
<linearGradient id="paint6_linear_3_1612" x1="437.685" y1="241.68" x2="437.685" y2="334.67" gradientUnits="userSpaceOnUse">
<stop stop-color="#609CFF" stop-opacity="0.05"/>
<stop offset="1" stop-color="#609CFF" stop-opacity="0.03"/>
</linearGradient>
</defs>
</svg>
