<svg width="1920" height="600" viewBox="0 0 1920 600" fill="none" xmlns="http://www.w3.org/2000/svg">
<path d="M284.5 -8.9407e-06H434.5V450L284.5 600H115.75V468.75L-15.5 600H-315.5V-8.9407e-06H-165.5V450H-77.75L-15.5 388.5V-8.9407e-06H134.5V450H222.25L284.5 388.5V-8.9407e-06ZM734.207 -8.9407e-06H1334.21V450L1184.21 600H584.207V150L734.207 -8.9407e-06ZM1184.21 388.5V150H795.707L734.207 212.25V450H1121.96L1184.21 388.5ZM1633.91 212.25V450H2233.91V600H1483.91V150L1633.91 -8.9407e-06H2233.91V150H1695.41L1633.91 212.25Z" fill="#D9D9D9" fill-opacity="0.05"/>
</svg>
